<svg xmlns="http://www.w3.org/2000/svg" width="24" height="24" viewBox="0 0 24 24" alt="Instagram icon">
  <path id="iconmonstr-instagram-13" d="M15.2,5.5H8.8c-2.2.1-3.2,1.1-3.3,3.3v6.4c.1,2.1,1.1,3.2,3.3,3.3h6.4c2.2-.1,3.2-1.1,3.3-3.3V8.8C18.4,6.6,17.4,5.6,15.2,5.5ZM12,16.1A4.1,4.1,0,1,1,16.1,12,4.055,4.055,0,0,1,12,16.1Zm4.3-7.4a1,1,0,0,1-1-1,.945.945,0,0,1,1-1,1,1,0,1,1,0,2ZM14.7,12A2.7,2.7,0,1,1,12,9.3,2.689,2.689,0,0,1,14.7,12ZM19,0H5A4.951,4.951,0,0,0,0,5V19a4.951,4.951,0,0,0,5,5H19a4.951,4.951,0,0,0,5-5V5A4.951,4.951,0,0,0,19,0Zm1,15.3c-.1,2.9-1.8,4.5-4.7,4.7H8.7c-2.9-.1-4.5-1.7-4.7-4.7V8.7A4.573,4.573,0,0,1,8.7,4h6.6c2.9.1,4.5,1.8,4.7,4.7v6.6Z" fill="CurrentColor"/>
</svg>