<svg xmlns="http://www.w3.org/2000/svg" width="24" height="24" viewBox="0 0 24 24" alt="TicTok icon">
  <path id="Icon_Tiktoc" d="M19.1,0H5A5,5,0,0,0,0,4.9V19a5,5,0,0,0,4.9,5H19a5,5,0,0,0,5-4.9V5A5,5,0,0,0,19.1,0ZM19,8.7v1.9a7.512,7.512,0,0,1-2.6-.5,5.968,5.968,0,0,1-1.5-.9V15a4.691,4.691,0,0,1-1.5,3.5,5,5,0,0,1-2.8,1.4c-.1.1-.4.1-.6.1a5.711,5.711,0,0,1-3.1-1c-.2-.1-.3-.3-.5-.4a5.367,5.367,0,0,1-1.5-3.8,5.63,5.63,0,0,1,1.2-3,5.007,5.007,0,0,1,3.8-1.7,2.2,2.2,0,0,1,.8.1v2.6a1.7,1.7,0,0,0-.7-.1,2.433,2.433,0,0,0-2.4,2.4,2.4,2.4,0,0,0,1.2,2,2.016,2.016,0,0,0,1.1.3,2.769,2.769,0,0,0,.9-.1,2.378,2.378,0,0,0,1.6-2.2V4H15a2.2,2.2,0,0,0,.1.8,4.316,4.316,0,0,0,1.5,2.4A4.069,4.069,0,0,0,19,8h0Z" fill="CurrentColor"/>
</svg>