<svg xmlns="http://www.w3.org/2000/svg" width="24" height="24" viewBox="0 0 24 24" alt="Twitter icon">
  <path id="iconmonstr-twitter-3" d="M19,0H5A4.951,4.951,0,0,0,0,5V19a4.951,4.951,0,0,0,5,5H19a4.951,4.951,0,0,0,5-5V5A4.951,4.951,0,0,0,19,0Zm-.1,9.2A9.3,9.3,0,0,1,9.6,19a8.447,8.447,0,0,1-5-1.5,6.746,6.746,0,0,0,4.9-1.4,3.439,3.439,0,0,1-3.1-2.3,2.573,2.573,0,0,0,1.5-.1,3.151,3.151,0,0,1-2.6-3.3,1.612,1.612,0,0,0,1.3.6,3.228,3.228,0,0,1-1-4.4A9.032,9.032,0,0,0,12.4,10a3.244,3.244,0,0,1,3.2-4A3.492,3.492,0,0,1,18,7a5.387,5.387,0,0,0,2.1-.8A3.192,3.192,0,0,1,18.7,8a10.548,10.548,0,0,0,1.9-.5A6.852,6.852,0,0,1,18.9,9.2Z" fill="CurrentColor"/>
</svg>