<?xml version="1.0" encoding="utf-8"?>
<!-- Generator: Adobe Illustrator 26.3.1, SVG Export Plug-In . SVG Version: 6.00 Build 0)  -->
<svg version="1.1" id="Layer_1" xmlns="http://www.w3.org/2000/svg" xmlns:xlink="http://www.w3.org/1999/xlink" x="0px" y="0px"
	 viewBox="0 0 500 500" style="enable-background:new 0 0 500 500;" xml:space="preserve">
<style type="text/css">
	.st0{filter:url(#Adobe_OpacityMaskFilter);}
	.st1{fill-rule:evenodd;clip-rule:evenodd;fill:#FFFFFF;}
	.st2{mask:url(#b_00000138556801248977694340000013696309477434867592_);fill-rule:evenodd;clip-rule:evenodd;fill:#00A1E0;}
	.st3{fill-rule:evenodd;clip-rule:evenodd;fill:#FFFFFE;}
</style>
<g>
	<defs>
		<filter id="Adobe_OpacityMaskFilter" filterUnits="userSpaceOnUse" x="93" y="140.1" width="314" height="219.8">
			<feColorMatrix  type="matrix" values="1 0 0 0 0  0 1 0 0 0  0 0 1 0 0  0 0 0 1 0"/>
		</filter>
	</defs>
	
		<mask maskUnits="userSpaceOnUse" x="93" y="140.1" width="314" height="219.8" id="b_00000138556801248977694340000013696309477434867592_">
		<g class="st0">
			<path id="a_00000080180082457063608070000004743692842270937236_" class="st1" d="M93.3,140h313.8v219.2H93.3L93.3,140z"/>
		</g>
	</mask>
	<path class="st2" d="M223.7,164c10.1-10.5,24.2-17.1,39.8-17.1c20.8,0,38.8,11.5,48.5,28.7c8.6-3.8,17.9-5.8,27.3-5.8
		c37.4,0,67.7,30.6,67.7,68.3s-30.3,68.3-67.7,68.3c-4.6,0-9-0.5-13.4-1.3c-8.5,15.1-24.7,25.4-43.2,25.4c-7.5,0-14.9-1.7-21.7-5
		c-8.6,20.2-28.6,34.4-51.9,34.4c-24.3,0-45-15.3-53-36.9c-3.5,0.7-7.2,1.1-10.8,1.1c-29,0-52.4-23.8-52.4-53
		c0-19.6,10.5-36.7,26.2-45.9c-3.3-7.6-5-15.9-5-24.2c0-33.7,27.3-60.9,61-60.9C194.9,140.1,212.6,149.5,223.7,164"/>
	<path class="st3" d="M138.7,254c-0.2,0.5,0.1,0.6,0.1,0.7c0.6,0.4,1.2,0.7,1.8,1.1c3.2,1.7,6.2,2.2,9.4,2.2
		c6.4,0,10.4-3.4,10.4-8.9V249c0-5.1-4.5-7-8.7-8.3l-0.6-0.2c-3.2-1-6-1.9-6-4v-0.1c0-1.8,1.6-3.1,4.1-3.1c2.8,0,6.1,0.9,8.2,2.1
		c0,0,0.6,0.4,0.9-0.2c0.1-0.3,1.2-3.2,1.3-3.5c0.1-0.3-0.1-0.6-0.3-0.7c-2.4-1.5-5.8-2.5-9.2-2.5l-0.6,0c-5.9,0-10,3.6-10,8.7v0.1
		c0,5.4,4.5,7.1,8.8,8.3l0.7,0.2c3.1,1,5.8,1.8,5.8,3.9v0.1c0,2-1.7,3.5-4.5,3.5c-1.1,0-4.5,0-8.3-2.4c-0.5-0.3-0.7-0.5-1.1-0.7
		c-0.2-0.1-0.6-0.3-0.8,0.3L138.7,254 M233,254c-0.2,0.5,0.1,0.6,0.1,0.7c0.6,0.4,1.2,0.7,1.8,1.1c3.2,1.7,6.2,2.2,9.4,2.2
		c6.4,0,10.4-3.4,10.4-8.9v-0.1c0-5.1-4.5-7-8.7-8.3l-0.6-0.2c-3.2-1-6-1.9-6-4v-0.1c0-1.8,1.6-3.1,4.1-3.1c2.8,0,6.1,0.9,8.2,2.1
		c0,0,0.6,0.4,0.9-0.2c0.1-0.3,1.2-3.2,1.3-3.5c0.1-0.3-0.1-0.6-0.3-0.7c-2.4-1.5-5.8-2.5-9.2-2.5l-0.6,0c-5.9,0-10,3.6-10,8.7v0.1
		c0,5.4,4.5,7.1,8.8,8.3l0.7,0.2c3.1,1,5.8,1.8,5.8,3.9v0.1c0,2-1.7,3.5-4.5,3.5c-1.1,0-4.6,0-8.3-2.4c-0.5-0.3-0.7-0.4-1.1-0.7
		c-0.1-0.1-0.7-0.3-0.8,0.3L233,254 M297.4,243.2c0,3.1-0.6,5.6-1.7,7.3c-1.1,1.7-2.8,2.6-5.2,2.6s-4.1-0.8-5.2-2.5
		c-1.1-1.7-1.7-4.2-1.7-7.3c0-3.1,0.6-5.6,1.7-7.3c1.1-1.7,2.8-2.5,5.2-2.5c2.4,0,4.1,0.8,5.2,2.5
		C296.8,237.7,297.4,240.1,297.4,243.2 M302.7,237.4c-0.5-1.8-1.3-3.4-2.4-4.7c-1.1-1.3-2.5-2.4-4.1-3.1c-1.6-0.8-3.6-1.2-5.8-1.2
		c-2.2,0-4.1,0.4-5.8,1.2c-1.6,0.8-3,1.8-4.1,3.1c-1.1,1.3-1.9,2.9-2.4,4.7c-0.5,1.8-0.8,3.7-0.8,5.8s0.3,4,0.8,5.8
		c0.5,1.8,1.3,3.4,2.4,4.7c1.1,1.3,2.5,2.4,4.1,3.1c1.6,0.7,3.6,1.1,5.8,1.1c2.2,0,4.1-0.4,5.8-1.1c1.6-0.7,3-1.8,4.1-3.1
		c1.1-1.3,1.9-2.9,2.4-4.7c0.5-1.8,0.8-3.7,0.8-5.8C303.5,241.2,303.3,239.2,302.7,237.4 M346.9,252.2c-0.2-0.5-0.7-0.3-0.7-0.3
		c-0.8,0.3-1.6,0.6-2.5,0.7c-0.9,0.1-1.9,0.2-2.9,0.2c-2.6,0-4.7-0.8-6.1-2.3c-1.5-1.5-2.3-4-2.3-7.3c0-3,0.7-5.3,2.1-7.1
		c1.3-1.7,3.3-2.6,6-2.6c2.2,0,3.9,0.3,5.7,0.8c0,0,0.4,0.2,0.6-0.4c0.5-1.3,0.8-2.2,1.3-3.7c0.1-0.4-0.2-0.6-0.3-0.6
		c-0.7-0.3-2.3-0.7-3.6-0.9c-1.2-0.2-2.5-0.3-4-0.3c-2.3,0-4.3,0.4-6,1.2c-1.7,0.8-3.2,1.8-4.3,3.1c-1.2,1.3-2,2.9-2.6,4.7
		c-0.6,1.8-0.9,3.7-0.9,5.8c0,4.5,1.2,8.1,3.6,10.7c2.4,2.7,6,4,10.6,4c2.8,0,5.6-0.6,7.6-1.4c0,0,0.4-0.2,0.2-0.6L346.9,252.2
		 M356.3,240.2c0.3-1.7,0.7-3.2,1.5-4.3c1.1-1.7,2.8-2.6,5.2-2.6c2.4,0,4,0.9,5.1,2.6c0.7,1.1,1.1,2.6,1.2,4.3H356.3L356.3,240.2z
		 M374.4,236.4c-0.5-1.7-1.6-3.5-2.3-4.3c-1.2-1.3-2.3-2.1-3.5-2.6c-1.6-0.7-3.4-1.1-5.2-1.1c-2.3,0-4.3,0.4-6,1.2
		c-1.7,0.8-3.1,1.9-4.2,3.2c-1.1,1.3-1.9,2.9-2.5,4.7c-0.5,1.8-0.8,3.7-0.8,5.8c0,2.1,0.3,4,0.8,5.8c0.6,1.8,1.4,3.3,2.6,4.6
		c1.2,1.3,2.7,2.3,4.6,3c1.8,0.7,4.1,1.1,6.6,1.1c5.3,0,8-1.2,9.2-1.8c0.2-0.1,0.4-0.3,0.2-0.9l-1.2-3.3c-0.2-0.5-0.7-0.3-0.7-0.3
		c-1.3,0.5-3.1,1.4-7.5,1.3c-2.8,0-4.9-0.8-6.2-2.1c-1.3-1.3-2-3.3-2.1-6.1l18.2,0c0,0,0.5,0,0.5-0.5
		C375,244,375.6,240.5,374.4,236.4L374.4,236.4z M210.6,240.2c0.3-1.7,0.7-3.2,1.5-4.3c1.1-1.7,2.8-2.6,5.2-2.6c2.4,0,4,0.9,5.1,2.6
		c0.7,1.1,1.1,2.6,1.2,4.3H210.6L210.6,240.2z M228.7,236.4c-0.5-1.7-1.6-3.5-2.3-4.3c-1.2-1.3-2.3-2.1-3.5-2.6
		c-1.6-0.7-3.4-1.1-5.2-1.1c-2.3,0-4.3,0.4-6,1.2c-1.7,0.8-3.1,1.9-4.2,3.2c-1.1,1.3-1.9,2.9-2.5,4.7c-0.5,1.8-0.8,3.7-0.8,5.8
		c0,2.1,0.3,4,0.8,5.8c0.6,1.8,1.4,3.3,2.6,4.6c1.2,1.3,2.7,2.3,4.6,3c1.8,0.7,4,1.1,6.6,1.1c5.3,0,8-1.2,9.2-1.8
		c0.2-0.1,0.4-0.3,0.2-0.9l-1.2-3.3c-0.2-0.5-0.7-0.3-0.7-0.3c-1.3,0.5-3.1,1.4-7.5,1.3c-2.8,0-4.9-0.8-6.2-2.1
		c-1.3-1.3-2-3.3-2.1-6.1l18.2,0c0,0,0.5,0,0.5-0.5C229.3,244,229.9,240.5,228.7,236.4L228.7,236.4z M171.3,252.1
		c-0.7-0.6-0.8-0.7-1-1.1c-0.4-0.6-0.5-1.3-0.5-2.4c0-1.6,0.5-2.7,1.6-3.5c0,0,1.6-1.4,5.3-1.3c1.7,0,3.3,0.2,4.9,0.4v8.3h0
		c0,0-2.3,0.5-4.9,0.7C172.9,253.4,171.3,252.1,171.3,252.1L171.3,252.1z M178.5,239.3c-0.7-0.1-1.7-0.1-2.8-0.1
		c-1.6,0-3.1,0.2-4.5,0.6c-1.4,0.4-2.7,1-3.8,1.8c-1.1,0.8-2,1.8-2.6,3c-0.6,1.2-1,2.6-1,4.2c0,1.6,0.3,3,0.8,4.2
		c0.5,1.1,1.4,2.1,2.4,2.8c1,0.7,2.3,1.3,3.7,1.6c1.4,0.3,3,0.5,4.8,0.5c1.9,0,3.7-0.2,5.5-0.5c1.5-0.3,3.1-0.6,4.6-0.9
		c0.6-0.1,1.3-0.3,1.3-0.3c0.4-0.1,0.4-0.6,0.4-0.6l0-16.6c0-3.6-1-6.4-2.9-8c-1.9-1.7-4.7-2.5-8.4-2.5c-1.4,0-3.6,0.2-4.9,0.4
		c0,0-4,0.8-5.6,2.1c0,0-0.4,0.2-0.2,0.7l1.3,3.5c0.2,0.4,0.6,0.3,0.6,0.3s0.1-0.1,0.3-0.1c3.5-1.9,7.9-1.8,7.9-1.8
		c2,0,3.5,0.4,4.5,1.2c1,0.8,1.5,1.9,1.5,4.3v0.8C180,239.5,178.5,239.3,178.5,239.3L178.5,239.3z M325,229.9c0.1-0.3,0-0.5-0.3-0.6
		c0,0,0,0,0,0c-0.3-0.1-1.9-0.4-3-0.5c-2.3-0.1-3.6,0.2-4.7,0.8c-1.1,0.5-2.4,1.3-3.1,2.3l0-2.2c0-0.3-0.2-0.6-0.5-0.6h-4.7
		c-0.3,0-0.5,0.2-0.5,0.6v27.1c0,0.3,0.2,0.6,0.6,0.6h4.8c0.3,0,0.6-0.2,0.6-0.6V243c0-1.8,0.2-3.6,0.6-4.8c0.4-1.1,0.9-2,1.6-2.7
		c0.6-0.6,1.4-1.1,2.2-1.3c0.8-0.2,1.6-0.3,2.4-0.3c1,0,2,0.2,2,0.2c0.4,0,0.5-0.2,0.7-0.5C324,232.8,324.9,230.3,325,229.9"/>
	<path class="st3" d="M280.4,217.4c-0.6-0.2-1.2-0.3-1.8-0.4c-0.8-0.1-1.6-0.2-2.5-0.2c-3.3,0-5.9,0.9-7.7,2.8
		c-1.8,1.8-3,4.6-3.7,8.3l-0.2,1.2h-4.1c0,0-0.5,0-0.6,0.5l-0.7,3.8c0,0.4,0.1,0.6,0.6,0.6h4l-4.1,22.8c-0.3,1.8-0.7,3.3-1.1,4.5
		c-0.4,1.1-0.8,2-1.3,2.6c-0.5,0.6-0.9,1-1.7,1.3c-0.6,0.2-1.3,0.3-2.1,0.3c-0.4,0-1-0.1-1.5-0.2c-0.4-0.1-0.7-0.2-1-0.3
		c0,0-0.5-0.2-0.7,0.3c-0.2,0.4-1.2,3.3-1.3,3.7c-0.1,0.4,0.1,0.6,0.3,0.7c0.5,0.2,0.9,0.3,1.7,0.5c1,0.2,1.9,0.3,2.7,0.3
		c1.7,0,3.2-0.2,4.5-0.7c1.3-0.5,2.4-1.3,3.4-2.3c1.1-1.2,1.7-2.4,2.4-4.1c0.6-1.7,1.2-3.7,1.6-6.1l4.1-23.2h6c0,0,0.5,0,0.6-0.5
		l0.7-3.8c0-0.4-0.1-0.6-0.6-0.6h-5.8c0-0.1,0.3-2.2,1-4.1c0.3-0.8,0.8-1.5,1.3-1.9c0.4-0.4,0.9-0.8,1.5-0.9c0.6-0.2,1.3-0.3,2-0.3
		c0.5,0,1.1,0.1,1.5,0.2c0.6,0.1,0.8,0.2,0.9,0.2c0.6,0.2,0.7,0,0.8-0.3l1.4-3.8C280.9,217.6,280.6,217.4,280.4,217.4 M199.1,256.7
		c0,0.3-0.2,0.6-0.5,0.6h-4.8c-0.3,0-0.5-0.2-0.5-0.6v-38.8c0-0.3,0.2-0.5,0.5-0.5h4.8c0.3,0,0.5,0.2,0.5,0.5V256.7"/>
</g>
</svg>
