<?xml version="1.0" encoding="utf-8"?>
<!-- Generator: Adobe Illustrator 26.2.1, SVG Export Plug-In . SVG Version: 6.00 Build 0)  -->
<svg version="1.1" id="Layer_1" xmlns="http://www.w3.org/2000/svg" xmlns:xlink="http://www.w3.org/1999/xlink" x="0px" y="0px"
	 viewBox="0 0 500 500" style="enable-background:new 0 0 500 500;" xml:space="preserve">
<style type="text/css">
	.st0{fill:#0A1D33;}
	.st1{fill:none;}
</style>
<g>
	<path class="st0" d="M172.8,224.3c0-2.4-1.8-4.3-4.4-4.3s-4.4,1.9-4.4,4.3v34.8c0,2.4,1.8,4.3,4.4,4.3c2.6,0,4.4-1.9,4.4-4.3V224.3
		z"/>
	<path class="st0" d="M215.8,220c-2.5,0-4.3,1.9-4.3,4.3v14.9l0.2,13.3l-5.3-12.4l-6.9-14.1c-2.1-4.4-4.5-5.9-8-5.9
		c-5.1,0-7.3,3.2-7.3,7.8v31.3c0,2.4,1.8,4.3,4.3,4.3s4.3-1.9,4.3-4.3l-0.1-14.7l-0.2-15l5.6,13.8l7,14.4c2.2,4.6,4.5,5.9,8,5.9
		c4.5,0,6.9-2.8,6.9-7.9v-31.2C220.1,221.9,218.3,220,215.8,220z"/>
	<path class="st0" d="M252.2,228.9l9.9,0.2c2.3,0.1,4.1-1.7,4.1-4.2s-1.8-4.3-4.1-4.3l-28.6-0.1c-2.2,0-4.1,1.8-4.1,4.3
		s1.9,4.3,4.1,4.2l9.9-0.2V259c0,2.4,1.8,4.3,4.4,4.3c2.6,0,4.4-1.9,4.4-4.3L252.2,228.9L252.2,228.9z"/>
	<path class="st0" d="M281.5,262.8h21.3c2.2,0,4.1-1.7,4.1-4c0-2.4-1.8-4.1-4.1-4.1l-18.5,0.1v-10.1h16c2.2,0,3.9-1.6,3.9-3.9
		c0-2.3-1.8-3.9-3.9-3.9l-16,0.1v-8.3h18.5c2.2,0,4.1-1.7,4.1-4.1s-1.8-4-4.1-4l-21.2,0.1c-3.9,0-6.1,2.2-6.1,6v30.2
		C275.5,260.6,277.7,262.8,281.5,262.8z"/>
	<path class="st0" d="M341.4,245.6c5.8-1.5,9.1-6,9.1-11.9c0-6.6-4.3-13.2-14.6-13.2h-13.3c-3.9,0-6.1,2.2-6.1,6V259
		c0,2.4,1.8,4.3,4.5,4.3c2.6,0,4.5-1.9,4.5-4.3l-0.1-11.4h7.3l7.5,13.4c1.2,2.1,3.8,2.9,6.1,1.7c2.4-1.3,3-3.8,1.8-5.9L341.4,245.6z
		 M325.5,228.6H336c3.6,0,5.8,2.2,5.8,5.6c0,3.3-2.1,5.7-5.7,5.7h-10.7v-11.3H325.5z"/>
	<path class="st0" d="M377.3,263.6c8.8,0,14.5-4,16.5-10.5c1-3.7-1.2-6.3-4.4-6.3c-2,0-3.3,1-4.1,3.3c-1.2,3.4-4.2,5.5-8.4,5.5
		c-6.7,0-9.6-4.5-9.6-14c0-9.2,3-13.7,9.6-13.7c4.2,0,6.6,1.8,8.1,5.8c0.8,2.3,2.2,3.3,4.3,3.3c3.1,0,5.5-2.5,4.5-6
		c-1.9-7.1-7.6-11.1-16.7-11.1c-12.5,0-18.8,7.6-18.8,21.7C358.3,255.8,364.6,263.6,377.3,263.6z"/>
	<path class="st0" d="M420.4,263.5c12.8,0,19.2-7.9,19.2-21.9c0-14.1-6.5-21.9-19.2-21.9s-19.1,7.9-19.1,21.9
		C401.3,255.7,407.8,263.5,420.4,263.5z M420.4,255.4c-7.1,0-10.2-4.5-10.2-13.8c0-9.4,3.1-13.9,10.2-13.9s10.4,4.5,10.4,13.9
		C430.7,250.9,427.6,255.4,420.4,255.4z"/>
	<path class="st0" d="M496,227.5c0-4.8-3-7.6-7.6-7.6c-3.8,0-6.6,2.1-8,6.8l-4.7,15.2l-3.1,10.9l-3-10.9l-5-15.2
		c-1.4-4.4-3.8-6.8-8.1-6.8c-4.7,0-7.6,2.8-7.6,7.6V259c0,2.4,1.7,4.3,4.2,4.3s4.2-1.9,4.2-4.3l-0.1-15.2l-0.4-16.3l4.8,16.7
		l5.1,14.7c1.1,3.3,3.1,4.3,5.8,4.3c2.5,0,4.5-0.9,5.5-4.2l4.8-14.9l5.1-16.8l-0.5,16.4v15.2c0,2.4,1.8,4.3,4.2,4.3
		c2.5,0,4.2-1.9,4.2-4.3L496,227.5z"/>
	<path class="st0" d="M100.9,247.3c0,1-0.4,2-1.1,2.7s-1.7,1.1-2.7,1.1s-2-0.4-2.7-1.1c-0.7-0.7-1.1-1.7-1.1-2.7v-33.9
		c0-1,0.4-2,1.1-2.7s1.7-1.1,2.7-1.1s2,0.4,2.7,1.1c0.7,0.7,1.1,1.7,1.1,2.7V247.3z M99.6,270.8c-0.5,0.5-14.5,12.3-40.2,12.3
		s-39.6-11.7-40.2-12.2c-0.4-0.3-0.7-0.7-0.9-1.1c-0.2-0.4-0.4-0.9-0.4-1.4s0-1,0.2-1.5c0.1-0.5,0.4-0.9,0.7-1.3l0,0
		c0.7-0.8,1.6-1.2,2.6-1.3c1-0.1,2,0.2,2.7,0.9c0.2,0.2,12.7,10.4,35.3,10.4s35.2-10.3,35.3-10.4c0.8-0.6,1.7-1,2.7-0.9
		s1.9,0.5,2.6,1.3c0.6,0.7,1,1.7,0.9,2.7C100.8,269.3,100.4,270.2,99.6,270.8L99.6,270.8z M17.9,213.4c0.1-1,0.5-2,1.3-2.6
		c0.7-0.7,1.7-1,2.7-1c0.9,0.1,1.8,0.5,2.5,1.1c0.7,0.7,1,1.6,1.1,2.5v33.8c0,1-0.4,2-1.1,2.7s-1.7,1.1-2.7,1.1s-2-0.4-2.7-1.1
		c-0.7-0.7-1.1-1.7-1.1-2.7C17.9,247.2,17.9,213.4,17.9,213.4z M36.8,205.9c0.1-1,0.5-2,1.3-2.6c0.7-0.7,1.7-1,2.7-1
		c0.9,0.1,1.8,0.5,2.5,1.1c0.7,0.7,1,1.6,1.1,2.5v50.2c0,1-0.4,2-1.1,2.7c-0.7,0.7-1.7,1.1-2.7,1.1s-2-0.4-2.7-1.1s-1.1-1.7-1.1-2.7
		V205.9z M55.8,204c0-1,0.4-2,1.1-2.7c0.7-0.7,1.7-1.1,2.7-1.1s2,0.4,2.7,1.1c0.7,0.7,1.1,1.7,1.1,2.7v54.6c0,1-0.4,2-1.1,2.7
		c-0.7,0.7-1.7,1.1-2.7,1.1s-2-0.4-2.7-1.1s-1.1-1.7-1.1-2.7V204z M74.5,205.9c0-1,0.4-2,1.1-2.7s1.7-1.1,2.7-1.1s2,0.4,2.7,1.1
		c0.7,0.7,1.1,1.7,1.1,2.7v50.2c0,1-0.4,2-1.1,2.7s-1.7,1.1-2.7,1.1s-2-0.4-2.7-1.1s-1.1-1.7-1.1-2.7V205.9z M101.9,185.2H17
		c-1.9,0-3.7,0.3-5.4,1s-3.3,1.7-4.6,3.1c-1.3,1.3-2.4,2.9-3.1,4.6c-0.7,1.7-1.1,3.6-1.1,5.4V284c0,1.9,0.4,3.7,1.1,5.4
		c0.7,1.7,1.8,3.3,3.1,4.6c1.3,1.3,2.9,2.3,4.6,3.1c1.7,0.7,3.5,1.1,5.4,1h84.9c1.8,0,3.7-0.3,5.4-1c1.7-0.7,3.3-1.7,4.6-3
		c1.3-1.3,2.4-2.9,3.1-4.6s1.1-3.6,1.1-5.4l0,0v-84.7c0-1.9-0.4-3.7-1.1-5.4s-1.8-3.3-3.1-4.6c-1.3-1.3-2.9-2.3-4.6-3.1
		C105.7,185.5,103.8,185.2,101.9,185.2L101.9,185.2"/>
	<rect x="-24.6" y="168" class="st1" width="527.2" height="135.4"/>
</g>
</svg>
