<?xml version="1.0" encoding="utf-8"?>
<!-- Generator: Adobe Illustrator 26.2.1, SVG Export Plug-In . SVG Version: 6.00 Build 0)  -->
<svg version="1.1" id="Layer_1" xmlns="http://www.w3.org/2000/svg" xmlns:xlink="http://www.w3.org/1999/xlink" x="0px" y="0px"
	 viewBox="0 0 500 500" style="enable-background:new 0 0 500 500;" xml:space="preserve">
<style type="text/css">
	.st0{fill:#221F1F;}
</style>
<g>
	<path class="st0" d="M167.1,294.3c-9,0-16.2-7-16.2-16.2h-14.4c0,17.1,13.5,30.1,30.7,30.1s30.7-13,30.7-30.1h-14.4
		C183.4,287.2,176.1,294.3,167.1,294.3 M197.2,228.7v-11.3h-19.9c-3.2-1.1-6.6-1.8-10.2-1.8c-17.1,0-30.7,13-30.7,30.1
		s13.5,30.1,30.7,30.1s30.7-13,30.7-30.1c0-5.8-1.5-11.4-4.6-15.6L197.2,228.7z M167.1,262.1c-9,0-16.2-7.2-16.2-16.5
		c0-9.2,7.2-16.2,16.2-16.2c9.2,0,16.4,7,16.4,16.4C183.5,255,176.3,262.1,167.1,262.1 M50.6,274.2h14.2v-80.8H50.6V274.2z
		 M100.9,215.7c-17.1,0-30.7,13-30.7,30.1c0,17.1,13.5,30.1,30.7,30.1s30.7-13,30.7-30.1C131.6,228.7,118,215.7,100.9,215.7
		 M100.9,262.1c-9,0-16.2-7.2-16.2-16.5c0-9.2,7.2-16.2,16.2-16.2c9.2,0,16.4,7,16.4,16.4C117.3,255,110.1,262.1,100.9,262.1
		 M203.4,274.2h14.2v-56.8h-14.2V274.2z M349.5,229.3c6,0,10.9,3.1,14.6,7.4l9.8-9.8c-5.5-7-14.2-11.4-24.3-11.4
		c-17.1,0-30.7,13-30.7,30.1c0,17.1,13.5,30.1,30.7,30.1c9.9,0,18.7-4.4,24.3-11.4l-9.8-9.8c-3.7,4.2-8.6,7.4-14.7,7.4
		c-9,0-16.1-7.1-16.1-16.4C333.3,236.5,340.2,229.3,349.5,229.3 M437.6,210.8c0-1.1-0.8-1.5-1.9-1.5h-1.8v5.1h0.6v-2h1.1l1.2,2h0.8
		l-1.4-2.1C437.1,212.1,437.6,211.7,437.6,210.8 M434.5,211.7v-1.8h1.1c0.9,0,1.2,0.3,1.2,0.9s-0.3,0.9-1.2,0.9L434.5,211.7
		L434.5,211.7z M410.5,215.7c-7,0-13,2.6-17.1,7.2v-29.5h-14.2v80.8h14.2v-30.9c0-8.2,5.2-13.8,13.8-13.8c8.1,0,12.5,5,12.5,13.8
		v30.9h14.2v-33.5C433.9,225,424.1,215.7,410.5,215.7 M285.1,215.7c-17.1,0-30,13-30,30.4c0,17.1,11.8,29.8,30.3,29.8
		c10.2,0,19.3-3.8,25.9-10.9l-9.5-9.4c-4.6,4.4-9.6,7.6-16.1,7.6c-7.8,0-13.6-4.4-15.6-11.8h44.2v-3.4
		C314.2,228.5,302.3,215.7,285.1,215.7 M269.7,239.8c1.9-7.5,7.6-11.8,15-11.8c7.4,0,13,4.1,14.7,11.8H269.7z M435.7,206.9
		c-2.8,0-5,2.2-5,4.9c0,2.8,2.2,5,5,5c2.6,0,4.9-2.2,4.9-5C440.6,209.1,438.3,206.9,435.7,206.9 M435.7,216.1
		c-2.4,0-4.3-1.9-4.3-4.3c0-2.3,1.9-4.2,4.3-4.2c2.3,0,4.2,1.9,4.2,4.2C439.9,214.2,438,216.1,435.7,216.1 M210.4,191.8
		c-5.2,0-9.3,4.1-9.3,9.4c0,5.2,4.1,9.3,9.3,9.3c5.4,0,9.5-4.1,9.5-9.3C219.9,195.9,215.8,191.8,210.4,191.8 M245.5,199.9h-14.2
		v17.5h-7.6V230h7.6v44.2h14.2V230h7.8v-12.6h-7.8V199.9z"/>
</g>
</svg>
