<?xml version="1.0" encoding="utf-8"?>
<!-- Generator: Adobe Illustrator 25.4.1, SVG Export Plug-In . SVG Version: 6.00 Build 0)  -->
<svg version="1.1" id="f3724839-9e76-4e09-aed6-f6747ee1e557"
	 xmlns="http://www.w3.org/2000/svg" xmlns:xlink="http://www.w3.org/1999/xlink" x="0px" y="0px" viewBox="0 0 24.1 30.4"
	 style="enable-background:new 0 0 24.1 30.4;" xml:space="preserve">
<style type="text/css">
	.st0{fill:#0065F2;}
</style>
<path class="st0" d="M9,9.9c0.3,1.2,1,2.3,2.2,2.3s1.9-1.1,2.2-2.4C13.9,9.7,14,9.3,14,8.9c0-0.2-0.1-0.4-0.3-0.5
	c0.1-1.4-1-2.6-2.4-2.7C9.9,5.8,8.8,7,8.8,8.3c-0.2,0-0.4,0.2-0.4,0.5C8.4,9.3,8.6,9.7,9,9.9z"/>
<path class="st0" d="M15.8,13.8C14.9,13.3,14,13,13,12.7h-0.1c0,0.6-0.9,4.1-0.9,4.1L11.6,14l0.3-0.7l-0.5-0.4h-0.3l-0.5,0.4
	l0.3,0.7l-0.5,2.8c0,0-0.8-3.6-0.9-4.1l0,0c-1,0.3-1.9,0.6-2.8,1.1c-0.6,0.6-0.9,1.4-0.9,2.2c0.5,0.6,1.2,1.2,1.9,1.6v-0.7
	c0-0.3,0.1-0.6,0.3-0.9v1.8c1.1,0.6,2.2,0.9,3.4,0.9c1.1,0,2.1-0.2,3.1-0.7v-2c0.2,0.3,0.2,0.5,0.2,0.8v1c0.7-0.4,1.4-0.9,2-1.5
	v-0.1C16.8,15.3,16.4,14.4,15.8,13.8z"/>
<path class="st0" d="M23.8,27.5l-5.1-8c4.6-4.1,5-11.2,0.8-15.8S8.3-1.3,3.7,2.9s-5,11.2-0.8,15.8c3.2,3.5,8.3,4.7,12.7,2.8l5.1,8
	c0.6,0.9,1.7,1.1,2.6,0.6C24.1,29.5,24.4,28.4,23.8,27.5z M15.5,17.9c-3.7,2.4-8.7,1.3-11-2.5S3.2,6.7,7,4.4s8.7-1.3,11,2.5
	c1.1,1.8,1.5,4,1.1,6C18.6,15,17.3,16.8,15.5,17.9z"/>
</svg>
