<svg xmlns="http://www.w3.org/2000/svg" xmlns:xlink="http://www.w3.org/1999/xlink" width="500" height="500" viewBox="0 0 500 500">
  <defs>
    <clipPath id="clip-_500X500_nav_autopilot">
      <rect width="500" height="500"/>
    </clipPath>
  </defs>
  <g id="_500X500_nav_autopilot" data-name="500X500_nav_autopilot" clip-path="url(#clip-_500X500_nav_autopilot)">
    <g id="Path_76069" data-name="Path 76069" transform="translate(14872.548 8995.2)" fill="none" stroke-linecap="round" stroke-linejoin="round">
      <path d="M-14638.482-8961.6h107.346l-85.842,150.646h66.221l-180.055,280.426,79.3-223.038h-64.793Z" stroke="none"/>
      <path d="M -14638.482421875 -8961.6015625 L -14716.306640625 -8753.5673828125 L -14651.513671875 -8753.5673828125 L -14730.8125 -8530.529296875 L -14550.7578125 -8810.955078125 L -14616.978515625 -8810.955078125 L -14531.13671875 -8961.6015625 L -14638.482421875 -8961.6015625 M -14638.482421875 -8975.6015625 L -14531.13671875 -8975.6015625 C -14526.1494140625 -8975.6015625 -14521.5380859375 -8972.9482421875 -14519.0322265625 -8968.6357421875 C -14516.5263671875 -8964.3232421875 -14516.50390625 -8959.00390625 -14518.97265625 -8954.669921875 L -14592.8876953125 -8824.955078125 L -14550.7578125 -8824.955078125 C -14545.6376953125 -8824.955078125 -14540.9267578125 -8822.16015625 -14538.4716796875 -8817.6669921875 C -14536.0166015625 -8813.173828125 -14536.2109375 -8807.69921875 -14538.9775390625 -8803.390625 L -14719.0322265625 -8522.96484375 C -14722.8740234375 -8516.98046875 -14730.591796875 -8514.8271484375 -14736.9794921875 -8517.9609375 C -14743.365234375 -8521.0947265625 -14746.38671875 -8528.517578125 -14744.00390625 -8535.21875 L -14671.349609375 -8739.5673828125 L -14716.306640625 -8739.5673828125 C -14720.896484375 -8739.5673828125 -14725.1943359375 -8741.8173828125 -14727.810546875 -8745.5888671875 C -14730.4267578125 -8749.359375 -14731.02734375 -8754.173828125 -14729.4189453125 -8758.47265625 L -14651.5947265625 -8966.5068359375 C -14649.548828125 -8971.9765625 -14644.322265625 -8975.6015625 -14638.482421875 -8975.6015625 Z" stroke="none" fill="#0065f2"/>
    </g>
  </g>
</svg>
