<svg xmlns="http://www.w3.org/2000/svg" xmlns:xlink="http://www.w3.org/1999/xlink" width="500" height="500" viewBox="0 0 500 500">
  <defs>
    <clipPath id="clip-_500X500_nav_pitchintel_TEMP">
      <rect width="500" height="500"/>
    </clipPath>
  </defs>
  <g id="_500X500_nav_pitchintel_TEMP" data-name="500X500_nav_pitchintel_TEMP" clip-path="url(#clip-_500X500_nav_pitchintel_TEMP)">
    <g id="Group_23729" data-name="Group 23729" transform="translate(105.337 50.209)">
      <g id="Group_775" data-name="Group 775">
        <g id="Group_774" data-name="Group 774">
          <line id="Line_660" data-name="Line 660" x2="104.585" transform="translate(92.682 354.032)" fill="none" stroke="#0065f2" stroke-linecap="round" stroke-linejoin="round" stroke-width="14"/>
          <line id="Line_661" data-name="Line 661" y1="26.316" transform="translate(144.663)" fill="none" stroke="#0065f2" stroke-linecap="round" stroke-linejoin="round" stroke-width="14"/>
          <g id="Group_773" data-name="Group 773" transform="translate(0 62.01)">
            <line id="Line_662" data-name="Line 662" y1="21.381" x2="21.299" transform="translate(268.027)" fill="none" stroke="#0065f2" stroke-linecap="round" stroke-linejoin="round" stroke-width="14"/>
            <line id="Line_663" data-name="Line 663" x2="21.282" y2="21.381" fill="none" stroke="#0065f2" stroke-linecap="round" stroke-linejoin="round" stroke-width="14"/>
          </g>
          <path id="Path_948" data-name="Path 948" d="M433.736,270.352c-63.9,0-115.881,50.965-115.881,113.622,0,26.191,7.159,48.26,20.946,65.226,4.861,5.262,9.812,9.925,14.589,14.436,16.181,15.255,31.509,29.849,36.178,60.608H477.9c4.669-30.973,20.082-45.426,36.314-60.7,4.759-4.477,9.694-9.118,14.318-14.086,14.821-17.5,21.161-37.082,21.161-65.48C549.7,321.317,497.681,270.352,433.736,270.352Z" transform="translate(-288.808 -205.042)" fill="none" stroke="#0065f2" stroke-miterlimit="10" stroke-width="14"/>
          <path id="Path_949" data-name="Path 949" d="M331.407,327.171h15.328c3.862,5.324,12.251,13.482,24.1,13.482s20.212-8.158,24.085-13.482h15.323" transform="translate(-225.853 58.928)" fill="none" stroke="#0065f2" stroke-linecap="round" stroke-linejoin="round" stroke-width="14"/>
        </g>
      </g>
    </g>
  </g>
</svg>
