<svg xmlns="http://www.w3.org/2000/svg" xmlns:xlink="http://www.w3.org/1999/xlink" width="500" height="500" viewBox="0 0 500 500">
  <defs>
    <clipPath id="clip-_500X500_nav_jobchanges">
      <rect width="500" height="500"/>
    </clipPath>
  </defs>
  <g id="_500X500_nav_jobchanges" data-name="500X500_nav_jobchanges" clip-path="url(#clip-_500X500_nav_jobchanges)">
    <g id="Rectangle_9904" data-name="Rectangle 9904" transform="translate(41 135)" fill="none" stroke="#0065f2" stroke-linecap="round" stroke-linejoin="round" stroke-width="14">
      <rect width="419" height="297" rx="61" stroke="none"/>
      <rect x="7" y="7" width="405" height="283" rx="54" fill="none"/>
    </g>
    <g id="Rectangle_9905" data-name="Rectangle 9905" transform="translate(176 432) rotate(-90)" fill="none" stroke="#0065f2" stroke-linecap="round" stroke-linejoin="round" stroke-width="14">
      <path d="M0,0H323a40,40,0,0,1,40,40v62a40,40,0,0,1-40,40H0a0,0,0,0,1,0,0V0A0,0,0,0,1,0,0Z" stroke="none"/>
      <path d="M7,7H323a33,33,0,0,1,33,33v62a33,33,0,0,1-33,33H7a0,0,0,0,1,0,0V7A0,0,0,0,1,7,7Z" fill="none"/>
    </g>
  </g>
</svg>
