<svg xmlns="http://www.w3.org/2000/svg" xmlns:xlink="http://www.w3.org/1999/xlink" width="500" height="500" viewBox="0 0 500 500">
  <defs>
    <clipPath id="clip-_500X500_nav_integrations">
      <rect width="500" height="500"/>
    </clipPath>
  </defs>
  <g id="_500X500_nav_integrations" data-name="500X500_nav_integrations" clip-path="url(#clip-_500X500_nav_integrations)">
    <path id="Union_39" data-name="Union 39" d="M3617.01-6775.009a13.944,13.944,0,0,1-13.93-13.93,31.1,31.1,0,0,1,9.429-22.144,32.544,32.544,0,0,0,9.736-23.315,32.9,32.9,0,0,0-32.847-32.85,32.161,32.161,0,0,0-3.785.218,33.1,33.1,0,0,0-28.96,30.031,32.883,32.883,0,0,0,9.928,26.212,30.576,30.576,0,0,1,9.148,21.962,13.841,13.841,0,0,1-13.837,13.815H3443v-118.483a13.844,13.844,0,0,1,13.843-13.819,14.21,14.21,0,0,1,3.091.34,31.362,31.362,0,0,1,15.413,8.62,32.579,32.579,0,0,0,23.383,9.782,32.886,32.886,0,0,0,24.48-10.934,32.608,32.608,0,0,0,8.15-25.687,33.1,33.1,0,0,0-30.028-28.959,32.705,32.705,0,0,0-26.214,9.941,30.611,30.611,0,0,1-21.958,9.133H3443V-7067.8h108.272a52.809,52.809,0,0,1-15.029-37.032A53.219,53.219,0,0,1,3589.4-7158a55.861,55.861,0,0,1,6.01.329,53.035,53.035,0,0,1,46.994,48.7,53.3,53.3,0,0,1-14.659,40.954l-.205.218H3735.8v108.261l.218-.2a52.862,52.862,0,0,1,36.83-14.833c1.363,0,2.757.057,4.125.161a53.036,53.036,0,0,1,48.7,47,53.381,53.381,0,0,1-13.23,41.468,53.207,53.207,0,0,1-39.607,17.708,52.831,52.831,0,0,1-37.032-15.039v108.268Z" transform="translate(-3384.494 7216.505)" fill="none" stroke="#0065f2" stroke-linecap="round" stroke-linejoin="round" stroke-miterlimit="10" stroke-width="14"/>
  </g>
</svg>
