<svg xmlns="http://www.w3.org/2000/svg" xmlns:xlink="http://www.w3.org/1999/xlink" width="1350" height="1360" viewBox="0 0 1350 1360">
  <defs>
    <linearGradient id="linear-gradient" x1="0.637" y1="0.847" x2="0.255" y2="0.047" gradientUnits="objectBoundingBox">
      <stop offset="0" stop-color="#f7f8fa"/>
      <stop offset="1" stop-color="#f7f8fa" stop-opacity="0.675"/>
    </linearGradient>
    <filter id="Path_28540" x="-14.971" y="-10" width="1243.287" height="1291.745" filterUnits="userSpaceOnUse">
      <feOffset dx="10" dy="15" input="SourceAlpha"/>
      <feGaussianBlur stdDeviation="15" result="blur"/>
      <feFlood flood-opacity="0.161"/>
      <feComposite operator="in" in2="blur"/>
      <feComposite in="SourceGraphic"/>
    </filter>
    <clipPath id="clip-path">
      <rect id="Rectangle_8316" data-name="Rectangle 8316" width="91.784" height="91.784" transform="translate(0 0)" fill="#0065f2"/>
    </clipPath>
    <clipPath id="clip-homepage_header-art__platform">
      <rect width="1350" height="1360"/>
    </clipPath>
  </defs>
  <g id="homepage_header-art__platform" data-name="homepage_header-art _platform" clip-path="url(#clip-homepage_header-art__platform)">
    <g id="Group_23203" data-name="Group 23203" transform="translate(-339 6880.744)">
      <g transform="matrix(1, 0, 0, 1, 339, -6880.74)" filter="url(#Path_28540)">
        <g id="Path_28540-2" data-name="Path 28540" transform="translate(20.03 20)" fill="url(#linear-gradient)">
          <path d="M 1102.406860351562 1201.2451171875 L 50.88038635253906 1201.2451171875 C 44.06576919555664 1201.2451171875 37.45592498779297 1200.186279296875 31.23453903198242 1198.09814453125 C 25.2308464050293 1196.082885742188 19.84053802490234 1193.198974609375 15.21330833435059 1189.52685546875 C 10.59469223022461 1185.861450195312 6.969923496246338 1181.595947265625 4.439769744873047 1176.848510742188 C 1.825615763664246 1171.943603515625 0.5000772476196289 1166.734741210938 0.5000772476196289 1161.366455078125 L 0.5000772476196289 40.37871170043945 C 0.5000772476196289 35.01055908203125 1.825615763664246 29.8016357421875 4.439769744873047 24.89655876159668 C 6.969923496246338 20.14932823181152 10.59469223022461 15.88363552093506 15.21330833435059 12.21825122833252 C 19.84053802490234 8.546096801757812 25.2308464050293 5.662404537200928 31.23453903198242 3.647173881530762 C 37.45592498779297 1.558866262435913 44.06576919555664 0.4999431967735291 50.88038635253906 0.4999431967735291 L 1102.406860351562 0.4999431967735291 C 1109.221435546875 0.4999431967735291 1115.831298828125 1.558866262435913 1122.052734375 3.647173881530762 C 1128.056396484375 5.662404537200928 1133.446655273438 8.546096801757812 1138.073974609375 12.21825122833252 C 1142.692749023438 15.88363552093506 1146.317504882812 20.14932823181152 1148.84765625 24.89655876159668 C 1151.461791992188 29.8016357421875 1152.787353515625 35.01055908203125 1152.787353515625 40.37871170043945 L 1152.787353515625 1161.366455078125 C 1152.787353515625 1166.734741210938 1151.461791992188 1171.943603515625 1148.84765625 1176.848510742188 C 1146.317504882812 1181.595947265625 1142.692749023438 1185.861450195312 1138.073974609375 1189.52685546875 C 1133.446655273438 1193.198974609375 1128.056396484375 1196.082885742188 1122.052734375 1198.09814453125 C 1115.831298828125 1200.186279296875 1109.221435546875 1201.2451171875 1102.406860351562 1201.2451171875 Z" stroke="none"/>
          <path d="M 50.88037109375 1 C 44.119873046875 1 37.5635986328125 2.050048828125 31.3936767578125 4.1212158203125 C 25.4451904296875 6.1177978515625 20.105712890625 8.9739990234375 15.5240478515625 12.6099853515625 C 10.95947265625 16.232421875 7.3785400390625 20.4453125 4.880859375 25.1318359375 C 2.3056640625 29.963623046875 0.9998779296875 35.0933837890625 0.9998779296875 40.378662109375 L 0.9998779296875 1161.366455078125 C 0.9998779296875 1166.651733398438 2.3056640625 1171.781494140625 4.880859375 1176.61328125 C 7.3785400390625 1181.2998046875 10.95947265625 1185.5126953125 15.5240478515625 1189.135131835938 C 20.105712890625 1192.771118164062 25.4451904296875 1195.627319335938 31.3936767578125 1197.623901367188 C 37.5635986328125 1199.695068359375 44.119873046875 1200.7451171875 50.88037109375 1200.7451171875 L 1102.406860351562 1200.7451171875 C 1109.167358398438 1200.7451171875 1115.7236328125 1199.695068359375 1121.8935546875 1197.623901367188 C 1127.842041015625 1195.627319335938 1133.181274414062 1192.771118164062 1137.762939453125 1189.135131835938 C 1142.32763671875 1185.5126953125 1145.908569335938 1181.2998046875 1148.40625 1176.61328125 C 1150.9814453125 1171.781494140625 1152.287109375 1166.651733398438 1152.287109375 1161.366455078125 L 1152.287109375 40.378662109375 C 1152.287109375 35.0933837890625 1150.9814453125 29.963623046875 1148.40625 25.1318359375 C 1145.908569335938 20.4453125 1142.32763671875 16.232421875 1137.762939453125 12.6099853515625 C 1133.181274414062 8.9739990234375 1127.842041015625 6.1177978515625 1121.8935546875 4.1212158203125 C 1115.7236328125 2.050048828125 1109.167358398438 1 1102.406860351562 1 L 50.88037109375 1 M 50.88037109375 0 L 1102.406860351562 0 C 1130.50732421875 0 1153.287109375 18.078125 1153.287109375 40.378662109375 L 1153.287109375 1161.366455078125 C 1153.287109375 1183.6669921875 1130.50732421875 1201.7451171875 1102.406860351562 1201.7451171875 L 50.88037109375 1201.7451171875 C 22.7799072265625 1201.7451171875 -0.0001220703125 1183.6669921875 -0.0001220703125 1161.366455078125 L -0.0001220703125 40.378662109375 C -0.0001220703125 18.078125 22.7799072265625 0 50.88037109375 0 Z" stroke="none" fill="#e2e2e2"/>
        </g>
      </g>
      <path id="Path_76067" data-name="Path 76067" d="M28.2-18.906H21.974a6.155,6.155,0,0,0-.7-2.152,5.487,5.487,0,0,0-1.349-1.612,5.953,5.953,0,0,0-1.9-1.023,7.346,7.346,0,0,0-2.322-.355,6.937,6.937,0,0,0-3.935,1.115,7.22,7.22,0,0,0-2.6,3.239,12.885,12.885,0,0,0-.923,5.149,12.99,12.99,0,0,0,.93,5.227,7.039,7.039,0,0,0,2.607,3.2,7,7,0,0,0,3.878,1.08,7.742,7.742,0,0,0,2.294-.327,5.939,5.939,0,0,0,1.882-.959,5.488,5.488,0,0,0,1.371-1.541,6.122,6.122,0,0,0,.76-2.074l6.222.028A11.276,11.276,0,0,1,27-6.058a11.649,11.649,0,0,1-2.571,3.31,12.034,12.034,0,0,1-3.835,2.3A14.048,14.048,0,0,1,15.568.4,13.688,13.688,0,0,1,8.615-1.364a12.443,12.443,0,0,1-4.83-5.1,17.07,17.07,0,0,1-1.768-8.082,16.934,16.934,0,0,1,1.79-8.1,12.519,12.519,0,0,1,4.858-5.092,13.658,13.658,0,0,1,6.9-1.754,14.986,14.986,0,0,1,4.695.71,11.975,11.975,0,0,1,3.842,2.067,10.84,10.84,0,0,1,2.734,3.317A12.425,12.425,0,0,1,28.2-18.906ZM42.358.426A11.094,11.094,0,0,1,36.641-.987a9.552,9.552,0,0,1-3.714-3.949,12.678,12.678,0,0,1-1.307-5.888,12.744,12.744,0,0,1,1.307-5.916,9.552,9.552,0,0,1,3.714-3.949A11.094,11.094,0,0,1,42.358-22.1a11.094,11.094,0,0,1,5.717,1.413A9.552,9.552,0,0,1,51.79-16.74,12.744,12.744,0,0,1,53.1-10.824,12.678,12.678,0,0,1,51.79-4.936,9.552,9.552,0,0,1,48.075-.987,11.094,11.094,0,0,1,42.358.426Zm.028-4.688A3.741,3.741,0,0,0,44.9-5.121a5.285,5.285,0,0,0,1.527-2.351,10.31,10.31,0,0,0,.518-3.395,10.31,10.31,0,0,0-.518-3.395A5.337,5.337,0,0,0,44.9-16.619a3.722,3.722,0,0,0-2.514-.866,3.825,3.825,0,0,0-2.55.866,5.251,5.251,0,0,0-1.548,2.358,10.309,10.309,0,0,0-.518,3.395,10.309,10.309,0,0,0,.518,3.395,5.2,5.2,0,0,0,1.548,2.351A3.845,3.845,0,0,0,42.386-4.261ZM63.1-12.614V0H57.045V-21.818h5.767v3.849h.256A6.124,6.124,0,0,1,65.5-20.987,7.386,7.386,0,0,1,69.631-22.1a7.673,7.673,0,0,1,3.963.994,6.768,6.768,0,0,1,2.628,2.834,9.544,9.544,0,0,1,.938,4.382V0H71.108V-12.812a4.408,4.408,0,0,0-1.023-3.132,3.683,3.683,0,0,0-2.855-1.129,4.3,4.3,0,0,0-2.152.526,3.615,3.615,0,0,0-1.449,1.527A5.3,5.3,0,0,0,63.1-12.614Zm30.426-9.2v4.545H80.384v-4.545ZM83.366-27.045h6.051V-6.7a2.714,2.714,0,0,0,.256,1.3,1.4,1.4,0,0,0,.717.646,2.874,2.874,0,0,0,1.072.185,4.717,4.717,0,0,0,.852-.078l.653-.121.952,4.5q-.455.142-1.278.334a10.684,10.684,0,0,1-2,.234,9.147,9.147,0,0,1-3.828-.582,5.348,5.348,0,0,1-2.55-2.074,6.341,6.341,0,0,1-.895-3.551ZM103.679.412A9.016,9.016,0,0,1,99.957-.32a5.882,5.882,0,0,1-2.578-2.173,6.438,6.438,0,0,1-.945-3.6A6.361,6.361,0,0,1,97.1-9.148a5.406,5.406,0,0,1,1.818-1.989,8.808,8.808,0,0,1,2.621-1.136,19.733,19.733,0,0,1,3.089-.54q1.9-.2,3.068-.376a4.285,4.285,0,0,0,1.69-.533,1.186,1.186,0,0,0,.526-1.051v-.085a2.625,2.625,0,0,0-.845-2.088,3.523,3.523,0,0,0-2.393-.739,4.264,4.264,0,0,0-2.6.717,3.367,3.367,0,0,0-1.278,1.8l-5.6-.455a7.654,7.654,0,0,1,1.676-3.445,8.13,8.13,0,0,1,3.232-2.244,12.374,12.374,0,0,1,4.6-.788,14.044,14.044,0,0,1,3.487.426,9.2,9.2,0,0,1,2.969,1.321,6.463,6.463,0,0,1,2.053,2.294,6.967,6.967,0,0,1,.753,3.345V0h-5.739V-3.026h-.17a6.068,6.068,0,0,1-1.406,1.8,6.342,6.342,0,0,1-2.116,1.207A8.618,8.618,0,0,1,103.679.412Zm1.733-4.176A5.032,5.032,0,0,0,107.77-4.3a4.124,4.124,0,0,0,1.605-1.442,3.736,3.736,0,0,0,.582-2.06v-2.315a3.094,3.094,0,0,1-.774.334q-.49.149-1.1.27t-1.222.213q-.611.092-1.108.163a7.486,7.486,0,0,0-1.861.5,3,3,0,0,0-1.236.916,2.28,2.28,0,0,0-.44,1.428,2.17,2.17,0,0,0,.9,1.882A3.842,3.842,0,0,0,105.412-3.764ZM130.526.426A11.094,11.094,0,0,1,124.766-1a9.5,9.5,0,0,1-3.693-3.97,12.8,12.8,0,0,1-1.286-5.852,12.736,12.736,0,0,1,1.3-5.888,9.613,9.613,0,0,1,3.7-3.963A10.969,10.969,0,0,1,130.5-22.1a11.364,11.364,0,0,1,5,1.037,8.358,8.358,0,0,1,3.395,2.912,8.558,8.558,0,0,1,1.378,4.4h-5.71a4.463,4.463,0,0,0-1.271-2.635,3.7,3.7,0,0,0-2.692-1,4.052,4.052,0,0,0-2.45.76,4.907,4.907,0,0,0-1.626,2.209,9.414,9.414,0,0,0-.582,3.509,9.722,9.722,0,0,0,.575,3.551,4.881,4.881,0,0,0,1.626,2.23,4.057,4.057,0,0,0,2.457.767,4.033,4.033,0,0,0,1.868-.426,3.644,3.644,0,0,0,1.378-1.243A4.734,4.734,0,0,0,134.56-8h5.71a8.943,8.943,0,0,1-1.357,4.4,8.27,8.27,0,0,1-3.345,2.962A11.153,11.153,0,0,1,130.526.426Zm25.241-22.244v4.545H142.628v-4.545Zm-10.156-5.227h6.051V-6.7a2.714,2.714,0,0,0,.256,1.3,1.4,1.4,0,0,0,.717.646,2.874,2.874,0,0,0,1.072.185,4.717,4.717,0,0,0,.852-.078l.653-.121.952,4.5q-.455.142-1.278.334a10.684,10.684,0,0,1-2,.234,9.147,9.147,0,0,1-3.828-.582,5.348,5.348,0,0,1-2.55-2.074,6.341,6.341,0,0,1-.895-3.551ZM177.557-15.6l-5.54.341a2.913,2.913,0,0,0-.611-1.286,3.353,3.353,0,0,0-1.229-.923,4.321,4.321,0,0,0-1.811-.348,4.475,4.475,0,0,0-2.372.589,1.778,1.778,0,0,0-.966,1.57,1.681,1.681,0,0,0,.625,1.321,4.961,4.961,0,0,0,2.145.866l3.949.8a9.789,9.789,0,0,1,4.744,2.1,4.948,4.948,0,0,1,1.563,3.807A5.964,5.964,0,0,1,176.8-3a8.21,8.21,0,0,1-3.437,2.521,13.051,13.051,0,0,1-5.021.9,11.74,11.74,0,0,1-6.9-1.811,7,7,0,0,1-3-4.936l5.952-.312a3.032,3.032,0,0,0,1.307,2.01,4.71,4.71,0,0,0,2.656.689,4.725,4.725,0,0,0,2.564-.618,1.875,1.875,0,0,0,.987-1.6,1.69,1.69,0,0,0-.7-1.357,5.07,5.07,0,0,0-2.1-.817l-3.778-.753a9.007,9.007,0,0,1-4.751-2.216,5.485,5.485,0,0,1-1.555-4.02,5.853,5.853,0,0,1,1.143-3.622,7.257,7.257,0,0,1,3.224-2.344,13.213,13.213,0,0,1,4.879-.824,10.8,10.8,0,0,1,6.513,1.747A6.756,6.756,0,0,1,177.557-15.6Z" transform="translate(659.337 -6756)" fill="#0065f2"/>
      <g id="Group_21680" data-name="Group 21680" transform="translate(359.029 -6860.744)" style="isolation: isolate">
        <path id="Rectangle_8315" data-name="Rectangle 8315" d="M40,0H191.407a0,0,0,0,1,0,0V1201.745a0,0,0,0,1,0,0H40a40,40,0,0,1-40-40V40A40,40,0,0,1,40,0Z" transform="translate(0)" fill="#fff" opacity="0.904"/>
        <g id="Logo" transform="translate(49.805 57.432)" clip-path="url(#clip-path)">
          <g id="logo-2" data-name="logo" transform="translate(9.583 0)">
            <g id="logo-3" data-name="logo" transform="translate(0 0)">
              <path id="Path_22662" data-name="Path 22662" d="M191.021,106.023c.943,3.7,3.167,7.053,6.769,7.053,3.625,0,5.857-3.394,6.779-7.111a3.383,3.383,0,0,0,1.524-3.235,1.509,1.509,0,0,0-1.025-1.388c-.221-4.6-3.042-8.224-7.278-8.224-4.212,0-7.028,3.6-7.274,8.167a1.511,1.511,0,0,0-1.216,1.445C189.158,103.992,189.888,105.708,191.021,106.023Z" transform="translate(-164.119 -76.025)" fill="#0065f2"/>
              <path id="Path_22663" data-name="Path 22663" d="M175.4,211.659a57.151,57.151,0,0,0-8.485-3.216c-.042-.019-.093-.028-.134-.045s-.065-.015-.1-.027c-.157,1.719-2.633,12.563-2.633,12.563s-1.437-8.51-1.459-8.527.86-2.022.86-2.022l-1.4-1.328h-.982l-1.4,1.328.86,2.022-1.459,8.527s-2.474-10.847-2.635-12.563a.676.676,0,0,1-.086.022c-.055.021-.1.029-.148.049a57.44,57.44,0,0,0-8.482,3.216c-.793.807-2.209,2.2-2.7,6.727a22.424,22.424,0,0,0,5.767,4.79c0-1.028.006-1.863.006-2.2a6.352,6.352,0,0,1,.843-2.664v5.331a22.318,22.318,0,0,0,19.776.454v-5.785a4.917,4.917,0,0,1,.717,2.569c0,.409,0,1.541.006,2.863a22.533,22.533,0,0,0,6.05-4.507c-.006-.076-.006-.134-.011-.171C177.753,213.983,176.234,212.5,175.4,211.659Z" transform="translate(-127.981 -170.122)" fill="#0065f2"/>
              <path id="Path_22664" data-name="Path 22664" d="M123.95,83.168,108.42,58.823a33.8,33.8,0,1,0-9.5,6l15.527,24.334a5.617,5.617,0,0,0,9.5-5.989ZM98.787,54.095A24.076,24.076,0,1,1,109.428,39.04,23.984,23.984,0,0,1,98.787,54.095Z" transform="translate(-52.205 -0.001)" fill="#0065f2"/>
            </g>
          </g>
        </g>
        <circle id="Ellipse_2535" data-name="Ellipse 2535" cx="36.343" cy="36.343" r="36.343" transform="translate(60.572 647.227)" fill="#7a99eb" opacity="0.289"/>
        <circle id="Ellipse_2536" data-name="Ellipse 2536" cx="36.343" cy="36.343" r="36.343" transform="translate(60.572 231.008)" fill="#7a99eb" opacity="0.289"/>
        <circle id="Ellipse_2537" data-name="Ellipse 2537" cx="36.343" cy="36.343" r="36.343" transform="translate(60.572 438.447)" fill="#7a99eb" opacity="0.289"/>
        <rect id="Rectangle_8319" data-name="Rectangle 8319" width="106.606" height="21.806" rx="10" transform="translate(43.612 326.158)" fill="#7a99eb" opacity="0.289"/>
        <rect id="Rectangle_8423" data-name="Rectangle 8423" width="106.606" height="21.806" rx="10" transform="translate(43.612 534.938)" fill="#7a99eb" opacity="0.289"/>
        <rect id="Rectangle_8320" data-name="Rectangle 8320" width="106.606" height="21.806" rx="10" transform="translate(43.612 745.028)" fill="#7a99eb" opacity="0.289"/>
      </g>
      <line id="Line_787" data-name="Line 787" x1="270.108" y2="1.289" transform="translate(631.255 -6720.736)" fill="none" stroke="#0065f2" stroke-linecap="round" stroke-width="8"/>
      <line id="Line_788" data-name="Line 788" x1="550.193" transform="translate(878.842 -6720.736)" fill="none" stroke="#0065f2" stroke-width="1"/>
      <path id="Path_76068" data-name="Path 76068" d="M27.358-19.631H22.926a6.776,6.776,0,0,0-.952-2.5,7,7,0,0,0-1.7-1.832A7.359,7.359,0,0,0,18.018-25.1a8.888,8.888,0,0,0-2.635-.384,8.179,8.179,0,0,0-4.5,1.264,8.557,8.557,0,0,0-3.125,3.707,14.011,14.011,0,0,0-1.143,5.966A14.087,14.087,0,0,0,7.763-8.551a8.444,8.444,0,0,0,3.132,3.693,8.233,8.233,0,0,0,4.474,1.25,8.993,8.993,0,0,0,2.621-.376A7.417,7.417,0,0,0,20.241-5.1a6.937,6.937,0,0,0,1.712-1.811,6.807,6.807,0,0,0,.973-2.464l4.432.014a11.887,11.887,0,0,1-1.371,3.942,10.922,10.922,0,0,1-2.6,3.1,11.766,11.766,0,0,1-3.615,2.01A13.343,13.343,0,0,1,15.341.4,12.7,12.7,0,0,1,8.608-1.4,12.429,12.429,0,0,1,3.956-6.548a17.514,17.514,0,0,1-1.7-8,17.442,17.442,0,0,1,1.7-8,12.486,12.486,0,0,1,4.659-5.142,12.671,12.671,0,0,1,6.719-1.8,13.773,13.773,0,0,1,4.325.661A11.605,11.605,0,0,1,23.281-26.9a10.751,10.751,0,0,1,2.656,3.1A12.027,12.027,0,0,1,27.358-19.631ZM41.463.44A10.017,10.017,0,0,1,36.108-.966,9.482,9.482,0,0,1,32.557-4.9a13.056,13.056,0,0,1-1.264-5.909,13.18,13.18,0,0,1,1.264-5.937A9.464,9.464,0,0,1,36.108-20.7,10.017,10.017,0,0,1,41.463-22.1,10.017,10.017,0,0,1,46.818-20.7a9.464,9.464,0,0,1,3.551,3.949,13.18,13.18,0,0,1,1.264,5.937A13.056,13.056,0,0,1,50.369-4.9,9.483,9.483,0,0,1,46.818-.966,10.017,10.017,0,0,1,41.463.44Zm.014-3.565a5.09,5.09,0,0,0,3.3-1.051,6.208,6.208,0,0,0,1.939-2.8,11.242,11.242,0,0,0,.632-3.849,11.259,11.259,0,0,0-.632-3.842,6.3,6.3,0,0,0-1.939-2.82,5.045,5.045,0,0,0-3.3-1.065,5.1,5.1,0,0,0-3.317,1.065,6.276,6.276,0,0,0-1.946,2.82,11.259,11.259,0,0,0-.632,3.842,11.242,11.242,0,0,0,.632,3.849,6.184,6.184,0,0,0,1.946,2.8A5.142,5.142,0,0,0,41.477-3.125ZM56.364,0V-21.818H60.44v3.551h.27a5.675,5.675,0,0,1,2.23-2.82A6.607,6.607,0,0,1,66.648-22.1,6.319,6.319,0,0,1,70.32-21.08a6.013,6.013,0,0,1,2.195,2.813h.227a6.18,6.18,0,0,1,2.486-2.791A7.627,7.627,0,0,1,79.29-22.1a6.606,6.606,0,0,1,4.851,1.861q1.882,1.861,1.882,5.611V0H81.776V-14.233a3.928,3.928,0,0,0-1.207-3.21,4.392,4.392,0,0,0-2.884-.994,4.127,4.127,0,0,0-3.224,1.271,4.672,4.672,0,0,0-1.151,3.26V0H69.077V-14.5a3.805,3.805,0,0,0-1.108-2.855,3.957,3.957,0,0,0-2.884-1.08,4.126,4.126,0,0,0-2.223.632,4.673,4.673,0,0,0-1.634,1.754,5.3,5.3,0,0,0-.618,2.6V0ZM91.7,8.182v-30h4.148v3.537h.355a11.869,11.869,0,0,1,1.065-1.577,6.1,6.1,0,0,1,1.932-1.57,6.814,6.814,0,0,1,3.267-.675,8.521,8.521,0,0,1,4.716,1.335,9.01,9.01,0,0,1,3.26,3.849,14.089,14.089,0,0,1,1.186,6.051,14.21,14.21,0,0,1-1.179,6.058A9.14,9.14,0,0,1,107.216-.93a8.354,8.354,0,0,1-4.7,1.357,6.9,6.9,0,0,1-3.246-.668A6.137,6.137,0,0,1,97.3-1.8a11.827,11.827,0,0,1-1.094-1.591h-.256V8.182Zm4.162-19.091a11.186,11.186,0,0,0,.668,4.034,6.068,6.068,0,0,0,1.932,2.706,4.926,4.926,0,0,0,3.1.973,4.955,4.955,0,0,0,3.182-1.016,6.259,6.259,0,0,0,1.939-2.763,11.061,11.061,0,0,0,.661-3.935,10.956,10.956,0,0,0-.646-3.878,6.006,6.006,0,0,0-1.932-2.713,5.079,5.079,0,0,0-3.2-.994,5.055,5.055,0,0,0-3.118.952,5.821,5.821,0,0,0-1.925,2.656A11.081,11.081,0,0,0,95.866-10.909ZM122.741.483a8.839,8.839,0,0,1-3.75-.774,6.221,6.221,0,0,1-2.649-2.251,6.442,6.442,0,0,1-.973-3.622,5.871,5.871,0,0,1,.71-3.04A5.241,5.241,0,0,1,118-11.094a10.015,10.015,0,0,1,2.7-1.051,26.831,26.831,0,0,1,3.04-.54q1.96-.227,3.182-.376a4.607,4.607,0,0,0,1.776-.49,1.2,1.2,0,0,0,.554-1.108v-.1a3.853,3.853,0,0,0-1.044-2.884,4.266,4.266,0,0,0-3.1-1.023,5.41,5.41,0,0,0-3.374.945,5.121,5.121,0,0,0-1.7,2.1l-3.991-.909a7.7,7.7,0,0,1,2.081-3.217,8.475,8.475,0,0,1,3.161-1.79,12.51,12.51,0,0,1,3.764-.561,13.678,13.678,0,0,1,2.777.305,8.3,8.3,0,0,1,2.756,1.115,6.164,6.164,0,0,1,2.109,2.308,8.029,8.029,0,0,1,.824,3.885V0h-4.148V-2.983h-.17a6.043,6.043,0,0,1-1.236,1.619,6.566,6.566,0,0,1-2.116,1.321A8.21,8.21,0,0,1,122.741.483Zm.923-3.409a6.143,6.143,0,0,0,3.018-.7A4.921,4.921,0,0,0,128.6-5.447a4.717,4.717,0,0,0,.661-2.422v-2.813a2.153,2.153,0,0,1-.874.419,12.044,12.044,0,0,1-1.47.327q-.824.135-1.605.241l-1.307.178a10.4,10.4,0,0,0-2.251.526,3.851,3.851,0,0,0-1.619,1.058,2.67,2.67,0,0,0-.6,1.825A2.7,2.7,0,0,0,120.7-3.729,5.119,5.119,0,0,0,123.665-2.926Zm19.744-10.028V0h-4.247V-21.818h4.077v3.551h.27a6.223,6.223,0,0,1,2.365-2.784,7.31,7.31,0,0,1,4.07-1.051,7.918,7.918,0,0,1,3.906.93,6.312,6.312,0,0,1,2.6,2.763,10.006,10.006,0,0,1,.923,4.531V0h-4.247V-13.366a5.277,5.277,0,0,0-1.236-3.714,4.386,4.386,0,0,0-3.395-1.342,5.279,5.279,0,0,0-2.621.639,4.548,4.548,0,0,0-1.8,1.868A6.177,6.177,0,0,0,143.409-12.955ZM163.054,0V-21.818H167.3V0ZM165.2-25.185a2.661,2.661,0,0,1-1.9-.746,2.369,2.369,0,0,1-.788-1.783,2.385,2.385,0,0,1,.788-1.8,2.661,2.661,0,0,1,1.9-.746,2.661,2.661,0,0,1,1.9.746,2.385,2.385,0,0,1,.788,1.8,2.369,2.369,0,0,1-.788,1.783A2.661,2.661,0,0,1,165.2-25.185ZM182.415.44a10.634,10.634,0,0,1-5.547-1.385,9.23,9.23,0,0,1-3.58-3.906,13.107,13.107,0,0,1-1.257-5.916,13.232,13.232,0,0,1,1.257-5.909,9.64,9.64,0,0,1,3.523-3.991,9.7,9.7,0,0,1,5.305-1.435,10.691,10.691,0,0,1,3.58.611,8.67,8.67,0,0,1,3.111,1.918,9.017,9.017,0,0,1,2.173,3.388,14.182,14.182,0,0,1,.8,5.05v1.506H174.432v-3.182h13.182a6.311,6.311,0,0,0-.682-2.976,5.183,5.183,0,0,0-1.911-2.053,5.4,5.4,0,0,0-2.876-.753,5.544,5.544,0,0,0-3.118.874,5.9,5.9,0,0,0-2.045,2.273,6.55,6.55,0,0,0-.717,3.033v2.486a8.188,8.188,0,0,0,.774,3.722A5.458,5.458,0,0,0,179.2-3.871a6.4,6.4,0,0,0,3.253.8,6.629,6.629,0,0,0,2.2-.348,4.675,4.675,0,0,0,1.719-1.044,4.566,4.566,0,0,0,1.108-1.719l4.02.724a7.263,7.263,0,0,1-1.726,3.1,8.361,8.361,0,0,1-3.111,2.06A11.6,11.6,0,0,1,182.415.44Zm30.44-16.932-3.849.682a4.637,4.637,0,0,0-.76-1.406,3.861,3.861,0,0,0-1.4-1.094,5.041,5.041,0,0,0-2.2-.426,5.325,5.325,0,0,0-3.011.8,2.4,2.4,0,0,0-1.207,2.067,2.171,2.171,0,0,0,.81,1.761,6.556,6.556,0,0,0,2.614,1.094l3.466.8a9.3,9.3,0,0,1,4.489,2.145,5.039,5.039,0,0,1,1.477,3.764,5.713,5.713,0,0,1-1.129,3.487,7.478,7.478,0,0,1-3.139,2.393,11.665,11.665,0,0,1-4.652.866,10.451,10.451,0,0,1-5.98-1.57A6.581,6.581,0,0,1,195.54-5.6l4.105-.625A3.9,3.9,0,0,0,201.222-3.8a5.4,5.4,0,0,0,3.111.817,5.723,5.723,0,0,0,3.338-.874,2.555,2.555,0,0,0,1.25-2.138,2.238,2.238,0,0,0-.76-1.719,5.08,5.08,0,0,0-2.322-1.051l-3.693-.81a8.828,8.828,0,0,1-4.51-2.216,5.34,5.34,0,0,1-1.456-3.849,5.5,5.5,0,0,1,1.08-3.381,7.12,7.12,0,0,1,2.983-2.266A10.97,10.97,0,0,1,204.6-22.1a9.074,9.074,0,0,1,5.568,1.527A7.169,7.169,0,0,1,212.855-16.491Z" transform="translate(963.897 -6756)" fill="#0065f2"/>
    </g>
  </g>
</svg>
