<svg xmlns="http://www.w3.org/2000/svg" xmlns:xlink="http://www.w3.org/1999/xlink" width="1350" height="1360" viewBox="0 0 1350 1360">
  <defs>
    <filter id="Path_28539" x="257.255" y="504.422" width="1104.326" height="292.178" filterUnits="userSpaceOnUse">
      <feOffset dy="10" input="SourceAlpha"/>
      <feGaussianBlur stdDeviation="10" result="blur"/>
      <feFlood flood-opacity="0.129"/>
      <feComposite operator="in" in2="blur"/>
    </filter>
    <filter id="Path_28539-2" x="257.255" y="504.422" width="1104.326" height="292.178" filterUnits="userSpaceOnUse">
      <feOffset input="SourceAlpha"/>
      <feGaussianBlur stdDeviation="2" result="blur-2"/>
      <feFlood flood-opacity="0.11" result="color"/>
      <feComposite operator="out" in="SourceGraphic" in2="blur-2"/>
      <feComposite operator="in" in="color"/>
      <feComposite operator="in" in2="SourceGraphic"/>
    </filter>
    <clipPath id="clip-path">
      <rect id="Rectangle_8417" data-name="Rectangle 8417" width="38.606" height="28.559" fill="#0065f2"/>
    </clipPath>
    <clipPath id="clip-path-2">
      <rect id="Rectangle_8418" data-name="Rectangle 8418" width="30.243" height="32.451" fill="#0065f2"/>
    </clipPath>
    <filter id="Ellipse_2507" x="234.313" y="594.187" width="94.487" height="94.487" filterUnits="userSpaceOnUse">
      <feOffset dy="3" input="SourceAlpha"/>
      <feGaussianBlur stdDeviation="3" result="blur-3"/>
      <feFlood flood-opacity="0.161"/>
      <feComposite operator="in" in2="blur-3"/>
      <feComposite in="SourceGraphic"/>
    </filter>
    <clipPath id="clip-homepage_header-art_2-card-mason">
      <rect width="1350" height="1360"/>
    </clipPath>
  </defs>
  <g id="homepage_header-art_2-card-mason" clip-path="url(#clip-homepage_header-art_2-card-mason)">
    <g data-type="innerShadowGroup">
      <g transform="matrix(1, 0, 0, 1, 0, 0)" filter="url(#Path_28539)">
        <g id="Path_28539-3" data-name="Path 28539" transform="translate(292.26 529.42)" fill="#fff" opacity="0.95">
          <path d="M 1017.200866699219 224.6776275634766 L 17.12554740905762 224.6776275634766 C 14.43701362609863 224.6776275634766 11.83101367950439 224.0827026367188 9.379946708679199 222.9093627929688 C 7.036880493164062 221.7876281738281 4.93821382522583 220.1882934570312 3.142480373382568 218.15576171875 C -0.4960530400276184 214.0376281738281 -2.499919652938843 208.5822906494141 -2.499919652938843 202.7946929931641 L -2.499919652938843 19.38296318054199 C -2.499919652938843 13.59536266326904 -0.4960530400276184 8.140028953552246 3.142480373382568 4.021895885467529 C 4.93821382522583 1.989362359046936 7.036880493164062 0.3900290429592133 9.379946708679199 -0.7317042946815491 C 11.83101367950439 -1.905037641525269 14.43701362609863 -2.49997091293335 17.12554740905762 -2.49997091293335 L 1017.200866699219 -2.49997091293335 C 1019.889404296875 -2.49997091293335 1022.495422363281 -1.905037641525269 1024.9462890625 -0.7317042946815491 C 1027.28955078125 0.3900290429592133 1029.388061523438 1.989362359046936 1031.183959960938 4.021895885467529 C 1034.822509765625 8.140028953552246 1036.826293945312 13.59536266326904 1036.826293945312 19.38296318054199 L 1036.826293945312 202.7946929931641 C 1036.826293945312 208.5822906494141 1034.822509765625 214.0376281738281 1031.183959960938 218.15576171875 C 1029.388061523438 220.1882934570312 1027.28955078125 221.7876281738281 1024.9462890625 222.9093627929688 C 1022.495422363281 224.0827026367188 1019.889404296875 224.6776275634766 1017.200866699219 224.6776275634766 Z" stroke="none"/>
          <path d="M 17.12542724609375 3.0517578125e-05 C 7.667236328125 3.0517578125e-05 0 8.678024291992188 0 19.38296508789062 L 0 202.7946929931641 C 0 213.4996337890625 7.667236328125 222.1776275634766 17.12542724609375 222.1776275634766 L 1017.200744628906 222.1776275634766 C 1026.658935546875 222.1776275634766 1034.326171875 213.4996337890625 1034.326171875 202.7946929931641 L 1034.326171875 19.38296508789062 C 1034.326171875 8.678024291992188 1026.658935546875 3.0517578125e-05 1017.200744628906 3.0517578125e-05 L 17.12542724609375 3.0517578125e-05 M 17.12542724609375 -4.999969482421875 L 1017.200744628906 -4.999969482421875 C 1020.265808105469 -4.999969482421875 1023.234985351562 -4.3226318359375 1026.025634765625 -2.98663330078125 C 1028.672607421875 -1.719436645507812 1031.038452148438 0.081634521484375 1033.057250976562 2.366561889648438 C 1037.099853515625 6.942031860351562 1039.326171875 12.9852294921875 1039.326171875 19.38296508789062 L 1039.326171875 202.7946929931641 C 1039.326171875 209.1924285888672 1037.099853515625 215.2356262207031 1033.057250976562 219.8110961914062 C 1031.038452148438 222.0960235595703 1028.672607421875 223.8970947265625 1026.025634765625 225.1642913818359 C 1023.234985351562 226.5002899169922 1020.265808105469 227.1776275634766 1017.200744628906 227.1776275634766 L 17.12542724609375 227.1776275634766 C 14.06036376953125 227.1776275634766 11.09112548828125 226.5002899169922 8.300537109375 225.1642913818359 C 5.653564453125 223.8970947265625 3.2877197265625 222.0960235595703 1.2689208984375 219.8110961914062 C -2.773681640625 215.2356262207031 -5 209.1924285888672 -5 202.7946929931641 L -5 19.38296508789062 C -5 12.9852294921875 -2.773681640625 6.942031860351562 1.2689208984375 2.366561889648438 C 3.2877197265625 0.081634521484375 5.653564453125 -1.719436645507812 8.300537109375 -2.98663330078125 C 11.09112548828125 -4.3226318359375 14.06036376953125 -4.999969482421875 17.12542724609375 -4.999969482421875 Z" stroke="none" fill="#1aac06"/>
        </g>
      </g>
      <g id="Path_28539-4" data-name="Path 28539" transform="translate(292.255 529.422)" fill="#fff" opacity="0.95">
        <path d="M 1017.200866699219 224.6776275634766 L 17.12554740905762 224.6776275634766 C 14.43701362609863 224.6776275634766 11.83101367950439 224.0827026367188 9.379946708679199 222.9093627929688 C 7.036880493164062 221.7876281738281 4.93821382522583 220.1882934570312 3.142480373382568 218.15576171875 C -0.4960530400276184 214.0376281738281 -2.499919652938843 208.5822906494141 -2.499919652938843 202.7946929931641 L -2.499919652938843 19.38296318054199 C -2.499919652938843 13.59536266326904 -0.4960530400276184 8.140028953552246 3.142480373382568 4.021895885467529 C 4.93821382522583 1.989362359046936 7.036880493164062 0.3900290429592133 9.379946708679199 -0.7317042946815491 C 11.83101367950439 -1.905037641525269 14.43701362609863 -2.49997091293335 17.12554740905762 -2.49997091293335 L 1017.200866699219 -2.49997091293335 C 1019.889404296875 -2.49997091293335 1022.495422363281 -1.905037641525269 1024.9462890625 -0.7317042946815491 C 1027.28955078125 0.3900290429592133 1029.388061523438 1.989362359046936 1031.183959960938 4.021895885467529 C 1034.822509765625 8.140028953552246 1036.826293945312 13.59536266326904 1036.826293945312 19.38296318054199 L 1036.826293945312 202.7946929931641 C 1036.826293945312 208.5822906494141 1034.822509765625 214.0376281738281 1031.183959960938 218.15576171875 C 1029.388061523438 220.1882934570312 1027.28955078125 221.7876281738281 1024.9462890625 222.9093627929688 C 1022.495422363281 224.0827026367188 1019.889404296875 224.6776275634766 1017.200866699219 224.6776275634766 Z" stroke="none"/>
        <path d="M 17.12542724609375 3.0517578125e-05 C 7.667236328125 3.0517578125e-05 0 8.678024291992188 0 19.38296508789062 L 0 202.7946929931641 C 0 213.4996337890625 7.667236328125 222.1776275634766 17.12542724609375 222.1776275634766 L 1017.200744628906 222.1776275634766 C 1026.658935546875 222.1776275634766 1034.326171875 213.4996337890625 1034.326171875 202.7946929931641 L 1034.326171875 19.38296508789062 C 1034.326171875 8.678024291992188 1026.658935546875 3.0517578125e-05 1017.200744628906 3.0517578125e-05 L 17.12542724609375 3.0517578125e-05 M 17.12542724609375 -4.999969482421875 L 1017.200744628906 -4.999969482421875 C 1020.265808105469 -4.999969482421875 1023.234985351562 -4.3226318359375 1026.025634765625 -2.98663330078125 C 1028.672607421875 -1.719436645507812 1031.038452148438 0.081634521484375 1033.057250976562 2.366561889648438 C 1037.099853515625 6.942031860351562 1039.326171875 12.9852294921875 1039.326171875 19.38296508789062 L 1039.326171875 202.7946929931641 C 1039.326171875 209.1924285888672 1037.099853515625 215.2356262207031 1033.057250976562 219.8110961914062 C 1031.038452148438 222.0960235595703 1028.672607421875 223.8970947265625 1026.025634765625 225.1642913818359 C 1023.234985351562 226.5002899169922 1020.265808105469 227.1776275634766 1017.200744628906 227.1776275634766 L 17.12542724609375 227.1776275634766 C 14.06036376953125 227.1776275634766 11.09112548828125 226.5002899169922 8.300537109375 225.1642913818359 C 5.653564453125 223.8970947265625 3.2877197265625 222.0960235595703 1.2689208984375 219.8110961914062 C -2.773681640625 215.2356262207031 -5 209.1924285888672 -5 202.7946929931641 L -5 19.38296508789062 C -5 12.9852294921875 -2.773681640625 6.942031860351562 1.2689208984375 2.366561889648438 C 3.2877197265625 0.081634521484375 5.653564453125 -1.719436645507812 8.300537109375 -2.98663330078125 C 11.09112548828125 -4.3226318359375 14.06036376953125 -4.999969482421875 17.12542724609375 -4.999969482421875 Z" stroke="none"/>
      </g>
      <g transform="matrix(1, 0, 0, 1, 0, 0)" filter="url(#Path_28539-2)">
        <g id="Path_28539-5" data-name="Path 28539" transform="translate(292.26 529.42)" fill="#fff" opacity="0.95">
          <path d="M 1017.200866699219 224.6776275634766 L 17.12554740905762 224.6776275634766 C 14.43701362609863 224.6776275634766 11.83101367950439 224.0827026367188 9.379946708679199 222.9093627929688 C 7.036880493164062 221.7876281738281 4.93821382522583 220.1882934570312 3.142480373382568 218.15576171875 C -0.4960530400276184 214.0376281738281 -2.499919652938843 208.5822906494141 -2.499919652938843 202.7946929931641 L -2.499919652938843 19.38296318054199 C -2.499919652938843 13.59536266326904 -0.4960530400276184 8.140028953552246 3.142480373382568 4.021895885467529 C 4.93821382522583 1.989362359046936 7.036880493164062 0.3900290429592133 9.379946708679199 -0.7317042946815491 C 11.83101367950439 -1.905037641525269 14.43701362609863 -2.49997091293335 17.12554740905762 -2.49997091293335 L 1017.200866699219 -2.49997091293335 C 1019.889404296875 -2.49997091293335 1022.495422363281 -1.905037641525269 1024.9462890625 -0.7317042946815491 C 1027.28955078125 0.3900290429592133 1029.388061523438 1.989362359046936 1031.183959960938 4.021895885467529 C 1034.822509765625 8.140028953552246 1036.826293945312 13.59536266326904 1036.826293945312 19.38296318054199 L 1036.826293945312 202.7946929931641 C 1036.826293945312 208.5822906494141 1034.822509765625 214.0376281738281 1031.183959960938 218.15576171875 C 1029.388061523438 220.1882934570312 1027.28955078125 221.7876281738281 1024.9462890625 222.9093627929688 C 1022.495422363281 224.0827026367188 1019.889404296875 224.6776275634766 1017.200866699219 224.6776275634766 Z" stroke="none"/>
          <path d="M 17.12542724609375 3.0517578125e-05 C 7.667236328125 3.0517578125e-05 0 8.678024291992188 0 19.38296508789062 L 0 202.7946929931641 C 0 213.4996337890625 7.667236328125 222.1776275634766 17.12542724609375 222.1776275634766 L 1017.200744628906 222.1776275634766 C 1026.658935546875 222.1776275634766 1034.326171875 213.4996337890625 1034.326171875 202.7946929931641 L 1034.326171875 19.38296508789062 C 1034.326171875 8.678024291992188 1026.658935546875 3.0517578125e-05 1017.200744628906 3.0517578125e-05 L 17.12542724609375 3.0517578125e-05 M 17.12542724609375 -4.999969482421875 L 1017.200744628906 -4.999969482421875 C 1020.265808105469 -4.999969482421875 1023.234985351562 -4.3226318359375 1026.025634765625 -2.98663330078125 C 1028.672607421875 -1.719436645507812 1031.038452148438 0.081634521484375 1033.057250976562 2.366561889648438 C 1037.099853515625 6.942031860351562 1039.326171875 12.9852294921875 1039.326171875 19.38296508789062 L 1039.326171875 202.7946929931641 C 1039.326171875 209.1924285888672 1037.099853515625 215.2356262207031 1033.057250976562 219.8110961914062 C 1031.038452148438 222.0960235595703 1028.672607421875 223.8970947265625 1026.025634765625 225.1642913818359 C 1023.234985351562 226.5002899169922 1020.265808105469 227.1776275634766 1017.200744628906 227.1776275634766 L 17.12542724609375 227.1776275634766 C 14.06036376953125 227.1776275634766 11.09112548828125 226.5002899169922 8.300537109375 225.1642913818359 C 5.653564453125 223.8970947265625 3.2877197265625 222.0960235595703 1.2689208984375 219.8110961914062 C -2.773681640625 215.2356262207031 -5 209.1924285888672 -5 202.7946929931641 L -5 19.38296508789062 C -5 12.9852294921875 -2.773681640625 6.942031860351562 1.2689208984375 2.366561889648438 C 3.2877197265625 0.081634521484375 5.653564453125 -1.719436645507812 8.300537109375 -2.98663330078125 C 11.09112548828125 -4.3226318359375 14.06036376953125 -4.999969482421875 17.12542724609375 -4.999969482421875 Z" stroke="none"/>
        </g>
      </g>
      <g id="Path_28539-6" data-name="Path 28539" transform="translate(292.255 529.422)" fill="none" opacity="0.95">
        <path d="M 1017.200866699219 224.6776275634766 L 17.12554740905762 224.6776275634766 C 14.43701362609863 224.6776275634766 11.83101367950439 224.0827026367188 9.379946708679199 222.9093627929688 C 7.036880493164062 221.7876281738281 4.93821382522583 220.1882934570312 3.142480373382568 218.15576171875 C -0.4960530400276184 214.0376281738281 -2.499919652938843 208.5822906494141 -2.499919652938843 202.7946929931641 L -2.499919652938843 19.38296318054199 C -2.499919652938843 13.59536266326904 -0.4960530400276184 8.140028953552246 3.142480373382568 4.021895885467529 C 4.93821382522583 1.989362359046936 7.036880493164062 0.3900290429592133 9.379946708679199 -0.7317042946815491 C 11.83101367950439 -1.905037641525269 14.43701362609863 -2.49997091293335 17.12554740905762 -2.49997091293335 L 1017.200866699219 -2.49997091293335 C 1019.889404296875 -2.49997091293335 1022.495422363281 -1.905037641525269 1024.9462890625 -0.7317042946815491 C 1027.28955078125 0.3900290429592133 1029.388061523438 1.989362359046936 1031.183959960938 4.021895885467529 C 1034.822509765625 8.140028953552246 1036.826293945312 13.59536266326904 1036.826293945312 19.38296318054199 L 1036.826293945312 202.7946929931641 C 1036.826293945312 208.5822906494141 1034.822509765625 214.0376281738281 1031.183959960938 218.15576171875 C 1029.388061523438 220.1882934570312 1027.28955078125 221.7876281738281 1024.9462890625 222.9093627929688 C 1022.495422363281 224.0827026367188 1019.889404296875 224.6776275634766 1017.200866699219 224.6776275634766 Z" stroke="none"/>
        <path d="M 17.12542724609375 3.0517578125e-05 C 7.667236328125 3.0517578125e-05 0 8.678024291992188 0 19.38296508789062 L 0 202.7946929931641 C 0 213.4996337890625 7.667236328125 222.1776275634766 17.12542724609375 222.1776275634766 L 1017.200744628906 222.1776275634766 C 1026.658935546875 222.1776275634766 1034.326171875 213.4996337890625 1034.326171875 202.7946929931641 L 1034.326171875 19.38296508789062 C 1034.326171875 8.678024291992188 1026.658935546875 3.0517578125e-05 1017.200744628906 3.0517578125e-05 L 17.12542724609375 3.0517578125e-05 M 17.12542724609375 -4.999969482421875 L 1017.200744628906 -4.999969482421875 C 1020.265808105469 -4.999969482421875 1023.234985351562 -4.3226318359375 1026.025634765625 -2.98663330078125 C 1028.672607421875 -1.719436645507812 1031.038452148438 0.081634521484375 1033.057250976562 2.366561889648438 C 1037.099853515625 6.942031860351562 1039.326171875 12.9852294921875 1039.326171875 19.38296508789062 L 1039.326171875 202.7946929931641 C 1039.326171875 209.1924285888672 1037.099853515625 215.2356262207031 1033.057250976562 219.8110961914062 C 1031.038452148438 222.0960235595703 1028.672607421875 223.8970947265625 1026.025634765625 225.1642913818359 C 1023.234985351562 226.5002899169922 1020.265808105469 227.1776275634766 1017.200744628906 227.1776275634766 L 17.12542724609375 227.1776275634766 C 14.06036376953125 227.1776275634766 11.09112548828125 226.5002899169922 8.300537109375 225.1642913818359 C 5.653564453125 223.8970947265625 3.2877197265625 222.0960235595703 1.2689208984375 219.8110961914062 C -2.773681640625 215.2356262207031 -5 209.1924285888672 -5 202.7946929931641 L -5 19.38296508789062 C -5 12.9852294921875 -2.773681640625 6.942031860351562 1.2689208984375 2.366561889648438 C 3.2877197265625 0.081634521484375 5.653564453125 -1.719436645507812 8.300537109375 -2.98663330078125 C 11.09112548828125 -4.3226318359375 14.06036376953125 -4.999969482421875 17.12542724609375 -4.999969482421875 Z" stroke="none" fill="#1aac06"/>
      </g>
    </g>
    <path id="Path_96436" data-name="Path 96436" d="M19.834-14.232c-.721-4.511-4.253-7.147-8.712-7.147-5.458,0-9.485,4.088-9.485,10.834S5.643.288,11.122.288a8.4,8.4,0,0,0,8.712-7.075L16.621-6.8a5.257,5.257,0,0,1-5.479,4.181c-3.615,0-6.344-2.77-6.344-7.93,0-5.118,2.719-7.93,6.354-7.93a5.239,5.239,0,0,1,5.468,4.243ZM23.4,0h3.079V-9.66a3.556,3.556,0,0,1,3.779-3.563,7.275,7.275,0,0,1,1.607.185v-2.945a12.507,12.507,0,0,0-1.308-.072,4.116,4.116,0,0,0-4.016,2.75h-.165v-2.513H23.4ZM40.781.319c3.45,0,5.891-1.7,6.591-4.274L44.458-4.48a3.579,3.579,0,0,1-3.646,2.255c-2.636,0-4.408-1.71-4.49-4.758H47.568V-8.074c0-5.716-3.419-7.95-7-7.95-4.408,0-7.312,3.357-7.312,8.218C33.253-2.894,36.116.319,40.781.319ZM36.332-9.289a4.248,4.248,0,0,1,4.253-4.191A3.907,3.907,0,0,1,44.55-9.289ZM55.6.35a4.944,4.944,0,0,0,4.675-2.513H60.4V0h3.007V-10.5c0-4.6-3.625-5.52-6.138-5.52-2.863,0-5.5,1.153-6.529,4.037l2.894.659a3.694,3.694,0,0,1,3.676-2.2c1.988,0,3.007,1.04,3.007,2.832v.072c0,1.123-1.153,1.1-4,1.431-3,.35-6.066,1.133-6.066,4.727C50.256-1.359,52.593.35,55.6.35Zm.669-2.472c-1.74,0-3-.783-3-2.307,0-1.648,1.462-2.235,3.244-2.472,1-.134,3.368-.4,3.81-.844v2.039C60.327-3.831,58.834-2.121,56.27-2.121Zm18.619-13.7H71.645v-3.79H68.566v3.79H66.249v2.472h2.317v9.341C68.556-1.133,70.749.257,73.18.206a5.9,5.9,0,0,0,2-.33l-.556-2.544a5.007,5.007,0,0,1-1.081.134c-1,0-1.895-.33-1.895-2.111v-8.7h3.244ZM78.288,0h3.079V-15.818H78.288Zm1.555-18.259a1.9,1.9,0,0,0,1.946-1.833,1.912,1.912,0,0,0-1.946-1.843A1.905,1.905,0,0,0,77.9-20.092,1.9,1.9,0,0,0,79.843-18.259Zm19.2,2.441H95.733l-4,12.173h-.165L87.566-15.818H84.261L90.007,0h3.3ZM108.194.319c3.45,0,5.891-1.7,6.591-4.274L111.87-4.48a3.579,3.579,0,0,1-3.646,2.255c-2.636,0-4.408-1.71-4.49-4.758H114.98V-8.074c0-5.716-3.419-7.95-7-7.95-4.408,0-7.312,3.357-7.312,8.218C100.666-2.894,103.529.319,108.194.319Zm-4.449-9.608A4.248,4.248,0,0,1,108-13.48a3.907,3.907,0,0,1,3.965,4.191Zm22.594-11.8V0h3.028V-15.272h.2l6.22,15.241H138.3l6.22-15.231h.2V0h3.028V-21.091h-3.862L137.163-4.7h-.247L130.2-21.091ZM156.73.35a4.944,4.944,0,0,0,4.675-2.513h.124V0h3.007V-10.5c0-4.6-3.625-5.52-6.138-5.52-2.863,0-5.5,1.153-6.529,4.037l2.894.659a3.694,3.694,0,0,1,3.676-2.2c1.988,0,3.007,1.04,3.007,2.832v.072c0,1.123-1.153,1.1-4,1.431-3,.35-6.066,1.133-6.066,4.727C151.385-1.359,153.723.35,156.73.35Zm.669-2.472c-1.74,0-3-.783-3-2.307,0-1.648,1.462-2.235,3.244-2.472,1-.134,3.368-.4,3.81-.844v2.039C161.457-3.831,159.963-2.121,157.4-2.121Zm14.315-7.271c0-2.523,1.545-3.965,3.687-3.965,2.091,0,3.357,1.37,3.357,3.666V0h3.079V-10.061c0-3.913-2.152-5.963-5.386-5.963a4.709,4.709,0,0,0-4.665,2.781h-.2v-2.575h-2.956V0h3.079ZM190.56.35a4.944,4.944,0,0,0,4.675-2.513h.124V0h3.007V-10.5c0-4.6-3.625-5.52-6.138-5.52-2.863,0-5.5,1.153-6.529,4.037l2.894.659a3.694,3.694,0,0,1,3.676-2.2c1.988,0,3.007,1.04,3.007,2.832v.072c0,1.123-1.153,1.1-4,1.431-3,.35-6.066,1.133-6.066,4.727C185.215-1.359,187.553.35,190.56.35Zm.669-2.472c-1.74,0-3-.783-3-2.307,0-1.648,1.462-2.235,3.244-2.472,1-.134,3.368-.4,3.81-.844v2.039C195.287-3.831,193.793-2.121,191.229-2.121ZM209.1,6.261c4.027,0,7.137-1.843,7.137-5.911V-15.818h-3.017v2.564h-.227a4.808,4.808,0,0,0-4.583-2.77c-3.821,0-6.632,3.017-6.632,8.053s2.873,7.734,6.611,7.734a4.763,4.763,0,0,0,4.583-2.647h.2V.227c0,2.482-1.7,3.553-4.037,3.553a4.294,4.294,0,0,1-4.109-2.194l-2.647,1.092C203.206,4.614,205.317,6.261,209.1,6.261Zm-.031-9.052c-2.75,0-4.181-2.111-4.181-5.221,0-3.038,1.4-5.4,4.181-5.4,2.688,0,4.13,2.194,4.13,5.4C213.2-4.748,211.723-2.791,209.066-2.791ZM227.18.319c3.45,0,5.891-1.7,6.591-4.274l-2.914-.525a3.579,3.579,0,0,1-3.646,2.255c-2.636,0-4.408-1.71-4.49-4.758h11.246V-8.074c0-5.716-3.419-7.95-7-7.95-4.408,0-7.312,3.357-7.312,8.218C219.652-2.894,222.515.319,227.18.319Zm-4.449-9.608a4.248,4.248,0,0,1,4.253-4.191,3.907,3.907,0,0,1,3.965,4.191ZM237.4,0h3.079V-9.66a3.556,3.556,0,0,1,3.779-3.563,7.275,7.275,0,0,1,1.607.185v-2.945a12.507,12.507,0,0,0-1.308-.072,4.116,4.116,0,0,0-4.016,2.75h-.165v-2.513H237.4Zm14.922-2.884h-2.636l-.124,1.153c-.3,2.791-.886,5.571-1.153,6.879h1.854a43.788,43.788,0,0,0,1.895-6.92Zm30.009-7.662a12.035,12.035,0,0,1-1.339,5.9,9.129,9.129,0,0,1-3.62,3.676A10.42,10.42,0,0,1,272.256.288a10.344,10.344,0,0,1-5.118-1.267,9.183,9.183,0,0,1-3.61-3.682,12.02,12.02,0,0,1-1.334-5.885,12.073,12.073,0,0,1,1.334-5.9,9.105,9.105,0,0,1,3.61-3.676,10.411,10.411,0,0,1,5.118-1.256,10.42,10.42,0,0,1,5.113,1.256,9.129,9.129,0,0,1,3.62,3.676A12.035,12.035,0,0,1,282.328-10.545Zm-5.211,0a9.2,9.2,0,0,0-.582-3.481,4.608,4.608,0,0,0-1.668-2.152,4.565,4.565,0,0,0-2.611-.731,4.572,4.572,0,0,0-2.605.731,4.6,4.6,0,0,0-1.673,2.152,9.2,9.2,0,0,0-.582,3.481,9.2,9.2,0,0,0,.582,3.481,4.6,4.6,0,0,0,1.673,2.152,4.572,4.572,0,0,0,2.605.731,4.565,4.565,0,0,0,2.611-.731,4.608,4.608,0,0,0,1.668-2.152A9.2,9.2,0,0,0,277.117-10.545ZM285.294,0V-15.818h4.892v2.884h.165a4.31,4.31,0,0,1,1.411-2.333,3.582,3.582,0,0,1,2.276-.767,5.812,5.812,0,0,1,.721.046,4.458,4.458,0,0,1,.69.139v4.377a4.809,4.809,0,0,0-.942-.2,8.52,8.52,0,0,0-1.035-.072,3.269,3.269,0,0,0-1.612.4,2.886,2.886,0,0,0-1.123,1.1,3.251,3.251,0,0,0-.407,1.653V0Zm18.764,6.127A10.77,10.77,0,0,1,300.2,5.51a6.166,6.166,0,0,1-2.523-1.684,4.577,4.577,0,0,1-1.1-2.384l4.768-.268a1.7,1.7,0,0,0,.5.752,2.6,2.6,0,0,0,.958.52,4.571,4.571,0,0,0,1.4.191,3.5,3.5,0,0,0,2.1-.6,2.319,2.319,0,0,0,.829-2.018V-2.76h-.175a3.744,3.744,0,0,1-.906,1.308,4.306,4.306,0,0,1-1.509.906,5.991,5.991,0,0,1-2.065.33,6.346,6.346,0,0,1-3.167-.808A5.745,5.745,0,0,1,297-3.537a9.751,9.751,0,0,1-.86-4.392,10.321,10.321,0,0,1,.886-4.567,6.186,6.186,0,0,1,2.322-2.662,5.894,5.894,0,0,1,3.095-.865,4.9,4.9,0,0,1,2.137.427,4.439,4.439,0,0,1,1.468,1.1,5.164,5.164,0,0,1,.875,1.39h.144v-2.708h5.015V.062a5.367,5.367,0,0,1-1.009,3.3,6.233,6.233,0,0,1-2.822,2.06A11.507,11.507,0,0,1,304.057,6.127Zm.154-10.01a2.544,2.544,0,0,0,1.565-.484,3.051,3.051,0,0,0,1-1.39,6.033,6.033,0,0,0,.35-2.173,6.4,6.4,0,0,0-.345-2.219,3.131,3.131,0,0,0-1-1.437,2.494,2.494,0,0,0-1.57-.5,2.471,2.471,0,0,0-1.586.515,3.151,3.151,0,0,0-.983,1.447,6.509,6.509,0,0,0-.335,2.2,6.2,6.2,0,0,0,.34,2.173,3,3,0,0,0,.983,1.39A2.555,2.555,0,0,0,304.212-3.882Zm30.215-9.567h-5.149a4.462,4.462,0,0,0-.422-1.431,3.482,3.482,0,0,0-.844-1.092,3.681,3.681,0,0,0-1.241-.7,4.911,4.911,0,0,0-1.581-.242,4.588,4.588,0,0,0-2.642.752,4.747,4.747,0,0,0-1.7,2.173,8.936,8.936,0,0,0-.592,3.44,9,9,0,0,0,.6,3.517,4.609,4.609,0,0,0,1.7,2.132,4.651,4.651,0,0,0,2.6.716A5.166,5.166,0,0,0,326.7-4.4a3.776,3.776,0,0,0,1.225-.633,3.487,3.487,0,0,0,.875-1.02,4.177,4.177,0,0,0,.479-1.365l5.149.031a7.859,7.859,0,0,1-.808,2.76,8.827,8.827,0,0,1-1.849,2.477,8.675,8.675,0,0,1-2.858,1.776,10.524,10.524,0,0,1-3.857.659,10.332,10.332,0,0,1-5.123-1.262,9,9,0,0,1-3.568-3.682,12.244,12.244,0,0,1-1.308-5.891,12.111,12.111,0,0,1,1.328-5.9,9.092,9.092,0,0,1,3.594-3.676,10.29,10.29,0,0,1,5.077-1.256,11.373,11.373,0,0,1,3.543.53,8.723,8.723,0,0,1,2.863,1.545,7.959,7.959,0,0,1,2.008,2.487A9.085,9.085,0,0,1,334.427-13.45ZM341.79.268a6.654,6.654,0,0,1-2.683-.51,4.106,4.106,0,0,1-1.843-1.545,4.671,4.671,0,0,1-.675-2.6,4.847,4.847,0,0,1,.463-2.224,3.96,3.96,0,0,1,1.277-1.473,6.1,6.1,0,0,1,1.874-.86,12.466,12.466,0,0,1,2.266-.4q1.349-.124,2.173-.263a3.048,3.048,0,0,0,1.2-.4.857.857,0,0,0,.376-.747V-10.8a1.473,1.473,0,0,0-.546-1.225,2.307,2.307,0,0,0-1.473-.433,2.713,2.713,0,0,0-1.607.433,1.906,1.906,0,0,0-.772,1.195L337.177-11a5.5,5.5,0,0,1,1.066-2.58,5.763,5.763,0,0,1,2.369-1.792,9.1,9.1,0,0,1,3.63-.654,10.387,10.387,0,0,1,2.791.355,7.063,7.063,0,0,1,2.224,1.03,4.75,4.75,0,0,1,1.467,1.653,4.688,4.688,0,0,1,.52,2.235V0h-4.737V-2.2h-.124a4.527,4.527,0,0,1-1.076,1.359,4.369,4.369,0,0,1-1.534.834A6.571,6.571,0,0,1,341.79.268Zm1.555-3.3a3.215,3.215,0,0,0,1.467-.33,2.7,2.7,0,0,0,1.045-.911,2.369,2.369,0,0,0,.391-1.354v-1.5a3.037,3.037,0,0,1-.52.206q-.3.093-.664.175t-.741.144q-.381.062-.731.113a4.475,4.475,0,0,0-1.21.35,1.89,1.89,0,0,0-.762.613,1.516,1.516,0,0,0-.263.891,1.39,1.39,0,0,0,.561,1.195A2.348,2.348,0,0,0,343.345-3.028ZM361.7.3a8.451,8.451,0,0,1-4.289-1.03A6.949,6.949,0,0,1,354.663-3.6a9.087,9.087,0,0,1-.958-4.258,9.07,9.07,0,0,1,.963-4.269,6.983,6.983,0,0,1,2.75-2.868,8.408,8.408,0,0,1,4.269-1.03,8.663,8.663,0,0,1,3.826.793,6.128,6.128,0,0,1,2.554,2.24,6.511,6.511,0,0,1,.973,3.393h-4.706a3.169,3.169,0,0,0-.819-1.905,2.346,2.346,0,0,0-1.756-.69,2.5,2.5,0,0,0-1.534.489,3.134,3.134,0,0,0-1.025,1.442,6.6,6.6,0,0,0-.366,2.353,6.691,6.691,0,0,0,.366,2.363,3.132,3.132,0,0,0,1.025,1.452,2.5,2.5,0,0,0,1.534.489A2.524,2.524,0,0,0,363-3.9a2.38,2.38,0,0,0,.891-.881,3.458,3.458,0,0,0,.443-1.416h4.706a6.883,6.883,0,0,1-.973,3.419A6.069,6.069,0,0,1,365.543-.51,8.532,8.532,0,0,1,361.7.3Zm14.963-9.32V0h-5.036V-21.091H376.5v8.177h.175a4.573,4.573,0,0,1,1.756-2.286,5.224,5.224,0,0,1,2.992-.824,5.567,5.567,0,0,1,2.9.736,5.015,5.015,0,0,1,1.921,2.075,6.7,6.7,0,0,1,.675,3.131V0h-5.036V-9.093a2.927,2.927,0,0,0-.659-2.06,2.409,2.409,0,0,0-1.885-.741,2.758,2.758,0,0,0-1.4.345,2.378,2.378,0,0,0-.937.983A3.376,3.376,0,0,0,376.66-9.021ZM397.442.3a8.786,8.786,0,0,1-4.279-.983A6.687,6.687,0,0,1,390.4-3.5a9.218,9.218,0,0,1-.963-4.351,9.076,9.076,0,0,1,.968-4.289A7.031,7.031,0,0,1,393.137-15a8.107,8.107,0,0,1,4.15-1.025,8.736,8.736,0,0,1,3.089.525,6.641,6.641,0,0,1,2.42,1.555,7.1,7.1,0,0,1,1.586,2.539,9.789,9.789,0,0,1,.566,3.455v1.256H391.2V-9.619h9.063a2.837,2.837,0,0,0-.381-1.431,2.635,2.635,0,0,0-1.014-.983,3.007,3.007,0,0,0-1.478-.355,3.038,3.038,0,0,0-1.514.376,2.854,2.854,0,0,0-1.061,1.02,2.894,2.894,0,0,0-.412,1.457V-6.56a3.6,3.6,0,0,0,.381,1.694,2.739,2.739,0,0,0,1.081,1.128,3.3,3.3,0,0,0,1.668.4,3.762,3.762,0,0,0,1.215-.185,2.6,2.6,0,0,0,.937-.546,2.253,2.253,0,0,0,.587-.886l4.624.134a5.712,5.712,0,0,1-1.262,2.7,6.393,6.393,0,0,1-2.549,1.782A9.725,9.725,0,0,1,397.442.3Z" transform="translate(538.755 645.348)" fill="#64728c"/>
    <path id="Path_96437" data-name="Path 96437" d="M2.07,0H5.149V-9.752a3.387,3.387,0,0,1,3.244-3.615,2.724,2.724,0,0,1,2.894,2.853V0h3.069V-10.082a3.03,3.03,0,0,1,3.172-3.285,2.758,2.758,0,0,1,2.966,3.048V0h3.079V-10.607c0-3.615-2.018-5.417-4.881-5.417a4.942,4.942,0,0,0-4.748,2.781h-.165a4.28,4.28,0,0,0-4.253-2.781,4.326,4.326,0,0,0-4.3,2.781h-.2v-2.575H2.07ZM29.721.2a2.066,2.066,0,0,0,2.06-2.06,2.07,2.07,0,0,0-2.06-2.049,2.064,2.064,0,0,0-2.06,2.049A2.059,2.059,0,0,0,29.721.2ZM35.9-15.818V1.009c0,1.462-.608,2.266-2.07,2.266h-.494V5.922c.216.01.412.01.628.01,3.275,0,5.015-1.73,5.015-4.9V-15.818Zm1.524-2.441a1.9,1.9,0,0,0,1.946-1.833,1.912,1.912,0,0,0-1.946-1.843,1.905,1.905,0,0,0-1.946,1.843A1.9,1.9,0,0,0,37.424-18.259ZM49.782.319c4.459,0,7.374-3.265,7.374-8.156,0-4.923-2.914-8.187-7.374-8.187s-7.374,3.265-7.374,8.187C42.408-2.945,45.323.319,49.782.319Zm.01-2.585c-2.914,0-4.274-2.544-4.274-5.582s1.359-5.6,4.274-5.6c2.894,0,4.253,2.575,4.253,5.6S52.686-2.266,49.792-2.266ZM63.664-9.392a3.633,3.633,0,0,1,3.79-3.965c2.121,0,3.388,1.349,3.388,3.666V0h3.079V-10.061c0-3.944-2.163-5.963-5.417-5.963a4.631,4.631,0,0,0-4.686,2.781h-.2v-7.847H60.585V0h3.079Zm17.456,0c0-2.523,1.545-3.965,3.687-3.965,2.091,0,3.357,1.37,3.357,3.666V0h3.079V-10.061c0-3.913-2.152-5.963-5.386-5.963a4.709,4.709,0,0,0-4.665,2.781H81v-2.575H78.04V0H81.12Zm26.1-2.564c-.638-2.461-2.564-4.068-5.983-4.068-3.574,0-6.107,1.885-6.107,4.686,0,2.245,1.359,3.738,4.325,4.4l2.678.587c1.524.34,2.235,1.02,2.235,2.008,0,1.225-1.308,2.183-3.326,2.183-1.843,0-3.028-.793-3.4-2.348l-2.976.453c.515,2.8,2.842,4.377,6.4,4.377,3.821,0,6.467-2.029,6.467-4.892,0-2.235-1.421-3.615-4.325-4.284l-2.513-.577c-1.74-.412-2.492-1-2.482-2.07-.01-1.215,1.308-2.08,3.059-2.08a3.052,3.052,0,0,1,3.162,2.121ZM117.565.319c4.459,0,7.374-3.265,7.374-8.156,0-4.923-2.914-8.187-7.374-8.187s-7.374,3.265-7.374,8.187C110.192-2.945,113.106.319,117.565.319Zm.01-2.585c-2.914,0-4.274-2.544-4.274-5.582s1.359-5.6,4.274-5.6c2.894,0,4.253,2.575,4.253,5.6S120.469-2.266,117.576-2.266Zm13.872-7.126c0-2.523,1.545-3.965,3.687-3.965,2.091,0,3.357,1.37,3.357,3.666V0h3.079V-10.061c0-3.913-2.152-5.963-5.386-5.963a4.709,4.709,0,0,0-4.665,2.781h-.2v-2.575h-2.956V0h3.079Zm26.94,15.128a17.749,17.749,0,0,0,6.406-1.246l-.721-2.255A18.056,18.056,0,0,1,158.522,3.3c-6.931,0-10.648-3.821-10.648-10.659,0-6.55,3.676-10.782,10.267-10.782,6.024,0,9.619,3.872,9.608,9.1.01,4.469-.566,6.478-2.441,6.478-1.061,0-1.648-.865-1.648-1.946v-9.557h-2.533v1.153h-.134c-.309-.906-2.1-1.72-4.253-1.462-2.976.35-5.53,2.811-5.53,6.869,0,4.233,2.163,7.065,5.633,7.2,2.348.1,3.872-.989,4.356-2.2h.124c.247,1.658,2.039,2.389,3.8,2.327,4.4-.082,5.232-4.408,5.232-8.754,0-6.2-4.243-11.6-12.111-11.6-8.249,0-13.1,5.036-13.11,13.151C145.144.968,149.871,5.736,158.388,5.736Zm-.947-8.568c-2.688,0-3.615-2.307-3.625-4.8.01-2.369,1.339-4.253,3.666-4.253,2.523,0,3.656,1.112,3.666,4.243C161.158-4.428,160.118-2.832,157.44-2.832ZM180.416.319c4.459,0,7.374-3.265,7.374-8.156,0-4.923-2.914-8.187-7.374-8.187s-7.374,3.265-7.374,8.187C173.042-2.945,175.957.319,180.416.319Zm.01-2.585c-2.914,0-4.274-2.544-4.274-5.582s1.359-5.6,4.274-5.6c2.894,0,4.253,2.575,4.253,5.6S183.32-2.266,180.426-2.266ZM191.219,0H194.3V-9.66a3.556,3.556,0,0,1,3.779-3.563,7.275,7.275,0,0,1,1.607.185v-2.945a12.507,12.507,0,0,0-1.308-.072,4.116,4.116,0,0,0-4.016,2.75h-.165v-2.513h-2.976Zm17.2,6.261c4.027,0,7.137-1.843,7.137-5.911V-15.818h-3.017v2.564h-.227a4.808,4.808,0,0,0-4.583-2.77c-3.821,0-6.632,3.017-6.632,8.053s2.873,7.734,6.611,7.734a4.763,4.763,0,0,0,4.583-2.647h.2V.227c0,2.482-1.7,3.553-4.037,3.553a4.294,4.294,0,0,1-4.109-2.194l-2.647,1.092C202.526,4.614,204.637,6.261,208.417,6.261Zm-.031-9.052c-2.75,0-4.181-2.111-4.181-5.221,0-3.038,1.4-5.4,4.181-5.4,2.688,0,4.13,2.194,4.13,5.4C212.516-4.748,211.043-2.791,208.386-2.791Zm17.96,3.11c3.738,0,6.158-2.245,6.5-5.324h-3a3.379,3.379,0,0,1-3.481,2.719c-2.605,0-4.284-2.173-4.284-5.623,0-3.388,1.71-5.52,4.284-5.52a3.394,3.394,0,0,1,3.481,2.719h3c-.33-3.192-2.935-5.314-6.529-5.314-4.459,0-7.343,3.357-7.343,8.187C218.973-3.069,221.753.319,226.346.319ZM240.754.35a4.944,4.944,0,0,0,4.675-2.513h.124V0h3.007V-10.5c0-4.6-3.625-5.52-6.138-5.52-2.863,0-5.5,1.153-6.529,4.037l2.894.659a3.694,3.694,0,0,1,3.676-2.2c1.988,0,3.007,1.04,3.007,2.832v.072c0,1.123-1.153,1.1-4,1.431-3,.35-6.066,1.133-6.066,4.727C235.409-1.359,237.746.35,240.754.35Zm.669-2.472c-1.74,0-3-.783-3-2.307,0-1.648,1.462-2.235,3.244-2.472,1-.134,3.368-.4,3.81-.844v2.039C245.48-3.831,243.987-2.121,241.423-2.121Zm17.9,2.441c3.738,0,6.158-2.245,6.5-5.324h-3a3.379,3.379,0,0,1-3.481,2.719c-2.605,0-4.284-2.173-4.284-5.623,0-3.388,1.71-5.52,4.284-5.52a3.394,3.394,0,0,1,3.481,2.719h3c-.33-3.192-2.935-5.314-6.529-5.314-4.459,0-7.343,3.357-7.343,8.187C251.948-3.069,254.728.319,259.321.319ZM272.2-9.392a3.633,3.633,0,0,1,3.79-3.965c2.121,0,3.388,1.349,3.388,3.666V0h3.079V-10.061c0-3.944-2.163-5.963-5.417-5.963a4.631,4.631,0,0,0-4.686,2.781h-.2v-7.847h-3.038V0H272.2ZM293.4.319c3.45,0,5.891-1.7,6.591-4.274l-2.914-.525a3.578,3.578,0,0,1-3.646,2.255c-2.636,0-4.408-1.71-4.49-4.758h11.246V-8.074c0-5.716-3.419-7.95-7-7.95-4.408,0-7.312,3.357-7.312,8.218C285.87-2.894,288.733.319,293.4.319ZM288.95-9.289A4.248,4.248,0,0,1,293.2-13.48a3.907,3.907,0,0,1,3.965,4.191ZM305.643.2a2.066,2.066,0,0,0,2.06-2.06,2.07,2.07,0,0,0-2.06-2.049,2.064,2.064,0,0,0-2.06,2.049A2.059,2.059,0,0,0,305.643.2Zm12.842.124c3.738,0,6.158-2.245,6.5-5.324h-3a3.379,3.379,0,0,1-3.481,2.719c-2.605,0-4.284-2.173-4.284-5.623,0-3.388,1.71-5.52,4.284-5.52a3.394,3.394,0,0,1,3.481,2.719h3c-.33-3.192-2.935-5.314-6.529-5.314-4.459,0-7.343,3.357-7.343,8.187C311.112-3.069,313.892.319,318.485.319Zm16.467,0c4.459,0,7.374-3.265,7.374-8.156,0-4.923-2.914-8.187-7.374-8.187s-7.374,3.265-7.374,8.187C327.578-2.945,330.493.319,334.952.319Zm.01-2.585c-2.914,0-4.274-2.544-4.274-5.582s1.359-5.6,4.274-5.6c2.894,0,4.253,2.575,4.253,5.6S337.856-2.266,334.962-2.266ZM345.755,0h3.079V-9.752a3.387,3.387,0,0,1,3.244-3.615,2.724,2.724,0,0,1,2.894,2.853V0h3.069V-10.082a3.03,3.03,0,0,1,3.172-3.285,2.758,2.758,0,0,1,2.966,3.048V0h3.079V-10.607c0-3.615-2.018-5.417-4.881-5.417a4.942,4.942,0,0,0-4.747,2.781h-.165a4.28,4.28,0,0,0-4.253-2.781,4.326,4.326,0,0,0-4.3,2.781h-.2v-2.575h-2.956Z" transform="translate(886.41 711.011)" fill="#64728c"/>
    <path id="Path_96438" data-name="Path 96438" d="M8.99.288a6.927,6.927,0,0,0,7.26-7.106c.01-4.078-2.832-7.044-6.673-7.044a5.683,5.683,0,0,0-3.841,1.4H5.613l.669-5.9h8.949v-2.729H3.635L2.451-10.463l2.914.433a5.619,5.619,0,0,1,3.491-1.195,4.269,4.269,0,0,1,4.315,4.469A4.136,4.136,0,0,1,8.99-2.389,3.605,3.605,0,0,1,5.17-5.5H2.08C2.2-2.142,5.118.288,8.99.288ZM27.352.35c4.871,0,7.724-3.975,7.724-10.885,0-6.859-2.894-10.844-7.724-10.844S19.629-17.4,19.618-10.535C19.618-3.635,22.471.34,27.352.35Zm0-2.75c-2.853,0-4.572-2.863-4.572-8.136.01-5.252,1.73-8.146,4.572-8.146s4.562,2.894,4.562,8.146C31.914-5.262,30.195-2.4,27.352-2.4ZM46.744-21.091h-3.1l-5.262,3.44V-14.6l5.046-3.3h.124V0h3.192ZM61.81-11.874H52.46v2.667H61.81Zm3.625,7.755h10V0h3.038V-4.119h2.791v-2.7H78.473V-21.091H74.549l-9.114,14.4Zm10.02-2.7H68.772v-.165L75.291-17.3h.165ZM91.809.288a6.927,6.927,0,0,0,7.26-7.106c.01-4.078-2.832-7.044-6.673-7.044a5.683,5.683,0,0,0-3.841,1.4h-.124l.669-5.9H98.05v-2.729h-11.6L85.27-10.463l2.914.433a5.619,5.619,0,0,1,3.491-1.195A4.269,4.269,0,0,1,95.99-6.756a4.136,4.136,0,0,1-4.181,4.366A3.605,3.605,0,0,1,87.989-5.5H84.9C85.023-2.142,87.937.288,91.809.288Zm18.382,0a6.954,6.954,0,0,0,7.322-7.178,6.614,6.614,0,0,0-6.581-6.931,6,6,0,0,0-5.232,2.853h-.154c.01-4.789,1.823-7.631,4.912-7.631a3.67,3.67,0,0,1,3.738,2.987h3.141a6.626,6.626,0,0,0-6.879-5.767c-4.9,0-7.961,4.212-7.961,11.544C102.489-2.07,106.443.257,110.192.288Zm-.01-2.678a4.317,4.317,0,0,1-4.243-4.428,4.4,4.4,0,0,1,4.315-4.418,4.2,4.2,0,0,1,4.171,4.387A4.288,4.288,0,0,1,110.181-2.389Zm20.442-9.485h-9.351v2.667h9.351ZM141.7-21.379a6.945,6.945,0,0,0-7.322,7.137,6.633,6.633,0,0,0,6.581,6.931,6.018,6.018,0,0,0,5.232-2.863h.165c-.01,4.85-1.833,7.683-4.923,7.683a3.648,3.648,0,0,1-3.728-3.038h-3.141A6.587,6.587,0,0,0,141.437.288c4.9,0,7.971-4.212,7.971-11.6C149.4-19.011,145.463-21.348,141.7-21.379Zm.01,2.678a4.32,4.32,0,0,1,4.243,4.387,4.385,4.385,0,0,1-4.3,4.408,4.2,4.2,0,0,1-4.181-4.377A4.278,4.278,0,0,1,141.715-18.7ZM160.252.288c4.387,0,7.487-2.492,7.507-5.911a5.385,5.385,0,0,0-4.243-5.314v-.124a4.718,4.718,0,0,0,3.46-4.7c-.021-3.223-2.863-5.623-6.725-5.623-3.9,0-6.745,2.4-6.725,5.623a4.638,4.638,0,0,0,3.46,4.7v.124a5.3,5.3,0,0,0-4.243,5.314C152.724-2.2,155.824.288,160.252.288Zm0-2.605c-2.636,0-4.3-1.4-4.284-3.512-.021-2.194,1.792-3.759,4.284-3.759,2.451,0,4.263,1.565,4.284,3.759C164.515-3.718,162.857-2.317,160.252-2.317Zm0-9.814a3.32,3.32,0,0,1-3.625-3.357c-.021-1.977,1.442-3.285,3.625-3.285a3.3,3.3,0,0,1,3.625,3.285A3.359,3.359,0,0,1,160.252-12.131ZM172.146,0h3.326l9.176-18.269v-2.822H170.7v2.729h10.648v.154Zm22.986.288a6.954,6.954,0,0,0,7.322-7.178,6.614,6.614,0,0,0-6.581-6.931,6,6,0,0,0-5.232,2.853h-.154c.01-4.789,1.823-7.631,4.912-7.631a3.67,3.67,0,0,1,3.738,2.987h3.141a6.626,6.626,0,0,0-6.879-5.767c-4.9,0-7.961,4.212-7.961,11.544C187.429-2.07,191.384.257,195.132.288Zm-.01-2.678a4.317,4.317,0,0,1-4.243-4.428,4.4,4.4,0,0,1,4.315-4.418,4.2,4.2,0,0,1,4.171,4.387A4.288,4.288,0,0,1,195.122-2.389Z" transform="translate(580.028 711.011)" fill="#64728c"/>
    <g id="Group_21510" data-name="Group 21510" transform="translate(834.725 689.988)">
      <g id="Group_21672" data-name="Group 21672" clip-path="url(#clip-path)">
        <path id="Path_28534" data-name="Path 28534" d="M0,193.248v-.719l2.212-1.581,14.17-10.168,1.99,1.549a1.516,1.516,0,0,0,1.863,0l1.989-1.548,11.747,8.484,4.586,3.056v.926Z" transform="translate(0 -164.689)" fill="#0065f2"/>
        <path id="Path_28535" data-name="Path 28535" d="M0,37.515l14.85,11.56L0,59.731Z" transform="translate(0 -34.176)" fill="#0065f2"/>
        <path id="Path_28536" data-name="Path 28536" d="M266.848,49.078,281.7,37.516v22.29Z" transform="translate(-243.095 -34.176)" fill="#0065f2"/>
        <path id="Path_28537" data-name="Path 28537" d="M1.194,1.91,0,.942V0H38.606V1.02l-1.19.887L19.3,16.007Z" transform="translate(0 -0.001)" fill="#0065f2"/>
      </g>
    </g>
    <g id="Group_21511" data-name="Group 21511" transform="translate(539.947 684.784)">
      <g id="Group_21674" data-name="Group 21674" clip-path="url(#clip-path-2)">
        <path id="Path_28538" data-name="Path 28538" d="M29.764,24.493a.2.2,0,0,0-.025-.041,3.3,3.3,0,0,0-.82-.547,3.994,3.994,0,0,0-.361-.183l-.029-.014h0c-.085-.038-.174-.075-.268-.111-.966-.386-2.861-1.109-4.245-1.637-.775-.3-1.392-.531-1.556-.6a1.637,1.637,0,0,0-1.634-.01c-.085.046-.165.087-.244.127a5.392,5.392,0,0,0-.685.4,1.65,1.65,0,0,0-.366.316,10.253,10.253,0,0,0-1.342,1.244l-.032.03c-.321.3-.527.489-.908.4-6.01-3.225-9.313-10.643-9.313-10.643-.041-.389.176-.568.514-.847l.034-.028a10.247,10.247,0,0,0,1.411-1.165,1.648,1.648,0,0,0,.362-.321,5.39,5.39,0,0,0,.485-.626c.05-.073.1-.147.158-.225a1.637,1.637,0,0,0,.207-1.621c-.043-.172-.195-.815-.385-1.622-.34-1.441-.8-3.415-1.059-4.425a3.926,3.926,0,0,0-.339-.952C8.676-.826,5.371.27,5.371.27a2.894,2.894,0,0,0-.555.168h0A7.275,7.275,0,0,0,.706,4.89v0A9.972,9.972,0,0,0,.1,7.091,8.747,8.747,0,0,0,.116,9.827,16.641,16.641,0,0,0,1.964,15.55l.061.12c.015.031.039.084.072.157a5.6,5.6,0,0,0,.489.775c1.475,2.4,5.472,8.385,10.9,12.385h0a3.6,3.6,0,0,0,.408.32l.146.092.111.077a16.637,16.637,0,0,0,5.427,2.591,8.749,8.749,0,0,0,2.71.38,9.955,9.955,0,0,0,2.283-.316A7.316,7.316,0,0,0,29.5,28.669a2.94,2.94,0,0,0,.152-.294h0s1.252-2.615.113-3.881" transform="translate(0 0.001)" fill="#0065f2"/>
      </g>
    </g>
    <path id="Path_96435" data-name="Path 96435" d="M5,0H181.35a5,5,0,0,1,5,5V181.35a5,5,0,0,1-5,5H5a5,5,0,0,1-5-5V5A5,5,0,0,1,5,0Z" transform="translate(311.454 550.371)" fill="#b3d0f7"/>
    <g id="Group_21676" data-name="Group 21676" transform="translate(243.313 600.187)">
      <g transform="matrix(1, 0, 0, 1, -243.31, -600.19)" filter="url(#Ellipse_2507)">
        <g id="Ellipse_2507-2" data-name="Ellipse 2507" transform="translate(243.31 600.19)" fill="#27bb5c" stroke="#fff" stroke-width="6">
          <ellipse cx="38.244" cy="38.243" rx="38.244" ry="38.243" stroke="none"/>
          <ellipse cx="38.244" cy="38.243" rx="35.244" ry="35.243" fill="none"/>
        </g>
      </g>
      <path id="check" d="M34.214,6,13.442,30.281,4,19.244" transform="translate(20.088 20.046)" fill="none" stroke="#fff" stroke-linecap="round" stroke-linejoin="round" stroke-width="6"/>
    </g>
    <path id="Path_96458" data-name="Path 96458" d="M2.528-29.091V0H8.494V-19.006h.241L16.264-.142h4.062l7.528-18.793H28.1V0h5.966V-29.091H26.477L18.466-9.545h-.341L10.114-29.091Zm42.7,29.5c3.224,0,5.312-1.406,6.378-3.437h.17V0h5.739V-14.716c0-5.2-4.4-7.386-9.261-7.386-5.227,0-8.665,2.5-9.5,6.477l5.6.455c.412-1.449,1.7-2.514,3.878-2.514,2.06,0,3.239,1.037,3.239,2.827v.085c0,1.406-1.491,1.591-5.284,1.96-4.318.4-8.2,1.847-8.2,6.719C37.983-1.776,41.065.412,45.227.412ZM46.96-3.764c-1.861,0-3.2-.866-3.2-2.528,0-1.7,1.406-2.543,3.537-2.841a14.551,14.551,0,0,0,4.2-.98V-7.8C51.506-5.511,49.616-3.764,46.96-3.764ZM80.369-15.6c-.54-4.02-3.778-6.506-9.29-6.506-5.582,0-9.261,2.585-9.247,6.79-.014,3.267,2.045,5.384,6.307,6.236l3.778.753c1.9.384,2.77,1.08,2.8,2.173-.028,1.293-1.435,2.216-3.551,2.216-2.159,0-3.594-.923-3.963-2.7l-5.952.313c.568,4.176,4.119,6.747,9.9,6.747,5.653,0,9.7-2.884,9.716-7.187-.014-3.153-2.074-5.043-6.307-5.909l-3.949-.8c-2.031-.44-2.784-1.136-2.77-2.187-.014-1.307,1.463-2.159,3.338-2.159a3.409,3.409,0,0,1,3.651,2.557ZM94.545.426c6.619,0,10.739-4.531,10.739-11.25,0-6.761-4.119-11.278-10.739-11.278S83.807-17.585,83.807-10.824C83.807-4.105,87.926.426,94.545.426Zm.028-4.687c-3.054,0-4.616-2.8-4.616-6.605s1.563-6.619,4.616-6.619c3,0,4.56,2.812,4.56,6.619S97.571-4.261,94.574-4.261Zm20.71-8.352c.014-2.812,1.69-4.46,4.134-4.46s3.892,1.591,3.878,4.261V0h6.051V-13.892c0-5.085-2.983-8.21-7.528-8.21-3.239,0-5.582,1.591-6.562,4.134H115v-3.849h-5.767V0h6.051Zm39.858-16.477V-8.807c-.014,2.8-1.264,4.276-3.537,4.276a3.375,3.375,0,0,1-3.58-3.651H141.9c-.028,5.81,4.119,8.58,9.389,8.58,5.895,0,9.915-3.565,9.929-9.2V-29.091ZM176.037.426c6.619,0,10.739-4.531,10.739-11.25,0-6.761-4.119-11.278-10.739-11.278S165.3-17.585,165.3-10.824C165.3-4.105,169.418.426,176.037.426Zm.028-4.687c-3.054,0-4.616-2.8-4.616-6.605s1.563-6.619,4.616-6.619c3,0,4.56,2.812,4.56,6.619S179.062-4.261,176.065-4.261Zm20.71-8.352c.014-2.812,1.733-4.46,4.2-4.46s3.906,1.577,3.892,4.261V0h6.051V-13.892c.014-5.114-3-8.21-7.543-8.21-3.31,0-5.526,1.562-6.52,4.134h-.256V-29.091h-5.881V0h6.051Zm24.972,0c.014-2.812,1.69-4.46,4.134-4.46s3.892,1.591,3.878,4.261V0h6.051V-13.892c0-5.085-2.983-8.21-7.528-8.21-3.239,0-5.582,1.591-6.562,4.134h-.256v-3.849H215.7V0h6.051ZM258.722-15.6c-.54-4.02-3.778-6.506-9.29-6.506-5.582,0-9.261,2.585-9.247,6.79-.014,3.267,2.045,5.384,6.307,6.236l3.778.753c1.9.384,2.77,1.08,2.8,2.173-.028,1.293-1.435,2.216-3.551,2.216-2.159,0-3.594-.923-3.963-2.7l-5.952.313c.568,4.176,4.119,6.747,9.9,6.747,5.653,0,9.7-2.884,9.716-7.187-.014-3.153-2.074-5.043-6.307-5.909l-3.949-.8c-2.031-.44-2.784-1.136-2.77-2.187-.014-1.307,1.463-2.159,3.338-2.159a3.409,3.409,0,0,1,3.651,2.557ZM272.9.426c6.619,0,10.739-4.531,10.739-11.25,0-6.761-4.119-11.278-10.739-11.278s-10.739,4.517-10.739,11.278C262.159-4.105,266.278.426,272.9.426Zm.028-4.687c-3.054,0-4.616-2.8-4.616-6.605s1.563-6.619,4.616-6.619c3,0,4.56,2.812,4.56,6.619S275.923-4.261,272.926-4.261Zm20.71-8.352c.014-2.812,1.69-4.46,4.134-4.46s3.892,1.591,3.878,4.261V0H307.7V-13.892c0-5.085-2.983-8.21-7.528-8.21-3.239,0-5.582,1.591-6.562,4.134h-.256v-3.849h-5.767V0h6.051Z" transform="translate(538.753 603.127)" fill="#38455d"/>
  </g>
</svg>
