<svg xmlns="http://www.w3.org/2000/svg" xmlns:xlink="http://www.w3.org/1999/xlink" width="1350" height="1360" viewBox="0 0 1350 1360">
  <defs>
    <filter id="Path_96446" x="261.753" y="1090.41" width="1095.326" height="283.178" filterUnits="userSpaceOnUse">
      <feOffset dy="10" input="SourceAlpha"/>
      <feGaussianBlur stdDeviation="10" result="blur"/>
      <feFlood flood-opacity="0.129"/>
      <feComposite operator="in" in2="blur"/>
    </filter>
    <filter id="Path_96446-2" x="261.753" y="1090.41" width="1095.326" height="283.178" filterUnits="userSpaceOnUse">
      <feOffset input="SourceAlpha"/>
      <feGaussianBlur stdDeviation="2" result="blur-2"/>
      <feFlood flood-opacity="0.11" result="color"/>
      <feComposite operator="out" in="SourceGraphic" in2="blur-2"/>
      <feComposite operator="in" in="color"/>
      <feComposite operator="in" in2="SourceGraphic"/>
    </filter>
    <clipPath id="clip-path">
      <rect id="Rectangle_8417" data-name="Rectangle 8417" width="38.606" height="28.559" fill="#dce1e8"/>
    </clipPath>
    <clipPath id="clip-path-2">
      <rect id="Rectangle_8418" data-name="Rectangle 8418" width="30.243" height="32.451" fill="#dce1e8"/>
    </clipPath>
    <clipPath id="clip-homepage_header-art_4-card-christopher">
      <rect width="1350" height="1360"/>
    </clipPath>
  </defs>
  <g id="homepage_header-art_4-card-christopher" clip-path="url(#clip-homepage_header-art_4-card-christopher)">
    <g data-type="innerShadowGroup">
      <g transform="matrix(1, 0, 0, 1, 0, 0)" filter="url(#Path_96446)">
        <g id="Path_96446-3" data-name="Path 96446" transform="translate(292.25 1110.91)" fill="#fff" opacity="0.95">
          <path d="M 1019.326293945312 222.4275512695312 L 15.00002193450928 222.4275512695312 C 10.9266471862793 222.4275512695312 7.09702205657959 220.84130859375 4.216647148132324 217.9609375 C 1.336272001266479 215.0806884765625 -0.2499780207872391 211.2510528564453 -0.2499780207872391 207.1775512695312 L -0.2499780207872391 15.00005626678467 C -0.2499780207872391 10.92655658721924 1.336272001266479 7.096930980682373 4.216647148132324 4.216681003570557 C 7.09702205657959 1.336306095123291 10.9266471862793 -0.2499438524246216 15.00002193450928 -0.2499438524246216 L 1019.326293945312 -0.2499438524246216 C 1023.399780273438 -0.2499438524246216 1027.229370117188 1.336306095123291 1030.109619140625 4.216681003570557 C 1032.989990234375 7.096930980682373 1034.576293945312 10.92655658721924 1034.576293945312 15.00005626678467 L 1034.576293945312 207.1775512695312 C 1034.576293945312 211.2510528564453 1032.989990234375 215.0806884765625 1030.109619140625 217.9609375 C 1027.229370117188 220.84130859375 1023.399780273438 222.4275512695312 1019.326293945312 222.4275512695312 Z" stroke="none"/>
          <path d="M 14.99993896484375 0 C 6.7156982421875 0 0 6.715744018554688 0 15 L 0 207.1776123046875 C 0 215.4618682861328 6.7156982421875 222.1776123046875 14.99993896484375 222.1776123046875 L 1019.326232910156 222.1776123046875 C 1027.610595703125 222.1776123046875 1034.326171875 215.4618682861328 1034.326171875 207.1776123046875 L 1034.326171875 15 C 1034.326171875 6.715744018554688 1027.610595703125 0 1019.326232910156 0 L 14.99993896484375 0 M 14.99993896484375 -0.5 L 1019.326232910156 -0.5 C 1023.466491699219 -0.5 1027.35888671875 1.112274169921875 1030.286499023438 4.039871215820312 C 1033.213989257812 6.96734619140625 1034.826171875 10.8597412109375 1034.826171875 15 L 1034.826171875 207.1776123046875 C 1034.826171875 211.31787109375 1033.213989257812 215.2102661132812 1030.286499023438 218.1377410888672 C 1027.35888671875 221.0653381347656 1023.466491699219 222.6776123046875 1019.326232910156 222.6776123046875 L 14.99993896484375 222.6776123046875 C 10.85980224609375 222.6776123046875 6.9674072265625 221.0653381347656 4.039794921875 218.1377410888672 C 1.1121826171875 215.2101440429688 -0.5 211.3177337646484 -0.5 207.1776123046875 L -0.5 15 C -0.5 10.85987854003906 1.1121826171875 6.96746826171875 4.039794921875 4.039871215820312 C 6.9674072265625 1.112274169921875 10.85980224609375 -0.5 14.99993896484375 -0.5 Z" stroke="none" fill="#e2e2e2"/>
        </g>
      </g>
      <g id="Path_96446-4" data-name="Path 96446" transform="translate(292.253 1110.91)" fill="#fff" opacity="0.95">
        <path d="M 1019.326293945312 222.4275512695312 L 15.00002193450928 222.4275512695312 C 10.9266471862793 222.4275512695312 7.09702205657959 220.84130859375 4.216647148132324 217.9609375 C 1.336272001266479 215.0806884765625 -0.2499780207872391 211.2510528564453 -0.2499780207872391 207.1775512695312 L -0.2499780207872391 15.00005626678467 C -0.2499780207872391 10.92655658721924 1.336272001266479 7.096930980682373 4.216647148132324 4.216681003570557 C 7.09702205657959 1.336306095123291 10.9266471862793 -0.2499438524246216 15.00002193450928 -0.2499438524246216 L 1019.326293945312 -0.2499438524246216 C 1023.399780273438 -0.2499438524246216 1027.229370117188 1.336306095123291 1030.109619140625 4.216681003570557 C 1032.989990234375 7.096930980682373 1034.576293945312 10.92655658721924 1034.576293945312 15.00005626678467 L 1034.576293945312 207.1775512695312 C 1034.576293945312 211.2510528564453 1032.989990234375 215.0806884765625 1030.109619140625 217.9609375 C 1027.229370117188 220.84130859375 1023.399780273438 222.4275512695312 1019.326293945312 222.4275512695312 Z" stroke="none"/>
        <path d="M 14.99993896484375 0 C 6.7156982421875 0 0 6.715744018554688 0 15 L 0 207.1776123046875 C 0 215.4618682861328 6.7156982421875 222.1776123046875 14.99993896484375 222.1776123046875 L 1019.326232910156 222.1776123046875 C 1027.610595703125 222.1776123046875 1034.326171875 215.4618682861328 1034.326171875 207.1776123046875 L 1034.326171875 15 C 1034.326171875 6.715744018554688 1027.610595703125 0 1019.326232910156 0 L 14.99993896484375 0 M 14.99993896484375 -0.5 L 1019.326232910156 -0.5 C 1023.466491699219 -0.5 1027.35888671875 1.112274169921875 1030.286499023438 4.039871215820312 C 1033.213989257812 6.96734619140625 1034.826171875 10.8597412109375 1034.826171875 15 L 1034.826171875 207.1776123046875 C 1034.826171875 211.31787109375 1033.213989257812 215.2102661132812 1030.286499023438 218.1377410888672 C 1027.35888671875 221.0653381347656 1023.466491699219 222.6776123046875 1019.326232910156 222.6776123046875 L 14.99993896484375 222.6776123046875 C 10.85980224609375 222.6776123046875 6.9674072265625 221.0653381347656 4.039794921875 218.1377410888672 C 1.1121826171875 215.2101440429688 -0.5 211.3177337646484 -0.5 207.1776123046875 L -0.5 15 C -0.5 10.85987854003906 1.1121826171875 6.96746826171875 4.039794921875 4.039871215820312 C 6.9674072265625 1.112274169921875 10.85980224609375 -0.5 14.99993896484375 -0.5 Z" stroke="none"/>
      </g>
      <g transform="matrix(1, 0, 0, 1, 0, 0)" filter="url(#Path_96446-2)">
        <g id="Path_96446-5" data-name="Path 96446" transform="translate(292.25 1110.91)" fill="#fff" opacity="0.95">
          <path d="M 1019.326293945312 222.4275512695312 L 15.00002193450928 222.4275512695312 C 10.9266471862793 222.4275512695312 7.09702205657959 220.84130859375 4.216647148132324 217.9609375 C 1.336272001266479 215.0806884765625 -0.2499780207872391 211.2510528564453 -0.2499780207872391 207.1775512695312 L -0.2499780207872391 15.00005626678467 C -0.2499780207872391 10.92655658721924 1.336272001266479 7.096930980682373 4.216647148132324 4.216681003570557 C 7.09702205657959 1.336306095123291 10.9266471862793 -0.2499438524246216 15.00002193450928 -0.2499438524246216 L 1019.326293945312 -0.2499438524246216 C 1023.399780273438 -0.2499438524246216 1027.229370117188 1.336306095123291 1030.109619140625 4.216681003570557 C 1032.989990234375 7.096930980682373 1034.576293945312 10.92655658721924 1034.576293945312 15.00005626678467 L 1034.576293945312 207.1775512695312 C 1034.576293945312 211.2510528564453 1032.989990234375 215.0806884765625 1030.109619140625 217.9609375 C 1027.229370117188 220.84130859375 1023.399780273438 222.4275512695312 1019.326293945312 222.4275512695312 Z" stroke="none"/>
          <path d="M 14.99993896484375 0 C 6.7156982421875 0 0 6.715744018554688 0 15 L 0 207.1776123046875 C 0 215.4618682861328 6.7156982421875 222.1776123046875 14.99993896484375 222.1776123046875 L 1019.326232910156 222.1776123046875 C 1027.610595703125 222.1776123046875 1034.326171875 215.4618682861328 1034.326171875 207.1776123046875 L 1034.326171875 15 C 1034.326171875 6.715744018554688 1027.610595703125 0 1019.326232910156 0 L 14.99993896484375 0 M 14.99993896484375 -0.5 L 1019.326232910156 -0.5 C 1023.466491699219 -0.5 1027.35888671875 1.112274169921875 1030.286499023438 4.039871215820312 C 1033.213989257812 6.96734619140625 1034.826171875 10.8597412109375 1034.826171875 15 L 1034.826171875 207.1776123046875 C 1034.826171875 211.31787109375 1033.213989257812 215.2102661132812 1030.286499023438 218.1377410888672 C 1027.35888671875 221.0653381347656 1023.466491699219 222.6776123046875 1019.326232910156 222.6776123046875 L 14.99993896484375 222.6776123046875 C 10.85980224609375 222.6776123046875 6.9674072265625 221.0653381347656 4.039794921875 218.1377410888672 C 1.1121826171875 215.2101440429688 -0.5 211.3177337646484 -0.5 207.1776123046875 L -0.5 15 C -0.5 10.85987854003906 1.1121826171875 6.96746826171875 4.039794921875 4.039871215820312 C 6.9674072265625 1.112274169921875 10.85980224609375 -0.5 14.99993896484375 -0.5 Z" stroke="none"/>
        </g>
      </g>
      <g id="Path_96446-6" data-name="Path 96446" transform="translate(292.253 1110.91)" fill="none" opacity="0.95">
        <path d="M 1019.326293945312 222.4275512695312 L 15.00002193450928 222.4275512695312 C 10.9266471862793 222.4275512695312 7.09702205657959 220.84130859375 4.216647148132324 217.9609375 C 1.336272001266479 215.0806884765625 -0.2499780207872391 211.2510528564453 -0.2499780207872391 207.1775512695312 L -0.2499780207872391 15.00005626678467 C -0.2499780207872391 10.92655658721924 1.336272001266479 7.096930980682373 4.216647148132324 4.216681003570557 C 7.09702205657959 1.336306095123291 10.9266471862793 -0.2499438524246216 15.00002193450928 -0.2499438524246216 L 1019.326293945312 -0.2499438524246216 C 1023.399780273438 -0.2499438524246216 1027.229370117188 1.336306095123291 1030.109619140625 4.216681003570557 C 1032.989990234375 7.096930980682373 1034.576293945312 10.92655658721924 1034.576293945312 15.00005626678467 L 1034.576293945312 207.1775512695312 C 1034.576293945312 211.2510528564453 1032.989990234375 215.0806884765625 1030.109619140625 217.9609375 C 1027.229370117188 220.84130859375 1023.399780273438 222.4275512695312 1019.326293945312 222.4275512695312 Z" stroke="none"/>
        <path d="M 14.99993896484375 0 C 6.7156982421875 0 0 6.715744018554688 0 15 L 0 207.1776123046875 C 0 215.4618682861328 6.7156982421875 222.1776123046875 14.99993896484375 222.1776123046875 L 1019.326232910156 222.1776123046875 C 1027.610595703125 222.1776123046875 1034.326171875 215.4618682861328 1034.326171875 207.1776123046875 L 1034.326171875 15 C 1034.326171875 6.715744018554688 1027.610595703125 0 1019.326232910156 0 L 14.99993896484375 0 M 14.99993896484375 -0.5 L 1019.326232910156 -0.5 C 1023.466491699219 -0.5 1027.35888671875 1.112274169921875 1030.286499023438 4.039871215820312 C 1033.213989257812 6.96734619140625 1034.826171875 10.8597412109375 1034.826171875 15 L 1034.826171875 207.1776123046875 C 1034.826171875 211.31787109375 1033.213989257812 215.2102661132812 1030.286499023438 218.1377410888672 C 1027.35888671875 221.0653381347656 1023.466491699219 222.6776123046875 1019.326232910156 222.6776123046875 L 14.99993896484375 222.6776123046875 C 10.85980224609375 222.6776123046875 6.9674072265625 221.0653381347656 4.039794921875 218.1377410888672 C 1.1121826171875 215.2101440429688 -0.5 211.3177337646484 -0.5 207.1776123046875 L -0.5 15 C -0.5 10.85987854003906 1.1121826171875 6.96746826171875 4.039794921875 4.039871215820312 C 6.9674072265625 1.112274169921875 10.85980224609375 -0.5 14.99993896484375 -0.5 Z" stroke="none" fill="#e2e2e2"/>
      </g>
    </g>
    <path id="Path_96448" data-name="Path 96448" d="M3.419-21.091H.741L8.486,0h2.636l7.744-21.091H16.189L9.928-3.337H9.68ZM22.162,0h2.554V-7.7H29.33c4.912,0,7.126-2.987,7.126-6.714s-2.214-6.673-7.168-6.673H22.162Zm2.554-9.969v-8.857h4.49c3.429,0,4.737,1.874,4.737,4.408s-1.308,4.449-4.7,4.449ZM54.828.33C59.112.33,62-2.925,62-7.827c0-4.943-2.884-8.2-7.168-8.2s-7.168,3.254-7.168,8.2C47.661-2.925,50.544.33,54.828.33Zm0-2.183c-3.254,0-4.737-2.8-4.737-5.973s1.483-6.014,4.737-6.014S59.565-11,59.565-7.827,58.082-1.854,54.828-1.854ZM72.747-15.818H69.2v-1.607c0-1.565.659-2.389,2.266-2.389a3.744,3.744,0,0,1,1.359.247l.7-2.1a5.653,5.653,0,0,0-2.307-.412c-2.266,0-4.449,1.359-4.449,4.078v2.183H64.22v2.06h2.554V0H69.2V-13.759h3.543Zm23.439,0h2.472c-.113-3.182-3.048-5.561-7.126-5.561-4.037,0-7.209,2.348-7.209,5.891,0,2.842,2.06,4.531,5.355,5.479l2.6.741c2.224.618,4.2,1.4,4.2,3.5,0,2.307-2.224,3.831-5.149,3.831-2.513,0-4.737-1.112-4.943-3.5H83.746c.247,3.46,3.048,5.808,7.58,5.808,4.861,0,7.621-2.678,7.621-6.1,0-3.955-3.749-5.232-5.932-5.808l-2.142-.577c-1.565-.412-4.078-1.236-4.078-3.5,0-2.018,1.854-3.5,4.655-3.5C94-19.114,95.939-17.9,96.186-15.818ZM107.473.371a4.969,4.969,0,0,0,4.7-2.513h.124V0h2.43V-10.422c0-5.026-3.831-5.6-5.849-5.6-2.389,0-5.108.824-6.344,3.707l2.307.824a4.274,4.274,0,0,1,4.119-2.389c2.235,0,3.337,1.184,3.337,3.213v.082c0,1.174-1.195,1.071-4.078,1.442-2.935.381-6.138,1.03-6.138,4.655C102.077-1.4,104.466.371,107.473.371Zm.371-2.183c-1.936,0-3.337-.865-3.337-2.554,0-1.854,1.689-2.43,3.584-2.678,1.03-.124,3.79-.412,4.2-.906v2.224C112.293-3.749,110.727-1.812,107.844-1.812ZM121.6-21.091h-2.43V0h2.43ZM132.683.33c3.213,0,5.561-1.607,6.3-4l-2.348-.659a3.872,3.872,0,0,1-3.955,2.472c-2.853,0-4.82-1.843-4.933-5.232h11.483v-1.03c0-5.891-3.5-7.909-6.8-7.909-4.284,0-7.126,3.378-7.126,8.239S128.111.33,132.683.33ZM127.75-9.186a4.723,4.723,0,0,1,4.686-4.655c2.636,0,4.325,1.977,4.325,4.655Zm26.395-3.089c-.762-2.245-2.472-3.749-5.6-3.749-3.337,0-5.808,1.895-5.808,4.572,0,2.183,1.3,3.646,4.2,4.325l2.636.618c1.6.371,2.348,1.133,2.348,2.224,0,1.359-1.442,2.472-3.707,2.472-1.988,0-3.234-.855-3.666-2.554l-2.307.577C142.806-1.1,145.021.33,148.254.33c3.676,0,6.179-2.008,6.179-4.737,0-2.2-1.38-3.594-4.2-4.284l-2.348-.577c-1.874-.463-2.719-1.092-2.719-2.307,0-1.359,1.442-2.348,3.378-2.348a3.327,3.327,0,0,1,3.419,2.266Zm7.58,9.392h-2.636l-.124,1.153c-.3,2.791-.886,5.571-1.153,6.879h1.854a43.788,43.788,0,0,0,1.895-6.92Zm30.864-10.823c-.587-4.871-4.274-7.672-9.155-7.672-5.571,0-9.825,3.934-9.825,10.834,0,6.879,4.181,10.834,9.825,10.834,5.407,0,8.671-3.594,9.155-7.477l-4.511-.021a4.307,4.307,0,0,1-4.572,3.553c-3.2,0-5.376-2.379-5.376-6.89,0-4.387,2.142-6.89,5.407-6.89a4.268,4.268,0,0,1,4.542,3.728ZM195.709,0H200.1V-15.818h-4.387Zm2.2-17.857a2.311,2.311,0,0,0,2.379-2.224,2.31,2.31,0,0,0-2.379-2.214,2.307,2.307,0,0,0-2.369,2.214A2.309,2.309,0,0,0,197.913-17.857Zm14.1,2.039h-2.976v-3.79h-4.387v3.79h-2.163v3.3h2.163v8.239c-.021,3.1,2.091,4.634,5.273,4.5A8.533,8.533,0,0,0,212.3-.2l-.69-3.265a5.994,5.994,0,0,1-1.092.144c-.875,0-1.483-.33-1.483-1.545v-7.662h2.976Zm5.561,21.75a5.707,5.707,0,0,0,5.891-4.222L229.611-15.8l-4.645-.021L221.661-4.2H221.5l-3.275-11.616h-4.614L219.282.453l-.257.669c-.577,1.483-1.679,1.555-3.223,1.081l-.989,3.275A7.573,7.573,0,0,0,217.572,5.932Zm39.7-19.639c-.587-4.871-4.274-7.672-9.155-7.672-5.571,0-9.825,3.934-9.825,10.834,0,6.879,4.181,10.834,9.825,10.834,5.407,0,8.671-3.594,9.155-7.477l-4.511-.021a4.307,4.307,0,0,1-4.572,3.553c-3.2,0-5.376-2.379-5.376-6.89,0-4.387,2.142-6.89,5.407-6.89a4.268,4.268,0,0,1,4.542,3.728ZM260.475,0h4.459V-7.477h3.254l4,7.477h4.923l-4.48-8.2a6.08,6.08,0,0,0,3.728-6c0-4.191-2.77-6.89-7.559-6.89h-8.321Zm4.459-11.06v-6.385h3.007c2.575,0,3.821,1.143,3.821,3.244s-1.246,3.141-3.8,3.141Zm14.572-10.031V0h4.325V-13.779h.175L289.464-.1h2.945l5.458-13.625h.175V0h4.325V-21.091h-5.5L291.061-6.92h-.247l-5.808-14.17Z" transform="translate(544.669 1225.54)" fill="#929baa"/>
    <path id="Path_96449" data-name="Path 96449" d="M28.2-18.906c-.81-6.719-5.895-10.582-12.628-10.582-7.685,0-13.551,5.426-13.551,14.943C2.017-5.057,7.784.4,15.568.4,23.026.4,27.528-4.56,28.2-9.915l-6.222-.028c-.582,3.111-3.026,4.9-6.307,4.9-4.418,0-7.415-3.281-7.415-9.5,0-6.051,2.955-9.5,7.457-9.5,3.366,0,5.8,1.946,6.264,5.142Zm10.355,6.293c.014-2.812,1.733-4.46,4.2-4.46s3.906,1.577,3.892,4.261V0H52.7V-13.892c.014-5.114-3-8.21-7.543-8.21-3.31,0-5.526,1.562-6.52,4.134h-.256V-29.091H32.5V0h6.051ZM57.472,0h6.051V-12.344a4.405,4.405,0,0,1,4.631-4.531,10.178,10.178,0,0,1,2.557.327v-5.369a9.082,9.082,0,0,0-1.9-.213,5.3,5.3,0,0,0-5.241,4.119h-.227v-3.807H57.472ZM73.821,0h6.051V-21.818H73.821Zm3.04-24.631A3.188,3.188,0,0,0,80.142-27.7a3.186,3.186,0,0,0-3.281-3.054A3.182,3.182,0,0,0,73.594-27.7,3.184,3.184,0,0,0,76.861-24.631ZM102.855-15.6c-.54-4.02-3.778-6.506-9.29-6.506-5.582,0-9.261,2.585-9.247,6.79-.014,3.267,2.045,5.384,6.307,6.236l3.778.753c1.9.384,2.77,1.08,2.8,2.173-.028,1.293-1.435,2.216-3.551,2.216-2.159,0-3.594-.923-3.963-2.7l-5.952.313C84.3-2.145,87.855.426,93.636.426c5.653,0,9.7-2.884,9.716-7.187-.014-3.153-2.074-5.043-6.307-5.909l-3.949-.8c-2.031-.44-2.784-1.136-2.77-2.187-.014-1.307,1.463-2.159,3.338-2.159a3.409,3.409,0,0,1,3.651,2.557Zm15.923-6.222h-4.105v-5.227h-6.051v5.227h-2.983v4.545h2.983V-5.909C108.594-1.634,111.506.483,115.895.3a11.77,11.77,0,0,0,3.281-.568l-.952-4.5a8.267,8.267,0,0,1-1.506.2c-1.207,0-2.045-.455-2.045-2.131V-17.273h4.105ZM132.344.426c6.619,0,10.739-4.531,10.739-11.25,0-6.761-4.119-11.278-10.739-11.278s-10.739,4.517-10.739,11.278C121.605-4.105,125.724.426,132.344.426Zm.028-4.687c-3.054,0-4.616-2.8-4.616-6.605s1.563-6.619,4.616-6.619c3,0,4.56,2.812,4.56,6.619S135.369-4.261,132.372-4.261ZM147.031,8.182h6.051V-3.494h.185A6.449,6.449,0,0,0,159.46.355c4.972,0,8.849-3.935,8.849-11.236,0-7.5-4.048-11.222-8.835-11.222a6.429,6.429,0,0,0-6.207,3.949H153v-3.665h-5.966Zm5.923-19.091c0-3.892,1.648-6.378,4.588-6.378,3,0,4.588,2.6,4.588,6.378,0,3.807-1.619,6.449-4.588,6.449C154.631-4.46,152.955-7.017,152.955-10.909Zm25.426-1.7c.014-2.812,1.733-4.46,4.2-4.46s3.906,1.577,3.892,4.261V0h6.051V-13.892c.014-5.114-3-8.21-7.543-8.21-3.31,0-5.526,1.562-6.52,4.134h-.256V-29.091H172.33V0h6.051ZM207.244.426c5.4,0,9.034-2.628,9.886-6.676l-5.6-.369a4.109,4.109,0,0,1-4.19,2.528c-3.026,0-4.943-2-4.943-5.256v-.014h14.858v-1.662c0-7.415-4.489-11.08-10.256-11.08-6.42,0-10.582,4.56-10.582,11.293C196.42-3.892,200.526.426,207.244.426ZM202.4-13.111a4.608,4.608,0,0,1,4.7-4.474,4.3,4.3,0,0,1,4.46,4.474ZM221.207,0h6.051V-12.344a4.405,4.405,0,0,1,4.631-4.531,10.178,10.178,0,0,1,2.557.327v-5.369a9.082,9.082,0,0,0-1.9-.213,5.3,5.3,0,0,0-5.241,4.119h-.227v-3.807h-5.866Zm25.739-29.091V0h5.966V-19.006h.241L260.682-.142h4.063l7.528-18.793h.241V0h5.966V-29.091h-7.585L262.884-9.545h-.341l-8.011-19.545ZM283.423,0h6.051V-21.818h-6.051Zm3.04-24.631a3.188,3.188,0,0,0,3.281-3.068,3.186,3.186,0,0,0-3.281-3.054A3.182,3.182,0,0,0,283.2-27.7,3.184,3.184,0,0,0,286.463-24.631Zm13.892-4.46H294.3V0h6.051Zm10.881,0h-6.051V0h6.051ZM326.009.426c5.4,0,9.034-2.628,9.886-6.676l-5.6-.369a4.109,4.109,0,0,1-4.19,2.528c-3.026,0-4.943-2-4.943-5.256v-.014h14.858v-1.662c0-7.415-4.489-11.08-10.256-11.08-6.42,0-10.582,4.56-10.582,11.293C315.185-3.892,319.29.426,326.009.426Zm-4.844-13.537a4.608,4.608,0,0,1,4.7-4.474,4.3,4.3,0,0,1,4.46,4.474ZM339.972,0h6.051V-12.344a4.405,4.405,0,0,1,4.631-4.531,10.178,10.178,0,0,1,2.557.327v-5.369a9.082,9.082,0,0,0-1.9-.213,5.3,5.3,0,0,0-5.241,4.119h-.227v-3.807h-5.866Z" transform="translate(544.669 1180.528)" fill="#929baa"/>
    <g id="Group_21678" data-name="Group 21678" transform="translate(851.178 1265.129)">
      <g id="Group_21672" data-name="Group 21672" clip-path="url(#clip-path)">
        <path id="Path_28534" data-name="Path 28534" d="M0,193.248v-.719l2.212-1.581,14.17-10.168,1.99,1.549a1.516,1.516,0,0,0,1.863,0l1.989-1.548,11.747,8.484,4.586,3.056v.926Z" transform="translate(0 -164.689)" fill="#dce1e8"/>
        <path id="Path_28535" data-name="Path 28535" d="M0,37.515l14.85,11.56L0,59.731Z" transform="translate(0 -34.176)" fill="#dce1e8"/>
        <path id="Path_28536" data-name="Path 28536" d="M266.848,49.078,281.7,37.516v22.29Z" transform="translate(-243.095 -34.176)" fill="#dce1e8"/>
        <path id="Path_28537" data-name="Path 28537" d="M1.194,1.91,0,.942V0H38.606V1.02l-1.19.887L19.3,16.007Z" transform="translate(0 -0.001)" fill="#dce1e8"/>
      </g>
    </g>
    <g id="Group_21679" data-name="Group 21679" transform="translate(546.139 1262.708)">
      <g id="Group_21674" data-name="Group 21674" clip-path="url(#clip-path-2)">
        <path id="Path_28538" data-name="Path 28538" d="M29.764,24.493a.2.2,0,0,0-.025-.041,3.3,3.3,0,0,0-.82-.547,3.994,3.994,0,0,0-.361-.183l-.029-.014h0c-.085-.038-.174-.075-.268-.111-.966-.386-2.861-1.109-4.245-1.637-.775-.3-1.392-.531-1.556-.6a1.637,1.637,0,0,0-1.634-.01c-.085.046-.165.087-.244.127a5.392,5.392,0,0,0-.685.4,1.65,1.65,0,0,0-.366.316,10.253,10.253,0,0,0-1.342,1.244l-.032.03c-.321.3-.527.489-.908.4-6.01-3.225-9.313-10.643-9.313-10.643-.041-.389.176-.568.514-.847l.034-.028a10.247,10.247,0,0,0,1.411-1.165,1.648,1.648,0,0,0,.362-.321,5.39,5.39,0,0,0,.485-.626c.05-.073.1-.147.158-.225a1.637,1.637,0,0,0,.207-1.621c-.043-.172-.195-.815-.385-1.622-.34-1.441-.8-3.415-1.059-4.425a3.926,3.926,0,0,0-.339-.952C8.676-.826,5.371.27,5.371.27a2.894,2.894,0,0,0-.555.168h0A7.275,7.275,0,0,0,.706,4.89v0A9.972,9.972,0,0,0,.1,7.091,8.747,8.747,0,0,0,.116,9.827,16.641,16.641,0,0,0,1.964,15.55l.061.12c.015.031.039.084.072.157a5.6,5.6,0,0,0,.489.775c1.475,2.4,5.472,8.385,10.9,12.385h0a3.6,3.6,0,0,0,.408.32l.146.092.111.077a16.637,16.637,0,0,0,5.427,2.591,8.749,8.749,0,0,0,2.71.38,9.955,9.955,0,0,0,2.283-.316A7.316,7.316,0,0,0,29.5,28.669a2.94,2.94,0,0,0,.152-.294h0s1.252-2.615.113-3.881" transform="translate(0 0.001)" fill="#dce1e8"/>
      </g>
    </g>
    <path id="Path_96450" data-name="Path 96450" d="M16.96,0H191.407a16.96,16.96,0,1,1,0,33.92H16.96A16.96,16.96,0,0,1,16.96,0Z" transform="translate(587.063 1261.688)" fill="#dce1e8"/>
    <path id="Path_96451" data-name="Path 96451" d="M16.96,0H285.9a16.96,16.96,0,1,1,0,33.92H16.96A16.96,16.96,0,0,1,16.96,0Z" transform="translate(900.466 1261.688)" fill="#dce1e8"/>
    <path id="Path_96447" data-name="Path 96447" d="M5,0H183.644a5,5,0,0,1,5,5V180.7a5,5,0,0,1-5,5H5a5,5,0,0,1-5-5V5A5,5,0,0,1,5,0Z" transform="translate(311.185 1127.309)" fill="#a79bff"/>
  </g>
</svg>
