<svg xmlns="http://www.w3.org/2000/svg" xmlns:xlink="http://www.w3.org/1999/xlink" width="1350" height="1360" viewBox="0 0 1350 1360">
  <defs>
    <filter id="Path_96429" x="261.753" y="218.179" width="1095.326" height="283.178" filterUnits="userSpaceOnUse">
      <feOffset dy="10" input="SourceAlpha"/>
      <feGaussianBlur stdDeviation="10" result="blur"/>
      <feFlood flood-opacity="0.129"/>
      <feComposite operator="in" in2="blur"/>
    </filter>
    <filter id="Path_96429-2" x="261.753" y="218.179" width="1095.326" height="283.178" filterUnits="userSpaceOnUse">
      <feOffset input="SourceAlpha"/>
      <feGaussianBlur stdDeviation="2" result="blur-2"/>
      <feFlood flood-opacity="0.11" result="color"/>
      <feComposite operator="out" in="SourceGraphic" in2="blur-2"/>
      <feComposite operator="in" in="color"/>
      <feComposite operator="in" in2="SourceGraphic"/>
    </filter>
    <clipPath id="clip-path">
      <rect id="Rectangle_8417" data-name="Rectangle 8417" width="38.606" height="28.559" fill="#dce1e8"/>
    </clipPath>
    <clipPath id="clip-path-2">
      <rect id="Rectangle_8418" data-name="Rectangle 8418" width="30.243" height="32.451" fill="#dce1e8"/>
    </clipPath>
    <clipPath id="clip-homepage_header-art_1-card-jessica">
      <rect width="1350" height="1360"/>
    </clipPath>
  </defs>
  <g id="homepage_header-art_1-card-jessica" clip-path="url(#clip-homepage_header-art_1-card-jessica)">
    <g data-type="innerShadowGroup">
      <g transform="matrix(1, 0, 0, 1, 0, 0)" filter="url(#Path_96429)">
        <g id="Path_96429-3" data-name="Path 96429" transform="translate(292.25 238.68)" fill="#fff" opacity="0.95">
          <path d="M 1019.326293945312 222.4275512695312 L 15.00002193450928 222.4275512695312 C 10.9266471862793 222.4275512695312 7.09702205657959 220.84130859375 4.216647148132324 217.9609375 C 1.336272001266479 215.0806884765625 -0.2499780207872391 211.2510528564453 -0.2499780207872391 207.1775512695312 L -0.2499780207872391 15.00005626678467 C -0.2499780207872391 10.92655658721924 1.336272001266479 7.096930980682373 4.216647148132324 4.216681003570557 C 7.09702205657959 1.336306095123291 10.9266471862793 -0.2499438524246216 15.00002193450928 -0.2499438524246216 L 1019.326293945312 -0.2499438524246216 C 1023.399780273438 -0.2499438524246216 1027.229370117188 1.336306095123291 1030.109619140625 4.216681003570557 C 1032.989990234375 7.096930980682373 1034.576293945312 10.92655658721924 1034.576293945312 15.00005626678467 L 1034.576293945312 207.1775512695312 C 1034.576293945312 211.2510528564453 1032.989990234375 215.0806884765625 1030.109619140625 217.9609375 C 1027.229370117188 220.84130859375 1023.399780273438 222.4275512695312 1019.326293945312 222.4275512695312 Z" stroke="none"/>
          <path d="M 14.99993896484375 0 C 6.7156982421875 0 0 6.715744018554688 0 15 L 0 207.1776123046875 C 0 215.4618682861328 6.7156982421875 222.1776123046875 14.99993896484375 222.1776123046875 L 1019.326232910156 222.1776123046875 C 1027.610595703125 222.1776123046875 1034.326171875 215.4618682861328 1034.326171875 207.1776123046875 L 1034.326171875 15 C 1034.326171875 6.715744018554688 1027.610595703125 0 1019.326232910156 0 L 14.99993896484375 0 M 14.99993896484375 -0.5 L 1019.326232910156 -0.5 C 1023.466491699219 -0.5 1027.35888671875 1.112274169921875 1030.286499023438 4.039871215820312 C 1033.213989257812 6.96734619140625 1034.826171875 10.8597412109375 1034.826171875 15 L 1034.826171875 207.1776123046875 C 1034.826171875 211.31787109375 1033.213989257812 215.2102661132812 1030.286499023438 218.1377410888672 C 1027.35888671875 221.0653381347656 1023.466491699219 222.6776123046875 1019.326232910156 222.6776123046875 L 14.99993896484375 222.6776123046875 C 10.85980224609375 222.6776123046875 6.9674072265625 221.0653381347656 4.039794921875 218.1377410888672 C 1.1121826171875 215.2101440429688 -0.5 211.3177337646484 -0.5 207.1776123046875 L -0.5 15 C -0.5 10.85987854003906 1.1121826171875 6.96746826171875 4.039794921875 4.039871215820312 C 6.9674072265625 1.112274169921875 10.85980224609375 -0.5 14.99993896484375 -0.5 Z" stroke="none" fill="#e2e2e2"/>
        </g>
      </g>
      <g id="Path_96429-4" data-name="Path 96429" transform="translate(292.253 238.679)" fill="#fff" opacity="0.95">
        <path d="M 1019.326293945312 222.4275512695312 L 15.00002193450928 222.4275512695312 C 10.9266471862793 222.4275512695312 7.09702205657959 220.84130859375 4.216647148132324 217.9609375 C 1.336272001266479 215.0806884765625 -0.2499780207872391 211.2510528564453 -0.2499780207872391 207.1775512695312 L -0.2499780207872391 15.00005626678467 C -0.2499780207872391 10.92655658721924 1.336272001266479 7.096930980682373 4.216647148132324 4.216681003570557 C 7.09702205657959 1.336306095123291 10.9266471862793 -0.2499438524246216 15.00002193450928 -0.2499438524246216 L 1019.326293945312 -0.2499438524246216 C 1023.399780273438 -0.2499438524246216 1027.229370117188 1.336306095123291 1030.109619140625 4.216681003570557 C 1032.989990234375 7.096930980682373 1034.576293945312 10.92655658721924 1034.576293945312 15.00005626678467 L 1034.576293945312 207.1775512695312 C 1034.576293945312 211.2510528564453 1032.989990234375 215.0806884765625 1030.109619140625 217.9609375 C 1027.229370117188 220.84130859375 1023.399780273438 222.4275512695312 1019.326293945312 222.4275512695312 Z" stroke="none"/>
        <path d="M 14.99993896484375 0 C 6.7156982421875 0 0 6.715744018554688 0 15 L 0 207.1776123046875 C 0 215.4618682861328 6.7156982421875 222.1776123046875 14.99993896484375 222.1776123046875 L 1019.326232910156 222.1776123046875 C 1027.610595703125 222.1776123046875 1034.326171875 215.4618682861328 1034.326171875 207.1776123046875 L 1034.326171875 15 C 1034.326171875 6.715744018554688 1027.610595703125 0 1019.326232910156 0 L 14.99993896484375 0 M 14.99993896484375 -0.5 L 1019.326232910156 -0.5 C 1023.466491699219 -0.5 1027.35888671875 1.112274169921875 1030.286499023438 4.039871215820312 C 1033.213989257812 6.96734619140625 1034.826171875 10.8597412109375 1034.826171875 15 L 1034.826171875 207.1776123046875 C 1034.826171875 211.31787109375 1033.213989257812 215.2102661132812 1030.286499023438 218.1377410888672 C 1027.35888671875 221.0653381347656 1023.466491699219 222.6776123046875 1019.326232910156 222.6776123046875 L 14.99993896484375 222.6776123046875 C 10.85980224609375 222.6776123046875 6.9674072265625 221.0653381347656 4.039794921875 218.1377410888672 C 1.1121826171875 215.2101440429688 -0.5 211.3177337646484 -0.5 207.1776123046875 L -0.5 15 C -0.5 10.85987854003906 1.1121826171875 6.96746826171875 4.039794921875 4.039871215820312 C 6.9674072265625 1.112274169921875 10.85980224609375 -0.5 14.99993896484375 -0.5 Z" stroke="none"/>
      </g>
      <g transform="matrix(1, 0, 0, 1, 0, 0)" filter="url(#Path_96429-2)">
        <g id="Path_96429-5" data-name="Path 96429" transform="translate(292.25 238.68)" fill="#fff" opacity="0.95">
          <path d="M 1019.326293945312 222.4275512695312 L 15.00002193450928 222.4275512695312 C 10.9266471862793 222.4275512695312 7.09702205657959 220.84130859375 4.216647148132324 217.9609375 C 1.336272001266479 215.0806884765625 -0.2499780207872391 211.2510528564453 -0.2499780207872391 207.1775512695312 L -0.2499780207872391 15.00005626678467 C -0.2499780207872391 10.92655658721924 1.336272001266479 7.096930980682373 4.216647148132324 4.216681003570557 C 7.09702205657959 1.336306095123291 10.9266471862793 -0.2499438524246216 15.00002193450928 -0.2499438524246216 L 1019.326293945312 -0.2499438524246216 C 1023.399780273438 -0.2499438524246216 1027.229370117188 1.336306095123291 1030.109619140625 4.216681003570557 C 1032.989990234375 7.096930980682373 1034.576293945312 10.92655658721924 1034.576293945312 15.00005626678467 L 1034.576293945312 207.1775512695312 C 1034.576293945312 211.2510528564453 1032.989990234375 215.0806884765625 1030.109619140625 217.9609375 C 1027.229370117188 220.84130859375 1023.399780273438 222.4275512695312 1019.326293945312 222.4275512695312 Z" stroke="none"/>
          <path d="M 14.99993896484375 0 C 6.7156982421875 0 0 6.715744018554688 0 15 L 0 207.1776123046875 C 0 215.4618682861328 6.7156982421875 222.1776123046875 14.99993896484375 222.1776123046875 L 1019.326232910156 222.1776123046875 C 1027.610595703125 222.1776123046875 1034.326171875 215.4618682861328 1034.326171875 207.1776123046875 L 1034.326171875 15 C 1034.326171875 6.715744018554688 1027.610595703125 0 1019.326232910156 0 L 14.99993896484375 0 M 14.99993896484375 -0.5 L 1019.326232910156 -0.5 C 1023.466491699219 -0.5 1027.35888671875 1.112274169921875 1030.286499023438 4.039871215820312 C 1033.213989257812 6.96734619140625 1034.826171875 10.8597412109375 1034.826171875 15 L 1034.826171875 207.1776123046875 C 1034.826171875 211.31787109375 1033.213989257812 215.2102661132812 1030.286499023438 218.1377410888672 C 1027.35888671875 221.0653381347656 1023.466491699219 222.6776123046875 1019.326232910156 222.6776123046875 L 14.99993896484375 222.6776123046875 C 10.85980224609375 222.6776123046875 6.9674072265625 221.0653381347656 4.039794921875 218.1377410888672 C 1.1121826171875 215.2101440429688 -0.5 211.3177337646484 -0.5 207.1776123046875 L -0.5 15 C -0.5 10.85987854003906 1.1121826171875 6.96746826171875 4.039794921875 4.039871215820312 C 6.9674072265625 1.112274169921875 10.85980224609375 -0.5 14.99993896484375 -0.5 Z" stroke="none"/>
        </g>
      </g>
      <g id="Path_96429-6" data-name="Path 96429" transform="translate(292.253 238.679)" fill="none" opacity="0.95">
        <path d="M 1019.326293945312 222.4275512695312 L 15.00002193450928 222.4275512695312 C 10.9266471862793 222.4275512695312 7.09702205657959 220.84130859375 4.216647148132324 217.9609375 C 1.336272001266479 215.0806884765625 -0.2499780207872391 211.2510528564453 -0.2499780207872391 207.1775512695312 L -0.2499780207872391 15.00005626678467 C -0.2499780207872391 10.92655658721924 1.336272001266479 7.096930980682373 4.216647148132324 4.216681003570557 C 7.09702205657959 1.336306095123291 10.9266471862793 -0.2499438524246216 15.00002193450928 -0.2499438524246216 L 1019.326293945312 -0.2499438524246216 C 1023.399780273438 -0.2499438524246216 1027.229370117188 1.336306095123291 1030.109619140625 4.216681003570557 C 1032.989990234375 7.096930980682373 1034.576293945312 10.92655658721924 1034.576293945312 15.00005626678467 L 1034.576293945312 207.1775512695312 C 1034.576293945312 211.2510528564453 1032.989990234375 215.0806884765625 1030.109619140625 217.9609375 C 1027.229370117188 220.84130859375 1023.399780273438 222.4275512695312 1019.326293945312 222.4275512695312 Z" stroke="none"/>
        <path d="M 14.99993896484375 0 C 6.7156982421875 0 0 6.715744018554688 0 15 L 0 207.1776123046875 C 0 215.4618682861328 6.7156982421875 222.1776123046875 14.99993896484375 222.1776123046875 L 1019.326232910156 222.1776123046875 C 1027.610595703125 222.1776123046875 1034.326171875 215.4618682861328 1034.326171875 207.1776123046875 L 1034.326171875 15 C 1034.326171875 6.715744018554688 1027.610595703125 0 1019.326232910156 0 L 14.99993896484375 0 M 14.99993896484375 -0.5 L 1019.326232910156 -0.5 C 1023.466491699219 -0.5 1027.35888671875 1.112274169921875 1030.286499023438 4.039871215820312 C 1033.213989257812 6.96734619140625 1034.826171875 10.8597412109375 1034.826171875 15 L 1034.826171875 207.1776123046875 C 1034.826171875 211.31787109375 1033.213989257812 215.2102661132812 1030.286499023438 218.1377410888672 C 1027.35888671875 221.0653381347656 1023.466491699219 222.6776123046875 1019.326232910156 222.6776123046875 L 14.99993896484375 222.6776123046875 C 10.85980224609375 222.6776123046875 6.9674072265625 221.0653381347656 4.039794921875 218.1377410888672 C 1.1121826171875 215.2101440429688 -0.5 211.3177337646484 -0.5 207.1776123046875 L -0.5 15 C -0.5 10.85987854003906 1.1121826171875 6.96746826171875 4.039794921875 4.039871215820312 C 6.9674072265625 1.112274169921875 10.85980224609375 -0.5 14.99993896484375 -0.5 Z" stroke="none" fill="#e2e2e2"/>
      </g>
    </g>
    <path id="Path_96431" data-name="Path 96431" d="M14.088-15.818H16.56c-.113-3.182-3.048-5.561-7.126-5.561-4.037,0-7.209,2.348-7.209,5.891,0,2.842,2.06,4.531,5.355,5.479l2.6.741c2.224.618,4.2,1.4,4.2,3.5,0,2.307-2.224,3.831-5.149,3.831-2.513,0-4.737-1.112-4.943-3.5H1.648C1.895-1.977,4.7.371,9.227.371c4.861,0,7.621-2.678,7.621-6.1,0-3.955-3.749-5.232-5.932-5.808l-2.142-.577c-1.565-.412-4.078-1.236-4.078-3.5,0-2.018,1.854-3.5,4.655-3.5C11.9-19.114,13.841-17.9,14.088-15.818ZM27.352.33c3.213,0,5.561-1.607,6.3-4l-2.348-.659a3.872,3.872,0,0,1-3.955,2.472c-2.853,0-4.82-1.843-4.933-5.232H33.9v-1.03c0-5.891-3.5-7.909-6.8-7.909-4.284,0-7.126,3.378-7.126,8.239S22.78.33,27.352.33ZM22.419-9.186a4.723,4.723,0,0,1,4.686-4.655c2.636,0,4.325,1.977,4.325,4.655Zm17.62-.33c0-2.76,1.71-4.325,4.037-4.325,2.255,0,3.625,1.473,3.625,3.955V0h2.43V-10.051c0-4.037-2.152-5.973-5.355-5.973a4.668,4.668,0,0,0-4.614,2.678h-.206v-2.472H37.609V0h2.43ZM54.581,0h2.43V-15.818h-2.43Zm1.236-18.455a1.7,1.7,0,0,0,1.73-1.648,1.7,1.7,0,0,0-1.73-1.648,1.7,1.7,0,0,0-1.73,1.648A1.7,1.7,0,0,0,55.817-18.455ZM67.886.33c4.284,0,7.168-3.254,7.168-8.156,0-4.943-2.884-8.2-7.168-8.2s-7.168,3.254-7.168,8.2C60.719-2.925,63.6.33,67.886.33Zm0-2.183c-3.254,0-4.737-2.8-4.737-5.973s1.483-6.014,4.737-6.014S72.624-11,72.624-7.827,71.141-1.854,67.886-1.854ZM78.761,0h2.43V-10.01a3.741,3.741,0,0,1,4-3.707,7.431,7.431,0,0,1,1.483.165v-2.472c-.278-.021-.917-.041-1.277-.041a4.3,4.3,0,0,0-4.119,2.636h-.165v-2.389H78.761Zm30.812-15.818h2.472c-.113-3.182-3.048-5.561-7.126-5.561-4.037,0-7.209,2.348-7.209,5.891,0,2.842,2.06,4.531,5.355,5.479l2.6.741c2.224.618,4.2,1.4,4.2,3.5,0,2.307-2.224,3.831-5.149,3.831-2.513,0-4.737-1.112-4.943-3.5H97.134c.247,3.46,3.048,5.808,7.58,5.808,4.861,0,7.621-2.678,7.621-6.1,0-3.955-3.749-5.232-5.932-5.808l-2.142-.577c-1.565-.412-4.078-1.236-4.078-3.5,0-2.018,1.854-3.5,4.655-3.5C107.391-19.114,109.327-17.9,109.574-15.818ZM120.861.371a4.969,4.969,0,0,0,4.7-2.513h.124V0h2.43V-10.422c0-5.026-3.831-5.6-5.849-5.6-2.389,0-5.108.824-6.344,3.707l2.307.824a4.274,4.274,0,0,1,4.119-2.389c2.235,0,3.337,1.184,3.337,3.213v.082c0,1.174-1.195,1.071-4.078,1.442-2.935.381-6.138,1.03-6.138,4.655C115.464-1.4,117.854.371,120.861.371Zm.371-2.183c-1.936,0-3.337-.865-3.337-2.554,0-1.854,1.689-2.43,3.584-2.678,1.03-.124,3.79-.412,4.2-.906v2.224C125.68-3.749,124.115-1.812,121.232-1.812ZM134.99-21.091h-2.43V0h2.43ZM146.071.33c3.213,0,5.561-1.607,6.3-4l-2.348-.659a3.872,3.872,0,0,1-3.955,2.472c-2.853,0-4.82-1.843-4.933-5.232h11.483v-1.03c0-5.891-3.5-7.909-6.8-7.909-4.284,0-7.126,3.378-7.126,8.239S141.5.33,146.071.33Zm-4.933-9.516a4.723,4.723,0,0,1,4.686-4.655c2.636,0,4.325,1.977,4.325,4.655Zm26.395-3.089c-.762-2.245-2.472-3.749-5.6-3.749-3.337,0-5.808,1.895-5.808,4.572,0,2.183,1.3,3.646,4.2,4.325l2.636.618c1.6.371,2.348,1.133,2.348,2.224,0,1.359-1.442,2.472-3.707,2.472-1.988,0-3.234-.855-3.666-2.554l-2.307.577C156.194-1.1,158.408.33,161.642.33c3.676,0,6.179-2.008,6.179-4.737,0-2.2-1.38-3.594-4.2-4.284l-2.348-.577c-1.874-.463-2.719-1.092-2.719-2.307,0-1.359,1.442-2.348,3.378-2.348a3.327,3.327,0,0,1,3.419,2.266ZM186.482,0c6.426,0,10.051-4,10.051-10.587,0-6.55-3.625-10.5-9.763-10.5h-6.8V0Zm-3.955-2.266v-16.56h4.078c4.943,0,7.456,3.131,7.456,8.239,0,5.149-2.513,8.321-7.744,8.321ZM200.487,0h2.43V-15.818h-2.43Zm1.236-18.455a1.7,1.7,0,0,0,1.73-1.648,1.7,1.7,0,0,0-1.73-1.648,1.7,1.7,0,0,0-1.73,1.648A1.7,1.7,0,0,0,201.723-18.455ZM207.366,0h2.43V-10.01a3.741,3.741,0,0,1,4-3.707,7.431,7.431,0,0,1,1.483.165v-2.472c-.278-.021-.917-.041-1.277-.041a4.3,4.3,0,0,0-4.119,2.636h-.165v-2.389h-2.348ZM224.3.33c3.213,0,5.561-1.607,6.3-4l-2.348-.659A3.872,3.872,0,0,1,224.3-1.854c-2.853,0-4.82-1.843-4.933-5.232h11.483v-1.03c0-5.891-3.5-7.909-6.8-7.909-4.284,0-7.126,3.378-7.126,8.239S219.724.33,224.3.33Zm-4.933-9.516a4.723,4.723,0,0,1,4.686-4.655c2.636,0,4.325,1.977,4.325,4.655ZM240.98.33c3.5,0,5.808-2.142,6.22-4.943h-2.43a3.68,3.68,0,0,1-3.79,2.76c-2.884,0-4.737-2.389-4.737-6.055,0-3.584,1.895-5.932,4.737-5.932a3.709,3.709,0,0,1,3.79,2.76h2.43c-.412-2.966-2.925-4.943-6.261-4.943-4.284,0-7.126,3.378-7.126,8.2C233.813-3.089,236.531.33,240.98.33Zm16.642-16.148h-3.378v-3.79h-2.43v3.79h-2.389v2.06h2.389v9.886A4.045,4.045,0,0,0,256.1.206a5.057,5.057,0,0,0,1.813-.288l-.494-2.183a4.692,4.692,0,0,1-1.071.124c-1.071,0-2.1-.33-2.1-2.389v-9.227h3.378ZM267.55.33c4.284,0,7.168-3.254,7.168-8.156,0-4.943-2.884-8.2-7.168-8.2s-7.168,3.254-7.168,8.2C260.382-2.925,263.266.33,267.55.33Zm0-2.183c-3.254,0-4.737-2.8-4.737-5.973s1.483-6.014,4.737-6.014,4.737,2.842,4.737,6.014S270.8-1.854,267.55-1.854ZM278.425,0h2.43V-10.01a3.741,3.741,0,0,1,4-3.707,7.431,7.431,0,0,1,1.483.165v-2.472c-.278-.021-.917-.041-1.277-.041a4.3,4.3,0,0,0-4.119,2.636h-.165v-2.389h-2.348ZM291.03-2.884h-2.636L288.27-1.73c-.3,2.791-.886,5.571-1.153,6.879h1.854a43.792,43.792,0,0,0,1.895-6.92ZM322.192-13.45h-5.149a4.462,4.462,0,0,0-.422-1.431,3.482,3.482,0,0,0-.844-1.092,3.681,3.681,0,0,0-1.241-.7,4.911,4.911,0,0,0-1.581-.242,4.588,4.588,0,0,0-2.642.752,4.747,4.747,0,0,0-1.7,2.173,8.936,8.936,0,0,0-.592,3.44,9,9,0,0,0,.6,3.517,4.609,4.609,0,0,0,1.7,2.132,4.651,4.651,0,0,0,2.6.716,5.166,5.166,0,0,0,1.54-.216,3.776,3.776,0,0,0,1.225-.633,3.487,3.487,0,0,0,.875-1.02,4.177,4.177,0,0,0,.479-1.365l5.149.031a7.859,7.859,0,0,1-.808,2.76,8.827,8.827,0,0,1-1.849,2.477,8.675,8.675,0,0,1-2.858,1.776,10.524,10.524,0,0,1-3.857.659A10.332,10.332,0,0,1,307.7-.973a9,9,0,0,1-3.568-3.682,12.244,12.244,0,0,1-1.308-5.891,12.111,12.111,0,0,1,1.328-5.9,9.092,9.092,0,0,1,3.594-3.676,10.29,10.29,0,0,1,5.077-1.256,11.373,11.373,0,0,1,3.543.53,8.723,8.723,0,0,1,2.863,1.545,7.959,7.959,0,0,1,2.008,2.487A9.085,9.085,0,0,1,322.192-13.45ZM329.556.268a6.654,6.654,0,0,1-2.683-.51,4.106,4.106,0,0,1-1.843-1.545,4.671,4.671,0,0,1-.675-2.6,4.847,4.847,0,0,1,.463-2.224A3.96,3.96,0,0,1,326.1-8.084a6.1,6.1,0,0,1,1.874-.86,12.466,12.466,0,0,1,2.266-.4q1.349-.124,2.173-.263a3.048,3.048,0,0,0,1.2-.4.857.857,0,0,0,.376-.747V-10.8a1.473,1.473,0,0,0-.546-1.225,2.307,2.307,0,0,0-1.473-.433,2.713,2.713,0,0,0-1.607.433,1.906,1.906,0,0,0-.772,1.195L324.942-11a5.5,5.5,0,0,1,1.066-2.58,5.763,5.763,0,0,1,2.369-1.792,9.1,9.1,0,0,1,3.63-.654,10.387,10.387,0,0,1,2.791.355,7.063,7.063,0,0,1,2.224,1.03,4.75,4.75,0,0,1,1.467,1.653,4.688,4.688,0,0,1,.52,2.235V0h-4.737V-2.2h-.124a4.527,4.527,0,0,1-1.076,1.359,4.369,4.369,0,0,1-1.534.834A6.571,6.571,0,0,1,329.556.268Zm1.555-3.3a3.215,3.215,0,0,0,1.467-.33,2.7,2.7,0,0,0,1.045-.911,2.369,2.369,0,0,0,.391-1.354v-1.5a3.037,3.037,0,0,1-.52.206q-.3.093-.664.175t-.741.144q-.381.062-.731.113a4.475,4.475,0,0,0-1.21.35,1.89,1.89,0,0,0-.762.613,1.516,1.516,0,0,0-.263.891,1.39,1.39,0,0,0,.561,1.195A2.348,2.348,0,0,0,331.111-3.028Zm10.968,8.96v-21.75h4.984v2.708h.154a5.456,5.456,0,0,1,.881-1.39,4.382,4.382,0,0,1,1.462-1.1,4.9,4.9,0,0,1,2.137-.427,5.876,5.876,0,0,1,3.084.865,6.181,6.181,0,0,1,2.322,2.667,10.41,10.41,0,0,1,.886,4.593,10.581,10.581,0,0,1-.85,4.5A6.228,6.228,0,0,1,354.854-.68a5.853,5.853,0,0,1-3.187.906,5.039,5.039,0,0,1-2.07-.391,4.446,4.446,0,0,1-1.467-1.03,4.891,4.891,0,0,1-.911-1.37h-.1v8.5Zm4.933-13.841a6.5,6.5,0,0,0,.345,2.224,3.232,3.232,0,0,0,1,1.468,2.445,2.445,0,0,0,1.57.52,2.44,2.44,0,0,0,1.576-.52,3.182,3.182,0,0,0,.983-1.468,6.68,6.68,0,0,0,.335-2.224,6.589,6.589,0,0,0-.335-2.214,3.168,3.168,0,0,0-.978-1.452,2.45,2.45,0,0,0-1.581-.515,2.489,2.489,0,0,0-1.576.5,3.147,3.147,0,0,0-.994,1.442A6.477,6.477,0,0,0,347.011-7.909Zm22.553-7.909v3.707h-9.979v-3.707Zm-7.889-3.79h5.036V-4.974a1.6,1.6,0,0,0,.149.747.846.846,0,0,0,.438.4,1.813,1.813,0,0,0,.69.118,3.57,3.57,0,0,0,.613-.057q.324-.057.489-.1l.762,3.635q-.36.1-1.014.257a8.567,8.567,0,0,1-1.56.2,7.3,7.3,0,0,1-3.033-.417,3.882,3.882,0,0,1-1.926-1.56,4.821,4.821,0,0,1-.644-2.667ZM372.139,0V-15.818h5.036V0Zm2.533-17.662a2.6,2.6,0,0,1-1.833-.705,2.239,2.239,0,0,1-.762-1.7,2.228,2.228,0,0,1,.762-1.694,2.59,2.59,0,0,1,1.823-.705,2.585,2.585,0,0,1,1.828.705,2.235,2.235,0,0,1,.757,1.694,2.246,2.246,0,0,1-.757,1.7A2.572,2.572,0,0,1,374.673-17.662Zm21.039,1.843L390.285,0h-5.767L379.1-15.818h5.3l2.914,10.9h.165l2.925-10.9ZM404.517.3a8.786,8.786,0,0,1-4.279-.983,6.687,6.687,0,0,1-2.76-2.811,9.218,9.218,0,0,1-.963-4.351,9.076,9.076,0,0,1,.968-4.289A7.031,7.031,0,0,1,400.212-15a8.107,8.107,0,0,1,4.15-1.025,8.736,8.736,0,0,1,3.089.525,6.641,6.641,0,0,1,2.42,1.555,7.1,7.1,0,0,1,1.586,2.539,9.789,9.789,0,0,1,.566,3.455v1.256H398.276V-9.619h9.063a2.837,2.837,0,0,0-.381-1.431,2.635,2.635,0,0,0-1.014-.983,3.007,3.007,0,0,0-1.478-.355,3.038,3.038,0,0,0-1.514.376,2.854,2.854,0,0,0-1.061,1.02,2.894,2.894,0,0,0-.412,1.457V-6.56a3.6,3.6,0,0,0,.381,1.694,2.739,2.739,0,0,0,1.081,1.128,3.3,3.3,0,0,0,1.668.4,3.762,3.762,0,0,0,1.215-.185,2.6,2.6,0,0,0,.937-.546,2.253,2.253,0,0,0,.587-.886l4.624.134a5.712,5.712,0,0,1-1.262,2.7,6.393,6.393,0,0,1-2.549,1.782A9.725,9.725,0,0,1,404.517.3Zm15.643-17.25v-4.14h17.826v4.14h-6.4V0h-5.026V-16.951ZM445.576.3A8.786,8.786,0,0,1,441.3-.685a6.687,6.687,0,0,1-2.76-2.811,9.218,9.218,0,0,1-.963-4.351,9.076,9.076,0,0,1,.968-4.289A7.031,7.031,0,0,1,441.272-15a8.107,8.107,0,0,1,4.15-1.025,8.736,8.736,0,0,1,3.089.525,6.641,6.641,0,0,1,2.42,1.555,7.1,7.1,0,0,1,1.586,2.539,9.789,9.789,0,0,1,.566,3.455v1.256H439.336V-9.619H448.4a2.837,2.837,0,0,0-.381-1.431A2.635,2.635,0,0,0,447-12.034a3.007,3.007,0,0,0-1.478-.355,3.038,3.038,0,0,0-1.514.376,2.854,2.854,0,0,0-1.061,1.02,2.894,2.894,0,0,0-.412,1.457V-6.56a3.6,3.6,0,0,0,.381,1.694A2.739,2.739,0,0,0,444-3.738a3.3,3.3,0,0,0,1.668.4,3.762,3.762,0,0,0,1.215-.185,2.6,2.6,0,0,0,.937-.546,2.253,2.253,0,0,0,.587-.886l4.624.134a5.712,5.712,0,0,1-1.262,2.7,6.393,6.393,0,0,1-2.549,1.782A9.725,9.725,0,0,1,445.576.3Zm17.476,0a8.451,8.451,0,0,1-4.289-1.03A6.949,6.949,0,0,1,456.019-3.6a9.087,9.087,0,0,1-.958-4.258,9.07,9.07,0,0,1,.963-4.269,6.983,6.983,0,0,1,2.75-2.868,8.408,8.408,0,0,1,4.269-1.03,8.663,8.663,0,0,1,3.826.793,6.128,6.128,0,0,1,2.554,2.24A6.511,6.511,0,0,1,470.4-9.6h-4.706a3.169,3.169,0,0,0-.819-1.905,2.346,2.346,0,0,0-1.756-.69,2.5,2.5,0,0,0-1.534.489,3.134,3.134,0,0,0-1.025,1.442,6.6,6.6,0,0,0-.366,2.353,6.691,6.691,0,0,0,.366,2.363,3.132,3.132,0,0,0,1.025,1.452,2.5,2.5,0,0,0,1.534.489,2.524,2.524,0,0,0,1.241-.3,2.38,2.38,0,0,0,.891-.881,3.458,3.458,0,0,0,.443-1.416H470.4a6.883,6.883,0,0,1-.973,3.419A6.069,6.069,0,0,1,466.9-.51,8.532,8.532,0,0,1,463.053.3Zm14.963-9.32V0H472.98V-21.091h4.871v8.177h.175a4.573,4.573,0,0,1,1.756-2.286,5.224,5.224,0,0,1,2.992-.824,5.567,5.567,0,0,1,2.9.736,5.015,5.015,0,0,1,1.921,2.075,6.7,6.7,0,0,1,.675,3.131V0h-5.036V-9.093a2.927,2.927,0,0,0-.659-2.06,2.409,2.409,0,0,0-1.885-.741,2.758,2.758,0,0,0-1.4.345,2.378,2.378,0,0,0-.937.983A3.376,3.376,0,0,0,478.016-9.021Z" transform="translate(547.887 350.791)" fill="#929baa"/>
    <path id="Path_96432" data-name="Path 96432" d="M14.176-29.091V-8.807c-.014,2.8-1.264,4.276-3.537,4.276A3.375,3.375,0,0,1,7.06-8.182H.937C.909-2.372,5.057.4,10.327.4c5.895,0,9.915-3.565,9.929-9.2V-29.091ZM35.156.426c5.4,0,9.034-2.628,9.886-6.676l-5.6-.369a4.109,4.109,0,0,1-4.19,2.528c-3.026,0-4.943-2-4.943-5.256v-.014H45.17v-1.662c0-7.415-4.489-11.08-10.256-11.08-6.42,0-10.582,4.56-10.582,11.293C24.332-3.892,28.437.426,35.156.426ZM30.312-13.111a4.608,4.608,0,0,1,4.7-4.474,4.3,4.3,0,0,1,4.46,4.474ZM67.273-15.6c-.54-4.02-3.778-6.506-9.29-6.506-5.582,0-9.261,2.585-9.247,6.79-.014,3.267,2.045,5.384,6.307,6.236l3.778.753c1.9.384,2.77,1.08,2.8,2.173-.028,1.293-1.435,2.216-3.551,2.216-2.159,0-3.594-.923-3.963-2.7l-5.952.313c.568,4.176,4.119,6.747,9.9,6.747,5.653,0,9.7-2.884,9.716-7.187C67.756-9.915,65.7-11.8,61.463-12.67l-3.949-.8c-2.031-.44-2.784-1.136-2.77-2.187-.014-1.307,1.463-2.159,3.338-2.159a3.409,3.409,0,0,1,3.651,2.557Zm22.472,0c-.54-4.02-3.778-6.506-9.29-6.506-5.582,0-9.261,2.585-9.247,6.79-.014,3.267,2.045,5.384,6.307,6.236l3.778.753c1.9.384,2.77,1.08,2.8,2.173-.028,1.293-1.435,2.216-3.551,2.216-2.159,0-3.594-.923-3.963-2.7l-5.952.313c.568,4.176,4.119,6.747,9.9,6.747,5.653,0,9.7-2.884,9.716-7.187-.014-3.153-2.074-5.043-6.307-5.909l-3.949-.8c-2.031-.44-2.784-1.136-2.77-2.187-.014-1.307,1.463-2.159,3.338-2.159A3.409,3.409,0,0,1,84.2-15.256ZM94.063,0h6.051V-21.818H94.063ZM97.1-24.631a3.188,3.188,0,0,0,3.281-3.068A3.186,3.186,0,0,0,97.1-30.753,3.182,3.182,0,0,0,93.835-27.7,3.184,3.184,0,0,0,97.1-24.631ZM114.8.426c5.81,0,9.46-3.409,9.744-8.423h-5.71a3.885,3.885,0,0,1-3.963,3.636c-2.827,0-4.659-2.372-4.659-6.548,0-4.119,1.847-6.477,4.659-6.477a3.889,3.889,0,0,1,3.963,3.636h5.71c-.256-5.043-4.077-8.352-9.773-8.352-6.619,0-10.71,4.588-10.71,11.278C104.063-4.19,108.082.426,114.8.426ZM134.659.412c3.224,0,5.312-1.406,6.378-3.437h.17V0h5.739V-14.716c0-5.2-4.4-7.386-9.261-7.386-5.227,0-8.665,2.5-9.5,6.477l5.6.455c.412-1.449,1.7-2.514,3.878-2.514,2.06,0,3.239,1.037,3.239,2.827v.085c0,1.406-1.491,1.591-5.284,1.96-4.318.4-8.2,1.847-8.2,6.719C127.415-1.776,130.5.412,134.659.412Zm1.733-4.176c-1.861,0-3.2-.866-3.2-2.528,0-1.7,1.406-2.543,3.537-2.841a14.551,14.551,0,0,0,4.2-.98V-7.8C140.937-5.511,139.048-3.764,136.392-3.764Zm40.426-16.96h5.895c-.085-5.185-4.347-8.764-10.824-8.764-6.378,0-11.051,3.523-11.023,8.807-.014,4.29,3.011,6.747,7.926,7.926l3.168.8c3.168.767,4.929,1.676,4.943,3.636-.014,2.131-2.031,3.58-5.156,3.58-3.2,0-5.5-1.477-5.7-4.389H160.1c.156,6.293,4.659,9.545,11.719,9.545,7.1,0,11.278-3.395,11.293-8.722-.014-4.844-3.665-7.415-8.722-8.551l-2.614-.625c-2.528-.582-4.645-1.52-4.6-3.608,0-1.875,1.662-3.253,4.673-3.253C174.787-24.347,176.591-23.011,176.818-20.724ZM187.116,0h6.051V-13.1c0-2.415,1.534-4.02,3.551-4.02a3.213,3.213,0,0,1,3.324,3.509V0h5.866V-13.324c0-2.259,1.293-3.793,3.494-3.793,1.932,0,3.381,1.207,3.381,3.636V0h6.037V-14.673c0-4.73-2.812-7.429-6.875-7.429-3.2,0-5.682,1.634-6.577,4.134h-.227a5.757,5.757,0,0,0-5.923-4.134,6.123,6.123,0,0,0-6.08,4.134h-.256v-3.849h-5.767Zm36.477,0h6.051V-21.818h-6.051Zm3.04-24.631a3.188,3.188,0,0,0,3.281-3.068,3.186,3.186,0,0,0-3.281-3.054,3.182,3.182,0,0,0-3.267,3.054A3.184,3.184,0,0,0,226.634-24.631Zm19.446,2.812h-4.105v-5.227h-6.051v5.227H232.94v4.545h2.983V-5.909C235.895-1.634,238.807.483,243.2.3a11.77,11.77,0,0,0,3.281-.568l-.952-4.5a8.267,8.267,0,0,1-1.506.2c-1.207,0-2.045-.455-2.045-2.131V-17.273h4.105Zm10.44,9.2c.014-2.812,1.733-4.46,4.2-4.46s3.906,1.577,3.892,4.261V0h6.051V-13.892c.014-5.114-3-8.21-7.543-8.21-3.31,0-5.526,1.562-6.52,4.134h-.256V-29.091h-5.881V0h6.051Z" transform="translate(544.669 308.293)" fill="#929baa"/>
    <g id="Group_21678" data-name="Group 21678" transform="translate(851.177 392.895)">
      <g id="Group_21672" data-name="Group 21672" clip-path="url(#clip-path)">
        <path id="Path_28534" data-name="Path 28534" d="M0,193.248v-.719l2.212-1.581,14.17-10.168,1.99,1.549a1.516,1.516,0,0,0,1.863,0l1.989-1.548,11.747,8.484,4.586,3.056v.926Z" transform="translate(0 -164.689)" fill="#dce1e8"/>
        <path id="Path_28535" data-name="Path 28535" d="M0,37.515l14.85,11.56L0,59.731Z" transform="translate(0 -34.176)" fill="#dce1e8"/>
        <path id="Path_28536" data-name="Path 28536" d="M266.848,49.078,281.7,37.516v22.29Z" transform="translate(-243.095 -34.176)" fill="#dce1e8"/>
        <path id="Path_28537" data-name="Path 28537" d="M1.194,1.91,0,.942V0H38.606V1.02l-1.19.887L19.3,16.007Z" transform="translate(0 -0.001)" fill="#dce1e8"/>
      </g>
    </g>
    <g id="Group_21679" data-name="Group 21679" transform="translate(546.139 390.471)">
      <g id="Group_21674" data-name="Group 21674" clip-path="url(#clip-path-2)">
        <path id="Path_28538" data-name="Path 28538" d="M29.764,24.493a.2.2,0,0,0-.025-.041,3.3,3.3,0,0,0-.82-.547,3.994,3.994,0,0,0-.361-.183l-.029-.014h0c-.085-.038-.174-.075-.268-.111-.966-.386-2.861-1.109-4.245-1.637-.775-.3-1.392-.531-1.556-.6a1.637,1.637,0,0,0-1.634-.01c-.085.046-.165.087-.244.127a5.392,5.392,0,0,0-.685.4,1.65,1.65,0,0,0-.366.316,10.253,10.253,0,0,0-1.342,1.244l-.032.03c-.321.3-.527.489-.908.4-6.01-3.225-9.313-10.643-9.313-10.643-.041-.389.176-.568.514-.847l.034-.028a10.247,10.247,0,0,0,1.411-1.165,1.648,1.648,0,0,0,.362-.321,5.39,5.39,0,0,0,.485-.626c.05-.073.1-.147.158-.225a1.637,1.637,0,0,0,.207-1.621c-.043-.172-.195-.815-.385-1.622-.34-1.441-.8-3.415-1.059-4.425a3.926,3.926,0,0,0-.339-.952C8.676-.826,5.371.27,5.371.27a2.894,2.894,0,0,0-.555.168h0A7.275,7.275,0,0,0,.706,4.89v0A9.972,9.972,0,0,0,.1,7.091,8.747,8.747,0,0,0,.116,9.827,16.641,16.641,0,0,0,1.964,15.55l.061.12c.015.031.039.084.072.157a5.6,5.6,0,0,0,.489.775c1.475,2.4,5.472,8.385,10.9,12.385h0a3.6,3.6,0,0,0,.408.32l.146.092.111.077a16.637,16.637,0,0,0,5.427,2.591,8.749,8.749,0,0,0,2.71.38,9.955,9.955,0,0,0,2.283-.316A7.316,7.316,0,0,0,29.5,28.669a2.94,2.94,0,0,0,.152-.294h0s1.252-2.615.113-3.881" transform="translate(0 0.001)" fill="#dce1e8"/>
      </g>
    </g>
    <path id="Path_96433" data-name="Path 96433" d="M16.96,0H191.407a16.96,16.96,0,1,1,0,33.92H16.96A16.96,16.96,0,0,1,16.96,0Z" transform="translate(587.063 389.453)" fill="#dce1e8"/>
    <path id="Path_96434" data-name="Path 96434" d="M16.96,0H327.088a16.96,16.96,0,1,1,0,33.92H16.96A16.96,16.96,0,0,1,16.96,0Z" transform="translate(900.465 389.453)" fill="#dce1e8"/>
    <path id="Path_96430" data-name="Path 96430" d="M5,0H183.644a5,5,0,0,1,5,5V177.749a5,5,0,0,1-5,5H5a5,5,0,0,1-5-5V5A5,5,0,0,1,5,0Z" transform="translate(311.185 263.095)" fill="#f8c94e"/>
  </g>
</svg>
