<svg xmlns="http://www.w3.org/2000/svg" xmlns:xlink="http://www.w3.org/1999/xlink" width="1350" height="1360" viewBox="0 0 1350 1360">
  <defs>
    <filter id="Path_96440" x="261.753" y="799.667" width="1095.327" height="283.178" filterUnits="userSpaceOnUse">
      <feOffset dy="10" input="SourceAlpha"/>
      <feGaussianBlur stdDeviation="10" result="blur"/>
      <feFlood flood-opacity="0.129"/>
      <feComposite operator="in" in2="blur"/>
    </filter>
    <filter id="Path_96440-2" x="261.753" y="799.667" width="1095.327" height="283.178" filterUnits="userSpaceOnUse">
      <feOffset input="SourceAlpha"/>
      <feGaussianBlur stdDeviation="2" result="blur-2"/>
      <feFlood flood-opacity="0.11" result="color"/>
      <feComposite operator="out" in="SourceGraphic" in2="blur-2"/>
      <feComposite operator="in" in="color"/>
      <feComposite operator="in" in2="SourceGraphic"/>
    </filter>
    <clipPath id="clip-path">
      <rect id="Rectangle_8417" data-name="Rectangle 8417" width="38.606" height="28.559" fill="#dce1e8"/>
    </clipPath>
    <clipPath id="clip-path-2">
      <rect id="Rectangle_8418" data-name="Rectangle 8418" width="30.243" height="32.451" fill="#dce1e8"/>
    </clipPath>
    <clipPath id="clip-homepage_header-art_3-ashley-jason">
      <rect width="1350" height="1360"/>
    </clipPath>
  </defs>
  <g id="homepage_header-art_3-ashley-jason" clip-path="url(#clip-homepage_header-art_3-ashley-jason)">
    <g data-type="innerShadowGroup">
      <g transform="matrix(1, 0, 0, 1, 0, 0)" filter="url(#Path_96440)">
        <g id="Path_96440-3" data-name="Path 96440" transform="translate(292.25 820.17)" fill="#fff" opacity="0.95">
          <path d="M 1019.326293945312 222.4275512695312 L 15.00002193450928 222.4275512695312 C 10.9266471862793 222.4275512695312 7.09702205657959 220.84130859375 4.216647148132324 217.9609375 C 1.336272001266479 215.0806884765625 -0.2499780207872391 211.2510528564453 -0.2499780207872391 207.1775512695312 L -0.2499780207872391 15.00005626678467 C -0.2499780207872391 10.92655658721924 1.336272001266479 7.096930980682373 4.216647148132324 4.216681003570557 C 7.09702205657959 1.336306095123291 10.9266471862793 -0.2499438524246216 15.00002193450928 -0.2499438524246216 L 1019.326293945312 -0.2499438524246216 C 1023.399780273438 -0.2499438524246216 1027.229370117188 1.336306095123291 1030.109619140625 4.216681003570557 C 1032.989990234375 7.096930980682373 1034.576293945312 10.92655658721924 1034.576293945312 15.00005626678467 L 1034.576293945312 207.1775512695312 C 1034.576293945312 211.2510528564453 1032.989990234375 215.0806884765625 1030.109619140625 217.9609375 C 1027.229370117188 220.84130859375 1023.399780273438 222.4275512695312 1019.326293945312 222.4275512695312 Z" stroke="none"/>
          <path d="M 14.99993896484375 0 C 6.7156982421875 0 0 6.715744018554688 0 15 L 0 207.1776123046875 C 0 215.4618682861328 6.7156982421875 222.1776123046875 14.99993896484375 222.1776123046875 L 1019.326232910156 222.1776123046875 C 1027.610595703125 222.1776123046875 1034.326171875 215.4618682861328 1034.326171875 207.1776123046875 L 1034.326171875 15 C 1034.326171875 6.715744018554688 1027.610595703125 0 1019.326232910156 0 L 14.99993896484375 0 M 14.99993896484375 -0.5 L 1019.326232910156 -0.5 C 1023.466491699219 -0.5 1027.35888671875 1.112274169921875 1030.286499023438 4.039871215820312 C 1033.213989257812 6.96734619140625 1034.826171875 10.8597412109375 1034.826171875 15 L 1034.826171875 207.1776123046875 C 1034.826171875 211.31787109375 1033.213989257812 215.2102661132812 1030.286499023438 218.1377410888672 C 1027.35888671875 221.0653381347656 1023.466491699219 222.6776123046875 1019.326232910156 222.6776123046875 L 14.99993896484375 222.6776123046875 C 10.85980224609375 222.6776123046875 6.9674072265625 221.0653381347656 4.039794921875 218.1377410888672 C 1.1121826171875 215.2101440429688 -0.5 211.3177337646484 -0.5 207.1776123046875 L -0.5 15 C -0.5 10.85987854003906 1.1121826171875 6.96746826171875 4.039794921875 4.039871215820312 C 6.9674072265625 1.112274169921875 10.85980224609375 -0.5 14.99993896484375 -0.5 Z" stroke="none" fill="#e2e2e2"/>
        </g>
      </g>
      <g id="Path_96440-4" data-name="Path 96440" transform="translate(292.253 820.167)" fill="#fff" opacity="0.95">
        <path d="M 1019.326293945312 222.4275512695312 L 15.00002193450928 222.4275512695312 C 10.9266471862793 222.4275512695312 7.09702205657959 220.84130859375 4.216647148132324 217.9609375 C 1.336272001266479 215.0806884765625 -0.2499780207872391 211.2510528564453 -0.2499780207872391 207.1775512695312 L -0.2499780207872391 15.00005626678467 C -0.2499780207872391 10.92655658721924 1.336272001266479 7.096930980682373 4.216647148132324 4.216681003570557 C 7.09702205657959 1.336306095123291 10.9266471862793 -0.2499438524246216 15.00002193450928 -0.2499438524246216 L 1019.326293945312 -0.2499438524246216 C 1023.399780273438 -0.2499438524246216 1027.229370117188 1.336306095123291 1030.109619140625 4.216681003570557 C 1032.989990234375 7.096930980682373 1034.576293945312 10.92655658721924 1034.576293945312 15.00005626678467 L 1034.576293945312 207.1775512695312 C 1034.576293945312 211.2510528564453 1032.989990234375 215.0806884765625 1030.109619140625 217.9609375 C 1027.229370117188 220.84130859375 1023.399780273438 222.4275512695312 1019.326293945312 222.4275512695312 Z" stroke="none"/>
        <path d="M 14.99993896484375 0 C 6.7156982421875 0 0 6.715744018554688 0 15 L 0 207.1776123046875 C 0 215.4618682861328 6.7156982421875 222.1776123046875 14.99993896484375 222.1776123046875 L 1019.326232910156 222.1776123046875 C 1027.610595703125 222.1776123046875 1034.326171875 215.4618682861328 1034.326171875 207.1776123046875 L 1034.326171875 15 C 1034.326171875 6.715744018554688 1027.610595703125 0 1019.326232910156 0 L 14.99993896484375 0 M 14.99993896484375 -0.5 L 1019.326232910156 -0.5 C 1023.466491699219 -0.5 1027.35888671875 1.112274169921875 1030.286499023438 4.039871215820312 C 1033.213989257812 6.96734619140625 1034.826171875 10.8597412109375 1034.826171875 15 L 1034.826171875 207.1776123046875 C 1034.826171875 211.31787109375 1033.213989257812 215.2102661132812 1030.286499023438 218.1377410888672 C 1027.35888671875 221.0653381347656 1023.466491699219 222.6776123046875 1019.326232910156 222.6776123046875 L 14.99993896484375 222.6776123046875 C 10.85980224609375 222.6776123046875 6.9674072265625 221.0653381347656 4.039794921875 218.1377410888672 C 1.1121826171875 215.2101440429688 -0.5 211.3177337646484 -0.5 207.1776123046875 L -0.5 15 C -0.5 10.85987854003906 1.1121826171875 6.96746826171875 4.039794921875 4.039871215820312 C 6.9674072265625 1.112274169921875 10.85980224609375 -0.5 14.99993896484375 -0.5 Z" stroke="none"/>
      </g>
      <g transform="matrix(1, 0, 0, 1, 0, 0)" filter="url(#Path_96440-2)">
        <g id="Path_96440-5" data-name="Path 96440" transform="translate(292.25 820.17)" fill="#fff" opacity="0.95">
          <path d="M 1019.326293945312 222.4275512695312 L 15.00002193450928 222.4275512695312 C 10.9266471862793 222.4275512695312 7.09702205657959 220.84130859375 4.216647148132324 217.9609375 C 1.336272001266479 215.0806884765625 -0.2499780207872391 211.2510528564453 -0.2499780207872391 207.1775512695312 L -0.2499780207872391 15.00005626678467 C -0.2499780207872391 10.92655658721924 1.336272001266479 7.096930980682373 4.216647148132324 4.216681003570557 C 7.09702205657959 1.336306095123291 10.9266471862793 -0.2499438524246216 15.00002193450928 -0.2499438524246216 L 1019.326293945312 -0.2499438524246216 C 1023.399780273438 -0.2499438524246216 1027.229370117188 1.336306095123291 1030.109619140625 4.216681003570557 C 1032.989990234375 7.096930980682373 1034.576293945312 10.92655658721924 1034.576293945312 15.00005626678467 L 1034.576293945312 207.1775512695312 C 1034.576293945312 211.2510528564453 1032.989990234375 215.0806884765625 1030.109619140625 217.9609375 C 1027.229370117188 220.84130859375 1023.399780273438 222.4275512695312 1019.326293945312 222.4275512695312 Z" stroke="none"/>
          <path d="M 14.99993896484375 0 C 6.7156982421875 0 0 6.715744018554688 0 15 L 0 207.1776123046875 C 0 215.4618682861328 6.7156982421875 222.1776123046875 14.99993896484375 222.1776123046875 L 1019.326232910156 222.1776123046875 C 1027.610595703125 222.1776123046875 1034.326171875 215.4618682861328 1034.326171875 207.1776123046875 L 1034.326171875 15 C 1034.326171875 6.715744018554688 1027.610595703125 0 1019.326232910156 0 L 14.99993896484375 0 M 14.99993896484375 -0.5 L 1019.326232910156 -0.5 C 1023.466491699219 -0.5 1027.35888671875 1.112274169921875 1030.286499023438 4.039871215820312 C 1033.213989257812 6.96734619140625 1034.826171875 10.8597412109375 1034.826171875 15 L 1034.826171875 207.1776123046875 C 1034.826171875 211.31787109375 1033.213989257812 215.2102661132812 1030.286499023438 218.1377410888672 C 1027.35888671875 221.0653381347656 1023.466491699219 222.6776123046875 1019.326232910156 222.6776123046875 L 14.99993896484375 222.6776123046875 C 10.85980224609375 222.6776123046875 6.9674072265625 221.0653381347656 4.039794921875 218.1377410888672 C 1.1121826171875 215.2101440429688 -0.5 211.3177337646484 -0.5 207.1776123046875 L -0.5 15 C -0.5 10.85987854003906 1.1121826171875 6.96746826171875 4.039794921875 4.039871215820312 C 6.9674072265625 1.112274169921875 10.85980224609375 -0.5 14.99993896484375 -0.5 Z" stroke="none"/>
        </g>
      </g>
      <g id="Path_96440-6" data-name="Path 96440" transform="translate(292.253 820.167)" fill="none" opacity="0.95">
        <path d="M 1019.326293945312 222.4275512695312 L 15.00002193450928 222.4275512695312 C 10.9266471862793 222.4275512695312 7.09702205657959 220.84130859375 4.216647148132324 217.9609375 C 1.336272001266479 215.0806884765625 -0.2499780207872391 211.2510528564453 -0.2499780207872391 207.1775512695312 L -0.2499780207872391 15.00005626678467 C -0.2499780207872391 10.92655658721924 1.336272001266479 7.096930980682373 4.216647148132324 4.216681003570557 C 7.09702205657959 1.336306095123291 10.9266471862793 -0.2499438524246216 15.00002193450928 -0.2499438524246216 L 1019.326293945312 -0.2499438524246216 C 1023.399780273438 -0.2499438524246216 1027.229370117188 1.336306095123291 1030.109619140625 4.216681003570557 C 1032.989990234375 7.096930980682373 1034.576293945312 10.92655658721924 1034.576293945312 15.00005626678467 L 1034.576293945312 207.1775512695312 C 1034.576293945312 211.2510528564453 1032.989990234375 215.0806884765625 1030.109619140625 217.9609375 C 1027.229370117188 220.84130859375 1023.399780273438 222.4275512695312 1019.326293945312 222.4275512695312 Z" stroke="none"/>
        <path d="M 14.99993896484375 0 C 6.7156982421875 0 0 6.715744018554688 0 15 L 0 207.1776123046875 C 0 215.4618682861328 6.7156982421875 222.1776123046875 14.99993896484375 222.1776123046875 L 1019.326232910156 222.1776123046875 C 1027.610595703125 222.1776123046875 1034.326171875 215.4618682861328 1034.326171875 207.1776123046875 L 1034.326171875 15 C 1034.326171875 6.715744018554688 1027.610595703125 0 1019.326232910156 0 L 14.99993896484375 0 M 14.99993896484375 -0.5 L 1019.326232910156 -0.5 C 1023.466491699219 -0.5 1027.35888671875 1.112274169921875 1030.286499023438 4.039871215820312 C 1033.213989257812 6.96734619140625 1034.826171875 10.8597412109375 1034.826171875 15 L 1034.826171875 207.1776123046875 C 1034.826171875 211.31787109375 1033.213989257812 215.2102661132812 1030.286499023438 218.1377410888672 C 1027.35888671875 221.0653381347656 1023.466491699219 222.6776123046875 1019.326232910156 222.6776123046875 L 14.99993896484375 222.6776123046875 C 10.85980224609375 222.6776123046875 6.9674072265625 221.0653381347656 4.039794921875 218.1377410888672 C 1.1121826171875 215.2101440429688 -0.5 211.3177337646484 -0.5 207.1776123046875 L -0.5 15 C -0.5 10.85987854003906 1.1121826171875 6.96746826171875 4.039794921875 4.039871215820312 C 6.9674072265625 1.112274169921875 10.85980224609375 -0.5 14.99993896484375 -0.5 Z" stroke="none" fill="#e2e2e2"/>
      </g>
    </g>
    <path id="Path_96442" data-name="Path 96442" d="M2.554,0H5.108V-9.433H16.354V0h2.554V-21.091H16.354V-11.7H5.108v-9.392H2.554ZM23.686,0h2.43V-15.818h-2.43Zm1.236-18.455a1.7,1.7,0,0,0,1.73-1.648,1.7,1.7,0,0,0-1.73-1.648,1.7,1.7,0,0,0-1.73,1.648A1.7,1.7,0,0,0,24.922-18.455ZM30.565,0H33V-10.01a3.741,3.741,0,0,1,4-3.707,7.431,7.431,0,0,1,1.483.165v-2.472c-.278-.021-.917-.041-1.277-.041a4.3,4.3,0,0,0-4.119,2.636h-.165v-2.389H30.565ZM41.358,0h2.43V-15.818h-2.43Zm1.236-18.455a1.7,1.7,0,0,0,1.73-1.648,1.7,1.7,0,0,0-1.73-1.648,1.7,1.7,0,0,0-1.73,1.648A1.7,1.7,0,0,0,42.594-18.455Zm8.074,8.939c0-2.76,1.71-4.325,4.037-4.325,2.255,0,3.625,1.473,3.625,3.955V0h2.43V-10.051c0-4.037-2.152-5.973-5.355-5.973a4.668,4.668,0,0,0-4.614,2.678h-.206v-2.472H48.237V0h2.43ZM71.594,6.261c3.79,0,6.838-1.73,6.838-5.808V-15.818H76.084v2.513h-.247a4.89,4.89,0,0,0-4.614-2.719c-4,0-6.756,3.172-6.756,8.033,0,4.943,2.884,7.744,6.714,7.744A4.808,4.808,0,0,0,75.8-2.925H76V.288c0,2.636-1.854,3.831-4.408,3.831A4.95,4.95,0,0,1,67.063,1.73L65.126,3.089C66.115,4.748,68.061,6.261,71.594,6.261ZM71.511-2.43c-3.048,0-4.614-2.307-4.614-5.6,0-3.213,1.524-5.808,4.614-5.808,2.966,0,4.531,2.389,4.531,5.808C76.043-4.531,74.436-2.43,71.511-2.43Zm19.855-18.66V0h2.389V-16.024h.206L100.553,0h2.307l6.591-16.024h.206V0h2.389V-21.091H109L101.83-3.584h-.247L94.415-21.091ZM121.479.371a4.969,4.969,0,0,0,4.7-2.513h.124V0h2.43V-10.422c0-5.026-3.831-5.6-5.849-5.6-2.389,0-5.108.824-6.344,3.707l2.307.824a4.274,4.274,0,0,1,4.119-2.389c2.235,0,3.337,1.184,3.337,3.213v.082c0,1.174-1.195,1.071-4.078,1.442-2.935.381-6.138,1.03-6.138,4.655C116.082-1.4,118.472.371,121.479.371Zm.371-2.183c-1.936,0-3.337-.865-3.337-2.554,0-1.854,1.689-2.43,3.584-2.678,1.03-.124,3.79-.412,4.2-.906v2.224C126.3-3.749,124.733-1.812,121.849-1.812Zm13.759-7.7c0-2.76,1.71-4.325,4.037-4.325,2.255,0,3.625,1.473,3.625,3.955V0h2.43V-10.051c0-4.037-2.152-5.973-5.355-5.973a4.668,4.668,0,0,0-4.614,2.678h-.206v-2.472h-2.348V0h2.43ZM154.8.371a4.969,4.969,0,0,0,4.7-2.513h.124V0h2.43V-10.422c0-5.026-3.831-5.6-5.849-5.6-2.389,0-5.108.824-6.344,3.707l2.307.824a4.274,4.274,0,0,1,4.119-2.389c2.235,0,3.337,1.184,3.337,3.213v.082c0,1.174-1.195,1.071-4.078,1.442-2.935.381-6.138,1.03-6.138,4.655C149.408-1.4,151.8.371,154.8.371Zm.371-2.183c-1.936,0-3.337-.865-3.337-2.554,0-1.854,1.689-2.43,3.584-2.678,1.03-.124,3.79-.412,4.2-.906v2.224C159.624-3.749,158.058-1.812,155.175-1.812Zm17.713,8.074c3.79,0,6.838-1.73,6.838-5.808V-15.818h-2.348v2.513h-.247a4.89,4.89,0,0,0-4.614-2.719c-4,0-6.756,3.172-6.756,8.033,0,4.943,2.884,7.744,6.714,7.744a4.808,4.808,0,0,0,4.614-2.678h.206V.288c0,2.636-1.854,3.831-4.408,3.831a4.95,4.95,0,0,1-4.531-2.389L166.42,3.089C167.409,4.748,169.355,6.261,172.888,6.261Zm-.082-8.692c-3.048,0-4.614-2.307-4.614-5.6,0-3.213,1.524-5.808,4.614-5.808,2.966,0,4.531,2.389,4.531,5.808C177.337-4.531,175.73-2.43,172.805-2.43Zm18,2.76c3.213,0,5.561-1.607,6.3-4l-2.348-.659a3.872,3.872,0,0,1-3.955,2.472c-2.853,0-4.82-1.843-4.933-5.232h11.483v-1.03c0-5.891-3.5-7.909-6.8-7.909-4.284,0-7.126,3.378-7.126,8.239S186.234.33,190.807.33Zm-4.933-9.516a4.723,4.723,0,0,1,4.686-4.655c2.636,0,4.325,1.977,4.325,4.655ZM201.064,0h2.43V-10.01a3.741,3.741,0,0,1,4-3.707,7.431,7.431,0,0,1,1.483.165v-2.472c-.278-.021-.917-.041-1.277-.041a4.3,4.3,0,0,0-4.119,2.636h-.165v-2.389h-2.348Zm12.605-2.884h-2.636l-.124,1.153c-.3,2.791-.886,5.571-1.153,6.879h1.854a43.788,43.788,0,0,0,1.895-6.92ZM225.924,0h4.459V-8.712h9.052V0h4.449V-21.091h-4.449v8.7h-9.052v-8.7h-4.459Zm28.7.309c4.8,0,7.786-3.285,7.786-8.156,0-4.9-2.987-8.177-7.786-8.177s-7.786,3.275-7.786,8.177C246.84-2.976,249.826.309,254.625.309Zm.021-3.4c-2.214,0-3.347-2.029-3.347-4.789s1.133-4.8,3.347-4.8c2.173,0,3.306,2.039,3.306,4.8S256.819-3.089,254.646-3.089Zm19.042-12.729h-2.976v-3.79h-4.387v3.79h-2.163v3.3h2.163v8.239c-.021,3.1,2.091,4.634,5.273,4.5A8.533,8.533,0,0,0,273.976-.2l-.69-3.265a5.994,5.994,0,0,1-1.092.144c-.875,0-1.483-.33-1.483-1.545v-7.662h2.976Zm15.8,4.511c-.391-2.914-2.739-4.717-6.735-4.717-4.047,0-6.714,1.874-6.7,4.923-.01,2.369,1.483,3.9,4.572,4.521l2.739.546c1.38.278,2.008.783,2.029,1.576-.021.937-1.04,1.607-2.575,1.607-1.565,0-2.605-.669-2.873-1.957l-4.315.227C276.036-1.555,278.61.309,282.8.309c4.1,0,7.034-2.091,7.044-5.211-.01-2.286-1.5-3.656-4.572-4.284l-2.863-.577c-1.473-.319-2.018-.824-2.008-1.586-.01-.947,1.061-1.565,2.42-1.565a2.471,2.471,0,0,1,2.647,1.854ZM297-9.145a2.945,2.945,0,0,1,3.048-3.234c1.782,0,2.832,1.143,2.822,3.089V0h4.387V-10.072c.01-3.707-2.173-5.952-5.468-5.952a4.675,4.675,0,0,0-4.727,3h-.185v-8.064h-4.263V0H297ZM317.867.309c4.8,0,7.786-3.285,7.786-8.156,0-4.9-2.987-8.177-7.786-8.177s-7.785,3.275-7.785,8.177C310.082-2.976,313.068.309,317.867.309Zm.021-3.4c-2.214,0-3.347-2.029-3.347-4.789s1.133-4.8,3.347-4.8c2.173,0,3.306,2.039,3.306,4.8S320.061-3.089,317.888-3.089Zm19.042-12.729h-2.976v-3.79h-4.387v3.79H327.4v3.3h2.163v8.239c-.021,3.1,2.091,4.634,5.273,4.5A8.533,8.533,0,0,0,337.218-.2l-.69-3.265a5.994,5.994,0,0,1-1.092.144c-.875,0-1.483-.33-1.483-1.545v-7.662h2.976ZM354.066,0c6.426,0,10.319-3.975,10.319-10.566,0-6.57-3.893-10.525-10.257-10.525h-7.538V0Zm-3.017-3.821V-17.27h2.842c3.955,0,6.045,2.018,6.045,6.7,0,4.706-2.091,6.745-6.055,6.745ZM374.806.309c3.913,0,6.55-1.905,7.168-4.84L377.917-4.8a2.979,2.979,0,0,1-3.038,1.833c-2.194,0-3.584-1.452-3.584-3.81v-.01h10.772v-1.2c0-5.376-3.254-8.033-7.435-8.033-4.655,0-7.672,3.306-7.672,8.187C366.959-2.822,369.935.309,374.806.309Zm-3.512-9.814a3.341,3.341,0,0,1,3.409-3.244,3.118,3.118,0,0,1,3.234,3.244Zm26.8-1.8c-.391-2.914-2.739-4.717-6.735-4.717-4.047,0-6.714,1.874-6.7,4.923-.01,2.369,1.483,3.9,4.572,4.521l2.739.546c1.38.278,2.008.783,2.029,1.576-.021.937-1.04,1.607-2.575,1.607-1.565,0-2.605-.669-2.873-1.957l-4.315.227c.412,3.028,2.987,4.892,7.178,4.892,4.1,0,7.034-2.091,7.044-5.211-.01-2.286-1.5-3.656-4.572-4.284l-2.863-.577c-1.473-.319-2.018-.824-2.008-1.586-.01-.947,1.061-1.565,2.42-1.565a2.471,2.471,0,0,1,2.647,1.854ZM401.222,0h4.387V-15.818h-4.387Zm2.2-17.857a2.311,2.311,0,0,0,2.379-2.224,2.31,2.31,0,0,0-2.379-2.214,2.307,2.307,0,0,0-2.369,2.214A2.309,2.309,0,0,0,403.425-17.857ZM416.237,6.261c4.521,0,7.734-2.06,7.734-6.107V-15.818h-4.356v2.657h-.165a4.692,4.692,0,0,0-4.521-2.863c-3.471,0-6.406,2.7-6.406,8.084,0,5.262,2.853,7.713,6.416,7.713A4.594,4.594,0,0,0,419.45-2.8h.185V.093c0,2.173-1.39,3.017-3.3,3.017-1.936,0-2.914-.844-3.275-1.8l-4.058.546C409.532,4.346,411.973,6.261,416.237,6.261Zm.093-9.783c-2.152,0-3.326-1.71-3.326-4.439,0-2.688,1.153-4.572,3.326-4.572,2.132,0,3.326,1.8,3.326,4.572C419.656-5.17,418.44-3.522,416.329-3.522Zm15.53-5.623a2.918,2.918,0,0,1,3-3.234c1.761,0,2.822,1.153,2.811,3.089V0h4.387V-10.072c0-3.687-2.163-5.952-5.458-5.952a4.779,4.779,0,0,0-4.758,3h-.185v-2.791h-4.181V0h4.387Zm39.061-4.562c-.587-4.871-4.274-7.672-9.155-7.672-5.571,0-9.825,3.934-9.825,10.834,0,6.879,4.181,10.834,9.825,10.834,5.407,0,8.671-3.594,9.155-7.477l-4.511-.021a4.307,4.307,0,0,1-4.572,3.553c-3.2,0-5.376-2.379-5.376-6.89,0-4.387,2.142-6.89,5.407-6.89a4.268,4.268,0,0,1,4.542,3.728ZM481.188.309c4.8,0,7.786-3.285,7.786-8.156,0-4.9-2.987-8.177-7.786-8.177S473.4-12.749,473.4-7.847C473.4-2.976,476.389.309,481.188.309Zm.021-3.4c-2.214,0-3.347-2.029-3.347-4.789s1.133-4.8,3.347-4.8c2.173,0,3.306,2.039,3.306,4.8S483.381-3.089,481.208-3.089ZM494.4.268A2.506,2.506,0,0,0,496.872-2.2,2.5,2.5,0,0,0,494.4-4.655,2.461,2.461,0,0,0,491.929-2.2,2.466,2.466,0,0,0,494.4.268Z" transform="translate(544.669 934.797)" fill="#929baa"/>
    <path id="Path_96443" data-name="Path 96443" d="M7.543,0,9.7-6.634H20.2L22.358,0h6.591L18.92-29.091H10.994L.952,0Zm3.722-11.435,3.58-11.009h.227l3.58,11.009ZM49.972-15.6c-.54-4.02-3.778-6.506-9.29-6.506-5.582,0-9.261,2.585-9.247,6.79-.014,3.267,2.045,5.384,6.307,6.236l3.778.753c1.9.384,2.77,1.08,2.8,2.173-.028,1.293-1.435,2.216-3.551,2.216-2.159,0-3.594-.923-3.963-2.7l-5.952.313c.568,4.176,4.119,6.747,9.9,6.747,5.653,0,9.7-2.884,9.716-7.187-.014-3.153-2.074-5.043-6.307-5.909l-3.949-.8c-2.031-.44-2.784-1.136-2.77-2.187-.014-1.307,1.463-2.159,3.338-2.159a3.409,3.409,0,0,1,3.651,2.557Zm10.369,2.983c.014-2.812,1.733-4.46,4.2-4.46s3.906,1.577,3.892,4.261V0h6.051V-13.892c.014-5.114-3-8.21-7.543-8.21-3.31,0-5.526,1.562-6.52,4.134H60.17V-29.091H54.29V0h6.051ZM85.312-29.091H79.261V0h6.051ZM100.085.426c5.4,0,9.034-2.628,9.886-6.676l-5.6-.369a4.109,4.109,0,0,1-4.19,2.528c-3.026,0-4.943-2-4.943-5.256v-.014H110.1v-1.662c0-7.415-4.489-11.08-10.256-11.08-6.42,0-10.582,4.56-10.582,11.293C89.261-3.892,93.366.426,100.085.426ZM95.241-13.111a4.608,4.608,0,0,1,4.7-4.474,4.3,4.3,0,0,1,4.46,4.474ZM117.173,8.182c4.5,0,6.889-2.3,8.125-5.824l8.48-24.148-6.406-.028L122.812-5.8h-.227l-4.517-16.023H111.7L119.531.625l-.355.923c-.8,2.045-2.315,2.145-4.446,1.491l-1.364,4.517A10.446,10.446,0,0,0,117.173,8.182ZM152.812,0h5.994l5.526-19.02h.227L170.1,0h5.994l8.324-29.091H177.7L172.883-8.835h-.256l-5.3-20.256h-5.753L156.264-8.878h-.241l-4.815-20.213h-6.719Zm34.773,0h6.051V-21.818h-6.051Zm3.04-24.631a3.188,3.188,0,0,0,3.281-3.068,3.186,3.186,0,0,0-3.281-3.054,3.182,3.182,0,0,0-3.267,3.054A3.184,3.184,0,0,0,190.625-24.631Zm13.892-4.46h-6.051V0h6.051Zm10.881,0h-6.051V0H215.4ZM220.227,0h6.051V-21.818h-6.051Zm3.04-24.631a3.188,3.188,0,0,0,3.281-3.068,3.186,3.186,0,0,0-3.281-3.054A3.182,3.182,0,0,0,220-27.7,3.184,3.184,0,0,0,223.267-24.631ZM237.33.412c3.224,0,5.313-1.406,6.378-3.437h.17V0h5.739V-14.716c0-5.2-4.4-7.386-9.261-7.386-5.227,0-8.665,2.5-9.5,6.477l5.6.455c.412-1.449,1.7-2.514,3.878-2.514,2.06,0,3.239,1.037,3.239,2.827v.085c0,1.406-1.491,1.591-5.284,1.96-4.318.4-8.2,1.847-8.2,6.719C230.085-1.776,233.168.412,237.33.412Zm1.733-4.176c-1.861,0-3.2-.866-3.2-2.528,0-1.7,1.406-2.543,3.537-2.841a14.552,14.552,0,0,0,4.2-.98V-7.8C243.608-5.511,241.719-3.764,239.062-3.764ZM254.318,0h6.051V-13.1c0-2.415,1.534-4.02,3.551-4.02a3.213,3.213,0,0,1,3.324,3.509V0h5.866V-13.324c0-2.259,1.293-3.793,3.494-3.793,1.932,0,3.381,1.207,3.381,3.636V0h6.037V-14.673c0-4.73-2.812-7.429-6.875-7.429-3.2,0-5.682,1.634-6.577,4.134h-.227A5.757,5.757,0,0,0,266.42-22.1a6.123,6.123,0,0,0-6.08,4.134h-.256v-3.849h-5.767Zm54.631-15.6c-.54-4.02-3.778-6.506-9.29-6.506-5.582,0-9.261,2.585-9.247,6.79-.014,3.267,2.045,5.384,6.307,6.236l3.778.753c1.9.384,2.77,1.08,2.8,2.173-.028,1.293-1.435,2.216-3.551,2.216-2.159,0-3.594-.923-3.963-2.7l-5.952.313c.568,4.176,4.119,6.747,9.9,6.747,5.653,0,9.7-2.884,9.716-7.187-.014-3.153-2.074-5.043-6.307-5.909l-3.949-.8c-2.031-.44-2.784-1.136-2.77-2.187-.014-1.307,1.463-2.159,3.338-2.159a3.409,3.409,0,0,1,3.651,2.557Z" transform="translate(544.669 889.785)" fill="#929baa"/>
    <g id="Group_21678" data-name="Group 21678" transform="translate(851.177 974.384)">
      <g id="Group_21672" data-name="Group 21672" clip-path="url(#clip-path)">
        <path id="Path_28534" data-name="Path 28534" d="M0,193.248v-.719l2.212-1.581,14.17-10.168,1.99,1.549a1.516,1.516,0,0,0,1.863,0l1.989-1.548,11.747,8.484,4.586,3.056v.926Z" transform="translate(0 -164.689)" fill="#dce1e8"/>
        <path id="Path_28535" data-name="Path 28535" d="M0,37.515l14.85,11.56L0,59.731Z" transform="translate(0 -34.176)" fill="#dce1e8"/>
        <path id="Path_28536" data-name="Path 28536" d="M266.848,49.078,281.7,37.516v22.29Z" transform="translate(-243.095 -34.176)" fill="#dce1e8"/>
        <path id="Path_28537" data-name="Path 28537" d="M1.194,1.91,0,.942V0H38.606V1.02l-1.19.887L19.3,16.007Z" transform="translate(0 -0.001)" fill="#dce1e8"/>
      </g>
    </g>
    <g id="Group_21679" data-name="Group 21679" transform="translate(546.139 971.962)">
      <g id="Group_21674" data-name="Group 21674" clip-path="url(#clip-path-2)">
        <path id="Path_28538" data-name="Path 28538" d="M29.764,24.493a.2.2,0,0,0-.025-.041,3.3,3.3,0,0,0-.82-.547,3.994,3.994,0,0,0-.361-.183l-.029-.014h0c-.085-.038-.174-.075-.268-.111-.966-.386-2.861-1.109-4.245-1.637-.775-.3-1.392-.531-1.556-.6a1.637,1.637,0,0,0-1.634-.01c-.085.046-.165.087-.244.127a5.392,5.392,0,0,0-.685.4,1.65,1.65,0,0,0-.366.316,10.253,10.253,0,0,0-1.342,1.244l-.032.03c-.321.3-.527.489-.908.4-6.01-3.225-9.313-10.643-9.313-10.643-.041-.389.176-.568.514-.847l.034-.028a10.247,10.247,0,0,0,1.411-1.165,1.648,1.648,0,0,0,.362-.321,5.39,5.39,0,0,0,.485-.626c.05-.073.1-.147.158-.225a1.637,1.637,0,0,0,.207-1.621c-.043-.172-.195-.815-.385-1.622-.34-1.441-.8-3.415-1.059-4.425a3.926,3.926,0,0,0-.339-.952C8.676-.826,5.371.27,5.371.27a2.894,2.894,0,0,0-.555.168h0A7.275,7.275,0,0,0,.706,4.89v0A9.972,9.972,0,0,0,.1,7.091,8.747,8.747,0,0,0,.116,9.827,16.641,16.641,0,0,0,1.964,15.55l.061.12c.015.031.039.084.072.157a5.6,5.6,0,0,0,.489.775c1.475,2.4,5.472,8.385,10.9,12.385h0a3.6,3.6,0,0,0,.408.32l.146.092.111.077a16.637,16.637,0,0,0,5.427,2.591,8.749,8.749,0,0,0,2.71.38,9.955,9.955,0,0,0,2.283-.316A7.316,7.316,0,0,0,29.5,28.669a2.94,2.94,0,0,0,.152-.294h0s1.252-2.615.113-3.881" transform="translate(0 0.001)" fill="#dce1e8"/>
      </g>
    </g>
    <path id="Path_96444" data-name="Path 96444" d="M16.96,0H191.407a16.96,16.96,0,1,1,0,33.92H16.96A16.96,16.96,0,0,1,16.96,0Z" transform="translate(587.063 970.942)" fill="#dce1e8"/>
    <path id="Path_96445" data-name="Path 96445" d="M16.96,0H327.088a16.96,16.96,0,1,1,0,33.92H16.96A16.96,16.96,0,0,1,16.96,0Z" transform="translate(900.465 970.942)" fill="#dce1e8"/>
    <path id="Path_96441" data-name="Path 96441" d="M5,0H181.35a5,5,0,0,1,5,5V181.35a5,5,0,0,1-5,5H5a5,5,0,0,1-5-5V5A5,5,0,0,1,5,0Z" transform="translate(311.454 837.051)" fill="#f73e3e"/>
  </g>
</svg>
