<svg xmlns="http://www.w3.org/2000/svg" xmlns:xlink="http://www.w3.org/1999/xlink" width="196" height="438" viewBox="0 0 196 438">
  <defs>
    <clipPath id="clip-seamless_accent-dot-rectangle-vrt">
      <rect width="196" height="438"/>
    </clipPath>
  </defs>
  <g id="seamless_accent-dot-rectangle-vrt" clip-path="url(#clip-seamless_accent-dot-rectangle-vrt)">
    <path id="Path_57478" data-name="Path 57478" d="M2.538,2.536a1.486,1.486,0,1,1,0-2.1,1.483,1.483,0,0,1,0,2.1" transform="translate(9.463 185.141) rotate(45)" fill="#7fb1f8" stroke="#7fb1f8" stroke-width="1"/>
    <path id="Path_57488" data-name="Path 57488" d="M2.538,2.536a1.486,1.486,0,1,1,0-2.1,1.483,1.483,0,0,1,0,2.1" transform="translate(108.527 185.141) rotate(45)" fill="#7fb1f8" stroke="#7fb1f8" stroke-width="1"/>
    <path id="Path_57479" data-name="Path 57479" d="M2.538,2.536a1.486,1.486,0,1,1,0-2.1,1.483,1.483,0,0,1,0,2.1" transform="translate(29.275 185.141) rotate(45)" fill="#7fb1f8" stroke="#7fb1f8" stroke-width="1"/>
    <path id="Path_57489" data-name="Path 57489" d="M2.538,2.536a1.486,1.486,0,1,1,0-2.1,1.483,1.483,0,0,1,0,2.1" transform="translate(128.34 185.141) rotate(45)" fill="#7fb1f8" stroke="#7fb1f8" stroke-width="1"/>
    <path id="Path_57480" data-name="Path 57480" d="M2.538,2.538a1.486,1.486,0,1,1,0-2.1,1.486,1.486,0,0,1,0,2.1" transform="translate(49.09 185.139) rotate(45)" fill="#7fb1f8" stroke="#7fb1f8" stroke-width="1"/>
    <path id="Path_57532" data-name="Path 57532" d="M2.538,2.538a1.486,1.486,0,1,1,0-2.1,1.486,1.486,0,0,1,0,2.1" transform="translate(148.155 185.139) rotate(45)" fill="#7fb1f8" stroke="#7fb1f8" stroke-width="1"/>
    <path id="Path_57490" data-name="Path 57490" d="M2.538,2.538a1.486,1.486,0,1,1,0-2.1,1.486,1.486,0,0,1,0,2.1" transform="translate(68.903 185.139) rotate(45)" fill="#7fb1f8" stroke="#7fb1f8" stroke-width="1"/>
    <path id="Path_57556" data-name="Path 57556" d="M2.538,2.538a1.486,1.486,0,1,1,0-2.1,1.486,1.486,0,0,1,0,2.1" transform="translate(167.967 185.139) rotate(45)" fill="#7fb1f8" stroke="#7fb1f8" stroke-width="1"/>
    <path id="Path_57491" data-name="Path 57491" d="M2.539,2.538a1.487,1.487,0,1,1,0-2.1,1.489,1.489,0,0,1,0,2.1" transform="translate(88.715 185.139) rotate(45)" fill="#7fb1f8" stroke="#7fb1f8" stroke-width="1"/>
    <path id="Path_57575" data-name="Path 57575" d="M2.539,2.538a1.487,1.487,0,1,1,0-2.1,1.489,1.489,0,0,1,0,2.1" transform="translate(187.78 185.139) rotate(45)" fill="#7fb1f8" stroke="#7fb1f8" stroke-width="1"/>
    <path id="Path_57481" data-name="Path 57481" d="M2.538,2.536a1.486,1.486,0,1,1,0-2.1,1.483,1.483,0,0,1,0,2.1" transform="translate(9.463 165.328) rotate(45)" fill="#7fb1f8" stroke="#7fb1f8" stroke-width="1"/>
    <path id="Path_57492" data-name="Path 57492" d="M2.538,2.536a1.486,1.486,0,1,1,0-2.1,1.483,1.483,0,0,1,0,2.1" transform="translate(108.528 165.328) rotate(45)" fill="#7fb1f8" stroke="#7fb1f8" stroke-width="1"/>
    <path id="Path_57482" data-name="Path 57482" d="M2.538,2.538a1.486,1.486,0,1,1,0-2.1,1.486,1.486,0,0,1,0,2.1" transform="translate(29.278 165.327) rotate(45)" fill="#7fb1f8" stroke="#7fb1f8" stroke-width="1"/>
    <path id="Path_57493" data-name="Path 57493" d="M2.538,2.538a1.486,1.486,0,1,1,0-2.1,1.486,1.486,0,0,1,0,2.1" transform="translate(128.343 165.327) rotate(45)" fill="#7fb1f8" stroke="#7fb1f8" stroke-width="1"/>
    <path id="Path_57483" data-name="Path 57483" d="M2.538,2.538a1.486,1.486,0,1,1,0-2.1,1.486,1.486,0,0,1,0,2.1" transform="translate(49.091 165.327) rotate(45)" fill="#7fb1f8" stroke="#7fb1f8" stroke-width="1"/>
    <path id="Path_57533" data-name="Path 57533" d="M2.538,2.538a1.486,1.486,0,1,1,0-2.1,1.486,1.486,0,0,1,0,2.1" transform="translate(148.155 165.327) rotate(45)" fill="#7fb1f8" stroke="#7fb1f8" stroke-width="1"/>
    <path id="Path_57494" data-name="Path 57494" d="M2.538,2.538a1.486,1.486,0,1,1,0-2.1,1.486,1.486,0,0,1,0,2.1" transform="translate(68.903 165.327) rotate(45)" fill="#7fb1f8" stroke="#7fb1f8" stroke-width="1"/>
    <path id="Path_57557" data-name="Path 57557" d="M2.538,2.538a1.486,1.486,0,1,1,0-2.1,1.486,1.486,0,0,1,0,2.1" transform="translate(167.968 165.327) rotate(45)" fill="#7fb1f8" stroke="#7fb1f8" stroke-width="1"/>
    <path id="Path_57495" data-name="Path 57495" d="M2.538,2.538a1.486,1.486,0,1,1,0-2.1,1.486,1.486,0,0,1,0,2.1" transform="translate(88.716 165.327) rotate(45)" fill="#7fb1f8" stroke="#7fb1f8" stroke-width="1"/>
    <path id="Path_57576" data-name="Path 57576" d="M2.538,2.538a1.486,1.486,0,1,1,0-2.1,1.486,1.486,0,0,1,0,2.1" transform="translate(187.78 165.327) rotate(45)" fill="#7fb1f8" stroke="#7fb1f8" stroke-width="1"/>
    <path id="Path_57496" data-name="Path 57496" d="M2.538,2.538a1.486,1.486,0,1,1,0-2.1,1.486,1.486,0,0,1,0,2.1" transform="translate(9.465 145.514) rotate(45)" fill="#7fb1f8" stroke="#7fb1f8" stroke-width="1"/>
    <path id="Path_57497" data-name="Path 57497" d="M2.538,2.538a1.486,1.486,0,1,1,0-2.1,1.486,1.486,0,0,1,0,2.1" transform="translate(108.53 145.515) rotate(45)" fill="#7fb1f8" stroke="#7fb1f8" stroke-width="1"/>
    <path id="Path_57498" data-name="Path 57498" d="M2.538,2.538a1.486,1.486,0,1,1,0-2.1,1.486,1.486,0,0,1,0,2.1" transform="translate(29.278 145.514) rotate(45)" fill="#7fb1f8" stroke="#7fb1f8" stroke-width="1"/>
    <path id="Path_57499" data-name="Path 57499" d="M2.538,2.538a1.486,1.486,0,1,1,0-2.1,1.486,1.486,0,0,1,0,2.1" transform="translate(128.342 145.515) rotate(45)" fill="#7fb1f8" stroke="#7fb1f8" stroke-width="1"/>
    <path id="Path_57500" data-name="Path 57500" d="M2.538,2.538a1.486,1.486,0,1,1,0-2.1,1.486,1.486,0,0,1,0,2.1" transform="translate(49.09 145.514) rotate(45)" fill="#7fb1f8" stroke="#7fb1f8" stroke-width="1"/>
    <path id="Path_57534" data-name="Path 57534" d="M2.538,2.538a1.486,1.486,0,1,1,0-2.1,1.486,1.486,0,0,1,0,2.1" transform="translate(148.155 145.514) rotate(45)" fill="#7fb1f8" stroke="#7fb1f8" stroke-width="1"/>
    <path id="Path_57501" data-name="Path 57501" d="M2.538,2.538a1.486,1.486,0,1,1,0-2.1,1.486,1.486,0,0,1,0,2.1" transform="translate(68.903 145.514) rotate(45)" fill="#7fb1f8" stroke="#7fb1f8" stroke-width="1"/>
    <path id="Path_57558" data-name="Path 57558" d="M2.538,2.538a1.486,1.486,0,1,1,0-2.1,1.486,1.486,0,0,1,0,2.1" transform="translate(167.967 145.514) rotate(45)" fill="#7fb1f8" stroke="#7fb1f8" stroke-width="1"/>
    <path id="Path_57502" data-name="Path 57502" d="M2.538,2.538a1.486,1.486,0,1,1,0-2.1,1.486,1.486,0,0,1,0,2.1" transform="translate(88.715 145.514) rotate(45)" fill="#7fb1f8" stroke="#7fb1f8" stroke-width="1"/>
    <path id="Path_57577" data-name="Path 57577" d="M2.538,2.538a1.486,1.486,0,1,1,0-2.1,1.486,1.486,0,0,1,0,2.1" transform="translate(187.78 145.514) rotate(45)" fill="#7fb1f8" stroke="#7fb1f8" stroke-width="1"/>
    <path id="Path_57503" data-name="Path 57503" d="M2.538,2.538a1.486,1.486,0,1,1,0-2.1,1.486,1.486,0,0,1,0,2.1" transform="translate(9.465 125.702) rotate(45)" fill="#7fb1f8" stroke="#7fb1f8" stroke-width="1"/>
    <path id="Path_57504" data-name="Path 57504" d="M2.538,2.538a1.486,1.486,0,1,1,0-2.1,1.486,1.486,0,0,1,0,2.1" transform="translate(108.53 125.702) rotate(45)" fill="#7fb1f8" stroke="#7fb1f8" stroke-width="1"/>
    <path id="Path_57505" data-name="Path 57505" d="M2.538,2.538a1.486,1.486,0,1,1,0-2.1,1.486,1.486,0,0,1,0,2.1" transform="translate(29.278 125.702) rotate(45)" fill="#7fb1f8" stroke="#7fb1f8" stroke-width="1"/>
    <path id="Path_57506" data-name="Path 57506" d="M2.538,2.538a1.486,1.486,0,1,1,0-2.1,1.486,1.486,0,0,1,0,2.1" transform="translate(128.342 125.702) rotate(45)" fill="#7fb1f8" stroke="#7fb1f8" stroke-width="1"/>
    <path id="Path_57507" data-name="Path 57507" d="M2.538,2.538a1.486,1.486,0,1,1,0-2.1,1.486,1.486,0,0,1,0,2.1" transform="translate(49.09 125.702) rotate(45)" fill="#7fb1f8" stroke="#7fb1f8" stroke-width="1"/>
    <path id="Path_57535" data-name="Path 57535" d="M2.538,2.538a1.486,1.486,0,1,1,0-2.1,1.486,1.486,0,0,1,0,2.1" transform="translate(148.155 125.702) rotate(45)" fill="#7fb1f8" stroke="#7fb1f8" stroke-width="1"/>
    <path id="Path_57508" data-name="Path 57508" d="M2.538,2.538a1.486,1.486,0,1,1,0-2.1,1.486,1.486,0,0,1,0,2.1" transform="translate(68.903 125.702) rotate(45)" fill="#7fb1f8" stroke="#7fb1f8" stroke-width="1"/>
    <path id="Path_57559" data-name="Path 57559" d="M2.538,2.538a1.486,1.486,0,1,1,0-2.1,1.486,1.486,0,0,1,0,2.1" transform="translate(167.967 125.702) rotate(45)" fill="#7fb1f8" stroke="#7fb1f8" stroke-width="1"/>
    <path id="Path_57509" data-name="Path 57509" d="M2.538,2.538a1.486,1.486,0,1,1,0-2.1,1.486,1.486,0,0,1,0,2.1" transform="translate(88.715 125.702) rotate(45)" fill="#7fb1f8" stroke="#7fb1f8" stroke-width="1"/>
    <path id="Path_57578" data-name="Path 57578" d="M2.538,2.538a1.486,1.486,0,1,1,0-2.1,1.486,1.486,0,0,1,0,2.1" transform="translate(187.78 125.702) rotate(45)" fill="#7fb1f8" stroke="#7fb1f8" stroke-width="1"/>
    <path id="Path_57510" data-name="Path 57510" d="M2.538,2.538a1.486,1.486,0,1,1,0-2.1,1.486,1.486,0,0,1,0,2.1" transform="translate(9.465 105.89) rotate(45)" fill="#7fb1f8" stroke="#7fb1f8" stroke-width="1"/>
    <path id="Path_57511" data-name="Path 57511" d="M2.538,2.538a1.486,1.486,0,1,1,0-2.1,1.486,1.486,0,0,1,0,2.1" transform="translate(108.529 105.89) rotate(45)" fill="#7fb1f8" stroke="#7fb1f8" stroke-width="1"/>
    <path id="Path_57512" data-name="Path 57512" d="M2.538,2.538a1.486,1.486,0,1,1,0-2.1,1.486,1.486,0,0,1,0,2.1" transform="translate(29.277 105.89) rotate(45)" fill="#7fb1f8" stroke="#7fb1f8" stroke-width="1"/>
    <path id="Path_57513" data-name="Path 57513" d="M2.538,2.538a1.486,1.486,0,1,1,0-2.1,1.486,1.486,0,0,1,0,2.1" transform="translate(128.342 105.89) rotate(45)" fill="#7fb1f8" stroke="#7fb1f8" stroke-width="1"/>
    <path id="Path_57514" data-name="Path 57514" d="M2.538,2.538a1.486,1.486,0,1,1,0-2.1,1.486,1.486,0,0,1,0,2.1" transform="translate(49.09 105.89) rotate(45)" fill="#7fb1f8" stroke="#7fb1f8" stroke-width="1"/>
    <path id="Path_57536" data-name="Path 57536" d="M2.538,2.538a1.486,1.486,0,1,1,0-2.1,1.486,1.486,0,0,1,0,2.1" transform="translate(148.154 105.89) rotate(45)" fill="#7fb1f8" stroke="#7fb1f8" stroke-width="1"/>
    <path id="Path_57515" data-name="Path 57515" d="M2.538,2.538a1.486,1.486,0,1,1,0-2.1,1.486,1.486,0,0,1,0,2.1" transform="translate(68.902 105.89) rotate(45)" fill="#7fb1f8" stroke="#7fb1f8" stroke-width="1"/>
    <path id="Path_57560" data-name="Path 57560" d="M2.538,2.538a1.486,1.486,0,1,1,0-2.1,1.486,1.486,0,0,1,0,2.1" transform="translate(167.967 105.89) rotate(45)" fill="#7fb1f8" stroke="#7fb1f8" stroke-width="1"/>
    <path id="Path_57516" data-name="Path 57516" d="M2.538,2.538a1.486,1.486,0,1,1,0-2.1,1.486,1.486,0,0,1,0,2.1" transform="translate(88.715 105.889) rotate(45)" fill="#7fb1f8" stroke="#7fb1f8" stroke-width="1"/>
    <path id="Path_57579" data-name="Path 57579" d="M2.538,2.538a1.486,1.486,0,1,1,0-2.1,1.486,1.486,0,0,1,0,2.1" transform="translate(187.779 105.89) rotate(45)" fill="#7fb1f8" stroke="#7fb1f8" stroke-width="1"/>
    <path id="Path_57517" data-name="Path 57517" d="M2.538,2.538a1.486,1.486,0,1,1,0-2.1,1.486,1.486,0,0,1,0,2.1" transform="translate(9.465 86.077) rotate(45)" fill="#7fb1f8" stroke="#7fb1f8" stroke-width="1"/>
    <path id="Path_57518" data-name="Path 57518" d="M2.538,2.538a1.486,1.486,0,1,1,0-2.1,1.486,1.486,0,0,1,0,2.1" transform="translate(108.529 86.077) rotate(45)" fill="#7fb1f8" stroke="#7fb1f8" stroke-width="1"/>
    <path id="Path_57519" data-name="Path 57519" d="M2.538,2.538a1.486,1.486,0,1,1,0-2.1,1.486,1.486,0,0,1,0,2.1" transform="translate(29.277 86.077) rotate(45)" fill="#7fb1f8" stroke="#7fb1f8" stroke-width="1"/>
    <path id="Path_57520" data-name="Path 57520" d="M2.538,2.538a1.486,1.486,0,1,1,0-2.1,1.486,1.486,0,0,1,0,2.1" transform="translate(128.342 86.077) rotate(45)" fill="#7fb1f8" stroke="#7fb1f8" stroke-width="1"/>
    <path id="Path_57521" data-name="Path 57521" d="M2.538,2.538a1.486,1.486,0,1,1,0-2.1,1.486,1.486,0,0,1,0,2.1" transform="translate(49.09 86.077) rotate(45)" fill="#7fb1f8" stroke="#7fb1f8" stroke-width="1"/>
    <path id="Path_57537" data-name="Path 57537" d="M2.538,2.538a1.486,1.486,0,1,1,0-2.1,1.486,1.486,0,0,1,0,2.1" transform="translate(148.154 86.077) rotate(45)" fill="#7fb1f8" stroke="#7fb1f8" stroke-width="1"/>
    <path id="Path_57522" data-name="Path 57522" d="M2.538,2.538a1.486,1.486,0,1,1,0-2.1,1.486,1.486,0,0,1,0,2.1" transform="translate(68.902 86.077) rotate(45)" fill="#7fb1f8" stroke="#7fb1f8" stroke-width="1"/>
    <path id="Path_57561" data-name="Path 57561" d="M2.538,2.538a1.486,1.486,0,1,1,0-2.1,1.486,1.486,0,0,1,0,2.1" transform="translate(167.967 86.077) rotate(45)" fill="#7fb1f8" stroke="#7fb1f8" stroke-width="1"/>
    <path id="Path_57523" data-name="Path 57523" d="M2.538,2.538a1.486,1.486,0,1,1,0-2.1,1.486,1.486,0,0,1,0,2.1" transform="translate(88.715 86.076) rotate(45)" fill="#7fb1f8" stroke="#7fb1f8" stroke-width="1"/>
    <path id="Path_57580" data-name="Path 57580" d="M2.538,2.538a1.486,1.486,0,1,1,0-2.1,1.486,1.486,0,0,1,0,2.1" transform="translate(187.779 86.077) rotate(45)" fill="#7fb1f8" stroke="#7fb1f8" stroke-width="1"/>
    <path id="Path_57524" data-name="Path 57524" d="M2.538,2.538a1.486,1.486,0,1,1,0-2.1,1.486,1.486,0,0,1,0,2.1" transform="translate(9.465 66.265) rotate(45)" fill="#7fb1f8" stroke="#7fb1f8" stroke-width="1"/>
    <path id="Path_57525" data-name="Path 57525" d="M2.538,2.538a1.486,1.486,0,1,1,0-2.1,1.486,1.486,0,0,1,0,2.1" transform="translate(108.529 66.265) rotate(45)" fill="#7fb1f8" stroke="#7fb1f8" stroke-width="1"/>
    <path id="Path_57526" data-name="Path 57526" d="M2.538,2.538a1.486,1.486,0,1,1,0-2.1,1.486,1.486,0,0,1,0,2.1" transform="translate(29.277 66.265) rotate(45)" fill="#7fb1f8" stroke="#7fb1f8" stroke-width="1"/>
    <path id="Path_57527" data-name="Path 57527" d="M2.538,2.538a1.486,1.486,0,1,1,0-2.1,1.486,1.486,0,0,1,0,2.1" transform="translate(128.342 66.265) rotate(45)" fill="#7fb1f8" stroke="#7fb1f8" stroke-width="1"/>
    <path id="Path_57528" data-name="Path 57528" d="M2.538,2.538a1.486,1.486,0,1,1,0-2.1,1.486,1.486,0,0,1,0,2.1" transform="translate(49.09 66.265) rotate(45)" fill="#7fb1f8" stroke="#7fb1f8" stroke-width="1"/>
    <path id="Path_57538" data-name="Path 57538" d="M2.538,2.538a1.486,1.486,0,1,1,0-2.1,1.486,1.486,0,0,1,0,2.1" transform="translate(148.154 66.265) rotate(45)" fill="#7fb1f8" stroke="#7fb1f8" stroke-width="1"/>
    <path id="Path_57529" data-name="Path 57529" d="M2.538,2.538a1.486,1.486,0,1,1,0-2.1,1.486,1.486,0,0,1,0,2.1" transform="translate(68.902 66.265) rotate(45)" fill="#7fb1f8" stroke="#7fb1f8" stroke-width="1"/>
    <path id="Path_57562" data-name="Path 57562" d="M2.538,2.538a1.486,1.486,0,1,1,0-2.1,1.486,1.486,0,0,1,0,2.1" transform="translate(167.967 66.265) rotate(45)" fill="#7fb1f8" stroke="#7fb1f8" stroke-width="1"/>
    <path id="Path_57530" data-name="Path 57530" d="M2.538,2.538a1.486,1.486,0,1,1,0-2.1,1.486,1.486,0,0,1,0,2.1" transform="translate(88.715 66.264) rotate(45)" fill="#7fb1f8" stroke="#7fb1f8" stroke-width="1"/>
    <path id="Path_57581" data-name="Path 57581" d="M2.538,2.538a1.486,1.486,0,1,1,0-2.1,1.486,1.486,0,0,1,0,2.1" transform="translate(187.779 66.265) rotate(45)" fill="#7fb1f8" stroke="#7fb1f8" stroke-width="1"/>
    <path id="Path_57539" data-name="Path 57539" d="M2.538,2.538a1.486,1.486,0,1,1,0-2.1,1.486,1.486,0,0,1,0,2.1" transform="translate(9.465 46.452) rotate(45)" fill="#7fb1f8" stroke="#7fb1f8" stroke-width="1"/>
    <path id="Path_57540" data-name="Path 57540" d="M2.538,2.538a1.486,1.486,0,1,1,0-2.1,1.486,1.486,0,0,1,0,2.1" transform="translate(108.529 46.452) rotate(45)" fill="#7fb1f8" stroke="#7fb1f8" stroke-width="1"/>
    <path id="Path_57541" data-name="Path 57541" d="M2.538,2.538a1.486,1.486,0,1,1,0-2.1,1.486,1.486,0,0,1,0,2.1" transform="translate(29.277 46.452) rotate(45)" fill="#7fb1f8" stroke="#7fb1f8" stroke-width="1"/>
    <path id="Path_57542" data-name="Path 57542" d="M2.538,2.538a1.486,1.486,0,1,1,0-2.1,1.486,1.486,0,0,1,0,2.1" transform="translate(128.342 46.452) rotate(45)" fill="#7fb1f8" stroke="#7fb1f8" stroke-width="1"/>
    <path id="Path_57543" data-name="Path 57543" d="M2.538,2.538a1.486,1.486,0,1,1,0-2.1,1.486,1.486,0,0,1,0,2.1" transform="translate(49.09 46.452) rotate(45)" fill="#7fb1f8" stroke="#7fb1f8" stroke-width="1"/>
    <path id="Path_57544" data-name="Path 57544" d="M2.538,2.538a1.486,1.486,0,1,1,0-2.1,1.486,1.486,0,0,1,0,2.1" transform="translate(148.154 46.452) rotate(45)" fill="#7fb1f8" stroke="#7fb1f8" stroke-width="1"/>
    <path id="Path_57545" data-name="Path 57545" d="M2.538,2.538a1.486,1.486,0,1,1,0-2.1,1.486,1.486,0,0,1,0,2.1" transform="translate(68.902 46.452) rotate(45)" fill="#7fb1f8" stroke="#7fb1f8" stroke-width="1"/>
    <path id="Path_57563" data-name="Path 57563" d="M2.538,2.538a1.486,1.486,0,1,1,0-2.1,1.486,1.486,0,0,1,0,2.1" transform="translate(167.967 46.452) rotate(45)" fill="#7fb1f8" stroke="#7fb1f8" stroke-width="1"/>
    <path id="Path_57546" data-name="Path 57546" d="M2.538,2.538a1.486,1.486,0,1,1,0-2.1,1.486,1.486,0,0,1,0,2.1" transform="translate(88.715 46.451) rotate(45)" fill="#7fb1f8" stroke="#7fb1f8" stroke-width="1"/>
    <path id="Path_57582" data-name="Path 57582" d="M2.538,2.538a1.486,1.486,0,1,1,0-2.1,1.486,1.486,0,0,1,0,2.1" transform="translate(187.779 46.452) rotate(45)" fill="#7fb1f8" stroke="#7fb1f8" stroke-width="1"/>
    <path id="Path_57547" data-name="Path 57547" d="M2.538,2.538a1.486,1.486,0,1,1,0-2.1,1.486,1.486,0,0,1,0,2.1" transform="translate(9.465 26.64) rotate(45)" fill="#7fb1f8" stroke="#7fb1f8" stroke-width="1"/>
    <path id="Path_57548" data-name="Path 57548" d="M2.538,2.538a1.486,1.486,0,1,1,0-2.1,1.486,1.486,0,0,1,0,2.1" transform="translate(108.529 26.64) rotate(45)" fill="#7fb1f8" stroke="#7fb1f8" stroke-width="1"/>
    <path id="Path_57549" data-name="Path 57549" d="M2.538,2.538a1.486,1.486,0,1,1,0-2.1,1.486,1.486,0,0,1,0,2.1" transform="translate(29.277 26.64) rotate(45)" fill="#7fb1f8" stroke="#7fb1f8" stroke-width="1"/>
    <path id="Path_57550" data-name="Path 57550" d="M2.538,2.538a1.486,1.486,0,1,1,0-2.1,1.486,1.486,0,0,1,0,2.1" transform="translate(128.342 26.64) rotate(45)" fill="#7fb1f8" stroke="#7fb1f8" stroke-width="1"/>
    <path id="Path_57551" data-name="Path 57551" d="M2.538,2.538a1.486,1.486,0,1,1,0-2.1,1.486,1.486,0,0,1,0,2.1" transform="translate(49.09 26.64) rotate(45)" fill="#7fb1f8" stroke="#7fb1f8" stroke-width="1"/>
    <path id="Path_57552" data-name="Path 57552" d="M2.538,2.538a1.486,1.486,0,1,1,0-2.1,1.486,1.486,0,0,1,0,2.1" transform="translate(148.154 26.64) rotate(45)" fill="#7fb1f8" stroke="#7fb1f8" stroke-width="1"/>
    <path id="Path_57553" data-name="Path 57553" d="M2.538,2.538a1.486,1.486,0,1,1,0-2.1,1.486,1.486,0,0,1,0,2.1" transform="translate(68.902 26.64) rotate(45)" fill="#7fb1f8" stroke="#7fb1f8" stroke-width="1"/>
    <path id="Path_57564" data-name="Path 57564" d="M2.538,2.538a1.486,1.486,0,1,1,0-2.1,1.486,1.486,0,0,1,0,2.1" transform="translate(167.967 26.64) rotate(45)" fill="#7fb1f8" stroke="#7fb1f8" stroke-width="1"/>
    <path id="Path_57554" data-name="Path 57554" d="M2.538,2.538a1.486,1.486,0,1,1,0-2.1,1.486,1.486,0,0,1,0,2.1" transform="translate(88.715 26.639) rotate(45)" fill="#7fb1f8" stroke="#7fb1f8" stroke-width="1"/>
    <path id="Path_57583" data-name="Path 57583" d="M2.538,2.538a1.486,1.486,0,1,1,0-2.1,1.486,1.486,0,0,1,0,2.1" transform="translate(187.779 26.64) rotate(45)" fill="#7fb1f8" stroke="#7fb1f8" stroke-width="1"/>
    <path id="Path_57565" data-name="Path 57565" d="M2.538,2.538a1.486,1.486,0,1,1,0-2.1,1.486,1.486,0,0,1,0,2.1" transform="translate(9.465 6.827) rotate(45)" fill="#7fb1f8" stroke="#7fb1f8" stroke-width="1"/>
    <path id="Path_57566" data-name="Path 57566" d="M2.538,2.538a1.486,1.486,0,1,1,0-2.1,1.486,1.486,0,0,1,0,2.1" transform="translate(108.529 6.827) rotate(45)" fill="#7fb1f8" stroke="#7fb1f8" stroke-width="1"/>
    <path id="Path_57567" data-name="Path 57567" d="M2.538,2.538a1.486,1.486,0,1,1,0-2.1,1.486,1.486,0,0,1,0,2.1" transform="translate(29.277 6.827) rotate(45)" fill="#7fb1f8" stroke="#7fb1f8" stroke-width="1"/>
    <path id="Path_57568" data-name="Path 57568" d="M2.538,2.538a1.486,1.486,0,1,1,0-2.1,1.486,1.486,0,0,1,0,2.1" transform="translate(128.342 6.827) rotate(45)" fill="#7fb1f8" stroke="#7fb1f8" stroke-width="1"/>
    <path id="Path_57569" data-name="Path 57569" d="M2.538,2.538a1.486,1.486,0,1,1,0-2.1,1.486,1.486,0,0,1,0,2.1" transform="translate(49.09 6.827) rotate(45)" fill="#7fb1f8" stroke="#7fb1f8" stroke-width="1"/>
    <path id="Path_57570" data-name="Path 57570" d="M2.538,2.538a1.486,1.486,0,1,1,0-2.1,1.486,1.486,0,0,1,0,2.1" transform="translate(148.154 6.827) rotate(45)" fill="#7fb1f8" stroke="#7fb1f8" stroke-width="1"/>
    <path id="Path_57571" data-name="Path 57571" d="M2.538,2.538a1.486,1.486,0,1,1,0-2.1,1.486,1.486,0,0,1,0,2.1" transform="translate(68.902 6.827) rotate(45)" fill="#7fb1f8" stroke="#7fb1f8" stroke-width="1"/>
    <path id="Path_57572" data-name="Path 57572" d="M2.538,2.538a1.486,1.486,0,1,1,0-2.1,1.486,1.486,0,0,1,0,2.1" transform="translate(167.967 6.827) rotate(45)" fill="#7fb1f8" stroke="#7fb1f8" stroke-width="1"/>
    <path id="Path_57573" data-name="Path 57573" d="M2.538,2.538a1.486,1.486,0,1,1,0-2.1,1.486,1.486,0,0,1,0,2.1" transform="translate(88.715 6.826) rotate(45)" fill="#7fb1f8" stroke="#7fb1f8" stroke-width="1"/>
    <path id="Path_57584" data-name="Path 57584" d="M2.538,2.538a1.486,1.486,0,1,1,0-2.1,1.486,1.486,0,0,1,0,2.1" transform="translate(187.779 6.827) rotate(45)" fill="#7fb1f8" stroke="#7fb1f8" stroke-width="1"/>
    <path id="Path_57087" data-name="Path 57087" d="M2.538,2.536a1.486,1.486,0,1,1,0-2.1,1.483,1.483,0,0,1,0,2.1" transform="translate(9.463 403.08) rotate(45)" fill="#7fb1f8" stroke="#7fb1f8" stroke-width="1"/>
    <path id="Path_57445" data-name="Path 57445" d="M2.538,2.536a1.486,1.486,0,1,1,0-2.1,1.483,1.483,0,0,1,0,2.1" transform="translate(108.527 403.08) rotate(45)" fill="#7fb1f8" stroke="#7fb1f8" stroke-width="1"/>
    <path id="Path_57089" data-name="Path 57089" d="M2.538,2.536a1.486,1.486,0,1,1,0-2.1,1.483,1.483,0,0,1,0,2.1" transform="translate(29.275 403.08) rotate(45)" fill="#7fb1f8" stroke="#7fb1f8" stroke-width="1"/>
    <path id="Path_57430" data-name="Path 57430" d="M2.538,2.536a1.486,1.486,0,1,1,0-2.1,1.483,1.483,0,0,1,0,2.1" transform="translate(128.34 403.08) rotate(45)" fill="#7fb1f8" stroke="#7fb1f8" stroke-width="1"/>
    <path id="Path_57091" data-name="Path 57091" d="M2.538,2.538a1.486,1.486,0,1,1,0-2.1,1.486,1.486,0,0,1,0,2.1" transform="translate(49.09 403.079) rotate(45)" fill="#7fb1f8" stroke="#7fb1f8" stroke-width="1"/>
    <path id="Path_57423" data-name="Path 57423" d="M2.538,2.538a1.486,1.486,0,1,1,0-2.1,1.486,1.486,0,0,1,0,2.1" transform="translate(148.154 403.079) rotate(45)" fill="#7fb1f8" stroke="#7fb1f8" stroke-width="1"/>
    <path id="Path_57093" data-name="Path 57093" d="M2.538,2.538a1.486,1.486,0,1,1,0-2.1,1.486,1.486,0,0,1,0,2.1" transform="translate(68.902 403.079) rotate(45)" fill="#7fb1f8" stroke="#7fb1f8" stroke-width="1"/>
    <path id="Path_57424" data-name="Path 57424" d="M2.538,2.538a1.486,1.486,0,1,1,0-2.1,1.486,1.486,0,0,1,0,2.1" transform="translate(167.967 403.079) rotate(45)" fill="#7fb1f8" stroke="#7fb1f8" stroke-width="1"/>
    <path id="Path_57095" data-name="Path 57095" d="M2.539,2.538a1.487,1.487,0,1,1,0-2.1,1.489,1.489,0,0,1,0,2.1" transform="translate(88.715 403.078) rotate(45)" fill="#7fb1f8" stroke="#7fb1f8" stroke-width="1"/>
    <path id="Path_57425" data-name="Path 57425" d="M2.539,2.538a1.487,1.487,0,1,1,0-2.1,1.489,1.489,0,0,1,0,2.1" transform="translate(187.779 403.079) rotate(45)" fill="#7fb1f8" stroke="#7fb1f8" stroke-width="1"/>
    <path id="Path_57123" data-name="Path 57123" d="M2.538,2.536a1.486,1.486,0,1,1,0-2.1,1.483,1.483,0,0,1,0,2.1" transform="translate(9.463 383.268) rotate(45)" fill="#7fb1f8" stroke="#7fb1f8" stroke-width="1"/>
    <path id="Path_57446" data-name="Path 57446" d="M2.538,2.536a1.486,1.486,0,1,1,0-2.1,1.483,1.483,0,0,1,0,2.1" transform="translate(108.527 383.268) rotate(45)" fill="#7fb1f8" stroke="#7fb1f8" stroke-width="1"/>
    <path id="Path_57125" data-name="Path 57125" d="M2.538,2.538a1.486,1.486,0,1,1,0-2.1,1.486,1.486,0,0,1,0,2.1" transform="translate(29.277 383.267) rotate(45)" fill="#7fb1f8" stroke="#7fb1f8" stroke-width="1"/>
    <path id="Path_57431" data-name="Path 57431" d="M2.538,2.538a1.486,1.486,0,1,1,0-2.1,1.486,1.486,0,0,1,0,2.1" transform="translate(128.342 383.267) rotate(45)" fill="#7fb1f8" stroke="#7fb1f8" stroke-width="1"/>
    <path id="Path_57127" data-name="Path 57127" d="M2.538,2.538a1.486,1.486,0,1,1,0-2.1,1.486,1.486,0,0,1,0,2.1" transform="translate(49.09 383.267) rotate(45)" fill="#7fb1f8" stroke="#7fb1f8" stroke-width="1"/>
    <path id="Path_57426" data-name="Path 57426" d="M2.538,2.538a1.486,1.486,0,1,1,0-2.1,1.486,1.486,0,0,1,0,2.1" transform="translate(148.154 383.267) rotate(45)" fill="#7fb1f8" stroke="#7fb1f8" stroke-width="1"/>
    <path id="Path_57129" data-name="Path 57129" d="M2.538,2.538a1.486,1.486,0,1,1,0-2.1,1.486,1.486,0,0,1,0,2.1" transform="translate(68.902 383.267) rotate(45)" fill="#7fb1f8" stroke="#7fb1f8" stroke-width="1"/>
    <path id="Path_57427" data-name="Path 57427" d="M2.538,2.538a1.486,1.486,0,1,1,0-2.1,1.486,1.486,0,0,1,0,2.1" transform="translate(167.967 383.267) rotate(45)" fill="#7fb1f8" stroke="#7fb1f8" stroke-width="1"/>
    <path id="Path_57131" data-name="Path 57131" d="M2.538,2.538a1.486,1.486,0,1,1,0-2.1,1.486,1.486,0,0,1,0,2.1" transform="translate(88.715 383.266) rotate(45)" fill="#7fb1f8" stroke="#7fb1f8" stroke-width="1"/>
    <path id="Path_57428" data-name="Path 57428" d="M2.538,2.538a1.486,1.486,0,1,1,0-2.1,1.486,1.486,0,0,1,0,2.1" transform="translate(187.779 383.267) rotate(45)" fill="#7fb1f8" stroke="#7fb1f8" stroke-width="1"/>
    <path id="Path_57159" data-name="Path 57159" d="M2.538,2.538a1.486,1.486,0,1,1,0-2.1,1.486,1.486,0,0,1,0,2.1" transform="translate(9.465 363.454) rotate(45)" fill="#7fb1f8" stroke="#7fb1f8" stroke-width="1"/>
    <path id="Path_57447" data-name="Path 57447" d="M2.538,2.538a1.486,1.486,0,1,1,0-2.1,1.486,1.486,0,0,1,0,2.1" transform="translate(108.529 363.454) rotate(45)" fill="#7fb1f8" stroke="#7fb1f8" stroke-width="1"/>
    <path id="Path_57161" data-name="Path 57161" d="M2.538,2.538a1.486,1.486,0,1,1,0-2.1,1.486,1.486,0,0,1,0,2.1" transform="translate(29.277 363.454) rotate(45)" fill="#7fb1f8" stroke="#7fb1f8" stroke-width="1"/>
    <path id="Path_57432" data-name="Path 57432" d="M2.538,2.538a1.486,1.486,0,1,1,0-2.1,1.486,1.486,0,0,1,0,2.1" transform="translate(128.342 363.454) rotate(45)" fill="#7fb1f8" stroke="#7fb1f8" stroke-width="1"/>
    <path id="Path_57163" data-name="Path 57163" d="M2.538,2.538a1.486,1.486,0,1,1,0-2.1,1.486,1.486,0,0,1,0,2.1" transform="translate(49.09 363.454) rotate(45)" fill="#7fb1f8" stroke="#7fb1f8" stroke-width="1"/>
    <path id="Path_57433" data-name="Path 57433" d="M2.538,2.538a1.486,1.486,0,1,1,0-2.1,1.486,1.486,0,0,1,0,2.1" transform="translate(148.154 363.454) rotate(45)" fill="#7fb1f8" stroke="#7fb1f8" stroke-width="1"/>
    <path id="Path_57165" data-name="Path 57165" d="M2.538,2.538a1.486,1.486,0,1,1,0-2.1,1.486,1.486,0,0,1,0,2.1" transform="translate(68.902 363.454) rotate(45)" fill="#7fb1f8" stroke="#7fb1f8" stroke-width="1"/>
    <path id="Path_57434" data-name="Path 57434" d="M2.538,2.538a1.486,1.486,0,1,1,0-2.1,1.486,1.486,0,0,1,0,2.1" transform="translate(167.967 363.454) rotate(45)" fill="#7fb1f8" stroke="#7fb1f8" stroke-width="1"/>
    <path id="Path_57167" data-name="Path 57167" d="M2.538,2.538a1.486,1.486,0,1,1,0-2.1,1.486,1.486,0,0,1,0,2.1" transform="translate(88.715 363.453) rotate(45)" fill="#7fb1f8" stroke="#7fb1f8" stroke-width="1"/>
    <path id="Path_57435" data-name="Path 57435" d="M2.538,2.538a1.486,1.486,0,1,1,0-2.1,1.486,1.486,0,0,1,0,2.1" transform="translate(187.779 363.454) rotate(45)" fill="#7fb1f8" stroke="#7fb1f8" stroke-width="1"/>
    <path id="Path_57195" data-name="Path 57195" d="M2.538,2.538a1.486,1.486,0,1,1,0-2.1,1.486,1.486,0,0,1,0,2.1" transform="translate(9.465 343.642) rotate(45)" fill="#7fb1f8" stroke="#7fb1f8" stroke-width="1"/>
    <path id="Path_57448" data-name="Path 57448" d="M2.538,2.538a1.486,1.486,0,1,1,0-2.1,1.486,1.486,0,0,1,0,2.1" transform="translate(108.529 343.642) rotate(45)" fill="#7fb1f8" stroke="#7fb1f8" stroke-width="1"/>
    <path id="Path_57197" data-name="Path 57197" d="M2.538,2.538a1.486,1.486,0,1,1,0-2.1,1.486,1.486,0,0,1,0,2.1" transform="translate(29.277 343.642) rotate(45)" fill="#7fb1f8" stroke="#7fb1f8" stroke-width="1"/>
    <path id="Path_57436" data-name="Path 57436" d="M2.538,2.538a1.486,1.486,0,1,1,0-2.1,1.486,1.486,0,0,1,0,2.1" transform="translate(128.342 343.642) rotate(45)" fill="#7fb1f8" stroke="#7fb1f8" stroke-width="1"/>
    <path id="Path_57199" data-name="Path 57199" d="M2.538,2.538a1.486,1.486,0,1,1,0-2.1,1.486,1.486,0,0,1,0,2.1" transform="translate(49.09 343.642) rotate(45)" fill="#7fb1f8" stroke="#7fb1f8" stroke-width="1"/>
    <path id="Path_57437" data-name="Path 57437" d="M2.538,2.538a1.486,1.486,0,1,1,0-2.1,1.486,1.486,0,0,1,0,2.1" transform="translate(148.154 343.642) rotate(45)" fill="#7fb1f8" stroke="#7fb1f8" stroke-width="1"/>
    <path id="Path_57201" data-name="Path 57201" d="M2.538,2.538a1.486,1.486,0,1,1,0-2.1,1.486,1.486,0,0,1,0,2.1" transform="translate(68.902 343.642) rotate(45)" fill="#7fb1f8" stroke="#7fb1f8" stroke-width="1"/>
    <path id="Path_57438" data-name="Path 57438" d="M2.538,2.538a1.486,1.486,0,1,1,0-2.1,1.486,1.486,0,0,1,0,2.1" transform="translate(167.967 343.642) rotate(45)" fill="#7fb1f8" stroke="#7fb1f8" stroke-width="1"/>
    <path id="Path_57203" data-name="Path 57203" d="M2.538,2.538a1.486,1.486,0,1,1,0-2.1,1.486,1.486,0,0,1,0,2.1" transform="translate(88.715 343.641) rotate(45)" fill="#7fb1f8" stroke="#7fb1f8" stroke-width="1"/>
    <path id="Path_57439" data-name="Path 57439" d="M2.538,2.538a1.486,1.486,0,1,1,0-2.1,1.486,1.486,0,0,1,0,2.1" transform="translate(187.779 343.642) rotate(45)" fill="#7fb1f8" stroke="#7fb1f8" stroke-width="1"/>
    <path id="Path_57231" data-name="Path 57231" d="M2.538,2.538a1.486,1.486,0,1,1,0-2.1,1.486,1.486,0,0,1,0,2.1" transform="translate(9.465 323.829) rotate(45)" fill="#7fb1f8" stroke="#7fb1f8" stroke-width="1"/>
    <path id="Path_57449" data-name="Path 57449" d="M2.538,2.538a1.486,1.486,0,1,1,0-2.1,1.486,1.486,0,0,1,0,2.1" transform="translate(108.529 323.829) rotate(45)" fill="#7fb1f8" stroke="#7fb1f8" stroke-width="1"/>
    <path id="Path_57233" data-name="Path 57233" d="M2.538,2.538a1.486,1.486,0,1,1,0-2.1,1.486,1.486,0,0,1,0,2.1" transform="translate(29.277 323.829) rotate(45)" fill="#7fb1f8" stroke="#7fb1f8" stroke-width="1"/>
    <path id="Path_57440" data-name="Path 57440" d="M2.538,2.538a1.486,1.486,0,1,1,0-2.1,1.486,1.486,0,0,1,0,2.1" transform="translate(128.342 323.829) rotate(45)" fill="#7fb1f8" stroke="#7fb1f8" stroke-width="1"/>
    <path id="Path_57235" data-name="Path 57235" d="M2.538,2.538a1.486,1.486,0,1,1,0-2.1,1.486,1.486,0,0,1,0,2.1" transform="translate(49.09 323.829) rotate(45)" fill="#7fb1f8" stroke="#7fb1f8" stroke-width="1"/>
    <path id="Path_57441" data-name="Path 57441" d="M2.538,2.538a1.486,1.486,0,1,1,0-2.1,1.486,1.486,0,0,1,0,2.1" transform="translate(148.154 323.829) rotate(45)" fill="#7fb1f8" stroke="#7fb1f8" stroke-width="1"/>
    <path id="Path_57237" data-name="Path 57237" d="M2.538,2.538a1.486,1.486,0,1,1,0-2.1,1.486,1.486,0,0,1,0,2.1" transform="translate(68.902 323.829) rotate(45)" fill="#7fb1f8" stroke="#7fb1f8" stroke-width="1"/>
    <path id="Path_57442" data-name="Path 57442" d="M2.538,2.538a1.486,1.486,0,1,1,0-2.1,1.486,1.486,0,0,1,0,2.1" transform="translate(167.967 323.829) rotate(45)" fill="#7fb1f8" stroke="#7fb1f8" stroke-width="1"/>
    <path id="Path_57239" data-name="Path 57239" d="M2.538,2.538a1.486,1.486,0,1,1,0-2.1,1.486,1.486,0,0,1,0,2.1" transform="translate(88.715 323.828) rotate(45)" fill="#7fb1f8" stroke="#7fb1f8" stroke-width="1"/>
    <path id="Path_57443" data-name="Path 57443" d="M2.538,2.538a1.486,1.486,0,1,1,0-2.1,1.486,1.486,0,0,1,0,2.1" transform="translate(187.779 323.829) rotate(45)" fill="#7fb1f8" stroke="#7fb1f8" stroke-width="1"/>
    <path id="Path_57051" data-name="Path 57051" d="M2.538,2.538a1.486,1.486,0,1,1,0-2.1,1.486,1.486,0,0,1,0,2.1" transform="translate(9.463 422.893) rotate(45)" fill="#7fb1f8" stroke="#7fb1f8" stroke-width="1"/>
    <path id="Path_57444" data-name="Path 57444" d="M2.538,2.538a1.486,1.486,0,1,1,0-2.1,1.486,1.486,0,0,1,0,2.1" transform="translate(108.527 422.893) rotate(45)" fill="#7fb1f8" stroke="#7fb1f8" stroke-width="1"/>
    <path id="Path_57053" data-name="Path 57053" d="M2.538,2.536a1.486,1.486,0,1,1,0-2.1,1.483,1.483,0,0,1,0,2.1" transform="translate(29.275 422.893) rotate(45)" fill="#7fb1f8" stroke="#7fb1f8" stroke-width="1"/>
    <path id="Path_57429" data-name="Path 57429" d="M2.538,2.536a1.486,1.486,0,1,1,0-2.1,1.483,1.483,0,0,1,0,2.1" transform="translate(128.34 422.893) rotate(45)" fill="#7fb1f8" stroke="#7fb1f8" stroke-width="1"/>
    <path id="Path_57055" data-name="Path 57055" d="M2.538,2.536a1.486,1.486,0,1,1,0-2.1,1.483,1.483,0,0,1,0,2.1" transform="translate(49.088 422.893) rotate(45)" fill="#7fb1f8" stroke="#7fb1f8" stroke-width="1"/>
    <path id="Path_57421" data-name="Path 57421" d="M2.538,2.536a1.486,1.486,0,1,1,0-2.1,1.483,1.483,0,0,1,0,2.1" transform="translate(148.152 422.893) rotate(45)" fill="#7fb1f8" stroke="#7fb1f8" stroke-width="1"/>
    <path id="Path_57057" data-name="Path 57057" d="M2.539,2.538a1.487,1.487,0,1,1,0-2.1,1.489,1.489,0,0,1,0,2.1" transform="translate(68.902 422.892) rotate(45)" fill="#7fb1f8" stroke="#7fb1f8" stroke-width="1"/>
    <path id="Path_57422" data-name="Path 57422" d="M2.539,2.538a1.487,1.487,0,1,1,0-2.1,1.489,1.489,0,0,1,0,2.1" transform="translate(167.967 422.892) rotate(45)" fill="#7fb1f8" stroke="#7fb1f8" stroke-width="1"/>
    <path id="Path_57059" data-name="Path 57059" d="M2.539,2.538a1.487,1.487,0,1,1,0-2.1,1.489,1.489,0,0,1,0,2.1" transform="translate(88.715 422.891) rotate(45)" fill="#7fb1f8" stroke="#7fb1f8" stroke-width="1"/>
    <path id="Path_57420" data-name="Path 57420" d="M2.539,2.538a1.487,1.487,0,1,1,0-2.1,1.489,1.489,0,0,1,0,2.1" transform="translate(187.779 422.892) rotate(45)" fill="#7fb1f8" stroke="#7fb1f8" stroke-width="1"/>
    <path id="Path_57475" data-name="Path 57475" d="M2.538,2.538a1.486,1.486,0,1,1,0-2.1,1.486,1.486,0,0,1,0,2.1" transform="translate(9.463 204.953) rotate(45)" fill="#7fb1f8" stroke="#7fb1f8" stroke-width="1"/>
    <path id="Path_57484" data-name="Path 57484" d="M2.538,2.538a1.486,1.486,0,1,1,0-2.1,1.486,1.486,0,0,1,0,2.1" transform="translate(108.527 204.953) rotate(45)" fill="#7fb1f8" stroke="#7fb1f8" stroke-width="1"/>
    <path id="Path_57476" data-name="Path 57476" d="M2.538,2.536a1.486,1.486,0,1,1,0-2.1,1.483,1.483,0,0,1,0,2.1" transform="translate(29.275 204.953) rotate(45)" fill="#7fb1f8" stroke="#7fb1f8" stroke-width="1"/>
    <path id="Path_57485" data-name="Path 57485" d="M2.538,2.536a1.486,1.486,0,1,1,0-2.1,1.483,1.483,0,0,1,0,2.1" transform="translate(128.34 204.953) rotate(45)" fill="#7fb1f8" stroke="#7fb1f8" stroke-width="1"/>
    <path id="Path_57477" data-name="Path 57477" d="M2.538,2.536a1.486,1.486,0,1,1,0-2.1,1.483,1.483,0,0,1,0,2.1" transform="translate(49.088 204.953) rotate(45)" fill="#7fb1f8" stroke="#7fb1f8" stroke-width="1"/>
    <path id="Path_57531" data-name="Path 57531" d="M2.538,2.536a1.486,1.486,0,1,1,0-2.1,1.483,1.483,0,0,1,0,2.1" transform="translate(148.152 204.953) rotate(45)" fill="#7fb1f8" stroke="#7fb1f8" stroke-width="1"/>
    <path id="Path_57486" data-name="Path 57486" d="M2.539,2.538a1.487,1.487,0,1,1,0-2.1,1.489,1.489,0,0,1,0,2.1" transform="translate(68.902 204.952) rotate(45)" fill="#7fb1f8" stroke="#7fb1f8" stroke-width="1"/>
    <path id="Path_57555" data-name="Path 57555" d="M2.539,2.538a1.487,1.487,0,1,1,0-2.1,1.489,1.489,0,0,1,0,2.1" transform="translate(167.967 204.952) rotate(45)" fill="#7fb1f8" stroke="#7fb1f8" stroke-width="1"/>
    <path id="Path_57487" data-name="Path 57487" d="M2.539,2.538a1.487,1.487,0,1,1,0-2.1,1.489,1.489,0,0,1,0,2.1" transform="translate(88.715 204.951) rotate(45)" fill="#7fb1f8" stroke="#7fb1f8" stroke-width="1"/>
    <path id="Path_57574" data-name="Path 57574" d="M2.539,2.538a1.487,1.487,0,1,1,0-2.1,1.489,1.489,0,0,1,0,2.1" transform="translate(187.779 204.952) rotate(45)" fill="#7fb1f8" stroke="#7fb1f8" stroke-width="1"/>
    <path id="Path_57267" data-name="Path 57267" d="M2.538,2.538a1.486,1.486,0,1,1,0-2.1,1.486,1.486,0,0,1,0,2.1" transform="translate(9.465 304.017) rotate(45)" fill="#7fb1f8" stroke="#7fb1f8" stroke-width="1"/>
    <path id="Path_57450" data-name="Path 57450" d="M2.538,2.538a1.486,1.486,0,1,1,0-2.1,1.486,1.486,0,0,1,0,2.1" transform="translate(108.529 304.017) rotate(45)" fill="#7fb1f8" stroke="#7fb1f8" stroke-width="1"/>
    <path id="Path_57269" data-name="Path 57269" d="M2.538,2.538a1.486,1.486,0,1,1,0-2.1,1.486,1.486,0,0,1,0,2.1" transform="translate(29.277 304.017) rotate(45)" fill="#7fb1f8" stroke="#7fb1f8" stroke-width="1"/>
    <path id="Path_57451" data-name="Path 57451" d="M2.538,2.538a1.486,1.486,0,1,1,0-2.1,1.486,1.486,0,0,1,0,2.1" transform="translate(128.342 304.017) rotate(45)" fill="#7fb1f8" stroke="#7fb1f8" stroke-width="1"/>
    <path id="Path_57271" data-name="Path 57271" d="M2.538,2.538a1.486,1.486,0,1,1,0-2.1,1.486,1.486,0,0,1,0,2.1" transform="translate(49.09 304.017) rotate(45)" fill="#7fb1f8" stroke="#7fb1f8" stroke-width="1"/>
    <path id="Path_57452" data-name="Path 57452" d="M2.538,2.538a1.486,1.486,0,1,1,0-2.1,1.486,1.486,0,0,1,0,2.1" transform="translate(148.154 304.017) rotate(45)" fill="#7fb1f8" stroke="#7fb1f8" stroke-width="1"/>
    <path id="Path_57273" data-name="Path 57273" d="M2.538,2.538a1.486,1.486,0,1,1,0-2.1,1.486,1.486,0,0,1,0,2.1" transform="translate(68.902 304.017) rotate(45)" fill="#7fb1f8" stroke="#7fb1f8" stroke-width="1"/>
    <path id="Path_57453" data-name="Path 57453" d="M2.538,2.538a1.486,1.486,0,1,1,0-2.1,1.486,1.486,0,0,1,0,2.1" transform="translate(167.967 304.017) rotate(45)" fill="#7fb1f8" stroke="#7fb1f8" stroke-width="1"/>
    <path id="Path_57275" data-name="Path 57275" d="M2.538,2.538a1.486,1.486,0,1,1,0-2.1,1.486,1.486,0,0,1,0,2.1" transform="translate(88.715 304.016) rotate(45)" fill="#7fb1f8" stroke="#7fb1f8" stroke-width="1"/>
    <path id="Path_57454" data-name="Path 57454" d="M2.538,2.538a1.486,1.486,0,1,1,0-2.1,1.486,1.486,0,0,1,0,2.1" transform="translate(187.779 304.017) rotate(45)" fill="#7fb1f8" stroke="#7fb1f8" stroke-width="1"/>
    <path id="Path_57303" data-name="Path 57303" d="M2.538,2.538a1.486,1.486,0,1,1,0-2.1,1.486,1.486,0,0,1,0,2.1" transform="translate(9.465 284.204) rotate(45)" fill="#7fb1f8" stroke="#7fb1f8" stroke-width="1"/>
    <path id="Path_57455" data-name="Path 57455" d="M2.538,2.538a1.486,1.486,0,1,1,0-2.1,1.486,1.486,0,0,1,0,2.1" transform="translate(108.529 284.204) rotate(45)" fill="#7fb1f8" stroke="#7fb1f8" stroke-width="1"/>
    <path id="Path_57305" data-name="Path 57305" d="M2.538,2.538a1.486,1.486,0,1,1,0-2.1,1.486,1.486,0,0,1,0,2.1" transform="translate(29.277 284.204) rotate(45)" fill="#7fb1f8" stroke="#7fb1f8" stroke-width="1"/>
    <path id="Path_57456" data-name="Path 57456" d="M2.538,2.538a1.486,1.486,0,1,1,0-2.1,1.486,1.486,0,0,1,0,2.1" transform="translate(128.342 284.204) rotate(45)" fill="#7fb1f8" stroke="#7fb1f8" stroke-width="1"/>
    <path id="Path_57307" data-name="Path 57307" d="M2.538,2.538a1.486,1.486,0,1,1,0-2.1,1.486,1.486,0,0,1,0,2.1" transform="translate(49.09 284.204) rotate(45)" fill="#7fb1f8" stroke="#7fb1f8" stroke-width="1"/>
    <path id="Path_57457" data-name="Path 57457" d="M2.538,2.538a1.486,1.486,0,1,1,0-2.1,1.486,1.486,0,0,1,0,2.1" transform="translate(148.154 284.204) rotate(45)" fill="#7fb1f8" stroke="#7fb1f8" stroke-width="1"/>
    <path id="Path_57309" data-name="Path 57309" d="M2.538,2.538a1.486,1.486,0,1,1,0-2.1,1.486,1.486,0,0,1,0,2.1" transform="translate(68.902 284.204) rotate(45)" fill="#7fb1f8" stroke="#7fb1f8" stroke-width="1"/>
    <path id="Path_57458" data-name="Path 57458" d="M2.538,2.538a1.486,1.486,0,1,1,0-2.1,1.486,1.486,0,0,1,0,2.1" transform="translate(167.967 284.204) rotate(45)" fill="#7fb1f8" stroke="#7fb1f8" stroke-width="1"/>
    <path id="Path_57311" data-name="Path 57311" d="M2.538,2.538a1.486,1.486,0,1,1,0-2.1,1.486,1.486,0,0,1,0,2.1" transform="translate(88.715 284.203) rotate(45)" fill="#7fb1f8" stroke="#7fb1f8" stroke-width="1"/>
    <path id="Path_57459" data-name="Path 57459" d="M2.538,2.538a1.486,1.486,0,1,1,0-2.1,1.486,1.486,0,0,1,0,2.1" transform="translate(187.779 284.204) rotate(45)" fill="#7fb1f8" stroke="#7fb1f8" stroke-width="1"/>
    <path id="Path_57339" data-name="Path 57339" d="M2.538,2.538a1.486,1.486,0,1,1,0-2.1,1.486,1.486,0,0,1,0,2.1" transform="translate(9.465 264.392) rotate(45)" fill="#7fb1f8" stroke="#7fb1f8" stroke-width="1"/>
    <path id="Path_57460" data-name="Path 57460" d="M2.538,2.538a1.486,1.486,0,1,1,0-2.1,1.486,1.486,0,0,1,0,2.1" transform="translate(108.529 264.392) rotate(45)" fill="#7fb1f8" stroke="#7fb1f8" stroke-width="1"/>
    <path id="Path_57341" data-name="Path 57341" d="M2.538,2.538a1.486,1.486,0,1,1,0-2.1,1.486,1.486,0,0,1,0,2.1" transform="translate(29.277 264.392) rotate(45)" fill="#7fb1f8" stroke="#7fb1f8" stroke-width="1"/>
    <path id="Path_57461" data-name="Path 57461" d="M2.538,2.538a1.486,1.486,0,1,1,0-2.1,1.486,1.486,0,0,1,0,2.1" transform="translate(128.342 264.392) rotate(45)" fill="#7fb1f8" stroke="#7fb1f8" stroke-width="1"/>
    <path id="Path_57343" data-name="Path 57343" d="M2.538,2.538a1.486,1.486,0,1,1,0-2.1,1.486,1.486,0,0,1,0,2.1" transform="translate(49.09 264.392) rotate(45)" fill="#7fb1f8" stroke="#7fb1f8" stroke-width="1"/>
    <path id="Path_57462" data-name="Path 57462" d="M2.538,2.538a1.486,1.486,0,1,1,0-2.1,1.486,1.486,0,0,1,0,2.1" transform="translate(148.154 264.392) rotate(45)" fill="#7fb1f8" stroke="#7fb1f8" stroke-width="1"/>
    <path id="Path_57345" data-name="Path 57345" d="M2.538,2.538a1.486,1.486,0,1,1,0-2.1,1.486,1.486,0,0,1,0,2.1" transform="translate(68.902 264.392) rotate(45)" fill="#7fb1f8" stroke="#7fb1f8" stroke-width="1"/>
    <path id="Path_57463" data-name="Path 57463" d="M2.538,2.538a1.486,1.486,0,1,1,0-2.1,1.486,1.486,0,0,1,0,2.1" transform="translate(167.967 264.392) rotate(45)" fill="#7fb1f8" stroke="#7fb1f8" stroke-width="1"/>
    <path id="Path_57347" data-name="Path 57347" d="M2.538,2.538a1.486,1.486,0,1,1,0-2.1,1.486,1.486,0,0,1,0,2.1" transform="translate(88.715 264.391) rotate(45)" fill="#7fb1f8" stroke="#7fb1f8" stroke-width="1"/>
    <path id="Path_57464" data-name="Path 57464" d="M2.538,2.538a1.486,1.486,0,1,1,0-2.1,1.486,1.486,0,0,1,0,2.1" transform="translate(187.779 264.392) rotate(45)" fill="#7fb1f8" stroke="#7fb1f8" stroke-width="1"/>
    <path id="Path_57375" data-name="Path 57375" d="M2.538,2.538a1.486,1.486,0,1,1,0-2.1,1.486,1.486,0,0,1,0,2.1" transform="translate(9.465 244.579) rotate(45)" fill="#7fb1f8" stroke="#7fb1f8" stroke-width="1"/>
    <path id="Path_57465" data-name="Path 57465" d="M2.538,2.538a1.486,1.486,0,1,1,0-2.1,1.486,1.486,0,0,1,0,2.1" transform="translate(108.529 244.579) rotate(45)" fill="#7fb1f8" stroke="#7fb1f8" stroke-width="1"/>
    <path id="Path_57377" data-name="Path 57377" d="M2.538,2.538a1.486,1.486,0,1,1,0-2.1,1.486,1.486,0,0,1,0,2.1" transform="translate(29.277 244.579) rotate(45)" fill="#7fb1f8" stroke="#7fb1f8" stroke-width="1"/>
    <path id="Path_57466" data-name="Path 57466" d="M2.538,2.538a1.486,1.486,0,1,1,0-2.1,1.486,1.486,0,0,1,0,2.1" transform="translate(128.342 244.579) rotate(45)" fill="#7fb1f8" stroke="#7fb1f8" stroke-width="1"/>
    <path id="Path_57379" data-name="Path 57379" d="M2.538,2.538a1.486,1.486,0,1,1,0-2.1,1.486,1.486,0,0,1,0,2.1" transform="translate(49.09 244.579) rotate(45)" fill="#7fb1f8" stroke="#7fb1f8" stroke-width="1"/>
    <path id="Path_57467" data-name="Path 57467" d="M2.538,2.538a1.486,1.486,0,1,1,0-2.1,1.486,1.486,0,0,1,0,2.1" transform="translate(148.154 244.579) rotate(45)" fill="#7fb1f8" stroke="#7fb1f8" stroke-width="1"/>
    <path id="Path_57381" data-name="Path 57381" d="M2.538,2.538a1.486,1.486,0,1,1,0-2.1,1.486,1.486,0,0,1,0,2.1" transform="translate(68.902 244.579) rotate(45)" fill="#7fb1f8" stroke="#7fb1f8" stroke-width="1"/>
    <path id="Path_57468" data-name="Path 57468" d="M2.538,2.538a1.486,1.486,0,1,1,0-2.1,1.486,1.486,0,0,1,0,2.1" transform="translate(167.967 244.579) rotate(45)" fill="#7fb1f8" stroke="#7fb1f8" stroke-width="1"/>
    <path id="Path_57383" data-name="Path 57383" d="M2.538,2.538a1.486,1.486,0,1,1,0-2.1,1.486,1.486,0,0,1,0,2.1" transform="translate(88.715 244.578) rotate(45)" fill="#7fb1f8" stroke="#7fb1f8" stroke-width="1"/>
    <path id="Path_57469" data-name="Path 57469" d="M2.538,2.538a1.486,1.486,0,1,1,0-2.1,1.486,1.486,0,0,1,0,2.1" transform="translate(187.779 244.579) rotate(45)" fill="#7fb1f8" stroke="#7fb1f8" stroke-width="1"/>
    <path id="Path_57411" data-name="Path 57411" d="M2.538,2.538a1.486,1.486,0,1,1,0-2.1,1.486,1.486,0,0,1,0,2.1" transform="translate(9.465 224.767) rotate(45)" fill="#7fb1f8" stroke="#7fb1f8" stroke-width="1"/>
    <path id="Path_57470" data-name="Path 57470" d="M2.538,2.538a1.486,1.486,0,1,1,0-2.1,1.486,1.486,0,0,1,0,2.1" transform="translate(108.529 224.767) rotate(45)" fill="#7fb1f8" stroke="#7fb1f8" stroke-width="1"/>
    <path id="Path_57413" data-name="Path 57413" d="M2.538,2.538a1.486,1.486,0,1,1,0-2.1,1.486,1.486,0,0,1,0,2.1" transform="translate(29.277 224.767) rotate(45)" fill="#7fb1f8" stroke="#7fb1f8" stroke-width="1"/>
    <path id="Path_57471" data-name="Path 57471" d="M2.538,2.538a1.486,1.486,0,1,1,0-2.1,1.486,1.486,0,0,1,0,2.1" transform="translate(128.342 224.767) rotate(45)" fill="#7fb1f8" stroke="#7fb1f8" stroke-width="1"/>
    <path id="Path_57415" data-name="Path 57415" d="M2.538,2.538a1.486,1.486,0,1,1,0-2.1,1.486,1.486,0,0,1,0,2.1" transform="translate(49.09 224.767) rotate(45)" fill="#7fb1f8" stroke="#7fb1f8" stroke-width="1"/>
    <path id="Path_57472" data-name="Path 57472" d="M2.538,2.538a1.486,1.486,0,1,1,0-2.1,1.486,1.486,0,0,1,0,2.1" transform="translate(148.154 224.767) rotate(45)" fill="#7fb1f8" stroke="#7fb1f8" stroke-width="1"/>
    <path id="Path_57417" data-name="Path 57417" d="M2.538,2.538a1.486,1.486,0,1,1,0-2.1,1.486,1.486,0,0,1,0,2.1" transform="translate(68.902 224.767) rotate(45)" fill="#7fb1f8" stroke="#7fb1f8" stroke-width="1"/>
    <path id="Path_57473" data-name="Path 57473" d="M2.538,2.538a1.486,1.486,0,1,1,0-2.1,1.486,1.486,0,0,1,0,2.1" transform="translate(167.967 224.767) rotate(45)" fill="#7fb1f8" stroke="#7fb1f8" stroke-width="1"/>
    <path id="Path_57419" data-name="Path 57419" d="M2.538,2.538a1.486,1.486,0,1,1,0-2.1,1.486,1.486,0,0,1,0,2.1" transform="translate(88.715 224.766) rotate(45)" fill="#7fb1f8" stroke="#7fb1f8" stroke-width="1"/>
    <path id="Path_57474" data-name="Path 57474" d="M2.538,2.538a1.486,1.486,0,1,1,0-2.1,1.486,1.486,0,0,1,0,2.1" transform="translate(187.779 224.767) rotate(45)" fill="#7fb1f8" stroke="#7fb1f8" stroke-width="1"/>
  </g>
</svg>
