<svg width="99" height="17" viewBox="0 0 99 17" fill="none" xmlns="http://www.w3.org/2000/svg">
<g clip-path="url(#clip0_109_7)">
<path d="M8.343 0.611084L10.637 6.18708L16.686 6.63108L12.056 10.5211L13.5 16.3711L8.343 13.1991L3.187 16.3711L4.631 10.5211L0 6.63108L6.049 6.18708L8.343 0.611084Z" fill="#EF4D35"/>
<path d="M28.7375 0.611084L31.0315 6.18708L37.0805 6.63108L32.4505 10.5211L33.8945 16.3711L28.7375 13.1991L23.5815 16.3711L25.0255 10.5211L20.3945 6.63108L26.4435 6.18708L28.7375 0.611084Z" fill="#EF4D35"/>
<path d="M49.133 0.611084L51.427 6.18708L57.476 6.63108L52.846 10.5211L54.29 16.3711L49.133 13.1991L43.977 16.3711L45.421 10.5211L40.79 6.63108L46.839 6.18708L49.133 0.611084Z" fill="#EF4D35"/>
<path d="M69.5276 0.611084L71.8216 6.18708L77.8706 6.63108L73.2406 10.5211L74.6846 16.3711L69.5276 13.1991L64.3716 16.3711L65.8156 10.5211L61.1846 6.63108L67.2336 6.18708L69.5276 0.611084Z" fill="#EF4D35"/>
<path d="M89.9231 0.611084L92.2171 6.18708L98.2661 6.63108L93.6361 10.5211L95.0801 16.3711L89.9231 13.1991L84.7671 16.3711L86.2111 10.5211L81.5801 6.63108L87.6291 6.18708L89.9231 0.611084Z" fill="#FFAFA3"/>
<mask id="mask0_109_7" style="mask-type:luminance" maskUnits="userSpaceOnUse" x="80" y="0" width="10" height="17">
<path d="M90 0H80.748V17H90V0Z" fill="white"/>
</mask>
<g mask="url(#mask0_109_7)">
<path d="M89.9231 0.611084L92.2171 6.18708L98.2661 6.63108L93.6361 10.5211L95.0801 16.3711L89.9231 13.1991L84.7671 16.3711L86.2111 10.5211L81.5801 6.63108L87.6291 6.18708L89.9231 0.611084Z" fill="#EF4D35"/>
</g>
</g>
<defs>
<clipPath id="clip0_109_7">
<rect width="98.267" height="17" fill="white"/>
</clipPath>
</defs>
</svg>
