<?xml version="1.0" encoding="utf-8"?>
<!-- Generator: Adobe Illustrator 26.1.0, SVG Export Plug-In . SVG Version: 6.00 Build 0)  -->
<svg version="1.1" id="Layer_1" xmlns="http://www.w3.org/2000/svg" xmlns:xlink="http://www.w3.org/1999/xlink" x="0px" y="0px"
	 viewBox="0 0 500 500" style="enable-background:new 0 0 500 500;" xml:space="preserve">
<style type="text/css">
	.st0{fill:#1D85F3;}
	.st1{fill:#005AB8;}
	.st2{fill:#4FB4FD;}
	.st3{fill:#242E35;}
	.st4{fill:#242D35;}
	.st5{fill:#232D35;}
	.st6{fill:#252E36;}
	.st7{fill:#232D34;}
</style>
<g>
	<path class="st0" d="M27.7,227.5c0,0,14.8-1,29.5,7.2s21.8,12.5,22,12.8c0.4,0.5,1,0.5,1.7,0c1.3-0.9,16.2-15.2,13.3-25.3
		c-4-14-25.5-37-55.2-16.4C26.5,216.9,27.7,227.5,27.7,227.5z"/>
	<path class="st1" d="M49.4,234.9l0.9-0.9c0,0-21.7-11-37.9,4.4S6.6,278.7,26,284.1c17.5,3.7,28.4-6.8,29.3,15.5
		c0.3,5.9,0,12.2,0,12.2l20.4-25.3c0,0-23.5-5.1-26.4-19.2C47.9,260,49.4,236.1,49.4,234.9z"/>
	<path class="st2" d="M52,267.5c0,0-0.2-0.3,8.4-4.9c10-5.4,35.3-14.5,37.4-36.9c0,0,17.8,3.1,20.6,23.9
		c2.8,20.8-11.7,29.9-18.2,32.5C93.7,284.8,62.1,286.6,52,267.5z"/>
	<g>
		<path class="st3" d="M165.9,280.2c-12.3,0.3-23.6-7.5-26.9-19.2c-6-20.9,10.6-38.8,30.8-36c9.6,1.3,16.6,6.4,20.6,15.4
			c0.5,1.2,0.9,2.5,1.1,3.8c0.1,0.4-0.5,1.2-0.9,1.3c-2.6,0.8-5.2,1.5-7.8,2.2c-1,0.3-1.6,0-1.9-1.2c-1.7-6.3-5.9-10.2-12.2-11.4
			c-6.1-1.1-11.4,1-15.8,5.6c-5.8,6.1-5.9,19.3,2.2,25.7c7.5,6,21.9,5.3,25.7-7.6c0.5-1.6,1.2-2,2.7-1.7c2.3,0.5,4.7,1,7.1,1.5
			c0.9,0.2,1.2,0.5,1,1.6c-1.7,7-5.3,12.5-11.6,16.2C175.5,279.1,170.8,280.1,165.9,280.2z"/>
		<path class="st4" d="M453.6,238.4c3.3,0,6.6,0,10,0c0.1,1.2,0.1,2.3,0.2,3.8c0.7-0.6,1.3-0.9,1.8-1.3c7.2-5.8,19.3-4.1,24.8,3.3
			c6,8.1,6.7,16.7,2.2,25.5c-5.3,10.5-18.4,13.3-27.1,6.6c-0.2-0.2-0.5-0.3-1.1-0.7c-0.1,0.8-0.2,1.5-0.2,2.1c0,4.6-0.1,9.1,0,13.7
			c0,1.3-0.4,1.8-1.7,1.7c-2.8-0.1-5.7,0-8.7,0C453.6,274.8,453.6,256.6,453.6,238.4z M474.7,246.7c-1.6,0.5-3.3,0.8-4.8,1.6
			c-5.7,3.1-7.5,10.7-4.1,16.6c2.5,4.3,7.4,6.1,11.7,4.8c6.3-2,8.9-9.6,6.8-15.3C482.5,249.7,479.1,247.1,474.7,246.7z"/>
		<path class="st4" d="M401.9,279c-2.4,0-4.5,0-6.6,0c-1.5,0-3.3,0.4-4.3-0.2c-1-0.6-1.2-2.5-1.6-3.8c-0.6-1.8-1.2-3.6-1.7-5.4
			c-0.3-1-0.7-1.5-1.8-1.5c-6.5,0-12.9,0-19.4,0.1c-0.6,0-1.5,0.6-1.7,1.1c-1,2.8-1.9,5.6-2.9,8.4c-0.2,0.5-0.7,1.3-1.1,1.3
			c-3.4,0.1-6.8,0.1-10.4,0.1c2.2-6.3,4.3-12.3,6.3-18.2c4-11.6,8-23.1,12-34.7c0.5-1.5,1.2-2.2,2.9-2.1c3.7,0.2,7.3,0.1,11.1,0.1
			C389.1,242.3,395.4,260.4,401.9,279z M383.8,258.1c-2.5-7.3-4.9-14.4-7.3-21.5c-0.2,0-0.4,0-0.6,0c-2.5,7.1-4.9,14.3-7.5,21.6
			c5,0,9.5,0,14.1,0C382.7,258.2,383,258.2,383.8,258.1z"/>
		<path class="st5" d="M407.2,238.4c3.5,0,6.7,0,10.1,0c0.1,1.2,0.1,2.2,0.2,3.5c0.4-0.2,0.7-0.2,0.9-0.4c8.4-7.3,21.7-4.5,27.5,5.3
			c4.8,8.1,4.1,18.6-1.6,26c-6.4,8.2-18.1,9.3-25.2,3.5c-0.2-0.2-0.5-0.3-1.1-0.5c-0.1,0.9-0.2,1.5-0.2,2.2c0,4.4-0.1,8.9,0,13.3
			c0,1.6-0.5,2-2,1.9c-2.3-0.1-4.7-0.1-7,0c-1.3,0.1-1.7-0.4-1.7-1.7c0.1-6.4,0-12.8,0-19.2c0-10.6,0-21.3,0-31.9
			C407.2,239.7,407.2,239.1,407.2,238.4z M438.7,258c-0.2-0.8-0.3-2.4-0.8-3.9c-2.8-7.9-12.2-9.2-17-3.7c-2.8,3.3-4,9.2-2.1,13.2
			c2.9,6.1,9.1,8.2,14.7,4.9C437.1,266.4,438.5,262.8,438.7,258z"/>
		<path class="st4" d="M334.6,241.9c0-5.5,0.1-10.4,0-15.4c-0.1-1.9,0.4-2.6,2.4-2.4c2.6,0.2,5.3,0,8.1,0c0,0.9,0,1.5,0,2.1
			c0,16.9,0,33.8,0,50.7c0,1.7-0.4,2.3-2.2,2.2c-2-0.2-3.9-0.1-5.9,0c-1.6,0.1-2.2-0.5-2-2.1c0.1-0.5-0.1-1-0.1-1.7
			c-1.5,0.9-2.7,1.9-4.1,2.5c-9.5,4.6-19.6,1-24.7-8.1c-4.7-8.2-3.6-19.1,2.9-26.3c5.9-6.7,16.6-8,23.8-2.7
			C333.3,241,333.8,241.3,334.6,241.9z M313.8,258.8c-0.1,3,1,5.6,2.8,7.9c3.1,4.1,10.1,4.7,13.8,1.3c5.1-4.5,5.2-11.2,2.6-15.6
			c-3.2-5.4-9-7.2-14.2-3.8C315.4,251,313.9,254.6,313.8,258.8z"/>
		<path class="st3" d="M237.2,237.5c12.7,0,22,9.5,21.8,21.4c-0.2,12.1-9.7,21.3-22,21.1c-12-0.2-22.2-8.5-22.1-21.6
			C215,246.4,224.6,237.3,237.2,237.5z M225.3,258.6c-0.1,6.9,4.9,12.1,11.5,12.2c6.6,0.1,11.5-5,11.6-11.9
			c0.1-6.8-4.8-12.2-11.3-12.3C231.2,246.4,225.1,251.5,225.3,258.6z"/>
		<path class="st6" d="M263,238.4c3.4,0,6.8,0,10.4,0c0,1.1,0,2,0,2.9c0,7.4,0,14.8,0.2,22.2c0.1,4.3,3,6.6,7.3,6.5
			c4.3-0.1,7.6-2.8,7.7-6.8c0.2-7.5,0.1-15.1,0.1-22.6c0-0.7,0-1.4,0-2.2c3.6,0,7,0,10.6,0c0,0.7,0,1.4,0,2c0,12.2,0,24.3,0,36.5
			c0,1.8-0.6,2.2-2.3,2.2c-2.5-0.1-5,0-7.7,0c-0.1-1.1-0.2-2-0.3-3.2c-0.8,0.7-1.3,1.2-2,1.6c-7.3,5.3-18.7,2.3-22.2-6.1
			c-1.2-2.8-1.9-6-2-9c-0.3-7.7-0.1-15.4-0.1-23.2C262.9,239,263,238.7,263,238.4z"/>
		<path class="st7" d="M214.4,269.6c0,2.8,0.1,5.5-0.1,8.2c0,0.4-0.8,1.1-1.2,1.1c-4.4,0.3-8.6-0.5-12.1-3.5c-3-2.6-4.3-6.1-4.6-9.9
			c-0.4-4.7-0.4-9.3-0.4-14c-0.1-8.5,0-17.1,0-25.6c0-1.4,0.4-1.9,1.8-1.8c2.8,0.1,5.7,0,8.8,0c0,0.8,0,1.5,0,2.2
			c0,11.5,0,22.9,0,34.4c0,0.9,0,1.9,0.1,2.8c0.4,4,2.4,5.8,6.4,6C213.5,269.5,213.9,269.5,214.4,269.6z"/>
	</g>
</g>
</svg>
