<?xml version="1.0" encoding="utf-8"?>
<!-- Generator: Adobe Illustrator 26.2.1, SVG Export Plug-In . SVG Version: 6.00 Build 0)  -->
<svg version="1.1" id="Layer_1" xmlns="http://www.w3.org/2000/svg" xmlns:xlink="http://www.w3.org/1999/xlink" x="0px" y="0px"
	 viewBox="0 0 500 500" style="enable-background:new 0 0 500 500;" xml:space="preserve">
<style type="text/css">
	.st0{fill-rule:evenodd;clip-rule:evenodd;fill:#EE3F27;}
</style>
<g>
	<polygon class="st0" points="357.2,213.2 347.4,213.2 347.4,274.2 394,274.2 400.4,264.2 357.2,264.2 357.2,213.2 	"/>
	<path class="st0" d="M220.9,216.2l-36.5,57.9h12.1l11-17.5H231l6.2-10h-23.5l12.8-20.1l30,47.5h12.1L231.8,216l0,0
		C229.5,212.2,223.4,212.2,220.9,216.2L220.9,216.2L220.9,216.2L220.9,216.2z"/>
	<path class="st0" d="M291.5,223.2h41.8l6.2-9.9h-48.3l0,0c-16.8,0-27.9,13.6-27.9,30.4s11.1,30.4,27.9,30.4l0,0h40.9l6.4-9.9h-47
		l0,0c-11.3,0-18-9.2-18-20.5S280.2,223.2,291.5,223.2L291.5,223.2L291.5,223.2L291.5,223.2z"/>
	<path class="st0" d="M78,213.2H34.9l0,0C18.1,213.2,7,226.9,7,243.6c0,16.8,11.1,30.4,27.9,30.4l0,0H78l0,0
		c16.8,0,27.9-13.6,27.9-30.4C105.8,226.9,94.8,213.2,78,213.2L78,213.2L78,213.2L78,213.2z M78,264.2H34.9l0,0
		c-11.3,0-18-9.2-18-20.5s6.6-20.5,18-20.5l0,0H78l0,0c11.3,0,18,9.2,18,20.5C96,254.9,89.3,264.2,78,264.2L78,264.2L78,264.2
		L78,264.2z"/>
	<path class="st0" d="M428.9,223.2h41.8l6.2-9.9h-48.3l0,0c-16.8,0-27.9,13.6-27.9,30.4s11.1,30.4,27.9,30.4l0,0h40.9l6.4-9.9h-47
		l0,0c-9.7,0-15.9-6.7-17.5-15.7l0,0h52.7l6.3-10h-59l0,0C413,229.8,419.4,223.2,428.9,223.2L428.9,223.2L428.9,223.2L428.9,223.2z"
		/>
	<path class="st0" d="M162.6,249.4c10,0,18.1-8.1,18.1-18.1s-8.1-18.1-18.1-18.1l0,0h-50.7v60.9H123v-51h39.6l0,0
		c4.5,0,8.2,3.7,8.2,8.2s-3.7,8.2-8.2,8.2l0,0H131l35.8,34.6h14.4l-25.6-24.7H162.6L162.6,249.4L162.6,249.4z"/>
	<path class="st0" d="M487.5,212.5c-3,0-5.5,2.3-5.5,5.4s2.5,5.5,5.5,5.5s5.5-2.3,5.5-5.5C493,214.8,490.4,212.5,487.5,212.5
		L487.5,212.5L487.5,212.5L487.5,212.5z M487.5,222.5c-2.5,0-4.4-1.9-4.4-4.5s1.9-4.5,4.4-4.5s4.4,1.9,4.4,4.5
		S489.9,222.5,487.5,222.5L487.5,222.5L487.5,222.5L487.5,222.5z"/>
	<path class="st0" d="M488.4,218.2c0.9-0.1,1.6-0.6,1.6-1.7c0-1.2-0.7-1.8-2.2-1.8l0,0h-2.4v6.3h0.9v-2.7h1.1l1.7,2.7h1.1
		L488.4,218.2L488.4,218.2L488.4,218.2z M486.4,217.6v-2h1.3l0,0c0.7,0,1.4,0.1,1.4,0.9c0,1-0.7,1-1.5,1l0,0h-1.2V217.6L486.4,217.6
		z"/>
</g>
</svg>
