<?xml version="1.0" encoding="utf-8"?>
<!-- Generator: Adobe Illustrator 26.3.1, SVG Export Plug-In . SVG Version: 6.00 Build 0)  -->
<svg version="1.1" id="Layer_1" xmlns="http://www.w3.org/2000/svg" xmlns:xlink="http://www.w3.org/1999/xlink" x="0px" y="0px"
	 viewBox="0 0 500 500" style="enable-background:new 0 0 500 500;" xml:space="preserve">
<style type="text/css">
	.st0{fill:#EA4335;}
	.st1{fill:#FBBC05;}
	.st2{fill:#4285F4;}
	.st3{fill:#34A853;}
</style>
<g>
	<path class="st0" d="M217.4,253.9c0,21.4-16.7,37.2-37.3,37.2s-37.3-15.8-37.3-37.2c0-21.6,16.7-37.2,37.3-37.2
		S217.4,232.3,217.4,253.9z M201.1,253.9c0-13.4-9.7-22.5-21-22.5s-21,9.2-21,22.5c0,13.2,9.7,22.5,21,22.5S201.1,267.1,201.1,253.9
		z"/>
	<path class="st1" d="M297.9,253.9c0,21.4-16.7,37.2-37.3,37.2s-37.3-15.8-37.3-37.2c0-21.5,16.7-37.2,37.3-37.2
		S297.9,232.3,297.9,253.9z M281.6,253.9c0-13.4-9.7-22.5-21-22.5s-21,9.2-21,22.5c0,13.2,9.7,22.5,21,22.5S281.6,267.1,281.6,253.9
		z"/>
	<path class="st2" d="M375,219v66.8c0,27.5-16.2,38.7-35.3,38.7c-18,0-28.9-12.1-33-21.9l14.2-5.9c2.5,6.1,8.7,13.2,18.7,13.2
		c12.3,0,19.8-7.6,19.8-21.8v-5.3h-0.6c-3.7,4.5-10.7,8.4-19.6,8.4c-18.6,0-35.6-16.2-35.6-37c0-21,17-37.3,35.6-37.3
		c8.9,0,15.9,3.9,19.6,8.3h0.6V219L375,219L375,219z M360.7,254c0-13.1-8.7-22.7-19.8-22.7c-11.3,0-20.7,9.6-20.7,22.7
		c0,13,9.4,22.4,20.7,22.4C351.9,276.4,360.7,267,360.7,254z"/>
	<path class="st3" d="M400.6,179.8v109h-15.9v-109H400.6z"/>
	<path class="st0" d="M462.6,266.1l12.7,8.4c-4.1,6.1-13.9,16.5-31,16.5c-21.1,0-36.9-16.3-36.9-37.2c0-22.1,15.9-37.2,35.1-37.2
		c19.3,0,28.7,15.4,31.8,23.7l1.7,4.2l-49.7,20.6c3.8,7.5,9.7,11.3,18,11.3C452.6,276.4,458.4,272.3,462.6,266.1L462.6,266.1z
		 M423.6,252.8l33.2-13.8c-1.8-4.6-7.3-7.9-13.8-7.9C434.7,231.1,423.2,238.4,423.6,252.8z"/>
	<path class="st2" d="M82.6,244.2v-15.8h53.2c0.5,2.7,0.8,6,0.8,9.5c0,11.8-3.2,26.5-13.7,36.9c-10.1,10.6-23.1,16.2-40.3,16.2
		c-31.8,0-58.6-25.9-58.6-57.7s26.8-57.7,58.6-57.7c17.6,0,30.1,6.9,39.6,15.9L111,202.6c-6.8-6.3-15.9-11.3-28.4-11.3
		c-23.2,0-41.4,18.7-41.4,42s18.2,42,41.4,42c15.1,0,23.7-6.1,29.2-11.5c4.5-4.5,7.4-10.8,8.5-19.5L82.6,244.2z"/>
</g>
</svg>
