<svg xmlns="http://www.w3.org/2000/svg" xmlns:xlink="http://www.w3.org/1999/xlink" width="500" height="500" viewBox="0 0 500 500">
  <defs>
    <clipPath id="clip-_500X500_nav_meetseamless">
      <rect width="500" height="500"/>
    </clipPath>
  </defs>
  <g id="_500X500_nav_meetseamless" data-name="500X500_nav_meetseamless" clip-path="url(#clip-_500X500_nav_meetseamless)">
    <g id="Group_22313" data-name="Group 22313" transform="translate(45.622 23.721)">
      <g id="Group_222" data-name="Group 222" transform="translate(0 0)">
        <g id="Group_218" data-name="Group 218" transform="translate(125.603)">
          <path id="Path_245" data-name="Path 245" d="M153.088,413.292a40.187,40.187,0,1,1-40.18-40.187A40.19,40.19,0,0,1,153.088,413.292Z" transform="translate(-34.122 -373.105)" fill="none" stroke="#0065f2" stroke-miterlimit="10" stroke-width="14"/>
          <path id="Path_246" data-name="Path 246" d="M190.384,723.632l3.823-155.512c14.76-5.263,32.384-17.464,30.832-32.807L212.977,416.98c-1.559-15.343-15.607-27.907-31.192-27.907H110.931c-15.607,0-29.648,12.564-31.2,27.907L67.662,535.312C66.1,550.656,83.727,562.856,98.5,568.119l3.808,155.512" transform="translate(-67.565 -269.373)" fill="none" stroke="#0065f2" stroke-linecap="round" stroke-linejoin="round" stroke-width="14"/>
        </g>
        <g id="Group_221" data-name="Group 221" transform="translate(0 49.086)">
          <g id="Group_219" data-name="Group 219" transform="translate(303.151)">
            <path id="Path_247" data-name="Path 247" d="M127.152,379.653a35.679,35.679,0,1,1-35.675,35.681A35.69,35.69,0,0,1,127.152,379.653Z" transform="translate(-91.477 -379.653)" fill="none" stroke="#0065f2" stroke-miterlimit="10" stroke-width="14"/>
            <path id="Path_248" data-name="Path 248" d="M159.832,694.515,163.213,554.9c13.111-4.738,28.77-15.674,27.376-29.453l-10.7-106.252c-1.387-13.778-13.853-25.052-27.7-25.052H92.463" transform="translate(-85.072 -289.333)" fill="none" stroke="#0065f2" stroke-linecap="round" stroke-linejoin="round" stroke-width="14"/>
          </g>
          <g id="Group_220" data-name="Group 220">
            <path id="Path_249" data-name="Path 249" d="M90.843,379.653a35.679,35.679,0,1,0,35.667,35.681A35.687,35.687,0,0,0,90.843,379.653Z" transform="translate(-20.891 -379.653)" fill="none" stroke="#0065f2" stroke-miterlimit="10" stroke-width="14"/>
            <path id="Path_250" data-name="Path 250" d="M81.426,694.515,78.046,554.9c-13.1-4.738-28.771-15.674-27.376-29.453l10.72-106.252c1.372-13.778,13.846-25.052,27.684-25.052h59.745" transform="translate(-50.582 -289.333)" fill="none" stroke="#0065f2" stroke-linecap="round" stroke-linejoin="round" stroke-width="14"/>
          </g>
        </g>
      </g>
    </g>
  </g>
</svg>
