<svg width="165" height="124" viewBox="0 0 165 124" fill="none" xmlns="http://www.w3.org/2000/svg">
<mask id="mask0_111_9709" style="mask-type:alpha" maskUnits="userSpaceOnUse" x="0" y="0" width="165" height="124">
<rect width="165" height="123.75" fill="#D9D9D9"/>
</mask>
<g mask="url(#mask0_111_9709)">
<rect x="-3" width="171" height="124" fill="url(#paint0_radial_111_9709)"/>
<rect x="-3" y="116" width="171" height="8" fill="#F99963"/>
<path d="M132.491 38.4916C132.334 38.9634 132.365 39.4352 132.302 39.9071C131.578 44.0906 129.154 46.7642 125.125 48.0224C123.52 48.4943 121.883 48.7144 120.214 48.683C118.263 48.683 116.311 48.683 114.359 48.683C114.076 48.683 114.013 48.7459 114.013 49.029C114.013 53.3069 114.013 57.5847 114.013 61.8312C114.013 62.1143 114.107 62.1772 114.391 62.1772C115.965 62.1772 117.539 62.1772 119.113 62.1772C119.364 62.1772 119.427 62.2401 119.427 62.4917C119.427 63.1837 119.427 63.9072 119.427 64.5992C119.427 64.8508 119.396 64.9452 119.113 64.9452C114.957 64.9452 110.802 64.9452 106.647 64.9452C106.395 64.9452 106.364 64.8508 106.364 64.6306C106.364 63.9072 106.395 63.1837 106.364 62.4917C106.364 62.2086 106.458 62.1772 106.678 62.1772C107.906 62.1772 109.134 62.1772 110.361 62.1772C110.613 62.1772 110.676 62.1143 110.676 61.8626C110.676 51.451 110.676 41.0394 110.676 30.5964C110.676 30.2819 110.582 30.2504 110.298 30.2504C109.071 30.2504 107.875 30.2504 106.647 30.2504C106.426 30.2504 106.332 30.1875 106.332 29.9673C106.364 29.2438 106.332 28.5204 106.332 27.7969C106.332 27.6082 106.364 27.5138 106.584 27.5138C111.526 27.5138 116.468 27.4824 121.41 27.5767C123.96 27.6082 126.416 28.2687 128.493 29.8415C130.634 31.4142 131.83 33.5846 132.271 36.1639C132.365 36.6672 132.428 37.1705 132.428 37.6738C132.428 37.7367 132.46 37.7681 132.491 37.7681C132.491 38.0198 132.491 38.2714 132.491 38.4916ZM113.981 38.0827C113.981 40.5047 113.981 42.9267 113.981 45.3488C113.981 45.6633 114.076 45.7262 114.359 45.7262C116.5 45.7262 118.64 45.7262 120.781 45.7262C121.694 45.7262 122.607 45.6004 123.488 45.3488C127.486 44.3108 129.91 40.2216 128.871 36.1954C128.651 35.3461 128.304 34.5597 127.801 33.8677C126.164 31.5086 123.803 30.5335 121.033 30.4706C118.829 30.4391 116.626 30.4706 114.391 30.4706C114.107 30.4706 114.013 30.5335 114.013 30.848C113.981 33.2386 113.981 35.6607 113.981 38.0827Z" fill="#5C696B"/>
<path d="M34.0249 27.5146C34.1508 27.5146 34.2767 27.5146 34.4026 27.5146C42.9649 27.5146 51.5272 27.5146 60.0895 27.5146C60.4673 27.5146 60.5302 27.609 60.5302 27.9865C60.5302 30.5972 60.5302 33.208 60.5302 35.8188C60.5302 36.1333 60.4358 36.2277 60.121 36.2277C59.334 36.1962 58.547 36.2277 57.7601 36.2277C57.5082 36.2277 57.4453 36.1648 57.4453 35.9131C57.4453 34.246 57.4453 32.5789 57.4453 30.9118C57.4453 30.5972 57.3508 30.5343 57.0675 30.5343C54.4548 30.5343 51.8735 30.5343 49.2607 30.5343C48.9774 30.5343 48.883 30.5972 48.9145 30.8803C48.9145 41.1975 48.9145 51.5148 48.9145 61.8634C48.9145 62.178 49.0089 62.2094 49.2922 62.2094C50.5828 62.2094 51.8735 62.2094 53.1641 62.2094C53.416 62.2094 53.4789 62.2723 53.4789 62.524C53.4789 63.216 53.4789 63.9395 53.4789 64.6315C53.4789 64.8831 53.416 64.9775 53.1641 64.9775C49.2292 64.9775 45.2944 64.9775 41.3595 64.9775C41.1391 64.9775 41.0447 64.946 41.0447 64.6944C41.0447 63.9709 41.0762 63.2475 41.0447 62.524C41.0447 62.2723 41.1391 62.2409 41.3595 62.2409C42.6501 62.2409 43.9722 62.2409 45.2629 62.2409C45.5462 62.2409 45.6092 62.1465 45.6092 61.8634C45.6092 51.5462 45.6092 41.229 45.6092 30.8803C45.6092 30.6287 45.5462 30.5343 45.2629 30.5343C42.6186 30.5343 40.0059 30.5343 37.3616 30.5343C37.1098 30.5343 37.0469 30.5972 37.0469 30.8489C37.0469 32.516 37.0469 34.1831 37.0469 35.8502C37.0469 36.1648 36.9524 36.2277 36.6691 36.2277C35.7877 36.2277 34.8748 36.2277 33.9619 36.2277V36.0704C34.0878 35.9446 34.0249 35.7873 34.0249 35.6615C34.0249 32.9249 34.0249 30.2198 34.0249 27.5146Z" fill="#5C696B"/>
<path d="M34.0249 27.5143C34.0249 30.2194 34.0249 32.9246 34.0249 35.6297C34.0249 35.7555 34.0878 35.9128 33.9619 36.0386V27.5143C33.9934 27.4829 34.0249 27.4829 34.0249 27.5143Z" fill="#B44700"/>
<path d="M82.8487 67.1474C82.8487 67.0845 82.8802 67.0216 82.9432 66.8643C83.195 68.0281 83.4468 69.129 83.6987 70.23C83.8875 71.1421 84.1079 72.0858 84.2968 72.998C84.3597 73.3125 84.4542 73.344 84.706 73.1238C86.4373 71.7398 88.2002 70.3558 89.9315 68.9403C90.2148 68.6887 90.5926 68.6258 90.9074 68.7516C92.985 69.3178 95.0626 69.8525 97.1717 70.3872C97.6439 70.513 97.6439 70.5131 97.5494 70.0412C96.8884 66.9272 96.2273 63.8131 95.5348 60.7306C95.5033 60.6362 95.4718 60.5104 95.4403 60.416C95.0626 60.6991 94.7163 61.0137 94.3386 61.2968C94.5904 61.3282 94.5274 61.5484 94.5589 61.7057C94.9367 63.4671 95.3144 65.2286 95.6922 66.9901C95.8181 67.6192 95.9755 68.2798 96.1014 68.9403C94.2127 68.4685 92.3869 67.9967 90.5611 67.4934C90.2463 67.399 89.9 67.4619 89.6797 67.6821C88.2316 68.8459 86.7836 70.0098 85.3356 71.1421C85.1467 71.2994 85.0523 71.268 85.0208 71.0478C84.706 69.6323 84.3912 68.2168 84.0764 66.8014C83.919 66.2666 83.8246 65.7319 83.7616 65.1972C83.7616 65.1972 82.4395 64.7253 82.0303 65.1972C81.9673 65.7319 81.8729 66.2666 81.7155 66.8014C81.4322 68.2168 81.0859 69.6323 80.7711 71.0478C80.7082 71.2994 80.6452 71.3309 80.4563 71.1421C79.0083 69.9783 77.5603 68.8459 76.1122 67.6821C75.8919 67.4619 75.5456 67.399 75.2308 67.4934C73.405 67.9967 71.5792 68.4685 69.6905 68.9403C69.8164 68.2483 69.9738 67.6192 70.0997 66.9901C70.4775 65.2286 70.8552 63.4671 71.233 61.7057C71.2644 61.5798 71.2015 61.3282 71.4533 61.2968C71.0756 61.0137 70.7293 60.6991 70.3516 60.416C70.3201 60.5104 70.2886 60.6047 70.2571 60.7306C69.5961 63.8446 68.9035 66.9586 68.2425 70.0412C68.148 70.5131 68.148 70.513 68.6202 70.3872C70.6978 69.8525 72.7754 69.3178 74.8845 68.7516C75.2308 68.6258 75.6086 68.7201 75.8604 68.9403C77.5917 70.3558 79.3546 71.7083 81.0859 73.1238C81.3377 73.3125 81.4322 73.3125 81.4951 72.998C81.684 72.0858 81.8729 71.1421 82.0932 70.23C82.3451 69.129 82.5969 68.0596 82.8487 66.8643C82.9117 67.0216 82.9432 67.0845 82.9432 67.1474" fill="#F79763"/>
<path d="M70.4147 60.3844C69.911 59.8496 69.3759 59.3464 68.9037 58.8116C65.441 55.0056 63.7096 49.9728 64.0874 44.8456C64.7799 34.3397 73.8774 26.4131 84.3914 27.1051C94.9054 27.7971 102.838 36.8875 102.146 47.3935C101.831 51.9859 99.879 56.3267 96.6367 59.5666C96.2904 59.9126 95.9127 60.2586 95.5349 60.6046C95.4405 60.6989 95.3461 60.7618 95.2516 60.8562C94.0554 61.7999 92.7648 62.6177 91.3797 63.2782C84.895 66.4237 77.2141 65.6374 71.5164 61.2651C71.1387 60.982 70.7924 60.6989 70.4147 60.3844ZM83.1637 29.936C74.2236 29.9045 66.952 37.1392 66.9205 46.1038C66.889 55.037 74.1292 62.3031 83.1007 62.3346C91.9463 62.366 99.155 55.2887 99.3124 46.4498C99.4698 37.4852 92.3241 30.1247 83.384 29.9675C83.2896 29.936 83.2266 29.936 83.1637 29.936Z" fill="#5C696B"/>
<path d="M83.1322 61.1394C74.8532 61.1394 68.1167 54.408 68.1167 46.1353C68.1167 37.8627 74.8532 31.1313 83.1322 31.1313C91.4112 31.1313 98.1477 37.8627 98.1477 46.1353C98.1477 46.1983 98.1477 46.2926 98.1477 46.3555C97.9903 54.5653 91.3167 61.1394 83.1322 61.1394ZM83.1322 32.2323C75.4513 32.2323 69.2185 38.4603 69.2185 46.1353C69.2185 53.8104 75.4513 60.0384 83.1322 60.0384C90.8131 60.0384 97.0459 53.8104 97.0459 46.1353C97.0774 38.4918 90.876 32.2637 83.1952 32.2323C83.1637 32.2323 83.1637 32.2323 83.1322 32.2323Z" fill="#F79763"/>
<path d="M82.7861 46.2303C82.7861 47.0167 82.6287 47.8345 82.2825 48.5579C81.9362 49.3443 81.1492 49.8161 80.3308 49.8161C79.5123 49.8476 78.7568 49.4072 78.3791 48.6838C77.8754 47.7401 77.6865 46.6707 77.8124 45.6012C77.8439 44.9721 78.0013 44.343 78.2846 43.7768C78.7253 42.9275 79.3864 42.3928 80.3937 42.4557C81.3696 42.4871 81.9677 43.0219 82.3769 43.8712C82.6602 44.5946 82.8176 45.4125 82.7861 46.2303ZM81.6214 46.1359C81.6214 45.8843 81.6214 45.6326 81.6214 45.381C81.5899 44.8463 81.4325 44.3115 81.1177 43.8397C80.8029 43.3679 80.2048 43.2735 79.7327 43.5566C79.6382 43.6195 79.5438 43.7139 79.4808 43.8083C79.3234 43.997 79.229 44.2172 79.166 44.4374C78.9457 45.2552 78.8827 46.1045 78.9772 46.9223C79.0086 47.2998 79.1031 47.6772 79.2605 48.0547C79.3864 48.4636 79.7327 48.7467 80.1419 48.841C80.6141 48.904 81.0863 48.6523 81.2751 48.2119C81.5584 47.5514 81.6844 46.8279 81.6214 46.1359Z" fill="#F79763"/>
<path d="M73.6254 48.7777C74.4124 48.7777 75.1049 48.7777 75.766 48.7777C75.9863 48.7777 75.9863 48.6833 75.9863 48.4946C75.9863 48.3373 75.8919 48.1171 76.0493 48.0542C76.3326 47.9913 76.6159 47.9913 76.8677 48.0542C76.9622 48.0542 76.9307 48.2115 76.9307 48.2744C76.9307 48.6519 76.9307 49.0608 76.9307 49.4382C76.9307 49.627 76.8677 49.6899 76.6789 49.6899C75.2623 49.6899 73.8772 49.6899 72.4607 49.6899C72.2718 49.6899 72.2088 49.627 72.2088 49.4382C72.1459 49.0293 72.3348 48.589 72.6495 48.3373C73.5624 47.5509 74.3809 46.7331 75.1993 45.8524C75.4512 45.5693 75.6401 45.1918 75.703 44.8144C75.7975 44.3425 75.6086 43.8393 75.1993 43.5876C74.7272 43.3045 74.1291 43.336 73.6884 43.6191C73.2791 43.9022 73.1217 44.4055 73.3106 44.8773C73.4365 45.1918 73.3106 45.2547 73.0273 45.3176C72.3662 45.4435 72.3348 45.4435 72.2403 44.7515C72.0514 43.5562 72.8384 42.5811 74.192 42.4552C75.1364 42.3609 76.0493 42.5811 76.5529 43.4618C77.0566 44.3111 76.8677 45.1289 76.3641 45.9153C75.9863 46.4815 75.5141 46.9848 74.979 47.4566C74.6012 47.8655 74.1605 48.2744 73.6254 48.7777Z" fill="#F79763"/>
<path d="M84.864 48.7783C85.651 48.7783 86.3435 48.7783 87.0361 48.7783C87.2879 48.7783 87.225 48.621 87.2564 48.4637C87.2564 48.3379 87.162 48.0863 87.3509 48.0548C87.6027 47.9919 87.886 47.9919 88.1378 48.0548C88.2008 48.0863 88.1693 48.1806 88.2008 48.2435C88.2008 48.6524 88.2008 49.0299 88.2008 49.4388C88.2008 49.6275 88.1378 49.659 87.9805 49.659C86.5639 49.659 85.1473 49.659 83.7308 49.659C83.6363 49.659 83.5734 49.659 83.5104 49.5646C83.4475 49.2186 83.5104 48.8726 83.6993 48.5895C84.6122 47.6459 85.651 46.8281 86.5009 45.8215C86.8787 45.4126 87.0676 44.8464 87.0046 44.2802C86.8787 43.6511 86.2491 43.2107 85.588 43.368H85.5566C84.8011 43.4938 84.4233 43.9971 84.5492 44.6891C84.6437 45.1924 84.6122 45.1609 84.14 45.3182C83.7937 45.4126 83.6678 45.2868 83.5734 44.9722C83.1956 43.6511 84.1085 42.4558 85.588 42.3929C85.8084 42.3615 86.0602 42.3929 86.2806 42.4244C87.9175 42.7075 88.61 44.1229 87.8545 45.6013C87.5083 46.199 87.0676 46.7337 86.5324 47.2055C85.9973 47.7088 85.4621 48.2121 84.864 48.7783Z" fill="#F79763"/>
<path d="M90.8762 48.7783C91.6632 48.7783 92.3557 48.7783 93.0483 48.7783C93.3001 48.7783 93.2372 48.621 93.2686 48.4637C93.2686 48.3379 93.1742 48.0863 93.3631 48.0548C93.6149 47.9919 93.8982 47.9919 94.15 48.0548C94.213 48.0863 94.1815 48.1806 94.213 48.2435C94.213 48.6524 94.213 49.0299 94.213 49.4388C94.213 49.6275 94.15 49.659 93.9927 49.659C92.5761 49.659 91.1595 49.659 89.743 49.659C89.6485 49.659 89.5856 49.659 89.5226 49.5646C89.4597 49.2186 89.5226 48.8726 89.7115 48.5895C90.6244 47.6459 91.6632 46.8281 92.5131 45.8215C92.8909 45.4126 93.0798 44.8464 93.0168 44.2802C92.8909 43.6511 92.2613 43.2107 91.6002 43.368H91.5688C90.8133 43.4938 90.4355 43.9971 90.5614 44.6891C90.6559 45.1924 90.6244 45.1609 90.1522 45.3182C89.8059 45.4126 89.68 45.2868 89.5856 44.9722C89.2078 43.6511 90.1207 42.4558 91.6002 42.3929C91.8206 42.3615 92.0724 42.3929 92.2928 42.4244C93.9297 42.7075 94.6222 44.1229 93.8667 45.6013C93.5205 46.199 93.0798 46.7337 92.5446 47.2055C92.0095 47.7088 91.4743 48.2121 90.8762 48.7783Z" fill="#F79763"/>
<path d="M48.0554 106.937C47.9924 106.779 47.835 106.811 47.7091 106.779C46.2296 106.339 45.4426 105.332 45.4426 103.823C45.4426 101.809 45.4426 99.7963 45.4426 97.8146C45.4426 97.4686 45.3797 97.2799 45.0019 97.3428C44.9075 97.3428 44.813 97.3428 44.6871 97.3428C44.2779 97.3428 44.1205 97.1226 44.2464 96.7137C44.2779 96.5879 44.4038 96.5879 44.4983 96.5879C45.5056 96.5879 46.5129 96.5879 47.5202 96.5879C47.898 96.5879 47.7721 96.8395 47.7721 96.9968C47.7721 97.1541 47.8036 97.3428 47.5202 97.3428C47.2055 97.3114 46.9221 97.3428 46.6074 97.3428C46.4185 97.3428 46.3555 97.4057 46.3555 97.5944C46.3555 99.7334 46.324 101.872 46.387 104.011C46.387 104.892 46.9536 105.647 47.7721 105.899C48.5276 106.182 49.346 106.182 50.1015 105.899C50.9829 105.615 51.581 104.766 51.5496 103.854C51.5496 101.809 51.5496 99.7334 51.5496 97.6574C51.5496 97.4057 51.4866 97.3114 51.2348 97.3428C50.9515 97.3743 50.6681 97.3428 50.4163 97.3428C50.133 97.3743 50.1015 97.217 50.133 96.9968C50.133 96.8081 50.07 96.5879 50.4163 96.5879C51.4236 96.5879 52.3995 96.5879 53.4068 96.5879C53.7531 96.5879 53.6901 96.7766 53.6901 96.9968C53.6901 97.217 53.7216 97.3743 53.4068 97.3428C53.1235 97.3428 52.6828 97.1855 52.5254 97.4057C52.368 97.6259 52.4625 98.0034 52.4625 98.3494V103.571C52.4625 105.427 51.6755 106.433 49.8497 106.842C49.8182 106.842 49.7867 106.874 49.7553 106.905C49.1572 106.937 48.5905 106.937 48.0554 106.937Z" fill="#5C696B"/>
<path d="M90.0804 106.937C89.4193 106.686 88.7268 106.434 88.2231 105.836C88.2231 105.994 88.2231 106.182 88.2231 106.34C88.286 106.717 88.1287 106.812 87.7824 106.812C87.4361 106.812 87.3732 106.686 87.3732 106.371C87.4046 105.648 87.3732 104.924 87.3732 104.232C87.3732 104.075 87.2472 103.792 87.5935 103.792C87.8768 103.792 88.1916 103.666 88.2546 104.169C88.349 104.767 88.6323 105.302 89.1045 105.648C90.3322 106.717 92.2524 106.214 92.6301 104.736C92.819 103.981 92.5042 103.194 91.8432 102.785C91.1506 102.376 90.3951 101.999 89.6396 101.716C89.073 101.496 88.5694 101.181 88.1286 100.772C87.1843 99.7342 87.2472 98.13 88.286 97.1863C88.6638 96.8403 89.1675 96.6201 89.6711 96.5258C90.7414 96.3685 91.3395 96.5572 92.3468 97.3751C92.4413 97.3122 92.4098 97.2178 92.3783 97.1234C92.3154 96.746 92.4728 96.6201 92.8505 96.6516C93.1338 96.6831 93.2283 96.7145 93.2283 97.0291C93.1968 97.6267 93.2283 98.2558 93.2283 98.8849C93.2283 99.0422 93.3227 99.3253 93.0079 99.2938C92.7875 99.2624 92.4728 99.4511 92.3783 99.0107C92.1894 97.9727 91.2451 97.2492 90.2063 97.2807C89.4193 97.2807 88.7268 97.784 88.4749 98.5074C88.2231 99.2624 88.5379 100.112 89.2304 100.521C89.8915 100.961 90.647 101.213 91.3395 101.559C91.6858 101.716 92.0006 101.873 92.3154 102.062C93.3227 102.754 93.7949 103.635 93.543 104.861C93.3856 105.931 92.5042 106.78 91.4339 106.937C91.4025 106.937 91.371 107 91.3395 107C90.9618 106.937 90.5211 106.937 90.0804 106.937Z" fill="#5C696B"/>
<path d="M78.7792 106.937C78.1496 106.717 77.583 106.371 77.1108 105.931C76.1979 104.861 75.9776 103.351 76.5442 102.062C77.0478 100.867 78.2755 100.112 79.5976 100.174C80.5735 100.206 81.4549 100.741 81.9586 101.559V100.458C81.9586 99.5768 81.9271 98.6647 81.9586 97.7839C81.9586 97.375 81.8641 97.2806 81.4864 97.3121C81.2975 97.3121 80.9827 97.4694 80.9827 97.029C80.9827 96.7144 81.0457 96.5572 81.4234 96.5886C81.7697 96.6201 82.0845 96.6201 82.4308 96.5886C82.777 96.5572 82.8715 96.6515 82.8715 97.029C82.8715 99.8599 82.8715 102.722 82.84 105.553C82.84 105.962 82.9344 106.119 83.3436 106.057C83.7529 105.994 83.8473 106.151 83.8158 106.528C83.7843 106.717 83.7214 106.78 83.5325 106.78C83.0918 106.78 82.6511 106.78 82.2104 106.78C81.99 106.78 81.9271 106.686 81.9586 106.497C81.9586 106.214 81.9586 105.931 81.9271 105.648C81.4864 106.34 80.8253 106.654 80.1013 106.937C79.6606 106.937 79.2199 106.937 78.7792 106.937ZM77.1738 103.54C77.1738 105.019 78.1496 106.151 79.5032 106.151C80.7309 106.151 81.6438 105.365 81.9271 104.106C82.1789 102.848 81.5179 101.559 80.4476 101.15C78.7792 100.52 77.2052 101.716 77.1738 103.54Z" fill="#5C696B"/>
<path d="M100.846 106.937C100.752 106.78 100.594 106.811 100.468 106.78C99.1147 106.308 98.2648 105.018 98.2963 103.445C98.3277 101.904 99.2406 100.677 100.626 100.3C101.853 99.891 103.207 100.363 103.931 101.432C104.057 101.369 103.994 101.244 103.994 101.149C103.994 100.331 103.994 100.331 104.781 100.331C105.001 100.331 105.222 100.331 105.442 100.331C105.788 100.3 105.883 100.426 105.883 100.772C105.883 101.023 105.788 101.086 105.536 101.086C104.875 101.086 104.875 101.086 104.875 101.778C104.875 103.037 104.875 104.295 104.875 105.553C104.875 105.962 104.97 106.119 105.379 106.056C105.662 106.025 105.883 106.025 105.851 106.434C105.82 106.717 105.757 106.78 105.505 106.748C105.379 106.748 105.253 106.748 105.127 106.748C104.781 106.748 104.34 106.843 104.12 106.685C103.868 106.497 104.088 106.025 103.994 105.584C103.553 106.339 102.892 106.654 102.2 106.937C101.727 106.937 101.287 106.937 100.846 106.937ZM103.994 103.729C103.994 102.439 103.396 101.495 102.483 101.149C101.381 100.709 100.154 101.149 99.5554 102.156C98.8944 103.32 99.1777 104.924 100.154 105.647C100.846 106.213 101.822 106.308 102.64 105.867C103.49 105.49 103.994 104.672 103.994 103.729Z" fill="#5C696B"/>
<path d="M112.934 106.937C112.871 106.811 112.745 106.842 112.619 106.811C111.171 106.402 110.29 105.175 110.29 103.571C110.29 101.998 111.171 100.709 112.588 100.3C114.539 99.7334 116.68 100.897 116.743 103.571C116.743 103.885 116.554 103.823 116.365 103.823C114.791 103.823 113.217 103.823 111.675 103.823C111.234 103.823 111.234 103.98 111.328 104.326C111.517 105.238 112.241 105.93 113.154 106.087C114.161 106.276 115.043 106.024 115.641 105.175C115.956 104.735 116.113 105.018 116.365 105.175C116.711 105.364 116.396 105.553 116.302 105.678C115.893 106.245 115.295 106.685 114.602 106.842C114.508 106.874 114.413 106.811 114.382 106.937C113.847 106.937 113.374 106.937 112.934 106.937ZM113.469 103.099C114.067 103.099 114.697 103.068 115.326 103.099C115.704 103.131 115.704 102.973 115.641 102.659C115.421 101.684 114.508 100.96 113.5 100.992C112.43 101.023 111.517 101.809 111.297 102.847C111.265 103.068 111.328 103.099 111.517 103.099C112.147 103.099 112.808 103.099 113.469 103.099Z" fill="#5C696B"/>
<path d="M71.7277 106.937C71.6963 106.906 71.6648 106.874 71.6333 106.843C70.2482 106.56 69.2094 105.427 69.115 103.666C68.9891 101.873 70.3112 100.3 72.1055 100.174C72.5777 100.143 73.0184 100.206 73.4591 100.363C74.7497 100.898 75.5997 102.187 75.5367 103.571C75.5052 103.886 75.3164 103.823 75.159 103.823H70.563C69.9964 103.823 69.9649 103.823 70.1538 104.389C70.3741 105.27 71.0982 105.931 71.9796 106.056C72.8925 106.277 73.8683 105.899 74.4349 105.144C74.5294 105.05 74.5294 104.798 74.7183 104.861C74.9071 104.956 75.096 105.05 75.2534 105.207C75.3478 105.302 75.2219 105.396 75.159 105.459C74.7497 106.119 74.0572 106.591 73.3017 106.78C73.2073 106.811 73.1128 106.78 73.0813 106.874C72.6721 106.937 72.1999 106.937 71.7277 106.937ZM72.3258 103.1C72.9239 103.1 73.5535 103.068 74.1831 103.1C74.5923 103.131 74.5923 102.942 74.4979 102.628C74.2775 101.653 73.3961 100.961 72.3888 100.961C71.3185 100.992 70.4371 101.716 70.1853 102.754C70.1223 103.037 70.2168 103.068 70.4686 103.068C71.0667 103.1 71.6963 103.1 72.3258 103.1Z" fill="#5C696B"/>
<path d="M119.482 106.937C119.135 106.716 118.758 106.622 118.443 106.339C118.443 106.622 118.191 106.842 117.908 106.811C117.845 106.811 117.782 106.779 117.719 106.779C117.53 106.748 117.561 106.622 117.561 106.528C117.561 106.087 117.561 105.647 117.561 105.207C117.561 105.049 117.467 104.798 117.782 104.829C118.002 104.861 118.254 104.703 118.38 105.049C118.6 105.773 119.261 106.276 120.048 106.213C120.583 106.213 121.087 105.867 121.213 105.332C121.307 104.798 121.056 104.357 120.457 104.106C119.954 103.917 119.419 103.76 118.915 103.571C118.285 103.414 117.813 102.91 117.656 102.281C117.467 101.621 117.75 100.929 118.317 100.551C118.978 100.079 119.859 100.017 120.552 100.425C120.709 100.488 120.835 100.771 121.024 100.394C121.087 100.268 121.433 100.3 121.654 100.363C121.811 100.425 121.748 100.614 121.748 100.74C121.748 101.023 121.748 101.338 121.748 101.621C121.748 101.747 121.843 101.998 121.591 101.998C121.37 101.998 121.087 102.155 120.93 101.747C120.709 101.055 119.985 100.677 119.293 100.897C119.261 100.897 119.261 100.897 119.23 100.929C118.726 101.055 118.443 101.589 118.569 102.093C118.632 102.344 118.789 102.533 119.009 102.659C119.419 102.847 119.828 103.005 120.237 103.099C120.489 103.193 120.772 103.288 121.024 103.382C121.78 103.665 122.22 104.42 122.094 105.207C122.031 105.93 121.528 106.559 120.804 106.779C120.709 106.811 120.615 106.779 120.583 106.874C120.237 106.937 119.859 106.937 119.482 106.937Z" fill="#5C696B"/>
<path d="M73.8368 77.6844C74.9071 77.7473 76.1977 77.5901 77.4569 77.7788C80.6048 78.2192 82.2732 81.459 80.6992 84.1327C80.227 84.9191 79.4715 85.5482 78.5901 85.8313C78.3068 85.9256 78.3068 86.02 78.4642 86.2402C79.3456 87.5298 80.1956 88.8509 81.0455 90.172C81.1714 90.4237 81.4232 90.5495 81.7065 90.5495C82.7454 90.518 82.7454 90.5495 82.7454 91.5561C82.7454 92.2795 82.7454 92.2795 82.0528 92.2795C81.4547 92.2795 80.8251 92.2795 80.1956 92.2795C79.9437 92.311 79.6919 92.1852 79.566 91.9335C78.4642 90.172 77.331 88.442 76.2292 86.6805C76.1348 86.4604 75.9144 86.3345 75.6626 86.366C75.096 86.3974 74.5293 86.366 73.9627 86.366C73.7109 86.366 73.585 86.3974 73.6164 86.712C73.6164 87.8758 73.6164 89.0711 73.6164 90.235C73.6164 90.518 73.7109 90.5495 73.9627 90.5495C74.3719 90.5495 74.7812 90.5495 75.1904 90.5495C75.3793 90.5495 75.4737 90.581 75.4737 90.8011C75.4737 91.1786 75.4737 91.5875 75.4737 91.9964C75.4737 92.2166 75.4107 92.311 75.1904 92.2795C73.585 92.2795 71.9795 92.2795 70.3741 92.2795C70.1223 92.2795 70.0278 92.1852 70.0593 91.965C70.0593 91.5875 70.0908 91.2415 70.0593 90.864C70.0278 90.581 70.1537 90.518 70.4056 90.5495C70.7518 90.5495 71.1926 90.6753 71.3814 90.4866C71.6333 90.2979 71.4444 89.826 71.4759 89.48C71.4759 86.3031 71.4759 83.0947 71.4759 79.9177C71.4759 79.5403 71.3814 79.4774 71.0037 79.4774C70.0593 79.5088 70.0593 79.4774 70.0593 78.5337C70.0593 77.7159 70.0593 77.7159 70.8463 77.7159C71.7277 77.6844 72.6406 77.6844 73.8368 77.6844ZM73.6164 81.9938V84.1327C73.6164 84.3214 73.6164 84.4787 73.8997 84.4472C74.8441 84.4472 75.7885 84.4787 76.7329 84.4158C78.0235 84.3843 79.0308 83.3463 79.0308 82.0567C79.0623 80.6727 78.2439 79.7605 76.8273 79.5717C75.8514 79.4459 74.8441 79.5403 73.8368 79.5088C73.585 79.5088 73.585 79.6346 73.585 79.7919C73.6164 80.5783 73.6164 81.2703 73.6164 81.9938Z" fill="#5C696B"/>
<path d="M65.4005 90.5172C65.1172 89.6365 64.8339 88.7872 64.5821 87.9379C64.5191 87.7806 64.4247 87.7806 64.2988 87.7806C62.7878 87.7806 61.2768 87.7806 59.7658 87.7806C59.5769 87.7806 59.5139 87.875 59.4825 88.0323C59.2621 88.7872 59.0418 89.5107 58.7899 90.2341C58.727 90.4543 58.7899 90.5172 59.0103 90.5172C59.3566 90.5172 59.7028 90.5172 60.0176 90.5172C60.2065 90.5172 60.3009 90.5801 60.2694 90.7688C60.2694 90.8003 60.2694 90.8318 60.2694 90.8632C60.2694 91.3036 60.4268 91.9012 60.2065 92.1843C59.9547 92.4674 59.3566 92.2787 58.9158 92.2787C57.9085 92.2787 56.9012 92.2787 55.8939 92.2787C55.6105 92.2787 55.5161 92.2158 55.5161 91.9012C55.5476 91.5238 55.5476 91.1778 55.5161 90.8003C55.5161 90.5801 55.5791 90.5172 55.7994 90.5172C56.5549 90.5172 56.5864 90.4858 56.8068 89.7623C57.877 86.4595 58.9473 83.1568 60.0491 79.854C60.175 79.508 60.0806 79.4136 59.7658 79.4765C59.7343 79.4765 59.6713 79.4765 59.6399 79.4765C59.1992 79.4136 58.5381 79.6338 58.4122 79.3822C58.1918 78.9732 58.3492 78.4071 58.3177 77.8723C58.3177 77.6836 58.4122 77.6836 58.5381 77.6836C60.1435 77.6836 61.7175 77.6836 63.3229 77.6836C63.6062 77.6836 63.6062 77.8723 63.6692 78.0611C64.4562 80.4202 65.2117 82.7478 65.9671 85.107C66.5023 86.7741 67.0689 88.4412 67.6041 90.1397C67.6985 90.4858 67.8559 90.5801 68.1707 90.5487C68.5799 90.4858 68.8003 90.5801 68.7373 91.0519C68.6743 91.4294 68.8947 91.9327 68.6429 92.1843C68.391 92.436 67.8874 92.2472 67.5096 92.2472C66.4393 92.2472 65.3376 92.2472 64.2673 92.2472C63.984 92.2472 63.8895 92.1843 63.8895 91.8698C63.921 91.4923 63.8895 91.1463 63.8895 90.7688C63.8895 90.5172 63.984 90.4858 64.2043 90.4858C64.5821 90.5172 64.9598 90.5172 65.4005 90.5172ZM63.921 85.9248C63.7636 85.1699 62.1897 80.2314 62.0008 79.9169C61.4027 81.8671 60.8046 83.7859 60.2065 85.7046C60.1435 85.9248 60.238 85.9562 60.4268 85.9562C61.5601 85.9248 62.7248 85.9248 63.921 85.9248Z" fill="#5C696B"/>
<path d="M96.6278 84.0378C96.6278 82.6223 96.6278 81.2383 96.6278 79.8228C96.6278 79.5397 96.5649 79.4454 96.2816 79.4454C95.9353 79.4454 95.4631 79.6026 95.2742 79.3824C95.0854 79.1623 95.2113 78.7219 95.2113 78.3759C95.2113 77.7153 95.2113 77.7153 95.8723 77.7153C97.2889 77.7153 98.7055 77.7153 100.122 77.7153C100.405 77.7153 100.5 77.7782 100.5 78.0613C100.468 78.5017 100.626 79.0993 100.405 79.3824C100.185 79.6655 99.5869 79.4768 99.1462 79.4768C98.8628 79.4768 98.7999 79.5712 98.7999 79.8228C98.7999 82.465 98.7999 85.1072 98.7999 87.7809C98.7684 89.0706 99.6498 90.2344 100.94 90.486C101.79 90.7062 102.703 90.6748 103.522 90.3917C104.592 89.9828 105.253 89.1649 105.253 88.0325C105.316 85.296 105.285 82.5279 105.285 79.7914C105.285 79.5712 105.19 79.5083 105.001 79.5397C104.624 79.5397 104.277 79.5397 103.899 79.5397C103.648 79.5397 103.585 79.4454 103.585 79.2252C103.616 78.8477 103.585 78.4703 103.585 78.0928C103.585 77.8726 103.616 77.7782 103.868 77.7782C105.41 77.7782 106.984 77.7782 108.527 77.7782C108.747 77.7782 108.842 77.8412 108.81 78.0613C108.81 78.1557 108.81 78.2501 108.81 78.3759C108.81 78.7533 108.936 79.1937 108.747 79.4454C108.558 79.697 108.055 79.5397 107.708 79.5397C107.362 79.5397 107.425 79.7284 107.425 79.9486V87.6865C107.425 90.4546 105.788 92.279 103.05 92.5621C101.664 92.7193 100.279 92.6564 98.9573 92.0273C97.3519 91.241 96.5649 89.9198 96.5334 88.1584C96.5964 86.68 96.6278 85.3589 96.6278 84.0378Z" fill="#5C696B"/>
<path d="M36.0938 91.0841C36.0938 91.3357 36.0938 91.5874 36.0938 91.839C36.1567 92.2165 35.9679 92.2794 35.6531 92.2479C35.2439 92.2165 34.8661 92.2165 34.4569 92.2479C34.2365 92.2479 34.1421 92.185 34.1421 91.9648C34.1421 90.6123 34.1421 89.2283 34.1421 87.8757C34.1421 87.6555 34.2365 87.5926 34.4254 87.5926C34.8346 87.5926 35.2753 87.5926 35.716 87.5926C35.9679 87.5926 36.0623 87.6555 36.1253 87.9386C36.3771 89.4484 37.353 90.4865 38.7695 90.6437C40.2805 90.8325 41.5397 90.0146 41.4452 88.379C41.4137 87.8442 41.1304 87.341 40.7212 87.0264C40.2805 86.6804 39.8083 86.4288 39.3046 86.24C38.4232 85.8626 37.5103 85.4851 36.6289 85.0448C35.4642 84.4471 34.5828 83.5978 34.2995 82.2453C33.7643 79.32 36.0623 77.181 38.8639 77.4641C39.9342 77.5899 40.3749 77.8101 41.3508 78.628C41.3508 78.3763 41.3508 78.1561 41.3508 77.9674C41.3508 77.7787 41.3508 77.6843 41.6026 77.6843C42.0748 77.6843 42.547 77.6843 43.0192 77.6843C43.208 77.6843 43.271 77.7472 43.271 77.9359C43.271 79.1627 43.271 80.3894 43.271 81.6162C43.271 81.8364 43.1766 81.8993 42.9877 81.8993C42.8933 81.8993 42.7988 81.8993 42.7359 81.8993C41.9489 81.9936 41.4137 81.9307 41.099 80.8927C40.6582 79.3829 38.8325 78.7852 37.5418 79.5401C36.5975 80.0434 36.2512 81.2073 36.7863 82.1509C36.8808 82.3396 37.0067 82.4969 37.1326 82.6227C37.4789 82.9687 37.8881 83.2204 38.3603 83.3776C39.2417 83.7551 40.1231 84.1326 41.0045 84.5415C42.2322 85.1077 43.271 85.894 43.6488 87.2781C44.4043 89.9517 42.5155 92.4052 39.6509 92.4681C38.3288 92.5625 37.0067 92.0592 36.0938 91.0841Z" fill="#5C696B"/>
<path d="M124.455 91.1153C124.455 91.4613 124.455 91.7129 124.455 91.9645C124.455 92.1847 124.361 92.2791 124.14 92.2476C123.731 92.2476 123.29 92.2162 122.85 92.2476C122.566 92.2476 122.503 92.1533 122.503 91.9016C122.503 90.5805 122.503 89.2594 122.503 87.9383C122.503 87.6867 122.566 87.5608 122.85 87.5923C123.259 87.6238 123.637 87.6238 124.046 87.5923C124.329 87.5923 124.424 87.6552 124.487 87.9698C124.675 89.511 125.998 90.6749 127.54 90.6749C129.114 90.6434 130.058 89.5111 129.744 88.0956C129.586 87.4979 129.177 86.9947 128.61 86.7116C127.666 86.2083 126.69 85.7679 125.683 85.3905C124.959 85.1074 124.298 84.6984 123.731 84.1637C122.566 83.0313 122.315 81.6159 122.787 80.1375C123.259 78.6591 124.361 77.7784 125.903 77.4953C127.225 77.2122 128.61 77.5896 129.586 78.5333C129.618 78.5018 129.649 78.5018 129.649 78.4704C129.712 77.6525 129.712 77.6525 130.531 77.6525C130.877 77.6525 131.318 77.5582 131.506 77.7154C131.727 77.9042 131.569 78.376 131.569 78.722C131.569 79.6027 131.538 80.5149 131.569 81.3957C131.569 81.8046 131.443 81.899 131.066 81.8675C130.751 81.836 130.405 81.836 130.09 81.8675C129.744 81.899 129.649 81.7731 129.586 81.4586C129.271 79.7915 127.729 78.8478 126.218 79.3511C125.494 79.5398 124.959 80.1375 124.833 80.8609C124.675 81.6159 124.959 82.4022 125.62 82.8426C126.218 83.3144 126.942 83.5346 127.603 83.8492C128.453 84.1952 129.271 84.5726 130.058 85.013C132.986 86.8059 132.356 90.3289 130.468 91.7129C128.705 92.8767 126.407 92.7824 124.738 91.4613C124.738 91.3669 124.644 91.2725 124.455 91.1153Z" fill="#5C696B"/>
<path d="M113.941 77.6833C114.917 77.7462 116.145 77.5889 117.341 77.7777C119.009 78.0293 120.3 78.8157 120.93 80.4513C121.528 82.0241 121.339 83.5339 120.237 84.855C119.261 86.0189 117.939 86.3963 116.459 86.4278C115.767 86.4592 115.043 86.4278 114.35 86.4278C114.099 86.4278 113.973 86.4592 113.973 86.7423C113.973 87.9062 113.973 89.07 113.973 90.2024C113.973 90.454 114.067 90.4855 114.287 90.4855C114.697 90.4855 115.137 90.4855 115.578 90.4855C115.798 90.4855 115.861 90.5484 115.861 90.7686C115.861 91.146 115.861 91.5549 115.861 91.9638C115.861 92.2155 115.767 92.2469 115.547 92.2469C113.941 92.2469 112.367 92.2469 110.762 92.2469C110.51 92.2469 110.416 92.184 110.447 91.9324C110.478 91.5549 110.447 91.146 110.447 90.7371C110.447 90.5484 110.51 90.454 110.699 90.4855C110.762 90.4855 110.825 90.4855 110.888 90.4855C111.864 90.4855 111.864 90.4855 111.864 89.5104C111.864 86.302 111.864 83.0621 111.864 79.8537C111.864 79.4762 111.769 79.3819 111.391 79.4133C110.447 79.4448 110.447 79.4133 110.447 78.4697C110.447 77.6519 110.447 77.6519 111.265 77.6519C112.084 77.6833 112.902 77.6833 113.941 77.6833ZM113.973 82.0555V84.2574C113.973 84.4147 113.973 84.5719 114.224 84.5719C115.043 84.5719 115.861 84.6034 116.68 84.5405C117.97 84.4776 118.978 83.4081 118.978 82.1185C118.978 80.7659 118.096 79.8222 116.711 79.6335C115.924 79.5392 115.106 79.6021 114.287 79.5706C114.036 79.5706 114.004 79.665 114.004 79.8852C114.004 80.6086 113.973 81.3321 113.973 82.0555Z" fill="#5C696B"/>
<path d="M50.3221 77.6842C52.0534 77.6842 53.7848 77.6842 55.5161 77.6842C55.7994 77.6842 55.8938 77.7471 55.8938 78.0302C55.8938 79.0997 55.8938 80.2006 55.8938 81.2701C55.8938 81.5532 55.7994 81.6475 55.5161 81.6161C55.1069 81.5846 54.6662 81.5846 54.2255 81.6161C53.9736 81.6161 53.9421 81.5217 53.9421 81.3015C53.9421 80.8297 53.9421 80.3264 53.9421 79.8546C53.9421 79.54 53.8162 79.5086 53.5644 79.5086C52.9978 79.5086 52.4312 79.54 51.8645 79.5086C51.5183 79.4771 51.4238 79.603 51.4238 79.949C51.4238 83.063 51.4238 86.1456 51.4238 89.2596C51.4238 89.6371 51.2979 90.1718 51.4868 90.392C51.7071 90.6436 52.2423 90.4864 52.62 90.4549C53.0293 90.4235 53.1552 90.5493 53.1237 90.9582C53.0607 91.3671 53.3126 91.8704 53.0293 92.122C52.7774 92.3422 52.2738 92.1849 51.896 92.1849C50.5739 92.1849 49.2203 92.1849 47.8982 92.1849C47.6149 92.1849 47.5204 92.122 47.5204 91.8075C47.5519 91.4615 47.5519 91.1155 47.5204 90.738C47.489 90.4549 47.6149 90.392 47.8667 90.392C48.213 90.4235 48.5592 90.392 48.937 90.392C49.1573 90.392 49.2518 90.3291 49.2518 90.1089C49.2518 86.6489 49.2518 83.2203 49.2518 79.7602C49.2518 79.5086 49.1573 79.4457 48.937 79.4457C48.3389 79.4457 47.7093 79.4457 47.0797 79.4457C46.8279 79.4457 46.702 79.5086 46.7335 79.7917C46.7649 80.2635 46.7335 80.7668 46.7335 81.2386C46.7335 81.4903 46.639 81.5532 46.4187 81.5532C45.978 81.5532 45.5373 81.5217 45.0965 81.5532C44.8447 81.5532 44.8132 81.4588 44.8132 81.2386C44.8132 80.1377 44.8132 79.0053 44.8132 77.9044C44.8132 77.6213 44.9077 77.5898 45.1595 77.5898C46.8594 77.7157 48.5907 77.6842 50.3221 77.6842Z" fill="#5C696B"/>
<path d="M88.4432 77.6837C90.1745 77.6837 91.9059 77.6837 93.6372 77.6837C93.9205 77.6837 94.015 77.7466 94.015 78.0297C93.9835 79.0991 94.015 80.2001 94.015 81.2695C94.015 81.5526 93.9205 81.647 93.6372 81.6155C93.228 81.5841 92.7873 81.6155 92.378 81.6155C92.1577 81.6155 92.0947 81.5526 92.0947 81.3324C92.0947 80.8292 92.0947 80.3259 92.0947 79.8541C92.0947 79.6339 92.0633 79.5081 91.7799 79.5081C91.1504 79.5081 90.4893 79.5081 89.8597 79.5081C89.6394 79.5081 89.5764 79.571 89.5764 79.7912C89.5764 83.2512 89.5764 86.7427 89.5764 90.2027C89.5764 90.4229 89.6394 90.4858 89.8597 90.4858C90.2375 90.4858 90.6152 90.4858 90.993 90.4858C91.2133 90.4858 91.3078 90.5487 91.3078 90.7689C91.2763 91.2407 91.4966 91.8384 91.2133 92.1215C90.9615 92.4046 90.3634 92.2159 89.9227 92.2159C88.6635 92.2159 87.4044 92.2159 86.1452 92.2159C85.8304 92.2159 85.6415 92.1844 85.7045 91.8069C85.7675 91.3666 85.5156 90.8004 85.7989 90.5487C86.0508 90.3286 86.6174 90.4544 87.0266 90.4858C87.3414 90.4858 87.4044 90.4229 87.4044 90.1084C87.4044 86.7112 87.4044 83.3141 87.4044 79.917C87.4044 79.571 87.3099 79.5081 86.9951 79.5081C86.397 79.5395 85.7989 79.5395 85.2008 79.5081C84.9175 79.5081 84.8546 79.6024 84.8546 79.8541C84.886 80.3259 84.8546 80.7977 84.8546 81.2695C84.8546 81.5212 84.8231 81.647 84.5398 81.6155C84.1305 81.5841 83.6898 81.5841 83.2806 81.6155C83.0603 81.6155 82.9658 81.5841 82.9658 81.3324C82.9658 80.2001 82.9658 79.0677 82.9658 77.9668C82.9658 77.6208 83.1547 77.6837 83.3436 77.6837H88.4432Z" fill="#5C696B"/>
<path d="M56.0826 101.213C56.8696 100.458 57.751 100.049 58.8213 100.269C59.8601 100.426 60.6156 101.338 60.5841 102.408C60.5841 103.477 60.6156 104.578 60.5841 105.648C60.5841 105.994 60.6786 106.12 61.0248 106.057C61.4026 105.994 61.497 106.182 61.4655 106.528C61.4655 106.749 61.3711 106.78 61.1822 106.78C60.4897 106.78 59.7972 106.749 59.1361 106.78C58.7898 106.78 58.8843 106.56 58.8528 106.371C58.8213 106.151 58.8843 106.025 59.1361 106.025C59.7027 106.025 59.7027 106.025 59.7027 105.427C59.7027 104.547 59.7027 103.635 59.7027 102.754C59.7027 101.338 58.5695 100.615 57.2788 101.15C57.1529 101.213 57.027 101.275 56.9011 101.338C56.3659 101.684 55.9882 102.062 56.0512 102.817C56.1141 103.76 56.1141 104.704 56.0512 105.616C56.0512 105.931 56.1456 106.088 56.4604 106.025C56.5548 106.025 56.6493 106.025 56.7752 106.025C57.1214 105.962 57.09 106.182 57.1214 106.403C57.1214 106.686 57.0585 106.749 56.7752 106.749C56.0512 106.717 55.3271 106.717 54.6346 106.749C54.3198 106.749 54.3198 106.623 54.3198 106.371C54.3198 106.12 54.3513 105.994 54.6346 105.994C55.2012 105.994 55.2012 105.994 55.2012 105.396C55.2012 104.106 55.2012 102.817 55.2012 101.527C55.2012 101.15 55.1383 100.961 54.729 101.055C54.3828 101.118 54.2883 100.961 54.2883 100.615C54.2883 100.395 54.3513 100.3 54.6031 100.332C54.792 100.332 55.0123 100.332 55.2012 100.332C55.9882 100.363 55.9882 100.363 56.0826 101.213Z" fill="#5C696B"/>
<path d="M95.3056 103.446C95.3056 102.785 95.3056 102.125 95.3056 101.464C95.3056 101.213 95.2427 101.087 94.9594 101.118C94.8649 101.118 94.7705 101.118 94.6446 101.118C94.3298 101.15 94.2039 101.055 94.2039 100.741C94.2039 100.426 94.3298 100.363 94.6131 100.363C95.2741 100.363 95.2741 100.363 95.2741 99.7028C95.2741 99.168 95.3056 98.6333 95.2741 98.0671C95.2427 97.6582 95.526 97.784 95.7463 97.7526C95.9667 97.7526 96.2185 97.6582 96.2185 98.0671C96.187 98.7277 96.2185 99.3882 96.2185 100.049C96.2185 100.3 96.313 100.395 96.5333 100.363C96.8481 100.363 97.1629 100.363 97.5092 100.363C97.8239 100.332 97.761 100.584 97.761 100.741C97.761 100.898 97.8554 101.15 97.5092 101.118C97.4462 101.118 97.3832 101.118 97.3203 101.118C96.974 101.15 96.4703 100.961 96.2815 101.213C96.0926 101.401 96.2185 101.873 96.2185 102.219C96.2185 103.194 96.2185 104.138 96.2185 105.113C96.2185 105.931 96.5018 106.151 97.2888 106.025C97.4147 105.994 97.698 105.774 97.698 106.151C97.698 106.403 97.8554 106.749 97.3832 106.749C97.2258 106.749 97.0685 106.812 96.9111 106.812C95.8408 106.875 95.3371 106.371 95.3056 105.302C95.2741 104.704 95.3056 104.075 95.3056 103.446Z" fill="#5C696B"/>
<path d="M107.299 103.446C107.299 102.785 107.299 102.125 107.299 101.464C107.299 101.181 107.205 101.087 106.922 101.118C106.827 101.118 106.733 101.118 106.67 101.118C106.386 101.15 106.229 101.087 106.229 100.741C106.229 100.363 106.386 100.332 106.67 100.363C106.764 100.363 106.859 100.363 106.985 100.363C107.236 100.395 107.299 100.3 107.299 100.049C107.299 99.3882 107.299 98.7277 107.299 98.0671C107.299 97.6582 107.551 97.7526 107.771 97.7526C107.992 97.7526 108.244 97.6582 108.244 98.0671C108.212 98.7277 108.244 99.3882 108.244 100.049C108.244 100.3 108.307 100.395 108.558 100.363C108.842 100.332 109.125 100.363 109.377 100.363C109.692 100.332 109.755 100.458 109.755 100.772C109.755 101.055 109.692 101.181 109.377 101.15C109.094 101.118 108.81 101.15 108.558 101.15C108.275 101.118 108.212 101.244 108.212 101.496C108.212 102.722 108.212 103.918 108.212 105.144C108.212 105.962 108.464 106.182 109.282 106.088C109.408 106.057 109.692 105.836 109.692 106.214C109.692 106.497 109.818 106.843 109.314 106.812C109.157 106.812 108.999 106.843 108.842 106.875C107.803 106.906 107.299 106.434 107.268 105.396C107.268 104.704 107.299 104.075 107.299 103.446Z" fill="#5C696B"/>
<path d="M66.1557 103.508C66.1557 102.847 66.1557 102.155 66.1557 101.495C66.1557 101.212 66.0613 101.086 65.778 101.149C65.6836 101.149 65.5891 101.149 65.5262 101.149C65.2428 101.18 65.0854 101.117 65.0854 100.771C65.0854 100.394 65.2428 100.394 65.5262 100.394C66.1557 100.394 66.1557 100.394 66.1557 99.7648C66.1557 99.1986 66.1557 98.6324 66.1557 98.0663C66.1557 97.6259 66.4705 97.8146 66.6594 97.8146C66.8483 97.7832 67.0686 97.7203 67.0686 98.0977C67.0371 98.7583 67.0686 99.4503 67.0686 100.111C67.0686 100.362 67.1316 100.457 67.3834 100.425C67.6982 100.394 68.013 100.425 68.3593 100.425C68.6741 100.425 68.6111 100.614 68.6111 100.803C68.6111 100.992 68.6741 101.212 68.3593 101.18C68.2963 101.18 68.2334 101.18 68.1704 101.18C67.8241 101.212 67.3205 101.023 67.1316 101.275C66.9427 101.495 67.0686 101.967 67.0686 102.344C67.0686 103.288 67.0686 104.231 67.0686 105.207C67.0686 106.024 67.3519 106.245 68.1389 106.15C68.2648 106.119 68.5167 105.867 68.5481 106.245C68.5481 106.496 68.7055 106.874 68.2019 106.874C68.013 106.874 67.8556 106.937 67.6667 106.937C66.6594 106.968 66.1557 106.496 66.1557 105.49C66.1557 104.766 66.1557 104.137 66.1557 103.508Z" fill="#5C696B"/>
<path d="M63.8578 103.225C63.8578 104.012 63.8892 104.829 63.8578 105.647C63.8578 105.993 63.9522 106.088 64.2985 106.088C64.4873 106.088 64.8021 105.899 64.8336 106.308C64.8651 106.654 64.8336 106.843 64.3929 106.811C63.7004 106.78 63.0078 106.78 62.3468 106.811C62.032 106.811 62.032 106.654 62.032 106.434C62.032 106.182 62.0635 106.025 62.3468 106.088C62.4097 106.088 62.5042 106.088 62.5671 106.088C62.9134 106.151 63.0078 106.025 63.0078 105.647C62.9764 104.295 62.9764 102.942 63.0078 101.558C63.0078 101.181 62.8819 101.086 62.5356 101.118C62.3468 101.118 62.032 101.275 62.032 100.835C62.032 100.489 62.0949 100.363 62.4727 100.394C62.819 100.426 63.1337 100.426 63.48 100.394C63.8578 100.363 63.9207 100.52 63.8892 100.835C63.8578 101.621 63.8578 102.407 63.8578 103.225Z" fill="#5C696B"/>
<path d="M63.3858 98.853C62.9451 98.853 62.5989 98.5385 62.5674 98.0981C62.5674 97.6577 62.8822 97.3117 63.3229 97.2803C63.7636 97.2803 64.1099 97.6263 64.1099 98.0352C64.1413 98.4756 63.7951 98.8216 63.3858 98.853Z" fill="#5C696B"/>
<path d="M60.2109 9.69857H62.0052V16.1783H65.3105V17.8139H60.2109V9.69857ZM66.0975 12.3093H67.7974V17.8139H66.0975V12.3093V12.3093ZM66.9474 9.57275C67.4826 9.57275 67.9233 10.0131 67.9233 10.5479C67.9233 11.0826 67.4826 11.523 66.9474 11.523C66.4123 11.523 65.9716 11.0826 65.9716 10.5479C65.9401 10.0446 66.3808 9.60421 66.9474 9.57275ZM74.9746 9.69857H76.6745V14.5741L78.6262 12.3408H80.7353L78.4688 14.8886L80.6723 17.8454H78.5317L76.7059 15.1088H76.6745V17.8454H74.9746V9.69857ZM68.7418 12.3093H70.3787V13.0643H70.4101C70.7564 12.4981 71.3545 12.1521 72.0471 12.1835C73.7784 12.1835 74.0932 13.3159 74.0932 14.8257V17.8454H72.3933V15.1717C72.3933 14.5426 72.3933 13.6934 71.5119 13.6934C70.6305 13.6934 70.4731 14.3854 70.4731 15.1088V17.8454H68.7732L68.7418 12.3093Z" fill="#0A66C2"/>
<path d="M84.3235 14.4483C84.3235 13.8506 83.8513 13.4102 83.2847 13.4102H83.2532C82.6237 13.3788 82.0885 13.8506 82.057 14.4483H84.3235ZM85.7716 16.9017C85.2049 17.5938 84.3235 18.0027 83.4106 18.0027C81.7108 18.0027 80.3257 16.8703 80.3257 15.0774C80.3257 13.2844 81.7108 12.1521 83.4106 12.1521C85.0161 12.1521 86.0234 13.2844 86.0234 15.0774V15.6121H82.057C82.1515 16.2412 82.7181 16.6816 83.3477 16.6816C83.8513 16.6816 84.292 16.4299 84.5754 15.9896L85.7716 16.9017ZM89.612 13.6619C88.825 13.6304 88.1954 14.2595 88.164 15.0459C88.1325 15.8323 88.7621 16.4614 89.549 16.4928C90.336 16.5243 90.9656 15.8952 90.9971 15.1088V15.0774C91.06 14.3539 90.5249 13.7248 89.8009 13.6619C89.7379 13.6619 89.675 13.6619 89.612 13.6619ZM92.571 17.8454H90.9971V17.1219H90.9656C90.5564 17.6567 89.9268 17.9712 89.2657 18.0027C87.6288 18.0027 86.5271 16.8074 86.5271 15.1403C86.5271 13.599 87.5029 12.1835 89.0769 12.1835C89.7694 12.1835 90.4619 12.3722 90.8397 12.907H90.8712V9.69857H92.571V17.8454ZM104.124 17.8454H102.424V15.1717C102.424 14.5426 102.424 13.6933 101.543 13.6933C100.661 13.6933 100.504 14.3854 100.504 15.1088V17.8454H98.7724V12.3408H100.409V13.0957H100.441C100.787 12.5295 101.385 12.1835 102.078 12.215C103.809 12.215 104.124 13.3473 104.124 14.8572V17.8454ZM96.8522 11.5859C96.317 11.5859 95.8448 11.1455 95.8448 10.6108C95.8448 10.076 96.2855 9.6042 96.8207 9.6042C97.3558 9.6042 97.828 10.0446 97.828 10.5793C97.828 11.114 97.3873 11.5859 96.8522 11.5859ZM97.7021 17.8454H96.0022V12.3408H97.7021V17.8454ZM104.974 8H95.1208C94.6486 8 94.2709 8.37746 94.2709 8.81783V18.6947C94.2709 19.1665 94.6486 19.544 95.1208 19.544H104.974C105.446 19.544 105.824 19.1665 105.824 18.6947V8.81783C105.824 8.37746 105.446 8 104.974 8Z" fill="#0A66C2"/>
</g>
<defs>
<radialGradient id="paint0_radial_111_9709" cx="0" cy="0" r="1" gradientUnits="userSpaceOnUse" gradientTransform="translate(85 54.4522) rotate(139.371) scale(122.538 176.802)">
<stop offset="0.241108" stop-color="white"/>
<stop offset="1" stop-color="#DBEEFF"/>
</radialGradient>
</defs>
</svg>
