<svg xmlns="http://www.w3.org/2000/svg" width="382.033" height="254.021" viewBox="0 0 382.033 254.021">
  <g id="_500x500_nav_store" data-name="500x500_nav_store" transform="translate(-4297.898 -752.149)">
    <path id="Path_21604" data-name="Path 21604" d="M429.505,48.5a27.974,27.974,0,1,0-20,26.842" transform="translate(4191.424 830.657)" fill="none" stroke="#0065f2" stroke-linecap="round" stroke-miterlimit="10" stroke-width="14"/>
    <path id="Path_21605" data-name="Path 21605" d="M626.529,249.021H365.266a24.135,24.135,0,0,1-24.266-24V33A24.135,24.135,0,0,1,365.266,9H626.529a24.325,24.325,0,0,1,20.81,11.657l58.237,96.009a23.774,23.774,0,0,1,0,24.69l-58.237,96.009A24.325,24.325,0,0,1,626.529,249.021Z" transform="translate(3963.899 750.149)" fill="none" stroke="#0065f2" stroke-linecap="round" stroke-miterlimit="10" stroke-width="14"/>
    <g id="Group_19917" data-name="Group 19917" transform="translate(4395.443 804.858)">
      <path id="Path_21765" data-name="Path 21765" d="M381,207.027c0,11.9,8.57,19.151,19.151,19.151h21.641c9.2,0,16.661-8.388,16.661-18.748v-.058c0-8.072-4.587-15.234-11.395-17.781l-34.663-13C385.587,174.04,381,166.878,381,158.806v-.058c0-10.36,7.459-18.748,16.661-18.748H419.3c10.581,0,19.151,7.249,19.151,19.151" transform="translate(-381 -111.357)" fill="none" stroke="#0065f2" stroke-linejoin="round" stroke-width="14"/>
      <line id="Line_1187" data-name="Line 1187" y2="30.595" transform="translate(33.039 0)" fill="none" stroke="#0065f2" stroke-linejoin="round" stroke-width="14"/>
      <line id="Line_1188" data-name="Line 1188" y2="34.966" transform="translate(33.039 113.638)" fill="none" stroke="#0065f2" stroke-linejoin="round" stroke-width="14"/>
    </g>
  </g>
</svg>
