<svg xmlns="http://www.w3.org/2000/svg" xmlns:xlink="http://www.w3.org/1999/xlink" width="500" height="500" viewBox="0 0 500 500">
  <defs>
    <clipPath id="clip-_500X500_nav_careers">
      <rect width="500" height="500"/>
    </clipPath>
  </defs>
  <g id="_500X500_nav_careers" data-name="500X500_nav_careers" clip-path="url(#clip-_500X500_nav_careers)">
    <g id="Group_22314" data-name="Group 22314" transform="translate(-189.007 -189.008)">
      <path id="Path_666" data-name="Path 666" d="M427.283,348.324l-23.162-3.292a69.1,69.1,0,0,0-68.451,31.881,314.931,314.931,0,0,0-20.586,39.2q-6.3,14.306-11.517,29.755a17.306,17.306,0,0,0,9.246,21.295l44.963,20.394" transform="translate(-37.111 -53.764)" fill="none" stroke="#0065f2" stroke-linecap="round" stroke-linejoin="round" stroke-width="14"/>
      <path id="Path_667" data-name="Path 667" d="M746.52,681.208l3.292,23.163a69.1,69.1,0,0,1-31.88,68.449,315.1,315.1,0,0,1-39.2,20.587q-14.307,6.3-29.757,11.518a17.3,17.3,0,0,1-21.293-9.247l-20.394-44.963" transform="translate(-163.065 -193.365)" fill="none" stroke="#0065f2" stroke-linecap="round" stroke-linejoin="round" stroke-width="14"/>
      <path id="Path_668" data-name="Path 668" d="M527.323,393.679c-19.341,19.341-34.778,44.058-46.17,73.847" transform="translate(-111.134 -74.53)" fill="none" stroke="#0065f2" stroke-linecap="round" stroke-linejoin="round" stroke-width="14"/>
      <path id="Path_669" data-name="Path 669" d="M343.075,663.015l89.84-89.76a52.426,52.426,0,0,1,27.713-14.5c51.505-9.329,109.773-29.633,152.68-72.5,60.1-60.048,75.893-150.212,79.251-209.733a58.25,58.25,0,0,0-61.485-61.43c-59.574,3.354-149.819,19.132-209.921,79.18-42.906,42.868-63.229,101.084-72.567,152.543a52.343,52.343,0,0,1-14.507,27.688l-49.072,49.028" transform="translate(-29.64 0)" fill="none" stroke="#0065f2" stroke-linecap="round" stroke-linejoin="round" stroke-width="14"/>
      <line id="Line_533" data-name="Line 533" y1="61.522" x2="61.522" transform="translate(215 601.493)" fill="none" stroke="#0065f2" stroke-linecap="round" stroke-linejoin="round" stroke-width="14"/>
      <circle id="Ellipse_47" data-name="Ellipse 47" cx="51.9" cy="51.9" r="51.9" transform="translate(473.115 301.1)" fill="none" stroke="#0065f2" stroke-linecap="round" stroke-linejoin="round" stroke-width="14"/>
      <path id="Path_670" data-name="Path 670" d="M325.076,840.071l54.037-54.036-55.705,6.77,6.774-55.7L265,802.279" transform="translate(-21.171 -217.03)" fill="none" stroke="#0065f2" stroke-linecap="round" stroke-linejoin="round" stroke-width="14"/>
      <path id="Path_671" data-name="Path 671" d="M518.784,713.247A509.935,509.935,0,0,1,398.248,592.713" transform="translate(-76.271 -157.211)" fill="none" stroke="#0065f2" stroke-linecap="round" stroke-linejoin="round" stroke-width="14"/>
      <path id="Path_672" data-name="Path 672" d="M758.013,231.2a438.881,438.881,0,0,1,62.631,50.958q.847.826,1.695,1.663c.768.763,1.542,1.525,2.308,2.292.67.668,1.332,1.334,1.991,2.006.505.506,1,1.011,1.5,1.521a498.255,498.255,0,0,1,51.709,61.813" transform="translate(-225.884 -6.857)" fill="none" stroke="#0065f2" stroke-linecap="round" stroke-linejoin="round" stroke-width="14"/>
    </g>
  </g>
</svg>
