<svg xmlns="http://www.w3.org/2000/svg" xmlns:xlink="http://www.w3.org/1999/xlink" width="500" height="500" viewBox="0 0 500 500">
  <defs>
    <clipPath id="clip-_500X500_nav_affiliateprogram">
      <rect width="500" height="500"/>
    </clipPath>
  </defs>
  <g id="_500X500_nav_affiliateprogram" data-name="500X500_nav_affiliateprogram" clip-path="url(#clip-_500X500_nav_affiliateprogram)">
    <g id="Group_21593" data-name="Group 21593" transform="translate(10.106 -50.67)">
      <path id="Path_772" data-name="Path 772" d="M5662.066,1253.127l55.358,108.266a7.555,7.555,0,0,1-7.987,10.817l-58.721-9.607-27.778,52.615a7.555,7.555,0,0,1-13.445-.165l-58.418-120.305" transform="translate(-5311.139 -884.576)" fill="none" stroke="#0065f2" stroke-linecap="round" stroke-miterlimit="10" stroke-width="14"/>
      <path id="Path_773" data-name="Path 773" d="M5415.329,1252.657l-54.208,108.462a7.555,7.555,0,0,0,7.987,10.817l58.716-9.605,27.784,52.613a7.555,7.555,0,0,0,13.445-.164l59.533-120.187" transform="translate(-5287.612 -884.301)" fill="none" stroke="#0065f2" stroke-linecap="round" stroke-miterlimit="10" stroke-width="14"/>
      <path id="Path_774" data-name="Path 774" d="M5548.576,982.166l26.844,63.626a11.724,11.724,0,0,0,10,7.14l65.628,4.552a8.934,8.934,0,0,1,5.161,15.728l-52.959,44.912a11.726,11.726,0,0,0-3.743,11.989l16.773,62.353a8.936,8.936,0,0,1-13.48,9.824l-56.083-36.251a11.731,11.731,0,0,0-12.733,0L5477.9,1202.29a8.935,8.935,0,0,1-13.48-9.824l16.768-62.353a11.726,11.726,0,0,0-3.743-11.989l-52.959-44.912a8.933,8.933,0,0,1,5.161-15.728l65.628-4.552a11.753,11.753,0,0,0,10-7.14l26.839-63.626A8.931,8.931,0,0,1,5548.576,982.166Z" transform="translate(-5300.455 -857.068)" fill="none" stroke="#0065f2" stroke-linecap="round" stroke-miterlimit="10" stroke-width="14"/>
      <path id="Path_26569" data-name="Path 26569" d="M168.737,0c93.64.45,169.916,76.726,170.366,170.366A167.6,167.6,0,0,1,170.368,339.1C76.728,338.653.452,262.378,0,168.737A167.6,167.6,0,0,1,168.737,0Z" transform="translate(0.111 239.673) rotate(-45)" fill="none" stroke="#0065f2" stroke-linecap="round" stroke-width="14"/>
    </g>
  </g>
</svg>
