<svg xmlns="http://www.w3.org/2000/svg" xmlns:xlink="http://www.w3.org/1999/xlink" width="1080" height="1080" viewBox="0 0 1080 1080">
  <defs>
    <filter id="Rectangle_8925" x="414.349" y="381.33" width="157.999" height="317.995" filterUnits="userSpaceOnUse">
      <feOffset input="SourceAlpha"/>
      <feGaussianBlur stdDeviation="13" result="blur"/>
      <feFlood flood-opacity="0.255"/>
      <feComposite operator="in" in2="blur"/>
      <feComposite in="SourceGraphic"/>
    </filter>
    <filter id="Path_75757" x="525.848" y="510.353" width="541.511" height="354.323" filterUnits="userSpaceOnUse">
      <feOffset input="SourceAlpha"/>
      <feGaussianBlur stdDeviation="2.5" result="blur-2"/>
      <feFlood flood-opacity="0.051"/>
      <feComposite operator="in" in2="blur-2"/>
      <feComposite in="SourceGraphic"/>
    </filter>
    <clipPath id="clip-chrome-extension_4-pop-out">
      <rect width="1080" height="1080"/>
    </clipPath>
  </defs>
  <g id="chrome-extension_4-pop-out" clip-path="url(#clip-chrome-extension_4-pop-out)">
    <g id="Group_22465" data-name="Group 22465" transform="translate(453.349 420.33)">
      <g id="Group_22464" data-name="Group 22464" transform="translate(0 0)">
        <g transform="matrix(1, 0, 0, 1, -453.35, -420.33)" filter="url(#Rectangle_8925)">
          <path id="Rectangle_8925-2" data-name="Rectangle 8925" d="M6,0H80a0,0,0,0,1,0,0V239.995a0,0,0,0,1,0,0H6a6,6,0,0,1-6-6V6A6,6,0,0,1,6,0Z" transform="translate(453.35 420.33)" fill="#0065f2"/>
        </g>
        <path id="chevron-right_1_" data-name="chevron-right (1)" d="M9.7,32.46a1.7,1.7,0,0,1-1.2-2.906L19.323,18.73,8.5,7.906A1.7,1.7,0,0,1,10.906,5.5L22.933,17.526a1.7,1.7,0,0,1,0,2.407L10.906,31.961A1.7,1.7,0,0,1,9.7,32.46Z" transform="translate(25.379 102.52)" fill="#fff"/>
        <g id="external-link_1_" data-name="external-link (1)" transform="translate(22.354 22.127)">
          <path id="Path_47339" data-name="Path 47339" d="M26.754,35H7.248A5.254,5.254,0,0,1,2,29.754V10.248A5.254,5.254,0,0,1,7.248,5H17.888a1.7,1.7,0,0,1,0,3.4H7.248A1.846,1.846,0,0,0,5.4,10.248V29.754A1.846,1.846,0,0,0,7.248,31.6H26.754A1.846,1.846,0,0,0,28.6,29.754V19.114a1.7,1.7,0,1,1,3.4,0V29.754A5.254,5.254,0,0,1,26.754,35Z" transform="translate(-2 0.672)" fill="#fff"/>
          <path id="Path_47340" data-name="Path 47340" d="M26.537,16.4a1.7,1.7,0,0,1-1.7-1.7V5.4H15.7a1.7,1.7,0,1,1,0-3.4H26.537a1.7,1.7,0,0,1,1.7,1.7V14.694A1.7,1.7,0,0,1,26.537,16.4Z" transform="translate(7.278 -2)" fill="#fff"/>
          <path id="Line_1037" data-name="Line 1037" d="M.7,21.127A1.7,1.7,0,0,1-.557,18.28L16.464-.443a1.7,1.7,0,1,1,2.519,2.29L1.962,20.57A1.7,1.7,0,0,1,.7,21.127Z" transform="translate(14.391 2.701)" fill="#fff"/>
        </g>
        <g id="settings_4_" data-name="settings (4)" transform="translate(20.349 180.689)">
          <path id="Ellipse_2624" data-name="Ellipse 2624" d="M4.106-1A5.106,5.106,0,1,1-1,4.106,5.112,5.112,0,0,1,4.106-1Zm0,6.808a1.7,1.7,0,1,0-1.7-1.7A1.7,1.7,0,0,0,4.106,5.808Z" transform="translate(16.395 16.051)" fill="#fff"/>
          <path id="Path_47341" data-name="Path 47341" d="M19.875,39.488a4.988,4.988,0,0,1-4.982-4.982v-.123a1,1,0,0,0-.657-.9q-.05-.019-.1-.04a1,1,0,0,0-1.1.2l-.09.09A4.984,4.984,0,1,1,5.9,26.675l.09-.09a1,1,0,0,0,.2-1.1l-.007-.017a1,1,0,0,0-.919-.609H4.982a4.982,4.982,0,0,1,0-9.965h.123a1,1,0,0,0,.9-.657q.019-.05.04-.1a1,1,0,0,0-.2-1.1l-.09-.09A4.984,4.984,0,1,1,12.813,5.9l.09.09a1,1,0,0,0,1.1.2,1.7,1.7,0,0,1,.326-.106,1,1,0,0,0,.43-.82V4.982a4.982,4.982,0,0,1,9.965,0V5.13a1,1,0,0,0,.609.912l.017.007a1,1,0,0,0,1.1-.2l.091-.091a4.984,4.984,0,1,1,7.048,7.049l-.09.09a1,1,0,0,0-.2,1.1,1.7,1.7,0,0,1,.106.326,1,1,0,0,0,.82.43h.272a4.982,4.982,0,0,1,0,9.965h-.148a1,1,0,0,0-.912.609l-.007.017a1,1,0,0,0,.2,1.1l.09.09a4.984,4.984,0,1,1-7.05,7.048l-.09-.09a1,1,0,0,0-1.1-.2l-.017.007a1,1,0,0,0-.609.919v.272A4.988,4.988,0,0,1,19.875,39.488ZM15.461,30.3A4.384,4.384,0,0,1,18.3,34.318q0,.02,0,.04v.148a1.578,1.578,0,1,0,3.156,0v-.279a4.427,4.427,0,0,1,7.518-3.152l.013.013.1.1a1.58,1.58,0,1,0,2.235-2.234l-.1-.1-.013-.013a4.43,4.43,0,0,1,3.145-7.518h.154a1.578,1.578,0,0,0,0-3.156h-.279a4.408,4.408,0,0,1-4.041-2.672,1.7,1.7,0,0,1-.122-.442,4.385,4.385,0,0,1,1.011-4.535l.013-.013.1-.1A1.58,1.58,0,1,0,28.952,8.17l-.1.1-.013.013a4.43,4.43,0,0,1-7.518-3.145V4.982a1.578,1.578,0,0,0-3.156,0v.279A4.408,4.408,0,0,1,15.494,9.3a1.7,1.7,0,0,1-.442.122,4.409,4.409,0,0,1-4.535-1.011L10.5,8.4l-.1-.1A1.58,1.58,0,1,0,8.17,10.536l.1.1.013.013a4.387,4.387,0,0,1,.9,4.813A4.384,4.384,0,0,1,5.17,18.3H4.982a1.578,1.578,0,0,0,0,3.156h.279a4.43,4.43,0,0,1,3.152,7.518l-.013.013-.1.1a1.58,1.58,0,1,0,2.234,2.235l.1-.1.013-.013a4.408,4.408,0,0,1,4.813-.9Z" transform="translate(0 0)" fill="#fff"/>
        </g>
      </g>
    </g>
    <path id="Path_75756" data-name="Path 75756" d="M28,0H498.716a28,28,0,0,1,28,28V462.564a28,28,0,0,1-28,28H28a28,28,0,0,1-28-28V28A28,28,0,0,1,28,0Z" transform="translate(533.141 366.611)" fill="#fafafa"/>
    <g transform="matrix(1, 0, 0, 1, 0, 0)" filter="url(#Path_75757)">
      <path id="Path_75757-2" data-name="Path 75757" d="M28,339.323a28,28,0,0,1-28-28V4A4,4,0,0,1,4,0H151.672a4,4,0,0,1,4,4V44.522H526.511v266.8a28,28,0,0,1-28,28Z" transform="translate(533.35 517.85)" fill="#fff"/>
    </g>
    <path id="Path_75762" data-name="Path 75762" d="M15.044-10.8H12.612a3.848,3.848,0,0,0-.527-1.373,3.776,3.776,0,0,0-.934-1.007,4.048,4.048,0,0,0-1.24-.622,4.918,4.918,0,0,0-1.448-.21,4.511,4.511,0,0,0-2.473.694,4.7,4.7,0,0,0-1.722,2.036A7.688,7.688,0,0,0,3.638-8,7.707,7.707,0,0,0,4.27-4.7,4.668,4.668,0,0,0,5.992-2.674a4.527,4.527,0,0,0,2.464.687A4.974,4.974,0,0,0,9.9-2.193a4.073,4.073,0,0,0,1.237-.61,3.761,3.761,0,0,0,.94-1,3.839,3.839,0,0,0,.538-1.357l2.431.006a6.4,6.4,0,0,1-.752,2.17,6.124,6.124,0,0,1-1.429,1.7A6.367,6.367,0,0,1,10.877-.17,7.38,7.38,0,0,1,8.438.219a6.975,6.975,0,0,1-3.7-.989A6.845,6.845,0,0,1,2.177-3.6,9.627,9.627,0,0,1,1.244-8a9.6,9.6,0,0,1,.938-4.4,6.865,6.865,0,0,1,2.563-2.83,6.966,6.966,0,0,1,3.694-.988,7.577,7.577,0,0,1,2.38.364A6.352,6.352,0,0,1,12.8-14.791a5.96,5.96,0,0,1,1.459,1.7A6.541,6.541,0,0,1,15.044-10.8ZM22.806.244A5.5,5.5,0,0,1,19.859-.53,5.223,5.223,0,0,1,17.908-2.7a7.178,7.178,0,0,1-.7-3.248,7.248,7.248,0,0,1,.7-3.266,5.215,5.215,0,0,1,1.952-2.172,5.5,5.5,0,0,1,2.947-.774,5.5,5.5,0,0,1,2.947.774A5.215,5.215,0,0,1,27.7-9.21a7.248,7.248,0,0,1,.7,3.266A7.178,7.178,0,0,1,27.7-2.7,5.223,5.223,0,0,1,25.753-.53,5.5,5.5,0,0,1,22.806.244Zm.006-1.963a2.793,2.793,0,0,0,1.814-.58,3.447,3.447,0,0,0,1.067-1.541,6.127,6.127,0,0,0,.35-2.111,6.179,6.179,0,0,0-.35-2.118A3.486,3.486,0,0,0,24.627-9.62a2.774,2.774,0,0,0-1.814-.586,2.8,2.8,0,0,0-1.823.586,3.475,3.475,0,0,0-1.07,1.552,6.179,6.179,0,0,0-.35,2.118,6.127,6.127,0,0,0,.35,2.111A3.436,3.436,0,0,0,20.989-2.3,2.816,2.816,0,0,0,22.812-1.719ZM31,0V-12h2.244v1.956h.15A3.128,3.128,0,0,1,34.619-11.6a3.622,3.622,0,0,1,2.037-.559,3.483,3.483,0,0,1,2.02.562,3.317,3.317,0,0,1,1.211,1.551h.125a3.4,3.4,0,0,1,1.366-1.538,4.19,4.19,0,0,1,2.234-.574,3.625,3.625,0,0,1,2.666,1.025,4.174,4.174,0,0,1,1.034,3.088V0H44.975V-7.825a2.165,2.165,0,0,0-.661-1.766,2.4,2.4,0,0,0-1.583-.546,2.278,2.278,0,0,0-1.779.7,2.561,2.561,0,0,0-.634,1.788V0H37.994V-7.975a2.087,2.087,0,0,0-.611-1.57,2.177,2.177,0,0,0-1.583-.593,2.285,2.285,0,0,0-1.225.347,2.547,2.547,0,0,0-.9.963A2.919,2.919,0,0,0,33.338-7.4V0ZM50.438,4.5V-12h2.281v1.944h.194a7.393,7.393,0,0,1,.591-.865,3.328,3.328,0,0,1,1.063-.864,3.753,3.753,0,0,1,1.8-.371,4.685,4.685,0,0,1,2.59.733,4.955,4.955,0,0,1,1.794,2.117A7.748,7.748,0,0,1,61.4-5.975a7.828,7.828,0,0,1-.648,3.33A5,5,0,0,1,58.971-.513a4.615,4.615,0,0,1-2.59.744A3.8,3.8,0,0,1,54.6-.134a3.38,3.38,0,0,1-1.081-.858,6.49,6.49,0,0,1-.605-.877h-.138V4.5ZM52.731-6A6.2,6.2,0,0,0,53.1-3.782a3.312,3.312,0,0,0,1.063,1.491,2.717,2.717,0,0,0,1.7.535,2.73,2.73,0,0,0,1.749-.559,3.412,3.412,0,0,0,1.066-1.52A6.138,6.138,0,0,0,59.037-6a6.04,6.04,0,0,0-.354-2.134,3.294,3.294,0,0,0-1.059-1.489,2.792,2.792,0,0,0-1.762-.546,2.787,2.787,0,0,0-1.716.521A3.186,3.186,0,0,0,53.09-8.19,6.11,6.11,0,0,0,52.731-6ZM67.506.262A4.88,4.88,0,0,1,65.445-.16,3.415,3.415,0,0,1,63.988-1.4a3.533,3.533,0,0,1-.538-1.991,3.228,3.228,0,0,1,.392-1.677A2.9,2.9,0,0,1,64.9-6.1a5.473,5.473,0,0,1,1.484-.577,14.929,14.929,0,0,1,1.674-.3l1.746-.21a2.594,2.594,0,0,0,.977-.267.656.656,0,0,0,.308-.61v-.056A2.111,2.111,0,0,0,70.513-9.7a2.346,2.346,0,0,0-1.706-.562,3,3,0,0,0-1.857.516,2.8,2.8,0,0,0-.937,1.152l-2.194-.5a4.242,4.242,0,0,1,1.143-1.77,4.645,4.645,0,0,1,1.738-.984,6.885,6.885,0,0,1,2.069-.309,7.452,7.452,0,0,1,1.528.17,4.626,4.626,0,0,1,1.517.614,3.359,3.359,0,0,1,1.16,1.269,4.431,4.431,0,0,1,.451,2.135V0H71.144V-1.637H71.05a3.305,3.305,0,0,1-.674.886,3.565,3.565,0,0,1-1.164.727A4.549,4.549,0,0,1,67.506.262Zm.506-1.869a3.369,3.369,0,0,0,1.663-.384A2.728,2.728,0,0,0,70.73-3a2.583,2.583,0,0,0,.364-1.33v-1.55a1.181,1.181,0,0,1-.482.23,7.2,7.2,0,0,1-.806.18q-.452.077-.884.133l-.721.1a6.043,6.043,0,0,0-1.235.291,2.11,2.11,0,0,0-.894.58,1.464,1.464,0,0,0-.334,1A1.492,1.492,0,0,0,66.38-2.05,2.809,2.809,0,0,0,68.013-1.606ZM78.875-7.125V0H76.538V-12h2.244v1.956h.15a3.42,3.42,0,0,1,1.3-1.536,4.021,4.021,0,0,1,2.237-.577,4.337,4.337,0,0,1,2.149.513,3.5,3.5,0,0,1,1.43,1.52,5.462,5.462,0,0,1,.509,2.492V0H84.219V-7.35A2.9,2.9,0,0,0,83.541-9.4a2.414,2.414,0,0,0-1.866-.736,2.916,2.916,0,0,0-1.445.352,2.491,2.491,0,0,0-.993,1.025A3.416,3.416,0,0,0,78.875-7.125Zm11.844,11.6a5.073,5.073,0,0,1-.952-.082,3.116,3.116,0,0,1-.642-.177L89.688,2.3a2.769,2.769,0,0,0,1.616.04A2.14,2.14,0,0,0,92.4.95l.294-.794L88.3-12h2.5l3.037,9.313h.125L97.006-12l2.519.025L94.563,1.6a5.321,5.321,0,0,1-.871,1.57,3.462,3.462,0,0,1-1.266.972A4.138,4.138,0,0,1,90.719,4.472Z" transform="translate(904.26 547.685)" fill="#c1c1c1"/>
    <path id="Path_75764" data-name="Path 75764" d="M15.044-10.8H12.612a3.848,3.848,0,0,0-.527-1.373,3.776,3.776,0,0,0-.934-1.007,4.048,4.048,0,0,0-1.24-.622,4.918,4.918,0,0,0-1.448-.21,4.511,4.511,0,0,0-2.473.694,4.7,4.7,0,0,0-1.722,2.036A7.688,7.688,0,0,0,3.638-8,7.707,7.707,0,0,0,4.27-4.7,4.668,4.668,0,0,0,5.992-2.674a4.527,4.527,0,0,0,2.464.687A4.974,4.974,0,0,0,9.9-2.193a4.073,4.073,0,0,0,1.237-.61,3.761,3.761,0,0,0,.94-1,3.839,3.839,0,0,0,.538-1.357l2.431.006a6.4,6.4,0,0,1-.752,2.17,6.124,6.124,0,0,1-1.429,1.7A6.367,6.367,0,0,1,10.877-.17,7.38,7.38,0,0,1,8.438.219a6.975,6.975,0,0,1-3.7-.989A6.845,6.845,0,0,1,2.177-3.6,9.627,9.627,0,0,1,1.244-8a9.6,9.6,0,0,1,.938-4.4,6.865,6.865,0,0,1,2.563-2.83,6.966,6.966,0,0,1,3.694-.988,7.577,7.577,0,0,1,2.38.364A6.352,6.352,0,0,1,12.8-14.791a5.96,5.96,0,0,1,1.459,1.7A6.541,6.541,0,0,1,15.044-10.8ZM22.806.244A5.5,5.5,0,0,1,19.859-.53,5.223,5.223,0,0,1,17.908-2.7a7.178,7.178,0,0,1-.7-3.248,7.248,7.248,0,0,1,.7-3.266,5.215,5.215,0,0,1,1.952-2.172,5.5,5.5,0,0,1,2.947-.774,5.5,5.5,0,0,1,2.947.774A5.215,5.215,0,0,1,27.7-9.21a7.248,7.248,0,0,1,.7,3.266A7.178,7.178,0,0,1,27.7-2.7,5.223,5.223,0,0,1,25.753-.53,5.5,5.5,0,0,1,22.806.244Zm.006-1.963a2.793,2.793,0,0,0,1.814-.58,3.447,3.447,0,0,0,1.067-1.541,6.127,6.127,0,0,0,.35-2.111,6.179,6.179,0,0,0-.35-2.118A3.486,3.486,0,0,0,24.627-9.62a2.774,2.774,0,0,0-1.814-.586,2.8,2.8,0,0,0-1.823.586,3.475,3.475,0,0,0-1.07,1.552,6.179,6.179,0,0,0-.35,2.118,6.127,6.127,0,0,0,.35,2.111A3.436,3.436,0,0,0,20.989-2.3,2.816,2.816,0,0,0,22.812-1.719ZM33.338-7.125V0H31V-12h2.244v1.956h.15a3.42,3.42,0,0,1,1.3-1.536,4.021,4.021,0,0,1,2.237-.577,4.337,4.337,0,0,1,2.149.513,3.5,3.5,0,0,1,1.43,1.52,5.462,5.462,0,0,1,.509,2.492V0H38.681V-7.35A2.9,2.9,0,0,0,38-9.4a2.414,2.414,0,0,0-1.866-.736,2.916,2.916,0,0,0-1.445.352A2.491,2.491,0,0,0,33.7-8.754,3.416,3.416,0,0,0,33.338-7.125ZM49.75-12v1.875H43.194V-12Zm-4.8-2.875h2.338V-3.522a2.048,2.048,0,0,0,.2,1.018,1.014,1.014,0,0,0,.528.463,2.044,2.044,0,0,0,.708.12,2.809,2.809,0,0,0,.491-.038q.209-.038.327-.062l.425,1.931a5.416,5.416,0,0,1-.584.158,4.656,4.656,0,0,1-.935.092,4.1,4.1,0,0,1-1.72-.331,2.966,2.966,0,0,1-1.291-1.063,3.1,3.1,0,0,1-.489-1.806ZM55.819.262A4.88,4.88,0,0,1,53.757-.16,3.415,3.415,0,0,1,52.3-1.4a3.533,3.533,0,0,1-.538-1.991,3.228,3.228,0,0,1,.392-1.677A2.9,2.9,0,0,1,53.211-6.1a5.473,5.473,0,0,1,1.484-.577,14.929,14.929,0,0,1,1.674-.3l1.746-.21a2.594,2.594,0,0,0,.977-.267.656.656,0,0,0,.308-.61v-.056A2.111,2.111,0,0,0,58.825-9.7a2.346,2.346,0,0,0-1.706-.562,3,3,0,0,0-1.857.516,2.8,2.8,0,0,0-.937,1.152l-2.194-.5a4.242,4.242,0,0,1,1.143-1.77,4.645,4.645,0,0,1,1.738-.984,6.885,6.885,0,0,1,2.069-.309,7.452,7.452,0,0,1,1.528.17,4.626,4.626,0,0,1,1.517.614,3.359,3.359,0,0,1,1.16,1.269,4.431,4.431,0,0,1,.451,2.135V0H59.456V-1.637h-.094a3.305,3.305,0,0,1-.674.886,3.565,3.565,0,0,1-1.164.727A4.549,4.549,0,0,1,55.819.262Zm.506-1.869a3.369,3.369,0,0,0,1.663-.384,2.728,2.728,0,0,0,1.054-1,2.583,2.583,0,0,0,.364-1.33v-1.55a1.181,1.181,0,0,1-.482.23,7.2,7.2,0,0,1-.806.18q-.452.077-.884.133l-.721.1a6.043,6.043,0,0,0-1.235.291,2.11,2.11,0,0,0-.894.58,1.464,1.464,0,0,0-.334,1,1.492,1.492,0,0,0,.642,1.313A2.809,2.809,0,0,0,56.325-1.606ZM69.906.244a5.482,5.482,0,0,1-2.994-.793A5.2,5.2,0,0,1,64.986-2.74a7.294,7.294,0,0,1-.673-3.2A7.233,7.233,0,0,1,65-9.176a5.29,5.29,0,0,1,1.939-2.191,5.388,5.388,0,0,1,2.941-.79,5.674,5.674,0,0,1,2.437.5,4.423,4.423,0,0,1,1.732,1.409,4.283,4.283,0,0,1,.788,2.12H72.563a2.717,2.717,0,0,0-.855-1.454,2.557,2.557,0,0,0-1.788-.609,2.9,2.9,0,0,0-1.706.512,3.332,3.332,0,0,0-1.137,1.452A5.577,5.577,0,0,0,66.669-6a5.843,5.843,0,0,0,.4,2.265A3.343,3.343,0,0,0,68.2-2.259a2.884,2.884,0,0,0,1.719.521,2.917,2.917,0,0,0,1.213-.245,2.445,2.445,0,0,0,.913-.706A2.693,2.693,0,0,0,72.563-3.8h2.275a4.463,4.463,0,0,1-.761,2.081A4.368,4.368,0,0,1,72.385-.281,5.522,5.522,0,0,1,69.906.244ZM82.95-12v1.875H76.394V-12Zm-4.8-2.875h2.338V-3.522a2.048,2.048,0,0,0,.2,1.018,1.014,1.014,0,0,0,.528.463,2.044,2.044,0,0,0,.708.12,2.809,2.809,0,0,0,.491-.038q.209-.038.327-.062l.425,1.931a5.416,5.416,0,0,1-.584.158,4.656,4.656,0,0,1-.935.092,4.1,4.1,0,0,1-1.72-.331,2.966,2.966,0,0,1-1.291-1.063,3.1,3.1,0,0,1-.489-1.806ZM94.319-9.069,92.2-8.694a2.538,2.538,0,0,0-.417-.773,2.132,2.132,0,0,0-.77-.6,2.768,2.768,0,0,0-1.213-.235,2.917,2.917,0,0,0-1.656.444,1.322,1.322,0,0,0-.663,1.138,1.18,1.18,0,0,0,.446.967,3.686,3.686,0,0,0,1.435.6l1.913.438A5.074,5.074,0,0,1,93.743-5.54a2.784,2.784,0,0,1,.813,2.071,3.143,3.143,0,0,1-.624,1.92A4.138,4.138,0,0,1,92.206-.234,6.391,6.391,0,0,1,89.65.244a5.754,5.754,0,0,1-3.291-.862,3.629,3.629,0,0,1-1.565-2.456l2.256-.35a2.174,2.174,0,0,0,.873,1.338,2.965,2.965,0,0,0,1.709.449,3.143,3.143,0,0,0,1.837-.481,1.41,1.41,0,0,0,.688-1.175,1.24,1.24,0,0,0-.418-.95,2.788,2.788,0,0,0-1.282-.575l-2.025-.45a4.8,4.8,0,0,1-2.484-1.216,2.941,2.941,0,0,1-.8-2.116,3.032,3.032,0,0,1,.591-1.862,3.891,3.891,0,0,1,1.639-1.247,6.055,6.055,0,0,1,2.4-.448,4.984,4.984,0,0,1,3.062.841A3.948,3.948,0,0,1,94.319-9.069Z" transform="translate(730.504 546.685)" fill="#c1c1c1"/>
    <path id="Path_75763" data-name="Path 75763" d="M1.213,0V-16H7.819a6.524,6.524,0,0,1,3.11.7,4.938,4.938,0,0,1,2.018,1.946,5.756,5.756,0,0,1,.709,2.894,5.628,5.628,0,0,1-.724,2.9,4.907,4.907,0,0,1-2.06,1.918,6.909,6.909,0,0,1-3.172.68H3.625V-8.012H6.988a3.163,3.163,0,0,0,1.461-.3,2.091,2.091,0,0,0,.9-.857,2.619,2.619,0,0,0,.305-1.288,2.575,2.575,0,0,0-.305-1.284,2.055,2.055,0,0,0-.9-.838,3.258,3.258,0,0,0-1.466-.3H5.075V0ZM15.556,0V-12h3.706v2.188h.125a3.254,3.254,0,0,1,1.072-1.77,2.731,2.731,0,0,1,1.728-.58,4.349,4.349,0,0,1,.548.036,3.726,3.726,0,0,1,.52.1v3.319a3.745,3.745,0,0,0-.716-.146,6.546,6.546,0,0,0-.784-.054,2.466,2.466,0,0,0-1.221.3,2.2,2.2,0,0,0-.85.837,2.452,2.452,0,0,0-.31,1.249V0ZM29.794.225a6.428,6.428,0,0,1-3.245-.777,5.265,5.265,0,0,1-2.088-2.17,6.883,6.883,0,0,1-.73-3.241,6.9,6.9,0,0,1,.73-3.245,5.263,5.263,0,0,1,2.088-2.172,6.428,6.428,0,0,1,3.245-.777,6.428,6.428,0,0,1,3.245.777,5.263,5.263,0,0,1,2.088,2.172,6.9,6.9,0,0,1,.73,3.245,6.883,6.883,0,0,1-.73,3.241,5.265,5.265,0,0,1-2.088,2.17A6.428,6.428,0,0,1,29.794.225Zm.025-2.881a1.7,1.7,0,0,0,1.162-.42,2.631,2.631,0,0,0,.73-1.17,5.475,5.475,0,0,0,.252-1.741,5.482,5.482,0,0,0-.252-1.745,2.643,2.643,0,0,0-.73-1.17,1.7,1.7,0,0,0-1.162-.422,1.777,1.777,0,0,0-1.2.422,2.589,2.589,0,0,0-.742,1.17,5.482,5.482,0,0,0-.252,1.745,5.475,5.475,0,0,0,.252,1.741,2.577,2.577,0,0,0,.742,1.17A1.781,1.781,0,0,0,29.819-2.656ZM44.637-12v2.813H36.919V-12ZM38.531,0V-12.606a4.632,4.632,0,0,1,.522-2.312A3.32,3.32,0,0,1,40.5-16.294a4.826,4.826,0,0,1,2.152-.456,8.835,8.835,0,0,1,1.5.122q.708.122,1.05.216L44.6-13.619a3.965,3.965,0,0,0-.515-.114,3.553,3.553,0,0,0-.566-.048,1.155,1.155,0,0,0-.919.3,1.231,1.231,0,0,0-.249.814V0ZM46.48,0V-12H50.3V0ZM48.4-13.4a1.975,1.975,0,0,1-1.391-.535,1.7,1.7,0,0,1-.578-1.293,1.69,1.69,0,0,1,.578-1.285,1.965,1.965,0,0,1,1.383-.535,1.961,1.961,0,0,1,1.387.535,1.7,1.7,0,0,1,.574,1.285,1.7,1.7,0,0,1-.574,1.293A1.951,1.951,0,0,1,48.4-13.4ZM56.544-16V0H52.725V-16ZM64.575.225A6.661,6.661,0,0,1,61.33-.52a5.078,5.078,0,0,1-2.092-2.131,6.992,6.992,0,0,1-.732-3.306,6.872,6.872,0,0,1,.735-3.251,5.338,5.338,0,0,1,2.072-2.172,6.154,6.154,0,0,1,3.149-.777,6.6,6.6,0,0,1,2.339.4,5.072,5.072,0,0,1,1.839,1.18,5.333,5.333,0,0,1,1.2,1.923,7.465,7.465,0,0,1,.427,2.622v.956H59.844V-7.294h6.875a2.129,2.129,0,0,0-.29-1.091,2.025,2.025,0,0,0-.772-.745,2.273,2.273,0,0,0-1.12-.27,2.3,2.3,0,0,0-1.149.287,2.166,2.166,0,0,0-.805.773,2.169,2.169,0,0,0-.308,1.1v2.263a2.733,2.733,0,0,0,.288,1.285,2.068,2.068,0,0,0,.82.855,2.511,2.511,0,0,0,1.267.3,2.826,2.826,0,0,0,.916-.141,1.987,1.987,0,0,0,.713-.416,1.7,1.7,0,0,0,.445-.668l3.506.1A4.33,4.33,0,0,1,69.273-1.6a4.846,4.846,0,0,1-1.931,1.35A7.388,7.388,0,0,1,64.575.225Z" transform="translate(574.277 547.685)" fill="#0065f2"/>
    <path id="Rectangle_8926_-_Outline" data-name="Rectangle 8926 - Outline" d="M25.531,1.7A23.829,23.829,0,0,0,1.7,25.531v439.5a23.829,23.829,0,0,0,23.829,23.829H501.185a23.829,23.829,0,0,0,23.829-23.829V25.531A23.829,23.829,0,0,0,501.185,1.7H25.531m0-1.7H501.185a25.531,25.531,0,0,1,25.531,25.531v439.5a25.531,25.531,0,0,1-25.531,25.531H25.531A25.531,25.531,0,0,1,0,465.032V25.531A25.531,25.531,0,0,1,25.531,0Z" transform="translate(533.141 366.611)" fill="rgba(227,227,227,0.41)"/>
    <path id="Path_80962" data-name="Path 80962" d="M18.115-.615A9.617,9.617,0,0,1,12.988.667,10.653,10.653,0,0,1,4.785-2.8Q1.453-6.289,1.453-12.339q0-6.118,3.367-9.81a11.473,11.473,0,0,1,8.9-3.691A11.639,11.639,0,0,1,21.439-23.4a9.055,9.055,0,0,1,3.341,6.075H19.6a4.932,4.932,0,0,0-2.922-3.606,7.177,7.177,0,0,0-2.888-.564,6.272,6.272,0,0,0-5,2.3q-1.957,2.3-1.957,6.913,0,4.648,2.119,6.58a6.959,6.959,0,0,0,4.819,1.931,6.225,6.225,0,0,0,4.341-1.53A6.612,6.612,0,0,0,20.2-9.314H14.373v-4.2H24.866V0H21.379l-.53-3.145A12.07,12.07,0,0,1,18.115-.615Zm10.683-16q1.931-2.461,6.631-2.461a11.781,11.781,0,0,1,5.435,1.213q2.375,1.213,2.375,4.58v8.545q0,.889.034,2.153a2.708,2.708,0,0,0,.291,1.3,1.746,1.746,0,0,0,.718.564V0h-5.3a5.425,5.425,0,0,1-.308-1.06q-.085-.5-.137-1.128A10.007,10.007,0,0,1,36.215-.325,6.991,6.991,0,0,1,32.66.581,6.112,6.112,0,0,1,28.482-.863a5.151,5.151,0,0,1-1.649-4.093,5.313,5.313,0,0,1,2.649-4.973,11.762,11.762,0,0,1,4.272-1.2l1.658-.205a7.6,7.6,0,0,0,1.931-.427,1.464,1.464,0,0,0,1.042-1.384,1.642,1.642,0,0,0-.795-1.581,4.964,4.964,0,0,0-2.333-.436,3.039,3.039,0,0,0-2.444.854A3.552,3.552,0,0,0,32.13-12.6h-4.7A7.148,7.148,0,0,1,28.8-16.611ZM32.421-3.521a2.545,2.545,0,0,0,1.675.564,4.961,4.961,0,0,0,2.9-.923,3.936,3.936,0,0,0,1.376-3.367V-9.058a5.293,5.293,0,0,1-.931.47,7.789,7.789,0,0,1-1.29.333l-1.094.205a7.063,7.063,0,0,0-2.2.667A2.234,2.234,0,0,0,31.72-5.315,2.138,2.138,0,0,0,32.421-3.521ZM55.528-14.133q-2.939,0-3.948,1.914A7.446,7.446,0,0,0,51.016-8.9V0h-4.9V-18.628H50.76v3.247a10.3,10.3,0,0,1,1.965-2.546,5.35,5.35,0,0,1,3.555-1.145q.137,0,.231.009t.419.026v4.99q-.461-.051-.82-.068T55.528-14.133Zm12.221,0q-2.939,0-3.948,1.914A7.446,7.446,0,0,0,63.237-8.9V0h-4.9V-18.628H62.98v3.247a10.3,10.3,0,0,1,1.965-2.546A5.35,5.35,0,0,1,68.5-19.072q.137,0,.231.009t.419.026v4.99q-.461-.051-.82-.068T67.748-14.133Zm18.8,8.665A6.179,6.179,0,0,1,84.822-2.1a8.457,8.457,0,0,1-6.7,2.717,9.447,9.447,0,0,1-6.272-2.29q-2.717-2.29-2.717-7.451,0-4.836,2.452-7.417a8.385,8.385,0,0,1,6.366-2.581,9.763,9.763,0,0,1,4.187.872A7.335,7.335,0,0,1,85.215-15.5a9.388,9.388,0,0,1,1.418,3.845,24.832,24.832,0,0,1,.154,3.691H74.039A4.629,4.629,0,0,0,75.8-4.033a4.146,4.146,0,0,0,2.427.7,3.493,3.493,0,0,0,2.444-.854,4.059,4.059,0,0,0,.906-1.282Zm-4.819-5.708a4.24,4.24,0,0,0-1.171-2.931,3.635,3.635,0,0,0-2.606-1,3.308,3.308,0,0,0-2.623,1.06,5.289,5.289,0,0,0-1.171,2.871ZM97.2-3.469V.171L94.89.256q-3.452.12-4.717-1.2a3.562,3.562,0,0,1-.82-2.581V-14.988h-2.6v-3.469h2.6v-5.2h4.819v5.2H97.2v3.469H94.172v9.844a2.217,2.217,0,0,0,.291,1.427,3.2,3.2,0,0,0,1.777.282q.222,0,.47-.009T97.2-3.469Zm10.255,0V.171l-2.307.085q-3.452.12-4.717-1.2a3.562,3.562,0,0,1-.82-2.581V-14.988h-2.6v-3.469h2.6v-5.2h4.819v5.2h3.025v3.469h-3.025v9.844a2.217,2.217,0,0,0,.291,1.427,3.2,3.2,0,0,0,1.777.282q.222,0,.47-.009T107.452-3.469ZM128.749,0H117.9V-25.19h10.852a13.24,13.24,0,0,1,3.9.547,8.316,8.316,0,0,1,4.29,3.2,11.21,11.21,0,0,1,1.794,4.067,19.525,19.525,0,0,1,.479,4.17A16.743,16.743,0,0,1,137.191-4.7,9.1,9.1,0,0,1,128.749,0Zm3.914-18.765q-1.213-2.051-4.8-2.051h-4.854v16.44h4.854a5.242,5.242,0,0,0,5.2-3.674,12.96,12.96,0,0,0,.8-4.8A11.944,11.944,0,0,0,132.662-18.765Zm13.725.137V0h-4.939V-18.628Zm0-6.716v4.495h-4.939v-4.495Zm4.017,8.733q1.931-2.461,6.631-2.461a11.781,11.781,0,0,1,5.435,1.213q2.375,1.213,2.375,4.58v8.545q0,.889.034,2.153a2.708,2.708,0,0,0,.291,1.3,1.746,1.746,0,0,0,.718.564V0h-5.3a5.424,5.424,0,0,1-.308-1.06q-.085-.5-.137-1.128a10.007,10.007,0,0,1-2.324,1.863,6.991,6.991,0,0,1-3.555.906,6.112,6.112,0,0,1-4.178-1.444,5.151,5.151,0,0,1-1.649-4.093,5.313,5.313,0,0,1,2.649-4.973,11.762,11.762,0,0,1,4.272-1.2l1.658-.205a7.6,7.6,0,0,0,1.931-.427,1.464,1.464,0,0,0,1.042-1.384,1.642,1.642,0,0,0-.795-1.581,4.964,4.964,0,0,0-2.333-.436,3.039,3.039,0,0,0-2.444.854,3.552,3.552,0,0,0-.684,1.709h-4.7A7.148,7.148,0,0,1,150.4-16.611Zm3.623,13.091a2.545,2.545,0,0,0,1.675.564,4.961,4.961,0,0,0,2.9-.923,3.936,3.936,0,0,0,1.376-3.367V-9.058a5.293,5.293,0,0,1-.931.47,7.789,7.789,0,0,1-1.29.333l-1.094.205a7.063,7.063,0,0,0-2.2.667,2.234,2.234,0,0,0-1.128,2.068A2.138,2.138,0,0,0,154.027-3.521ZM182.142,0H166.06V-3.794l9.553-10.869h-8.9v-3.965h15.107v4.05L172.366-4h9.775Z" transform="translate(693.022 438.814)" fill="#0065f2"/>
    <path id="Path_80963" data-name="Path 80963" d="M1.88-15.78H12.826v1.934H4.018v4.791h7.745v1.88H4.018V0H1.88Zm12.1,4.329h1.966V0H13.976Zm0-4.329h1.966v2.191H13.976ZM17.984-11.5h1.837v1.633a5.152,5.152,0,0,1,1.729-1.45,4.612,4.612,0,0,1,2.03-.44,3.348,3.348,0,0,1,3.309,1.708,6.065,6.065,0,0,1,.473,2.675V0H25.4V-7.251a3.926,3.926,0,0,0-.312-1.7,1.889,1.889,0,0,0-1.869-1.074,3.806,3.806,0,0,0-1.128.14,2.9,2.9,0,0,0-1.4.945,2.846,2.846,0,0,0-.628,1.176,7.918,7.918,0,0,0-.145,1.735V0H17.984ZM30.822-3.062a1.592,1.592,0,0,0,.612,1.321,2.27,2.27,0,0,0,1.45.483,4.409,4.409,0,0,0,1.977-.473A2.66,2.66,0,0,0,36.472-4.3V-5.854a3.308,3.308,0,0,1-.913.376,7.781,7.781,0,0,1-1.1.215l-1.171.15a4.478,4.478,0,0,0-1.579.44A1.716,1.716,0,0,0,30.822-3.062Zm4.684-3.91A1.05,1.05,0,0,0,36.4-7.53a1.7,1.7,0,0,0,.129-.741,1.57,1.57,0,0,0-.7-1.434,3.775,3.775,0,0,0-2.014-.446,2.559,2.559,0,0,0-2.148.816A2.686,2.686,0,0,0,31.2-7.992h-1.8a3.322,3.322,0,0,1,1.38-2.959,5.668,5.668,0,0,1,3.078-.833,6.262,6.262,0,0,1,3.3.773A2.624,2.624,0,0,1,38.406-8.6v6.628a.849.849,0,0,0,.124.483.6.6,0,0,0,.521.183q.129,0,.29-.016t.344-.048V.054A5.385,5.385,0,0,1,39,.215a5.024,5.024,0,0,1-.645.032A1.59,1.59,0,0,1,36.9-.462a2.736,2.736,0,0,1-.333-1.063,4.919,4.919,0,0,1-1.7,1.343,5.25,5.25,0,0,1-2.438.569,3.626,3.626,0,0,1-2.616-.972A3.229,3.229,0,0,1,28.8-3.019a3.134,3.134,0,0,1,1-2.481,4.753,4.753,0,0,1,2.621-1.085ZM40.695-11.5h1.837v1.633a5.152,5.152,0,0,1,1.729-1.45,4.612,4.612,0,0,1,2.03-.44A3.348,3.348,0,0,1,49.6-10.055a6.065,6.065,0,0,1,.473,2.675V0H48.107V-7.251a3.926,3.926,0,0,0-.312-1.7,1.889,1.889,0,0,0-1.869-1.074,3.806,3.806,0,0,0-1.128.14,2.9,2.9,0,0,0-1.4.945,2.846,2.846,0,0,0-.628,1.176,7.918,7.918,0,0,0-.145,1.735V0H40.695Zm15.792-.333a5.016,5.016,0,0,1,3.164.945,4.529,4.529,0,0,1,1.466,3.255h-1.88A3.47,3.47,0,0,0,58.453-9.4a2.477,2.477,0,0,0-1.966-.7,2.716,2.716,0,0,0-2.643,1.8,7.169,7.169,0,0,0-.516,2.89,5.438,5.438,0,0,0,.73,2.911,2.506,2.506,0,0,0,2.3,1.182,2.514,2.514,0,0,0,1.907-.736,4.046,4.046,0,0,0,.972-2.014h1.88A5.046,5.046,0,0,1,59.505-.725a5.027,5.027,0,0,1-3.3,1.058,4.4,4.4,0,0,1-3.6-1.649,6.311,6.311,0,0,1-1.343-4.12,6.94,6.94,0,0,1,1.472-4.716A4.755,4.755,0,0,1,56.487-11.838Zm5.683.387h1.966V0H62.17Zm0-4.329h1.966v2.191H62.17ZM67.66-3.062a1.592,1.592,0,0,0,.612,1.321,2.27,2.27,0,0,0,1.45.483A4.409,4.409,0,0,0,71.7-1.729,2.66,2.66,0,0,0,73.311-4.3V-5.854a3.308,3.308,0,0,1-.913.376,7.781,7.781,0,0,1-1.1.215l-1.171.15a4.478,4.478,0,0,0-1.579.44A1.716,1.716,0,0,0,67.66-3.062Zm4.684-3.91a1.05,1.05,0,0,0,.892-.559,1.7,1.7,0,0,0,.129-.741,1.57,1.57,0,0,0-.7-1.434,3.775,3.775,0,0,0-2.014-.446,2.559,2.559,0,0,0-2.148.816,2.686,2.686,0,0,0-.462,1.343h-1.8a3.322,3.322,0,0,1,1.38-2.959,5.667,5.667,0,0,1,3.078-.833,6.262,6.262,0,0,1,3.3.773A2.624,2.624,0,0,1,75.244-8.6v6.628a.849.849,0,0,0,.124.483.6.6,0,0,0,.521.183q.129,0,.29-.016t.344-.048V.054a5.385,5.385,0,0,1-.687.161,5.024,5.024,0,0,1-.645.032,1.59,1.59,0,0,1-1.45-.709,2.736,2.736,0,0,1-.333-1.063,4.919,4.919,0,0,1-1.7,1.343,5.25,5.25,0,0,1-2.438.569,3.626,3.626,0,0,1-2.616-.972,3.229,3.229,0,0,1-1.015-2.433,3.134,3.134,0,0,1,1-2.481,4.753,4.753,0,0,1,2.621-1.085Zm5.243-8.809h1.934V0H77.587ZM93.928-6.467l-2.4-6.972L88.986-6.467ZM90.415-15.78h2.417L98.557,0H96.216l-1.6-4.727H88.374L86.666,0H84.474ZM100.589-5.618a5.7,5.7,0,0,0,.784,3.094,2.748,2.748,0,0,0,2.514,1.246,2.648,2.648,0,0,0,2.208-1.155,5.454,5.454,0,0,0,.865-3.314,4.9,4.9,0,0,0-.892-3.228,2.781,2.781,0,0,0-2.2-1.047A2.907,2.907,0,0,0,101.5-8.905,5.117,5.117,0,0,0,100.589-5.618Zm2.911-6.091a4.093,4.093,0,0,1,2.213.559,5.2,5.2,0,0,1,1.171,1.128v-5.812h1.858V0H107V-1.6a4.183,4.183,0,0,1-1.6,1.536,4.581,4.581,0,0,1-2.116.473,4.285,4.285,0,0,1-3.33-1.617,6.321,6.321,0,0,1-1.407-4.3,7.427,7.427,0,0,1,1.284-4.356A4.2,4.2,0,0,1,103.5-11.709Zm8.165.2,3.072,9.367,3.212-9.367h2.116L115.725,0h-2.062l-4.243-11.5Zm9.175.054h1.966V0h-1.966Zm0-4.329h1.966v2.191h-1.966ZM126-3.609a2.812,2.812,0,0,0,.483,1.482,3.038,3.038,0,0,0,2.535.935,3.739,3.739,0,0,0,1.891-.467,1.552,1.552,0,0,0,.816-1.445,1.236,1.236,0,0,0-.655-1.128,7.791,7.791,0,0,0-1.654-.548l-1.536-.387a7.494,7.494,0,0,1-2.17-.816,2.44,2.44,0,0,1-1.246-2.17,3.315,3.315,0,0,1,1.176-2.643,4.692,4.692,0,0,1,3.164-1.01,4.392,4.392,0,0,1,3.749,1.525,3.31,3.31,0,0,1,.7,2.084h-1.826a2.237,2.237,0,0,0-.462-1.192,2.946,2.946,0,0,0-2.31-.763,2.761,2.761,0,0,0-1.66.419,1.313,1.313,0,0,0-.564,1.106,1.362,1.362,0,0,0,.741,1.2,4.454,4.454,0,0,0,1.268.473l1.278.312a9.884,9.884,0,0,1,2.793.978,2.588,2.588,0,0,1,1.128,2.331,3.552,3.552,0,0,1-1.166,2.653A4.962,4.962,0,0,1,128.918.44a4.763,4.763,0,0,1-3.636-1.166,4.408,4.408,0,0,1-1.144-2.884Zm13.536,2.363A2.667,2.667,0,0,0,142.17-2.7a7.252,7.252,0,0,0,.714-3.239,5.767,5.767,0,0,0-.516-2.621,2.9,2.9,0,0,0-2.814-1.59A2.775,2.775,0,0,0,136.976-8.8a6.274,6.274,0,0,0-.806,3.266,5.457,5.457,0,0,0,.806,3.062A2.838,2.838,0,0,0,139.532-1.246Zm.075-10.592a5.21,5.21,0,0,1,3.76,1.482A5.789,5.789,0,0,1,144.9-5.994a7.483,7.483,0,0,1-1.354,4.6,4.9,4.9,0,0,1-4.2,1.815,4.742,4.742,0,0,1-3.771-1.606,6.343,6.343,0,0,1-1.4-4.313,6.863,6.863,0,0,1,1.472-4.619A4.939,4.939,0,0,1,139.608-11.838Zm6.768.333h1.837v1.987a4.391,4.391,0,0,1,1.106-1.413,2.869,2.869,0,0,1,2.03-.833q.054,0,.183.011t.44.043v2.041a2.888,2.888,0,0,0-.317-.043q-.145-.011-.317-.011a2.759,2.759,0,0,0-2.245.94,3.281,3.281,0,0,0-.784,2.165V0h-1.934Zm5.6,13.75A1.355,1.355,0,0,0,153.016,1.2a2.949,2.949,0,0,0,.161-.935q0-.075-.005-.134A.74.74,0,0,0,153.144,0h-1.171V-2.342h2.3v2.17a4.7,4.7,0,0,1-.516,2.245,2.349,2.349,0,0,1-1.783,1.192Zm17.136-18.434a8.106,8.106,0,0,1,3.846.859A5.607,5.607,0,0,1,175.834-11h-2.116a3.843,3.843,0,0,0-1.6-2.519,5.509,5.509,0,0,0-3.062-.79,4.8,4.8,0,0,0-3.69,1.644,7.053,7.053,0,0,0-1.5,4.9A7.827,7.827,0,0,0,165.1-3.185a4.567,4.567,0,0,0,4.028,1.767,5.144,5.144,0,0,0,3.54-1.241A5.194,5.194,0,0,0,174.1-6.671h-4.941V-8.443h6.929V0h-1.375L174.2-2.03a8.1,8.1,0,0,1-1.923,1.654A7.207,7.207,0,0,1,168.7.419,6.969,6.969,0,0,1,163.878-1.4a8.615,8.615,0,0,1-2.2-6.252,8.966,8.966,0,0,1,2.148-6.306A6.829,6.829,0,0,1,169.109-16.188Zm9.207.408h1.934V0h-1.934Zm8.519,14.534A2.667,2.667,0,0,0,189.473-2.7a7.252,7.252,0,0,0,.714-3.239,5.767,5.767,0,0,0-.516-2.621,2.9,2.9,0,0,0-2.814-1.59A2.775,2.775,0,0,0,184.279-8.8a6.274,6.274,0,0,0-.806,3.266,5.457,5.457,0,0,0,.806,3.062A2.838,2.838,0,0,0,186.835-1.246Zm.075-10.592a5.21,5.21,0,0,1,3.76,1.482,5.789,5.789,0,0,1,1.536,4.361,7.483,7.483,0,0,1-1.354,4.6,4.9,4.9,0,0,1-4.2,1.815,4.742,4.742,0,0,1-3.771-1.606,6.343,6.343,0,0,1-1.4-4.313,6.863,6.863,0,0,1,1.472-4.619A4.939,4.939,0,0,1,186.911-11.838Zm6.564-4h1.88v5.726a4.288,4.288,0,0,1,1.515-1.262,4.258,4.258,0,0,1,1.912-.435,4.482,4.482,0,0,1,3.486,1.477A6.292,6.292,0,0,1,203.6-5.973a7.471,7.471,0,0,1-1.321,4.533,4.286,4.286,0,0,1-3.663,1.8,3.753,3.753,0,0,1-2.213-.634,5.344,5.344,0,0,1-1.149-1.2V0h-1.783ZM198.5-1.343a2.584,2.584,0,0,0,2.347-1.246,6.135,6.135,0,0,0,.779-3.287,5.4,5.4,0,0,0-.779-3.008,2.565,2.565,0,0,0-2.293-1.192,3.2,3.2,0,0,0-2.315.978,4.39,4.39,0,0,0-.994,3.223,7.122,7.122,0,0,0,.408,2.632A2.82,2.82,0,0,0,198.5-1.343Zm11.269-10.42a5.248,5.248,0,0,1,2.374.575A4.378,4.378,0,0,1,213.9-9.7a5.133,5.133,0,0,1,.773,2.03,13.284,13.284,0,0,1,.172,2.535h-8.433a4.921,4.921,0,0,0,.827,2.809,2.77,2.77,0,0,0,2.4,1.058,3.1,3.1,0,0,0,2.417-1,3.368,3.368,0,0,0,.73-1.343h1.9a4,4,0,0,1-.5,1.413,5.024,5.024,0,0,1-.951,1.273A4.506,4.506,0,0,1,211.05.236a6.625,6.625,0,0,1-1.579.172,4.845,4.845,0,0,1-3.642-1.563,6.082,6.082,0,0,1-1.493-4.377,6.612,6.612,0,0,1,1.5-4.5A4.961,4.961,0,0,1,209.772-11.763Zm3.083,5.092a5.01,5.01,0,0,0-.548-2.009,2.808,2.808,0,0,0-2.653-1.4,2.941,2.941,0,0,0-2.234.961,3.632,3.632,0,0,0-.956,2.444ZM215.24-11.5h2.5l2.643,4.05,2.675-4.05,2.353.054L221.535-5.9l4.05,5.9h-2.471l-2.857-4.318L217.485,0h-2.449l4.05-5.9Zm22.635,2.4a4.8,4.8,0,0,0,2.105-.376,2.166,2.166,0,0,0,1.182-2.127,2.05,2.05,0,0,0-1.257-2.084A5.649,5.649,0,0,0,237.8-14h-3.813v4.888Zm.72,7.283a3.251,3.251,0,0,0,2.8-1.139,2.867,2.867,0,0,0,.526-1.74,2.315,2.315,0,0,0-1.536-2.342,5.815,5.815,0,0,0-2.159-.333h-4.243v5.554Zm-6.7-13.954h6.778a4.494,4.494,0,0,1,3.942,1.654,3.823,3.823,0,0,1,.688,2.256,3.552,3.552,0,0,1-.849,2.449,4.147,4.147,0,0,1-1.268.924A5.363,5.363,0,0,1,243-7.455a3.781,3.781,0,0,1,1.063,2.847,4.4,4.4,0,0,1-.956,2.761A5.384,5.384,0,0,1,238.563,0h-6.671ZM246.965-3.062a1.592,1.592,0,0,0,.612,1.321,2.27,2.27,0,0,0,1.45.483A4.409,4.409,0,0,0,251-1.729,2.66,2.66,0,0,0,252.615-4.3V-5.854a3.308,3.308,0,0,1-.913.376,7.78,7.78,0,0,1-1.1.215l-1.171.15a4.478,4.478,0,0,0-1.579.44A1.716,1.716,0,0,0,246.965-3.062Zm4.684-3.91a1.05,1.05,0,0,0,.892-.559,1.7,1.7,0,0,0,.129-.741,1.57,1.57,0,0,0-.7-1.434,3.775,3.775,0,0,0-2.014-.446,2.559,2.559,0,0,0-2.148.816,2.686,2.686,0,0,0-.462,1.343h-1.8a3.322,3.322,0,0,1,1.38-2.959,5.668,5.668,0,0,1,3.078-.833,6.262,6.262,0,0,1,3.3.773A2.624,2.624,0,0,1,254.549-8.6v6.628a.849.849,0,0,0,.124.483.6.6,0,0,0,.521.183q.129,0,.29-.016t.344-.048V.054a5.385,5.385,0,0,1-.687.161,5.024,5.024,0,0,1-.645.032,1.59,1.59,0,0,1-1.45-.709,2.736,2.736,0,0,1-.333-1.063,4.919,4.919,0,0,1-1.7,1.343,5.25,5.25,0,0,1-2.438.569,3.626,3.626,0,0,1-2.616-.972,3.229,3.229,0,0,1-1.015-2.433,3.134,3.134,0,0,1,1-2.481,4.753,4.753,0,0,1,2.621-1.085Zm5.189-4.533h1.837v1.633a5.152,5.152,0,0,1,1.729-1.45,4.612,4.612,0,0,1,2.03-.44,3.348,3.348,0,0,1,3.309,1.708,6.065,6.065,0,0,1,.473,2.675V0H264.25V-7.251a3.927,3.927,0,0,0-.312-1.7,1.889,1.889,0,0,0-1.869-1.074,3.806,3.806,0,0,0-1.128.14,2.9,2.9,0,0,0-1.4.945,2.846,2.846,0,0,0-.628,1.176,7.918,7.918,0,0,0-.145,1.735V0h-1.934ZM268.15-15.78h1.858v9.163l4.963-4.888h2.471l-4.4,4.308L277.689,0h-2.471L271.63-5.8l-1.622,1.482V0H268.15Zm10.163,4.329h1.966V0h-1.966Zm0-4.329h1.966v2.191h-1.966Zm4.008,4.275h1.837v1.633a5.152,5.152,0,0,1,1.729-1.45,4.612,4.612,0,0,1,2.03-.44,3.348,3.348,0,0,1,3.309,1.708A6.065,6.065,0,0,1,291.7-7.38V0h-1.966V-7.251a3.927,3.927,0,0,0-.312-1.7,1.889,1.889,0,0,0-1.869-1.074,3.806,3.806,0,0,0-1.128.14,2.9,2.9,0,0,0-1.4.945,2.846,2.846,0,0,0-.628,1.176,7.918,7.918,0,0,0-.145,1.735V0h-1.934Zm15.416-.2a4.193,4.193,0,0,1,2.363.666,5.308,5.308,0,0,1,1.117,1.1V-11.4H303V-.935a7.716,7.716,0,0,1-.645,3.459q-1.2,2.342-4.544,2.342a5.574,5.574,0,0,1-3.126-.833,3.247,3.247,0,0,1-1.418-2.6h1.966a2.188,2.188,0,0,0,.559,1.192,2.848,2.848,0,0,0,2.063.645A2.838,2.838,0,0,0,300.766,1.7a8.833,8.833,0,0,0,.376-3.3,3.794,3.794,0,0,1-1.4,1.311,4.646,4.646,0,0,1-2.159.43,4.609,4.609,0,0,1-3.271-1.327q-1.4-1.327-1.4-4.388a6.646,6.646,0,0,1,1.413-4.512A4.368,4.368,0,0,1,297.736-11.709Zm3.48,5.908a4.8,4.8,0,0,0-.881-3.169A2.822,2.822,0,0,0,298.091-10,2.772,2.772,0,0,0,295.3-8.089a7.5,7.5,0,0,0-.4,2.675,4.748,4.748,0,0,0,.79,2.959,2.549,2.549,0,0,0,2.122,1.015,2.978,2.978,0,0,0,2.933-1.88A6.063,6.063,0,0,0,301.217-5.8Z" transform="translate(693.022 473.068)" fill="#4d4d4d"/>
    <path id="Path_75760" data-name="Path 75760" d="M7.5,5.369a8.192,8.192,0,0,1-2.79-.423A5.434,5.434,0,0,1,2.8,3.824,4.7,4.7,0,0,1,1.7,2.308l2.28-.937a6.042,6.042,0,0,0,.646.805,3.346,3.346,0,0,0,1.1.745,4.441,4.441,0,0,0,1.8.311,4.086,4.086,0,0,0,2.5-.728A2.684,2.684,0,0,0,11.009.192V-2.486h-.17a6.09,6.09,0,0,1-.685.97,3.746,3.746,0,0,1-1.23.921,4.591,4.591,0,0,1-2.033.388,5.619,5.619,0,0,1-2.9-.76A5.311,5.311,0,0,1,1.94-3.212a8.04,8.04,0,0,1-.754-3.663A8.574,8.574,0,0,1,1.929-10.6a5.625,5.625,0,0,1,2.038-2.385,5.341,5.341,0,0,1,2.943-.829,4.309,4.309,0,0,1,2.049.422,3.848,3.848,0,0,1,1.222.982,8,8,0,0,1,.678.983h.192v-2.209h2.6V.305a4.745,4.745,0,0,1-.814,2.859A4.806,4.806,0,0,1,10.63,4.828,8.576,8.576,0,0,1,7.5,5.369ZM7.479-2.408a3.371,3.371,0,0,0,1.936-.537A3.34,3.34,0,0,0,10.622-4.49,6.332,6.332,0,0,0,11.037-6.9a6.667,6.667,0,0,0-.407-2.428,3.605,3.605,0,0,0-1.2-1.635,3.181,3.181,0,0,0-1.95-.589,3.185,3.185,0,0,0-2,.617,3.729,3.729,0,0,0-1.2,1.671,6.587,6.587,0,0,0-.4,2.364,6.233,6.233,0,0,0,.409,2.35A3.473,3.473,0,0,0,5.491-2.975,3.355,3.355,0,0,0,7.479-2.408ZM20.186.3a5.546,5.546,0,0,1-2.343-.48,3.88,3.88,0,0,1-1.656-1.405,4.015,4.015,0,0,1-.611-2.262,3.668,3.668,0,0,1,.446-1.906,3.292,3.292,0,0,1,1.2-1.18,6.219,6.219,0,0,1,1.686-.655,16.964,16.964,0,0,1,1.9-.336q1.223-.146,1.984-.239a2.947,2.947,0,0,0,1.111-.3.746.746,0,0,0,.35-.693v-.064a2.4,2.4,0,0,0-.653-1.8,2.666,2.666,0,0,0-1.939-.639,3.4,3.4,0,0,0-2.11.587,3.181,3.181,0,0,0-1.065,1.309L16-10.334a4.821,4.821,0,0,1,1.3-2.011,5.278,5.278,0,0,1,1.975-1.119,7.824,7.824,0,0,1,2.351-.351,8.468,8.468,0,0,1,1.737.193,5.257,5.257,0,0,1,1.724.7A3.817,3.817,0,0,1,26.4-11.482a5.035,5.035,0,0,1,.512,2.426V0H24.32V-1.861h-.107a3.756,3.756,0,0,1-.766,1.007,4.051,4.051,0,0,1-1.323.826A5.169,5.169,0,0,1,20.186.3Zm.575-2.124a3.829,3.829,0,0,0,1.89-.437,3.1,3.1,0,0,0,1.2-1.142,2.935,2.935,0,0,0,.414-1.511V-6.676a1.342,1.342,0,0,1-.548.261,8.183,8.183,0,0,1-.916.2q-.514.087-1,.151l-.819.108a6.867,6.867,0,0,0-1.4.331,2.4,2.4,0,0,0-1.016.659,1.664,1.664,0,0,0-.379,1.141,1.7,1.7,0,0,0,.73,1.491A3.192,3.192,0,0,0,20.761-1.825ZM29.449,0V-13.636H32.02v2.166h.142A3.328,3.328,0,0,1,33.479-13.2a3.738,3.738,0,0,1,2.142-.637q.249,0,.589.017a5.239,5.239,0,0,1,.541.049v2.541a4.748,4.748,0,0,0-.566-.1,5.755,5.755,0,0,0-.819-.059,3.486,3.486,0,0,0-1.675.4,2.988,2.988,0,0,0-1.16,1.09,2.99,2.99,0,0,0-.424,1.59V0Zm8.609,0V-13.636h2.571v2.166h.142A3.328,3.328,0,0,1,42.088-13.2a3.738,3.738,0,0,1,2.142-.637q.249,0,.589.017a5.239,5.239,0,0,1,.541.049v2.541a4.747,4.747,0,0,0-.566-.1,5.755,5.755,0,0,0-.819-.059A3.486,3.486,0,0,0,42.3-11a2.988,2.988,0,0,0-1.16,1.09,2.99,2.99,0,0,0-.424,1.59V0ZM52.051.277A6.651,6.651,0,0,1,48.583-.59a5.762,5.762,0,0,1-2.239-2.443,8.2,8.2,0,0,1-.784-3.692,8.286,8.286,0,0,1,.785-3.7,6.021,6.021,0,0,1,2.2-2.495,6.061,6.061,0,0,1,3.315-.9,6.716,6.716,0,0,1,2.243.38,5.378,5.378,0,0,1,1.941,1.2,5.687,5.687,0,0,1,1.36,2.121,8.818,8.818,0,0,1,.5,3.155v.937H47.058V-8.011H55.3a3.975,3.975,0,0,0-.425-1.854A3.211,3.211,0,0,0,53.68-11.15a3.38,3.38,0,0,0-1.8-.47,3.463,3.463,0,0,0-1.948.544,3.692,3.692,0,0,0-1.278,1.421,4.128,4.128,0,0,0-.454,1.9v1.548a5.11,5.11,0,0,0,.485,2.326A3.422,3.422,0,0,0,50.041-2.42a3.989,3.989,0,0,0,2.031.5,4.174,4.174,0,0,0,1.382-.217,2.9,2.9,0,0,0,1.072-.651,2.868,2.868,0,0,0,.692-1.079l2.514.455a4.544,4.544,0,0,1-1.078,1.938A5.23,5.23,0,0,1,54.708-.182,7.236,7.236,0,0,1,52.051.277ZM66.229-13.636v2.131h-7.45v-2.131ZM60.774-16.9H63.43V-4a2.328,2.328,0,0,0,.229,1.157,1.152,1.152,0,0,0,.6.526,2.322,2.322,0,0,0,.8.136,3.192,3.192,0,0,0,.558-.043q.237-.043.372-.071L66.477-.1a6.154,6.154,0,0,1-.663.179,5.291,5.291,0,0,1-1.063.1A4.659,4.659,0,0,1,62.8-.194,3.371,3.371,0,0,1,61.33-1.4a3.527,3.527,0,0,1-.556-2.053Zm13.751,3.267v2.131h-7.45v-2.131ZM69.071-16.9h2.656V-4a2.328,2.328,0,0,0,.229,1.157,1.152,1.152,0,0,0,.6.526,2.322,2.322,0,0,0,.8.136,3.192,3.192,0,0,0,.558-.043q.237-.043.372-.071L74.774-.1a6.155,6.155,0,0,1-.663.179,5.291,5.291,0,0,1-1.063.1,4.659,4.659,0,0,1-1.955-.376A3.371,3.371,0,0,1,69.627-1.4a3.527,3.527,0,0,1-.556-2.053ZM81.416.263a5.244,5.244,0,0,1-2.943-.845,5.684,5.684,0,0,1-2.024-2.424,8.894,8.894,0,0,1-.736-3.784,8.8,8.8,0,0,1,.743-3.786,5.631,5.631,0,0,1,2.038-2.406,5.324,5.324,0,0,1,2.943-.833,4.265,4.265,0,0,1,2.042.422,3.783,3.783,0,0,1,1.207.982,8.4,8.4,0,0,1,.671.983h.156v-6.754h2.656V0H85.578V-2.124h-.22a7.389,7.389,0,0,1-.688,1,3.841,3.841,0,0,1-1.229.975A4.315,4.315,0,0,1,81.416.263ZM82.006-2A3.087,3.087,0,0,0,83.942-2.6,3.765,3.765,0,0,0,85.149-4.3a7.042,7.042,0,0,0,.415-2.52,6.943,6.943,0,0,0-.407-2.488,3.62,3.62,0,0,0-1.2-1.657,3.167,3.167,0,0,0-1.95-.592,3.173,3.173,0,0,0-2,.621,3.743,3.743,0,0,0-1.2,1.692,6.862,6.862,0,0,0-.4,2.425,6.974,6.974,0,0,0,.409,2.46A3.878,3.878,0,0,0,80.018-2.63,3.1,3.1,0,0,0,82.006-2Zm8.945,2V-13.636h2.654V0Zm1.341-15.74a1.663,1.663,0,0,1-1.185-.466,1.481,1.481,0,0,1-.493-1.114,1.49,1.49,0,0,1,.493-1.123,1.663,1.663,0,0,1,1.185-.466,1.663,1.663,0,0,1,1.185.466,1.49,1.49,0,0,1,.493,1.123,1.481,1.481,0,0,1-.493,1.114A1.663,1.663,0,0,1,92.291-15.74ZM100.141.3A5.546,5.546,0,0,1,97.8-.182a3.88,3.88,0,0,1-1.656-1.405,4.015,4.015,0,0,1-.611-2.262,3.668,3.668,0,0,1,.446-1.906,3.292,3.292,0,0,1,1.2-1.18,6.219,6.219,0,0,1,1.686-.655,16.964,16.964,0,0,1,1.9-.336q1.223-.146,1.984-.239a2.947,2.947,0,0,0,1.111-.3.746.746,0,0,0,.35-.693v-.064a2.4,2.4,0,0,0-.653-1.8,2.666,2.666,0,0,0-1.939-.639,3.4,3.4,0,0,0-2.11.587,3.181,3.181,0,0,0-1.065,1.309l-2.493-.568a4.821,4.821,0,0,1,1.3-2.011,5.278,5.278,0,0,1,1.975-1.119,7.824,7.824,0,0,1,2.351-.351,8.468,8.468,0,0,1,1.737.193,5.257,5.257,0,0,1,1.724.7,3.817,3.817,0,0,1,1.318,1.442,5.035,5.035,0,0,1,.512,2.426V0h-2.592V-1.861h-.107A3.756,3.756,0,0,1,103.4-.854a4.051,4.051,0,0,1-1.323.826A5.169,5.169,0,0,1,100.141.3Zm.575-2.124a3.829,3.829,0,0,0,1.89-.437A3.1,3.1,0,0,0,103.8-3.4a2.935,2.935,0,0,0,.414-1.511V-6.676a1.342,1.342,0,0,1-.548.261,8.183,8.183,0,0,1-.916.2q-.514.087-1,.151l-.819.108a6.867,6.867,0,0,0-1.4.331,2.4,2.4,0,0,0-1.016.659,1.664,1.664,0,0,0-.379,1.141,1.7,1.7,0,0,0,.73,1.491A3.192,3.192,0,0,0,100.716-1.825ZM109.119,0V-1.818l7.386-9.382v-.128h-7.145v-2.308h10.462V-11.7l-7.109,9.268v.128h7.351V0Zm24.021,4.943a14.655,14.655,0,0,1-4.884-.75,9.426,9.426,0,0,1-3.584-2.2,9.411,9.411,0,0,1-2.207-3.553,14.244,14.244,0,0,1-.753-4.8,13.776,13.776,0,0,1,.763-4.722,9.756,9.756,0,0,1,2.22-3.572,9.687,9.687,0,0,1,3.556-2.263,13.512,13.512,0,0,1,4.76-.785,11.738,11.738,0,0,1,4.491.8,9.361,9.361,0,0,1,3.272,2.195,9.359,9.359,0,0,1,2,3.2,10.727,10.727,0,0,1,.674,3.81,20.417,20.417,0,0,1-.177,2.741,8.849,8.849,0,0,1-.655,2.414,4.156,4.156,0,0,1-1.366,1.722,3.973,3.973,0,0,1-2.311.673,4.687,4.687,0,0,1-1.468-.181A2.981,2.981,0,0,1,136.269-1a1.909,1.909,0,0,1-.6-1.168h-.107a2.667,2.667,0,0,1-.712.973,3.6,3.6,0,0,1-1.268.712,4.87,4.87,0,0,1-1.777.218,4.846,4.846,0,0,1-2.017-.51,4.548,4.548,0,0,1-1.533-1.277,5.861,5.861,0,0,1-.97-1.938,8.678,8.678,0,0,1-.337-2.483,6.876,6.876,0,0,1,.383-2.358,5.659,5.659,0,0,1,1.042-1.8,5.138,5.138,0,0,1,1.525-1.2,5.306,5.306,0,0,1,1.823-.559,5.349,5.349,0,0,1,1.71.051,3.891,3.891,0,0,1,1.3.488,1.46,1.46,0,0,1,.652.718h.114v-.994h2.18v8.239a1.952,1.952,0,0,0,.37,1.193,1.233,1.233,0,0,0,1.05.49,1.517,1.517,0,0,0,1.269-.594,4.009,4.009,0,0,0,.652-1.831,21.3,21.3,0,0,0,.189-3.165,8.658,8.658,0,0,0-.361-2.544,7.378,7.378,0,0,0-1.059-2.166,6.954,6.954,0,0,0-1.705-1.673,7.9,7.9,0,0,0-2.3-1.079,10.121,10.121,0,0,0-2.852-.379,10.207,10.207,0,0,0-3.778.653,7.487,7.487,0,0,0-2.781,1.875,8.078,8.078,0,0,0-1.714,2.931,11.878,11.878,0,0,0-.583,3.831,11.97,11.97,0,0,0,.6,3.922A7.531,7.531,0,0,0,126.423.456,7.5,7.5,0,0,0,129.3,2.235a11.843,11.843,0,0,0,3.953.606,10.96,10.96,0,0,0,1.951-.173,17.019,17.019,0,0,0,1.708-.391q.749-.218,1.12-.352l.625,1.946a9.267,9.267,0,0,1-1.46.507,17.131,17.131,0,0,1-1.971.407A14.1,14.1,0,0,1,133.141,4.943Zm-.824-7.386a3.368,3.368,0,0,0,1.862-.459A2.58,2.58,0,0,0,135.2-4.28a7.068,7.068,0,0,0,.312-2.3,5.7,5.7,0,0,0-.338-2.153,2.189,2.189,0,0,0-1.033-1.158,3.925,3.925,0,0,0-1.782-.354,2.918,2.918,0,0,0-1.709.491,3.127,3.127,0,0,0-1.078,1.325,4.526,4.526,0,0,0-.374,1.856,6.69,6.69,0,0,0,.3,2.018,3.264,3.264,0,0,0,.98,1.531A2.724,2.724,0,0,0,132.317-2.443ZM151.1,5.369a8.191,8.191,0,0,1-2.79-.423A5.434,5.434,0,0,1,146.4,3.824a4.7,4.7,0,0,1-1.1-1.515l2.28-.937a6.041,6.041,0,0,0,.646.805,3.346,3.346,0,0,0,1.1.745,4.441,4.441,0,0,0,1.8.311,4.086,4.086,0,0,0,2.5-.728,2.684,2.684,0,0,0,.985-2.312V-2.486h-.17a6.089,6.089,0,0,1-.685.97,3.746,3.746,0,0,1-1.23.921,4.591,4.591,0,0,1-2.033.388,5.619,5.619,0,0,1-2.9-.76,5.311,5.311,0,0,1-2.046-2.246,8.04,8.04,0,0,1-.754-3.663,8.574,8.574,0,0,1,.743-3.725,5.625,5.625,0,0,1,2.038-2.385,5.341,5.341,0,0,1,2.943-.829,4.309,4.309,0,0,1,2.049.422,3.848,3.848,0,0,1,1.222.982,8,8,0,0,1,.678.983h.192v-2.209h2.6V.305a4.745,4.745,0,0,1-.814,2.859,4.806,4.806,0,0,1-2.206,1.663A8.576,8.576,0,0,1,151.1,5.369Zm-.021-7.777a3.371,3.371,0,0,0,1.936-.537,3.34,3.34,0,0,0,1.207-1.545,6.332,6.332,0,0,0,.415-2.414,6.667,6.667,0,0,0-.407-2.428,3.605,3.605,0,0,0-1.2-1.635,3.181,3.181,0,0,0-1.95-.589,3.185,3.185,0,0,0-2,.617,3.729,3.729,0,0,0-1.2,1.671,6.587,6.587,0,0,0-.4,2.364,6.233,6.233,0,0,0,.409,2.35,3.473,3.473,0,0,0,1.211,1.578A3.355,3.355,0,0,0,151.076-2.408Zm11.393-15.774V0h-2.656V-18.182ZM170.78.277a6.253,6.253,0,0,1-3.349-.88,5.936,5.936,0,0,1-2.218-2.461,8.157,8.157,0,0,1-.79-3.69,8.236,8.236,0,0,1,.79-3.712,5.926,5.926,0,0,1,2.218-2.468,6.253,6.253,0,0,1,3.349-.88,6.253,6.253,0,0,1,3.349.88,5.926,5.926,0,0,1,2.218,2.468,8.236,8.236,0,0,1,.79,3.712,8.157,8.157,0,0,1-.79,3.69A5.935,5.935,0,0,1,174.129-.6,6.253,6.253,0,0,1,170.78.277Zm.007-2.23a3.174,3.174,0,0,0,2.061-.659,3.916,3.916,0,0,0,1.213-1.751,6.962,6.962,0,0,0,.4-2.4,7.021,7.021,0,0,0-.4-2.407,3.961,3.961,0,0,0-1.213-1.764,3.152,3.152,0,0,0-2.061-.666,3.177,3.177,0,0,0-2.072.666A3.949,3.949,0,0,0,167.5-9.168a7.021,7.021,0,0,0-.4,2.407,6.962,6.962,0,0,0,.4,2.4,3.9,3.9,0,0,0,1.216,1.751A3.2,3.2,0,0,0,170.787-1.953ZM179.3,0V-18.182h2.656v6.754h.156a8.4,8.4,0,0,1,.671-.983A3.782,3.782,0,0,1,184-13.392a4.265,4.265,0,0,1,2.042-.422,5.324,5.324,0,0,1,2.943.833,5.631,5.631,0,0,1,2.038,2.406,8.8,8.8,0,0,1,.743,3.786,8.9,8.9,0,0,1-.736,3.784A5.683,5.683,0,0,1,189-.582a5.244,5.244,0,0,1-2.943.845,4.315,4.315,0,0,1-2.025-.415,3.841,3.841,0,0,1-1.229-.975,7.373,7.373,0,0,1-.688-1h-.22V0Zm2.607-6.818a7.043,7.043,0,0,0,.415,2.52A3.764,3.764,0,0,0,183.533-2.6,3.087,3.087,0,0,0,185.469-2a3.1,3.1,0,0,0,1.988-.635,3.878,3.878,0,0,0,1.211-1.728,6.974,6.974,0,0,0,.409-2.46,6.863,6.863,0,0,0-.4-2.425,3.743,3.743,0,0,0-1.2-1.692,3.173,3.173,0,0,0-2-.621,3.167,3.167,0,0,0-1.95.592,3.62,3.62,0,0,0-1.2,1.657A6.943,6.943,0,0,0,181.911-6.818Zm17.7,7.1a6.651,6.651,0,0,1-3.469-.867A5.762,5.762,0,0,1,193.9-3.034a8.2,8.2,0,0,1-.784-3.692,8.286,8.286,0,0,1,.785-3.7,6.021,6.021,0,0,1,2.2-2.495,6.061,6.061,0,0,1,3.315-.9,6.716,6.716,0,0,1,2.243.38,5.378,5.378,0,0,1,1.941,1.2,5.687,5.687,0,0,1,1.36,2.121,8.818,8.818,0,0,1,.5,3.155v.937H194.618V-8.011h8.239a3.975,3.975,0,0,0-.425-1.854,3.211,3.211,0,0,0-1.191-1.284,3.38,3.38,0,0,0-1.8-.47,3.463,3.463,0,0,0-1.948.544,3.692,3.692,0,0,0-1.278,1.421,4.128,4.128,0,0,0-.454,1.9v1.548a5.11,5.11,0,0,0,.485,2.326A3.422,3.422,0,0,0,197.6-2.42a3.989,3.989,0,0,0,2.031.5,4.174,4.174,0,0,0,1.382-.217,2.9,2.9,0,0,0,1.072-.651,2.868,2.868,0,0,0,.692-1.079l2.514.455a4.544,4.544,0,0,1-1.078,1.938,5.23,5.23,0,0,1-1.947,1.289A7.236,7.236,0,0,1,199.611.277ZM209.2-13.636l3.011,5.305,3.033-5.305h2.9L213.9-6.818,218.185,0h-2.9l-3.075-5.1L209.151,0h-2.912l4.24-6.818-4.19-6.818ZM221.638.17a1.714,1.714,0,0,1-1.254-.521,1.7,1.7,0,0,1-.521-1.254,1.692,1.692,0,0,1,.521-1.248,1.715,1.715,0,0,1,1.254-.52,1.715,1.715,0,0,1,1.247.52,1.7,1.7,0,0,1,.528,1.248,1.7,1.7,0,0,1-.246.89,1.869,1.869,0,0,1-.644.645A1.684,1.684,0,0,1,221.638.17ZM231.7.277a6.229,6.229,0,0,1-3.4-.9,5.912,5.912,0,0,1-2.189-2.489,8.288,8.288,0,0,1-.765-3.641,8.219,8.219,0,0,1,.783-3.673,6.011,6.011,0,0,1,2.2-2.489,6.123,6.123,0,0,1,3.342-.9,6.447,6.447,0,0,1,2.769.571,5.027,5.027,0,0,1,1.968,1.6,4.867,4.867,0,0,1,.895,2.409h-2.585a3.087,3.087,0,0,0-.972-1.652,2.906,2.906,0,0,0-2.032-.692,3.3,3.3,0,0,0-1.939.581,3.786,3.786,0,0,0-1.293,1.649,6.338,6.338,0,0,0-.462,2.528,6.64,6.64,0,0,0,.454,2.574,3.8,3.8,0,0,0,1.285,1.678,3.278,3.278,0,0,0,1.953.592,3.315,3.315,0,0,0,1.378-.278,2.778,2.778,0,0,0,1.038-.8,3.06,3.06,0,0,0,.589-1.263h2.585a5.072,5.072,0,0,1-.865,2.364A4.963,4.963,0,0,1,234.52-.32,6.275,6.275,0,0,1,231.7.277Zm13.2,0a6.253,6.253,0,0,1-3.349-.88,5.936,5.936,0,0,1-2.218-2.461,8.157,8.157,0,0,1-.79-3.69,8.236,8.236,0,0,1,.79-3.712,5.926,5.926,0,0,1,2.218-2.468,6.253,6.253,0,0,1,3.349-.88,6.253,6.253,0,0,1,3.349.88,5.926,5.926,0,0,1,2.218,2.468,8.236,8.236,0,0,1,.79,3.712,8.157,8.157,0,0,1-.79,3.69A5.935,5.935,0,0,1,248.25-.6,6.253,6.253,0,0,1,244.9.277Zm.007-2.23a3.174,3.174,0,0,0,2.061-.659,3.916,3.916,0,0,0,1.213-1.751,6.962,6.962,0,0,0,.4-2.4,7.021,7.021,0,0,0-.4-2.407,3.961,3.961,0,0,0-1.213-1.764,3.152,3.152,0,0,0-2.061-.666,3.177,3.177,0,0,0-2.072.666,3.949,3.949,0,0,0-1.216,1.764,7.021,7.021,0,0,0-.4,2.407,6.962,6.962,0,0,0,.4,2.4,3.9,3.9,0,0,0,1.216,1.751A3.2,3.2,0,0,0,244.908-1.953ZM253.212,0V-13.636h2.55v2.223h.17a3.554,3.554,0,0,1,1.392-1.765,4.116,4.116,0,0,1,2.315-.636,3.958,3.958,0,0,1,2.3.638,3.77,3.77,0,0,1,1.376,1.762h.142a3.862,3.862,0,0,1,1.552-1.748,4.761,4.761,0,0,1,2.539-.653,4.119,4.119,0,0,1,3.03,1.165,4.743,4.743,0,0,1,1.174,3.509V0h-2.656V-8.892a2.461,2.461,0,0,0-.751-2.007,2.733,2.733,0,0,0-1.8-.621,2.589,2.589,0,0,0-2.022.795,2.91,2.91,0,0,0-.72,2.032V0h-2.642V-9.062a2.372,2.372,0,0,0-.694-1.784,2.474,2.474,0,0,0-1.8-.674,2.6,2.6,0,0,0-1.392.394,2.894,2.894,0,0,0-1.022,1.095,3.317,3.317,0,0,0-.384,1.622V0Z" transform="translate(699.265 634.369)" fill="#64728c"/>
    <path id="Path_75761" data-name="Path 75761" d="M1.783,0V-13.636h2.55v2.223H4.5a3.554,3.554,0,0,1,1.392-1.765,4.116,4.116,0,0,1,2.315-.636,3.957,3.957,0,0,1,2.3.638,3.77,3.77,0,0,1,1.376,1.762h.142a3.862,3.862,0,0,1,1.552-1.748,4.761,4.761,0,0,1,2.539-.653,4.119,4.119,0,0,1,3.03,1.165A4.743,4.743,0,0,1,20.32-9.141V0H17.663V-8.892a2.461,2.461,0,0,0-.751-2.007,2.733,2.733,0,0,0-1.8-.621,2.589,2.589,0,0,0-2.022.795,2.91,2.91,0,0,0-.72,2.032V0H9.73V-9.062a2.372,2.372,0,0,0-.694-1.784,2.474,2.474,0,0,0-1.8-.674,2.6,2.6,0,0,0-1.392.394,2.9,2.9,0,0,0-1.022,1.095,3.317,3.317,0,0,0-.384,1.622V0ZM28.616.277A6.253,6.253,0,0,1,25.268-.6,5.935,5.935,0,0,1,23.05-3.064a8.157,8.157,0,0,1-.79-3.69,8.236,8.236,0,0,1,.79-3.712,5.926,5.926,0,0,1,2.218-2.468,6.253,6.253,0,0,1,3.349-.88,6.253,6.253,0,0,1,3.349.88,5.926,5.926,0,0,1,2.218,2.468,8.236,8.236,0,0,1,.79,3.712,8.157,8.157,0,0,1-.79,3.69A5.936,5.936,0,0,1,31.965-.6,6.253,6.253,0,0,1,28.616.277Zm.007-2.23a3.174,3.174,0,0,0,2.061-.659A3.917,3.917,0,0,0,31.9-4.363a6.962,6.962,0,0,0,.4-2.4,7.021,7.021,0,0,0-.4-2.407,3.962,3.962,0,0,0-1.213-1.764,3.152,3.152,0,0,0-2.061-.666,3.177,3.177,0,0,0-2.072.666,3.949,3.949,0,0,0-1.216,1.764,7.021,7.021,0,0,0-.4,2.407,6.962,6.962,0,0,0,.4,2.4,3.9,3.9,0,0,0,1.216,1.751A3.2,3.2,0,0,0,28.624-1.953ZM39.584-8.1V0H36.928V-13.636h2.55v2.223h.17a3.886,3.886,0,0,1,1.478-1.745,4.57,4.57,0,0,1,2.542-.655,4.929,4.929,0,0,1,2.442.583A3.979,3.979,0,0,1,47.735-11.5a6.207,6.207,0,0,1,.578,2.832V0H45.656V-8.352a3.292,3.292,0,0,0-.77-2.324,2.743,2.743,0,0,0-2.121-.836,3.314,3.314,0,0,0-1.641.4A2.83,2.83,0,0,0,40-9.948,3.882,3.882,0,0,0,39.584-8.1ZM56.744.277A6.651,6.651,0,0,1,53.276-.59a5.762,5.762,0,0,1-2.239-2.443,8.2,8.2,0,0,1-.784-3.692,8.286,8.286,0,0,1,.785-3.7,6.021,6.021,0,0,1,2.2-2.495,6.061,6.061,0,0,1,3.315-.9,6.716,6.716,0,0,1,2.243.38,5.378,5.378,0,0,1,1.941,1.2,5.687,5.687,0,0,1,1.36,2.121,8.818,8.818,0,0,1,.5,3.155v.937H51.751V-8.011H59.99a3.975,3.975,0,0,0-.425-1.854,3.211,3.211,0,0,0-1.191-1.284,3.38,3.38,0,0,0-1.8-.47,3.463,3.463,0,0,0-1.948.544,3.692,3.692,0,0,0-1.278,1.421,4.128,4.128,0,0,0-.454,1.9v1.548a5.11,5.11,0,0,0,.485,2.326A3.422,3.422,0,0,0,54.734-2.42a3.989,3.989,0,0,0,2.031.5,4.174,4.174,0,0,0,1.382-.217,2.9,2.9,0,0,0,1.072-.651,2.868,2.868,0,0,0,.692-1.079l2.514.455a4.544,4.544,0,0,1-1.078,1.938A5.23,5.23,0,0,1,59.4-.182,7.236,7.236,0,0,1,56.744.277Zm9.071,4.8a5.765,5.765,0,0,1-1.081-.093,3.54,3.54,0,0,1-.73-.2l.639-2.173a3.147,3.147,0,0,0,1.836.045,2.432,2.432,0,0,0,1.246-1.579l.334-.9L63.067-13.636h2.841L69.359-3.054H69.5L72.96-13.636l2.862.028L70.183,1.818a6.047,6.047,0,0,1-.99,1.784,3.934,3.934,0,0,1-1.439,1.1A4.7,4.7,0,0,1,65.815,5.082ZM77.315,0V-13.636h2.55v2.223h.17a3.554,3.554,0,0,1,1.392-1.765,4.116,4.116,0,0,1,2.315-.636,3.957,3.957,0,0,1,2.3.638,3.77,3.77,0,0,1,1.376,1.762h.142a3.862,3.862,0,0,1,1.552-1.748,4.761,4.761,0,0,1,2.539-.653,4.119,4.119,0,0,1,3.03,1.165,4.743,4.743,0,0,1,1.175,3.509V0H93.2V-8.892a2.461,2.461,0,0,0-.751-2.007,2.733,2.733,0,0,0-1.8-.621,2.589,2.589,0,0,0-2.022.795,2.91,2.91,0,0,0-.72,2.032V0H85.263V-9.062a2.372,2.372,0,0,0-.694-1.784,2.474,2.474,0,0,0-1.8-.674,2.6,2.6,0,0,0-1.392.394,2.9,2.9,0,0,0-1.022,1.095,3.317,3.317,0,0,0-.384,1.622V0Zm25.058.3a5.546,5.546,0,0,1-2.343-.48,3.88,3.88,0,0,1-1.656-1.405,4.015,4.015,0,0,1-.611-2.262,3.668,3.668,0,0,1,.446-1.906,3.292,3.292,0,0,1,1.2-1.18,6.219,6.219,0,0,1,1.686-.655,16.964,16.964,0,0,1,1.9-.336q1.223-.146,1.984-.239a2.947,2.947,0,0,0,1.111-.3.746.746,0,0,0,.35-.693v-.064a2.4,2.4,0,0,0-.653-1.8,2.666,2.666,0,0,0-1.939-.639,3.4,3.4,0,0,0-2.11.587,3.181,3.181,0,0,0-1.065,1.309l-2.493-.568a4.821,4.821,0,0,1,1.3-2.011,5.278,5.278,0,0,1,1.975-1.119,7.824,7.824,0,0,1,2.351-.351,8.468,8.468,0,0,1,1.737.193,5.257,5.257,0,0,1,1.724.7,3.817,3.817,0,0,1,1.318,1.442,5.035,5.035,0,0,1,.512,2.426V0h-2.592V-1.861H106.4a3.756,3.756,0,0,1-.766,1.007,4.051,4.051,0,0,1-1.323.826A5.169,5.169,0,0,1,102.374.3Zm.575-2.124a3.829,3.829,0,0,0,1.89-.437,3.1,3.1,0,0,0,1.2-1.142,2.935,2.935,0,0,0,.414-1.511V-6.676a1.342,1.342,0,0,1-.548.261,8.183,8.183,0,0,1-.916.2q-.514.087-1,.151l-.819.108a6.867,6.867,0,0,0-1.4.331,2.4,2.4,0,0,0-1.016.659,1.664,1.664,0,0,0-.379,1.141,1.7,1.7,0,0,0,.73,1.491A3.192,3.192,0,0,0,102.949-1.825ZM114.293-8.1V0h-2.656V-13.636h2.55v2.223h.17a3.886,3.886,0,0,1,1.478-1.745,4.57,4.57,0,0,1,2.542-.655,4.929,4.929,0,0,1,2.442.583,3.979,3.979,0,0,1,1.625,1.727,6.207,6.207,0,0,1,.578,2.832V0h-2.656V-8.352a3.292,3.292,0,0,0-.77-2.324,2.743,2.743,0,0,0-2.121-.836,3.314,3.314,0,0,0-1.642.4A2.83,2.83,0,0,0,114.7-9.948,3.882,3.882,0,0,0,114.293-8.1ZM131.872.249a8.015,8.015,0,0,1-3.266-.631,5.518,5.518,0,0,1-2.263-1.755,4.576,4.576,0,0,1-.891-2.607h2.784a2.408,2.408,0,0,0,.548,1.4,3.186,3.186,0,0,0,1.288.914,4.705,4.705,0,0,0,1.779.323,4.569,4.569,0,0,0,1.9-.376,3.119,3.119,0,0,0,1.3-1.045,2.615,2.615,0,0,0,.469-1.548,2.83,2.83,0,0,0-.464-1.612,3.082,3.082,0,0,0-1.356-1.1,5.289,5.289,0,0,0-2.157-.4h-1.534v-2.244h1.534a4.164,4.164,0,0,0,1.784-.36,2.879,2.879,0,0,0,1.206-1.014,2.683,2.683,0,0,0,.434-1.531,2.781,2.781,0,0,0-.378-1.474,2.6,2.6,0,0,0-1.068-.98,3.5,3.5,0,0,0-1.615-.352,4.259,4.259,0,0,0-1.658.321,3.085,3.085,0,0,0-1.249.921,2.408,2.408,0,0,0-.517,1.435h-2.649a4.48,4.48,0,0,1,.873-2.6A5.565,5.565,0,0,1,128.9-17.8a7.171,7.171,0,0,1,3.034-.629,6.352,6.352,0,0,1,3.028.68,5.028,5.028,0,0,1,1.969,1.807,4.6,4.6,0,0,1,.692,2.464,3.992,3.992,0,0,1-.851,2.6,4.183,4.183,0,0,1-2.281,1.431v.142a4.425,4.425,0,0,1,2.814,1.437,4.258,4.258,0,0,1,.993,2.881,4.559,4.559,0,0,1-.834,2.694,5.664,5.664,0,0,1-2.285,1.868A7.7,7.7,0,0,1,131.872.249ZM140.638,0V-1.989L146.8-8.367q.98-1.035,1.624-1.819a6.749,6.749,0,0,0,.962-1.5,3.648,3.648,0,0,0,.319-1.507,2.833,2.833,0,0,0-.425-1.568,2.823,2.823,0,0,0-1.162-1.02,3.741,3.741,0,0,0-1.662-.36,3.469,3.469,0,0,0-1.7.4,2.77,2.77,0,0,0-1.119,1.124,3.521,3.521,0,0,0-.394,1.708h-2.614a5.447,5.447,0,0,1,.762-2.9,5.208,5.208,0,0,1,2.1-1.932,6.5,6.5,0,0,1,3.027-.689,6.467,6.467,0,0,1,3.023.679,5.177,5.177,0,0,1,2.044,1.847,4.83,4.83,0,0,1,.736,2.63,5.461,5.461,0,0,1-.375,1.982,8.652,8.652,0,0,1-1.307,2.155,36.026,36.026,0,0,1-2.6,2.873l-3.608,3.778v.135h8.182V0Zm25.321,4.943a14.655,14.655,0,0,1-4.884-.75,9.425,9.425,0,0,1-3.584-2.2,9.411,9.411,0,0,1-2.207-3.553,14.244,14.244,0,0,1-.753-4.8,13.776,13.776,0,0,1,.764-4.722,9.756,9.756,0,0,1,2.22-3.572,9.688,9.688,0,0,1,3.556-2.263,13.512,13.512,0,0,1,4.76-.785,11.738,11.738,0,0,1,4.491.8,9.361,9.361,0,0,1,3.272,2.195,9.359,9.359,0,0,1,2,3.2,10.727,10.727,0,0,1,.674,3.81,20.417,20.417,0,0,1-.177,2.741,8.849,8.849,0,0,1-.655,2.414,4.156,4.156,0,0,1-1.366,1.722,3.973,3.973,0,0,1-2.311.673,4.687,4.687,0,0,1-1.468-.181A2.981,2.981,0,0,1,169.088-1a1.909,1.909,0,0,1-.6-1.168h-.107a2.667,2.667,0,0,1-.712.973,3.6,3.6,0,0,1-1.268.712,4.87,4.87,0,0,1-1.777.218,4.846,4.846,0,0,1-2.017-.51,4.548,4.548,0,0,1-1.533-1.277,5.861,5.861,0,0,1-.97-1.938,8.679,8.679,0,0,1-.337-2.483,6.876,6.876,0,0,1,.383-2.358,5.659,5.659,0,0,1,1.042-1.8,5.138,5.138,0,0,1,1.525-1.2,5.306,5.306,0,0,1,1.823-.559,5.349,5.349,0,0,1,1.71.051,3.891,3.891,0,0,1,1.3.488,1.46,1.46,0,0,1,.652.718h.114v-.994h2.18v8.239a1.952,1.952,0,0,0,.37,1.193,1.233,1.233,0,0,0,1.05.49,1.517,1.517,0,0,0,1.269-.594,4.009,4.009,0,0,0,.652-1.831,21.3,21.3,0,0,0,.189-3.165,8.658,8.658,0,0,0-.361-2.544,7.378,7.378,0,0,0-1.059-2.166,6.954,6.954,0,0,0-1.705-1.673,7.9,7.9,0,0,0-2.3-1.079,10.121,10.121,0,0,0-2.852-.379,10.207,10.207,0,0,0-3.778.653,7.487,7.487,0,0,0-2.781,1.875,8.078,8.078,0,0,0-1.714,2.931,11.878,11.878,0,0,0-.583,3.831,11.97,11.97,0,0,0,.6,3.922A7.531,7.531,0,0,0,159.241.456a7.5,7.5,0,0,0,2.878,1.778,11.843,11.843,0,0,0,3.953.606,10.96,10.96,0,0,0,1.951-.173,17.019,17.019,0,0,0,1.708-.391q.749-.218,1.12-.352l.625,1.946a9.267,9.267,0,0,1-1.46.507,17.131,17.131,0,0,1-1.971.407A14.1,14.1,0,0,1,165.959,4.943Zm-.824-7.386A3.368,3.368,0,0,0,167-2.9,2.58,2.58,0,0,0,168.02-4.28a7.068,7.068,0,0,0,.312-2.3,5.7,5.7,0,0,0-.338-2.153,2.189,2.189,0,0,0-1.033-1.158,3.925,3.925,0,0,0-1.782-.354,2.918,2.918,0,0,0-1.709.491,3.127,3.127,0,0,0-1.078,1.325,4.526,4.526,0,0,0-.374,1.856,6.69,6.69,0,0,0,.3,2.018,3.264,3.264,0,0,0,.98,1.531A2.724,2.724,0,0,0,165.135-2.443Zm18.78,7.812a8.191,8.191,0,0,1-2.79-.423,5.434,5.434,0,0,1-1.905-1.122,4.7,4.7,0,0,1-1.1-1.515l2.28-.937a6.041,6.041,0,0,0,.646.805,3.346,3.346,0,0,0,1.1.745,4.441,4.441,0,0,0,1.8.311,4.086,4.086,0,0,0,2.5-.728,2.684,2.684,0,0,0,.985-2.312V-2.486h-.17a6.089,6.089,0,0,1-.685.97,3.746,3.746,0,0,1-1.23.921,4.591,4.591,0,0,1-2.033.388,5.619,5.619,0,0,1-2.9-.76,5.311,5.311,0,0,1-2.046-2.246,8.04,8.04,0,0,1-.754-3.663,8.574,8.574,0,0,1,.743-3.725,5.625,5.625,0,0,1,2.038-2.385,5.341,5.341,0,0,1,2.943-.829,4.309,4.309,0,0,1,2.049.422,3.848,3.848,0,0,1,1.222.982,8,8,0,0,1,.678.983h.192v-2.209h2.6V.305a4.745,4.745,0,0,1-.814,2.859,4.806,4.806,0,0,1-2.206,1.663A8.576,8.576,0,0,1,183.915,5.369Zm-.021-7.777a3.371,3.371,0,0,0,1.936-.537,3.34,3.34,0,0,0,1.207-1.545,6.332,6.332,0,0,0,.415-2.414,6.667,6.667,0,0,0-.407-2.428,3.605,3.605,0,0,0-1.2-1.635,3.181,3.181,0,0,0-1.95-.589,3.185,3.185,0,0,0-2,.617,3.729,3.729,0,0,0-1.2,1.671,6.587,6.587,0,0,0-.4,2.364,6.233,6.233,0,0,0,.409,2.35,3.473,3.473,0,0,0,1.211,1.578A3.355,3.355,0,0,0,183.894-2.408ZM192.631,0V-13.636h2.55v2.223h.17a3.554,3.554,0,0,1,1.392-1.765,4.116,4.116,0,0,1,2.315-.636,3.957,3.957,0,0,1,2.3.638,3.769,3.769,0,0,1,1.376,1.762h.142a3.862,3.862,0,0,1,1.552-1.748,4.761,4.761,0,0,1,2.539-.653,4.119,4.119,0,0,1,3.03,1.165,4.743,4.743,0,0,1,1.175,3.509V0h-2.656V-8.892a2.461,2.461,0,0,0-.751-2.007,2.733,2.733,0,0,0-1.8-.621,2.589,2.589,0,0,0-2.022.795,2.91,2.91,0,0,0-.72,2.032V0h-2.642V-9.062a2.372,2.372,0,0,0-.694-1.784,2.474,2.474,0,0,0-1.8-.674,2.6,2.6,0,0,0-1.392.394,2.9,2.9,0,0,0-1.022,1.095,3.317,3.317,0,0,0-.384,1.622V0Zm25.058.3a5.546,5.546,0,0,1-2.343-.48,3.881,3.881,0,0,1-1.656-1.405,4.015,4.015,0,0,1-.611-2.262,3.668,3.668,0,0,1,.446-1.906,3.292,3.292,0,0,1,1.2-1.18,6.219,6.219,0,0,1,1.686-.655,16.964,16.964,0,0,1,1.9-.336q1.223-.146,1.984-.239a2.947,2.947,0,0,0,1.111-.3.746.746,0,0,0,.35-.693v-.064a2.4,2.4,0,0,0-.653-1.8,2.666,2.666,0,0,0-1.939-.639,3.4,3.4,0,0,0-2.11.587,3.181,3.181,0,0,0-1.064,1.309l-2.493-.568a4.821,4.821,0,0,1,1.3-2.011,5.278,5.278,0,0,1,1.975-1.119,7.824,7.824,0,0,1,2.351-.351,8.468,8.468,0,0,1,1.737.193,5.257,5.257,0,0,1,1.724.7,3.817,3.817,0,0,1,1.318,1.442,5.035,5.035,0,0,1,.512,2.426V0h-2.592V-1.861h-.107a3.756,3.756,0,0,1-.766,1.007,4.051,4.051,0,0,1-1.323.826A5.169,5.169,0,0,1,217.689.3Zm.575-2.124a3.829,3.829,0,0,0,1.89-.437,3.1,3.1,0,0,0,1.2-1.142,2.935,2.935,0,0,0,.414-1.511V-6.676a1.342,1.342,0,0,1-.548.261,8.184,8.184,0,0,1-.916.2q-.514.087-1.005.151l-.819.108a6.867,6.867,0,0,0-1.4.331,2.4,2.4,0,0,0-1.016.659,1.664,1.664,0,0,0-.379,1.141,1.7,1.7,0,0,0,.73,1.491A3.192,3.192,0,0,0,218.264-1.825ZM226.954,0V-13.636h2.654V0Zm1.341-15.74a1.663,1.663,0,0,1-1.185-.466,1.481,1.481,0,0,1-.493-1.114,1.49,1.49,0,0,1,.493-1.123,1.663,1.663,0,0,1,1.185-.466,1.663,1.663,0,0,1,1.185.466,1.49,1.49,0,0,1,.493,1.123,1.481,1.481,0,0,1-.493,1.114A1.663,1.663,0,0,1,228.294-15.74Zm6.536-2.441V0h-2.656V-18.182ZM239.149.17a1.714,1.714,0,0,1-1.254-.521,1.7,1.7,0,0,1-.521-1.254,1.692,1.692,0,0,1,.521-1.248,1.715,1.715,0,0,1,1.254-.52,1.715,1.715,0,0,1,1.247.52,1.7,1.7,0,0,1,.528,1.248,1.7,1.7,0,0,1-.246.89,1.869,1.869,0,0,1-.644.645A1.684,1.684,0,0,1,239.149.17Zm10.065.107a6.229,6.229,0,0,1-3.4-.9,5.912,5.912,0,0,1-2.189-2.489,8.288,8.288,0,0,1-.765-3.641,8.219,8.219,0,0,1,.783-3.673,6.011,6.011,0,0,1,2.2-2.489,6.123,6.123,0,0,1,3.342-.9,6.447,6.447,0,0,1,2.769.571,5.027,5.027,0,0,1,1.968,1.6,4.867,4.867,0,0,1,.895,2.409h-2.585a3.087,3.087,0,0,0-.972-1.652,2.906,2.906,0,0,0-2.032-.692A3.3,3.3,0,0,0,247.29-11,3.786,3.786,0,0,0,246-9.346a6.338,6.338,0,0,0-.462,2.528,6.64,6.64,0,0,0,.454,2.574,3.8,3.8,0,0,0,1.285,1.678,3.278,3.278,0,0,0,1.953.592,3.315,3.315,0,0,0,1.378-.278,2.778,2.778,0,0,0,1.038-.8,3.06,3.06,0,0,0,.589-1.263h2.585a5.072,5.072,0,0,1-.865,2.364A4.963,4.963,0,0,1,252.032-.32,6.275,6.275,0,0,1,249.215.277Zm13.2,0a6.253,6.253,0,0,1-3.349-.88,5.936,5.936,0,0,1-2.218-2.461,8.157,8.157,0,0,1-.79-3.69,8.236,8.236,0,0,1,.79-3.712,5.926,5.926,0,0,1,2.218-2.468,6.253,6.253,0,0,1,3.349-.88,6.253,6.253,0,0,1,3.349.88,5.926,5.926,0,0,1,2.218,2.468,8.236,8.236,0,0,1,.79,3.712,8.157,8.157,0,0,1-.79,3.69A5.936,5.936,0,0,1,265.761-.6,6.253,6.253,0,0,1,262.412.277Zm.007-2.23a3.174,3.174,0,0,0,2.061-.659,3.917,3.917,0,0,0,1.213-1.751,6.962,6.962,0,0,0,.4-2.4,7.021,7.021,0,0,0-.4-2.407,3.962,3.962,0,0,0-1.213-1.764,3.152,3.152,0,0,0-2.061-.666,3.177,3.177,0,0,0-2.072.666,3.949,3.949,0,0,0-1.216,1.764,7.021,7.021,0,0,0-.4,2.407,6.962,6.962,0,0,0,.4,2.4,3.9,3.9,0,0,0,1.216,1.751A3.2,3.2,0,0,0,262.419-1.953ZM270.723,0V-13.636h2.55v2.223h.17a3.554,3.554,0,0,1,1.392-1.765,4.116,4.116,0,0,1,2.315-.636,3.957,3.957,0,0,1,2.3.638,3.77,3.77,0,0,1,1.376,1.762h.142a3.862,3.862,0,0,1,1.552-1.748,4.761,4.761,0,0,1,2.539-.653,4.119,4.119,0,0,1,3.03,1.165,4.743,4.743,0,0,1,1.175,3.509V0H286.6V-8.892a2.461,2.461,0,0,0-.751-2.007,2.733,2.733,0,0,0-1.8-.621,2.589,2.589,0,0,0-2.021.795,2.91,2.91,0,0,0-.72,2.032V0h-2.642V-9.062a2.372,2.372,0,0,0-.694-1.784,2.474,2.474,0,0,0-1.8-.674,2.6,2.6,0,0,0-1.392.394,2.9,2.9,0,0,0-1.022,1.095,3.317,3.317,0,0,0-.384,1.622V0Z" transform="translate(699.265 685.431)" fill="#64728c"/>
    <path id="Path_75758" data-name="Path 75758" d="M7.129-3.054v-12H9.517v12Zm-4.8-4.812v-2.388h12v2.388ZM24.291-18.182V0H21.543V-15.426h-.107L17.09-12.592V-15.22l4.531-2.962Zm11.994,7.946v2.3H28.224v-2.3ZM39.6-9.091a20.465,20.465,0,0,1,.879-6.143,18.31,18.31,0,0,1,2.566-5.176h2.433a11.2,11.2,0,0,0-1.225,2.157,20.5,20.5,0,0,0-.994,2.8,25.4,25.4,0,0,0-.666,3.152,22.026,22.026,0,0,0-.24,3.209,22.585,22.585,0,0,0,.417,4.279A23.863,23.863,0,0,0,43.9-.79a12.712,12.712,0,0,0,1.58,3.027H43.044a18.31,18.31,0,0,1-2.566-5.176A20.5,20.5,0,0,1,39.6-9.091ZM47.854,0l7.933-15.7v-.135H46.611v-2.351H58.628v2.436L50.716,0ZM67.607-18.182V0H64.858V-15.426h-.107L60.4-12.592V-15.22l4.531-2.962ZM71.528,0V-1.989l6.158-6.378q.98-1.035,1.624-1.819a6.749,6.749,0,0,0,.962-1.5,3.648,3.648,0,0,0,.319-1.507,2.833,2.833,0,0,0-.425-1.568A2.823,2.823,0,0,0,79-15.777a3.741,3.741,0,0,0-1.662-.36,3.469,3.469,0,0,0-1.7.4,2.77,2.77,0,0,0-1.119,1.124,3.521,3.521,0,0,0-.394,1.708H71.514a5.447,5.447,0,0,1,.762-2.9,5.208,5.208,0,0,1,2.1-1.932A6.5,6.5,0,0,1,77.4-18.43a6.467,6.467,0,0,1,3.023.679A5.177,5.177,0,0,1,82.465-15.9a4.83,4.83,0,0,1,.736,2.63,5.461,5.461,0,0,1-.375,1.982A8.652,8.652,0,0,1,81.52-9.137a36.029,36.029,0,0,1-2.6,2.873L75.314-2.486v.135H83.5V0ZM91-9.091a20.5,20.5,0,0,1-.879,6.152A18.31,18.31,0,0,1,87.56,2.237H85.127A11.2,11.2,0,0,0,86.352.08a20.5,20.5,0,0,0,.994-2.8,25.358,25.358,0,0,0,.666-3.156,22.117,22.117,0,0,0,.24-3.214,22.54,22.54,0,0,0-.417-4.27,23.863,23.863,0,0,0-1.127-4.022,12.713,12.713,0,0,0-1.58-3.027H87.56a18.31,18.31,0,0,1,2.566,5.176A20.465,20.465,0,0,1,91-9.091ZM99.928,0V-1.989l6.158-6.378q.98-1.035,1.624-1.819a6.749,6.749,0,0,0,.962-1.5,3.648,3.648,0,0,0,.319-1.507,2.833,2.833,0,0,0-.425-1.568,2.823,2.823,0,0,0-1.162-1.02,3.741,3.741,0,0,0-1.662-.36,3.469,3.469,0,0,0-1.7.4,2.77,2.77,0,0,0-1.119,1.124,3.521,3.521,0,0,0-.394,1.708H99.913a5.447,5.447,0,0,1,.762-2.9,5.208,5.208,0,0,1,2.1-1.932,6.5,6.5,0,0,1,3.027-.689,6.467,6.467,0,0,1,3.023.679,5.177,5.177,0,0,1,2.044,1.847,4.83,4.83,0,0,1,.736,2.63,5.461,5.461,0,0,1-.375,1.982,8.652,8.652,0,0,1-1.307,2.155,36.029,36.029,0,0,1-2.6,2.873l-3.608,3.778v.135h8.182V0Zm20.335.249A6.752,6.752,0,0,1,117.268-.4a5.421,5.421,0,0,1-2.115-1.773,4.737,4.737,0,0,1-.85-2.575h2.663a2.693,2.693,0,0,0,1.045,1.93,3.484,3.484,0,0,0,2.25.755,3.575,3.575,0,0,0,1.861-.484,3.447,3.447,0,0,0,1.282-1.338,3.968,3.968,0,0,0,.465-1.942,4,4,0,0,0-.479-1.979,3.572,3.572,0,0,0-1.321-1.365,3.744,3.744,0,0,0-1.921-.505,4.977,4.977,0,0,0-1.659.278,3.9,3.9,0,0,0-1.352.745l-2.514-.369,1.023-9.162h10v2.351h-7.713l-.582,5.092h.107a4.149,4.149,0,0,1,1.417-.864,5.181,5.181,0,0,1,1.893-.344,5.617,5.617,0,0,1,2.962.787,5.618,5.618,0,0,1,2.051,2.153,6.386,6.386,0,0,1,.747,3.126,6.158,6.158,0,0,1-.8,3.156,5.8,5.8,0,0,1-2.219,2.179A6.512,6.512,0,0,1,120.263.249Zm14.646,0a8.13,8.13,0,0,1-3.367-.659,5.507,5.507,0,0,1-2.287-1.813,4.376,4.376,0,0,1-.816-2.628,4.636,4.636,0,0,1,.475-2.12,4.664,4.664,0,0,1,1.317-1.624,4.122,4.122,0,0,1,1.866-.83v-.114a3.647,3.647,0,0,1-2.172-1.451,4.263,4.263,0,0,1-.811-2.59,4.27,4.27,0,0,1,.742-2.49,5.131,5.131,0,0,1,2.061-1.729,6.81,6.81,0,0,1,2.992-.632,6.746,6.746,0,0,1,2.974.633,5.169,5.169,0,0,1,2.061,1.729,4.334,4.334,0,0,1,.76,2.489,4.314,4.314,0,0,1-.831,2.591,3.667,3.667,0,0,1-2.152,1.451v.114a4.046,4.046,0,0,1,1.847.83,4.8,4.8,0,0,1,1.314,1.624,4.706,4.706,0,0,1,.5,2.12,4.44,4.44,0,0,1-.834,2.628A5.541,5.541,0,0,1,138.262-.41,8.062,8.062,0,0,1,134.909.249Zm0-2.244a4.674,4.674,0,0,0,1.953-.376,2.972,2.972,0,0,0,1.279-1.059,2.847,2.847,0,0,0,.461-1.59,3.02,3.02,0,0,0-.489-1.68A3.336,3.336,0,0,0,136.8-7.849a4.147,4.147,0,0,0-1.893-.418A4.209,4.209,0,0,0,133-7.849,3.3,3.3,0,0,0,131.687-6.7a2.952,2.952,0,0,0-.471,1.68,2.777,2.777,0,0,0,.443,1.589,2.949,2.949,0,0,0,1.284,1.059A4.734,4.734,0,0,0,134.909-2Zm0-8.459a3.449,3.449,0,0,0,1.609-.364,2.77,2.77,0,0,0,1.106-1.016,2.873,2.873,0,0,0,.41-1.518,2.815,2.815,0,0,0-.4-1.491,2.676,2.676,0,0,0-1.1-.991,3.569,3.569,0,0,0-1.626-.352,3.649,3.649,0,0,0-1.647.352,2.618,2.618,0,0,0-1.1.991,2.762,2.762,0,0,0-.382,1.491,2.8,2.8,0,0,0,.392,1.517,2.746,2.746,0,0,0,1.107,1.016A3.5,3.5,0,0,0,134.909-10.454Zm16.71.218v2.3h-8.061v-2.3ZM160.452.3a5.867,5.867,0,0,1-3.59-1.106,6.878,6.878,0,0,1-2.282-3.2,14.384,14.384,0,0,1-.79-5.071,14.276,14.276,0,0,1,.8-5.05,6.877,6.877,0,0,1,2.287-3.194,5.854,5.854,0,0,1,3.579-1.1,5.855,5.855,0,0,1,3.58,1.1,6.886,6.886,0,0,1,2.289,3.2,14.206,14.206,0,0,1,.794,5.048,14.423,14.423,0,0,1-.792,5.075,6.874,6.874,0,0,1-2.281,3.2A5.859,5.859,0,0,1,160.452.3Zm0-2.365a3.212,3.212,0,0,0,2.891-1.8,10.532,10.532,0,0,0,1.043-5.216,13.32,13.32,0,0,0-.476-3.83,5.213,5.213,0,0,0-1.357-2.377,3,3,0,0,0-2.1-.811,3.209,3.209,0,0,0-2.882,1.811,10.537,10.537,0,0,0-1.053,5.206,13.416,13.416,0,0,0,.471,3.838,5.153,5.153,0,0,0,1.354,2.373A3.019,3.019,0,0,0,160.452-2.067ZM175.624.249a7.227,7.227,0,0,1-2.392-.441A5.608,5.608,0,0,1,171.1-1.614a7.089,7.089,0,0,1-1.531-2.674,13.176,13.176,0,0,1-.574-4.192,17.251,17.251,0,0,1,.477-4.244,9.533,9.533,0,0,1,1.373-3.138A6.093,6.093,0,0,1,173-17.808a6.049,6.049,0,0,1,2.853-.665,6.239,6.239,0,0,1,2.883.645,5.5,5.5,0,0,1,2.046,1.776,5.939,5.939,0,0,1,.993,2.592h-2.706a3.532,3.532,0,0,0-1.093-1.89,3.087,3.087,0,0,0-2.124-.724,3.5,3.5,0,0,0-3.115,1.745,9.093,9.093,0,0,0-1.125,4.874h.135a4.939,4.939,0,0,1,1.158-1.319,5.243,5.243,0,0,1,1.545-.847,5.442,5.442,0,0,1,1.807-.3,5.462,5.462,0,0,1,2.865.771,5.689,5.689,0,0,1,2.048,2.12,6.151,6.151,0,0,1,.762,3.089,6.333,6.333,0,0,1-.787,3.152,5.8,5.8,0,0,1-2.208,2.23A6.425,6.425,0,0,1,175.624.249Zm-.007-2.308a3.47,3.47,0,0,0,1.871-.515A3.716,3.716,0,0,0,178.8-3.96a3.937,3.937,0,0,0,.479-1.942,3.926,3.926,0,0,0-.464-1.911,3.612,3.612,0,0,0-1.28-1.366,3.434,3.434,0,0,0-1.856-.508,3.5,3.5,0,0,0-1.457.3,3.718,3.718,0,0,0-1.178.836,3.983,3.983,0,0,0-.791,1.22,3.764,3.764,0,0,0-.289,1.453,3.893,3.893,0,0,0,.476,1.886,3.78,3.78,0,0,0,1.3,1.4A3.415,3.415,0,0,0,175.617-2.06Zm14.7,2.308a8.13,8.13,0,0,1-3.367-.659,5.507,5.507,0,0,1-2.287-1.813,4.376,4.376,0,0,1-.816-2.628,4.636,4.636,0,0,1,.475-2.12,4.664,4.664,0,0,1,1.317-1.624,4.122,4.122,0,0,1,1.866-.83v-.114a3.647,3.647,0,0,1-2.172-1.451,4.263,4.263,0,0,1-.811-2.59,4.27,4.27,0,0,1,.742-2.49,5.131,5.131,0,0,1,2.061-1.729,6.81,6.81,0,0,1,2.992-.632,6.746,6.746,0,0,1,2.974.633,5.169,5.169,0,0,1,2.061,1.729,4.334,4.334,0,0,1,.76,2.489,4.314,4.314,0,0,1-.831,2.591,3.667,3.667,0,0,1-2.152,1.451v.114a4.046,4.046,0,0,1,1.847.83,4.8,4.8,0,0,1,1.314,1.624,4.706,4.706,0,0,1,.5,2.12,4.44,4.44,0,0,1-.834,2.628A5.541,5.541,0,0,1,193.666-.41,8.062,8.062,0,0,1,190.313.249Zm0-2.244a4.674,4.674,0,0,0,1.953-.376,2.972,2.972,0,0,0,1.279-1.059,2.847,2.847,0,0,0,.461-1.59,3.02,3.02,0,0,0-.489-1.68,3.336,3.336,0,0,0-1.311-1.148,4.147,4.147,0,0,0-1.893-.418,4.209,4.209,0,0,0-1.906.418A3.3,3.3,0,0,0,187.091-6.7a2.952,2.952,0,0,0-.471,1.68,2.777,2.777,0,0,0,.443,1.589,2.949,2.949,0,0,0,1.284,1.059A4.734,4.734,0,0,0,190.313-2Zm0-8.459a3.449,3.449,0,0,0,1.609-.364,2.77,2.77,0,0,0,1.106-1.016,2.873,2.873,0,0,0,.41-1.518,2.815,2.815,0,0,0-.4-1.491,2.676,2.676,0,0,0-1.1-.991,3.569,3.569,0,0,0-1.626-.352,3.649,3.649,0,0,0-1.647.352,2.618,2.618,0,0,0-1.1.991,2.762,2.762,0,0,0-.382,1.491,2.8,2.8,0,0,0,.392,1.517,2.746,2.746,0,0,0,1.107,1.016A3.5,3.5,0,0,0,190.313-10.454ZM198.95,0V-1.989l6.158-6.378q.98-1.035,1.624-1.819a6.749,6.749,0,0,0,.962-1.5,3.648,3.648,0,0,0,.319-1.507,2.833,2.833,0,0,0-.425-1.568,2.823,2.823,0,0,0-1.162-1.02,3.741,3.741,0,0,0-1.662-.36,3.469,3.469,0,0,0-1.7.4,2.77,2.77,0,0,0-1.119,1.124,3.521,3.521,0,0,0-.394,1.708h-2.614a5.447,5.447,0,0,1,.762-2.9,5.208,5.208,0,0,1,2.1-1.932,6.5,6.5,0,0,1,3.027-.689,6.467,6.467,0,0,1,3.023.679,5.177,5.177,0,0,1,2.044,1.847,4.83,4.83,0,0,1,.736,2.63,5.461,5.461,0,0,1-.375,1.982,8.652,8.652,0,0,1-1.307,2.155,36.026,36.026,0,0,1-2.6,2.873l-3.608,3.778v.135h8.182V0Z" transform="translate(699.265 759.621)" fill="#64728c"/>
    <path id="Path_75759" data-name="Path 75759" d="M7.129-3.054v-12H9.517v12Zm-4.8-4.812v-2.388h12v2.388ZM24.291-18.182V0H21.543V-15.426h-.107L17.09-12.592V-15.22l4.531-2.962Zm11.994,7.946v2.3H28.224v-2.3ZM39.6-9.091a20.465,20.465,0,0,1,.879-6.143,18.31,18.31,0,0,1,2.566-5.176h2.433a11.2,11.2,0,0,0-1.225,2.157,20.5,20.5,0,0,0-.994,2.8,25.4,25.4,0,0,0-.666,3.152,22.026,22.026,0,0,0-.24,3.209,22.585,22.585,0,0,0,.417,4.279A23.863,23.863,0,0,0,43.9-.79a12.712,12.712,0,0,0,1.58,3.027H43.044a18.31,18.31,0,0,1-2.566-5.176A20.5,20.5,0,0,1,39.6-9.091ZM53.571.249A8.015,8.015,0,0,1,50.3-.383a5.518,5.518,0,0,1-2.263-1.755,4.576,4.576,0,0,1-.891-2.607h2.784a2.408,2.408,0,0,0,.548,1.4,3.186,3.186,0,0,0,1.288.914,4.705,4.705,0,0,0,1.779.323,4.569,4.569,0,0,0,1.9-.376,3.119,3.119,0,0,0,1.3-1.045,2.615,2.615,0,0,0,.469-1.548,2.83,2.83,0,0,0-.464-1.612,3.082,3.082,0,0,0-1.356-1.1,5.289,5.289,0,0,0-2.157-.4H51.71v-2.244h1.534a4.164,4.164,0,0,0,1.784-.36A2.879,2.879,0,0,0,56.234-11.8a2.683,2.683,0,0,0,.434-1.531,2.781,2.781,0,0,0-.378-1.474,2.6,2.6,0,0,0-1.068-.98,3.5,3.5,0,0,0-1.615-.352,4.259,4.259,0,0,0-1.658.321,3.085,3.085,0,0,0-1.249.921,2.408,2.408,0,0,0-.517,1.435H47.534a4.48,4.48,0,0,1,.873-2.6A5.564,5.564,0,0,1,50.6-17.8a7.171,7.171,0,0,1,3.034-.629,6.352,6.352,0,0,1,3.028.68,5.028,5.028,0,0,1,1.969,1.807,4.6,4.6,0,0,1,.692,2.464,3.992,3.992,0,0,1-.851,2.6,4.183,4.183,0,0,1-2.281,1.431v.142a4.425,4.425,0,0,1,2.814,1.437A4.258,4.258,0,0,1,60-4.993,4.559,4.559,0,0,1,59.165-2.3,5.664,5.664,0,0,1,56.88-.431,7.7,7.7,0,0,1,53.571.249Zm15.662-18.43V0H66.484V-15.426h-.107l-4.347,2.834V-15.22l4.531-2.962ZM73.773,0l7.933-15.7v-.135H72.53v-2.351H84.547v2.436L76.635,0Zm18-9.091a20.5,20.5,0,0,1-.879,6.152,18.31,18.31,0,0,1-2.566,5.176H85.894A11.2,11.2,0,0,0,87.119.08a20.5,20.5,0,0,0,.994-2.8,25.358,25.358,0,0,0,.666-3.156,22.117,22.117,0,0,0,.24-3.214,22.54,22.54,0,0,0-.417-4.27,23.863,23.863,0,0,0-1.127-4.022,12.713,12.713,0,0,0-1.58-3.027h2.433a18.31,18.31,0,0,1,2.566,5.176A20.465,20.465,0,0,1,91.771-9.091ZM106.838.249a8.13,8.13,0,0,1-3.367-.659,5.507,5.507,0,0,1-2.287-1.813,4.376,4.376,0,0,1-.816-2.628,4.636,4.636,0,0,1,.475-2.12,4.664,4.664,0,0,1,1.317-1.624,4.122,4.122,0,0,1,1.866-.83v-.114a3.647,3.647,0,0,1-2.172-1.451,4.263,4.263,0,0,1-.811-2.59,4.27,4.27,0,0,1,.742-2.49,5.131,5.131,0,0,1,2.061-1.729,6.81,6.81,0,0,1,2.992-.632,6.746,6.746,0,0,1,2.974.633,5.169,5.169,0,0,1,2.061,1.729,4.334,4.334,0,0,1,.76,2.489,4.314,4.314,0,0,1-.831,2.591,3.667,3.667,0,0,1-2.152,1.451v.114a4.046,4.046,0,0,1,1.847.83,4.8,4.8,0,0,1,1.314,1.624,4.706,4.706,0,0,1,.5,2.12,4.44,4.44,0,0,1-.834,2.628A5.541,5.541,0,0,1,110.191-.41,8.062,8.062,0,0,1,106.838.249Zm0-2.244a4.674,4.674,0,0,0,1.953-.376,2.972,2.972,0,0,0,1.279-1.059,2.847,2.847,0,0,0,.461-1.59,3.02,3.02,0,0,0-.489-1.68,3.336,3.336,0,0,0-1.311-1.148,4.147,4.147,0,0,0-1.893-.418,4.209,4.209,0,0,0-1.906.418A3.3,3.3,0,0,0,103.616-6.7a2.952,2.952,0,0,0-.471,1.68,2.777,2.777,0,0,0,.443,1.589,2.949,2.949,0,0,0,1.284,1.059A4.734,4.734,0,0,0,106.838-2Zm0-8.459a3.449,3.449,0,0,0,1.609-.364,2.77,2.77,0,0,0,1.106-1.016,2.873,2.873,0,0,0,.41-1.518,2.815,2.815,0,0,0-.4-1.491,2.676,2.676,0,0,0-1.1-.991,3.569,3.569,0,0,0-1.626-.352,3.649,3.649,0,0,0-1.647.352,2.618,2.618,0,0,0-1.1.991,2.762,2.762,0,0,0-.382,1.491,2.8,2.8,0,0,0,.392,1.517,2.746,2.746,0,0,0,1.107,1.016A3.5,3.5,0,0,0,106.838-10.454Zm14.689-8.018a6.994,6.994,0,0,1,2.392.441,5.7,5.7,0,0,1,2.137,1.425,7.054,7.054,0,0,1,1.531,2.67,13.175,13.175,0,0,1,.574,4.192,17.129,17.129,0,0,1-.48,4.244,9.643,9.643,0,0,1-1.372,3.138,6.056,6.056,0,0,1-2.161,1.945,6.053,6.053,0,0,1-2.855.665,6.278,6.278,0,0,1-2.885-.641,5.484,5.484,0,0,1-2.049-1.772,5.863,5.863,0,0,1-.989-2.6h2.706a3.5,3.5,0,0,0,1.09,1.89,3.1,3.1,0,0,0,2.127.724,3.517,3.517,0,0,0,3.117-1.741,8.992,8.992,0,0,0,1.123-4.878H125.4a5.064,5.064,0,0,1-1.154,1.316,5.15,5.15,0,0,1-1.541.85,5.465,5.465,0,0,1-1.815.3,5.487,5.487,0,0,1-2.868-.77,5.642,5.642,0,0,1-2.049-2.12,6.178,6.178,0,0,1-.758-3.09A6.336,6.336,0,0,1,116-15.434a5.812,5.812,0,0,1,2.2-2.23A6.415,6.415,0,0,1,121.527-18.473Zm.007,2.308a3.47,3.47,0,0,0-1.871.515,3.716,3.716,0,0,0-1.309,1.385,3.937,3.937,0,0,0-.479,1.942,3.942,3.942,0,0,0,.464,1.918,3.583,3.583,0,0,0,1.28,1.364,3.453,3.453,0,0,0,1.856.5,3.487,3.487,0,0,0,1.457-.305,3.709,3.709,0,0,0,1.178-.84A4.016,4.016,0,0,0,124.9-10.9a3.746,3.746,0,0,0,.289-1.446,3.893,3.893,0,0,0-.476-1.886,3.78,3.78,0,0,0-1.3-1.4A3.415,3.415,0,0,0,121.534-16.165Zm15.733-2.017V0h-2.749V-15.426h-.107l-4.347,2.834V-15.22l4.531-2.962Zm11.994,7.946v2.3H141.2v-2.3ZM151.759,0l7.933-15.7v-.135h-9.176v-2.351h12.017v2.436L154.621,0ZM165.73,0l7.933-15.7v-.135h-9.176v-2.351H176.5v2.436L168.592,0Zm18.645.249a8.13,8.13,0,0,1-3.367-.659,5.507,5.507,0,0,1-2.287-1.813,4.376,4.376,0,0,1-.816-2.628,4.636,4.636,0,0,1,.475-2.12A4.664,4.664,0,0,1,179.7-8.595a4.122,4.122,0,0,1,1.866-.83v-.114a3.647,3.647,0,0,1-2.172-1.451,4.263,4.263,0,0,1-.811-2.59,4.27,4.27,0,0,1,.742-2.49,5.131,5.131,0,0,1,2.061-1.729,6.81,6.81,0,0,1,2.992-.632,6.746,6.746,0,0,1,2.974.633,5.169,5.169,0,0,1,2.061,1.729,4.334,4.334,0,0,1,.76,2.489,4.314,4.314,0,0,1-.831,2.591,3.667,3.667,0,0,1-2.152,1.451v.114a4.046,4.046,0,0,1,1.847.83,4.8,4.8,0,0,1,1.314,1.624,4.706,4.706,0,0,1,.5,2.12,4.44,4.44,0,0,1-.834,2.628A5.541,5.541,0,0,1,187.728-.41,8.062,8.062,0,0,1,184.375.249Zm0-2.244a4.674,4.674,0,0,0,1.953-.376,2.972,2.972,0,0,0,1.279-1.059,2.847,2.847,0,0,0,.461-1.59,3.02,3.02,0,0,0-.489-1.68,3.336,3.336,0,0,0-1.311-1.148,4.147,4.147,0,0,0-1.893-.418,4.209,4.209,0,0,0-1.906.418A3.3,3.3,0,0,0,181.153-6.7a2.952,2.952,0,0,0-.471,1.68,2.777,2.777,0,0,0,.443,1.589,2.949,2.949,0,0,0,1.284,1.059A4.734,4.734,0,0,0,184.375-2Zm0-8.459a3.449,3.449,0,0,0,1.609-.364,2.77,2.77,0,0,0,1.106-1.016,2.873,2.873,0,0,0,.41-1.518,2.815,2.815,0,0,0-.4-1.491,2.676,2.676,0,0,0-1.1-.991,3.569,3.569,0,0,0-1.626-.352,3.649,3.649,0,0,0-1.647.352,2.618,2.618,0,0,0-1.1.991,2.762,2.762,0,0,0-.382,1.491,2.8,2.8,0,0,0,.392,1.517,2.746,2.746,0,0,0,1.107,1.016A3.5,3.5,0,0,0,184.375-10.454Zm15.534-7.727V0h-2.749V-15.426h-.107l-4.347,2.834V-15.22l4.531-2.962Z" transform="translate(699.265 812.386)" fill="#64728c"/>
    <g id="Group_22467" data-name="Group 22467" transform="translate(561.262 605.858)">
      <rect id="Rectangle_8927" data-name="Rectangle 8927" width="73" height="36" rx="5" transform="translate(0 3)" fill="#f6f6f6"/>
      <text id="Work" transform="translate(10 29)" fill="#38455d" font-size="22" font-family="Helvetica" letter-spacing="-0.032em"><tspan x="0" y="0">Work</tspan></text>
    </g>
    <g id="Group_22468" data-name="Group 22468" transform="translate(561.262 730.111)">
      <rect id="Rectangle_8928" data-name="Rectangle 8928" width="73" height="36" rx="5" transform="translate(0 5)" fill="#f6f6f6"/>
      <text id="Work-2" data-name="Work" transform="translate(10 31)" fill="#38455d" font-size="22" font-family="Helvetica" letter-spacing="-0.032em"><tspan x="0" y="0">Work</tspan></text>
    </g>
    <g id="Group_22469" data-name="Group 22469" transform="translate(561.262 656.921)">
      <rect id="Rectangle_8929" data-name="Rectangle 8929" width="108" height="36" rx="5" transform="translate(0 3)" fill="#f6f6f6"/>
      <text id="Personal" transform="translate(10 29)" fill="#38455d" font-size="22" font-family="Helvetica" letter-spacing="-0.032em"><tspan x="0" y="0">Personal</tspan></text>
    </g>
    <g id="Group_22470" data-name="Group 22470" transform="translate(561.262 782.876)">
      <rect id="Rectangle_8930" data-name="Rectangle 8930" width="108" height="36" rx="5" transform="translate(0 3)" fill="#f6f6f6"/>
      <text id="Personal-2" data-name="Personal" transform="translate(10 29)" fill="#38455d" font-size="22" font-family="Helvetica" letter-spacing="-0.032em"><tspan x="0" y="0">Personal</tspan></text>
    </g>
    <rect id="Rectangle_9910" data-name="Rectangle 9910" width="111" height="111" rx="10" transform="translate(562 392)" fill="#efa035"/>
  </g>
</svg>
