<svg xmlns="http://www.w3.org/2000/svg" xmlns:xlink="http://www.w3.org/1999/xlink" width="1080" height="1080" viewBox="0 0 1080 1080">
  <defs>
    <clipPath id="clip-path">
      <rect id="Rectangle_8906" data-name="Rectangle 8906" width="235.142" height="7.355" transform="translate(0 0)" fill="#e13019" stroke="#e13019" stroke-width="2"/>
    </clipPath>
    <clipPath id="clip-chrome-extension_5-text-yes-anywhere">
      <rect width="1080" height="1080"/>
    </clipPath>
  </defs>
  <g id="chrome-extension_5-text-yes-anywhere" clip-path="url(#clip-chrome-extension_5-text-yes-anywhere)">
    <path id="Path_48024" data-name="Path 48024" d="M49.064,13.655a1.783,1.783,0,0,0-1.61-1.5,2.108,2.108,0,0,0-1.575,1.085c-2.24,2.975-6.055,6.09-9.03,8.4A48.083,48.083,0,0,0,34.5,16.07a3.975,3.975,0,0,0-3.115-1.855,1.214,1.214,0,0,0-1.365,1.295c0,.945.525,1.05,1.12,1.4,1.54.875,2.8,5.425,3.29,7.28.28,1.05.175,1.19,1.155,1.785.14,2.94.14,5.915.49,8.855.035.385.175,1.085.175,1.575,0,.28-.07.49-.07.665A1.877,1.877,0,0,0,38,38.995a1.582,1.582,0,0,0,1.61-1.47,4.376,4.376,0,0,0-.315-1.3,12.25,12.25,0,0,1-.525-4.235c0-2.03.14-4.305.14-6.23a17.384,17.384,0,0,0-.07-1.96c5.635-4.935,8.365-7.7,8.855-8.645C48.259,14.775,49.064,14.39,49.064,13.655Zm3.08,11.48a9.115,9.115,0,0,1-2.275,1.435,17.08,17.08,0,0,1-3.185.84,9.307,9.307,0,0,1,2.485-1.715,7.027,7.027,0,0,1,2.9-.735c.14,0,.14.035.14.07S52.179,25.1,52.144,25.135Zm7.07,5.075a1.614,1.614,0,0,0-1.47-1.5c-.735,0-1.19.805-1.54,1.435-.42.49-5.215,4.34-7.56,4.34-1.925,0-3.115-2.38-3.115-4.06v-.455a17.244,17.244,0,0,0,5.74-1.365c2.835-1.19,4.97-3.99,4.97-5.04,0-.14-.14-.245-.35-.385a7.081,7.081,0,0,0-3.5-.805c-4.585,0-9.8,3.4-9.8,8.05,0,3.115,2.45,6.755,5.6,6.755,2.9,0,6.475-2.59,8.47-4.095a16.455,16.455,0,0,1,1.54-1.19A2.212,2.212,0,0,0,59.214,30.21Zm11.095,4.865c0-4.165-8.19-3.15-8.19-6.615a5.831,5.831,0,0,1,1.96-3.99c1.505-1.4,2.555-2.695,3.605-2.73a2.746,2.746,0,0,0,1.225.28,1.108,1.108,0,0,0,1.26-1.12c0-.945-1.505-1.785-2.905-1.785a2.593,2.593,0,0,0-1.715.56c-2.765,2.17-6.23,5.18-6.23,8.855,0,4.97,7.385,5.39,7.875,6.37.035.805-4.445,2.17-4.865,2.8a1.4,1.4,0,0,0-.315.84c0,.77.735,1.33,1.68,1.33C65.059,39.87,70.309,36.86,70.309,35.075Zm5.67,4.34a1.626,1.626,0,0,0-1.61-1.61c-.665,0-1.295.49-1.295,1.715,0,.735.665,1.995,1.5,1.995C75.769,41.515,75.979,40.325,75.979,39.415Zm1.89-25.2c0-1.155-.035-2.94-1.435-2.94a2.138,2.138,0,0,0-1.33.6c-.35.35-.35,4.095-.42,4.8-.49,5.6-.665,8.015-1.225,13.58a5.227,5.227,0,0,0-.035.665c0,1.855.805,2.59,1.575,2.59a1.47,1.47,0,0,0,1.365-1.505c-.035-.77-.35-1.47-.35-2.17a29.175,29.175,0,0,1,.42-3.01A95.639,95.639,0,0,0,77.869,14.215ZM105.834,26.08c-2.135.665-4.305,1.12-6.475,1.575.49-1.19,1.435-3.325,2.1-4.725.7-1.4,1.68-3.325,2.31-4.515.315,1.05.6,2.17.945,3.325C105.274,23.665,105.659,25.31,105.834,26.08ZM115,25.065a1.294,1.294,0,0,0-1.365-1.33,2.862,2.862,0,0,0-.945.175l-4.165,1.3c-.63-2.59-1.435-6.02-1.855-7.49a28.345,28.345,0,0,1-.77-4.025c-.14-.77-.385-1.715-1.365-1.715-1.015,0-1.4.665-1.715,1.365L96.1,28.25c-1.225.28-2.24.7-2.24,1.96a1.474,1.474,0,0,0,.875,1.4,15.875,15.875,0,0,0-1.085,4.025,1.231,1.231,0,0,0,1.365,1.19,1.517,1.517,0,0,0,.665-.14c.84-.385.84-1.365.945-2.135a19.93,19.93,0,0,1,1.225-3.115c1.225-.455,2.345-.91,3.465-1.3,1.82-.595,4.1-1.295,5.11-1.575l2.205,9.38a1.92,1.92,0,0,0,1.855,1.715,1.618,1.618,0,0,0,1.54-1.435,2.448,2.448,0,0,0-.84-1.54l-2.1-9L112.8,26.6a3.49,3.49,0,0,0,.56.07A1.589,1.589,0,0,0,115,25.065Zm11.375,12.39a4.192,4.192,0,0,0-.63-1.82,49.313,49.313,0,0,1-.07-4.935c0-5.32-.525-8.96-2.38-8.96-1.575,0-3.535,3.71-4.9,6.02,0-1.435.35-3.045.35-4.13a1.609,1.609,0,0,0-.245-1.015,2.36,2.36,0,0,0-1.575-.7c-.56,0-1.05.28-1.19,1.19-.525,3.78-.28,7-.7,11.165-.035.28-.035.945-.035,1.26,0,1.085.21,2.1,1.295,2.1a2.6,2.6,0,0,0,1.085-.28c.875-.35,2.66-8.645,5.215-11.9a6.387,6.387,0,0,1,.14,1.995c0,1.085-.035,2.24-.035,3.36.035,2.2.35,3.885.35,5.355a1.982,1.982,0,0,0-.105.63,2.1,2.1,0,0,0,2.065,1.96A1.268,1.268,0,0,0,126.379,37.455Zm13.3-10.325c0-1.26-.175-3.675-1.75-3.675-1.05,0-1.26,1.26-1.75,1.785-1.47,1.645-4.97,6.335-5.39,6.335-.07-.035-.07-.14-.07-.315,0-1.4,1.505-6.86,1.505-8.085a1.893,1.893,0,0,0-1.75-1.54c-1.47,0-1.54,2.73-1.645,3.57a67.594,67.594,0,0,0-.875,7.595c0,1.715.35,2.8,1.5,2.8,1.68,0,5.145-4.34,7.035-6.51-.14,4.13-.385,6.16-.805,10.325-.665,6.51-.735,10.57-.875,10.71a2.628,2.628,0,0,0-.665,1.61,1.647,1.647,0,0,0,1.75,1.645,1.609,1.609,0,0,0,1.75-1.575,3.531,3.531,0,0,0-.525-1.575C138.069,43.93,139.679,29.65,139.679,27.13Zm26.67-3.64c0-.91-1.05-1.47-1.82-1.47-1.015,0-1.5,1.05-1.82,1.96-.035.21-5.18,6.86-7.07,9.1a36.911,36.911,0,0,1-1.295-4.655c-.21-.735-.875-4.62-1.4-5a2.448,2.448,0,0,0-1.295-.315,1.933,1.933,0,0,0-1.575.63,37.107,37.107,0,0,1-2.765,3.15,24.284,24.284,0,0,0-2.485,3.675V27.725a20.8,20.8,0,0,0-.1-2.555,1.735,1.735,0,0,0-1.75-1.54,1.443,1.443,0,0,0-1.47,1.5c0,1.225.315,4.06.35,4.655.1,2.24.07,3.99.175,5.18.14,1.54.665,2.31,1.54,2.31,2.135,0,3.36-4.305,4.06-5.635a22.866,22.866,0,0,1,3.4-4.655c.6,2.345,1.89,8.365,2.8,9.8.21.385,1.085.56,1.68.56.14,0,.28-.035.35-.035,1.12-.28,7.84-10.5,9.45-11.935A2.752,2.752,0,0,0,166.349,23.49Zm13.475,7.945c0-2.345-.14-8.715-3.43-8.715-2.59,0-5.775,3.22-7.35,5,.14-2.415.385-4.8.6-7.175.175-2.03.7-4.375.7-5.425a1.525,1.525,0,0,0-1.61-1.75c-.735,0-1.295.77-1.47,2.555-.14,1.4-.21,3.535-.525,6.335-.42,4.06-.49,7.91-.665,11.97a2.963,2.963,0,0,1-.35,1.61,2.438,2.438,0,0,0-.21,1.05,1.557,1.557,0,0,0,1.54,1.645c.875,0,1.785-.7,1.785-2.205,0-.14-.035-.28-.035-.98A9.813,9.813,0,0,1,169.6,31.4c.875-1.89,4.445-5.775,6.23-5.775a.969.969,0,0,1,.455.1c.56.315.735,2.2.735,4.13,0,2.38-.245,4.025-.245,5.11s.28,2.17,1.68,2.17c.875,0,1.295-.42,1.33-1.155,0-.455-.07-.91-.07-1.715C179.719,33.4,179.824,32.415,179.824,31.435Zm10.71-6.3a9.114,9.114,0,0,1-2.275,1.435,17.08,17.08,0,0,1-3.185.84,9.307,9.307,0,0,1,2.485-1.715,7.027,7.027,0,0,1,2.9-.735c.14,0,.14.035.14.07S190.569,25.1,190.534,25.135Zm7.07,5.075a1.614,1.614,0,0,0-1.47-1.5c-.735,0-1.19.805-1.54,1.435-.42.49-5.215,4.34-7.56,4.34-1.925,0-3.115-2.38-3.115-4.06v-.455a17.244,17.244,0,0,0,5.74-1.365c2.835-1.19,4.97-3.99,4.97-5.04,0-.14-.14-.245-.35-.385a7.081,7.081,0,0,0-3.5-.805c-4.585,0-9.8,3.4-9.8,8.05,0,3.115,2.45,6.755,5.6,6.755,2.9,0,6.475-2.59,8.47-4.095a16.455,16.455,0,0,1,1.54-1.19A2.212,2.212,0,0,0,197.6,30.21ZM212.549,23.6c0-1.4-1.365-1.715-2.45-1.715a4.394,4.394,0,0,0-2.24.63c-1.855,1.05-4.9,4.55-6.09,6.055,0-.77-.035-1.4-.035-2.555,0-1.645-.105-3.99-1.96-3.99-.8,0-1.61.525-1.61,1.225a1.258,1.258,0,0,0,.07.385,15.462,15.462,0,0,1,.77,5.18,34.952,34.952,0,0,1-.6,5.95,7.837,7.837,0,0,0-.1,1.19,1.644,1.644,0,0,0,1.785,1.68,1.372,1.372,0,0,0,1.155-.56c.6-.735.14-3.255,1.26-4.935,2.31-3.57,4.725-6.3,6.685-7.42a1.329,1.329,0,0,1,.63-.21c.455,0,.805.28,1.295.28A1.362,1.362,0,0,0,212.549,23.6Zm7.105,1.54a9.114,9.114,0,0,1-2.275,1.435,17.08,17.08,0,0,1-3.185.84,9.307,9.307,0,0,1,2.485-1.715,7.027,7.027,0,0,1,2.9-.735c.14,0,.14.035.14.07S219.689,25.1,219.654,25.135Zm7.07,5.075a1.614,1.614,0,0,0-1.47-1.5c-.735,0-1.19.805-1.54,1.435-.42.49-5.215,4.34-7.56,4.34-1.925,0-3.115-2.38-3.115-4.06v-.455a17.244,17.244,0,0,0,5.74-1.365c2.835-1.19,4.97-3.99,4.97-5.04,0-.14-.14-.245-.35-.385a7.081,7.081,0,0,0-3.5-.805c-4.585,0-9.8,3.4-9.8,8.05,0,3.115,2.45,6.755,5.6,6.755,2.9,0,6.475-2.59,8.47-4.095a16.455,16.455,0,0,1,1.54-1.19A2.212,2.212,0,0,0,226.724,30.21Z" transform="translate(232.311 862.942) rotate(-7)" fill="#48484a"/>
    <g id="Group_22452" data-name="Group 22452" transform="translate(259.471 912.234) rotate(-8)">
      <g id="Group_22451" data-name="Group 22451" transform="translate(0 0)" clip-path="url(#clip-path)">
        <path id="Path_47334" data-name="Path 47334" d="M.254,7.2c15.492.588,31.089-.609,46.4-1.755,15.4-1.153,30.76-2.541,46.294-3.1,35.232-1.259,70.617-.373,105.793.942,11.793.441,23.6.828,35.421.975,1.443.018,1.2-.974-.068-1.053C198.307.964,161.991-.178,125.948.023c-16.8.094-33.658.588-50.309,1.786C60.184,2.92,44.872,4.52,29.408,5.606,19.74,6.285,10,6.767.242,6.847c-.338,0-.312.341.011.354" transform="translate(0 0)" fill="#e13019"/>
        <path id="Path_47334_-_Outline" data-name="Path 47334 - Outline" d="M10.407,10.759c-2.92,0-5.789-.052-8.515-.156A1.879,1.879,0,1,1,1.93,6.847c8.72-.071,18.226-.475,29.061-1.236,7.915-.556,15.929-1.259,23.679-1.939,7.377-.647,15.006-1.316,22.549-1.859C92.528.712,109.021.126,127.64.023,130.34.008,133.084,0,135.8,0c32.456,0,66.135,1.082,100.1,3.216,1.784.112,2.682,1.276,2.648,2.368-.033,1.038-.864,2.086-2.648,2.086h-.06c-12.346-.153-24.855-.579-35.464-.976C163.67,5.321,143.8,5.145,130.582,5.145c-12.716,0-24.451.2-35.875.607-12.091.432-24.293,1.387-36.092,2.311-3.321.26-6.755.529-10.136.782l-.724.054C35.548,9.813,22.924,10.759,10.407,10.759Z" transform="translate(-1.702 -1.702)" fill="#e13019"/>
      </g>
    </g>
  </g>
</svg>
