<svg xmlns="http://www.w3.org/2000/svg" xmlns:xlink="http://www.w3.org/1999/xlink" width="1080" height="1080" viewBox="0 0 1080 1080">
  <defs>
    <clipPath id="clip-chrome-extension_5-text-search-anywhere">
      <rect width="1080" height="1080"/>
    </clipPath>
  </defs>
  <g id="chrome-extension_5-text-search-anywhere" clip-path="url(#clip-chrome-extension_5-text-search-anywhere)">
    <g id="Group_22534" data-name="Group 22534">
      <path id="Path_48023" data-name="Path 48023" d="M101.249,29.615c0-6.755-16.73-5.88-16.73-8.89,0-2.415,7.07-5.425,10.36-5.425.455,0,.735.385.98.6a1.609,1.609,0,0,0,1.12.455,1.494,1.494,0,0,0,1.5-1.33.675.675,0,0,0-.1-.35c-1.05-1.75-1.54-2.345-3.955-2.345-3.15,0-13.055,3.325-13.055,8.925,0,5.635,16.94,3.64,16.94,8.785,0,1.89-6.37,5.635-8.995,6.02a2.186,2.186,0,0,0-1.925,1.96c0,1.225,1.155,1.61,2.135,1.61a2,2,0,0,0,2.1-1.33C91.8,37.63,101.249,34.865,101.249,29.615Zm10.535-4.48a9.115,9.115,0,0,1-2.275,1.435,17.08,17.08,0,0,1-3.185.84,9.307,9.307,0,0,1,2.485-1.715,7.027,7.027,0,0,1,2.9-.735c.14,0,.14.035.14.07S111.819,25.1,111.784,25.135Zm7.07,5.075a1.614,1.614,0,0,0-1.47-1.5c-.735,0-1.19.805-1.54,1.435-.42.49-5.215,4.34-7.56,4.34-1.925,0-3.115-2.38-3.115-4.06v-.455a17.244,17.244,0,0,0,5.74-1.365c2.835-1.19,4.97-3.99,4.97-5.04,0-.14-.14-.245-.35-.385a7.081,7.081,0,0,0-3.5-.805c-4.585,0-9.8,3.4-9.8,8.05,0,3.115,2.45,6.755,5.6,6.755,2.9,0,6.475-2.59,8.47-4.095a16.455,16.455,0,0,1,1.54-1.19A2.212,2.212,0,0,0,118.854,30.21Zm6.615,3.36a7.4,7.4,0,0,1-3.115,1.505c-.385,0-.63-.175-.63-.665,0-1.155,1.19-2.835,2.345-2.905C124.594,31.5,125.224,32.9,125.469,33.57Zm4.34-4.375c0-3.29-1.54-7.28-5.18-7.28-2.065,0-4.445,1.12-4.445,2.695a1.392,1.392,0,0,0,1.435,1.295.72.72,0,0,0,.805-.595,2.583,2.583,0,0,1,1.925-.805c2.1,0,2.695,3.36,2.695,4.76a10.123,10.123,0,0,1-.14,1.575,3.232,3.232,0,0,0-2.8-2.065c-2.38,0-4.9,3.08-4.9,5.7a2.934,2.934,0,0,0,2.975,3.08,8.959,8.959,0,0,0,4.06-1.33,1.473,1.473,0,0,0,1.295.84.881.881,0,0,0,.7-.315A20.653,20.653,0,0,0,129.809,29.195Zm16.485-5.6c0-1.4-1.365-1.715-2.45-1.715a4.394,4.394,0,0,0-2.24.63c-1.855,1.05-4.9,4.55-6.09,6.055,0-.77-.035-1.4-.035-2.555,0-1.645-.105-3.99-1.96-3.99-.8,0-1.61.525-1.61,1.225a1.258,1.258,0,0,0,.07.385,15.462,15.462,0,0,1,.77,5.18,34.952,34.952,0,0,1-.6,5.95,7.837,7.837,0,0,0-.1,1.19,1.644,1.644,0,0,0,1.785,1.68,1.372,1.372,0,0,0,1.155-.56c.6-.735.14-3.255,1.26-4.935,2.31-3.57,4.725-6.3,6.685-7.42a1.329,1.329,0,0,1,.63-.21c.455,0,.805.28,1.295.28A1.362,1.362,0,0,0,146.294,23.6Zm15.68,6.93a1.271,1.271,0,0,0-1.19-1.3,1.191,1.191,0,0,0-.49.07c-.28.105-3.92,2.345-5.915,3.29-2.975,1.435-4.97,1.995-6.3,1.995-1.47,0-2.03-.735-2.03-1.785,0-1.89,3.045-6.79,4.83-6.79.245,0,.6.105.945.105.945,0,2.065-1.435,2.065-2.24,0-.63-.49-1.155-1.645-1.155-3.85,0-9.1,6.51-9.1,10.4,0,2.73,2.45,3.955,4.69,3.955,5.425,0,13.09-5.495,14.035-6.265C161.9,30.77,161.974,30.735,161.974,30.525Zm12.215.91c0-2.345-.14-8.715-3.43-8.715-2.59,0-5.775,3.22-7.35,5,.14-2.415.385-4.8.6-7.175.175-2.03.7-4.375.7-5.425a1.525,1.525,0,0,0-1.61-1.75c-.735,0-1.295.77-1.47,2.555-.14,1.4-.21,3.535-.525,6.335-.42,4.06-.49,7.91-.665,11.97a2.963,2.963,0,0,1-.35,1.61,2.438,2.438,0,0,0-.21,1.05,1.557,1.557,0,0,0,1.54,1.645c.875,0,1.785-.7,1.785-2.205,0-.14-.035-.28-.035-.98a9.813,9.813,0,0,1,.805-3.955c.875-1.89,4.445-5.775,6.23-5.775a.969.969,0,0,1,.455.1c.56.315.735,2.2.735,4.13,0,2.38-.245,4.025-.245,5.11s.28,2.17,1.68,2.17c.875,0,1.295-.42,1.33-1.155,0-.455-.07-.91-.07-1.715C174.084,33.4,174.189,32.415,174.189,31.435Z" transform="translate(845.687 228.59) rotate(-7)" fill="#48484a"/>
      <path id="Path_48022" data-name="Path 48022" d="M74.036,26.08c-2.135.665-4.305,1.12-6.475,1.575.49-1.19,1.435-3.325,2.1-4.725.7-1.4,1.68-3.325,2.31-4.515.315,1.05.6,2.17.945,3.325C73.476,23.665,73.861,25.31,74.036,26.08Zm9.17-1.015a1.294,1.294,0,0,0-1.365-1.33,2.862,2.862,0,0,0-.945.175l-4.165,1.3c-.63-2.59-1.435-6.02-1.855-7.49a28.345,28.345,0,0,1-.77-4.025c-.14-.77-.385-1.715-1.365-1.715-1.015,0-1.4.665-1.715,1.365l-6.72,14.91c-1.225.28-2.24.7-2.24,1.96a1.474,1.474,0,0,0,.875,1.4,15.875,15.875,0,0,0-1.085,4.025,1.231,1.231,0,0,0,1.365,1.19,1.517,1.517,0,0,0,.665-.14c.84-.385.84-1.365.945-2.135a19.93,19.93,0,0,1,1.225-3.115c1.225-.455,2.345-.91,3.465-1.3,1.82-.595,4.1-1.295,5.11-1.575l2.205,9.38a1.92,1.92,0,0,0,1.855,1.715,1.618,1.618,0,0,0,1.54-1.435,2.448,2.448,0,0,0-.84-1.54l-2.1-9L81,26.6a3.49,3.49,0,0,0,.56.07A1.589,1.589,0,0,0,83.206,25.065Zm11.375,12.39a4.192,4.192,0,0,0-.63-1.82,49.313,49.313,0,0,1-.07-4.935c0-5.32-.525-8.96-2.38-8.96-1.575,0-3.535,3.71-4.9,6.02,0-1.435.35-3.045.35-4.13a1.609,1.609,0,0,0-.245-1.015,2.36,2.36,0,0,0-1.575-.7c-.56,0-1.05.28-1.19,1.19-.525,3.78-.28,7-.7,11.165-.035.28-.035.945-.035,1.26,0,1.085.21,2.1,1.295,2.1a2.6,2.6,0,0,0,1.085-.28c.875-.35,2.66-8.645,5.215-11.9a6.387,6.387,0,0,1,.14,1.995c0,1.085-.035,2.24-.035,3.36.035,2.2.35,3.885.35,5.355a1.982,1.982,0,0,0-.105.63,2.1,2.1,0,0,0,2.065,1.96A1.268,1.268,0,0,0,94.581,37.455Zm13.3-10.325c0-1.26-.175-3.675-1.75-3.675-1.05,0-1.26,1.26-1.75,1.785-1.47,1.645-4.97,6.335-5.39,6.335-.07-.035-.07-.14-.07-.315,0-1.4,1.5-6.86,1.5-8.085a1.893,1.893,0,0,0-1.75-1.54c-1.47,0-1.54,2.73-1.645,3.57a67.593,67.593,0,0,0-.875,7.595c0,1.715.35,2.8,1.5,2.8,1.68,0,5.145-4.34,7.035-6.51-.14,4.13-.385,6.16-.805,10.325-.665,6.51-.735,10.57-.875,10.71a2.628,2.628,0,0,0-.665,1.61,1.647,1.647,0,0,0,1.75,1.645,1.609,1.609,0,0,0,1.75-1.575,3.531,3.531,0,0,0-.525-1.575C106.271,43.93,107.881,29.65,107.881,27.13Zm26.67-3.64c0-.91-1.05-1.47-1.82-1.47-1.015,0-1.5,1.05-1.82,1.96-.035.21-5.18,6.86-7.07,9.1a36.912,36.912,0,0,1-1.295-4.655c-.21-.735-.875-4.62-1.4-5a2.448,2.448,0,0,0-1.3-.315,1.933,1.933,0,0,0-1.575.63,37.111,37.111,0,0,1-2.765,3.15,24.283,24.283,0,0,0-2.485,3.675V27.725a20.8,20.8,0,0,0-.105-2.555,1.735,1.735,0,0,0-1.75-1.54,1.443,1.443,0,0,0-1.47,1.5c0,1.225.315,4.06.35,4.655.1,2.24.07,3.99.175,5.18.14,1.54.665,2.31,1.54,2.31,2.135,0,3.36-4.305,4.06-5.635a22.866,22.866,0,0,1,3.4-4.655c.6,2.345,1.89,8.365,2.8,9.8.21.385,1.085.56,1.68.56.14,0,.28-.035.35-.035,1.12-.28,7.84-10.5,9.45-11.935A2.752,2.752,0,0,0,134.551,23.49Zm13.475,7.945c0-2.345-.14-8.715-3.43-8.715-2.59,0-5.775,3.22-7.35,5,.14-2.415.385-4.8.595-7.175.175-2.03.7-4.375.7-5.425a1.525,1.525,0,0,0-1.61-1.75c-.735,0-1.295.77-1.47,2.555-.14,1.4-.21,3.535-.525,6.335-.42,4.06-.49,7.91-.665,11.97a2.963,2.963,0,0,1-.35,1.61,2.438,2.438,0,0,0-.21,1.05,1.557,1.557,0,0,0,1.54,1.645c.875,0,1.785-.7,1.785-2.205,0-.14-.035-.28-.035-.98a9.813,9.813,0,0,1,.805-3.955c.875-1.89,4.445-5.775,6.23-5.775a.969.969,0,0,1,.455.1c.56.315.735,2.2.735,4.13,0,2.38-.245,4.025-.245,5.11s.28,2.17,1.68,2.17c.875,0,1.295-.42,1.33-1.155,0-.455-.07-.91-.07-1.715C147.921,33.4,148.026,32.415,148.026,31.435Zm10.71-6.3a9.114,9.114,0,0,1-2.275,1.435,17.08,17.08,0,0,1-3.185.84,9.307,9.307,0,0,1,2.485-1.715,7.027,7.027,0,0,1,2.9-.735c.14,0,.14.035.14.07S158.771,25.1,158.736,25.135Zm7.07,5.075a1.614,1.614,0,0,0-1.47-1.5c-.735,0-1.19.805-1.54,1.435-.42.49-5.215,4.34-7.56,4.34-1.925,0-3.115-2.38-3.115-4.06v-.455a17.244,17.244,0,0,0,5.74-1.365c2.835-1.19,4.97-3.99,4.97-5.04,0-.14-.14-.245-.35-.385a7.081,7.081,0,0,0-3.5-.805c-4.585,0-9.8,3.4-9.8,8.05,0,3.115,2.45,6.755,5.6,6.755,2.9,0,6.475-2.59,8.47-4.095a16.455,16.455,0,0,1,1.54-1.19A2.212,2.212,0,0,0,165.806,30.21ZM180.751,23.6c0-1.4-1.365-1.715-2.45-1.715a4.394,4.394,0,0,0-2.24.63c-1.855,1.05-4.9,4.55-6.09,6.055,0-.77-.035-1.4-.035-2.555,0-1.645-.105-3.99-1.96-3.99-.8,0-1.61.525-1.61,1.225a1.258,1.258,0,0,0,.07.385,15.462,15.462,0,0,1,.77,5.18,34.952,34.952,0,0,1-.6,5.95,7.837,7.837,0,0,0-.1,1.19,1.644,1.644,0,0,0,1.785,1.68,1.372,1.372,0,0,0,1.155-.56c.6-.735.14-3.255,1.26-4.935,2.31-3.57,4.725-6.3,6.685-7.42a1.329,1.329,0,0,1,.63-.21c.455,0,.805.28,1.295.28A1.362,1.362,0,0,0,180.751,23.6Zm7.1,1.54a9.114,9.114,0,0,1-2.275,1.435,17.08,17.08,0,0,1-3.185.84,9.307,9.307,0,0,1,2.485-1.715,7.027,7.027,0,0,1,2.9-.735c.14,0,.14.035.14.07S187.891,25.1,187.856,25.135Zm7.07,5.075a1.614,1.614,0,0,0-1.47-1.5c-.735,0-1.19.805-1.54,1.435-.42.49-5.215,4.34-7.56,4.34-1.925,0-3.115-2.38-3.115-4.06v-.455a17.244,17.244,0,0,0,5.74-1.365c2.835-1.19,4.97-3.99,4.97-5.04,0-.14-.14-.245-.35-.385a7.081,7.081,0,0,0-3.5-.805c-4.585,0-9.8,3.4-9.8,8.05,0,3.115,2.45,6.755,5.6,6.755,2.9,0,6.475-2.59,8.47-4.095a16.455,16.455,0,0,1,1.54-1.19A2.212,2.212,0,0,0,194.926,30.21Z" transform="translate(834.058 264.195) rotate(-7)" fill="#48484a"/>
      <g id="Group_22476" data-name="Group 22476">
        <path id="Path_47342" data-name="Path 47342" d="M29.174,21.032a2.978,2.978,0,0,1-2.291-1.07L16.494,7.534,5.2,20.047a2.984,2.984,0,1,1-4.431-4L14.365.985a2.984,2.984,0,0,1,4.505.086L31.462,16.134a2.984,2.984,0,0,1-2.288,4.9Z" transform="translate(981.835 425.759) rotate(-110)" fill="#e13019"/>
        <path id="Path_47343" data-name="Path 47343" d="M2.987,132.463a2.985,2.985,0,0,1-1.238-5.7A114.838,114.838,0,0,0,27.41,109.449,79.4,79.4,0,0,0,44.347,88.622,53.018,53.018,0,0,0,51.038,60.51,80.063,80.063,0,0,0,45.465,33.8,59.553,59.553,0,0,0,35.206,17.053,51.18,51.18,0,0,0,25.3,8.283a30.555,30.555,0,0,0-4.463-2.545A2.984,2.984,0,0,1,23.133.23c.332.138,8.212,3.48,16.32,12.616A65.364,65.364,0,0,1,50.892,31.3,85.841,85.841,0,0,1,57,60.233a58.914,58.914,0,0,1-7.456,31.324A85.5,85.5,0,0,1,31.275,114a118.714,118.714,0,0,1-27.054,18.2A2.978,2.978,0,0,1,2.987,132.463Z" transform="matrix(0.966, 0.259, -0.259, 0.966, 1014.599, 280.613)" fill="#e13019"/>
      </g>
    </g>
  </g>
</svg>
