<svg xmlns="http://www.w3.org/2000/svg" xmlns:xlink="http://www.w3.org/1999/xlink" width="400" height="400" viewBox="0 0 1080 1080">
  <defs>
    <filter id="Path_31368" x="82.693" y="341.688" width="615" height="127" filterUnits="userSpaceOnUse">
      <feOffset dx="5" dy="5" input="SourceAlpha"/>
      <feGaussianBlur stdDeviation="10" result="blur"/>
      <feFlood flood-color="#004280" flood-opacity="0.2"/>
      <feComposite operator="in" in2="blur"/>
      <feComposite in="SourceGraphic"/>
    </filter>
    <clipPath id="clip-contact-search_3-textline1">
      <rect width="1080" height="1080"/>
    </clipPath>
  </defs>
  <g id="contact-search_3-textline1" clip-path="url(#clip-contact-search_3-textline1)">
    <path id="Path_75769" data-name="Path 75769" d="M2.956,0V-26.909H19.643v3.5H7.016v8.2H18.447v3.482H7.016V0ZM23.766,0V-20.182h3.929V0ZM25.75-23.3A2.462,2.462,0,0,1,24-23.986a2.192,2.192,0,0,1-.729-1.649A2.206,2.206,0,0,1,24-27.3a2.462,2.462,0,0,1,1.754-.69,2.462,2.462,0,0,1,1.754.69,2.206,2.206,0,0,1,.729,1.662,2.192,2.192,0,0,1-.729,1.649A2.462,2.462,0,0,1,25.75-23.3Zm10.6,11.313V0H32.421V-20.182h3.771V-16.9h.25a5.756,5.756,0,0,1,2.188-2.575,6.762,6.762,0,0,1,3.764-.972,7.324,7.324,0,0,1,3.613.861,5.839,5.839,0,0,1,2.4,2.556,9.256,9.256,0,0,1,.854,4.191V0H45.337V-12.364A4.881,4.881,0,0,0,44.194-15.8a4.057,4.057,0,0,0-3.14-1.242,4.883,4.883,0,0,0-2.424.591,4.207,4.207,0,0,0-1.669,1.728A5.714,5.714,0,0,0,36.35-11.983ZM61.521.394A7.759,7.759,0,0,1,57.166-.861a8.394,8.394,0,0,1-3-3.587,13.213,13.213,0,0,1-1.084-5.6,13.032,13.032,0,0,1,1.1-5.6A8.334,8.334,0,0,1,57.2-19.21a7.859,7.859,0,0,1,4.349-1.235,6.343,6.343,0,0,1,3.029.624,5.55,5.55,0,0,1,1.787,1.452,12.585,12.585,0,0,1,.992,1.458h.237v-10H71.52V0H67.684V-3.14h-.328a10.659,10.659,0,0,1-1.018,1.472,5.774,5.774,0,0,1-1.82,1.445A6.342,6.342,0,0,1,61.521.394Zm.867-3.35a4.584,4.584,0,0,0,2.871-.9,5.547,5.547,0,0,0,1.787-2.5,10.447,10.447,0,0,0,.611-3.732,10.25,10.25,0,0,0-.6-3.679,5.4,5.4,0,0,0-1.774-2.457,4.669,4.669,0,0,0-2.891-.88,4.67,4.67,0,0,0-2.956.92,5.577,5.577,0,0,0-1.78,2.51,10.134,10.134,0,0,0-.6,3.587,10.332,10.332,0,0,0,.6,3.64A5.721,5.721,0,0,0,59.452-3.9,4.59,4.59,0,0,0,62.389-2.956Z" transform="translate(9 413.188)" fill="#4d4d4d"/>
    <path id="Path_75768" data-name="Path 75768" d="M2.641,0V-20.182H6.57V0ZM4.625-23.3a2.462,2.462,0,0,1-1.754-.69,2.192,2.192,0,0,1-.729-1.649A2.206,2.206,0,0,1,2.871-27.3a2.462,2.462,0,0,1,1.754-.69,2.462,2.462,0,0,1,1.754.69,2.206,2.206,0,0,1,.729,1.662,2.192,2.192,0,0,1-.729,1.649A2.462,2.462,0,0,1,4.625-23.3Zm10.6,11.313V0H11.3V-20.182h3.771V-16.9h.25A5.756,5.756,0,0,1,17.5-19.472a6.762,6.762,0,0,1,3.764-.972,7.324,7.324,0,0,1,3.613.861,5.839,5.839,0,0,1,2.4,2.556,9.256,9.256,0,0,1,.854,4.191V0H24.212V-12.364A4.881,4.881,0,0,0,23.069-15.8a4.057,4.057,0,0,0-3.14-1.242,4.883,4.883,0,0,0-2.424.591,4.207,4.207,0,0,0-1.669,1.728A5.714,5.714,0,0,0,15.225-11.983Zm36.284-8.2v3.153H40.486v-3.153Zm-8.067-4.835h3.929V-5.926a3.411,3.411,0,0,0,.342,1.715,1.737,1.737,0,0,0,.887.775,3.373,3.373,0,0,0,1.189.2,4.6,4.6,0,0,0,.828-.066q.355-.066.552-.105l.71,3.245A7.055,7.055,0,0,1,50.9.112a8.074,8.074,0,0,1-1.577.151,6.917,6.917,0,0,1-2.891-.552A4.958,4.958,0,0,1,44.27-2.076a5.251,5.251,0,0,1-.828-3.035Zm16.2,13.034V0H55.711V-26.909h3.876V-16.9h.25A5.8,5.8,0,0,1,62-19.485a6.825,6.825,0,0,1,3.81-.959,7.436,7.436,0,0,1,3.633.854,5.834,5.834,0,0,1,2.418,2.542,9.22,9.22,0,0,1,.861,4.211V0H68.8V-12.364a4.871,4.871,0,0,0-1.143-3.449,4.129,4.129,0,0,0-3.18-1.229,5.164,5.164,0,0,0-2.49.591,4.22,4.22,0,0,0-1.721,1.728A5.615,5.615,0,0,0,59.639-11.983ZM86.125.407A9.837,9.837,0,0,1,80.994-.874a8.538,8.538,0,0,1-3.311-3.613A12.124,12.124,0,0,1,76.52-9.96a12.239,12.239,0,0,1,1.163-5.466,8.917,8.917,0,0,1,3.259-3.692,8.977,8.977,0,0,1,4.907-1.327,9.889,9.889,0,0,1,3.311.565,8.02,8.02,0,0,1,2.877,1.774,8.341,8.341,0,0,1,2.01,3.134,13.119,13.119,0,0,1,.736,4.671v1.393H78.741v-2.943H90.934A5.838,5.838,0,0,0,90.3-14.6a4.794,4.794,0,0,0-1.767-1.9,4.991,4.991,0,0,0-2.661-.7,5.128,5.128,0,0,0-2.884.808,5.461,5.461,0,0,0-1.892,2.1,6.059,6.059,0,0,0-.664,2.805v2.3a7.574,7.574,0,0,0,.716,3.442,5.048,5.048,0,0,0,2,2.161,5.918,5.918,0,0,0,3.009.742A6.132,6.132,0,0,0,88.2-3.16a4.325,4.325,0,0,0,1.59-.966,4.224,4.224,0,0,0,1.025-1.59l3.718.67a6.718,6.718,0,0,1-1.6,2.871A7.734,7.734,0,0,1,90.06-.269,10.728,10.728,0,0,1,86.125.407Z" transform="translate(687.386 413.188)" fill="#4d4d4d"/>
    <g transform="matrix(1, 0, 0, 1, 0, 0)" filter="url(#Path_31368)">
      <path id="Path_31368-2" data-name="Path 31368" d="M5.55,0h543.9C552.515,0,555,2.093,555,4.674V62.326c0,2.582-2.485,4.674-5.55,4.674H5.55C2.485,67,0,64.907,0,62.326V4.674C0,2.093,2.485,0,5.55,0Z" transform="translate(107.69 366.69)" fill="#0065f2"/>
    </g>
    <path id="Path_80961" data-name="Path 80961" d="M15.137-29.473q5.449,0,8.457,2.871a10.139,10.139,0,0,1,3.34,6.523H23.145a7.886,7.886,0,0,0-2.568-4.395,8.14,8.14,0,0,0-5.4-1.621A8.66,8.66,0,0,0,8.33-23.115q-2.607,2.979-2.607,9.131A13.262,13.262,0,0,0,8.076-5.811Q10.43-2.676,15.1-2.676a7.418,7.418,0,0,0,6.543-3.3,12.553,12.553,0,0,0,1.777-4.57h3.789a12.947,12.947,0,0,1-3.359,7.6A11.953,11.953,0,0,1,14.629.742a12.167,12.167,0,0,1-8.4-3.027q-4.473-4-4.473-12.363a15.793,15.793,0,0,1,3.359-10.41A12.271,12.271,0,0,1,15.137-29.473ZM34.38-20.918V-7.031a5.855,5.855,0,0,0,.508,2.617,3.543,3.543,0,0,0,3.5,1.875,4.941,4.941,0,0,0,5-3.281,13.018,13.018,0,0,0,.723-4.824V-20.918h3.516V0H44.3l.039-3.086a7.092,7.092,0,0,1-1.7,2.012A7.477,7.477,0,0,1,37.759.566q-4.473,0-6.094-2.988A8.9,8.9,0,0,1,30.787-6.7V-20.918ZM54.6-6.562a5.113,5.113,0,0,0,.879,2.7q1.328,1.7,4.609,1.7a6.8,6.8,0,0,0,3.438-.85,2.821,2.821,0,0,0,1.484-2.627A2.246,2.246,0,0,0,63.82-7.7a14.165,14.165,0,0,0-3.008-1l-2.793-.7a13.625,13.625,0,0,1-3.945-1.484,4.437,4.437,0,0,1-2.266-3.945,6.028,6.028,0,0,1,2.139-4.8A8.532,8.532,0,0,1,59.7-21.465q4.727,0,6.816,2.773a6.019,6.019,0,0,1,1.27,3.789h-3.32a4.067,4.067,0,0,0-.84-2.168q-1.211-1.387-4.2-1.387a5.019,5.019,0,0,0-3.018.762,2.387,2.387,0,0,0-1.025,2.012A2.476,2.476,0,0,0,56.73-13.5a8.1,8.1,0,0,0,2.3.859l2.324.566a17.97,17.97,0,0,1,5.078,1.777,4.706,4.706,0,0,1,2.051,4.238A6.459,6.459,0,0,1,66.368-1.23Q64.249.8,59.913.8,55.245.8,53.3-1.318a8.014,8.014,0,0,1-2.08-5.244Zm18.013-20.2h3.555v5.84h3.34v2.871h-3.34V-4.395a1.477,1.477,0,0,0,.742,1.465,3.155,3.155,0,0,0,1.367.215q.254,0,.547-.01t.684-.049V0a7.848,7.848,0,0,1-1.26.254,11.977,11.977,0,0,1-1.416.078q-2.461,0-3.34-1.26A5.6,5.6,0,0,1,72.614-4.2V-18.047H69.782v-2.871h2.832ZM90.725-2.266q3.5,0,4.795-2.646a13.185,13.185,0,0,0,1.3-5.889,10.485,10.485,0,0,0-.937-4.766,5.274,5.274,0,0,0-5.117-2.891A5.046,5.046,0,0,0,86.077-16a11.407,11.407,0,0,0-1.465,5.938,9.922,9.922,0,0,0,1.465,5.566A5.159,5.159,0,0,0,90.725-2.266Zm.137-19.258a9.472,9.472,0,0,1,6.836,2.7q2.793,2.7,2.793,7.93A13.6,13.6,0,0,1,98.03-2.539q-2.461,3.3-7.637,3.3a8.621,8.621,0,0,1-6.855-2.92A11.533,11.533,0,0,1,81-10a12.478,12.478,0,0,1,2.676-8.4A8.98,8.98,0,0,1,90.862-21.523Zm13.209.605h3.477v2.969a11.685,11.685,0,0,1,2.266-2.246,6.814,6.814,0,0,1,3.945-1.191,6.209,6.209,0,0,1,4.023,1.23,6.432,6.432,0,0,1,1.563,2.07,7.6,7.6,0,0,1,2.754-2.49,7.682,7.682,0,0,1,3.555-.811q4.219,0,5.742,3.047a9.959,9.959,0,0,1,.82,4.414V0h-3.652V-14.531a3.384,3.384,0,0,0-1.045-2.871,4.136,4.136,0,0,0-2.549-.781A5.06,5.06,0,0,0,121.4-16.8q-1.494,1.387-1.494,4.629V0h-3.574V-13.652a7.094,7.094,0,0,0-.508-3.105,3.1,3.1,0,0,0-2.988-1.465,5.156,5.156,0,0,0-3.623,1.543q-1.631,1.543-1.631,5.586V0H104.07Zm41.431-.469a9.542,9.542,0,0,1,4.316,1.045A7.96,7.96,0,0,1,153-17.637a9.332,9.332,0,0,1,1.406,3.691,24.152,24.152,0,0,1,.313,4.609H139.388a8.947,8.947,0,0,0,1.5,5.107A5.036,5.036,0,0,0,145.248-2.3a5.631,5.631,0,0,0,4.395-1.816,6.123,6.123,0,0,0,1.328-2.441h3.457a7.281,7.281,0,0,1-.908,2.568,9.135,9.135,0,0,1-1.729,2.314A8.193,8.193,0,0,1,147.826.43a12.045,12.045,0,0,1-2.871.313A8.809,8.809,0,0,1,138.334-2.1q-2.715-2.842-2.715-7.959a12.023,12.023,0,0,1,2.734-8.184A9.021,9.021,0,0,1,145.5-21.387Zm5.605,9.258a9.108,9.108,0,0,0-1-3.652,5.105,5.105,0,0,0-4.824-2.539,5.348,5.348,0,0,0-4.062,1.748,6.6,6.6,0,0,0-1.738,4.443Zm7.427-8.789h3.34V-17.3a7.983,7.983,0,0,1,2.012-2.568,5.216,5.216,0,0,1,3.691-1.514q.1,0,.332.02t.8.078v3.711a5.251,5.251,0,0,0-.576-.078q-.264-.02-.576-.02a5.017,5.017,0,0,0-4.082,1.709,5.965,5.965,0,0,0-1.426,3.936V0h-3.516Zm26.144,11.66a7.841,7.841,0,0,0,1.152,3.965q1.934,2.852,6.816,2.852a12.065,12.065,0,0,0,3.984-.625q3.477-1.211,3.477-4.336a3.743,3.743,0,0,0-1.465-3.34,14.791,14.791,0,0,0-4.648-1.7l-3.887-.879a17.6,17.6,0,0,1-5.391-1.895,6,6,0,0,1-2.734-5.371,8.271,8.271,0,0,1,2.676-6.348q2.676-2.48,7.578-2.48a13.162,13.162,0,0,1,7.666,2.178q3.154,2.178,3.154,6.963H199.4a7.189,7.189,0,0,0-1.25-3.535q-1.777-2.246-6.035-2.246-3.438,0-4.941,1.445a4.523,4.523,0,0,0-1.5,3.359,3.281,3.281,0,0,0,1.758,3.086,25.8,25.8,0,0,0,5.215,1.563l4.023.918a12.327,12.327,0,0,1,4.492,1.816,6.8,6.8,0,0,1,2.734,5.84q0,4.766-3.467,6.816A15.526,15.526,0,0,1,192.373.84q-5.352,0-8.379-2.734a9.226,9.226,0,0,1-2.969-7.363Zm31.783-12.129a9.542,9.542,0,0,1,4.316,1.045,7.96,7.96,0,0,1,3.184,2.705,9.332,9.332,0,0,1,1.406,3.691,24.152,24.152,0,0,1,.313,4.609H210.348a8.947,8.947,0,0,0,1.5,5.107A5.036,5.036,0,0,0,216.207-2.3,5.631,5.631,0,0,0,220.6-4.121a6.123,6.123,0,0,0,1.328-2.441h3.457a7.281,7.281,0,0,1-.908,2.568A9.135,9.135,0,0,1,222.75-1.68,8.193,8.193,0,0,1,218.785.43a12.045,12.045,0,0,1-2.871.313A8.809,8.809,0,0,1,209.293-2.1q-2.715-2.842-2.715-7.959a12.023,12.023,0,0,1,2.734-8.184A9.021,9.021,0,0,1,216.461-21.387Zm5.605,9.258a9.108,9.108,0,0,0-1-3.652,5.105,5.105,0,0,0-4.824-2.539,5.348,5.348,0,0,0-4.062,1.748,6.6,6.6,0,0,0-1.738,4.443Zm7.427-8.789h3.34V-17.3a7.983,7.983,0,0,1,2.012-2.568,5.216,5.216,0,0,1,3.691-1.514q.1,0,.332.02t.8.078v3.711a5.251,5.251,0,0,0-.576-.078q-.264-.02-.576-.02a5.017,5.017,0,0,0-4.082,1.709,5.965,5.965,0,0,0-1.426,3.936V0h-3.516Zm14.341,0,5.586,17.031,5.84-17.031h3.848L251.218,0h-3.75l-7.715-20.918Zm17.681.1h3.574V0h-3.574Zm0-7.871h3.574v3.984h-3.574Zm16.353,7.168a9.12,9.12,0,0,1,5.752,1.719q2.217,1.719,2.666,5.918H282.87a6.31,6.31,0,0,0-1.426-3.213,4.5,4.5,0,0,0-3.574-1.279,4.939,4.939,0,0,0-4.8,3.281,13.034,13.034,0,0,0-.937,5.254,9.887,9.887,0,0,0,1.328,5.293,4.556,4.556,0,0,0,4.18,2.148A4.57,4.57,0,0,0,281.1-3.74,7.357,7.357,0,0,0,282.87-7.4h3.418q-.586,4.16-2.93,6.084a9.141,9.141,0,0,1-6,1.924,8,8,0,0,1-6.543-3,11.475,11.475,0,0,1-2.441-7.49q0-5.508,2.676-8.574A8.646,8.646,0,0,1,277.87-21.523Zm20.045.137a9.542,9.542,0,0,1,4.316,1.045,7.96,7.96,0,0,1,3.184,2.705,9.332,9.332,0,0,1,1.406,3.691,24.151,24.151,0,0,1,.313,4.609H291.8a8.947,8.947,0,0,0,1.5,5.107A5.036,5.036,0,0,0,297.66-2.3a5.631,5.631,0,0,0,4.395-1.816,6.123,6.123,0,0,0,1.328-2.441h3.457a7.281,7.281,0,0,1-.908,2.568A9.134,9.134,0,0,1,304.2-1.68,8.193,8.193,0,0,1,300.238.43a12.044,12.044,0,0,1-2.871.313A8.809,8.809,0,0,1,290.746-2.1q-2.715-2.842-2.715-7.959a12.023,12.023,0,0,1,2.734-8.184A9.021,9.021,0,0,1,297.914-21.387Zm5.605,9.258a9.108,9.108,0,0,0-1-3.652A5.105,5.105,0,0,0,297.7-18.32a5.348,5.348,0,0,0-4.062,1.748,6.6,6.6,0,0,0-1.738,4.443Zm18.214-16.562H327.3l8.242,24.258,8.184-24.258h5.508V0h-3.691V-16.934q0-.879.039-2.91t.039-4.355L337.437,0h-3.848l-8.242-24.2v.879q0,1.055.049,3.213t.049,3.174V0h-3.711ZM356.778-5.566a2.9,2.9,0,0,0,1.113,2.4,4.128,4.128,0,0,0,2.637.879,8.017,8.017,0,0,0,3.594-.859,4.837,4.837,0,0,0,2.93-4.668v-2.832a6.014,6.014,0,0,1-1.66.684,14.147,14.147,0,0,1-1.992.391L361.27-9.3a8.142,8.142,0,0,0-2.871.8A3.12,3.12,0,0,0,356.778-5.566Zm8.516-7.109a1.91,1.91,0,0,0,1.621-1.016,3.09,3.09,0,0,0,.234-1.348,2.855,2.855,0,0,0-1.279-2.607,6.864,6.864,0,0,0-3.662-.811,4.653,4.653,0,0,0-3.906,1.484,4.884,4.884,0,0,0-.84,2.441H354.18q.1-3.867,2.51-5.381a10.3,10.3,0,0,1,5.6-1.514,11.386,11.386,0,0,1,6,1.406,4.771,4.771,0,0,1,2.285,4.375V-3.594a1.543,1.543,0,0,0,.225.879,1.083,1.083,0,0,0,.947.332q.234,0,.527-.029t.625-.088V.1a9.791,9.791,0,0,1-1.25.293,9.135,9.135,0,0,1-1.172.059A2.891,2.891,0,0,1,367.833-.84a4.975,4.975,0,0,1-.605-1.934,8.944,8.944,0,0,1-3.086,2.441A9.546,9.546,0,0,1,359.708.7a6.593,6.593,0,0,1-4.756-1.768,5.871,5.871,0,0,1-1.846-4.424A5.7,5.7,0,0,1,354.923-10a8.642,8.642,0,0,1,4.766-1.973Zm10.435-8.242h3.34v2.969a9.368,9.368,0,0,1,3.145-2.637,8.386,8.386,0,0,1,3.691-.8q4.453,0,6.016,3.105a11.027,11.027,0,0,1,.859,4.863V0h-3.574V-13.184a7.139,7.139,0,0,0-.566-3.086,3.434,3.434,0,0,0-3.4-1.953,6.92,6.92,0,0,0-2.051.254,5.281,5.281,0,0,0-2.539,1.719,5.174,5.174,0,0,0-1.143,2.139,14.4,14.4,0,0,0-.264,3.154V0h-3.516ZM400.07-5.566a2.9,2.9,0,0,0,1.113,2.4,4.128,4.128,0,0,0,2.637.879,8.017,8.017,0,0,0,3.594-.859,4.837,4.837,0,0,0,2.93-4.668v-2.832a6.014,6.014,0,0,1-1.66.684,14.147,14.147,0,0,1-1.992.391l-2.129.273a8.142,8.142,0,0,0-2.871.8A3.12,3.12,0,0,0,400.07-5.566Zm8.516-7.109a1.91,1.91,0,0,0,1.621-1.016,3.09,3.09,0,0,0,.234-1.348,2.855,2.855,0,0,0-1.279-2.607,6.864,6.864,0,0,0-3.662-.811,4.653,4.653,0,0,0-3.906,1.484,4.884,4.884,0,0,0-.84,2.441h-3.281q.1-3.867,2.51-5.381a10.3,10.3,0,0,1,5.6-1.514,11.386,11.386,0,0,1,6,1.406,4.771,4.771,0,0,1,2.285,4.375V-3.594a1.543,1.543,0,0,0,.225.879,1.083,1.083,0,0,0,.947.332q.234,0,.527-.029t.625-.088V.1a9.791,9.791,0,0,1-1.25.293,9.135,9.135,0,0,1-1.172.059A2.891,2.891,0,0,1,411.125-.84a4.975,4.975,0,0,1-.605-1.934,8.944,8.944,0,0,1-3.086,2.441A9.546,9.546,0,0,1,403,.7a6.593,6.593,0,0,1-4.756-1.768A5.871,5.871,0,0,1,396.4-5.488,5.7,5.7,0,0,1,398.215-10a8.642,8.642,0,0,1,4.766-1.973ZM426.4-21.289a7.624,7.624,0,0,1,4.3,1.211,9.651,9.651,0,0,1,2.031,1.992v-2.637h3.242V-1.7A14.028,14.028,0,0,1,434.8,4.59q-2.188,4.258-8.262,4.258a10.134,10.134,0,0,1-5.684-1.514A5.9,5.9,0,0,1,418.279,2.6h3.574a3.978,3.978,0,0,0,1.016,2.168,5.178,5.178,0,0,0,3.75,1.172q4.043,0,5.293-2.852a16.06,16.06,0,0,0,.684-6,6.9,6.9,0,0,1-2.539,2.383,8.446,8.446,0,0,1-3.926.781,8.38,8.38,0,0,1-5.947-2.412q-2.549-2.412-2.549-7.979,0-5.254,2.568-8.2A7.942,7.942,0,0,1,426.4-21.289Zm6.328,10.742q0-3.887-1.6-5.762a5.131,5.131,0,0,0-4.082-1.875,5.041,5.041,0,0,0-5.078,3.477,13.632,13.632,0,0,0-.723,4.863,8.633,8.633,0,0,0,1.436,5.381,4.634,4.634,0,0,0,3.857,1.846,5.415,5.415,0,0,0,5.332-3.418A11.024,11.024,0,0,0,432.732-10.547Zm16.646-10.84a9.542,9.542,0,0,1,4.316,1.045,7.96,7.96,0,0,1,3.184,2.705,9.332,9.332,0,0,1,1.406,3.691,24.151,24.151,0,0,1,.313,4.609H443.265a8.947,8.947,0,0,0,1.5,5.107A5.036,5.036,0,0,0,449.124-2.3a5.631,5.631,0,0,0,4.395-1.816,6.123,6.123,0,0,0,1.328-2.441H458.3a7.281,7.281,0,0,1-.908,2.568,9.134,9.134,0,0,1-1.729,2.314A8.193,8.193,0,0,1,451.7.43a12.044,12.044,0,0,1-2.871.313A8.809,8.809,0,0,1,442.21-2.1Q439.5-4.941,439.5-10.059a12.023,12.023,0,0,1,2.734-8.184A9.021,9.021,0,0,1,449.378-21.387Zm5.605,9.258a9.108,9.108,0,0,0-1-3.652,5.105,5.105,0,0,0-4.824-2.539,5.348,5.348,0,0,0-4.062,1.748,6.6,6.6,0,0,0-1.738,4.443Zm7.427-8.789h3.34V-17.3a7.983,7.983,0,0,1,2.012-2.568,5.216,5.216,0,0,1,3.691-1.514q.1,0,.332.02t.8.078v3.711a5.252,5.252,0,0,0-.576-.078q-.264-.02-.576-.02a5.017,5.017,0,0,0-4.082,1.709,5.965,5.965,0,0,0-1.426,3.936V0h-3.516ZM477.123-6.562a5.112,5.112,0,0,0,.879,2.7q1.328,1.7,4.609,1.7a6.8,6.8,0,0,0,3.438-.85,2.821,2.821,0,0,0,1.484-2.627A2.246,2.246,0,0,0,486.342-7.7a14.165,14.165,0,0,0-3.008-1l-2.793-.7a13.625,13.625,0,0,1-3.945-1.484,4.437,4.437,0,0,1-2.266-3.945,6.028,6.028,0,0,1,2.139-4.8,8.532,8.532,0,0,1,5.752-1.836q4.727,0,6.816,2.773a6.019,6.019,0,0,1,1.27,3.789h-3.32a4.067,4.067,0,0,0-.84-2.168q-1.211-1.387-4.2-1.387a5.019,5.019,0,0,0-3.018.762,2.387,2.387,0,0,0-1.025,2.012,2.476,2.476,0,0,0,1.348,2.188,8.1,8.1,0,0,0,2.3.859l2.324.566a17.971,17.971,0,0,1,5.078,1.777,4.706,4.706,0,0,1,2.051,4.238,6.459,6.459,0,0,1-2.119,4.824Q486.772.8,482.436.8q-4.668,0-6.611-2.119a8.014,8.014,0,0,1-2.08-5.244Z" transform="translate(138.809 414.688)" fill="#fff"/>
  </g>
</svg>
