<svg xmlns="http://www.w3.org/2000/svg" xmlns:xlink="http://www.w3.org/1999/xlink" width="400" height="400" viewBox="0 0 1080 1080">
  <defs>
    <filter id="Path_31369" x="377.386" y="596.892" width="447" height="128" filterUnits="userSpaceOnUse">
      <feOffset dx="5" dy="5" input="SourceAlpha"/>
      <feGaussianBlur stdDeviation="10" result="blur"/>
      <feFlood flood-color="#004280" flood-opacity="0.2"/>
      <feComposite operator="in" in2="blur"/>
      <feComposite in="SourceGraphic"/>
    </filter>
    <clipPath id="clip-contact-search_5-textline3">
      <rect width="1080" height="1080"/>
    </clipPath>
  </defs>
  <g id="contact-search_5-textline3" clip-path="url(#clip-contact-search_5-textline3)">
    <path id="Path_75766" data-name="Path 75766" d="M11.339.407A9.837,9.837,0,0,1,6.208-.874,8.538,8.538,0,0,1,2.9-4.487,12.124,12.124,0,0,1,1.734-9.96,12.239,12.239,0,0,1,2.9-15.425a8.917,8.917,0,0,1,3.259-3.692,8.977,8.977,0,0,1,4.907-1.327,9.889,9.889,0,0,1,3.311.565,8.02,8.02,0,0,1,2.877,1.774,8.341,8.341,0,0,1,2.01,3.134A13.119,13.119,0,0,1,20-10.3v1.393H3.955v-2.943H16.148a5.838,5.838,0,0,0-.631-2.753,4.794,4.794,0,0,0-1.767-1.9,4.991,4.991,0,0,0-2.661-.7,5.128,5.128,0,0,0-2.884.808,5.461,5.461,0,0,0-1.892,2.1,6.059,6.059,0,0,0-.664,2.805v2.3a7.574,7.574,0,0,0,.716,3.442,5.048,5.048,0,0,0,2,2.161,5.918,5.918,0,0,0,3.009.742,6.132,6.132,0,0,0,2.037-.322A4.325,4.325,0,0,0,15-4.126a4.224,4.224,0,0,0,1.025-1.59l3.718.67a6.718,6.718,0,0,1-1.6,2.871A7.734,7.734,0,0,1,15.274-.269,10.728,10.728,0,0,1,11.339.407ZM29.691.447a8.176,8.176,0,0,1-3.469-.716,5.754,5.754,0,0,1-2.45-2.083,5.959,5.959,0,0,1-.9-3.35,5.431,5.431,0,0,1,.657-2.812A4.848,4.848,0,0,1,25.3-10.262a9.264,9.264,0,0,1,2.5-.972,24.819,24.819,0,0,1,2.812-.5q1.813-.21,2.943-.348a4.261,4.261,0,0,0,1.642-.453,1.111,1.111,0,0,0,.512-1.025v-.092a3.564,3.564,0,0,0-.966-2.667,3.946,3.946,0,0,0-2.871-.946,5,5,0,0,0-3.121.874,4.737,4.737,0,0,0-1.57,1.938l-3.692-.841a7.122,7.122,0,0,1,1.925-2.976,7.839,7.839,0,0,1,2.923-1.656,11.572,11.572,0,0,1,3.482-.519,12.652,12.652,0,0,1,2.569.282,7.677,7.677,0,0,1,2.549,1.031A5.7,5.7,0,0,1,38.889-17a7.427,7.427,0,0,1,.762,3.594V0H35.814V-2.759h-.158a5.59,5.59,0,0,1-1.143,1.5A6.073,6.073,0,0,1,32.556-.039,7.6,7.6,0,0,1,29.691.447Zm.854-3.153a5.682,5.682,0,0,0,2.792-.644,4.552,4.552,0,0,0,1.774-1.688,4.363,4.363,0,0,0,.611-2.24v-2.6a1.991,1.991,0,0,1-.808.388,11.141,11.141,0,0,1-1.36.3q-.762.125-1.485.223L30.861-8.8a9.616,9.616,0,0,0-2.083.486,3.562,3.562,0,0,0-1.5.979,2.469,2.469,0,0,0-.558,1.688,2.5,2.5,0,0,0,1.077,2.2A4.735,4.735,0,0,0,30.545-2.707ZM44.325,0V-20.182h3.8v3.206h.21a4.9,4.9,0,0,1,1.951-2.569,5.562,5.562,0,0,1,3.173-.939q.368,0,.874.026t.795.066v3.758a7.633,7.633,0,0,0-.841-.151,8.629,8.629,0,0,0-1.209-.085,5.134,5.134,0,0,0-2.477.585,4.444,4.444,0,0,0-1.715,1.616,4.405,4.405,0,0,0-.631,2.345V0Zm17.59-11.983V0H57.987V-20.182h3.771V-16.9h.25A5.756,5.756,0,0,1,64.2-19.472a6.762,6.762,0,0,1,3.764-.972,7.324,7.324,0,0,1,3.613.861,5.839,5.839,0,0,1,2.4,2.556,9.256,9.256,0,0,1,.854,4.191V0H70.9V-12.364A4.881,4.881,0,0,0,69.76-15.8a4.057,4.057,0,0,0-3.14-1.242,4.883,4.883,0,0,0-2.424.591,4.207,4.207,0,0,0-1.669,1.728A5.714,5.714,0,0,0,61.916-11.983ZM79.532,0V-20.182h3.929V0Zm1.984-23.3a2.462,2.462,0,0,1-1.754-.69,2.192,2.192,0,0,1-.729-1.649,2.206,2.206,0,0,1,.729-1.662,2.462,2.462,0,0,1,1.754-.69,2.462,2.462,0,0,1,1.754.69A2.206,2.206,0,0,1,84-25.635a2.192,2.192,0,0,1-.729,1.649A2.462,2.462,0,0,1,81.516-23.3Zm10.6,11.313V0H88.188V-20.182h3.771V-16.9h.25A5.756,5.756,0,0,1,94.4-19.472a6.762,6.762,0,0,1,3.764-.972,7.324,7.324,0,0,1,3.613.861,5.839,5.839,0,0,1,2.4,2.556,9.256,9.256,0,0,1,.854,4.191V0H101.1V-12.364A4.881,4.881,0,0,0,99.96-15.8a4.057,4.057,0,0,0-3.14-1.242,4.883,4.883,0,0,0-2.424.591,4.207,4.207,0,0,0-1.669,1.728A5.714,5.714,0,0,0,92.116-11.983ZM118.195,7.949a12.076,12.076,0,0,1-4.132-.631,8.064,8.064,0,0,1-2.818-1.662,7.029,7.029,0,0,1-1.629-2.24l3.377-1.393a8.769,8.769,0,0,0,.953,1.2,4.925,4.925,0,0,0,1.629,1.1,6.58,6.58,0,0,0,2.661.46,6.048,6.048,0,0,0,3.692-1.077A3.965,3.965,0,0,0,123.384.289V-3.679h-.25a9.152,9.152,0,0,1-1.018,1.432A5.62,5.62,0,0,1,120.3-.88a6.744,6.744,0,0,1-3.009.578,8.333,8.333,0,0,1-4.3-1.123,7.816,7.816,0,0,1-3.022-3.324,11.95,11.95,0,0,1-1.11-5.42,12.719,12.719,0,0,1,1.1-5.518,8.316,8.316,0,0,1,3.015-3.528,7.89,7.89,0,0,1,4.349-1.229,6.383,6.383,0,0,1,3.035.624,5.688,5.688,0,0,1,1.807,1.452,11.835,11.835,0,0,1,1.005,1.458h.289v-3.272h3.85V.447a7.023,7.023,0,0,1-1.209,4.237,7.133,7.133,0,0,1-3.265,2.464A12.668,12.668,0,0,1,118.195,7.949Zm-.039-11.51a5.007,5.007,0,0,0,2.871-.795,4.921,4.921,0,0,0,1.787-2.286,9.432,9.432,0,0,0,.611-3.58,9.834,9.834,0,0,0-.6-3.587,5.374,5.374,0,0,0-1.774-2.424,4.693,4.693,0,0,0-2.891-.874,4.693,4.693,0,0,0-2.956.913,5.547,5.547,0,0,0-1.78,2.477,9.72,9.72,0,0,0-.6,3.5,9.261,9.261,0,0,0,.6,3.482A5.133,5.133,0,0,0,115.218-4.4,4.958,4.958,0,0,0,118.155-3.561ZM147.134.447a8.176,8.176,0,0,1-3.469-.716,5.754,5.754,0,0,1-2.45-2.083,5.959,5.959,0,0,1-.9-3.35,5.431,5.431,0,0,1,.657-2.812,4.848,4.848,0,0,1,1.774-1.748,9.264,9.264,0,0,1,2.5-.972,24.819,24.819,0,0,1,2.812-.5q1.813-.21,2.943-.348a4.261,4.261,0,0,0,1.642-.453,1.111,1.111,0,0,0,.512-1.025v-.092a3.564,3.564,0,0,0-.966-2.667,3.946,3.946,0,0,0-2.871-.946,5,5,0,0,0-3.121.874,4.737,4.737,0,0,0-1.57,1.938l-3.692-.841a7.122,7.122,0,0,1,1.925-2.976,7.839,7.839,0,0,1,2.923-1.656,11.572,11.572,0,0,1,3.482-.519,12.652,12.652,0,0,1,2.569.282,7.677,7.677,0,0,1,2.549,1.031A5.7,5.7,0,0,1,156.331-17a7.426,7.426,0,0,1,.762,3.594V0h-3.837V-2.759H153.1a5.59,5.59,0,0,1-1.143,1.5A6.073,6.073,0,0,1,150-.039,7.6,7.6,0,0,1,147.134.447Zm.854-3.153a5.683,5.683,0,0,0,2.792-.644,4.552,4.552,0,0,0,1.774-1.688,4.363,4.363,0,0,0,.611-2.24v-2.6a1.991,1.991,0,0,1-.808.388,11.141,11.141,0,0,1-1.36.3q-.762.125-1.485.223L148.3-8.8a9.616,9.616,0,0,0-2.083.486,3.562,3.562,0,0,0-1.5.979,2.469,2.469,0,0,0-.558,1.688,2.5,2.5,0,0,0,1.077,2.2A4.735,4.735,0,0,0,147.988-2.707ZM165.7-11.983V0h-3.929V-20.182h3.771V-16.9h.25a5.756,5.756,0,0,1,2.188-2.575,6.762,6.762,0,0,1,3.764-.972,7.324,7.324,0,0,1,3.613.861,5.839,5.839,0,0,1,2.4,2.556,9.256,9.256,0,0,1,.854,4.191V0h-3.929V-12.364a4.881,4.881,0,0,0-1.143-3.436,4.057,4.057,0,0,0-3.14-1.242,4.883,4.883,0,0,0-2.424.591,4.207,4.207,0,0,0-1.669,1.728A5.714,5.714,0,0,0,165.7-11.983ZM201.258.407a9.837,9.837,0,0,1-5.131-1.281,8.538,8.538,0,0,1-3.311-3.613,12.124,12.124,0,0,1-1.163-5.472,12.239,12.239,0,0,1,1.163-5.466,8.917,8.917,0,0,1,3.259-3.692,8.977,8.977,0,0,1,4.908-1.327,9.889,9.889,0,0,1,3.311.565,8.019,8.019,0,0,1,2.877,1.774,8.341,8.341,0,0,1,2.01,3.134,13.119,13.119,0,0,1,.736,4.671v1.393H193.874v-2.943h12.193a5.838,5.838,0,0,0-.631-2.753,4.794,4.794,0,0,0-1.767-1.9,4.991,4.991,0,0,0-2.661-.7,5.128,5.128,0,0,0-2.884.808,5.461,5.461,0,0,0-1.892,2.1,6.059,6.059,0,0,0-.664,2.805v2.3a7.574,7.574,0,0,0,.716,3.442,5.048,5.048,0,0,0,2,2.161,5.918,5.918,0,0,0,3.009.742,6.132,6.132,0,0,0,2.037-.322,4.325,4.325,0,0,0,1.59-.966,4.224,4.224,0,0,0,1.025-1.59l3.718.67a6.718,6.718,0,0,1-1.6,2.871,7.734,7.734,0,0,1-2.877,1.905A10.728,10.728,0,0,1,201.258.407Zm27.6-15.662-3.561.631a4.289,4.289,0,0,0-.7-1.3,3.572,3.572,0,0,0-1.294-1.012,4.663,4.663,0,0,0-2.037-.394,4.926,4.926,0,0,0-2.786.742,2.222,2.222,0,0,0-1.117,1.912,2.008,2.008,0,0,0,.749,1.629,6.064,6.064,0,0,0,2.418,1.012l3.206.736a8.6,8.6,0,0,1,4.152,1.984,4.661,4.661,0,0,1,1.366,3.482,5.284,5.284,0,0,1-1.045,3.226,6.917,6.917,0,0,1-2.9,2.214,10.79,10.79,0,0,1-4.3.8,9.667,9.667,0,0,1-5.532-1.452,6.087,6.087,0,0,1-2.628-4.132l3.8-.578a3.608,3.608,0,0,0,1.458,2.24,5,5,0,0,0,2.877.756,5.294,5.294,0,0,0,3.088-.808,2.363,2.363,0,0,0,1.156-1.977,2.07,2.07,0,0,0-.7-1.59,4.7,4.7,0,0,0-2.148-.972l-3.416-.749a8.165,8.165,0,0,1-4.172-2.05,4.94,4.94,0,0,1-1.347-3.561,5.09,5.09,0,0,1,1-3.127,6.586,6.586,0,0,1,2.759-2.1,10.147,10.147,0,0,1,4.034-.756,8.393,8.393,0,0,1,5.151,1.412A6.631,6.631,0,0,1,228.86-15.255Zm13.57-4.927v3.153H231.406v-3.153Zm-8.067-4.835h3.929V-5.926a3.411,3.411,0,0,0,.342,1.715,1.737,1.737,0,0,0,.887.775,3.373,3.373,0,0,0,1.189.2,4.594,4.594,0,0,0,.828-.066q.355-.066.552-.105l.71,3.245a7.055,7.055,0,0,1-.972.269,8.074,8.074,0,0,1-1.577.151,6.917,6.917,0,0,1-2.891-.552,4.958,4.958,0,0,1-2.168-1.787,5.252,5.252,0,0,1-.828-3.035ZM246.211,0V-20.182h3.929V0Zm1.984-23.3a2.462,2.462,0,0,1-1.754-.69,2.192,2.192,0,0,1-.729-1.649,2.206,2.206,0,0,1,.729-1.662,2.462,2.462,0,0,1,1.754-.69,2.462,2.462,0,0,1,1.754.69,2.206,2.206,0,0,1,.729,1.662,2.192,2.192,0,0,1-.729,1.649A2.462,2.462,0,0,1,248.195-23.3ZM254.866,0V-20.182h3.771V-16.9h.25a5.249,5.249,0,0,1,2.063-2.608,6.112,6.112,0,0,1,3.429-.939,5.845,5.845,0,0,1,3.4.946,5.562,5.562,0,0,1,2.03,2.6h.21a5.717,5.717,0,0,1,2.3-2.582,7.055,7.055,0,0,1,3.758-.966,6.111,6.111,0,0,1,4.487,1.721,7,7,0,0,1,1.741,5.19V0h-3.929V-13.165a3.633,3.633,0,0,0-1.117-2.969,4.062,4.062,0,0,0-2.667-.92,3.817,3.817,0,0,0-2.983,1.176,4.322,4.322,0,0,0-1.064,3.015V0h-3.915V-13.415a3.52,3.52,0,0,0-1.025-2.641,3.66,3.66,0,0,0-2.667-1,3.817,3.817,0,0,0-2.056.585,4.323,4.323,0,0,0-1.511,1.623,4.9,4.9,0,0,0-.572,2.4V0Zm38.009.447a8.176,8.176,0,0,1-3.469-.716,5.754,5.754,0,0,1-2.45-2.083,5.959,5.959,0,0,1-.9-3.35,5.431,5.431,0,0,1,.657-2.812,4.848,4.848,0,0,1,1.774-1.748,9.264,9.264,0,0,1,2.5-.972,24.818,24.818,0,0,1,2.812-.5q1.813-.21,2.943-.348a4.261,4.261,0,0,0,1.642-.453,1.111,1.111,0,0,0,.512-1.025v-.092a3.564,3.564,0,0,0-.966-2.667,3.946,3.946,0,0,0-2.871-.946,5,5,0,0,0-3.121.874,4.737,4.737,0,0,0-1.57,1.938l-3.692-.841A7.122,7.122,0,0,1,288.6-18.27a7.84,7.84,0,0,1,2.923-1.656A11.572,11.572,0,0,1,295-20.445a12.652,12.652,0,0,1,2.569.282,7.677,7.677,0,0,1,2.549,1.031A5.7,5.7,0,0,1,302.072-17a7.426,7.426,0,0,1,.762,3.594V0H299V-2.759h-.158a5.591,5.591,0,0,1-1.143,1.5,6.073,6.073,0,0,1-1.958,1.222A7.6,7.6,0,0,1,292.875.447Zm.854-3.153a5.682,5.682,0,0,0,2.792-.644,4.552,4.552,0,0,0,1.774-1.688,4.363,4.363,0,0,0,.611-2.24v-2.6a1.991,1.991,0,0,1-.808.388,11.142,11.142,0,0,1-1.36.3q-.762.125-1.485.223l-1.209.164a9.617,9.617,0,0,0-2.083.486,3.562,3.562,0,0,0-1.5.979,2.469,2.469,0,0,0-.558,1.688,2.5,2.5,0,0,0,1.077,2.2A4.735,4.735,0,0,0,293.729-2.707Zm23.2-17.475v3.153H305.906v-3.153Zm-8.067-4.835h3.929V-5.926a3.411,3.411,0,0,0,.342,1.715,1.737,1.737,0,0,0,.887.775,3.373,3.373,0,0,0,1.189.2,4.6,4.6,0,0,0,.828-.066q.355-.066.552-.105l.71,3.245a7.056,7.056,0,0,1-.972.269,8.074,8.074,0,0,1-1.577.151,6.917,6.917,0,0,1-2.891-.552,4.958,4.958,0,0,1-2.168-1.787,5.251,5.251,0,0,1-.828-3.035ZM329.2.407a9.837,9.837,0,0,1-5.131-1.281,8.538,8.538,0,0,1-3.311-3.613,12.124,12.124,0,0,1-1.163-5.472,12.239,12.239,0,0,1,1.163-5.466,8.918,8.918,0,0,1,3.259-3.692,8.977,8.977,0,0,1,4.907-1.327,9.889,9.889,0,0,1,3.311.565,8.02,8.02,0,0,1,2.877,1.774,8.341,8.341,0,0,1,2.01,3.134,13.119,13.119,0,0,1,.736,4.671v1.393H321.814v-2.943h12.193a5.838,5.838,0,0,0-.631-2.753,4.794,4.794,0,0,0-1.767-1.9,4.991,4.991,0,0,0-2.661-.7,5.128,5.128,0,0,0-2.884.808,5.461,5.461,0,0,0-1.892,2.1,6.059,6.059,0,0,0-.664,2.805v2.3a7.574,7.574,0,0,0,.716,3.442,5.048,5.048,0,0,0,2,2.161,5.918,5.918,0,0,0,3.009.742,6.132,6.132,0,0,0,2.037-.322,4.325,4.325,0,0,0,1.59-.966,4.223,4.223,0,0,0,1.025-1.59l3.718.67a6.718,6.718,0,0,1-1.6,2.871,7.734,7.734,0,0,1-2.878,1.905A10.728,10.728,0,0,1,329.2.407ZM349.233.394a7.759,7.759,0,0,1-4.356-1.255,8.394,8.394,0,0,1-3-3.587,13.213,13.213,0,0,1-1.084-5.6,13.032,13.032,0,0,1,1.1-5.6,8.334,8.334,0,0,1,3.015-3.561,7.859,7.859,0,0,1,4.349-1.235,6.343,6.343,0,0,1,3.029.624,5.55,5.55,0,0,1,1.787,1.452,12.581,12.581,0,0,1,.992,1.458h.237v-10h3.929V0h-3.837V-3.14h-.328a10.657,10.657,0,0,1-1.018,1.472,5.774,5.774,0,0,1-1.82,1.445A6.342,6.342,0,0,1,349.233.394Zm.867-3.35a4.584,4.584,0,0,0,2.871-.9,5.547,5.547,0,0,0,1.787-2.5,10.447,10.447,0,0,0,.611-3.732,10.25,10.25,0,0,0-.6-3.679,5.4,5.4,0,0,0-1.774-2.457,4.669,4.669,0,0,0-2.891-.88,4.67,4.67,0,0,0-2.956.92,5.577,5.577,0,0,0-1.78,2.51,10.134,10.134,0,0,0-.6,3.587,10.332,10.332,0,0,0,.6,3.64A5.721,5.721,0,0,0,347.163-3.9,4.59,4.59,0,0,0,350.1-2.956Z" transform="translate(9 665.072)" fill="#4d4d4d"/>
    <g transform="matrix(1, 0, 0, 1, 0, 0)" filter="url(#Path_31369)">
      <path id="Path_31369-2" data-name="Path 31369" d="M5.609,0H381.391C384.489,0,387,2.124,387,4.744V63.256c0,2.62-2.511,4.744-5.609,4.744H5.609C2.511,68,0,65.876,0,63.256V4.744C0,2.124,2.511,0,5.609,0Z" transform="translate(402.39 621.89)" fill="#0aa1ff"/>
    </g>
    <path id="Path_80956" data-name="Path 80956" d="M12.232-2.082q3.423-.16,4.725-2.5a5.547,5.547,0,0,0,.681-2.783,4.363,4.363,0,0,0-1.842-3.8,11.753,11.753,0,0,0-3.563-1.441ZM5.445-21.4a3.865,3.865,0,0,0,1.311,3.1,7.617,7.617,0,0,0,3.533,1.562v-9.409a4.575,4.575,0,0,0-3.734,1.6A5.209,5.209,0,0,0,5.445-21.4Zm-3.6.24a7.927,7.927,0,0,1,2.232-5.485,8.165,8.165,0,0,1,6.256-2.482v-2.663h1.9v2.623a9.419,9.419,0,0,1,6.116,2.352,7.62,7.62,0,0,1,2.232,5.475h-3.5a5.956,5.956,0,0,0-.821-2.623,4.6,4.6,0,0,0-4.024-2.122v9.729a23.682,23.682,0,0,1,6.306,2.442,6.343,6.343,0,0,1,2.7,5.565q0,5.325-3.463,7.567A12.949,12.949,0,0,1,12.232.861V4.745h-1.9V.861Q4.5.48,2.422-3.263A11.134,11.134,0,0,1,1.281-8.729H4.825a9.831,9.831,0,0,0,.861,4q1.241,2.262,4.6,2.542V-13.093A12.75,12.75,0,0,1,3.9-15.835,6.922,6.922,0,0,1,1.842-21.161Zm24.269.861v-2.763a14.68,14.68,0,0,0,5.445-1.271q1.542-.891,2.3-4.214H36.7V0H32.858V-20.3ZM47.4-29.409H53.1L61.551-4.544l8.388-24.864h5.646V0H71.8V-17.357q0-.9.04-2.983t.04-4.464L63.493,0H59.549L51.1-24.8v.9q0,1.081.05,3.293t.05,3.253V0H47.4ZM79.614-13.273h10.05v3.7H79.614ZM103.183-2.082q3.423-.16,4.725-2.5a5.547,5.547,0,0,0,.681-2.783,4.363,4.363,0,0,0-1.842-3.8,11.753,11.753,0,0,0-3.563-1.441ZM96.4-21.4a3.865,3.865,0,0,0,1.311,3.1,7.617,7.617,0,0,0,3.533,1.562v-9.409a4.575,4.575,0,0,0-3.734,1.6A5.209,5.209,0,0,0,96.4-21.4Zm-3.6.24a7.927,7.927,0,0,1,2.232-5.485,8.165,8.165,0,0,1,6.256-2.482v-2.663h1.9v2.623a9.419,9.419,0,0,1,6.116,2.352,7.62,7.62,0,0,1,2.232,5.475h-3.5a5.956,5.956,0,0,0-.821-2.623,4.6,4.6,0,0,0-4.024-2.122v9.729a23.682,23.682,0,0,1,6.306,2.442,6.343,6.343,0,0,1,2.7,5.565q0,5.325-3.463,7.567A12.949,12.949,0,0,1,103.183.861V4.745h-1.9V.861Q95.456.48,93.373-3.263a11.134,11.134,0,0,1-1.141-5.465h3.543a9.831,9.831,0,0,0,.861,4q1.241,2.262,4.6,2.542V-13.093a12.75,12.75,0,0,1-6.386-2.743A6.922,6.922,0,0,1,92.793-21.161ZM118.2-7.307a5,5,0,0,0,2.863,4.264,6.909,6.909,0,0,0,2.963.6,5.562,5.562,0,0,0,4.745-2.042,7.334,7.334,0,0,0,1.542-4.524,5.914,5.914,0,0,0-1.832-4.645,6.358,6.358,0,0,0-4.394-1.642,6.619,6.619,0,0,0-3.193.721,6.84,6.84,0,0,0-2.272,2l-3.123-.18,2.182-15.435h14.895V-24.7H120.385l-1.221,7.968a8.953,8.953,0,0,1,1.9-1.141,9.654,9.654,0,0,1,3.7-.661A9.476,9.476,0,0,1,131.456-16,8.409,8.409,0,0,1,134.2-9.549a11.061,11.061,0,0,1-2.512,7.167q-2.512,3.1-8.018,3.1a10.212,10.212,0,0,1-6.2-1.972,7.822,7.822,0,0,1-3.013-6.056Zm20.145-22.1h5.706L152.5-4.544l8.388-24.864h5.646V0h-3.784V-17.357q0-.9.04-2.983t.04-4.464L154.444,0H150.5l-8.448-24.8v.9q0,1.081.05,3.293t.05,3.253V0h-3.8Zm58.088,13.473a7.72,7.72,0,0,0,4.434-1.121Q202.5-18.178,202.5-21.1q0-3.143-2.282-4.284a7.458,7.458,0,0,0-3.263-.6h-9.729v10.05ZM183.244-29.409h13.613a13.577,13.577,0,0,1,5.545.981q4.144,1.882,4.144,6.947a7.812,7.812,0,0,1-1.091,4.324,7.884,7.884,0,0,1-3.053,2.7,6.016,6.016,0,0,1,2.593,1.842,6.615,6.615,0,0,1,.971,3.7l.14,3.944a12.124,12.124,0,0,0,.28,2.5,2.461,2.461,0,0,0,1.281,1.8V0h-4.885a3.674,3.674,0,0,1-.32-.981,18.83,18.83,0,0,1-.2-2.322l-.24-4.9q-.14-2.883-2.142-3.864a8.86,8.86,0,0,0-3.583-.541h-9.069V0h-3.984Zm36.962,7.487a9.78,9.78,0,0,1,4.424,1.071,8.159,8.159,0,0,1,3.263,2.773,9.566,9.566,0,0,1,1.441,3.784,24.755,24.755,0,0,1,.32,4.725H213.939a9.17,9.17,0,0,0,1.542,5.235,5.162,5.162,0,0,0,4.464,1.972,5.771,5.771,0,0,0,4.5-1.862,6.276,6.276,0,0,0,1.361-2.5h3.543a7.463,7.463,0,0,1-.931,2.633,9.363,9.363,0,0,1-1.772,2.372A8.4,8.4,0,0,1,222.588.44a12.346,12.346,0,0,1-2.943.32,9.029,9.029,0,0,1-6.787-2.913q-2.783-2.913-2.783-8.158a12.323,12.323,0,0,1,2.8-8.388A9.246,9.246,0,0,1,220.205-21.921Zm5.746,9.489a9.336,9.336,0,0,0-1.021-3.744,5.233,5.233,0,0,0-4.945-2.6,5.481,5.481,0,0,0-4.164,1.792,6.768,6.768,0,0,0-1.782,4.554Zm9.275-9.009,5.726,17.457,5.986-17.457h3.944L242.793,0h-3.844l-7.908-21.441Zm27.052-.48A9.78,9.78,0,0,1,266.7-20.85a8.159,8.159,0,0,1,3.263,2.773,9.566,9.566,0,0,1,1.441,3.784,24.756,24.756,0,0,1,.32,4.725H256.011a9.17,9.17,0,0,0,1.542,5.235,5.162,5.162,0,0,0,4.464,1.972,5.771,5.771,0,0,0,4.5-1.862,6.276,6.276,0,0,0,1.361-2.5h3.543a7.462,7.462,0,0,1-.931,2.633,9.364,9.364,0,0,1-1.772,2.372A8.4,8.4,0,0,1,264.66.44a12.346,12.346,0,0,1-2.943.32,9.029,9.029,0,0,1-6.787-2.913q-2.783-2.913-2.783-8.158a12.323,12.323,0,0,1,2.8-8.388A9.246,9.246,0,0,1,262.277-21.921Zm5.746,9.489A9.336,9.336,0,0,0,267-16.176a5.233,5.233,0,0,0-4.945-2.6,5.481,5.481,0,0,0-4.164,1.792,6.769,6.769,0,0,0-1.782,4.554Zm7.513-9.009h3.423V-18.4a9.6,9.6,0,0,1,3.223-2.7,8.6,8.6,0,0,1,3.784-.821q4.564,0,6.166,3.183a11.3,11.3,0,0,1,.881,4.985V0h-3.664V-13.513a7.317,7.317,0,0,0-.581-3.163,3.52,3.52,0,0,0-3.483-2,7.093,7.093,0,0,0-2.1.26,5.413,5.413,0,0,0-2.6,1.762,5.3,5.3,0,0,0-1.171,2.192,14.756,14.756,0,0,0-.27,3.233V0h-3.6Zm25.791,0V-7.207a6,6,0,0,0,.521,2.683A3.632,3.632,0,0,0,305.431-2.6a5.065,5.065,0,0,0,5.125-3.363,13.344,13.344,0,0,0,.741-4.945v-10.53h3.6V0h-3.4l.04-3.163A7.269,7.269,0,0,1,309.8-1.1a7.664,7.664,0,0,1-5,1.682q-4.584,0-6.246-3.063a9.122,9.122,0,0,1-.9-4.384V-21.441Zm27.512-.48a9.78,9.78,0,0,1,4.424,1.071,8.159,8.159,0,0,1,3.263,2.773,9.566,9.566,0,0,1,1.441,3.784,24.756,24.756,0,0,1,.32,4.725H322.573a9.17,9.17,0,0,0,1.542,5.235,5.162,5.162,0,0,0,4.464,1.972,5.771,5.771,0,0,0,4.5-1.862,6.276,6.276,0,0,0,1.361-2.5h3.543a7.462,7.462,0,0,1-.931,2.633,9.364,9.364,0,0,1-1.772,2.372A8.4,8.4,0,0,1,331.222.44a12.346,12.346,0,0,1-2.943.32,9.029,9.029,0,0,1-6.787-2.913q-2.783-2.913-2.783-8.158a12.323,12.323,0,0,1,2.8-8.388A9.246,9.246,0,0,1,328.839-21.921Zm5.746,9.489a9.336,9.336,0,0,0-1.021-3.744,5.233,5.233,0,0,0-4.945-2.6,5.481,5.481,0,0,0-4.164,1.792,6.769,6.769,0,0,0-1.782,4.554Z" transform="translate(426.101 670.892)" fill="#fff"/>
  </g>
</svg>
