<svg xmlns="http://www.w3.org/2000/svg" xmlns:xlink="http://www.w3.org/1999/xlink" width="400" height="400" viewBox="0 0 1080 1080">
  <defs>
    <filter id="Path_80954" x="252.147" y="718.418" width="345" height="128" filterUnits="userSpaceOnUse">
      <feOffset dx="5" dy="5" input="SourceAlpha"/>
      <feGaussianBlur stdDeviation="10" result="blur"/>
      <feFlood flood-color="#004280" flood-opacity="0.2"/>
      <feComposite operator="in" in2="blur"/>
      <feComposite in="SourceGraphic"/>
    </filter>
    <clipPath id="clip-contact-search_6-textline4">
      <rect width="1080" height="1080"/>
    </clipPath>
  </defs>
  <g id="contact-search_6-textline4" clip-path="url(#clip-contact-search_6-textline4)">
    <path id="Path_75765" data-name="Path 75765" d="M6.57-26.909V0H2.641V-26.909ZM19.8.407a9.266,9.266,0,0,1-4.953-1.3,8.771,8.771,0,0,1-3.285-3.64A12.077,12.077,0,0,1,10.39-10a12.192,12.192,0,0,1,1.169-5.492,8.754,8.754,0,0,1,3.285-3.653,9.266,9.266,0,0,1,4.953-1.3,9.266,9.266,0,0,1,4.953,1.3,8.754,8.754,0,0,1,3.285,3.653A12.192,12.192,0,0,1,29.205-10a12.077,12.077,0,0,1-1.169,5.466,8.771,8.771,0,0,1-3.285,3.64A9.266,9.266,0,0,1,19.8.407Zm.013-3.3a4.709,4.709,0,0,0,3.048-.972,5.742,5.742,0,0,0,1.794-2.588,10.4,10.4,0,0,0,.585-3.561,10.415,10.415,0,0,0-.585-3.554,5.828,5.828,0,0,0-1.794-2.608,4.667,4.667,0,0,0-3.048-.985,4.714,4.714,0,0,0-3.068.985,5.806,5.806,0,0,0-1.8,2.608,10.415,10.415,0,0,0-.585,3.554,10.4,10.4,0,0,0,.585,3.561,5.72,5.72,0,0,0,1.8,2.588A4.756,4.756,0,0,0,19.811-2.891ZM41.527.407A9.231,9.231,0,0,1,36.488-.926a8.727,8.727,0,0,1-3.239-3.686A12.293,12.293,0,0,1,32.119-10a12.193,12.193,0,0,1,1.156-5.433,8.866,8.866,0,0,1,3.259-3.686,9.083,9.083,0,0,1,4.953-1.327,9.514,9.514,0,0,1,4.1.847,7.457,7.457,0,0,1,2.91,2.372,7.18,7.18,0,0,1,1.32,3.561H45.994a4.6,4.6,0,0,0-1.439-2.444,4.283,4.283,0,0,0-3-1.025,4.877,4.877,0,0,0-2.871.861,5.6,5.6,0,0,0-1.912,2.444,9.384,9.384,0,0,0-.683,3.738,9.846,9.846,0,0,0,.67,3.81,5.639,5.639,0,0,0,1.9,2.483,4.843,4.843,0,0,0,2.9.88,4.861,4.861,0,0,0,2.03-.414A4.14,4.14,0,0,0,45.12-4.52a4.543,4.543,0,0,0,.874-1.866h3.824a7.429,7.429,0,0,1-1.275,3.5A7.345,7.345,0,0,1,45.7-.473,9.306,9.306,0,0,1,41.527.407ZM59.353.447a8.176,8.176,0,0,1-3.469-.716,5.754,5.754,0,0,1-2.45-2.083,5.959,5.959,0,0,1-.9-3.35,5.431,5.431,0,0,1,.657-2.812,4.848,4.848,0,0,1,1.774-1.748,9.264,9.264,0,0,1,2.5-.972,24.819,24.819,0,0,1,2.812-.5q1.813-.21,2.943-.348a4.261,4.261,0,0,0,1.642-.453,1.111,1.111,0,0,0,.512-1.025v-.092a3.564,3.564,0,0,0-.966-2.667,3.946,3.946,0,0,0-2.871-.946,5,5,0,0,0-3.121.874,4.737,4.737,0,0,0-1.57,1.938l-3.692-.841a7.122,7.122,0,0,1,1.925-2.976A7.839,7.839,0,0,1,58-19.926a11.572,11.572,0,0,1,3.482-.519,12.652,12.652,0,0,1,2.569.282A7.677,7.677,0,0,1,66.6-19.131,5.7,5.7,0,0,1,68.551-17a7.427,7.427,0,0,1,.762,3.594V0H65.476V-2.759h-.158a5.59,5.59,0,0,1-1.143,1.5A6.073,6.073,0,0,1,62.218-.039,7.6,7.6,0,0,1,59.353.447Zm.854-3.153A5.682,5.682,0,0,0,63-3.35a4.551,4.551,0,0,0,1.774-1.688,4.363,4.363,0,0,0,.611-2.24v-2.6a1.991,1.991,0,0,1-.808.388,11.141,11.141,0,0,1-1.36.3q-.762.125-1.485.223L60.523-8.8a9.616,9.616,0,0,0-2.083.486,3.562,3.562,0,0,0-1.5.979,2.469,2.469,0,0,0-.558,1.688,2.5,2.5,0,0,0,1.077,2.2A4.735,4.735,0,0,0,60.208-2.707Zm23.2-17.475v3.153H72.384v-3.153Zm-8.067-4.835h3.929V-5.926a3.411,3.411,0,0,0,.342,1.715,1.737,1.737,0,0,0,.887.775,3.373,3.373,0,0,0,1.189.2,4.594,4.594,0,0,0,.828-.066q.355-.066.552-.105l.71,3.245A7.055,7.055,0,0,1,82.8.112a8.073,8.073,0,0,1-1.577.151,6.917,6.917,0,0,1-2.891-.552,4.958,4.958,0,0,1-2.168-1.787,5.251,5.251,0,0,1-.828-3.035ZM95.677.407A9.837,9.837,0,0,1,90.546-.874a8.538,8.538,0,0,1-3.311-3.613A12.124,12.124,0,0,1,86.072-9.96a12.239,12.239,0,0,1,1.163-5.466,8.917,8.917,0,0,1,3.259-3.692A8.977,8.977,0,0,1,95.4-20.445a9.889,9.889,0,0,1,3.311.565,8.02,8.02,0,0,1,2.877,1.774,8.341,8.341,0,0,1,2.01,3.134,13.119,13.119,0,0,1,.736,4.671v1.393H88.293v-2.943h12.193a5.838,5.838,0,0,0-.631-2.753,4.794,4.794,0,0,0-1.767-1.9,4.991,4.991,0,0,0-2.661-.7,5.128,5.128,0,0,0-2.884.808,5.461,5.461,0,0,0-1.892,2.1,6.059,6.059,0,0,0-.664,2.805v2.3A7.574,7.574,0,0,0,90.7-5.742a5.048,5.048,0,0,0,2,2.161,5.918,5.918,0,0,0,3.009.742,6.132,6.132,0,0,0,2.037-.322,4.325,4.325,0,0,0,1.59-.966,4.224,4.224,0,0,0,1.025-1.59l3.718.67a6.718,6.718,0,0,1-1.6,2.871A7.734,7.734,0,0,1,99.612-.269,10.728,10.728,0,0,1,95.677.407ZM115.711.394a7.759,7.759,0,0,1-4.356-1.255,8.394,8.394,0,0,1-3-3.587,13.213,13.213,0,0,1-1.084-5.6,13.032,13.032,0,0,1,1.1-5.6,8.334,8.334,0,0,1,3.015-3.561,7.859,7.859,0,0,1,4.349-1.235,6.343,6.343,0,0,1,3.029.624,5.55,5.55,0,0,1,1.787,1.452,12.584,12.584,0,0,1,.992,1.458h.237v-10h3.929V0h-3.837V-3.14h-.328a10.659,10.659,0,0,1-1.018,1.472,5.774,5.774,0,0,1-1.82,1.445A6.342,6.342,0,0,1,115.711.394Zm.867-3.35a4.584,4.584,0,0,0,2.871-.9,5.547,5.547,0,0,0,1.787-2.5,10.447,10.447,0,0,0,.611-3.732,10.25,10.25,0,0,0-.6-3.679,5.4,5.4,0,0,0-1.774-2.457,4.669,4.669,0,0,0-2.891-.88,4.67,4.67,0,0,0-2.956.92,5.577,5.577,0,0,0-1.78,2.51,10.134,10.134,0,0,0-.6,3.587,10.332,10.332,0,0,0,.6,3.64A5.721,5.721,0,0,0,113.642-3.9,4.59,4.59,0,0,0,116.578-2.956ZM140,0V-20.182h3.929V0Zm1.984-23.3a2.462,2.462,0,0,1-1.754-.69,2.192,2.192,0,0,1-.729-1.649,2.206,2.206,0,0,1,.729-1.662,2.462,2.462,0,0,1,1.754-.69,2.462,2.462,0,0,1,1.754.69,2.206,2.206,0,0,1,.729,1.662,2.192,2.192,0,0,1-.729,1.649A2.462,2.462,0,0,1,141.983-23.3Zm10.6,11.313V0h-3.929V-20.182h3.771V-16.9h.25a5.756,5.756,0,0,1,2.188-2.575,6.762,6.762,0,0,1,3.764-.972,7.324,7.324,0,0,1,3.613.861,5.839,5.839,0,0,1,2.4,2.556,9.256,9.256,0,0,1,.854,4.191V0h-3.929V-12.364a4.881,4.881,0,0,0-1.143-3.436,4.057,4.057,0,0,0-3.14-1.242,4.883,4.883,0,0,0-2.424.591,4.207,4.207,0,0,0-1.669,1.728A5.714,5.714,0,0,0,152.583-11.983Zm36.284-8.2v3.153H177.844v-3.153ZM180.8-25.017h3.929V-5.926a3.411,3.411,0,0,0,.342,1.715,1.737,1.737,0,0,0,.887.775,3.373,3.373,0,0,0,1.189.2,4.594,4.594,0,0,0,.828-.066q.355-.066.552-.105l.71,3.245a7.055,7.055,0,0,1-.972.269,8.074,8.074,0,0,1-1.577.151A6.917,6.917,0,0,1,183.8-.289a4.958,4.958,0,0,1-2.168-1.787,5.252,5.252,0,0,1-.828-3.035ZM197-11.983V0h-3.929V-26.909h3.876V-16.9h.25a5.8,5.8,0,0,1,2.168-2.588,6.825,6.825,0,0,1,3.81-.959,7.436,7.436,0,0,1,3.633.854,5.834,5.834,0,0,1,2.418,2.542,9.22,9.22,0,0,1,.861,4.211V0h-3.929V-12.364a4.871,4.871,0,0,0-1.143-3.449,4.129,4.129,0,0,0-3.18-1.229,5.164,5.164,0,0,0-2.49.591,4.22,4.22,0,0,0-1.721,1.728A5.615,5.615,0,0,0,197-11.983ZM223.483.407a9.837,9.837,0,0,1-5.131-1.281,8.538,8.538,0,0,1-3.311-3.613,12.124,12.124,0,0,1-1.163-5.472,12.239,12.239,0,0,1,1.163-5.466,8.917,8.917,0,0,1,3.259-3.692,8.977,8.977,0,0,1,4.908-1.327,9.889,9.889,0,0,1,3.311.565,8.019,8.019,0,0,1,2.877,1.774,8.341,8.341,0,0,1,2.01,3.134,13.119,13.119,0,0,1,.736,4.671v1.393H216.1v-2.943h12.193a5.838,5.838,0,0,0-.631-2.753,4.794,4.794,0,0,0-1.767-1.9,4.991,4.991,0,0,0-2.661-.7,5.128,5.128,0,0,0-2.884.808,5.461,5.461,0,0,0-1.892,2.1,6.059,6.059,0,0,0-.664,2.805v2.3a7.574,7.574,0,0,0,.716,3.442,5.048,5.048,0,0,0,2,2.161,5.918,5.918,0,0,0,3.009.742,6.132,6.132,0,0,0,2.037-.322,4.325,4.325,0,0,0,1.59-.966,4.224,4.224,0,0,0,1.025-1.59l3.718.67a6.718,6.718,0,0,1-1.6,2.871,7.734,7.734,0,0,1-2.877,1.905A10.728,10.728,0,0,1,223.483.407Z" transform="translate(9 790.418)" fill="#4d4d4d"/>
    <g transform="matrix(1, 0, 0, 1, 0, 0)" filter="url(#Path_80954)">
      <path id="Path_80954-2" data-name="Path 80954" d="M3,0H282a3,3,0,0,1,3,3V65a3,3,0,0,1-3,3H3a3,3,0,0,1-3-3V3A3,3,0,0,1,3,0Z" transform="translate(277.15 743.42)" fill="#0065f2"/>
    </g>
    <path id="Path_80955" data-name="Path 80955" d="M7.447-29.409v18.178a10.693,10.693,0,0,0,1.2,5.325q1.782,3.2,6.006,3.2,5.065,0,6.887-3.463a11.026,11.026,0,0,0,.981-5.065V-29.409h4.044v16.516q0,5.425-1.461,8.348Q22.422.781,14.975.781T4.865-4.544Q3.4-7.467,3.4-12.893V-29.409Zm24.189,7.968H35.06V-18.4a9.6,9.6,0,0,1,3.223-2.7,8.6,8.6,0,0,1,3.784-.821q4.564,0,6.166,3.183a11.3,11.3,0,0,1,.881,4.985V0H45.45V-13.513a7.317,7.317,0,0,0-.581-3.163,3.52,3.52,0,0,0-3.483-2,7.093,7.093,0,0,0-2.1.26,5.413,5.413,0,0,0-2.6,1.762,5.3,5.3,0,0,0-1.171,2.192,14.756,14.756,0,0,0-.27,3.233V0h-3.6Zm22.187.1h3.664V0H53.824Zm0-8.068h3.664v4.084H53.824Zm9.215,1.982h3.644v5.986h3.423V-18.5H66.682V-4.5A1.514,1.514,0,0,0,67.443-3a3.234,3.234,0,0,0,1.4.22q.26,0,.561-.01t.7-.05V0a8.044,8.044,0,0,1-1.291.26,12.276,12.276,0,0,1-1.451.08Q64.84.34,63.939-.951a5.738,5.738,0,0,1-.9-3.353V-18.5h-2.9v-2.943h2.9Zm18.984,5.505a9.78,9.78,0,0,1,4.424,1.071,8.159,8.159,0,0,1,3.263,2.773,9.566,9.566,0,0,1,1.441,3.784,24.756,24.756,0,0,1,.32,4.725H75.756A9.17,9.17,0,0,0,77.3-4.334a5.162,5.162,0,0,0,4.464,1.972,5.771,5.771,0,0,0,4.5-1.862,6.276,6.276,0,0,0,1.361-2.5h3.543a7.463,7.463,0,0,1-.931,2.633,9.363,9.363,0,0,1-1.772,2.372A8.4,8.4,0,0,1,84.4.44a12.346,12.346,0,0,1-2.943.32,9.029,9.029,0,0,1-6.787-2.913q-2.783-2.913-2.783-8.158A12.323,12.323,0,0,1,74.7-18.7,9.246,9.246,0,0,1,82.022-21.921Zm5.746,9.489a9.336,9.336,0,0,0-1.021-3.744,5.233,5.233,0,0,0-4.945-2.6,5.481,5.481,0,0,0-4.164,1.792,6.769,6.769,0,0,0-1.782,4.554Zm9.8,1.962A10.628,10.628,0,0,0,99.025-4.7a5.121,5.121,0,0,0,4.685,2.322,4.934,4.934,0,0,0,4.114-2.152,10.164,10.164,0,0,0,1.612-6.176q0-4.064-1.662-6.016a5.183,5.183,0,0,0-4.1-1.952A5.418,5.418,0,0,0,99.255-16.6Q97.563-14.514,97.563-10.47Zm5.425-11.351a7.628,7.628,0,0,1,4.124,1.041,9.687,9.687,0,0,1,2.182,2.1V-29.509h3.463V0h-3.243V-2.983A7.8,7.8,0,0,1,106.532-.12a8.538,8.538,0,0,1-3.944.881,7.986,7.986,0,0,1-6.206-3.013,11.78,11.78,0,0,1-2.623-8.018,13.841,13.841,0,0,1,2.392-8.118A7.832,7.832,0,0,1,102.988-21.821ZM131.327-9.489a8.037,8.037,0,0,0,1.181,4.064Q134.49-2.5,139.5-2.5a12.367,12.367,0,0,0,4.084-.641q3.563-1.241,3.563-4.444a3.837,3.837,0,0,0-1.5-3.423,15.161,15.161,0,0,0-4.765-1.742l-3.984-.9a18.039,18.039,0,0,1-5.525-1.942,6.152,6.152,0,0,1-2.8-5.505,8.478,8.478,0,0,1,2.743-6.506q2.743-2.542,7.768-2.542a13.491,13.491,0,0,1,7.858,2.232q3.233,2.232,3.233,7.137h-3.744a7.369,7.369,0,0,0-1.281-3.624q-1.822-2.3-6.186-2.3-3.523,0-5.065,1.481a4.637,4.637,0,0,0-1.542,3.443,3.363,3.363,0,0,0,1.8,3.163,26.44,26.44,0,0,0,5.345,1.6l4.124.941a12.636,12.636,0,0,1,4.6,1.862,6.972,6.972,0,0,1,2.8,5.986q0,4.885-3.553,6.987a15.914,15.914,0,0,1-8.258,2.1q-5.485,0-8.588-2.8a9.457,9.457,0,0,1-3.043-7.547ZM155.7-27.427h3.644v5.986h3.423V-18.5H159.34V-4.5A1.514,1.514,0,0,0,160.1-3a3.233,3.233,0,0,0,1.4.22q.26,0,.561-.01t.7-.05V0a8.045,8.045,0,0,1-1.291.26,12.276,12.276,0,0,1-1.451.08Q157.5.34,156.6-.951a5.738,5.738,0,0,1-.9-3.353V-18.5h-2.9v-2.943h2.9ZM168.515-5.706a2.968,2.968,0,0,0,1.141,2.462,4.231,4.231,0,0,0,2.7.9,8.217,8.217,0,0,0,3.684-.881,4.957,4.957,0,0,0,3-4.785v-2.9a6.165,6.165,0,0,1-1.7.7,14.5,14.5,0,0,1-2.042.4l-2.182.28a8.346,8.346,0,0,0-2.943.821A3.2,3.2,0,0,0,168.515-5.706Zm8.729-7.287a1.958,1.958,0,0,0,1.662-1.041,3.168,3.168,0,0,0,.24-1.381,2.927,2.927,0,0,0-1.311-2.673,7.035,7.035,0,0,0-3.754-.831q-2.823,0-4,1.521a5.006,5.006,0,0,0-.861,2.5h-3.363q.1-3.964,2.573-5.515a10.562,10.562,0,0,1,5.736-1.552,11.67,11.67,0,0,1,6.146,1.441,4.89,4.89,0,0,1,2.342,4.484V-3.684a1.581,1.581,0,0,0,.23.9,1.11,1.11,0,0,0,.971.34q.24,0,.541-.03t.641-.09V.1a10.036,10.036,0,0,1-1.281.3,9.363,9.363,0,0,1-1.2.06,2.964,2.964,0,0,1-2.7-1.321,5.1,5.1,0,0,1-.621-1.982,9.168,9.168,0,0,1-3.163,2.5A9.784,9.784,0,0,1,171.518.721a6.758,6.758,0,0,1-4.875-1.812,6.018,6.018,0,0,1-1.892-4.534,5.84,5.84,0,0,1,1.862-4.625,8.858,8.858,0,0,1,4.885-2.022ZM188.66-27.427H192.3v5.986h3.423V-18.5H192.3V-4.5a1.514,1.514,0,0,0,.761,1.5,3.233,3.233,0,0,0,1.4.22q.26,0,.561-.01t.7-.05V0a8.045,8.045,0,0,1-1.291.26,12.276,12.276,0,0,1-1.451.08q-2.522,0-3.423-1.291a5.738,5.738,0,0,1-.9-3.353V-18.5h-2.9v-2.943h2.9Zm18.984,5.505a9.78,9.78,0,0,1,4.424,1.071,8.159,8.159,0,0,1,3.263,2.773,9.566,9.566,0,0,1,1.441,3.784,24.755,24.755,0,0,1,.32,4.725H201.378a9.17,9.17,0,0,0,1.542,5.235,5.162,5.162,0,0,0,4.464,1.972,5.771,5.771,0,0,0,4.5-1.862,6.276,6.276,0,0,0,1.361-2.5h3.543a7.463,7.463,0,0,1-.931,2.633,9.363,9.363,0,0,1-1.772,2.372A8.4,8.4,0,0,1,210.027.44a12.346,12.346,0,0,1-2.943.32A9.029,9.029,0,0,1,200.3-2.152q-2.783-2.913-2.783-8.158a12.323,12.323,0,0,1,2.8-8.388A9.246,9.246,0,0,1,207.644-21.921Zm5.746,9.489a9.336,9.336,0,0,0-1.021-3.744,5.233,5.233,0,0,0-4.945-2.6,5.481,5.481,0,0,0-4.164,1.792,6.768,6.768,0,0,0-1.782,4.554Zm9.655,5.706a5.24,5.24,0,0,0,.9,2.763q1.361,1.742,4.725,1.742a6.968,6.968,0,0,0,3.523-.871,2.892,2.892,0,0,0,1.521-2.693,2.3,2.3,0,0,0-1.221-2.1,14.519,14.519,0,0,0-3.083-1.021l-2.863-.721a13.965,13.965,0,0,1-4.044-1.521,4.547,4.547,0,0,1-2.322-4.044,6.179,6.179,0,0,1,2.192-4.925A8.745,8.745,0,0,1,228.27-22q4.845,0,6.987,2.843a6.169,6.169,0,0,1,1.3,3.884h-3.4a4.169,4.169,0,0,0-.861-2.222q-1.241-1.421-4.3-1.421a5.145,5.145,0,0,0-3.093.781,2.447,2.447,0,0,0-1.051,2.062,2.538,2.538,0,0,0,1.381,2.242,8.3,8.3,0,0,0,2.362.881l2.382.581a18.42,18.42,0,0,1,5.205,1.822,4.824,4.824,0,0,1,2.1,4.344,6.62,6.62,0,0,1-2.172,4.945Q232.934.821,228.49.821q-4.785,0-6.777-2.172a8.215,8.215,0,0,1-2.132-5.375Z" transform="translate(299.307 792.418)" fill="#fff"/>
  </g>
</svg>
