<svg xmlns="http://www.w3.org/2000/svg" xmlns:xlink="http://www.w3.org/1999/xlink" width="1080" height="1080" viewBox="0 0 1080 1080">
  <defs>
    <clipPath id="clip-contact-search_7-text-arrow">
      <rect width="1080" height="1080"/>
    </clipPath>
  </defs>
  <g id="contact-search_7-text-arrow" clip-path="url(#clip-contact-search_7-text-arrow)">
    <g id="Group_22538" data-name="Group 22538">
      <g id="Group_22134" data-name="Group 22134" transform="translate(367.698 167.837)">
        <path id="Path_48026" data-name="Path 48026" d="M61.432,12.22c0-.84-.525-1.33-1.47-1.33-3.22,0-13.93,4.1-15.5,4.655a1.637,1.637,0,0,0-1.4-1.085c-1.155,0-1.47,1.365-1.54,2.2-.84.315-4.55,1.19-4.865,1.68a1.565,1.565,0,0,0-.315.98,1.512,1.512,0,0,0,1.3,1.5,13.141,13.141,0,0,0,3.78-1.085c-.175,2.03-.315,4.095-.525,6.125-.6.525-.98.77-.98,1.645a1.668,1.668,0,0,0,.735,1.3c0,.7-.21,3.99-.21,6.195A5.472,5.472,0,0,0,40.607,37a1.8,1.8,0,0,0,1.19.455,1.5,1.5,0,0,0,1.575-1.435,18.876,18.876,0,0,1-.245-2.415c0-1.925.245-4.9.315-5.7a24.7,24.7,0,0,1,10.185-3.955,8.993,8.993,0,0,0,1.4-.245,2,2,0,0,0,1.295-1.61c0-.805-.77-.98-1.365-.98a26.532,26.532,0,0,0-5.5.98A38.869,38.869,0,0,0,43.9,24.33c.28-1.96.63-3.92.805-5.88a85.47,85.47,0,0,1,11.41-4.27c2.1-.7,3.36-.28,4.305-.63A1.474,1.474,0,0,0,61.432,12.22Zm.07,11.865a1.761,1.761,0,0,0-1.61-1.855c-1.645.1-1.435,3.185-1.47,4.305-.1,2.835-.315,5.04-.315,6.93,0,1.19,0,3.4,1.54,3.4a1.655,1.655,0,0,0,1.505-1.68c0-.7-.42-1.365-.42-2.31C60.732,31.12,61.5,25.1,61.5,24.085Zm.07-11.13a1.257,1.257,0,0,0-1.19-1.225c-.455,0-1.015.35-1.4,1.3a11.85,11.85,0,0,0-1.015,3.57c0,.735.35,1.435,1.085,1.435a1.324,1.324,0,0,0,1.3-1.225c.1-1.3.56-1.61.98-2.765A3.412,3.412,0,0,0,61.572,12.955Zm14.56,24.5a4.192,4.192,0,0,0-.63-1.82,49.313,49.313,0,0,1-.07-4.935c0-5.32-.525-8.96-2.38-8.96-1.575,0-3.535,3.71-4.9,6.02,0-1.435.35-3.045.35-4.13a1.609,1.609,0,0,0-.245-1.015,2.36,2.36,0,0,0-1.575-.7c-.56,0-1.05.28-1.19,1.19-.525,3.78-.28,7-.7,11.165-.035.28-.035.945-.035,1.26,0,1.085.21,2.1,1.295,2.1a2.6,2.6,0,0,0,1.085-.28c.875-.35,2.66-8.645,5.215-11.9a6.387,6.387,0,0,1,.14,1.995c0,1.085-.035,2.24-.035,3.36.035,2.2.35,3.885.35,5.355a1.982,1.982,0,0,0-.105.63,2.1,2.1,0,0,0,2.065,1.96A1.268,1.268,0,0,0,76.132,37.455Zm12.11-5.95c-1.12.665-5.075,3.4-7.21,3.4a1.258,1.258,0,0,1-1.33-1.365c0-2.275,3.185-6.615,5.705-6.615C87.4,26.92,88.032,30.175,88.242,31.5Zm5.705-16.8a2.275,2.275,0,0,0-2.1-2.2c-.665,0-1.225.455-1.225,1.61,0,.56.175,1.015.175,1.47,0,1.19-.735,8.155-1.12,11.305a5.194,5.194,0,0,0-4.2-2.66c-3.185,0-8.645,4.8-8.645,9.17,0,2.345,1.4,4.13,3.885,4.13,2.87,0,6.545-2.03,8.015-2.94.175,1.085.77,2,1.89,2,.91,0,1.085-1.96,1.085-3.64,1.225-.42,2.065-1.225,2.065-1.995,0-.525-.42-1.05-1.505-1.365.28-4.97,1.33-13.51,1.54-14.07A2.17,2.17,0,0,0,93.947,14.7ZM123,22.265c0-.63-.7-1.26-1.96-1.4a10.839,10.839,0,0,0-1.47-.07,21.353,21.353,0,0,0-3.535.315,37.953,37.953,0,0,0,.7-5.7c0-1.715-.35-3.15-1.575-3.15-1.12,0-1.295.875-1.295,1.785,0,.455.035.91.035,1.26a61.613,61.613,0,0,1-.77,6.335,24.552,24.552,0,0,0-5.81,2.31,1.464,1.464,0,0,0-.63,1.19,1.733,1.733,0,0,0,1.68,1.54,1.353,1.353,0,0,0,.735-.28,9.109,9.109,0,0,1,3.57-1.82c-.1,1.015-.245,1.82-.455,3.78a56.779,56.779,0,0,0-.385,7.035,2.149,2.149,0,0,0,1.995,2.38,1.213,1.213,0,0,0,1.26-1.33,2.378,2.378,0,0,0-.105-.665,11.741,11.741,0,0,1-.14-2.17,85.868,85.868,0,0,1,.77-9.66,21.359,21.359,0,0,1,4.795-.665c.28,0,.77.1,1.225.1C122.507,23.385,123,22.86,123,22.265Zm13.055,9.17c0-2.345-.14-8.715-3.43-8.715-2.59,0-5.775,3.22-7.35,5,.14-2.415.385-4.8.6-7.175.175-2.03.7-4.375.7-5.425a1.525,1.525,0,0,0-1.61-1.75c-.735,0-1.3.77-1.47,2.555-.14,1.4-.21,3.535-.525,6.335-.42,4.06-.49,7.91-.665,11.97a2.963,2.963,0,0,1-.35,1.61,2.438,2.438,0,0,0-.21,1.05,1.557,1.557,0,0,0,1.54,1.645c.875,0,1.785-.7,1.785-2.205,0-.14-.035-.28-.035-.98a9.813,9.813,0,0,1,.805-3.955c.875-1.89,4.445-5.775,6.23-5.775a.969.969,0,0,1,.455.1c.56.315.735,2.2.735,4.13,0,2.38-.245,4.025-.245,5.11s.28,2.17,1.68,2.17c.875,0,1.295-.42,1.33-1.155,0-.455-.07-.91-.07-1.715C135.947,33.4,136.052,32.415,136.052,31.435Zm10.71-6.3a9.114,9.114,0,0,1-2.275,1.435,17.08,17.08,0,0,1-3.185.84,9.307,9.307,0,0,1,2.485-1.715,7.027,7.027,0,0,1,2.9-.735c.14,0,.14.035.14.07S146.8,25.1,146.762,25.135Zm7.07,5.075a1.614,1.614,0,0,0-1.47-1.5c-.735,0-1.19.805-1.54,1.435-.42.49-5.215,4.34-7.56,4.34-1.925,0-3.115-2.38-3.115-4.06v-.455a17.244,17.244,0,0,0,5.74-1.365c2.835-1.19,4.97-3.99,4.97-5.04,0-.14-.14-.245-.35-.385a7.081,7.081,0,0,0-3.5-.805c-4.585,0-9.8,3.4-9.8,8.05,0,3.115,2.45,6.755,5.6,6.755,2.9,0,6.475-2.59,8.47-4.095a16.455,16.455,0,0,1,1.54-1.19A2.212,2.212,0,0,0,153.832,30.21ZM182.5,15.86c0,2.45-8.47,6.02-10.745,6.545.21-1.54.56-3.045.735-4.585.035,0,.07.035.1.035a1.024,1.024,0,0,0,.665-.28c1.12-1.015,5.775-2.1,8.015-2.1C182.007,15.475,182.5,15.58,182.5,15.86ZM191.7,35.6c0-1.33-1.5-1.855-2.03-1.925-3.535-.455-13.09-5.985-16.24-8.82,7.07-2.87,12.11-6.02,12.11-9.065,0-2.31-2.2-3.01-4.095-3.01-3.36,0-7.77,1.645-9.135,2.24a1.825,1.825,0,0,0-1.5-.91c-.945,0-1.89.875-1.89,2.695,0,.56.07.875.07,1.19,0,1.26-.28,4.2-.385,5.075,0,0-.42.28-.42.525a.752.752,0,0,0,.385.7c-.14,2.625-.42,5.67-.6,8.12-.1,1.26-.14,2.38-.14,3.255a4.439,4.439,0,0,0,.175,1.785,1.8,1.8,0,0,0,1.365.56,1.708,1.708,0,0,0,1.89-1.75c0-.735-.455-1.4-.455-2.1.07-2.59.315-5.88.455-7.525A56.932,56.932,0,0,0,187.4,36.02a7.267,7.267,0,0,1,.945.385,2.5,2.5,0,0,0,1.785.63A1.382,1.382,0,0,0,191.7,35.6Zm3.255-11.515a1.761,1.761,0,0,0-1.61-1.855c-1.645.1-1.435,3.185-1.47,4.305-.1,2.835-.315,5.04-.315,6.93,0,1.19,0,3.4,1.54,3.4a1.655,1.655,0,0,0,1.505-1.68c0-.7-.42-1.365-.42-2.31C194.187,31.12,194.957,25.1,194.957,24.085Zm.07-11.13a1.257,1.257,0,0,0-1.19-1.225c-.455,0-1.015.35-1.4,1.3a11.85,11.85,0,0,0-1.015,3.57c0,.735.35,1.435,1.085,1.435A1.324,1.324,0,0,0,193.8,16.8c.1-1.3.56-1.61.98-2.765A3.412,3.412,0,0,0,195.027,12.955Zm17.29,11.41A2.6,2.6,0,0,0,212.6,23a1.88,1.88,0,0,0-.385-1.225,4.445,4.445,0,0,0-3.605-1.5c-.14,0-3.01.315-6.685,4.445a29.042,29.042,0,0,0-3.43,4.55,6.994,6.994,0,0,0-1.015,3.255c0,.735.07.84.245,1.015a7.488,7.488,0,0,0,2.1,1.61,2.678,2.678,0,0,0,1.05.21c1.75,0,3.255-1.68,4.83-3.185a.129.129,0,0,1,.105-.035.075.075,0,0,1,.07.07v.07c-3.815,8.82-4.27,7.875-6.93,11.97-1.75,2.7-2.38,3.85-2.38,4.725a2.916,2.916,0,0,0,.1.77c.175.665,1.155,1.015,1.82,1.015a2.193,2.193,0,0,0,2.52-1.47c.42-.77,1.715-3.78,2.9-6.65,1.785-4.235,5.215-7.385,11.69-12.25a.728.728,0,0,0,.28-.595.772.772,0,0,0-.21-.525,1.4,1.4,0,0,0-.91-.35c-.175,0-.245,0-.84.35a40.842,40.842,0,0,0-5.845,4.13c-.1,0-.14-.035-.14-.14C207.942,32.87,208.677,30.875,212.317,24.365Zm-2.24-1.05c-2.135,3.22-5.495,7.07-8.645,9.065a1.2,1.2,0,0,1-.7.175c-.14,0-.42-.14-.42-.28a5.44,5.44,0,0,1,.42-1.33,28.089,28.089,0,0,1,5.355-6.755c.49-.455.77-.49,1.47-1.05a2.633,2.633,0,0,1,1.61-.735,1.635,1.635,0,0,1,.6.105c.35.14.35.245.35.35,0,.07.07.14.07.21A.465.465,0,0,1,210.077,23.315Zm16.66,8.12c0-2.345-.14-8.715-3.43-8.715-2.59,0-5.775,3.22-7.35,5,.14-2.415.385-4.8.6-7.175.175-2.03.7-4.375.7-5.425a1.525,1.525,0,0,0-1.61-1.75c-.735,0-1.295.77-1.47,2.555-.14,1.4-.21,3.535-.525,6.335-.42,4.06-.49,7.91-.665,11.97a2.963,2.963,0,0,1-.35,1.61,2.438,2.438,0,0,0-.21,1.05,1.557,1.557,0,0,0,1.54,1.645c.875,0,1.785-.7,1.785-2.205,0-.14-.035-.28-.035-.98a9.813,9.813,0,0,1,.805-3.955c.875-1.89,4.445-5.775,6.23-5.775a.969.969,0,0,1,.455.1c.56.315.735,2.2.735,4.13,0,2.38-.245,4.025-.245,5.11s.28,2.17,1.68,2.17c.875,0,1.295-.42,1.33-1.155,0-.455-.07-.91-.07-1.715C226.632,33.4,226.737,32.415,226.737,31.435Zm16.345-9.17c0-.63-.7-1.26-1.96-1.4a10.839,10.839,0,0,0-1.47-.07,21.353,21.353,0,0,0-3.535.315,37.953,37.953,0,0,0,.7-5.7c0-1.715-.35-3.15-1.575-3.15-1.12,0-1.3.875-1.3,1.785,0,.455.035.91.035,1.26a61.613,61.613,0,0,1-.77,6.335,24.552,24.552,0,0,0-5.81,2.31,1.464,1.464,0,0,0-.63,1.19,1.733,1.733,0,0,0,1.68,1.54,1.353,1.353,0,0,0,.735-.28,9.109,9.109,0,0,1,3.57-1.82c-.105,1.015-.245,1.82-.455,3.78a56.777,56.777,0,0,0-.385,7.035,2.149,2.149,0,0,0,2,2.38,1.213,1.213,0,0,0,1.26-1.33,2.379,2.379,0,0,0-.1-.665,11.74,11.74,0,0,1-.14-2.17,85.868,85.868,0,0,1,.77-9.66,21.359,21.359,0,0,1,4.8-.665c.28,0,.77.1,1.225.1C242.592,23.385,243.082,22.86,243.082,22.265Zm29.54-7.7c-.035,2.45-10.325,6.93-13.2,8.085l.42-7.175a20.511,20.511,0,0,0,2.765-.35,72.175,72.175,0,0,1,8.54-.84C272.027,14.285,272.622,14.355,272.622,14.565Zm3.36-.49a2,2,0,0,0-.42-1.225c-.63-.84-2.765-1.085-5.215-1.085a74.773,74.773,0,0,0-7.98.56c-.315.035-1.855.21-2.345.21-.665-.07-.7-.6-1.715-.6a2.01,2.01,0,0,0-1.75,2,1.118,1.118,0,0,0,.105.49,7.625,7.625,0,0,1,.175,1.96c0,2.765-.42,7.385-.525,8.68a1.855,1.855,0,0,0-.28.945.811.811,0,0,0,.245.63c-.21,3.99-.14,5.985-.315,7.875a8.738,8.738,0,0,0-.07,1.225,1.5,1.5,0,0,0,1.47,1.47c.8,0,1.645-.63,1.645-2.065a22.138,22.138,0,0,1-.175-2.415c0-2.135.245-5.74.315-6.79a96.6,96.6,0,0,0,10.745-5.425C273.357,18.415,275.982,16,275.982,14.075Zm1.05,11.06a9.114,9.114,0,0,1-2.275,1.435,17.08,17.08,0,0,1-3.185.84,9.307,9.307,0,0,1,2.485-1.715,7.028,7.028,0,0,1,2.9-.735c.14,0,.14.035.14.07S277.067,25.1,277.032,25.135Zm7.07,5.075a1.614,1.614,0,0,0-1.47-1.5c-.735,0-1.19.805-1.54,1.435-.42.49-5.215,4.34-7.56,4.34-1.925,0-3.115-2.38-3.115-4.06v-.455a17.244,17.244,0,0,0,5.74-1.365c2.835-1.19,4.97-3.99,4.97-5.04,0-.14-.14-.245-.35-.385a7.081,7.081,0,0,0-3.5-.805c-4.585,0-9.8,3.4-9.8,8.05,0,3.115,2.45,6.755,5.6,6.755,2.9,0,6.475-2.59,8.47-4.095a16.454,16.454,0,0,1,1.54-1.19A2.212,2.212,0,0,0,284.1,30.21Zm8.96-1.75a7.138,7.138,0,0,1-.91,3.22c-.6,1.19-2.485,2.695-3.71,2.695-1.33,0-1.75-1.96-1.75-2.835,0-2,2.45-6.16,4.62-6.16C292.642,25.38,293.062,27.48,293.062,28.46Zm2.66.28c0-3.15-2.03-6.265-5.11-6.265h-.175c-2.065.14-4.06,1.96-5.95,6.195a7.317,7.317,0,0,0-.6,2.905c0,2.485,1.47,5.565,4.1,5.565C291.1,37.14,295.722,33.71,295.722,28.74Zm8.785-.1c0,2.17-3.045,4.9-4.55,5.74.385-3.115.8-6.16,1.435-9.24A4.29,4.29,0,0,1,304.507,28.635Zm3.08.315c0-3.6-3.885-6.825-7.315-6.825-1.47,0-3.115,1.015-3.115,2.065,0,.42.28.84.945,1.225a124.211,124.211,0,0,0-1.61,17.6c0,2.03.07,4.375.245,6.4a1.8,1.8,0,0,0-.21.875,1.778,1.778,0,0,0,1.75,1.925,1.416,1.416,0,0,0,1.33-1.5,1.759,1.759,0,0,0-.21-.84c-.035-.07-.105-1.505-.105-6.125a58.6,58.6,0,0,1,.35-6.475,1.627,1.627,0,0,0,.735.175,1.435,1.435,0,0,0,.385-.035C301.427,37.28,307.587,32.24,307.587,28.95Zm7.07-15.47c0-1.085-.49-1.96-1.505-1.96a1.707,1.707,0,0,0-1.155.525,6.633,6.633,0,0,0-.525,2.66c-.105,1.33-.21,3.15-.385,5.32-.14,1.785-1.26,11.305-1.26,16,0,1.435.1,2.415.35,2.625a1.884,1.884,0,0,0,1.155.49c.98,0,1.47-1.4,1.47-2.59,0-.735-.07-2.03-.07-2.94,0-6.16,1.12-12.495,1.82-18.55Q314.657,14.057,314.657,13.48Zm9.835,11.655a9.114,9.114,0,0,1-2.275,1.435,17.08,17.08,0,0,1-3.185.84,9.307,9.307,0,0,1,2.485-1.715,7.028,7.028,0,0,1,2.9-.735c.14,0,.14.035.14.07S324.527,25.1,324.492,25.135Zm7.07,5.075a1.614,1.614,0,0,0-1.47-1.5c-.735,0-1.19.805-1.54,1.435-.42.49-5.215,4.34-7.56,4.34-1.925,0-3.115-2.38-3.115-4.06v-.455a17.244,17.244,0,0,0,5.74-1.365c2.835-1.19,4.97-3.99,4.97-5.04,0-.14-.14-.245-.35-.385a7.081,7.081,0,0,0-3.5-.805c-4.585,0-9.8,3.4-9.8,8.05,0,3.115,2.45,6.755,5.6,6.755,2.9,0,6.475-2.59,8.47-4.095a16.454,16.454,0,0,1,1.54-1.19A2.212,2.212,0,0,0,331.562,30.21Z" transform="translate(26 46.874) rotate(-7)" fill="#48484a"/>
        <path id="Path_48025" data-name="Path 48025" d="M81.535,26.08c-2.135.665-4.305,1.12-6.475,1.575.49-1.19,1.435-3.325,2.1-4.725.7-1.4,1.68-3.325,2.31-4.515.315,1.05.6,2.17.945,3.325C80.975,23.665,81.36,25.31,81.535,26.08Zm9.17-1.015a1.294,1.294,0,0,0-1.365-1.33,2.862,2.862,0,0,0-.945.175L84.23,25.2c-.63-2.59-1.435-6.02-1.855-7.49a28.345,28.345,0,0,1-.77-4.025c-.14-.77-.385-1.715-1.365-1.715-1.015,0-1.4.665-1.715,1.365l-6.72,14.91c-1.225.28-2.24.7-2.24,1.96a1.474,1.474,0,0,0,.875,1.4,15.875,15.875,0,0,0-1.085,4.025,1.231,1.231,0,0,0,1.365,1.19,1.517,1.517,0,0,0,.665-.14c.84-.385.84-1.365.945-2.135a19.93,19.93,0,0,1,1.225-3.115c1.225-.455,2.345-.91,3.465-1.3,1.82-.595,4.1-1.295,5.11-1.575l2.205,9.38A1.92,1.92,0,0,0,86.19,39.66a1.618,1.618,0,0,0,1.54-1.435,2.448,2.448,0,0,0-.84-1.54l-2.1-9L88.5,26.6a3.49,3.49,0,0,0,.56.07A1.589,1.589,0,0,0,90.705,25.065Zm14.56-2.8c0-.63-.7-1.26-1.96-1.4a10.839,10.839,0,0,0-1.47-.07,21.353,21.353,0,0,0-3.535.315,37.952,37.952,0,0,0,.7-5.7c0-1.715-.35-3.15-1.575-3.15-1.12,0-1.295.875-1.295,1.785,0,.455.035.91.035,1.26a61.613,61.613,0,0,1-.77,6.335,24.552,24.552,0,0,0-5.81,2.31,1.464,1.464,0,0,0-.63,1.19,1.733,1.733,0,0,0,1.68,1.54,1.353,1.353,0,0,0,.735-.28,9.109,9.109,0,0,1,3.57-1.82c-.1,1.015-.245,1.82-.455,3.78A56.779,56.779,0,0,0,94.1,35.39,2.149,2.149,0,0,0,96.1,37.77a1.213,1.213,0,0,0,1.26-1.33,2.378,2.378,0,0,0-.105-.665,11.741,11.741,0,0,1-.14-2.17,85.868,85.868,0,0,1,.77-9.66,21.359,21.359,0,0,1,4.795-.665c.28,0,.77.1,1.225.1C104.775,23.385,105.265,22.86,105.265,22.265Zm26.46,0c0-.63-.7-1.26-1.96-1.4a10.839,10.839,0,0,0-1.47-.07,21.353,21.353,0,0,0-3.535.315,37.953,37.953,0,0,0,.7-5.7c0-1.715-.35-3.15-1.575-3.15-1.12,0-1.295.875-1.295,1.785,0,.455.035.91.035,1.26a61.613,61.613,0,0,1-.77,6.335,24.552,24.552,0,0,0-5.81,2.31,1.464,1.464,0,0,0-.63,1.19,1.733,1.733,0,0,0,1.68,1.54,1.353,1.353,0,0,0,.735-.28,9.109,9.109,0,0,1,3.57-1.82c-.1,1.015-.245,1.82-.455,3.78a56.779,56.779,0,0,0-.385,7.035,2.149,2.149,0,0,0,1.995,2.38,1.213,1.213,0,0,0,1.26-1.33,2.378,2.378,0,0,0-.105-.665,11.741,11.741,0,0,1-.14-2.17,85.868,85.868,0,0,1,.77-9.66,21.359,21.359,0,0,1,4.795-.665c.28,0,.77.1,1.225.1C131.235,23.385,131.725,22.86,131.725,22.265Zm13.055,9.17c0-2.345-.14-8.715-3.43-8.715-2.59,0-5.775,3.22-7.35,5,.14-2.415.385-4.8.595-7.175.175-2.03.7-4.375.7-5.425a1.525,1.525,0,0,0-1.61-1.75c-.735,0-1.295.77-1.47,2.555-.14,1.4-.21,3.535-.525,6.335-.42,4.06-.49,7.91-.665,11.97a2.963,2.963,0,0,1-.35,1.61,2.438,2.438,0,0,0-.21,1.05,1.557,1.557,0,0,0,1.54,1.645c.875,0,1.785-.7,1.785-2.205,0-.14-.035-.28-.035-.98a9.813,9.813,0,0,1,.805-3.955c.875-1.89,4.445-5.775,6.23-5.775a.969.969,0,0,1,.455.1c.56.315.735,2.2.735,4.13,0,2.38-.245,4.025-.245,5.11s.28,2.17,1.68,2.17c.875,0,1.295-.42,1.33-1.155,0-.455-.07-.91-.07-1.715C144.675,33.4,144.78,32.415,144.78,31.435Zm10.71-6.3a9.114,9.114,0,0,1-2.275,1.435,17.08,17.08,0,0,1-3.185.84,9.307,9.307,0,0,1,2.485-1.715,7.027,7.027,0,0,1,2.9-.735c.14,0,.14.035.14.07S155.525,25.1,155.49,25.135Zm7.07,5.075a1.614,1.614,0,0,0-1.47-1.5c-.735,0-1.19.805-1.54,1.435-.42.49-5.215,4.34-7.56,4.34-1.925,0-3.115-2.38-3.115-4.06v-.455a17.244,17.244,0,0,0,5.74-1.365c2.835-1.19,4.97-3.99,4.97-5.04,0-.14-.14-.245-.35-.385a7.081,7.081,0,0,0-3.5-.805c-4.585,0-9.8,3.4-9.8,8.05,0,3.115,2.45,6.755,5.6,6.755,2.9,0,6.475-2.59,8.47-4.095a16.455,16.455,0,0,1,1.54-1.19A2.212,2.212,0,0,0,162.56,30.21Zm28.665-14.35c0,2.45-8.47,6.02-10.745,6.545.21-1.54.56-3.045.735-4.585.035,0,.07.035.1.035a1.024,1.024,0,0,0,.665-.28c1.12-1.015,5.775-2.1,8.015-2.1C190.735,15.475,191.225,15.58,191.225,15.86ZM200.43,35.6c0-1.33-1.5-1.855-2.03-1.925-3.535-.455-13.09-5.985-16.24-8.82,7.07-2.87,12.11-6.02,12.11-9.065,0-2.31-2.205-3.01-4.1-3.01-3.36,0-7.77,1.645-9.135,2.24a1.825,1.825,0,0,0-1.5-.91c-.945,0-1.89.875-1.89,2.695,0,.56.07.875.07,1.19,0,1.26-.28,4.2-.385,5.075,0,0-.42.28-.42.525a.752.752,0,0,0,.385.7c-.14,2.625-.42,5.67-.6,8.12-.1,1.26-.14,2.38-.14,3.255a4.439,4.439,0,0,0,.175,1.785,1.8,1.8,0,0,0,1.365.56,1.708,1.708,0,0,0,1.89-1.75c0-.735-.455-1.4-.455-2.1.07-2.59.315-5.88.455-7.525a56.932,56.932,0,0,0,16.135,9.38,7.267,7.267,0,0,1,.945.385,2.5,2.5,0,0,0,1.785.63A1.382,1.382,0,0,0,200.43,35.6Zm3.255-11.515a1.761,1.761,0,0,0-1.61-1.855c-1.645.1-1.435,3.185-1.47,4.305-.1,2.835-.315,5.04-.315,6.93,0,1.19,0,3.4,1.54,3.4a1.655,1.655,0,0,0,1.5-1.68c0-.7-.42-1.365-.42-2.31C202.915,31.12,203.685,25.1,203.685,24.085Zm.07-11.13a1.257,1.257,0,0,0-1.19-1.225c-.455,0-1.015.35-1.4,1.3a11.85,11.85,0,0,0-1.015,3.57c0,.735.35,1.435,1.085,1.435A1.324,1.324,0,0,0,202.53,16.8c.1-1.3.56-1.61.98-2.765A3.412,3.412,0,0,0,203.755,12.955Zm17.29,11.41a2.6,2.6,0,0,0,.28-1.365,1.88,1.88,0,0,0-.385-1.225,4.445,4.445,0,0,0-3.605-1.5c-.14,0-3.01.315-6.685,4.445a29.042,29.042,0,0,0-3.43,4.55,6.994,6.994,0,0,0-1.015,3.255c0,.735.07.84.245,1.015a7.488,7.488,0,0,0,2.1,1.61,2.678,2.678,0,0,0,1.05.21c1.75,0,3.255-1.68,4.83-3.185a.129.129,0,0,1,.1-.035.075.075,0,0,1,.07.07v.07c-3.815,8.82-4.27,7.875-6.93,11.97-1.75,2.7-2.38,3.85-2.38,4.725a2.916,2.916,0,0,0,.1.77c.175.665,1.155,1.015,1.82,1.015a2.193,2.193,0,0,0,2.52-1.47c.42-.77,1.715-3.78,2.9-6.65,1.785-4.235,5.215-7.385,11.69-12.25a.728.728,0,0,0,.28-.595.772.772,0,0,0-.21-.525,1.4,1.4,0,0,0-.91-.35c-.175,0-.245,0-.84.35a40.842,40.842,0,0,0-5.845,4.13c-.1,0-.14-.035-.14-.14C216.67,32.87,217.405,30.875,221.045,24.365Zm-2.24-1.05c-2.135,3.22-5.495,7.07-8.645,9.065a1.2,1.2,0,0,1-.7.175c-.14,0-.42-.14-.42-.28a5.44,5.44,0,0,1,.42-1.33,28.089,28.089,0,0,1,5.355-6.755c.49-.455.77-.49,1.47-1.05a2.633,2.633,0,0,1,1.61-.735,1.635,1.635,0,0,1,.6.105c.35.14.35.245.35.35,0,.07.07.14.07.21A.465.465,0,0,1,218.805,23.315Zm16.66,8.12c0-2.345-.14-8.715-3.43-8.715-2.59,0-5.775,3.22-7.35,5,.14-2.415.385-4.8.595-7.175.175-2.03.7-4.375.7-5.425a1.525,1.525,0,0,0-1.61-1.75c-.735,0-1.295.77-1.47,2.555-.14,1.4-.21,3.535-.525,6.335-.42,4.06-.49,7.91-.665,11.97a2.963,2.963,0,0,1-.35,1.61,2.438,2.438,0,0,0-.21,1.05,1.557,1.557,0,0,0,1.54,1.645c.875,0,1.785-.7,1.785-2.205,0-.14-.035-.28-.035-.98a9.813,9.813,0,0,1,.805-3.955c.875-1.89,4.445-5.775,6.23-5.775a.969.969,0,0,1,.455.1c.56.315.735,2.2.735,4.13,0,2.38-.245,4.025-.245,5.11s.28,2.17,1.68,2.17c.875,0,1.295-.42,1.33-1.155,0-.455-.07-.91-.07-1.715C235.36,33.4,235.465,32.415,235.465,31.435Zm16.345-9.17c0-.63-.7-1.26-1.96-1.4a10.839,10.839,0,0,0-1.47-.07,21.353,21.353,0,0,0-3.535.315,37.95,37.95,0,0,0,.7-5.7c0-1.715-.35-3.15-1.575-3.15-1.12,0-1.295.875-1.295,1.785,0,.455.035.91.035,1.26a61.613,61.613,0,0,1-.77,6.335,24.552,24.552,0,0,0-5.81,2.31,1.464,1.464,0,0,0-.63,1.19,1.733,1.733,0,0,0,1.68,1.54,1.353,1.353,0,0,0,.735-.28,9.109,9.109,0,0,1,3.57-1.82c-.105,1.015-.245,1.82-.455,3.78a56.777,56.777,0,0,0-.385,7.035,2.149,2.149,0,0,0,2,2.38,1.213,1.213,0,0,0,1.26-1.33,2.379,2.379,0,0,0-.1-.665,11.74,11.74,0,0,1-.14-2.17,85.868,85.868,0,0,1,.77-9.66,21.359,21.359,0,0,1,4.795-.665c.28,0,.77.1,1.225.1C251.32,23.385,251.81,22.86,251.81,22.265Zm37.555,6.755a1.646,1.646,0,0,0-1.575-1.61,5.776,5.776,0,0,0-1.995.63c-3.36,1.4-10.745,6.02-15.715,6.02-2.415,0-4.375-1.4-4.375-3.85,0-5,6.895-13.02,12.845-14.28,1.015-.21,2.2-.525,2.2-1.61a1.483,1.483,0,0,0-1.61-1.645,5.762,5.762,0,0,0-1.995.455c-5.39,2.17-14.245,10.465-14.245,17.08,0,3.92,2.73,6.405,6.65,6.405,6.475,0,12.46-4.025,17.395-5.88C286.95,30.735,289.365,30.35,289.365,29.02Zm6.86-.56a7.138,7.138,0,0,1-.91,3.22c-.6,1.19-2.485,2.695-3.71,2.695-1.33,0-1.75-1.96-1.75-2.835,0-2,2.45-6.16,4.62-6.16C295.805,25.38,296.225,27.48,296.225,28.46Zm2.66.28c0-3.15-2.03-6.265-5.11-6.265H293.6c-2.065.14-4.06,1.96-5.95,6.195a7.317,7.317,0,0,0-.6,2.905c0,2.485,1.47,5.565,4.1,5.565C294.265,37.14,298.885,33.71,298.885,28.74Zm20.965,6.335c0-.56-.315-1.085-.315-1.575,0-1.47.07-2.9.07-4.305a33.017,33.017,0,0,0-.315-5.7c-.21-.77-1.435-2.345-2.555-2.345-2.03,0-4.655,5.285-6.055,8.085-.21-4.025-.49-6.09-.84-6.685a2.858,2.858,0,0,0-2.065-1.435c-.91,0-2.45,2.345-3.29,3.85a1.729,1.729,0,0,0-1.715-1.435c-1.015,0-1.47.735-1.47,1.68,0,.735.105,1.365.105,2,0,2.555-.6,6.51-.6,8.715,0,1.33.21,1.96,1.54,1.96.735,0,1.645-.315,1.645-1.12,0-.455-.07-.77-.07-1.12,0-2.45,1.365-6.09,2.17-7.875.7-1.54,1.12-2.73,1.435-2.73.14.035.21.14.245.35.315,1.575.315,7.84.35,9.73.035.735.035,2.835,1.75,2.835.56,0,1.015-.525,1.365-1.89.315-1.085,4.235-11.9,5.11-11.9.42,0,.525,1.365.525,2.555,0,1.82-.21,4.305-.21,6.265a6.445,6.445,0,0,0,.35,2.695,1.288,1.288,0,0,0,1.225.7C319.045,36.37,319.85,35.985,319.85,35.075Zm9.87-6.44c0,2.17-3.045,4.9-4.55,5.74.385-3.115.8-6.16,1.435-9.24A4.29,4.29,0,0,1,329.72,28.635Zm3.08.315c0-3.6-3.885-6.825-7.315-6.825-1.47,0-3.115,1.015-3.115,2.065,0,.42.28.84.945,1.225a124.211,124.211,0,0,0-1.61,17.6c0,2.03.07,4.375.245,6.4a1.8,1.8,0,0,0-.21.875,1.778,1.778,0,0,0,1.75,1.925,1.416,1.416,0,0,0,1.33-1.5,1.759,1.759,0,0,0-.21-.84c-.035-.07-.105-1.505-.105-6.125a58.6,58.6,0,0,1,.35-6.475,1.627,1.627,0,0,0,.735.175,1.435,1.435,0,0,0,.385-.035C326.64,37.28,332.8,32.24,332.8,28.95Zm6.65,4.62a7.4,7.4,0,0,1-3.115,1.505c-.385,0-.63-.175-.63-.665,0-1.155,1.19-2.835,2.345-2.905C338.575,31.5,339.205,32.9,339.45,33.57Zm4.34-4.375c0-3.29-1.54-7.28-5.18-7.28-2.065,0-4.445,1.12-4.445,2.695A1.392,1.392,0,0,0,335.6,25.9a.72.72,0,0,0,.8-.595,2.584,2.584,0,0,1,1.925-.805c2.1,0,2.695,3.36,2.695,4.76a10.123,10.123,0,0,1-.14,1.575,3.232,3.232,0,0,0-2.8-2.065c-2.38,0-4.9,3.08-4.9,5.7a2.934,2.934,0,0,0,2.975,3.08,8.959,8.959,0,0,0,4.06-1.33,1.473,1.473,0,0,0,1.3.84.881.881,0,0,0,.7-.315A20.652,20.652,0,0,0,343.79,29.195Zm13.4,8.26a4.192,4.192,0,0,0-.63-1.82,49.308,49.308,0,0,1-.07-4.935c0-5.32-.525-8.96-2.38-8.96-1.575,0-3.535,3.71-4.9,6.02,0-1.435.35-3.045.35-4.13a1.609,1.609,0,0,0-.245-1.015,2.36,2.36,0,0,0-1.575-.7c-.56,0-1.05.28-1.19,1.19-.525,3.78-.28,7-.7,11.165-.035.28-.035.945-.035,1.26,0,1.085.21,2.1,1.295,2.1a2.6,2.6,0,0,0,1.085-.28c.875-.35,2.66-8.645,5.215-11.9a6.388,6.388,0,0,1,.14,1.995c0,1.085-.035,2.24-.035,3.36.035,2.2.35,3.885.35,5.355a1.982,1.982,0,0,0-.1.63,2.1,2.1,0,0,0,2.065,1.96A1.268,1.268,0,0,0,357.2,37.455ZM370.5,27.13c0-1.26-.175-3.675-1.75-3.675-1.05,0-1.26,1.26-1.75,1.785-1.47,1.645-4.97,6.335-5.39,6.335-.07-.035-.07-.14-.07-.315,0-1.4,1.505-6.86,1.505-8.085a1.893,1.893,0,0,0-1.75-1.54c-1.47,0-1.54,2.73-1.645,3.57a67.591,67.591,0,0,0-.875,7.595c0,1.715.35,2.8,1.505,2.8,1.68,0,5.145-4.34,7.035-6.51-.14,4.13-.385,6.16-.8,10.325-.665,6.51-.735,10.57-.875,10.71a2.628,2.628,0,0,0-.665,1.61,1.647,1.647,0,0,0,1.75,1.645,1.609,1.609,0,0,0,1.75-1.575,3.531,3.531,0,0,0-.525-1.575C368.885,43.93,370.5,29.65,370.5,27.13Z" transform="translate(62.471 88.202) rotate(-7)" fill="#48484a"/>
      </g>
      <g id="Group_22136" data-name="Group 22136" transform="translate(785.183 179.965) rotate(20)">
        <path id="Path_31251" data-name="Path 31251" d="M0,28.851C60.86-33.012,149.433,1.383,119.067,163.433" transform="translate(0 0)" fill="none" stroke="#e13019" stroke-linecap="round" stroke-width="6"/>
        <path id="Path_28557" data-name="Path 28557" d="M0,17.053,15.392,0,29.647,17.053" transform="translate(132.508 172.41) rotate(-169)" fill="none" stroke="#e13019" stroke-linecap="round" stroke-linejoin="round" stroke-width="6"/>
      </g>
    </g>
  </g>
</svg>
