<svg xmlns="http://www.w3.org/2000/svg" xmlns:xlink="http://www.w3.org/1999/xlink" width="400" height="400" viewBox="0 0 1080 1080">
  <defs>
    <filter id="Path_80959" x="-18" y="473.63" width="255" height="133" filterUnits="userSpaceOnUse">
      <feOffset dx="5" dy="5" input="SourceAlpha"/>
      <feGaussianBlur stdDeviation="10" result="blur"/>
      <feFlood flood-color="#004280" flood-opacity="0.2"/>
      <feComposite operator="in" in2="blur"/>
      <feComposite in="SourceGraphic"/>
    </filter>
    <linearGradient id="linear-gradient" x1="0.038" x2="1.591" y2="1.907" gradientUnits="objectBoundingBox">
      <stop offset="0" stop-color="#004280"/>
      <stop offset="1" stop-color="#002162"/>
    </linearGradient>
    <filter id="Path_80957" x="473.31" y="473.63" width="448" height="128" filterUnits="userSpaceOnUse">
      <feOffset dx="5" dy="5" input="SourceAlpha"/>
      <feGaussianBlur stdDeviation="10" result="blur-2"/>
      <feFlood flood-color="#004280" flood-opacity="0.2"/>
      <feComposite operator="in" in2="blur-2"/>
      <feComposite in="SourceGraphic"/>
    </filter>
    <clipPath id="clip-contact-search_4-textline2">
      <rect width="1080" height="1080"/>
    </clipPath>
  </defs>
  <g id="contact-search_4-textline2" clip-path="url(#clip-contact-search_4-textline2)">
    <path id="Path_75767" data-name="Path 75767" d="M2.641,0V-20.182H6.57V0ZM4.625-23.3a2.462,2.462,0,0,1-1.754-.69,2.192,2.192,0,0,1-.729-1.649A2.206,2.206,0,0,1,2.871-27.3a2.462,2.462,0,0,1,1.754-.69,2.462,2.462,0,0,1,1.754.69,2.206,2.206,0,0,1,.729,1.662,2.192,2.192,0,0,1-.729,1.649A2.462,2.462,0,0,1,4.625-23.3Zm10.6,11.313V0H11.3V-20.182h3.771V-16.9h.25A5.756,5.756,0,0,1,17.5-19.472a6.762,6.762,0,0,1,3.764-.972,7.324,7.324,0,0,1,3.613.861,5.839,5.839,0,0,1,2.4,2.556,9.256,9.256,0,0,1,.854,4.191V0H24.212V-12.364A4.881,4.881,0,0,0,23.069-15.8a4.057,4.057,0,0,0-3.14-1.242,4.883,4.883,0,0,0-2.424.591,4.207,4.207,0,0,0-1.669,1.728A5.714,5.714,0,0,0,15.225-11.983ZM40.4.394A7.759,7.759,0,0,1,36.041-.861a8.394,8.394,0,0,1-3-3.587,13.213,13.213,0,0,1-1.084-5.6,13.032,13.032,0,0,1,1.1-5.6,8.334,8.334,0,0,1,3.015-3.561,7.859,7.859,0,0,1,4.349-1.235,6.343,6.343,0,0,1,3.029.624,5.55,5.55,0,0,1,1.787,1.452,12.585,12.585,0,0,1,.992,1.458h.237v-10H50.4V0H46.559V-3.14h-.328a10.659,10.659,0,0,1-1.018,1.472,5.774,5.774,0,0,1-1.82,1.445A6.342,6.342,0,0,1,40.4.394Zm.867-3.35a4.584,4.584,0,0,0,2.871-.9,5.547,5.547,0,0,0,1.787-2.5,10.447,10.447,0,0,0,.611-3.732,10.25,10.25,0,0,0-.6-3.679,5.4,5.4,0,0,0-1.774-2.457,4.669,4.669,0,0,0-2.891-.88,4.67,4.67,0,0,0-2.956.92,5.577,5.577,0,0,0-1.78,2.51,10.134,10.134,0,0,0-.6,3.587,10.332,10.332,0,0,0,.6,3.64A5.721,5.721,0,0,0,38.327-3.9,4.59,4.59,0,0,0,41.264-2.956ZM68.222-8.37V-20.182h3.942V0H68.3V-3.5h-.21A6.272,6.272,0,0,1,65.864-.808,6.474,6.474,0,0,1,62.06.263,6.75,6.75,0,0,1,58.624-.6a5.905,5.905,0,0,1-2.339-2.556,9.317,9.317,0,0,1-.847-4.191V-20.182h3.929V-7.818A4.615,4.615,0,0,0,60.51-4.533a3.88,3.88,0,0,0,2.969,1.222,4.858,4.858,0,0,0,2.2-.552,4.681,4.681,0,0,0,1.826-1.669A5.023,5.023,0,0,0,68.222-8.37ZM92-15.255l-3.561.631a4.289,4.289,0,0,0-.7-1.3,3.572,3.572,0,0,0-1.294-1.012,4.663,4.663,0,0,0-2.037-.394,4.926,4.926,0,0,0-2.786.742A2.222,2.222,0,0,0,80.5-14.676a2.008,2.008,0,0,0,.749,1.629,6.064,6.064,0,0,0,2.418,1.012l3.206.736a8.6,8.6,0,0,1,4.152,1.984A4.662,4.662,0,0,1,92.4-5.834a5.284,5.284,0,0,1-1.045,3.226,6.917,6.917,0,0,1-2.9,2.214,10.79,10.79,0,0,1-4.3.8,9.667,9.667,0,0,1-5.532-1.452,6.087,6.087,0,0,1-2.628-4.132l3.8-.578a3.608,3.608,0,0,0,1.458,2.24,5,5,0,0,0,2.877.756,5.294,5.294,0,0,0,3.088-.808,2.363,2.363,0,0,0,1.156-1.977,2.07,2.07,0,0,0-.7-1.59,4.7,4.7,0,0,0-2.148-.972l-3.416-.749a8.166,8.166,0,0,1-4.172-2.05,4.94,4.94,0,0,1-1.347-3.561,5.09,5.09,0,0,1,1-3.127,6.586,6.586,0,0,1,2.759-2.1,10.147,10.147,0,0,1,4.034-.756,8.393,8.393,0,0,1,5.151,1.412A6.631,6.631,0,0,1,92-15.255Zm13.57-4.927v3.153H94.547v-3.153ZM97.5-25.017h3.929V-5.926a3.411,3.411,0,0,0,.342,1.715,1.737,1.737,0,0,0,.887.775,3.373,3.373,0,0,0,1.189.2,4.594,4.594,0,0,0,.828-.066q.355-.066.552-.105l.71,3.245a7.055,7.055,0,0,1-.972.269,8.073,8.073,0,0,1-1.577.151A6.917,6.917,0,0,1,100.5-.289a4.958,4.958,0,0,1-2.168-1.787A5.251,5.251,0,0,1,97.5-5.111ZM109.352,0V-20.182h3.8v3.206h.21a4.9,4.9,0,0,1,1.951-2.569,5.562,5.562,0,0,1,3.173-.939q.368,0,.874.026t.795.066v3.758a7.633,7.633,0,0,0-.841-.151,8.629,8.629,0,0,0-1.209-.085,5.134,5.134,0,0,0-2.477.585,4.444,4.444,0,0,0-1.715,1.616,4.4,4.4,0,0,0-.631,2.345V0Zm16.776,7.516a8.574,8.574,0,0,1-1.6-.138,5.248,5.248,0,0,1-1.077-.3l.946-3.219a4.621,4.621,0,0,0,2.713.072A3.584,3.584,0,0,0,128.952,1.6l.486-1.34-7.384-20.445h4.2L131.37-4.52h.21l5.111-15.662,4.244.039L132.592,2.694a8.971,8.971,0,0,1-1.472,2.641,5.826,5.826,0,0,1-2.129,1.629A6.963,6.963,0,0,1,126.127,7.516ZM147.922-3.679l-.2,1.432a23.817,23.817,0,0,1-.664,3.291q-.466,1.715-.959,3.186t-.808,2.339h-2.786q.171-.815.473-2.2t.591-3.094q.289-1.708.434-3.482l.131-1.472ZM166.1,0l-5.939-20.182h4.06l3.955,14.821h.2l3.968-14.821h4.06l3.942,14.755h.2l3.929-14.755h4.06L182.6,0H178.6l-4.1-14.571h-.3L170.095,0Zm25.592,0V-20.182h3.929V0Zm1.984-23.3a2.462,2.462,0,0,1-1.754-.69,2.192,2.192,0,0,1-.729-1.649,2.206,2.206,0,0,1,.729-1.662,2.462,2.462,0,0,1,1.754-.69,2.462,2.462,0,0,1,1.754.69,2.206,2.206,0,0,1,.729,1.662,2.192,2.192,0,0,1-.729,1.649A2.462,2.462,0,0,1,193.677-23.3Zm16.092,3.114v3.153H198.745v-3.153ZM201.7-25.017h3.929V-5.926a3.411,3.411,0,0,0,.342,1.715,1.737,1.737,0,0,0,.887.775,3.373,3.373,0,0,0,1.189.2,4.594,4.594,0,0,0,.828-.066q.355-.066.552-.105l.71,3.245a7.055,7.055,0,0,1-.972.269,8.074,8.074,0,0,1-1.577.151A6.917,6.917,0,0,1,204.7-.289a4.958,4.958,0,0,1-2.168-1.787,5.252,5.252,0,0,1-.828-3.035Zm16.2,13.034V0H213.97V-26.909h3.876V-16.9h.25a5.8,5.8,0,0,1,2.168-2.588,6.825,6.825,0,0,1,3.81-.959,7.436,7.436,0,0,1,3.633.854,5.834,5.834,0,0,1,2.418,2.542,9.22,9.22,0,0,1,.861,4.211V0h-3.929V-12.364a4.871,4.871,0,0,0-1.143-3.449,4.129,4.129,0,0,0-3.18-1.229,5.164,5.164,0,0,0-2.49.591,4.22,4.22,0,0,0-1.721,1.728A5.615,5.615,0,0,0,217.9-11.983Z" transform="translate(232 545.63)" fill="#4d4d4d"/>
    <g transform="matrix(1, 0, 0, 1, 0, 0)" filter="url(#Path_80959)">
      <path id="Path_80959-2" data-name="Path 80959" d="M3,0H192a3,3,0,0,1,3,3V70a3,3,0,0,1-3,3H3a3,3,0,0,1-3-3V3A3,3,0,0,1,3,0Z" transform="translate(7 498.63)" fill="#0041c3"/>
    </g>
    <path id="Path_80960" data-name="Path 80960" d="M15.557-18.633a9.808,9.808,0,0,0,4.307-.769,4.431,4.431,0,0,0,2.417-4.351,4.194,4.194,0,0,0-2.571-4.263A11.555,11.555,0,0,0,15.4-28.63H7.6v10Zm1.472,14.9q4.021,0,5.735-2.329a5.865,5.865,0,0,0,1.077-3.56,4.736,4.736,0,0,0-3.142-4.79,11.894,11.894,0,0,0-4.417-.681H7.6v11.36ZM3.318-32.278H17.183q5.669,0,8.064,3.384a7.82,7.82,0,0,1,1.406,4.614,7.265,7.265,0,0,1-1.736,5.01,8.484,8.484,0,0,1-2.593,1.89,10.969,10.969,0,0,1,3.713,2.131,7.733,7.733,0,0,1,2.175,5.823,9,9,0,0,1-1.956,5.647Q23.335,0,16.963,0H3.318ZM35.272-6.262a3.257,3.257,0,0,0,1.252,2.7,4.644,4.644,0,0,0,2.966.989,9.019,9.019,0,0,0,4.043-.967,5.441,5.441,0,0,0,3.3-5.251v-3.186a6.766,6.766,0,0,1-1.868.769,15.915,15.915,0,0,1-2.241.439l-2.4.308a9.16,9.16,0,0,0-3.23.9A3.509,3.509,0,0,0,35.272-6.262Zm9.58-8A2.149,2.149,0,0,0,46.676-15.4a3.477,3.477,0,0,0,.264-1.516A3.212,3.212,0,0,0,45.5-19.852a7.722,7.722,0,0,0-4.12-.912q-3.1,0-4.395,1.67a5.494,5.494,0,0,0-.945,2.747H32.35q.11-4.351,2.823-6.053a11.593,11.593,0,0,1,6.3-1.7,12.809,12.809,0,0,1,6.746,1.582A5.367,5.367,0,0,1,50.785-17.6V-4.043a1.736,1.736,0,0,0,.253.989,1.219,1.219,0,0,0,1.066.374q.264,0,.593-.033t.7-.1V.11a11.015,11.015,0,0,1-1.406.33,10.277,10.277,0,0,1-1.318.066,3.253,3.253,0,0,1-2.966-1.45,5.6,5.6,0,0,1-.681-2.175A10.063,10.063,0,0,1,43.556-.374,10.739,10.739,0,0,1,38.568.791,7.417,7.417,0,0,1,33.218-1.2a6.605,6.605,0,0,1-2.076-4.977,6.41,6.41,0,0,1,2.043-5.076,9.723,9.723,0,0,1,5.361-2.219Zm11.74-9.272h3.757v3.34a10.539,10.539,0,0,1,3.538-2.966,9.434,9.434,0,0,1,4.153-.9q5.01,0,6.768,3.494a12.406,12.406,0,0,1,.967,5.471V0H71.753V-14.832a8.031,8.031,0,0,0-.637-3.472,3.863,3.863,0,0,0-3.823-2.2,7.785,7.785,0,0,0-2.307.286,5.942,5.942,0,0,0-2.856,1.934,5.821,5.821,0,0,0-1.285,2.406,16.2,16.2,0,0,0-.3,3.549V0H56.592Zm24.264-8.745h3.8v18.743l10.151-10h5.054l-9.009,8.811L100.368,0H95.314L87.975-11.865,84.657-8.833V0h-3.8Zm21.913,8.855h4.021V0h-4.021Zm0-8.855h4.021V-27.8h-4.021Zm9.323,8.745h3.757v3.34a10.539,10.539,0,0,1,3.538-2.966,9.434,9.434,0,0,1,4.153-.9q5.01,0,6.768,3.494a12.406,12.406,0,0,1,.967,5.471V0h-4.021V-14.832a8.031,8.031,0,0,0-.637-3.472,3.863,3.863,0,0,0-3.823-2.2,7.785,7.785,0,0,0-2.307.286,5.942,5.942,0,0,0-2.856,1.934,5.821,5.821,0,0,0-1.285,2.406,16.2,16.2,0,0,0-.3,3.549V0h-3.955Zm32.658-.417a8.577,8.577,0,0,1,4.834,1.362,10.858,10.858,0,0,1,2.285,2.241v-2.966h3.647v21.4A15.782,15.782,0,0,1,154.2,5.164q-2.461,4.79-9.294,4.79a11.4,11.4,0,0,1-6.394-1.7,6.641,6.641,0,0,1-2.9-5.328h4.021a4.475,4.475,0,0,0,1.143,2.439,5.825,5.825,0,0,0,4.219,1.318q4.548,0,5.955-3.208.835-1.89.769-6.746a7.76,7.76,0,0,1-2.856,2.681,9.5,9.5,0,0,1-4.417.879,9.428,9.428,0,0,1-6.691-2.714q-2.867-2.714-2.867-8.976,0-5.911,2.889-9.229A8.935,8.935,0,0,1,144.749-23.95Zm7.119,12.085q0-4.373-1.8-6.482a5.773,5.773,0,0,0-4.592-2.109,5.671,5.671,0,0,0-5.713,3.911,15.336,15.336,0,0,0-.813,5.471,9.712,9.712,0,0,0,1.615,6.053,5.214,5.214,0,0,0,4.34,2.076,6.092,6.092,0,0,0,6-3.845A12.4,12.4,0,0,0,151.868-11.865Z" transform="translate(25.083 551.63)" fill="#fff"/>
    <g transform="matrix(1, 0, 0, 1, 0, 0)" filter="url(#Path_80957)">
      <path id="Path_80957-2" data-name="Path 80957" d="M3,0H385a3,3,0,0,1,3,3V65a3,3,0,0,1-3,3H3a3,3,0,0,1-3-3V3A3,3,0,0,1,3,0Z" transform="translate(498.31 498.63)" fill="url(#linear-gradient)"/>
    </g>
    <path id="Path_80958" data-name="Path 80958" d="M5.065-7.307A5,5,0,0,0,7.928-3.043a6.909,6.909,0,0,0,2.963.6,5.562,5.562,0,0,0,4.745-2.042,7.334,7.334,0,0,0,1.542-4.524,5.914,5.914,0,0,0-1.832-4.645,6.358,6.358,0,0,0-4.394-1.642,6.619,6.619,0,0,0-3.193.721,6.84,6.84,0,0,0-2.272,2l-3.123-.18L4.544-28.187H19.439V-24.7H7.247L6.026-16.736a8.953,8.953,0,0,1,1.9-1.141,9.654,9.654,0,0,1,3.7-.661A9.476,9.476,0,0,1,18.318-16a8.409,8.409,0,0,1,2.743,6.446,11.061,11.061,0,0,1-2.512,7.167Q16.036.721,10.53.721a10.212,10.212,0,0,1-6.2-1.972A7.822,7.822,0,0,1,1.321-7.307ZM33.278-28.668a8.471,8.471,0,0,1,8.048,4.584q1.922,3.543,1.922,9.709A23.38,23.38,0,0,1,41.506-4.7Q38.984.781,33.258.781A8.259,8.259,0,0,1,25.571-3.7q-2.1-3.744-2.1-10.05a24.831,24.831,0,0,1,1.261-8.388Q27.092-28.668,33.278-28.668ZM33.238-2.5A5.128,5.128,0,0,0,37.7-4.985q1.662-2.482,1.662-9.249a22.851,22.851,0,0,0-1.2-8.038A4.571,4.571,0,0,0,33.5-25.425a4.876,4.876,0,0,0-4.655,2.993q-1.471,2.993-1.471,8.819a21.656,21.656,0,0,0,.941,7.047Q29.755-2.5,33.238-2.5ZM46.076-13.273h10.05v3.7H46.076ZM58.694,0a16.72,16.72,0,0,1,1.531-6.446,12.4,12.4,0,0,1,5.2-4.985l3.844-2.222a18.1,18.1,0,0,0,3.624-2.562,5.264,5.264,0,0,0,1.642-3.8,5.31,5.31,0,0,0-1.5-3.974,5.473,5.473,0,0,0-4-1.471q-3.7,0-5.125,2.8a10.034,10.034,0,0,0-.841,4.164H59.395A12.868,12.868,0,0,1,60.776-24.6q2.342-4.164,8.268-4.164,4.925,0,7.2,2.663a8.908,8.908,0,0,1,2.272,5.926,8.055,8.055,0,0,1-2.422,5.886,23.715,23.715,0,0,1-5.025,3.443L68.323-9.329A17.765,17.765,0,0,0,65.24-7.267,7.511,7.511,0,0,0,62.718-3.4H78.373V0Zm32-28.668a8.471,8.471,0,0,1,8.048,4.584q1.922,3.543,1.922,9.709A23.38,23.38,0,0,1,98.919-4.7Q96.4.781,90.671.781A8.259,8.259,0,0,1,82.983-3.7q-2.1-3.744-2.1-10.05a24.831,24.831,0,0,1,1.261-8.388Q84.5-28.668,90.691-28.668ZM90.651-2.5a5.128,5.128,0,0,0,4.464-2.482q1.662-2.482,1.662-9.249a22.851,22.851,0,0,0-1.2-8.038,4.571,4.571,0,0,0-4.665-3.153,4.876,4.876,0,0,0-4.655,2.993q-1.471,2.993-1.471,8.819a21.656,21.656,0,0,0,.941,7.047Q87.167-2.5,90.651-2.5Zm22.227-26.166a8.471,8.471,0,0,1,8.048,4.584q1.922,3.543,1.922,9.709A23.38,23.38,0,0,1,121.106-4.7Q118.584.781,112.858.781A8.259,8.259,0,0,1,105.171-3.7q-2.1-3.744-2.1-10.05a24.831,24.831,0,0,1,1.261-8.388Q106.692-28.668,112.878-28.668ZM112.838-2.5A5.128,5.128,0,0,0,117.3-4.985q1.662-2.482,1.662-9.249a22.851,22.851,0,0,0-1.2-8.038,4.571,4.571,0,0,0-4.665-3.153,4.876,4.876,0,0,0-4.655,2.993q-1.471,2.993-1.471,8.819a21.656,21.656,0,0,0,.941,7.047Q109.355-2.5,112.838-2.5Zm33.484-19.419a9.78,9.78,0,0,1,4.424,1.071,8.159,8.159,0,0,1,3.263,2.773,9.566,9.566,0,0,1,1.441,3.784,24.755,24.755,0,0,1,.32,4.725H140.056A9.17,9.17,0,0,0,141.6-4.334a5.162,5.162,0,0,0,4.464,1.972,5.771,5.771,0,0,0,4.5-1.862,6.276,6.276,0,0,0,1.361-2.5h3.543a7.463,7.463,0,0,1-.931,2.633,9.363,9.363,0,0,1-1.772,2.372A8.4,8.4,0,0,1,148.7.44a12.346,12.346,0,0,1-2.943.32,9.029,9.029,0,0,1-6.787-2.913q-2.783-2.913-2.783-8.158a12.323,12.323,0,0,1,2.8-8.388A9.246,9.246,0,0,1,146.322-21.921Zm5.746,9.489a9.336,9.336,0,0,0-1.021-3.744,5.233,5.233,0,0,0-4.945-2.6,5.481,5.481,0,0,0-4.164,1.792,6.768,6.768,0,0,0-1.782,4.554Zm7.513-9.009h3.563V-18.4a11.977,11.977,0,0,1,2.322-2.3,6.984,6.984,0,0,1,4.044-1.221,6.364,6.364,0,0,1,4.124,1.261,6.592,6.592,0,0,1,1.6,2.122,7.789,7.789,0,0,1,2.823-2.552,7.874,7.874,0,0,1,3.644-.831q4.324,0,5.886,3.123a10.208,10.208,0,0,1,.841,4.524V0h-3.744V-14.895a3.469,3.469,0,0,0-1.071-2.943,4.239,4.239,0,0,0-2.613-.8,5.186,5.186,0,0,0-3.654,1.421q-1.531,1.421-1.531,4.745V0h-3.664V-13.994a7.271,7.271,0,0,0-.521-3.183,3.174,3.174,0,0,0-3.063-1.5,5.285,5.285,0,0,0-3.714,1.582q-1.672,1.582-1.672,5.726V0h-3.6ZM202.168-2.422a5.141,5.141,0,0,0,4.194-2.112q1.672-2.112,1.672-6.316a11.79,11.79,0,0,0-.741-4.4,5.112,5.112,0,0,0-5.125-3.543,5.11,5.11,0,0,0-5.125,3.744A14.837,14.837,0,0,0,196.3-9.97a10.779,10.779,0,0,0,.741,4.224A5.11,5.11,0,0,0,202.168-2.422Zm-9.329-18.918h3.5V-18.5A8.746,8.746,0,0,1,198.7-20.76a7.6,7.6,0,0,1,4.284-1.2,8.056,8.056,0,0,1,6.186,2.793q2.542,2.793,2.542,7.978,0,7.007-3.664,10.01a8.277,8.277,0,0,1-5.405,1.9A7.337,7.337,0,0,1,198.584-.34,9.363,9.363,0,0,1,196.442-2.4V8.548h-3.6Zm22.568-8.068h3.6V0h-3.6Zm16.9,27.086q3.583,0,4.915-2.713a13.514,13.514,0,0,0,1.331-6.036,10.747,10.747,0,0,0-.961-4.885,5.406,5.406,0,0,0-5.245-2.963,5.172,5.172,0,0,0-4.8,2.522,11.692,11.692,0,0,0-1.5,6.086,10.17,10.17,0,0,0,1.5,5.706A5.288,5.288,0,0,0,232.308-2.322Zm.14-19.739a9.709,9.709,0,0,1,7.007,2.763q2.863,2.763,2.863,8.128A13.945,13.945,0,0,1,239.8-2.6Q237.273.781,231.968.781a8.837,8.837,0,0,1-7.027-2.993,11.822,11.822,0,0,1-2.6-8.038,12.79,12.79,0,0,1,2.743-8.608A9.2,9.2,0,0,1,232.448-22.062Zm26.932.621h3.984q-.761,2.062-3.383,9.409-1.962,5.525-3.283,9.009-3.123,8.208-4.4,10.01t-4.4,1.8a8.641,8.641,0,0,1-1.171-.06,9.251,9.251,0,0,1-1.011-.22V5.225a12.431,12.431,0,0,0,1.361.32,5.314,5.314,0,0,0,.741.06,2.594,2.594,0,0,0,1.471-.33,3.047,3.047,0,0,0,.791-.811q.1-.16.721-1.642t.9-2.2l-7.928-22.062h4.084l5.746,17.457Zm15.421-.48a9.78,9.78,0,0,1,4.424,1.071,8.159,8.159,0,0,1,3.263,2.773,9.566,9.566,0,0,1,1.441,3.784,24.756,24.756,0,0,1,.32,4.725H268.535a9.17,9.17,0,0,0,1.542,5.235,5.162,5.162,0,0,0,4.464,1.972,5.771,5.771,0,0,0,4.5-1.862,6.276,6.276,0,0,0,1.361-2.5h3.543a7.462,7.462,0,0,1-.931,2.633,9.364,9.364,0,0,1-1.772,2.372A8.4,8.4,0,0,1,277.183.44a12.346,12.346,0,0,1-2.943.32,9.029,9.029,0,0,1-6.787-2.913q-2.783-2.913-2.783-8.158a12.323,12.323,0,0,1,2.8-8.388A9.246,9.246,0,0,1,274.8-21.921Zm5.746,9.489a9.336,9.336,0,0,0-1.021-3.744,5.233,5.233,0,0,0-4.945-2.6,5.481,5.481,0,0,0-4.164,1.792,6.769,6.769,0,0,0-1.782,4.554Zm16.442-9.489a9.78,9.78,0,0,1,4.424,1.071,8.159,8.159,0,0,1,3.263,2.773,9.566,9.566,0,0,1,1.441,3.784,24.756,24.756,0,0,1,.32,4.725H290.722a9.17,9.17,0,0,0,1.542,5.235,5.162,5.162,0,0,0,4.464,1.972,5.771,5.771,0,0,0,4.5-1.862,6.276,6.276,0,0,0,1.361-2.5h3.543a7.462,7.462,0,0,1-.931,2.633,9.364,9.364,0,0,1-1.772,2.372A8.4,8.4,0,0,1,299.37.44a12.346,12.346,0,0,1-2.943.32,9.029,9.029,0,0,1-6.787-2.913q-2.783-2.913-2.783-8.158a12.323,12.323,0,0,1,2.8-8.388A9.246,9.246,0,0,1,296.988-21.921Zm5.746,9.489a9.336,9.336,0,0,0-1.021-3.744,5.233,5.233,0,0,0-4.945-2.6,5.481,5.481,0,0,0-4.164,1.792,6.769,6.769,0,0,0-1.782,4.554Zm9.655,5.706a5.241,5.241,0,0,0,.9,2.763q1.361,1.742,4.725,1.742a6.968,6.968,0,0,0,3.523-.871,2.892,2.892,0,0,0,1.521-2.693,2.3,2.3,0,0,0-1.221-2.1,14.519,14.519,0,0,0-3.083-1.021l-2.863-.721a13.965,13.965,0,0,1-4.044-1.521,4.547,4.547,0,0,1-2.322-4.044,6.179,6.179,0,0,1,2.192-4.925,8.745,8.745,0,0,1,5.9-1.882q4.845,0,6.987,2.843a6.169,6.169,0,0,1,1.3,3.884h-3.4a4.169,4.169,0,0,0-.861-2.222q-1.241-1.421-4.3-1.421a5.145,5.145,0,0,0-3.093.781,2.447,2.447,0,0,0-1.051,2.062,2.538,2.538,0,0,0,1.381,2.242,8.3,8.3,0,0,0,2.362.881l2.382.581a18.42,18.42,0,0,1,5.205,1.822,4.824,4.824,0,0,1,2.1,4.344,6.62,6.62,0,0,1-2.172,4.945Q322.278.821,317.834.821q-4.785,0-6.777-2.172a8.214,8.214,0,0,1-2.132-5.375Z" transform="translate(528.338 547.63)" fill="#fff"/>
  </g>
</svg>
