<svg xmlns="http://www.w3.org/2000/svg" xmlns:xlink="http://www.w3.org/1999/xlink" width="191" height="234.211" viewBox="0 0 191 234.211">
  <defs>
    <filter id="Path_36869" x="0" y="0" width="191" height="234.211" filterUnits="userSpaceOnUse">
      <feOffset dy="5" input="SourceAlpha"/>
      <feGaussianBlur stdDeviation="5" result="blur"/>
      <feFlood flood-opacity="0.051"/>
      <feComposite operator="in" in2="blur"/>
      <feComposite in="SourceGraphic"/>
    </filter>
  </defs>
  <g id="top_50" transform="translate(5.602 10)">
    <path id="Path_36867" data-name="Path 36867" d="M197.82,162.922l-80.5,41.289-80.5-41.289V0h161Z" transform="translate(-27.421)" fill="#f8f8f8"/>
    <path id="Path_36868" data-name="Path 36868" d="M37.56,0V162.92L198.56,0Z" transform="translate(-27.972)" fill="#fff"/>
    <g transform="matrix(1, 0, 0, 1, -5.6, -10)" filter="url(#Path_36869)">
      <path id="Path_36869-2" data-name="Path 36869" d="M196.289,1.532V161.986L117.32,202.491,38.352,161.986V1.532H196.289M197.82,0h-161V162.92l80.5,41.292,80.5-41.292Z" transform="translate(-21.82 10)" fill="#dcdfdd"/>
    </g>
    <path id="Path_36870" data-name="Path 36870" d="M316.581,29.128,297.855,40.01l-18.4-10.882V0h37.131Z" transform="translate(-208.116)" fill="#ff492c"/>
    <path id="Path_36871" data-name="Path 36871" d="M360.571,38.782h-3.489c.1-.549.434-.853,1.118-1.2l.643-.327c1.149-.59,1.759-1.253,1.759-2.338a1.9,1.9,0,0,0-.789-1.608,3.063,3.063,0,0,0-1.876-.579,2.912,2.912,0,0,0-1.593.454,2.675,2.675,0,0,0-1.052,1.149l1.021,1.021a1.837,1.837,0,0,1,1.708-1.179c.63,0,1.021.327,1.021.779,0,.38-.189.7-.916,1.064l-.411.2a4.352,4.352,0,0,0-1.876,1.56A4.194,4.194,0,0,0,355.3,40v.255h5.279Zm-.467,3.112h-5.777l-2.887,5h5.777l2.887,5,2.887-5Z" transform="translate(-261.73 -24.372)" fill="#fff"/>
    <path id="Path_36872" data-name="Path 36872" d="M319.342,47.791a6.67,6.67,0,0,1,0-13.34l2.285-4.779a11.831,11.831,0,0,0-2.285-.222,11.671,11.671,0,1,0,6.874,21.1l-2.53-4.37A6.637,6.637,0,0,1,319.342,47.791Z" transform="translate(-229.134 -21.932)" fill="#fff"/>
    <path id="Path_36873" data-name="Path 36873" d="M174.08,418.24H5.718L0,403.945,5.718,389.65H174.08l5.718,14.295Z" transform="translate(0 -290.186)" fill="#ff492c"/>
    <path id="Path_36874" data-name="Path 36874" d="M127.269,424.228a2.808,2.808,0,0,1,1.138,1.126,3.367,3.367,0,0,1,.4,1.669,3.122,3.122,0,0,1-.419,1.631,2.854,2.854,0,0,1-1.177,1.1,3.738,3.738,0,0,1-1.741.391H123.4a.079.079,0,0,0-.089.087v3.663a.22.22,0,0,1-.255.255h-1.572a.22.22,0,0,1-.255-.255v-9.81a.22.22,0,0,1,.255-.255h4.084a3.525,3.525,0,0,1,1.7.4Zm-.927,3.86a1.345,1.345,0,0,0,.411-1.021,1.391,1.391,0,0,0-.411-1.044,1.5,1.5,0,0,0-1.087-.4H123.4a.079.079,0,0,0-.089.089v2.67a.079.079,0,0,0,.089.089h1.851a1.532,1.532,0,0,0,1.09-.385Zm8.161-1.432a.255.255,0,0,1,.13.306l-.278,1.544a.164.164,0,0,1-.082.163.411.411,0,0,1-.212,0,1.7,1.7,0,0,0-.426-.059,2.861,2.861,0,0,0-.34.028,1.455,1.455,0,0,0-.9.391,1.2,1.2,0,0,0-.368.919v3.941a.22.22,0,0,1-.255.255H130.2a.22.22,0,0,1-.255-.255v-7.058a.22.22,0,0,1,.255-.255h1.572a.22.22,0,0,1,.255.255v.454c0,.041,0,.064.028.074s.046,0,.074-.028a1.838,1.838,0,0,1,1.588-.855A1.531,1.531,0,0,1,134.5,426.656Zm2.116,6.953a3.226,3.226,0,0,1-1.2-1.764,5.216,5.216,0,0,1-.207-1.5,4.9,4.9,0,0,1,.222-1.557,3.158,3.158,0,0,1,1.213-1.705,3.574,3.574,0,0,1,2.124-.618,3.428,3.428,0,0,1,2.057.618,3.191,3.191,0,0,1,1.2,1.69,4.948,4.948,0,0,1,.22,1.544,5.757,5.757,0,0,1-.191,1.486,3.352,3.352,0,0,1-1.213,1.8,3.4,3.4,0,0,1-2.1.656A3.51,3.51,0,0,1,136.62,433.609Zm2.941-1.427a1.621,1.621,0,0,0,.485-.807,3.7,3.7,0,0,0,.117-1.021,3.964,3.964,0,0,0-.117-1.044,1.544,1.544,0,0,0-.485-.766,1.276,1.276,0,0,0-.837-.278,1.253,1.253,0,0,0-.825.278,1.562,1.562,0,0,0-.485.766,3.964,3.964,0,0,0-.117,1.044,3.9,3.9,0,0,0,.117,1.021,1.613,1.613,0,0,0,.493.807,1.259,1.259,0,0,0,.845.3A1.19,1.19,0,0,0,139.56,432.182Zm8.837-8.337h1.572a.22.22,0,0,1,.255.255V433.9a.22.22,0,0,1-.255.255H148.4a.22.22,0,0,1-.255-.255v-.406c0-.038-.013-.061-.036-.066a.061.061,0,0,0-.066.038,1.994,1.994,0,0,1-1.677.794,2.808,2.808,0,0,1-1.772-.6,3.03,3.03,0,0,1-1.067-1.565,5.376,5.376,0,0,1-.255-1.764,5.169,5.169,0,0,1,.278-1.825,3.063,3.063,0,0,1,1.067-1.5,2.808,2.808,0,0,1,1.741-.559,2.042,2.042,0,0,1,1.677.72c.018.031.041.041.066.031a.074.074,0,0,0,.036-.074V424.1a.222.222,0,0,1,.263-.25Zm-.255,6.514a3.079,3.079,0,0,0-.309-1.514,1.121,1.121,0,0,0-.985-.574,1.144,1.144,0,0,0-1.021.559,3.536,3.536,0,0,0-.043,2.984,1.149,1.149,0,0,0,1.072.633,1.1,1.1,0,0,0,1-.633,3.063,3.063,0,0,0,.276-1.455Zm8.3-3.778h1.572a.22.22,0,0,1,.255.255V433.9a.22.22,0,0,1-.255.255h-1.572a.22.22,0,0,1-.255-.255v-.406c0-.038-.013-.061-.036-.066a.061.061,0,0,0-.066.038,2.144,2.144,0,0,1-1.81.779,2.573,2.573,0,0,1-1.838-.676,2.476,2.476,0,0,1-.72-1.9v-4.835a.22.22,0,0,1,.255-.255h1.557a.22.22,0,0,1,.255.255v4.322a1.411,1.411,0,0,0,.314.957,1.1,1.1,0,0,0,.876.368,1.156,1.156,0,0,0,.822-.3,1.289,1.289,0,0,0,.4-.786v-4.556a.22.22,0,0,1,.248-.25Zm4.638,7.086a3.2,3.2,0,0,1-1.228-1.616,5.427,5.427,0,0,1-.255-1.736,5.232,5.232,0,0,1,.255-1.705,3.063,3.063,0,0,1,1.22-1.575,3.934,3.934,0,0,1,4.11.015,2.823,2.823,0,0,1,1.184,1.486,1.673,1.673,0,0,1,.117.454v.031c0,.128-.074.207-.22.235l-1.544.235-.074.015a.189.189,0,0,1-.207-.176l-.043-.207a1.113,1.113,0,0,0-.454-.63,1.409,1.409,0,0,0-.84-.255,1.3,1.3,0,0,0-.794.235,1.241,1.241,0,0,0-.454.646,3.573,3.573,0,0,0-.163,1.207,3.9,3.9,0,0,0,.148,1.2,1.315,1.315,0,0,0,.462.692,1.3,1.3,0,0,0,.8.255,1.366,1.366,0,0,0,.8-.255,1.241,1.241,0,0,0,.477-.656l.015-.074a.324.324,0,0,1,.1-.138.227.227,0,0,1,.191-.066l1.544.235a.278.278,0,0,1,.168.1.235.235,0,0,1,.038.176,1.47,1.47,0,0,1-.074.34,2.744,2.744,0,0,1-1.2,1.544,3.768,3.768,0,0,1-2.042.559,3.518,3.518,0,0,1-2.045-.577Zm10.7-5.424h-1.325a.077.077,0,0,0-.087.087v3.045a1.082,1.082,0,0,0,.2.712.807.807,0,0,0,.641.227h.411a.222.222,0,0,1,.255.255v1.276a.255.255,0,0,1-.255.255c-.373.02-.641.031-.809.031a3.251,3.251,0,0,1-1.823-.414,1.754,1.754,0,0,1-.618-1.532v-3.857a.077.077,0,0,0-.087-.087h-.75a.222.222,0,0,1-.255-.255v-1.161a.22.22,0,0,1,.255-.255h.75a.079.079,0,0,0,.087-.089v-1.662a.222.222,0,0,1,.255-.255h1.5a.222.222,0,0,1,.255.255v1.662a.079.079,0,0,0,.087.089h1.325a.22.22,0,0,1,.255.255v1.161a.222.222,0,0,1-.265.255Zm2.793,5.718a2.568,2.568,0,0,1-1.133-.779,1.787,1.787,0,0,1-.4-1.131v-.074a.22.22,0,0,1,.255-.255h1.478c.166,0,.255.028.255.087v.1a.661.661,0,0,0,.355.551,1.631,1.631,0,0,0,.9.227,1.532,1.532,0,0,0,.809-.191.569.569,0,0,0,.309-.511.421.421,0,0,0-.255-.4,4.469,4.469,0,0,0-.868-.281,9.273,9.273,0,0,1-1.072-.337,4.635,4.635,0,0,1-1.514-.794,1.672,1.672,0,0,1-.559-1.353,2.042,2.042,0,0,1,.853-1.728,3.622,3.622,0,0,1,2.234-.641,4.2,4.2,0,0,1,1.654.3,2.489,2.489,0,0,1,1.1.845,2.063,2.063,0,0,1,.391,1.235.158.158,0,0,1-.066.125.3.3,0,0,1-.184.051h-1.455c-.168,0-.255-.031-.255-.089v-.087a.651.651,0,0,0-.324-.546,1.531,1.531,0,0,0-.868-.22,1.634,1.634,0,0,0-.8.176.539.539,0,0,0-.317.485.472.472,0,0,0,.3.442,5.232,5.232,0,0,0,.993.309,7.5,7.5,0,0,1,.825.22,4.85,4.85,0,0,1,1.662.794,1.713,1.713,0,0,1,.6,1.412,1.96,1.96,0,0,1-.868,1.7,4,4,0,0,1-2.323.61A4.832,4.832,0,0,1,174.57,433.962Zm13.526-7.145v1.251a.22.22,0,0,1-.255.255h-1.325a.079.079,0,0,0-.087.089V433.9a.22.22,0,0,1-.255.255H184.6a.219.219,0,0,1-.255-.255V428.4a.079.079,0,0,0-.087-.089h-.779a.22.22,0,0,1-.255-.255v-1.251a.22.22,0,0,1,.255-.255h.779a.079.079,0,0,0,.087-.089v-.309a2.959,2.959,0,0,1,.281-1.417,1.557,1.557,0,0,1,.9-.722,5.215,5.215,0,0,1,1.728-.184h.485a.222.222,0,0,1,.255.255v1.044a.22.22,0,0,1-.255.255h-.408a.766.766,0,0,0-.911.942v.146a.079.079,0,0,0,.087.089h1.338a.22.22,0,0,1,.25.253Zm1.971,6.793a3.226,3.226,0,0,1-1.2-1.764,5.215,5.215,0,0,1-.207-1.5,4.9,4.9,0,0,1,.222-1.557,3.157,3.157,0,0,1,1.212-1.705,3.574,3.574,0,0,1,2.124-.618,3.444,3.444,0,0,1,2.068.618,3.2,3.2,0,0,1,1.2,1.69,4.947,4.947,0,0,1,.22,1.544,5.872,5.872,0,0,1-.189,1.486,3.3,3.3,0,0,1-3.318,2.456A3.513,3.513,0,0,1,190.067,433.609Zm2.941-1.427a1.6,1.6,0,0,0,.485-.807,3.7,3.7,0,0,0,.117-1.021,3.964,3.964,0,0,0-.117-1.044,1.532,1.532,0,0,0-.485-.766,1.276,1.276,0,0,0-.837-.278,1.253,1.253,0,0,0-.825.278,1.562,1.562,0,0,0-.485.766,4.083,4.083,0,0,0-.117,1.044,4.01,4.01,0,0,0,.117,1.021,1.613,1.613,0,0,0,.493.807,1.261,1.261,0,0,0,.847.3A1.187,1.187,0,0,0,193.007,432.182Zm8.569-5.526a.255.255,0,0,1,.133.306l-.278,1.544a.169.169,0,0,1-.082.163.411.411,0,0,1-.212,0,1.717,1.717,0,0,0-.426-.059,2.823,2.823,0,0,0-.34.028,1.455,1.455,0,0,0-.9.391,1.2,1.2,0,0,0-.368.919v3.941a.22.22,0,0,1-.255.255h-1.575a.217.217,0,0,1-.255-.255v-7.058a.22.22,0,0,1,.255-.255h1.575a.22.22,0,0,1,.255.255v.454c0,.041,0,.064.028.074s.046,0,.074-.028a1.838,1.838,0,0,1,1.588-.855A1.532,1.532,0,0,1,201.577,426.656Zm5.636,7.219a3.063,3.063,0,0,1-1.34-1.075,2.793,2.793,0,0,1-.467-1.608v-.255a.222.222,0,0,1,.255-.255h1.532c.166,0,.255.064.255.191v.2a1.2,1.2,0,0,0,.536.993,2.269,2.269,0,0,0,1.4.406,1.71,1.71,0,0,0,1.154-.332,1.044,1.044,0,0,0,.375-.817.824.824,0,0,0-.235-.595,2.093,2.093,0,0,0-.633-.426q-.393-.184-1.276-.511a11.5,11.5,0,0,1-1.675-.692,3.421,3.421,0,0,1-1.149-.962,2.389,2.389,0,0,1-.47-1.506,2.652,2.652,0,0,1,.454-1.544,2.918,2.918,0,0,1,1.276-1.021,4.648,4.648,0,0,1,1.858-.352,4.822,4.822,0,0,1,2,.4,3.206,3.206,0,0,1,1.373,1.11,2.828,2.828,0,0,1,.493,1.654v.146a.22.22,0,0,1-.255.255h-1.532c-.168,0-.255-.048-.255-.146v-.148a1.34,1.34,0,0,0-.511-1.052,2.075,2.075,0,0,0-1.389-.434,1.769,1.769,0,0,0-1.09.294.965.965,0,0,0-.38.809.893.893,0,0,0,.22.618,1.986,1.986,0,0,0,.669.457c.3.138.766.314,1.389.528q1.021.383,1.634.669a3.132,3.132,0,0,1,1.08.876,2.32,2.32,0,0,1,.477,1.514,2.724,2.724,0,0,1-.462,1.575,2.989,2.989,0,0,1-1.31,1.044,5.531,5.531,0,0,1-4.005-.015Zm11.747-7.081a2.808,2.808,0,0,1,1.169.906,2.113,2.113,0,0,1,.419,1.276v4.911a.22.22,0,0,1-.255.255H218.72a.22.22,0,0,1-.255-.255v-.355c0-.038,0-.061-.031-.066s-.043,0-.071.038a2.582,2.582,0,0,1-2.017.75,2.808,2.808,0,0,1-1.823-.559,2,2,0,0,1-.689-1.646,2.106,2.106,0,0,1,.794-1.759,3.592,3.592,0,0,1,2.264-.63h1.483a.079.079,0,0,0,.089-.087v-.309a.968.968,0,0,0-.3-.766,1.276,1.276,0,0,0-.876-.271,1.606,1.606,0,0,0-.728.145.766.766,0,0,0-.391.414.276.276,0,0,1-.294.189l-1.631-.2a.38.38,0,0,1-.184-.066.135.135,0,0,1-.051-.14,1.965,1.965,0,0,1,.511-1.087,2.882,2.882,0,0,1,1.149-.766,4.4,4.4,0,0,1,1.58-.271A4.207,4.207,0,0,1,218.96,426.794Zm-.927,5.58a1.047,1.047,0,0,0,.442-.868V431a.079.079,0,0,0-.089-.089h-1.044a1.9,1.9,0,0,0-1.044.255.8.8,0,0,0-.38.707.751.751,0,0,0,.286.623,1.177,1.177,0,0,0,.766.23,1.7,1.7,0,0,0,1.064-.347Zm3.985,1.516V424.1a.222.222,0,0,1,.255-.255h1.572a.22.22,0,0,1,.255.255v9.794a.22.22,0,0,1-.255.255h-1.572a.22.22,0,0,1-.255-.255Zm8.763-2.06a.255.255,0,0,1,.191-.1.214.214,0,0,1,.161.074l.84.807a.255.255,0,0,1,.087.179.271.271,0,0,1-.059.176,3.346,3.346,0,0,1-1.241.947,3.952,3.952,0,0,1-1.654.347,3.553,3.553,0,0,1-2.244-.692,3.377,3.377,0,0,1-1.2-1.9,5.191,5.191,0,0,1-.176-1.368,5.52,5.52,0,0,1,.161-1.44,3.132,3.132,0,0,1,1.2-1.754,3.426,3.426,0,0,1,2.108-.661,3.063,3.063,0,0,1,2.3.853,4.268,4.268,0,0,1,1.1,2.4c.038.324.069.682.089,1.072a.22.22,0,0,1-.255.255h-4.533a.079.079,0,0,0-.087.089,2.069,2.069,0,0,0,.1.454,1.192,1.192,0,0,0,.582.7,2.126,2.126,0,0,0,1.049.243A1.92,1.92,0,0,0,230.781,431.83Zm-2.657-3.359a1.131,1.131,0,0,0-.434.638c-.051.186-.079.309-.089.368s.015.089.074.089h2.5c.048,0,.074-.02.074-.059a1.089,1.089,0,0,0-.059-.337,1.317,1.317,0,0,0-.457-.676,1.475,1.475,0,0,0-1.608-.023Zm6.864,5.491a2.568,2.568,0,0,1-1.133-.779,1.764,1.764,0,0,1-.4-1.131v-.074a.22.22,0,0,1,.255-.255H235.2c.168,0,.255.028.255.087v.1a.659.659,0,0,0,.352.551,1.647,1.647,0,0,0,.9.227,1.532,1.532,0,0,0,.809-.191.574.574,0,0,0,.309-.511.421.421,0,0,0-.255-.4,4.533,4.533,0,0,0-.868-.281,9.269,9.269,0,0,1-1.072-.337,4.676,4.676,0,0,1-1.516-.794,1.672,1.672,0,0,1-.559-1.353,2.042,2.042,0,0,1,.853-1.728,3.637,3.637,0,0,1,2.236-.641,4.2,4.2,0,0,1,1.654.3,2.52,2.52,0,0,1,1.1.845,2.062,2.062,0,0,1,.391,1.235.158.158,0,0,1-.066.125.306.306,0,0,1-.184.051h-1.458c-.166,0-.255-.031-.255-.089v-.087a.648.648,0,0,0-.322-.546,1.532,1.532,0,0,0-.868-.22,1.628,1.628,0,0,0-.8.176.538.538,0,0,0-.317.485.47.47,0,0,0,.3.442,5.17,5.17,0,0,0,.985.324,7.455,7.455,0,0,1,.822.22,4.8,4.8,0,0,1,1.662.794,1.708,1.708,0,0,1,.6,1.412,1.966,1.966,0,0,1-.868,1.7,3.992,3.992,0,0,1-2.323.61,4.822,4.822,0,0,1-1.713-.281Z" transform="translate(-90.281 -315.557)" fill="#fff"/>
    <path id="Path_36875" data-name="Path 36875" d="M126.7,323.462c0,.02.015.036.041.048a1.611,1.611,0,0,1,.873,1.549,1.674,1.674,0,0,1-.676,1.46,3.012,3.012,0,0,1-1.787.48H122.6a.174.174,0,0,1-.128-.049.168.168,0,0,1-.048-.128v-6.509a.166.166,0,0,1,.176-.176h2.471a3.024,3.024,0,0,1,1.807.452,1.693,1.693,0,0,1,.613,1.46,1.412,1.412,0,0,1-.766,1.363.1.1,0,0,0-.023.049ZM124.06,321.6v1.2a.061.061,0,0,0,.069.069h.952a.973.973,0,0,0,.618-.174.582.582,0,0,0,.214-.485.618.618,0,0,0-.214-.51.957.957,0,0,0-.618-.176h-.952a.061.061,0,0,0-.069.079Zm1.708,3.829a.743.743,0,0,0,0-1.039.919.919,0,0,0-.613-.181h-1.021a.061.061,0,0,0-.069.069v1.264a.061.061,0,0,0,.069.069h1.021a.927.927,0,0,0,.613-.191Zm7.775-3.946a.173.173,0,0,1-.128.048h-2.992a.061.061,0,0,0-.069.069v1.167a.061.061,0,0,0,.069.069h1.892a.184.184,0,0,1,.128.048.174.174,0,0,1,.049.128v1.021a.166.166,0,0,1-.049.128.176.176,0,0,1-.128.051h-1.892a.061.061,0,0,0-.069.066v1.256a.061.061,0,0,0,.069.069h3a.174.174,0,0,1,.128.049.168.168,0,0,1,.049.128v1.039a.168.168,0,0,1-.049.128.174.174,0,0,1-.128.049h-4.518a.166.166,0,0,1-.128-.049.171.171,0,0,1-.051-.128v-6.5a.176.176,0,0,1,.051-.128.166.166,0,0,1,.128-.048h4.518a.166.166,0,0,1,.176.176v1.039a.169.169,0,0,1-.056.128Zm2.16,5.338a2.042,2.042,0,0,1-.916-.745,1.958,1.958,0,0,1-.324-1.121v-.128a.166.166,0,0,1,.176-.176h1.246a.222.222,0,0,1,.128.033.1.1,0,0,1,.049.084v.117a.7.7,0,0,0,.319.559,1.3,1.3,0,0,0,.817.255.94.94,0,0,0,.638-.186.564.564,0,0,0,.2-.431.462.462,0,0,0-.24-.421,4.106,4.106,0,0,0-.858-.345l-.214-.069a8.021,8.021,0,0,1-1.1-.444,2.381,2.381,0,0,1-.809-.679,1.657,1.657,0,0,1-.334-1.052,1.815,1.815,0,0,1,.319-1.064,2.042,2.042,0,0,1,.883-.7,3.175,3.175,0,0,1,1.276-.255,3.236,3.236,0,0,1,1.358.276,2.254,2.254,0,0,1,.944.766,1.981,1.981,0,0,1,.345,1.149v.077a.179.179,0,0,1-.049.128.174.174,0,0,1-.128.049h-1.246a.3.3,0,0,1-.128-.023.079.079,0,0,1-.048-.074v-.064a.794.794,0,0,0-.3-.608,1.2,1.2,0,0,0-.814-.255,1,1,0,0,0-.6.156.511.511,0,0,0-.217.442.493.493,0,0,0,.138.357,1.319,1.319,0,0,0,.426.255c.194.082.488.186.888.319.457.156.812.294,1.067.411a2.136,2.136,0,0,1,.72.572,1.547,1.547,0,0,1,.34,1.044,1.846,1.846,0,0,1-.324,1.085,2.093,2.093,0,0,1-.911.72,3.358,3.358,0,0,1-1.353.255,3.392,3.392,0,0,1-1.368-.266Zm9.994-6.632a.184.184,0,0,1,.049.128v1.049a.179.179,0,0,1-.049.128.174.174,0,0,1-.128.048H143.93a.061.061,0,0,0-.066.069v5.215a.171.171,0,0,1-.051.128.169.169,0,0,1-.128.049h-1.276a.174.174,0,0,1-.128-.049.168.168,0,0,1-.048-.128v-5.215a.061.061,0,0,0-.069-.069h-1.575a.166.166,0,0,1-.176-.176v-1.049a.174.174,0,0,1,.048-.128.169.169,0,0,1,.128-.048h4.98A.173.173,0,0,1,145.7,320.187Zm4.278,6.632a2.042,2.042,0,0,1-.916-.745,1.958,1.958,0,0,1-.324-1.121v-.128a.168.168,0,0,1,.049-.128.174.174,0,0,1,.128-.048h1.246a.222.222,0,0,1,.128.033.1.1,0,0,1,.049.084v.117a.7.7,0,0,0,.319.559,1.3,1.3,0,0,0,.817.255.94.94,0,0,0,.638-.186.567.567,0,0,0,.207-.431.467.467,0,0,0-.24-.421,4.236,4.236,0,0,0-.858-.345l-.217-.069a8.022,8.022,0,0,1-1.1-.444,2.382,2.382,0,0,1-.8-.669,1.657,1.657,0,0,1-.334-1.052,1.815,1.815,0,0,1,.319-1.064,2.042,2.042,0,0,1,.883-.7,3.175,3.175,0,0,1,1.276-.255,3.236,3.236,0,0,1,1.358.276,2.254,2.254,0,0,1,.944.766,1.981,1.981,0,0,1,.345,1.149v.077a.179.179,0,0,1-.048.128.174.174,0,0,1-.128.048h-1.246a.3.3,0,0,1-.128-.023.079.079,0,0,1-.048-.074v-.074a.794.794,0,0,0-.3-.608,1.2,1.2,0,0,0-.814-.255,1,1,0,0,0-.6.156.511.511,0,0,0-.217.442.493.493,0,0,0,.138.357,1.319,1.319,0,0,0,.426.255c.194.082.49.186.888.319a11.369,11.369,0,0,1,1.067.411,2.17,2.17,0,0,1,.722.572,1.56,1.56,0,0,1,.337,1.044,1.846,1.846,0,0,1-.324,1.085,2.093,2.093,0,0,1-.911.72,3.349,3.349,0,0,1-1.353.255,3.392,3.392,0,0,1-1.373-.265Zm6.165-.028a2.32,2.32,0,0,1-.937-.9,2.639,2.639,0,0,1-.332-1.343v-1.963a2.57,2.57,0,0,1,.332-1.317,2.3,2.3,0,0,1,.937-.893,3.227,3.227,0,0,1,2.808,0,2.3,2.3,0,0,1,.942.893,2.571,2.571,0,0,1,.334,1.317v1.96a2.639,2.639,0,0,1-.334,1.343,2.3,2.3,0,0,1-.942.9,3.25,3.25,0,0,1-2.808,0Zm2.157-1.378a1.126,1.126,0,0,0,.288-.814v-2.042a1.123,1.123,0,0,0-.288-.807.993.993,0,0,0-.766-.309.973.973,0,0,0-.748.309,1.126,1.126,0,0,0-.291.807V324.6a1.128,1.128,0,0,0,.291.814.988.988,0,0,0,.748.3,1.021,1.021,0,0,0,.773-.3Zm7.826-3.931a.168.168,0,0,1-.128.049h-2.989a.061.061,0,0,0-.069.069v1.167a.061.061,0,0,0,.069.069H164.9a.178.178,0,0,1,.128.048.174.174,0,0,1,.049.128v1.021a.166.166,0,0,1-.049.128.171.171,0,0,1-.128.051h-1.892a.061.061,0,0,0-.069.066v2.553a.166.166,0,0,1-.176.176h-1.276a.166.166,0,0,1-.176-.176v-6.514a.174.174,0,0,1,.048-.128.169.169,0,0,1,.128-.048h4.508a.169.169,0,0,1,.128.048.174.174,0,0,1,.048.128v1.039a.168.168,0,0,1-.046.128Zm5.922-1.294a.173.173,0,0,1,.048.128v1.049a.169.169,0,0,1-.048.128.174.174,0,0,1-.128.048h-1.636a.061.061,0,0,0-.069.069v5.215a.171.171,0,0,1-.051.128.163.163,0,0,1-.125.048H168.76a.174.174,0,0,1-.128-.049.179.179,0,0,1-.048-.128v-5.215a.061.061,0,0,0-.069-.069h-1.578a.174.174,0,0,1-.128-.048.169.169,0,0,1-.048-.128v-1.049a.166.166,0,0,1,.176-.176h4.98A.174.174,0,0,1,172.045,320.187Zm2.341,6.668-1.787-6.519a.12.12,0,0,1,0-.059c0-.092.051-.138.156-.138h1.376a.212.212,0,0,1,.133.043.187.187,0,0,1,.064.115l.825,3.459q.018.038.046.038c.015,0,.026-.013.033-.038l.784-3.466a.179.179,0,0,1,.2-.158h1.167a.189.189,0,0,1,.2.158l.86,3.459c.015.026.028.038.046.038s.028-.013.033-.038l.766-3.459a.173.173,0,0,1,.064-.115.207.207,0,0,1,.133-.043h1.332a.143.143,0,0,1,.156.2l-1.626,6.509a.184.184,0,0,1-.2.156h-1.3a.212.212,0,0,1-.133-.043.179.179,0,0,1-.064-.112l-.822-3.676c0-.033-.02-.051-.038-.051s-.033.018-.041.051l-.745,3.676a.171.171,0,0,1-.186.156h-1.215A.184.184,0,0,1,174.386,326.854Zm10.668,0-.227-.8c0-.041-.033-.059-.077-.059h-2.216a.074.074,0,0,0-.079.059l-.225.8a.184.184,0,0,1-.2.146H180.65a.156.156,0,0,1-.135-.054.146.146,0,0,1,0-.143l2.04-6.514a.2.2,0,0,1,.207-.148h1.733a.189.189,0,0,1,.207.148l2.068,6.517a.148.148,0,0,1,0,.069c0,.087-.051.128-.156.128h-1.384A.181.181,0,0,1,185.053,326.854Zm-2.2-2.177a.054.054,0,0,0,.059.059h1.452a.056.056,0,0,0,.054-.026.064.064,0,0,0,0-.054l-.745-2.606c0-.033-.018-.048-.036-.048s-.031.015-.043.048l-.745,2.606Zm8.431,2.185-1.138-2.553a.074.074,0,0,0-.077-.049h-.608a.061.061,0,0,0-.069.069v2.489a.171.171,0,0,1-.051.128.163.163,0,0,1-.125.048h-1.276a.173.173,0,0,1-.128-.048.179.179,0,0,1-.049-.128v-6.5a.184.184,0,0,1,.049-.128.173.173,0,0,1,.128-.048H190.8a2.356,2.356,0,0,1,1.136.255,1.882,1.882,0,0,1,.766.748,2.272,2.272,0,0,1,.255,1.113,2,2,0,0,1-.317,1.128,1.822,1.822,0,0,1-.888.7.064.064,0,0,0-.038.1l1.253,2.609.02.077c0,.087-.054.128-.156.128h-1.34a.207.207,0,0,1-.2-.128ZM189.4,321.6v1.353a.061.061,0,0,0,.069.069h1.067a.848.848,0,0,0,.59-.2.684.684,0,0,0,.225-.534.715.715,0,0,0-.225-.549.84.84,0,0,0-.59-.207h-1.067a.061.061,0,0,0-.069.069Zm9.458-.117a.166.166,0,0,1-.128.048h-3a.061.061,0,0,0-.069.069v1.167a.061.061,0,0,0,.069.069h1.889a.173.173,0,0,1,.125.048.176.176,0,0,1,.051.128v1.021a.174.174,0,0,1-.176.179h-1.889a.061.061,0,0,0-.069.066v1.256a.061.061,0,0,0,.069.069h3a.166.166,0,0,1,.128.049.171.171,0,0,1,.051.128v1.039a.171.171,0,0,1-.051.128.166.166,0,0,1-.128.049h-4.518a.174.174,0,0,1-.128-.049.168.168,0,0,1-.048-.128v-6.5a.166.166,0,0,1,.176-.176h4.518a.166.166,0,0,1,.128.049.176.176,0,0,1,.051.128v1.039A.171.171,0,0,1,198.853,321.481Zm7.617,5.373-.225-.8c0-.041-.033-.059-.079-.059H203.95a.077.077,0,0,0-.079.059l-.225.8a.184.184,0,0,1-.2.146h-1.381a.135.135,0,0,1-.148-.2l2.06-6.514a.194.194,0,0,1,.2-.148h1.736a.189.189,0,0,1,.207.148l2.068,6.517a.194.194,0,0,1,0,.069c0,.087-.054.128-.158.128h-1.381a.184.184,0,0,1-.186-.148Zm-2.2-2.177a.054.054,0,0,0,.059.059h1.45a.054.054,0,0,0,.054-.026.056.056,0,0,0,0-.054l-.745-2.606c0-.033-.018-.048-.033-.048s-.031.015-.043.048l-.745,2.606Zm5,2.177-1.787-6.519a.12.12,0,0,1,0-.059c0-.092.051-.138.156-.138h1.373a.212.212,0,0,1,.133.043.186.186,0,0,1,.064.115l.822,3.459q.018.038.046.038c.015,0,.026-.013.033-.038l.776-3.466a.179.179,0,0,1,.2-.158h1.167a.189.189,0,0,1,.2.158l.86,3.459c.015.026.028.038.046.038s.028-.013.033-.038l.766-3.459a.173.173,0,0,1,.064-.115.207.207,0,0,1,.133-.043h1.332a.143.143,0,0,1,.156.2l-1.631,6.517a.184.184,0,0,1-.2.156h-1.3a.212.212,0,0,1-.133-.043.179.179,0,0,1-.064-.112l-.822-3.676c0-.033-.02-.051-.038-.051s-.033.018-.041.051l-.745,3.676a.171.171,0,0,1-.186.156h-1.215A.184.184,0,0,1,209.273,326.854Zm10.657,0-.227-.8c0-.041-.033-.059-.077-.059h-2.216a.074.074,0,0,0-.079.059l-.225.8a.184.184,0,0,1-.2.146h-1.384a.156.156,0,0,1-.135-.054.145.145,0,0,1,0-.143l2.047-6.514a.2.2,0,0,1,.207-.148h1.733a.189.189,0,0,1,.207.148l2.068,6.517a.149.149,0,0,1,0,.069c0,.087-.051.128-.156.128h-1.384A.181.181,0,0,1,219.93,326.854Zm-2.2-2.177a.054.054,0,0,0,.059.059h1.452a.056.056,0,0,0,.054-.026.064.064,0,0,0,0-.054l-.75-2.606c0-.033-.018-.048-.036-.048s-.031.015-.043.048l-.745,2.606Zm8.431,2.185-1.138-2.553a.074.074,0,0,0-.077-.049h-.608a.061.061,0,0,0-.069.069v2.489a.171.171,0,0,1-.051.128.163.163,0,0,1-.125.048H222.82a.174.174,0,0,1-.128-.048.179.179,0,0,1-.048-.128v-6.5a.184.184,0,0,1,.048-.128.173.173,0,0,1,.128-.048h2.854a2.356,2.356,0,0,1,1.136.255,1.881,1.881,0,0,1,.766.748,2.272,2.272,0,0,1,.255,1.113,2,2,0,0,1-.317,1.128,1.822,1.822,0,0,1-.888.7.064.064,0,0,0-.038.1l1.253,2.609.02.077c0,.087-.054.128-.156.128H226.36a.207.207,0,0,1-.2-.128Zm-1.892-5.264v1.353a.061.061,0,0,0,.069.069h1.067a.837.837,0,0,0,.587-.2.679.679,0,0,0,.227-.534.707.707,0,0,0-.227-.549.83.83,0,0,0-.587-.207h-1.067a.061.061,0,0,0-.069.069Zm4.684,5.353a.168.168,0,0,1-.048-.128v-6.509a.166.166,0,0,1,.176-.176h2.44a3.264,3.264,0,0,1,1.353.255,2.068,2.068,0,0,1,.911.753,2,2,0,0,1,.324,1.128v2.568a1.988,1.988,0,0,1-.324,1.128,2.068,2.068,0,0,1-.911.766,3.224,3.224,0,0,1-1.353.255h-2.44A.174.174,0,0,1,228.956,326.951Zm1.646-1.343h.99a.809.809,0,0,0,.638-.281,1.133,1.133,0,0,0,.255-.748v-2.019a1.087,1.087,0,0,0-.255-.75.84.84,0,0,0-.653-.281h-.98a.061.061,0,0,0-.069.069v3.941a.061.061,0,0,0,.074.069Zm5.682,1.21a2.042,2.042,0,0,1-.916-.745,1.958,1.958,0,0,1-.324-1.121v-.128a.166.166,0,0,1,.176-.176h1.246a.222.222,0,0,1,.128.033.1.1,0,0,1,.049.084v.117a.7.7,0,0,0,.319.559,1.3,1.3,0,0,0,.817.255.94.94,0,0,0,.638-.186.564.564,0,0,0,.2-.431.462.462,0,0,0-.24-.421,4.1,4.1,0,0,0-.858-.345l-.214-.069a8.021,8.021,0,0,1-1.1-.444,2.382,2.382,0,0,1-.8-.669,1.657,1.657,0,0,1-.334-1.052,1.815,1.815,0,0,1,.319-1.064,2.042,2.042,0,0,1,.883-.7,3.175,3.175,0,0,1,1.276-.255,3.236,3.236,0,0,1,1.358.276,2.254,2.254,0,0,1,.944.766,1.981,1.981,0,0,1,.345,1.149v.077a.179.179,0,0,1-.048.128.174.174,0,0,1-.128.048h-1.246a.3.3,0,0,1-.128-.023.079.079,0,0,1-.049-.074v-.074a.794.794,0,0,0-.3-.608,1.2,1.2,0,0,0-.814-.255,1,1,0,0,0-.6.156.511.511,0,0,0-.217.442.493.493,0,0,0,.138.357,1.319,1.319,0,0,0,.426.255c.194.082.488.186.888.319.457.156.812.294,1.067.411a2.137,2.137,0,0,1,.72.572,1.547,1.547,0,0,1,.339,1.044,1.845,1.845,0,0,1-.324,1.085,2.093,2.093,0,0,1-.911.72,3.358,3.358,0,0,1-1.353.255,3.392,3.392,0,0,1-1.373-.266Zm-86.366-86.532a.61.61,0,0,1,.171.444V244.4a.587.587,0,0,1-.618.615h-5.718a.214.214,0,0,0-.24.242v18.251a.587.587,0,0,1-.618.618h-4.472a.587.587,0,0,1-.618-.618V245.262a.214.214,0,0,0-.24-.242h-5.524a.587.587,0,0,1-.618-.615v-3.673a.59.59,0,0,1,.618-.618h17.429A.608.608,0,0,1,149.919,240.287Zm2.259,22.471a8.074,8.074,0,0,1-2.9-4.459,11.012,11.012,0,0,1-.411-3.089,12.358,12.358,0,0,1,.447-3.318,7.64,7.64,0,0,1,2.933-4.237,8.706,8.706,0,0,1,5.2-1.532,8.3,8.3,0,0,1,5.105,1.532,7.913,7.913,0,0,1,2.9,4.194,10.976,10.976,0,0,1,.48,3.293,11.808,11.808,0,0,1-.378,3.02,8.051,8.051,0,0,1-2.882,4.564,8.342,8.342,0,0,1-5.281,1.68A8.165,8.165,0,0,1,152.178,262.758Zm6.892-3.86a3.507,3.507,0,0,0,.942-1.733,8.655,8.655,0,0,0,.207-1.955,8.252,8.252,0,0,0-.24-1.989,3.224,3.224,0,0,0-.927-1.646,2.637,2.637,0,0,0-3.318,0,3.262,3.262,0,0,0-.909,1.646,6.711,6.711,0,0,0-.24,1.989,8.66,8.66,0,0,0,.2,1.955,3.788,3.788,0,0,0,.962,1.733,2.259,2.259,0,0,0,1.646.636A2.328,2.328,0,0,0,159.07,258.9Zm26.563-3.551a12.084,12.084,0,0,1-.72,4.324,7.441,7.441,0,0,1-2.553,3.446,6.461,6.461,0,0,1-3.964,1.322,4.778,4.778,0,0,1-3.911-1.58c-.069-.089-.133-.125-.189-.1s-.084.092-.084.207v6.826a.59.59,0,0,1-.618.618H169.13a.592.592,0,0,1-.444-.171.6.6,0,0,1-.174-.447V247.01a.59.59,0,0,1,.618-.618h4.462a.591.591,0,0,1,.618.618v.824c0,.115.028.181.084.2s.12,0,.189-.1a4.494,4.494,0,0,1,3.911-1.817,6.543,6.543,0,0,1,4.117,1.473,7.349,7.349,0,0,1,2.573,3.809,12.791,12.791,0,0,1,.549,3.946Zm-6.106-.1a6.057,6.057,0,0,0-.585-2.849,2.282,2.282,0,0,0-2.093-1.276,2.229,2.229,0,0,0-2.024,1.3,5.976,5.976,0,0,0-.582,2.808,6.292,6.292,0,0,0,.618,3.017,2.229,2.229,0,0,0,1.989,1.167,2.272,2.272,0,0,0,2.06-1.2,6.151,6.151,0,0,0,.618-2.971Zm31.495,1.1a8.97,8.97,0,0,1-.618,3.293,7.257,7.257,0,0,1-2.969,3.413,8.894,8.894,0,0,1-4.784,1.276,9,9,0,0,1-4.781-1.241,7.28,7.28,0,0,1-2.984-3.413,7.989,7.989,0,0,1-.511-1.853v-.138c0-.342.194-.511.585-.511h4.63a.707.707,0,0,1,.687.447,1.46,1.46,0,0,0,.207.447,2.129,2.129,0,0,0,.84,1.047,2.41,2.41,0,0,0,1.322.36,2.259,2.259,0,0,0,1.276-.378,2.3,2.3,0,0,0,.84-1,3.27,3.27,0,0,0,.411-1.646,3.39,3.39,0,0,0-.342-1.749,1.978,1.978,0,0,0-.807-.978,2.537,2.537,0,0,0-1.389-.362,2.491,2.491,0,0,0-2.129.962,1.559,1.559,0,0,1-.327.309.692.692,0,0,1-.393.1H195a.592.592,0,0,1-.444-.171.6.6,0,0,1-.174-.447V240.731a.6.6,0,0,1,.174-.444.6.6,0,0,1,.444-.174h14.614a.591.591,0,0,1,.618.618v3.638a.613.613,0,0,1-.171.447.6.6,0,0,1-.447.171h-9.294a.214.214,0,0,0-.243.24v3.844a.219.219,0,0,0,.069.189q.069.054.207-.015a6.4,6.4,0,0,1,3.122-.791,7.563,7.563,0,0,1,4.288,1.236,6.956,6.956,0,0,1,2.675,3.364A9.767,9.767,0,0,1,211.021,256.343Zm4.462,5.986a8.034,8.034,0,0,1-2.264-6.022v-8.37A7.811,7.811,0,0,1,215.483,242a10.021,10.021,0,0,1,12.454.015,7.754,7.754,0,0,1,2.3,5.92v8.37a7.97,7.97,0,0,1-2.3,6.022,8.622,8.622,0,0,1-6.244,2.213A8.5,8.5,0,0,1,215.483,262.329Zm8.286-3.5a3.082,3.082,0,0,0,.766-2.213V247.73a3.086,3.086,0,0,0-.766-2.213,2.747,2.747,0,0,0-2.075-.807,2.645,2.645,0,0,0-2.024.807,3.089,3.089,0,0,0-.766,2.213v8.886a3.15,3.15,0,0,0,.738,2.213,2.627,2.627,0,0,0,2.042.807,2.739,2.739,0,0,0,2.083-.807Zm-61.833,91.678a.339.339,0,0,1-.1-.255v-1.978a.559.559,0,0,1,.2-.431q.722-.666,1.509-1.491t1.491-1.57q1.294-1.353,1.215-1.276,1.787-1.843,1.787-2.685a1.207,1.207,0,0,0-.421-.942,1.585,1.585,0,0,0-1.087-.373,1.554,1.554,0,0,0-1.08.373,1.276,1.276,0,0,0-.411.98v.362a.337.337,0,0,1-.352.352h-2.591a.345.345,0,0,1-.255-.1.332.332,0,0,1-.1-.255v-.865a3.421,3.421,0,0,1,.725-1.922,4.15,4.15,0,0,1,1.705-1.276,6.032,6.032,0,0,1,2.354-.442,5.636,5.636,0,0,1,2.537.539,4.031,4.031,0,0,1,1.667,1.46,3.732,3.732,0,0,1,.186,3.666,8.1,8.1,0,0,1-1.177,1.746,40.266,40.266,0,0,1-2.882,2.979l-.549.531c-.051.051-.071.094-.059.128s.054.048.117.048h4.784a.352.352,0,0,1,.255.1.342.342,0,0,1,.1.255v2.078a.333.333,0,0,1-.352.352h-8.96a.332.332,0,0,1-.253-.084Zm12.291-.932a4.614,4.614,0,0,1-1.294-3.441v-4.784a4.464,4.464,0,0,1,1.294-3.39,4.927,4.927,0,0,1,3.548-1.235,4.989,4.989,0,0,1,3.574,1.246,4.414,4.414,0,0,1,1.312,3.38v4.784a4.548,4.548,0,0,1-1.312,3.441,4.993,4.993,0,0,1-3.574,1.276A4.89,4.89,0,0,1,174.227,349.576Zm4.735-2a1.751,1.751,0,0,0,.442-1.264v-5.08a1.751,1.751,0,0,0-.442-1.264,1.572,1.572,0,0,0-1.187-.462,1.514,1.514,0,0,0-1.156.462,1.769,1.769,0,0,0-.431,1.264v5.093a1.787,1.787,0,0,0,.421,1.264,1.5,1.5,0,0,0,1.167.459A1.57,1.57,0,0,0,178.963,347.577Zm5.3,2.93a.35.35,0,0,1-.1-.255v-1.978a.551.551,0,0,1,.2-.431q.725-.666,1.509-1.491l1.491-1.57c.863-.9,1.276-1.325,1.215-1.276q1.787-1.843,1.787-2.685a1.207,1.207,0,0,0-.421-.942,1.59,1.59,0,0,0-1.09-.373,1.549,1.549,0,0,0-1.077.373,1.276,1.276,0,0,0-.411.98v.362a.334.334,0,0,1-.1.255.34.34,0,0,1-.255.1h-2.588a.34.34,0,0,1-.255-.1.334.334,0,0,1-.1-.255v-.868a3.443,3.443,0,0,1,.727-1.922,4.132,4.132,0,0,1,1.705-1.276,6.02,6.02,0,0,1,2.351-.442,5.647,5.647,0,0,1,2.54.539,4.03,4.03,0,0,1,1.667,1.46,3.75,3.75,0,0,1,.186,3.666,8.19,8.19,0,0,1-1.177,1.746,40.255,40.255,0,0,1-2.877,2.992l-.549.531c-.054.051-.071.094-.059.128s.051.048.117.048h4.779a.334.334,0,0,1,.352.352v2.078a.35.35,0,0,1-.1.255.342.342,0,0,1-.255.1h-8.96a.342.342,0,0,1-.255-.1Zm12.96-13.626h2.688a.345.345,0,0,1,.255.1.339.339,0,0,1,.1.255v13.018a.333.333,0,0,1-.352.352h-2.553a.337.337,0,0,1-.355-.352V340a.133.133,0,0,0-.038-.1.089.089,0,0,0-.1-.02l-1.646.2h-.061c-.207,0-.311-.11-.311-.332V337.92a.4.4,0,0,1,.294-.391l1.646-.569A1.077,1.077,0,0,1,197.224,336.881Z" transform="translate(-91.17 -178.617)" fill="#252530"/>
  </g>
</svg>
