<svg xmlns="http://www.w3.org/2000/svg" xmlns:xlink="http://www.w3.org/1999/xlink" width="207.365" height="250.942" viewBox="0 0 207.365 250.942">
  <defs>
    <filter id="Path_36878" x="0" y="0" width="207.365" height="250.942" filterUnits="userSpaceOnUse">
      <feOffset dy="5" input="SourceAlpha"/>
      <feGaussianBlur stdDeviation="7.5" result="blur"/>
      <feFlood flood-opacity="0.051"/>
      <feComposite operator="in" in2="blur"/>
      <feComposite in="SourceGraphic"/>
    </filter>
  </defs>
  <g id="top_100" transform="translate(13.021 17.5)">
    <path id="Path_36876" data-name="Path 36876" d="M199.185,164.3,118,205.942,36.82,164.3V0H199.185Z" transform="translate(-27.342)" fill="#f8f8f8"/>
    <path id="Path_36877" data-name="Path 36877" d="M37.56,0V164.3L199.925,0Z" transform="translate(-27.891)" fill="#fff"/>
    <g transform="matrix(1, 0, 0, 1, -13.02, -17.5)" filter="url(#Path_36878)">
      <path id="Path_36878-2" data-name="Path 36878" d="M197.64,1.545V163.358L118,204.207,38.365,163.358V1.545H197.64M199.185,0H36.82V164.3L118,205.942,199.185,164.3Z" transform="translate(-14.32 17.5)" fill="#dcdfdd"/>
    </g>
    <path id="Path_36879" data-name="Path 36879" d="M316.9,29.375,298.01,40.349,279.45,29.375V0H316.9Z" transform="translate(-207.512)" fill="#ff492c"/>
    <path id="Path_36880" data-name="Path 36880" d="M360.648,38.833h-3.519c.1-.553.438-.86,1.128-1.212l.649-.33c1.158-.595,1.774-1.264,1.774-2.358a1.915,1.915,0,0,0-.8-1.622,3.089,3.089,0,0,0-1.892-.584,2.937,2.937,0,0,0-1.606.458,2.7,2.7,0,0,0-1.061,1.158l1.03,1.03a1.852,1.852,0,0,1,1.722-1.189c.636,0,1.03.33,1.03.785,0,.384-.19.7-.924,1.073l-.414.2a4.389,4.389,0,0,0-1.892,1.573,4.23,4.23,0,0,0-.541,2.242v.257h5.324Zm-.471,3.138h-5.826l-2.911,5.043h5.826l2.912,5.046,2.911-5.046Z" transform="translate(-260.97 -24.301)" fill="#fff"/>
    <path id="Path_36881" data-name="Path 36881" d="M319.441,47.946a6.727,6.727,0,0,1,0-13.453l2.3-4.819a11.932,11.932,0,0,0-2.3-.224,11.77,11.77,0,1,0,6.933,21.282l-2.551-4.407A6.693,6.693,0,0,1,319.441,47.946Z" transform="translate(-228.468 -21.869)" fill="#fff"/>
    <path id="Path_36882" data-name="Path 36882" d="M175.555,418.482H5.766L0,404.066,5.766,389.65H175.555l5.766,14.416Z" transform="translate(0 -289.343)" fill="#ff492c"/>
    <path id="Path_36883" data-name="Path 36883" d="M64.9,424.654h-4.3a.072.072,0,0,0-.082.08v2.047a.075.075,0,0,0,.082.082h2.8a.2.2,0,0,1,.221.232v1.164a.2.2,0,0,1-.229.229H60.594a.072.072,0,0,0-.082.08v3.6a.2.2,0,0,1-.227.227H58.853a.2.2,0,0,1-.229-.227v-8.91a.2.2,0,0,1,.229-.229H64.9a.2.2,0,0,1,.227.229v1.164a.2.2,0,0,1-.227.229Zm4.757,1.063a2.549,2.549,0,0,1,1.063.824A1.923,1.923,0,0,1,71.1,427.7v4.471a.2.2,0,0,1-.229.227H69.441a.2.2,0,0,1-.229-.227v-.322c0-.036,0-.054-.026-.059s-.041,0-.067.033a2.351,2.351,0,0,1-1.833.682,2.559,2.559,0,0,1-1.66-.515A1.8,1.8,0,0,1,65,430.5a1.918,1.918,0,0,1,.723-1.6,3.252,3.252,0,0,1,2.059-.569H69.13a.072.072,0,0,0,.08-.082v-.281a.886.886,0,0,0-.273-.69,1.153,1.153,0,0,0-.8-.257,1.467,1.467,0,0,0-.662.134.7.7,0,0,0-.355.376.257.257,0,0,1-.257.172l-1.485-.185a.355.355,0,0,1-.167-.062.118.118,0,0,1-.057-.1,1.784,1.784,0,0,1,.461-.991,2.633,2.633,0,0,1,1.045-.69,4.011,4.011,0,0,1,1.439-.257A3.813,3.813,0,0,1,69.655,425.717Zm-.844,5.079a.95.95,0,0,0,.4-.788v-.469a.072.072,0,0,0-.08-.082h-.95a1.717,1.717,0,0,0-.95.229.723.723,0,0,0-.348.641.68.68,0,0,0,.257.569,1.076,1.076,0,0,0,.69.209,1.545,1.545,0,0,0,.978-.309Zm4.78,1.447a2.343,2.343,0,0,1-1.03-.711,1.614,1.614,0,0,1-.36-1.03v-.062a.2.2,0,0,1,.227-.227h1.354c.152,0,.227.026.227.08v.093a.6.6,0,0,0,.322.515,1.472,1.472,0,0,0,.816.209,1.385,1.385,0,0,0,.736-.175.515.515,0,0,0,.281-.456.386.386,0,0,0-.239-.36,4.243,4.243,0,0,0-.79-.257,8.551,8.551,0,0,1-.978-.306,4.252,4.252,0,0,1-1.377-.723,1.521,1.521,0,0,1-.515-1.233,1.866,1.866,0,0,1,.772-1.573,3.313,3.313,0,0,1,2.034-.582,3.844,3.844,0,0,1,1.506.275,2.317,2.317,0,0,1,1,.772,1.882,1.882,0,0,1,.355,1.125.139.139,0,0,1-.062.113.258.258,0,0,1-.167.046h-1.31c-.152,0-.229-.026-.229-.08v-.088a.587.587,0,0,0-.293-.5,1.383,1.383,0,0,0-.79-.2,1.468,1.468,0,0,0-.729.162.484.484,0,0,0-.288.44.427.427,0,0,0,.275.4,4.6,4.6,0,0,0,.9.281,6.948,6.948,0,0,1,.749.2,4.376,4.376,0,0,1,1.511.723,1.545,1.545,0,0,1,.551,1.287,1.8,1.8,0,0,1-.79,1.545,3.6,3.6,0,0,1-2.116.556A4.376,4.376,0,0,1,73.591,432.243Zm9.262-5.208h-1.2a.072.072,0,0,0-.08.08v2.772a.971.971,0,0,0,.18.649.731.731,0,0,0,.582.209h.376a.2.2,0,0,1,.227.227v1.151a.224.224,0,0,1-.227.242c-.34.018-.584.026-.736.026a2.976,2.976,0,0,1-1.66-.373,1.607,1.607,0,0,1-.561-1.393v-3.509a.072.072,0,0,0-.08-.08h-.685a.2.2,0,0,1-.227-.227V425.75a.2.2,0,0,1,.227-.227h.685a.072.072,0,0,0,.08-.082V423.93a.2.2,0,0,1,.227-.229h1.367a.2.2,0,0,1,.227.229v1.511a.072.072,0,0,0,.08.082h1.2a.2.2,0,0,1,.229.227v1.058a.2.2,0,0,1-.229.227ZM88.8,430.3a.229.229,0,0,1,.175-.093.2.2,0,0,1,.147.067l.772.736a.221.221,0,0,1,.08.16.257.257,0,0,1-.051.16,3.053,3.053,0,0,1-1.133.865,3.6,3.6,0,0,1-1.506.314,3.228,3.228,0,0,1-2.047-.628,3.089,3.089,0,0,1-1.091-1.727,4.791,4.791,0,0,1-.16-1.246,5.012,5.012,0,0,1,.147-1.31,2.863,2.863,0,0,1,1.079-1.593,3.127,3.127,0,0,1,1.92-.6,2.8,2.8,0,0,1,2.083.772,3.9,3.9,0,0,1,1,2.183c.036.293.062.62.08.978a.2.2,0,0,1-.227.227H85.943a.072.072,0,0,0-.08.08,1.956,1.956,0,0,0,.1.414,1.081,1.081,0,0,0,.528.636,1.91,1.91,0,0,0,.958.221A1.745,1.745,0,0,0,88.8,430.3Zm-2.417-3.058a1.058,1.058,0,0,0-.394.582c-.044.17-.072.281-.08.335s0,.08.067.08h2.276c.044,0,.067-.018.067-.054a.95.95,0,0,0-.054-.306,1.259,1.259,0,0,0-1.882-.636Zm6.245,5a2.332,2.332,0,0,1-1.03-.711,1.6,1.6,0,0,1-.363-1.03v-.062a.2.2,0,0,1,.229-.227h1.352c.152,0,.227.026.227.08v.093a.6.6,0,0,0,.322.515,1.472,1.472,0,0,0,.816.209,1.38,1.38,0,0,0,.736-.175.515.515,0,0,0,.283-.456.389.389,0,0,0-.242-.36,4.175,4.175,0,0,0-.79-.257,8.469,8.469,0,0,1-.976-.306,4.268,4.268,0,0,1-1.38-.723,1.521,1.521,0,0,1-.515-1.233,1.866,1.866,0,0,1,.772-1.573,3.313,3.313,0,0,1,2.034-.582,3.844,3.844,0,0,1,1.506.275,2.317,2.317,0,0,1,1,.772,1.882,1.882,0,0,1,.355,1.125.142.142,0,0,1-.059.113.258.258,0,0,1-.167.046H95.426c-.152,0-.227-.026-.227-.08v-.088a.584.584,0,0,0-.286-.515,1.375,1.375,0,0,0-.788-.2,1.478,1.478,0,0,0-.731.162.489.489,0,0,0-.288.44.427.427,0,0,0,.275.4,4.6,4.6,0,0,0,.9.281,6.643,6.643,0,0,1,.749.2,4.376,4.376,0,0,1,1.514.723,1.545,1.545,0,0,1,.548,1.287,1.784,1.784,0,0,1-.79,1.545,3.6,3.6,0,0,1-2.113.566,4.389,4.389,0,0,1-1.568-.257Zm9.265-5.208h-1.21a.072.072,0,0,0-.082.08v2.772a.97.97,0,0,0,.183.649.729.729,0,0,0,.582.209h.373a.2.2,0,0,1,.229.227v1.151a.224.224,0,0,1-.229.242c-.337.018-.584.026-.736.026a2.97,2.97,0,0,1-1.658-.373,1.608,1.608,0,0,1-.564-1.393v-3.509a.072.072,0,0,0-.08-.08h-.682a.2.2,0,0,1-.229-.227V425.75a.2.2,0,0,1,.229-.227H98.7a.072.072,0,0,0,.08-.082V423.93a.2.2,0,0,1,.229-.229h1.364a.2.2,0,0,1,.227.229v1.511a.075.075,0,0,0,.082.082h1.2a.2.2,0,0,1,.227.227v1.058a.2.2,0,0,1-.221.227Zm5.635,5.061a3.007,3.007,0,0,1-1.225-1.158,3.329,3.329,0,0,1-.435-1.72v-3a3.37,3.37,0,0,1,.435-1.727,2.942,2.942,0,0,1,1.225-1.158,4.253,4.253,0,0,1,3.619,0,3.048,3.048,0,0,1,1.22,1.092,2.832,2.832,0,0,1,.432,1.532v.026a.2.2,0,0,1-.227.229h-1.431a.363.363,0,0,1-.167-.033c-.041-.023-.062-.046-.062-.075v-.093a1.4,1.4,0,0,0-.427-1.03,1.733,1.733,0,0,0-2.3.026,1.609,1.609,0,0,0-.435,1.171v3.107a1.545,1.545,0,0,0,.469,1.171,1.655,1.655,0,0,0,1.192.448,1.612,1.612,0,0,0,1.109-.368,1.287,1.287,0,0,0,.417-1.03v-.59a.072.072,0,0,0-.082-.08h-1.424a.2.2,0,0,1-.227-.227v-1.1a.2.2,0,0,1,.227-.227h3.133a.2.2,0,0,1,.227.227v1.7a3.5,3.5,0,0,1-.427,1.766,2.847,2.847,0,0,1-1.212,1.146,3.972,3.972,0,0,1-1.8.394,3.862,3.862,0,0,1-1.825-.422Zm10.66-6.505a.229.229,0,0,1,.121.281l-.257,1.406a.149.149,0,0,1-.075.147.338.338,0,0,1-.193,0,1.6,1.6,0,0,0-.389-.054,2.862,2.862,0,0,0-.306.028,1.321,1.321,0,0,0-.819.353,1.1,1.1,0,0,0-.335.837v3.589a.2.2,0,0,1-.227.227h-1.431a.2.2,0,0,1-.229-.227V425.74a.2.2,0,0,1,.229-.227h1.431a.2.2,0,0,1,.227.227v.414c0,.036,0,.059.028.067s.039,0,.067-.026a1.671,1.671,0,0,1,1.444-.772,1.408,1.408,0,0,1,.713.167Zm1.936,6.33a2.927,2.927,0,0,1-1.1-1.606,4.723,4.723,0,0,1-.188-1.364,4.489,4.489,0,0,1,.2-1.418,2.873,2.873,0,0,1,1.1-1.545,3.272,3.272,0,0,1,1.933-.561,3.156,3.156,0,0,1,1.882.561,2.919,2.919,0,0,1,1.091,1.545,4.544,4.544,0,0,1,.2,1.406,5.264,5.264,0,0,1-.172,1.354,3,3,0,0,1-3.012,2.234,3.182,3.182,0,0,1-1.941-.6Zm2.677-1.287a1.5,1.5,0,0,0,.443-.736,3.468,3.468,0,0,0,.106-.937,3.7,3.7,0,0,0-.106-.95,1.411,1.411,0,0,0-.443-.711,1.158,1.158,0,0,0-.772-.257,1.14,1.14,0,0,0-.752.257,1.406,1.406,0,0,0-.44.711,4.17,4.17,0,0,0,0,1.887,1.454,1.454,0,0,0,.448.736,1.148,1.148,0,0,0,.772.257,1.089,1.089,0,0,0,.744-.268Zm4.819,1.583-1.887-6.436a.165.165,0,0,1-.013-.08c0-.116.064-.172.2-.172h1.472a.229.229,0,0,1,.257.2l.924,3.962a.051.051,0,0,0,.054.054c.028,0,.044-.018.054-.054l.991-3.962a.229.229,0,0,1,.257-.2h1.313a.234.234,0,0,1,.257.2l1.017,3.975a.054.054,0,0,0,.108,0l1.007-3.98a.229.229,0,0,1,.257-.2l1.475.013a.185.185,0,0,1,.167.072.229.229,0,0,1,.018.183l-1.913,6.436a.257.257,0,0,1-.257.185h-1.5a.257.257,0,0,1-.257-.185l-1-3.509q-.026-.054-.062-.054t-.046.054l-.883,3.493a.229.229,0,0,1-.257.2h-1.5a.257.257,0,0,1-.255-.2Zm9.17-7.664a1.182,1.182,0,0,1,0-1.622,1.269,1.269,0,0,1,1.666,0,1.21,1.21,0,0,1,0,1.632,1.269,1.269,0,0,1-1.666,0Zm-.108,7.622V425.74a.2.2,0,0,1,.229-.227h1.431a.2.2,0,0,1,.229.227v6.436a.2.2,0,0,1-.229.227h-1.431a.2.2,0,0,1-.229-.227Zm8.688-6.111a2.4,2.4,0,0,1,.656,1.779v4.325a.2.2,0,0,1-.229.227h-1.431a.2.2,0,0,1-.227-.227V428.24a1.287,1.287,0,0,0-.3-.87,1,1,0,0,0-.79-.335,1.048,1.048,0,0,0-.8.335,1.246,1.246,0,0,0-.306.87v3.936a.2.2,0,0,1-.229.227H140.28a.2.2,0,0,1-.227-.227V425.74a.2.2,0,0,1,.227-.227h1.431a.2.2,0,0,1,.229.227v.376c0,.033,0,.057.026.067s.036,0,.054-.028a1.879,1.879,0,0,1,1.619-.749,2.332,2.332,0,0,1,1.727.659Zm6.438-.541h1.434a.2.2,0,0,1,.227.227v6.037a2.928,2.928,0,0,1-1,2.5,4.2,4.2,0,0,1-2.574.749,8.727,8.727,0,0,1-1-.067c-.136,0-.2-.09-.2-.242l.054-1.243a.2.2,0,0,1,.075-.167.191.191,0,0,1,.18-.033,6.482,6.482,0,0,0,.816.067,2.059,2.059,0,0,0,1.321-.376,1.466,1.466,0,0,0,.461-1.2c0-.026,0-.041-.028-.046s-.039,0-.067.033a1.908,1.908,0,0,1-1.47.535,3.149,3.149,0,0,1-1.6-.422,2.33,2.33,0,0,1-1.03-1.359,5.246,5.246,0,0,1-.2-1.593,4.974,4.974,0,0,1,.242-1.7,2.68,2.68,0,0,1,.95-1.313,2.538,2.538,0,0,1,1.545-.494,2.034,2.034,0,0,1,1.565.6c.028.026.051.036.067.026a.075.075,0,0,0,.028-.067v-.227a.2.2,0,0,1,.216-.227Zm-.227,3.385a5.737,5.737,0,0,0-.028-.641,2.059,2.059,0,0,0-.093-.43,1.2,1.2,0,0,0-.4-.582,1.1,1.1,0,0,0-.7-.221,1.068,1.068,0,0,0-.682.221,1.305,1.305,0,0,0-.417.582,2.626,2.626,0,0,0-.188,1.084,2.546,2.546,0,0,0,.162,1.071,1.153,1.153,0,0,0,1.138.8,1.12,1.12,0,0,0,.71-.219,1.153,1.153,0,0,0,.386-.569,4.42,4.42,0,0,0,.108-1.1Zm11.458-5.527a2.543,2.543,0,0,1,1.03,1.03,3.089,3.089,0,0,1,.368,1.521,2.855,2.855,0,0,1-.381,1.485,2.618,2.618,0,0,1-1.071,1,3.419,3.419,0,0,1-1.586.355h-1.89a.072.072,0,0,0-.08.08v3.334a.2.2,0,0,1-.227.227h-1.434a.2.2,0,0,1-.227-.227v-8.935a.2.2,0,0,1,.227-.229h3.717a3.2,3.2,0,0,1,1.552.363Zm-.831,3.514a1.228,1.228,0,0,0,.376-.932,1.264,1.264,0,0,0-.376-.95,1.359,1.359,0,0,0-.989-.36h-1.689a.072.072,0,0,0-.08.08v2.435a.072.072,0,0,0,.08.08h1.689A1.388,1.388,0,0,0,162.205,426.9Zm7.416-1.305a.227.227,0,0,1,.121.281l-.257,1.406a.152.152,0,0,1-.072.147.35.35,0,0,1-.2,0,1.578,1.578,0,0,0-.386-.054,2.831,2.831,0,0,0-.309.028,1.308,1.308,0,0,0-.816.353,1.094,1.094,0,0,0-.335.837v3.589a.2.2,0,0,1-.229.227h-1.431a.2.2,0,0,1-.227-.227V425.74a.2.2,0,0,1,.227-.227h1.431a.2.2,0,0,1,.229.227v.414c0,.036,0,.059.026.067s.041,0,.067-.026a1.673,1.673,0,0,1,1.447-.772,1.393,1.393,0,0,1,.71.167Zm1.928,6.33a2.927,2.927,0,0,1-1.1-1.606,4.724,4.724,0,0,1-.188-1.364,4.49,4.49,0,0,1,.2-1.418,2.9,2.9,0,0,1,1.1-1.545,3.277,3.277,0,0,1,1.933-.561,3.148,3.148,0,0,1,1.882.561,2.919,2.919,0,0,1,1.091,1.545,4.541,4.541,0,0,1,.2,1.406,5.265,5.265,0,0,1-.175,1.354,3,3,0,0,1-3.012,2.234A3.182,3.182,0,0,1,171.55,431.921Zm2.677-1.287a1.5,1.5,0,0,0,.443-.736,3.467,3.467,0,0,0,.106-.937,3.694,3.694,0,0,0-.106-.95,1.411,1.411,0,0,0-.443-.711,1.153,1.153,0,0,0-.772-.257,1.13,1.13,0,0,0-.749.257,1.411,1.411,0,0,0-.443.711,4.17,4.17,0,0,0,0,1.887,1.491,1.491,0,0,0,.448.736,1.153,1.153,0,0,0,.772.257,1.089,1.089,0,0,0,.744-.268Zm8.057-7.6h1.434a.2.2,0,0,1,.227.229v8.915a.2.2,0,0,1-.227.227h-1.434a.2.2,0,0,1-.227-.227v-.36c0-.036,0-.057-.033-.062s-.041,0-.059.033a1.8,1.8,0,0,1-1.527.723,2.574,2.574,0,0,1-1.614-.543,2.772,2.772,0,0,1-.97-1.424,4.875,4.875,0,0,1-.227-1.606,4.69,4.69,0,0,1,.257-1.66,2.8,2.8,0,0,1,.971-1.367,2.574,2.574,0,0,1,1.586-.515,1.861,1.861,0,0,1,1.527.656c.018.026.036.033.059.026s.033-.031.033-.067v-2.749a.2.2,0,0,1,.224-.229Zm-.239,5.921a2.845,2.845,0,0,0-.281-1.38,1.075,1.075,0,0,0-1.835,0,3.208,3.208,0,0,0-.039,2.718,1.045,1.045,0,0,0,.976.574,1,1,0,0,0,.911-.574,2.8,2.8,0,0,0,.25-1.328Zm7.55-3.429h1.442a.2.2,0,0,1,.229.227v6.436a.2.2,0,0,1-.229.227H189.6a.2.2,0,0,1-.229-.227v-.36c0-.036,0-.057-.033-.062s-.041,0-.059.033a1.9,1.9,0,0,1-1.648.71,2.355,2.355,0,0,1-1.673-.615,2.252,2.252,0,0,1-.654-1.727V425.75a.2.2,0,0,1,.227-.227h1.418a.2.2,0,0,1,.229.227v3.936a1.287,1.287,0,0,0,.286.87,1,1,0,0,0,.8.335,1.055,1.055,0,0,0,.749-.275,1.187,1.187,0,0,0,.36-.716v-4.15a.2.2,0,0,1,.229-.227Zm4.222,6.461a2.924,2.924,0,0,1-1.117-1.472,4.914,4.914,0,0,1-.227-1.581,4.745,4.745,0,0,1,.227-1.545,2.765,2.765,0,0,1,1.112-1.431,3.57,3.57,0,0,1,3.74.013,2.574,2.574,0,0,1,1.079,1.352,1.483,1.483,0,0,1,.106.414v.028c0,.116-.067.188-.2.214l-1.406.214-.067.013a.172.172,0,0,1-.188-.16l-.039-.188a1.014,1.014,0,0,0-.414-.574,1.287,1.287,0,0,0-.772-.229,1.21,1.21,0,0,0-.723.214,1.156,1.156,0,0,0-.414.59,3.3,3.3,0,0,0-.147,1.1,3.564,3.564,0,0,0,.134,1.1,1.187,1.187,0,0,0,.422.628,1.171,1.171,0,0,0,.729.229,1.246,1.246,0,0,0,.731-.221,1.13,1.13,0,0,0,.435-.595v-.067a.276.276,0,0,1,.093-.129.206.206,0,0,1,.175-.059l1.406.214a.258.258,0,0,1,.154.093.232.232,0,0,1,.033.162,1.288,1.288,0,0,1-.067.306,2.484,2.484,0,0,1-1.091,1.406,3.434,3.434,0,0,1-1.866.515,3.2,3.2,0,0,1-1.835-.548Zm9.738-4.95h-1.192a.072.072,0,0,0-.08.08v2.772a.986.986,0,0,0,.18.649.731.731,0,0,0,.582.209h.376a.2.2,0,0,1,.227.227v1.151a.224.224,0,0,1-.227.242c-.34.018-.584.026-.736.026a2.976,2.976,0,0,1-1.66-.373,1.607,1.607,0,0,1-.561-1.393v-3.509a.072.072,0,0,0-.08-.08h-.7a.2.2,0,0,1-.227-.227V425.75a.2.2,0,0,1,.227-.227h.685a.072.072,0,0,0,.08-.082V423.93a.2.2,0,0,1,.227-.229h1.367a.2.2,0,0,1,.227.229v1.511a.072.072,0,0,0,.08.082h1.2a.2.2,0,0,1,.229.227v1.058a.2.2,0,0,1-.229.227Zm2.543,5.208a2.332,2.332,0,0,1-1.03-.711,1.6,1.6,0,0,1-.363-1.03v-.062a.2.2,0,0,1,.229-.227h1.351c.152,0,.227.026.227.08v.093a.6.6,0,0,0,.322.515,1.472,1.472,0,0,0,.816.209,1.38,1.38,0,0,0,.736-.175.515.515,0,0,0,.283-.456.389.389,0,0,0-.242-.36,4.179,4.179,0,0,0-.79-.257,8.467,8.467,0,0,1-.976-.306,4.268,4.268,0,0,1-1.38-.723,1.521,1.521,0,0,1-.515-1.233,1.866,1.866,0,0,1,.772-1.573,3.318,3.318,0,0,1,2.034-.582,3.861,3.861,0,0,1,1.509.275,2.284,2.284,0,0,1,1,.772,1.882,1.882,0,0,1,.355,1.125.142.142,0,0,1-.059.113.257.257,0,0,1-.167.046H208.9c-.152,0-.227-.026-.227-.08v-.088a.584.584,0,0,0-.286-.515,1.375,1.375,0,0,0-.788-.2,1.478,1.478,0,0,0-.731.162.487.487,0,0,0-.286.44.425.425,0,0,0,.273.4,4.6,4.6,0,0,0,.9.281,6.644,6.644,0,0,1,.749.2,4.377,4.377,0,0,1,1.514.723,1.545,1.545,0,0,1,.548,1.287,1.784,1.784,0,0,1-.79,1.545,3.6,3.6,0,0,1-2.113.566A4.4,4.4,0,0,1,206.1,432.243Z" transform="translate(-43.531 -313.826)" fill="#fff"/>
    <path id="Path_36884" data-name="Path 36884" d="M126.734,324.171c0,.021.015.036.041.049a1.624,1.624,0,0,1,.88,1.563,1.689,1.689,0,0,1-.682,1.473,3.038,3.038,0,0,1-1.8.484H122.6a.175.175,0,0,1-.129-.049.17.17,0,0,1-.049-.129V321a.167.167,0,0,1,.178-.178h2.492a3.05,3.05,0,0,1,1.823.456,1.708,1.708,0,0,1,.618,1.472,1.424,1.424,0,0,1-.772,1.375A.1.1,0,0,0,126.734,324.171Zm-2.659-1.879V323.5a.062.062,0,0,0,.07.07h.96a.981.981,0,0,0,.623-.175.587.587,0,0,0,.216-.489.623.623,0,0,0-.216-.515.966.966,0,0,0-.623-.178h-.96a.062.062,0,0,0-.07.08Zm1.722,3.861a.749.749,0,0,0,0-1.048.927.927,0,0,0-.618-.183h-1.03a.062.062,0,0,0-.07.07v1.274a.062.062,0,0,0,.07.07h1.03a.934.934,0,0,0,.618-.193Zm7.841-3.98a.175.175,0,0,1-.129.049h-3.017a.062.062,0,0,0-.07.07v1.176a.062.062,0,0,0,.07.07H132.4a.186.186,0,0,1,.129.049.175.175,0,0,1,.049.129v1.03a.167.167,0,0,1-.049.129.178.178,0,0,1-.129.051h-1.908a.062.062,0,0,0-.07.067v1.267a.062.062,0,0,0,.07.07h3.025a.167.167,0,0,1,.178.178v1.048a.17.17,0,0,1-.049.129.175.175,0,0,1-.129.049H128.96a.167.167,0,0,1-.129-.049.172.172,0,0,1-.051-.129V321a.178.178,0,0,1,.051-.129.167.167,0,0,1,.129-.049h4.556a.167.167,0,0,1,.178.178v1.048a.17.17,0,0,1-.057.129Zm2.178,5.383a2.059,2.059,0,0,1-.924-.752,1.974,1.974,0,0,1-.327-1.13v-.129a.167.167,0,0,1,.178-.178H136a.224.224,0,0,1,.129.033.106.106,0,0,1,.049.085v.118a.7.7,0,0,0,.322.564,1.313,1.313,0,0,0,.824.257.948.948,0,0,0,.644-.188.569.569,0,0,0,.206-.435.466.466,0,0,0-.242-.425,4.14,4.14,0,0,0-.865-.348l-.216-.07a8.09,8.09,0,0,1-1.107-.448,2.4,2.4,0,0,1-.816-.685,1.671,1.671,0,0,1-.337-1.061,1.83,1.83,0,0,1,.322-1.073,2.059,2.059,0,0,1,.891-.708,3.2,3.2,0,0,1,1.287-.257,3.263,3.263,0,0,1,1.37.278,2.273,2.273,0,0,1,.952.772,2,2,0,0,1,.348,1.158v.077a.18.18,0,0,1-.049.129.175.175,0,0,1-.129.049h-1.256a.3.3,0,0,1-.129-.023.08.08,0,0,1-.049-.075v-.064a.8.8,0,0,0-.306-.613,1.212,1.212,0,0,0-.821-.257,1,1,0,0,0-.6.157.515.515,0,0,0-.219.445.5.5,0,0,0,.139.36,1.331,1.331,0,0,0,.43.257c.2.082.492.188.9.322.461.157.819.3,1.076.414a2.154,2.154,0,0,1,.726.577,1.56,1.56,0,0,1,.342,1.053,1.861,1.861,0,0,1-.327,1.094,2.111,2.111,0,0,1-.919.726,3.385,3.385,0,0,1-1.364.257A3.42,3.42,0,0,1,135.816,327.556Zm10.078-6.688a.185.185,0,0,1,.049.129v1.058a.18.18,0,0,1-.049.129.175.175,0,0,1-.129.049h-1.653c-.046,0-.067.023-.067.07v5.259a.173.173,0,0,1-.051.129.17.17,0,0,1-.129.049h-1.287a.175.175,0,0,1-.129-.049.17.17,0,0,1-.049-.129V322.3a.062.062,0,0,0-.07-.07h-1.588a.167.167,0,0,1-.178-.178V321a.175.175,0,0,1,.049-.129.17.17,0,0,1,.129-.049h5.022A.175.175,0,0,1,145.894,320.868Zm4.314,6.688a2.059,2.059,0,0,1-.924-.752,1.974,1.974,0,0,1-.327-1.13v-.129a.17.17,0,0,1,.049-.129.175.175,0,0,1,.129-.049h1.256a.224.224,0,0,1,.129.033.106.106,0,0,1,.049.085v.118a.7.7,0,0,0,.322.564,1.313,1.313,0,0,0,.824.257.947.947,0,0,0,.644-.188.571.571,0,0,0,.209-.435.471.471,0,0,0-.242-.425,4.244,4.244,0,0,0-.868-.348l-.216-.07a8.09,8.09,0,0,1-1.107-.448,2.4,2.4,0,0,1-.811-.674,1.671,1.671,0,0,1-.337-1.061,1.83,1.83,0,0,1,.322-1.073A2.059,2.059,0,0,1,150.2,321a3.2,3.2,0,0,1,1.287-.257,3.265,3.265,0,0,1,1.37.278,2.273,2.273,0,0,1,.952.772,2,2,0,0,1,.348,1.158v.077a.18.18,0,0,1-.049.129.175.175,0,0,1-.129.049h-1.256a.3.3,0,0,1-.129-.023.08.08,0,0,1-.049-.075v-.075a.8.8,0,0,0-.306-.613,1.207,1.207,0,0,0-.821-.257,1,1,0,0,0-.6.157.515.515,0,0,0-.219.445.5.5,0,0,0,.139.36,1.33,1.33,0,0,0,.43.257c.2.082.494.188.9.322a11.471,11.471,0,0,1,1.076.414,2.188,2.188,0,0,1,.729.577,1.573,1.573,0,0,1,.34,1.053,1.861,1.861,0,0,1-.327,1.094,2.111,2.111,0,0,1-.919.726,3.377,3.377,0,0,1-1.364.257,3.421,3.421,0,0,1-1.385-.268Zm6.217-.028a2.34,2.34,0,0,1-.945-.906,2.662,2.662,0,0,1-.335-1.354v-1.98a2.592,2.592,0,0,1,.335-1.328,2.317,2.317,0,0,1,.945-.9,3.254,3.254,0,0,1,2.832,0,2.317,2.317,0,0,1,.95.9,2.592,2.592,0,0,1,.337,1.328v1.977a2.662,2.662,0,0,1-.337,1.354,2.317,2.317,0,0,1-.95.906,3.277,3.277,0,0,1-2.832,0Zm2.175-1.39a1.148,1.148,0,0,0,.291-.821v-2.059a1.145,1.145,0,0,0-.291-.813,1,1,0,0,0-.772-.312.981.981,0,0,0-.754.312,1.135,1.135,0,0,0-.293.813v2.059a1.138,1.138,0,0,0,.293.821,1,1,0,0,0,.754.306,1.03,1.03,0,0,0,.78-.306Zm7.893-3.964a.17.17,0,0,1-.129.049H163.35a.062.062,0,0,0-.069.07v1.176a.062.062,0,0,0,.07.07h1.908a.18.18,0,0,1,.129.049.175.175,0,0,1,.049.129v1.03a.167.167,0,0,1-.049.129.173.173,0,0,1-.129.051H163.35a.062.062,0,0,0-.069.067v2.574a.167.167,0,0,1-.178.178h-1.287a.167.167,0,0,1-.178-.178V321a.175.175,0,0,1,.049-.129.17.17,0,0,1,.129-.049h4.546a.17.17,0,0,1,.129.049.175.175,0,0,1,.049.129v1.048a.17.17,0,0,1-.046.129Zm5.972-1.305a.175.175,0,0,1,.049.129v1.058a.17.17,0,0,1-.049.129.175.175,0,0,1-.129.049h-1.65a.062.062,0,0,0-.069.07v5.259a.172.172,0,0,1-.051.129.165.165,0,0,1-.126.049h-1.287a.175.175,0,0,1-.129-.049.18.18,0,0,1-.049-.129V322.3a.062.062,0,0,0-.07-.07h-1.591a.175.175,0,0,1-.129-.049.17.17,0,0,1-.049-.129V321a.167.167,0,0,1,.178-.178h5.022a.175.175,0,0,1,.129.049Zm2.361,6.724-1.8-6.575a.121.121,0,0,1,0-.059c0-.093.051-.139.157-.139h1.388a.214.214,0,0,1,.134.044.188.188,0,0,1,.064.116l.831,3.488q.018.039.046.039c.015,0,.026-.013.033-.039l.79-3.5a.18.18,0,0,1,.2-.16h1.176a.19.19,0,0,1,.2.16l.868,3.488c.015.026.028.039.046.039s.028-.013.033-.039l.772-3.488a.175.175,0,0,1,.064-.116.208.208,0,0,1,.134-.044H181.3a.144.144,0,0,1,.157.2l-1.64,6.564a.185.185,0,0,1-.2.157h-1.315a.214.214,0,0,1-.134-.044.18.18,0,0,1-.064-.113l-.829-3.707c0-.034-.021-.052-.039-.052s-.033.018-.041.052l-.752,3.707a.172.172,0,0,1-.188.157h-1.225a.185.185,0,0,1-.209-.139Zm10.758,0-.229-.811c0-.041-.033-.059-.077-.059h-2.234a.075.075,0,0,0-.08.059l-.227.811a.185.185,0,0,1-.2.147h-1.4a.157.157,0,0,1-.136-.054.147.147,0,0,1,0-.144l2.057-6.57a.2.2,0,0,1,.209-.149h1.748a.191.191,0,0,1,.209.149l2.085,6.572a.157.157,0,0,1,0,.069c0,.088-.051.129-.157.129h-1.4a.183.183,0,0,1-.178-.149Zm-2.216-2.2a.054.054,0,0,0,.059.059h1.465a.057.057,0,0,0,.054-.026.064.064,0,0,0,0-.054l-.752-2.628c0-.033-.018-.049-.036-.049s-.031.015-.044.049l-.752,2.628Zm8.5,2.2-1.148-2.574a.075.075,0,0,0-.077-.049h-.613a.062.062,0,0,0-.069.07v2.51a.173.173,0,0,1-.051.129.165.165,0,0,1-.126.049H188.5a.175.175,0,0,1-.129-.049.18.18,0,0,1-.049-.129V321a.185.185,0,0,1,.049-.129.175.175,0,0,1,.129-.049h2.878a2.376,2.376,0,0,1,1.146.257,1.889,1.889,0,0,1,.772.757,2.273,2.273,0,0,1,.257,1.12,2.013,2.013,0,0,1-.319,1.138,1.838,1.838,0,0,1-.9.7.064.064,0,0,0-.039.1l1.264,2.631.021.077c0,.088-.054.129-.157.129h-1.352a.209.209,0,0,1-.2-.129Zm-1.908-5.308v1.364a.062.062,0,0,0,.07.07h1.076a.845.845,0,0,0,.592-.2.685.685,0,0,0,.229-.538.713.713,0,0,0-.229-.553.836.836,0,0,0-.592-.209h-1.076a.062.062,0,0,0-.07.07Zm9.538-.118a.17.17,0,0,1-.129.049h-3.025a.062.062,0,0,0-.069.07v1.176a.062.062,0,0,0,.07.07h1.9a.173.173,0,0,1,.18.178v1.03a.175.175,0,0,1-.18.18h-1.9a.062.062,0,0,0-.069.067v1.267a.062.062,0,0,0,.07.07h3.025a.17.17,0,0,1,.129.049.177.177,0,0,1,.051.129v1.048a.172.172,0,0,1-.051.129.17.17,0,0,1-.129.049h-4.556a.175.175,0,0,1-.129-.049.17.17,0,0,1-.049-.129V321a.167.167,0,0,1,.178-.178h4.556a.17.17,0,0,1,.129.049.177.177,0,0,1,.051.129v1.048A.172.172,0,0,1,199.5,322.173Zm7.682,5.419-.227-.811c0-.041-.033-.059-.08-.059h-2.234a.077.077,0,0,0-.08.059l-.227.811a.185.185,0,0,1-.2.147h-1.393a.136.136,0,0,1-.149-.2l2.077-6.57a.2.2,0,0,1,.206-.149h1.751a.193.193,0,0,1,.209.149l2.085,6.572a.208.208,0,0,1,0,.07c0,.088-.054.129-.16.129H207.37A.185.185,0,0,1,207.182,327.592Zm-2.214-2.2a.054.054,0,0,0,.059.059h1.462a.054.054,0,0,0,.054-.026.057.057,0,0,0,0-.054l-.752-2.628c0-.033-.018-.049-.033-.049s-.031.015-.044.049l-.752,2.628Zm5.04,2.2-1.8-6.575a.121.121,0,0,1,0-.059c0-.093.051-.139.157-.139h1.385a.214.214,0,0,1,.134.044.188.188,0,0,1,.064.116l.829,3.488c.013.026.028.039.044.039s.028-.013.036-.039l.783-3.5a.18.18,0,0,1,.2-.16h1.176a.19.19,0,0,1,.2.16l.868,3.488c.015.026.028.039.046.039s.028-.013.033-.039l.772-3.488a.175.175,0,0,1,.064-.116.208.208,0,0,1,.134-.044h1.344a.144.144,0,0,1,.157.2l-1.645,6.572a.185.185,0,0,1-.2.157h-1.315a.214.214,0,0,1-.134-.044.18.18,0,0,1-.064-.113l-.829-3.707c0-.033-.021-.051-.039-.051s-.033.018-.041.051l-.752,3.707a.172.172,0,0,1-.188.157H210.2A.185.185,0,0,1,210.009,327.592Zm10.748,0-.229-.811c0-.041-.033-.059-.08-.059h-2.232a.075.075,0,0,0-.08.059l-.227.811a.185.185,0,0,1-.2.147h-1.4a.157.157,0,0,1-.136-.054.147.147,0,0,1,0-.144l2.065-6.57a.2.2,0,0,1,.209-.149H220.2a.191.191,0,0,1,.209.149l2.085,6.572a.157.157,0,0,1,0,.07c0,.088-.051.129-.157.129h-1.4a.183.183,0,0,1-.185-.149Zm-2.216-2.2a.054.054,0,0,0,.059.059h1.465a.057.057,0,0,0,.054-.026.064.064,0,0,0,0-.054l-.757-2.628c0-.033-.018-.049-.036-.049s-.031.015-.044.049l-.752,2.628Zm8.5,2.2-1.148-2.574a.075.075,0,0,0-.077-.049H225.2a.062.062,0,0,0-.069.07v2.51a.173.173,0,0,1-.051.129.165.165,0,0,1-.126.049H223.67a.175.175,0,0,1-.129-.049.18.18,0,0,1-.049-.129V321a.185.185,0,0,1,.049-.129.175.175,0,0,1,.129-.049h2.878a2.376,2.376,0,0,1,1.146.257,1.89,1.89,0,0,1,.772.757,2.274,2.274,0,0,1,.257,1.12,2.013,2.013,0,0,1-.319,1.138,1.838,1.838,0,0,1-.9.7.064.064,0,0,0-.039.1l1.264,2.631.021.077c0,.088-.054.129-.157.129h-1.357a.209.209,0,0,1-.2-.129Zm-1.908-5.308v1.364a.062.062,0,0,0,.07.07h1.076a.845.845,0,0,0,.592-.2.685.685,0,0,0,.229-.538.713.713,0,0,0-.229-.553.837.837,0,0,0-.592-.209H225.2a.062.062,0,0,0-.07.07Zm4.724,5.4a.17.17,0,0,1-.049-.129V321a.167.167,0,0,1,.178-.178h2.461a3.293,3.293,0,0,1,1.364.257,2.085,2.085,0,0,1,.919.759,2.013,2.013,0,0,1,.327,1.138v2.59a2.006,2.006,0,0,1-.327,1.138,2.085,2.085,0,0,1-.919.772,3.252,3.252,0,0,1-1.364.257h-2.461A.175.175,0,0,1,229.859,327.69Zm1.66-1.354h1a.816.816,0,0,0,.644-.283,1.143,1.143,0,0,0,.257-.754v-2.036a1.1,1.1,0,0,0-.257-.757.847.847,0,0,0-.659-.283h-.989a.062.062,0,0,0-.069.07v3.975a.062.062,0,0,0,.075.07Zm5.73,1.22a2.059,2.059,0,0,1-.924-.752,1.975,1.975,0,0,1-.327-1.13v-.129a.167.167,0,0,1,.178-.178h1.256a.224.224,0,0,1,.129.033.106.106,0,0,1,.049.085v.118a.7.7,0,0,0,.322.564,1.313,1.313,0,0,0,.824.257.947.947,0,0,0,.644-.188.569.569,0,0,0,.206-.435.466.466,0,0,0-.242-.425,4.139,4.139,0,0,0-.865-.348l-.216-.07a8.084,8.084,0,0,1-1.107-.448,2.4,2.4,0,0,1-.811-.674,1.671,1.671,0,0,1-.337-1.061,1.831,1.831,0,0,1,.322-1.073,2.059,2.059,0,0,1,.891-.708,3.2,3.2,0,0,1,1.287-.257,3.265,3.265,0,0,1,1.37.278,2.273,2.273,0,0,1,.952.772,2,2,0,0,1,.348,1.158v.077a.18.18,0,0,1-.049.129.175.175,0,0,1-.129.049h-1.256a.3.3,0,0,1-.129-.023.08.08,0,0,1-.049-.075v-.075a.8.8,0,0,0-.306-.613,1.213,1.213,0,0,0-.821-.257,1,1,0,0,0-.6.157.515.515,0,0,0-.219.445.5.5,0,0,0,.139.36,1.33,1.33,0,0,0,.43.257c.2.082.492.188.9.322.461.157.819.3,1.076.414a2.154,2.154,0,0,1,.726.577,1.56,1.56,0,0,1,.342,1.053,1.861,1.861,0,0,1-.327,1.094,2.111,2.111,0,0,1-.919.726,3.385,3.385,0,0,1-1.364.257,3.421,3.421,0,0,1-1.385-.268ZM143.888,240.29a.6.6,0,0,1,.172.448v3.7a.592.592,0,0,1-.623.62h-5.777a.216.216,0,0,0-.245.245v18.406a.592.592,0,0,1-.62.623h-4.5a.6.6,0,0,1-.448-.172.61.61,0,0,1-.175-.451V245.308a.216.216,0,0,0-.242-.245h-5.571a.595.595,0,0,1-.623-.62v-3.7a.6.6,0,0,1,.623-.623h17.577A.61.61,0,0,1,143.888,240.29Zm2.265,22.661a8.155,8.155,0,0,1-2.924-4.5,11.105,11.105,0,0,1-.414-3.115,12.461,12.461,0,0,1,.451-3.347,7.7,7.7,0,0,1,2.958-4.273,8.78,8.78,0,0,1,5.241-1.545,8.368,8.368,0,0,1,5.149,1.545,7.98,7.98,0,0,1,2.94,4.237,11.069,11.069,0,0,1,.487,3.321,12.024,12.024,0,0,1-.381,3.045,8.132,8.132,0,0,1-2.906,4.6,8.43,8.43,0,0,1-5.329,1.694,8.268,8.268,0,0,1-5.27-1.668Zm6.951-3.892a3.5,3.5,0,0,0,.95-1.748,8.728,8.728,0,0,0,.209-1.972,8.2,8.2,0,0,0-.242-2.005,3.251,3.251,0,0,0-.934-1.66,2.659,2.659,0,0,0-3.347,0,3.308,3.308,0,0,0-.916,1.66,6.768,6.768,0,0,0-.242,2.005,8.884,8.884,0,0,0,.206,1.972,3.843,3.843,0,0,0,.971,1.748,2.278,2.278,0,0,0,1.66.641,2.343,2.343,0,0,0,1.691-.641Zm26.8-3.581a12.187,12.187,0,0,1-.726,4.361,7.5,7.5,0,0,1-2.574,3.475,6.513,6.513,0,0,1-4,1.333,4.817,4.817,0,0,1-3.946-1.593c-.069-.09-.131-.126-.19-.1s-.085.093-.085.208v6.884a.618.618,0,0,1-.172.451.61.61,0,0,1-.451.172h-4.5a.592.592,0,0,1-.623-.623V247.071a.608.608,0,0,1,.172-.451.618.618,0,0,1,.451-.172h4.5a.592.592,0,0,1,.623.623v.831c0,.116.028.183.085.206s.121,0,.19-.1a4.539,4.539,0,0,1,3.946-1.833,6.6,6.6,0,0,1,4.15,1.485,7.411,7.411,0,0,1,2.595,3.841A12.823,12.823,0,0,1,179.905,255.479Zm-6.158-.1a6.131,6.131,0,0,0-.587-2.873,2.317,2.317,0,0,0-2.111-1.287,2.244,2.244,0,0,0-2.041,1.315,6,6,0,0,0-.59,2.832,6.345,6.345,0,0,0,.623,3.043,2.247,2.247,0,0,0,2.008,1.176,2.288,2.288,0,0,0,2.075-1.21A6.2,6.2,0,0,0,173.747,255.376Zm18.615-15.26H197.1a.595.595,0,0,1,.623.623v22.975a.592.592,0,0,1-.623.623h-4.5a.592.592,0,0,1-.623-.623V245.619a.24.24,0,0,0-.07-.175.154.154,0,0,0-.172-.033l-2.906.345h-.106c-.371,0-.553-.2-.553-.587v-3.228a.716.716,0,0,1,.515-.692l2.906-1a1.91,1.91,0,0,1,.767-.129Zm10.413,22.4a8.115,8.115,0,0,1-2.283-6.073v-8.441a7.878,7.878,0,0,1,2.283-5.985,10.106,10.106,0,0,1,12.56.015,7.82,7.82,0,0,1,2.317,5.97v8.441a8.037,8.037,0,0,1-2.317,6.073,8.7,8.7,0,0,1-6.3,2.232A8.582,8.582,0,0,1,202.775,262.519Zm8.348-3.529a3.1,3.1,0,0,0,.772-2.232V247.8a3.115,3.115,0,0,0-.772-2.232,2.762,2.762,0,0,0-2.093-.811,2.667,2.667,0,0,0-2.041.811,3.115,3.115,0,0,0-.772,2.232v8.961a3.221,3.221,0,0,0,.744,2.232,2.651,2.651,0,0,0,2.059.813A2.755,2.755,0,0,0,211.123,258.99Zm11.409,3.529a8.115,8.115,0,0,1-2.283-6.073v-8.441a7.878,7.878,0,0,1,2.283-5.985,10.106,10.106,0,0,1,12.56.015,7.82,7.82,0,0,1,2.317,5.97v8.441a8.037,8.037,0,0,1-2.317,6.073,8.7,8.7,0,0,1-6.3,2.232A8.576,8.576,0,0,1,222.533,262.519Zm8.356-3.529a3.1,3.1,0,0,0,.772-2.232V247.8a3.115,3.115,0,0,0-.772-2.232,2.77,2.77,0,0,0-2.093-.811,2.664,2.664,0,0,0-2.041.811,3.112,3.112,0,0,0-.772,2.232v8.961a3.176,3.176,0,0,0,.744,2.232,2.649,2.649,0,0,0,2.059.813A2.762,2.762,0,0,0,230.889,258.99Zm-68.62,92.455a.353.353,0,0,1-.1-.257v-2a.564.564,0,0,1,.2-.435q.729-.672,1.521-1.5t1.5-1.583q1.305-1.364,1.225-1.287,1.8-1.859,1.8-2.708a1.218,1.218,0,0,0-.425-.95,1.6,1.6,0,0,0-1.1-.376,1.568,1.568,0,0,0-1.089.376,1.287,1.287,0,0,0-.414.989v.366a.337.337,0,0,1-.355.355h-2.613a.355.355,0,0,1-.257-.1.345.345,0,0,1-.1-.257V341.2a3.45,3.45,0,0,1,.731-1.938,4.185,4.185,0,0,1,1.72-1.287,6.084,6.084,0,0,1,2.373-.445,5.684,5.684,0,0,1,2.559.543,4.065,4.065,0,0,1,1.681,1.472,3.764,3.764,0,0,1,.188,3.7,8.166,8.166,0,0,1-1.187,1.761,40.6,40.6,0,0,1-2.906,3l-.553.535c-.051.052-.072.1-.059.129s.054.049.118.049h4.824a.355.355,0,0,1,.257.1.345.345,0,0,1,.1.257v2.1a.342.342,0,0,1-.1.257.348.348,0,0,1-.257.1h-9.036A.348.348,0,0,1,162.269,351.445Zm12.4-.94a4.653,4.653,0,0,1-1.305-3.47v-4.824a4.5,4.5,0,0,1,1.305-3.419,4.969,4.969,0,0,1,3.578-1.246,5.031,5.031,0,0,1,3.6,1.256,4.451,4.451,0,0,1,1.323,3.408v4.824a4.587,4.587,0,0,1-1.323,3.47,5.035,5.035,0,0,1-3.6,1.287A4.931,4.931,0,0,1,174.666,350.505Zm4.775-2.016a1.766,1.766,0,0,0,.445-1.274v-5.123a1.766,1.766,0,0,0-.445-1.274,1.586,1.586,0,0,0-1.2-.466,1.526,1.526,0,0,0-1.166.466,1.784,1.784,0,0,0-.435,1.274v5.136a1.8,1.8,0,0,0,.425,1.274,1.514,1.514,0,0,0,1.176.463,1.583,1.583,0,0,0,1.2-.476Zm5.347,2.955a.353.353,0,0,1-.1-.257v-2a.556.556,0,0,1,.2-.435q.731-.672,1.521-1.5l1.5-1.583c.87-.909,1.287-1.336,1.225-1.287q1.8-1.859,1.8-2.708a1.217,1.217,0,0,0-.425-.95,1.6,1.6,0,0,0-1.1-.376,1.562,1.562,0,0,0-1.086.376,1.287,1.287,0,0,0-.414.989v.366a.348.348,0,0,1-.1.257.353.353,0,0,1-.257.1h-2.61a.353.353,0,0,1-.257-.1.348.348,0,0,1-.1-.257V341.2a3.473,3.473,0,0,1,.734-1.938,4.167,4.167,0,0,1,1.72-1.287,6.071,6.071,0,0,1,2.371-.445,5.694,5.694,0,0,1,2.561.543,4.065,4.065,0,0,1,1.681,1.472,3.782,3.782,0,0,1,.188,3.7,8.26,8.26,0,0,1-1.187,1.761,41.142,41.142,0,0,1-2.9,3.017l-.553.535c-.054.051-.072.1-.059.129s.051.049.118.049h4.819a.337.337,0,0,1,.355.355v2.1a.353.353,0,0,1-.1.257.348.348,0,0,1-.257.1h-9.036A.348.348,0,0,1,184.789,351.445Zm13.07-13.741h2.711a.348.348,0,0,1,.257.1.342.342,0,0,1,.1.257V351.19a.342.342,0,0,1-.1.257.348.348,0,0,1-.257.1h-2.574a.345.345,0,0,1-.358-.358V340.847a.134.134,0,0,0-.039-.1.09.09,0,0,0-.1-.021l-1.66.2h-.062c-.209,0-.314-.111-.314-.335v-1.841a.407.407,0,0,1,.3-.394l1.66-.574A1.086,1.086,0,0,1,197.858,337.7Z" transform="translate(-90.905 -178.099)" fill="#252530"/>
  </g>
</svg>
