<svg xmlns="http://www.w3.org/2000/svg" xmlns:xlink="http://www.w3.org/1999/xlink" width="207.365" height="250.942" viewBox="0 0 207.365 250.942">
  <defs>
    <filter id="Path_32594" x="0" y="0" width="207.365" height="250.942" filterUnits="userSpaceOnUse">
      <feOffset dy="5" input="SourceAlpha"/>
      <feGaussianBlur stdDeviation="7.5" result="blur"/>
      <feFlood flood-opacity="0.051"/>
      <feComposite operator="in" in2="blur"/>
      <feComposite in="SourceGraphic"/>
    </filter>
  </defs>
  <g id="g2-best-software-2022-badge-highest-satisfaction" transform="translate(13.021 17.5)">
    <g transform="matrix(1, 0, 0, 1, -13.02, -17.5)" filter="url(#Path_32594)">
      <path id="Path_32594-2" data-name="Path 32594" d="M199.185,164.3,118,205.942,36.82,164.3V0H199.185Z" transform="translate(-14.32 17.5)" fill="#f8f8f8"/>
    </g>
    <path id="Path_32595" data-name="Path 32595" d="M37.56,0V164.3L199.925,0Z" transform="translate(-27.891)" fill="#fff"/>
    <path id="Path_32596" data-name="Path 32596" d="M197.64,1.545V163.358L118,204.207,38.365,163.358V1.545H197.64M199.185,0H36.82V164.3L118,205.942,199.185,164.3Z" transform="translate(-27.342)" fill="#dcdfdd"/>
    <path id="Path_32597" data-name="Path 32597" d="M316.9,29.375,298.011,40.349,279.45,29.375V0H316.9Z" transform="translate(-207.512)" fill="#ff3100"/>
    <path id="Path_32598" data-name="Path 32598" d="M371.854,38.833h-3.519c.1-.553.438-.86,1.128-1.212l.649-.329c1.158-.595,1.774-1.264,1.774-2.358a1.916,1.916,0,0,0-.8-1.622,3.089,3.089,0,0,0-1.892-.584,2.937,2.937,0,0,0-1.606.458,2.7,2.7,0,0,0-1.061,1.158l1.03,1.03a1.852,1.852,0,0,1,1.722-1.189c.636,0,1.03.33,1.03.785,0,.384-.191.7-.924,1.073l-.414.2a4.389,4.389,0,0,0-1.892,1.573,4.23,4.23,0,0,0-.541,2.242v.257h5.324Z" transform="translate(-272.175 -24.301)" fill="#fff"/>
    <path id="Path_32599" data-name="Path 32599" d="M360.177,68.64h-5.826l-2.912,5.043h5.826l2.911,5.046,2.912-5.046Z" transform="translate(-260.97 -50.97)" fill="#fff"/>
    <path id="Path_32600" data-name="Path 32600" d="M319.441,47.946a6.727,6.727,0,1,1,0-13.453l2.3-4.819a11.932,11.932,0,0,0-2.3-.224,11.77,11.77,0,1,0,6.932,21.282l-2.551-4.407A6.693,6.693,0,0,1,319.441,47.946Z" transform="translate(-228.468 -21.869)" fill="#fff"/>
    <path id="Path_32601" data-name="Path 32601" d="M175.555,418.482H5.766L0,404.066,5.766,389.65H175.555l5.766,14.416Z" transform="translate(0 -289.343)" fill="#ff3100"/>
    <path id="Path_32602" data-name="Path 32602" d="M126.734,557.761c0,.021.015.036.041.049a1.624,1.624,0,0,1,.88,1.563,1.689,1.689,0,0,1-.682,1.473,3.038,3.038,0,0,1-1.8.484H122.6a.175.175,0,0,1-.129-.049.17.17,0,0,1-.049-.129v-6.564a.167.167,0,0,1,.178-.178h2.492a3.05,3.05,0,0,1,1.823.456,1.708,1.708,0,0,1,.618,1.473,1.429,1.429,0,0,1-.772,1.375A.1.1,0,0,0,126.734,557.761Zm-2.659-1.879v1.207a.062.062,0,0,0,.069.069h.96a.981.981,0,0,0,.623-.175.587.587,0,0,0,.216-.489.623.623,0,0,0-.216-.515.966.966,0,0,0-.623-.178h-.96a.062.062,0,0,0-.069.08Zm1.722,3.861a.749.749,0,0,0,0-1.048.937.937,0,0,0-.618-.183h-1.03a.062.062,0,0,0-.07.069v1.274a.062.062,0,0,0,.07.07h1.03a.934.934,0,0,0,.618-.193Z" transform="translate(-90.905 -411.689)" fill="#252530"/>
    <path id="Path_32603" data-name="Path 32603" d="M151.987,555.763a.175.175,0,0,1-.129.049h-3.017a.062.062,0,0,0-.07.07v1.176a.062.062,0,0,0,.07.07h1.908a.185.185,0,0,1,.129.049.175.175,0,0,1,.049.129v1.03a.167.167,0,0,1-.049.129.178.178,0,0,1-.129.051h-1.908a.062.062,0,0,0-.07.067v1.267a.062.062,0,0,0,.07.07h3.025a.167.167,0,0,1,.178.178v1.048a.17.17,0,0,1-.049.129.175.175,0,0,1-.129.049H147.31a.167.167,0,0,1-.129-.049.172.172,0,0,1-.051-.129v-6.557a.178.178,0,0,1,.051-.129.167.167,0,0,1,.129-.049h4.556a.167.167,0,0,1,.178.178v1.048a.17.17,0,0,1-.057.129Z" transform="translate(-109.254 -411.689)" fill="#252530"/>
    <path id="Path_32604" data-name="Path 32604" d="M170.85,560.886a2.059,2.059,0,0,1-.924-.752A1.975,1.975,0,0,1,169.6,559v-.129a.167.167,0,0,1,.178-.178h1.256a.209.209,0,0,1,.126.033.1.1,0,0,1,.051.085v.118a.7.7,0,0,0,.322.564,1.313,1.313,0,0,0,.824.257.948.948,0,0,0,.644-.188.569.569,0,0,0,.206-.435.466.466,0,0,0-.242-.425,4.147,4.147,0,0,0-.865-.348l-.216-.069a8.078,8.078,0,0,1-1.107-.448,2.4,2.4,0,0,1-.816-.685,1.67,1.67,0,0,1-.337-1.061,1.831,1.831,0,0,1,.322-1.073,2.06,2.06,0,0,1,.891-.708,3.2,3.2,0,0,1,1.287-.257,3.266,3.266,0,0,1,1.369.278,2.273,2.273,0,0,1,.953.772,2,2,0,0,1,.348,1.158v.077a.181.181,0,0,1-.049.129.176.176,0,0,1-.129.049h-1.256a.308.308,0,0,1-.129-.023.08.08,0,0,1-.049-.075v-.064a.8.8,0,0,0-.306-.613,1.212,1.212,0,0,0-.821-.257,1,1,0,0,0-.6.157.515.515,0,0,0-.219.445.5.5,0,0,0,.139.36,1.3,1.3,0,0,0,.43.257c.2.082.492.188.9.322.461.157.819.3,1.076.414a2.156,2.156,0,0,1,.726.577,1.56,1.56,0,0,1,.342,1.053,1.861,1.861,0,0,1-.327,1.094,2.111,2.111,0,0,1-.919.726,3.772,3.772,0,0,1-2.752,0Z" transform="translate(-125.939 -411.429)" fill="#252530"/>
    <path id="Path_32605" data-name="Path 32605" d="M198.238,554.458a.185.185,0,0,1,.049.129v1.058a.18.18,0,0,1-.049.129.175.175,0,0,1-.129.049h-1.653a.062.062,0,0,0-.07.069v5.259a.167.167,0,0,1-.178.178h-1.287a.175.175,0,0,1-.129-.049.17.17,0,0,1-.049-.129v-5.259a.062.062,0,0,0-.069-.069h-1.588a.167.167,0,0,1-.178-.178v-1.058a.175.175,0,0,1,.049-.129.169.169,0,0,1,.129-.049h5.022A.175.175,0,0,1,198.238,554.458Z" transform="translate(-143.249 -411.689)" fill="#252530"/>
    <path id="Path_32606" data-name="Path 32606" d="M226.76,560.916a2.06,2.06,0,0,1-.924-.752,1.975,1.975,0,0,1-.327-1.13v-.129a.167.167,0,0,1,.178-.178h1.256a.224.224,0,0,1,.129.034.105.105,0,0,1,.049.085v.118a.7.7,0,0,0,.322.564,1.314,1.314,0,0,0,.824.257.948.948,0,0,0,.644-.188.571.571,0,0,0,.209-.435.469.469,0,0,0-.245-.425,4.151,4.151,0,0,0-.865-.348l-.216-.07a8.08,8.08,0,0,1-1.107-.448,2.4,2.4,0,0,1-.811-.674,1.67,1.67,0,0,1-.337-1.06,1.831,1.831,0,0,1,.322-1.073,2.059,2.059,0,0,1,.891-.708,3.2,3.2,0,0,1,1.287-.257,3.261,3.261,0,0,1,1.37.278,2.274,2.274,0,0,1,.952.772,2,2,0,0,1,.347,1.158v.077a.18.18,0,0,1-.049.129.175.175,0,0,1-.129.049h-1.256a.307.307,0,0,1-.129-.023.08.08,0,0,1-.049-.075v-.075a.8.8,0,0,0-.306-.613,1.213,1.213,0,0,0-.821-.257,1,1,0,0,0-.6.157.515.515,0,0,0-.219.445.5.5,0,0,0,.139.36,1.333,1.333,0,0,0,.43.257c.2.082.492.188.9.322.461.157.819.3,1.076.415a2.186,2.186,0,0,1,.729.576,1.573,1.573,0,0,1,.34,1.053,1.86,1.86,0,0,1-.327,1.094,2.108,2.108,0,0,1-.919.726,3.38,3.38,0,0,1-1.364.258A3.425,3.425,0,0,1,226.76,560.916Z" transform="translate(-167.456 -411.459)" fill="#252530"/>
    <path id="Path_32607" data-name="Path 32607" d="M250.827,560.874a2.34,2.34,0,0,1-.945-.906,2.661,2.661,0,0,1-.335-1.354v-1.98a2.592,2.592,0,0,1,.335-1.328,2.317,2.317,0,0,1,.945-.9,3.253,3.253,0,0,1,2.832,0,2.318,2.318,0,0,1,.95.9,2.593,2.593,0,0,1,.337,1.328v1.977a2.662,2.662,0,0,1-.337,1.354,2.316,2.316,0,0,1-.95.906,3.277,3.277,0,0,1-2.832,0Zm2.175-1.39a1.148,1.148,0,0,0,.291-.821V556.6a1.146,1.146,0,0,0-.291-.814,1,1,0,0,0-.772-.311.981.981,0,0,0-.754.312,1.135,1.135,0,0,0-.293.813v2.059a1.138,1.138,0,0,0,.293.821,1,1,0,0,0,.754.306,1.03,1.03,0,0,0,.78-.306Z" transform="translate(-185.307 -411.445)" fill="#252530"/>
    <path id="Path_32608" data-name="Path 32608" d="M279.624,555.763a.17.17,0,0,1-.129.049h-3.014a.062.062,0,0,0-.069.07v1.176a.062.062,0,0,0,.017.052.063.063,0,0,0,.052.017h1.908a.18.18,0,0,1,.129.049.175.175,0,0,1,.049.129v1.03a.167.167,0,0,1-.049.129.173.173,0,0,1-.129.052h-1.908a.062.062,0,0,0-.069.067v2.574a.17.17,0,0,1-.049.129.175.175,0,0,1-.129.049h-1.287a.167.167,0,0,1-.178-.178v-6.57a.175.175,0,0,1,.049-.129.169.169,0,0,1,.129-.049h4.546a.169.169,0,0,1,.129.049.175.175,0,0,1,.049.129v1.048A.17.17,0,0,1,279.624,555.763Z" transform="translate(-204.036 -411.689)" fill="#252530"/>
    <path id="Path_32609" data-name="Path 32609" d="M301.45,554.458a.185.185,0,0,1,.049.129v1.058a.18.18,0,0,1-.049.129.175.175,0,0,1-.129.049h-1.653a.062.062,0,0,0-.067.069v5.259a.172.172,0,0,1-.052.129.167.167,0,0,1-.129.049h-1.287a.175.175,0,0,1-.129-.049.18.18,0,0,1-.049-.129v-5.259a.062.062,0,0,0-.07-.069H296.3a.175.175,0,0,1-.129-.049.17.17,0,0,1-.049-.129v-1.058a.167.167,0,0,1,.178-.178h5.022A.175.175,0,0,1,301.45,554.458Z" transform="translate(-219.89 -411.689)" fill="#252530"/>
    <path id="Path_32610" data-name="Path 32610" d="M320.791,561.155l-1.8-6.575a.12.12,0,0,1,0-.059c0-.093.051-.139.157-.139h1.388a.214.214,0,0,1,.134.044.188.188,0,0,1,.064.116l.831,3.488c.013.026.028.039.044.039s.028-.013.036-.039l.79-3.5a.18.18,0,0,1,.2-.159h1.176a.19.19,0,0,1,.2.16l.868,3.488c.015.026.028.039.046.039s.028-.013.034-.039l.772-3.488a.175.175,0,0,1,.064-.116.208.208,0,0,1,.134-.044h1.344a.144.144,0,0,1,.157.2l-1.64,6.564a.188.188,0,0,1-.2.157h-1.315a.214.214,0,0,1-.134-.044.181.181,0,0,1-.064-.113l-.829-3.707c0-.033-.021-.051-.041-.051s-.031.018-.039.051l-.752,3.707a.173.173,0,0,1-.188.157H321A.185.185,0,0,1,320.791,561.155Z" transform="translate(-236.87 -411.662)" fill="#252530"/>
    <path id="Path_32611" data-name="Path 32611" d="M354.528,561.187l-.229-.811c0-.041-.034-.059-.08-.059h-2.232a.075.075,0,0,0-.08.059l-.227.811a.185.185,0,0,1-.2.147h-1.4a.167.167,0,0,1-.139-.054.154.154,0,0,1,0-.144l2.059-6.57a.2.2,0,0,1,.209-.149h1.748a.191.191,0,0,1,.209.149l2.085,6.572a.157.157,0,0,1,0,.07c0,.087-.052.129-.157.129h-1.4A.183.183,0,0,1,354.528,561.187Zm-2.216-2.2a.054.054,0,0,0,.059.059h1.465a.056.056,0,0,0,.054-.026.065.065,0,0,0,0-.054l-.752-2.628c0-.033-.018-.049-.036-.049s-.031.016-.044.049l-.752,2.628Z" transform="translate(-259.849 -411.693)" fill="#252530"/>
    <path id="Path_32612" data-name="Path 32612" d="M381.97,561.188l-1.148-2.574a.075.075,0,0,0-.077-.049h-.613a.062.062,0,0,0-.069.07v2.51a.173.173,0,0,1-.052.129.165.165,0,0,1-.126.049H378.6a.175.175,0,0,1-.129-.049.181.181,0,0,1-.049-.129v-6.559a.185.185,0,0,1,.049-.129.175.175,0,0,1,.129-.049h2.878a2.374,2.374,0,0,1,1.146.258,1.888,1.888,0,0,1,.772.757,2.272,2.272,0,0,1,.257,1.12,2.013,2.013,0,0,1-.319,1.138,1.838,1.838,0,0,1-.9.7.064.064,0,0,0-.039.1l1.264,2.631.021.077c0,.088-.054.129-.157.129h-1.352A.209.209,0,0,1,381.97,561.188Zm-1.908-5.308v1.364a.062.062,0,0,0,.069.07h1.076a.845.845,0,0,0,.592-.2.685.685,0,0,0,.229-.538.713.713,0,0,0-.229-.553.836.836,0,0,0-.592-.208h-1.076a.062.062,0,0,0-.069.069Z" transform="translate(-281.004 -411.687)" fill="#252530"/>
    <path id="Path_32613" data-name="Path 32613" d="M407.822,555.763a.169.169,0,0,1-.129.049h-3.025a.062.062,0,0,0-.069.07v1.176a.062.062,0,0,0,.069.07h1.9a.172.172,0,0,1,.18.178v1.03a.175.175,0,0,1-.18.18h-1.9a.062.062,0,0,0-.069.067v1.267a.062.062,0,0,0,.069.07h3.025a.17.17,0,0,1,.129.049.175.175,0,0,1,.049.129v1.048a.167.167,0,0,1-.178.178h-4.556a.175.175,0,0,1-.129-.049.17.17,0,0,1-.049-.129v-6.557a.167.167,0,0,1,.178-.178h4.556a.17.17,0,0,1,.129.049.174.174,0,0,1,.049.129v1.048a.17.17,0,0,1-.049.129Z" transform="translate(-299.226 -411.689)" fill="#252530"/>
    <path id="Path_32614" data-name="Path 32614" d="M438.435,561.187l-.227-.811c0-.041-.033-.059-.08-.059h-2.234a.077.077,0,0,0-.08.059l-.227.811a.185.185,0,0,1-.2.147H434a.159.159,0,0,1-.139-.054.152.152,0,0,1,0-.144l2.067-6.569a.2.2,0,0,1,.206-.149h1.751a.193.193,0,0,1,.208.149l2.085,6.572a.212.212,0,0,1,0,.069c0,.088-.054.129-.16.129h-1.393A.186.186,0,0,1,438.435,561.187Zm-2.214-2.2a.052.052,0,0,0,.059.059h1.462a.057.057,0,0,0,.059-.08l-.752-2.628c0-.033-.018-.049-.033-.049s-.031.015-.044.049l-.752,2.628Z" transform="translate(-322.157 -411.694)" fill="#252530"/>
    <path id="Path_32615" data-name="Path 32615" d="M457.461,561.155l-1.8-6.575a.122.122,0,0,1,0-.059c0-.093.051-.139.157-.139H457.2a.214.214,0,0,1,.134.044.188.188,0,0,1,.064.116l.829,3.488c.013.026.028.039.044.039s.028-.013.036-.039l.783-3.5a.18.18,0,0,1,.2-.159h1.176a.19.19,0,0,1,.2.16l.868,3.488c.015.026.028.039.046.039s.028-.013.033-.039l.772-3.488a.175.175,0,0,1,.064-.116.207.207,0,0,1,.134-.044h1.344a.144.144,0,0,1,.157.2l-1.645,6.572a.188.188,0,0,1-.2.157h-1.315a.213.213,0,0,1-.134-.044.18.18,0,0,1-.064-.113l-.829-3.707c0-.034-.021-.052-.041-.052s-.031.018-.039.052l-.752,3.707a.172.172,0,0,1-.188.157h-1.225A.185.185,0,0,1,457.461,561.155Z" transform="translate(-338.358 -411.662)" fill="#252530"/>
    <path id="Path_32616" data-name="Path 32616" d="M491.156,561.187l-.227-.811c0-.041-.033-.059-.08-.059h-2.232a.075.075,0,0,0-.08.059l-.227.811a.185.185,0,0,1-.2.147h-1.4a.167.167,0,0,1-.139-.054.154.154,0,0,1,0-.144l2.067-6.57a.2.2,0,0,1,.209-.149H490.6a.19.19,0,0,1,.208.149l2.085,6.572a.157.157,0,0,1,0,.07c0,.087-.051.129-.157.129h-1.4A.185.185,0,0,1,491.156,561.187Zm-2.214-2.2a.054.054,0,0,0,.059.059h1.465a.057.057,0,0,0,.054-.026.065.065,0,0,0,0-.054l-.757-2.628c0-.034-.018-.049-.036-.049s-.031.015-.044.049l-.752,2.628Z" transform="translate(-361.307 -411.693)" fill="#252530"/>
    <path id="Path_32617" data-name="Path 32617" d="M518.6,561.188l-1.148-2.574a.074.074,0,0,0-.077-.049h-.613a.062.062,0,0,0-.069.07v2.51a.173.173,0,0,1-.052.129.165.165,0,0,1-.126.049h-1.287a.175.175,0,0,1-.129-.049.18.18,0,0,1-.049-.129v-6.559a.185.185,0,0,1,.049-.129.175.175,0,0,1,.129-.049h2.878a2.374,2.374,0,0,1,1.146.258,1.89,1.89,0,0,1,.772.757,2.273,2.273,0,0,1,.257,1.12,2.013,2.013,0,0,1-.319,1.138,1.848,1.848,0,0,1-.9.7.064.064,0,0,0-.039.1l1.264,2.631.021.077c0,.088-.054.129-.157.129H518.8A.209.209,0,0,1,518.6,561.188Zm-1.907-5.308v1.364a.062.062,0,0,0,.069.07h1.076a.845.845,0,0,0,.592-.2.685.685,0,0,0,.229-.538.713.713,0,0,0-.229-.553.836.836,0,0,0-.592-.208h-1.076a.062.062,0,0,0-.069.069Z" transform="translate(-382.462 -411.687)" fill="#252530"/>
    <path id="Path_32618" data-name="Path 32618" d="M539.638,561.278a.17.17,0,0,1-.049-.129v-6.564a.167.167,0,0,1,.178-.178h2.461a3.292,3.292,0,0,1,1.364.257,2.086,2.086,0,0,1,.919.759,2.014,2.014,0,0,1,.327,1.138v2.59a2,2,0,0,1-.327,1.138,2.086,2.086,0,0,1-.919.772,3.253,3.253,0,0,1-1.365.257h-2.461A.175.175,0,0,1,539.638,561.278Zm1.66-1.354h1a.817.817,0,0,0,.644-.283,1.143,1.143,0,0,0,.257-.754V556.85a1.1,1.1,0,0,0-.257-.757.847.847,0,0,0-.659-.283h-.989a.062.062,0,0,0-.052.018.062.062,0,0,0-.018.052v3.975a.062.062,0,0,0,.075.07Z" transform="translate(-400.684 -411.687)" fill="#252530"/>
    <path id="Path_32619" data-name="Path 32619" d="M564.88,560.916a2.059,2.059,0,0,1-.924-.752,1.975,1.975,0,0,1-.327-1.13v-.129a.167.167,0,0,1,.178-.178h1.256a.223.223,0,0,1,.129.034.105.105,0,0,1,.049.085v.118a.7.7,0,0,0,.322.564,1.314,1.314,0,0,0,.824.257.947.947,0,0,0,.643-.188.569.569,0,0,0,.206-.435.466.466,0,0,0-.242-.425,4.153,4.153,0,0,0-.865-.348l-.216-.07a8.084,8.084,0,0,1-1.107-.448,2.4,2.4,0,0,1-.811-.674,1.671,1.671,0,0,1-.337-1.06,1.83,1.83,0,0,1,.322-1.073,2.06,2.06,0,0,1,.891-.708,3.2,3.2,0,0,1,1.287-.257,3.26,3.26,0,0,1,1.37.278,2.273,2.273,0,0,1,.953.772,2,2,0,0,1,.348,1.158v.077a.181.181,0,0,1-.049.129.175.175,0,0,1-.129.049h-1.256a.307.307,0,0,1-.129-.023.08.08,0,0,1-.049-.075v-.075a.8.8,0,0,0-.306-.613,1.213,1.213,0,0,0-.821-.257,1,1,0,0,0-.6.157.515.515,0,0,0-.219.445.5.5,0,0,0,.139.36,1.305,1.305,0,0,0,.43.257c.2.082.492.188.9.322.461.157.819.3,1.076.415a2.154,2.154,0,0,1,.726.576,1.56,1.56,0,0,1,.342,1.053,1.859,1.859,0,0,1-.327,1.094,2.109,2.109,0,0,1-.919.726,3.386,3.386,0,0,1-1.364.258A3.425,3.425,0,0,1,564.88,560.916Z" transform="translate(-418.535 -411.459)" fill="#252530"/>
    <path id="Path_32620" data-name="Path 32620" d="M152.019,241.084a.6.6,0,0,1,.172.448v3.7a.592.592,0,0,1-.623.62h-5.777a.216.216,0,0,0-.245.245v18.406a.592.592,0,0,1-.62.623h-4.5a.6.6,0,0,1-.448-.172.61.61,0,0,1-.175-.451V246.1a.216.216,0,0,0-.242-.245h-5.571a.595.595,0,0,1-.623-.62v-3.7a.6.6,0,0,1,.623-.623h17.577a.61.61,0,0,1,.45.175Z" transform="translate(-99.035 -178.892)" fill="#252530"/>
    <path id="Path_32621" data-name="Path 32621" d="M204.987,281.227a8.155,8.155,0,0,1-2.924-4.5,11.105,11.105,0,0,1-.414-3.115,12.463,12.463,0,0,1,.45-3.347,7.705,7.705,0,0,1,2.958-4.273,8.78,8.78,0,0,1,5.241-1.545,8.368,8.368,0,0,1,5.149,1.545,7.98,7.98,0,0,1,2.94,4.237,11.07,11.07,0,0,1,.487,3.321,12.023,12.023,0,0,1-.381,3.045,8.132,8.132,0,0,1-2.906,4.6,8.43,8.43,0,0,1-5.329,1.694A8.269,8.269,0,0,1,204.987,281.227Zm6.951-3.892a3.516,3.516,0,0,0,.95-1.748,8.73,8.73,0,0,0,.209-1.972,8.2,8.2,0,0,0-.242-2.005,3.252,3.252,0,0,0-.934-1.66,2.659,2.659,0,0,0-3.347,0,3.29,3.29,0,0,0-.916,1.66,6.767,6.767,0,0,0-.242,2.005,8.884,8.884,0,0,0,.206,1.972,3.82,3.82,0,0,0,.97,1.748,2.278,2.278,0,0,0,1.66.641,2.342,2.342,0,0,0,1.691-.641Z" transform="translate(-149.738 -196.373)" fill="#252530"/>
    <path id="Path_32622" data-name="Path 32622" d="M295.931,273.746a12.187,12.187,0,0,1-.726,4.361,7.5,7.5,0,0,1-2.574,3.475,6.515,6.515,0,0,1-4,1.333,4.813,4.813,0,0,1-3.944-1.593c-.07-.09-.131-.126-.19-.1s-.085.093-.085.209v6.884a.618.618,0,0,1-.173.451.61.61,0,0,1-.451.172h-4.5a.592.592,0,0,1-.623-.623V265.338a.608.608,0,0,1,.172-.451.618.618,0,0,1,.451-.172h4.5a.592.592,0,0,1,.623.623v.831c0,.116.028.183.085.206s.121,0,.19-.1a4.537,4.537,0,0,1,3.944-1.833,6.6,6.6,0,0,1,4.152,1.485,7.411,7.411,0,0,1,2.595,3.841A12.823,12.823,0,0,1,295.931,273.746Zm-6.158-.1a6.131,6.131,0,0,0-.587-2.873,2.317,2.317,0,0,0-2.111-1.287,2.244,2.244,0,0,0-2.041,1.315,6,6,0,0,0-.59,2.832,6.345,6.345,0,0,0,.623,3.043,2.247,2.247,0,0,0,2.008,1.176,2.289,2.289,0,0,0,2.075-1.21A6.2,6.2,0,0,0,289.773,273.643Z" transform="translate(-206.93 -196.366)" fill="#252530"/>
    <path id="Path_32623" data-name="Path 32623" d="M382.038,240.906h4.739a.595.595,0,0,1,.623.623V264.5a.592.592,0,0,1-.623.623h-4.5a.592.592,0,0,1-.623-.623V246.41a.24.24,0,0,0-.07-.175.154.154,0,0,0-.172-.033l-2.906.345H378.4c-.371,0-.553-.2-.553-.587v-3.228a.716.716,0,0,1,.515-.692l2.906-1A1.911,1.911,0,0,1,382.038,240.906Z" transform="translate(-280.581 -178.889)" fill="#252530"/>
    <path id="Path_32624" data-name="Path 32624" d="M427.983,262.519a8.115,8.115,0,0,1-2.283-6.073v-8.441a7.877,7.877,0,0,1,2.283-5.985,10.106,10.106,0,0,1,12.56.015,7.82,7.82,0,0,1,2.317,5.97v8.441a8.037,8.037,0,0,1-2.317,6.073,8.694,8.694,0,0,1-6.3,2.232A8.581,8.581,0,0,1,427.983,262.519Zm8.348-3.529a3.1,3.1,0,0,0,.772-2.232V247.8a3.115,3.115,0,0,0-.772-2.232,2.762,2.762,0,0,0-2.093-.811,2.664,2.664,0,0,0-2.041.811,3.115,3.115,0,0,0-.772,2.232v8.961a3.22,3.22,0,0,0,.744,2.232,2.649,2.649,0,0,0,2.059.813A2.754,2.754,0,0,0,436.332,258.99Z" transform="translate(-316.113 -178.099)" fill="#252530"/>
    <path id="Path_32625" data-name="Path 32625" d="M504.733,262.519a8.114,8.114,0,0,1-2.283-6.073v-8.441a7.878,7.878,0,0,1,2.283-5.985,10.106,10.106,0,0,1,12.56.015,7.82,7.82,0,0,1,2.317,5.97v8.441a8.037,8.037,0,0,1-2.317,6.073,8.7,8.7,0,0,1-6.3,2.232A8.576,8.576,0,0,1,504.733,262.519Zm8.356-3.529a3.1,3.1,0,0,0,.772-2.232V247.8a3.115,3.115,0,0,0-.772-2.232,2.77,2.77,0,0,0-2.093-.811,2.664,2.664,0,0,0-2.041.811,3.113,3.113,0,0,0-.772,2.232v8.961a3.176,3.176,0,0,0,.744,2.232,2.649,2.649,0,0,0,2.059.813A2.762,2.762,0,0,0,513.09,258.99Z" transform="translate(-373.106 -178.099)" fill="#252530"/>
    <path id="Path_32626" data-name="Path 32626" d="M272.461,630.468a.082.082,0,0,0,.08.039h5.015a.229.229,0,0,1,.167.07.224.224,0,0,1,.067.167v2.317a.224.224,0,0,1-.067.167.228.228,0,0,1-.167.069h-9.224a.228.228,0,0,1-.167-.069.224.224,0,0,1-.067-.167v-2.183a.4.4,0,0,1,.116-.293q1.182-1.1,3.128-3.166l1.179-1.238q1.8-1.851,1.8-2.7a1.2,1.2,0,0,0-.422-.945,1.6,1.6,0,0,0-1.092-.373,1.56,1.56,0,0,0-1.081.373,1.267,1.267,0,0,0-.412.983V624a.229.229,0,0,1-.069.167.237.237,0,0,1-.167.067h-2.832a.235.235,0,0,1-.167-.067.229.229,0,0,1-.069-.167v-.983a3.459,3.459,0,0,1,.728-1.928,4.172,4.172,0,0,1,1.712-1.269,6.1,6.1,0,0,1,2.358-.44,5.663,5.663,0,0,1,2.546.541,4.023,4.023,0,0,1,1.673,1.465,3.751,3.751,0,0,1,.185,3.676,8.153,8.153,0,0,1-1.179,1.75q-.551.669-1.238,1.357t-1.908,1.848l-.394.373C272.456,630.417,272.448,630.443,272.461,630.468Z" transform="translate(-199.017 -459.931)" fill="#252530"/>
    <path id="Path_32627" data-name="Path 32627" d="M312.907,632.279a4.633,4.633,0,0,1-1.287-3.452v-4.8a4.5,4.5,0,0,1,1.287-3.4,4.922,4.922,0,0,1,3.56-1.238,4.991,4.991,0,0,1,3.578,1.249,4.447,4.447,0,0,1,1.318,3.39v4.8a4.568,4.568,0,0,1-1.318,3.452,4.943,4.943,0,0,1-3.578,1.269A4.872,4.872,0,0,1,312.907,632.279Zm4.75-2.005A1.756,1.756,0,0,0,318.1,629v-5.082a1.75,1.75,0,0,0-.443-1.266,1.57,1.57,0,0,0-1.189-.463,1.511,1.511,0,0,0-1.161.463,1.779,1.779,0,0,0-.432,1.267v5.094a1.817,1.817,0,0,0,.422,1.269,1.514,1.514,0,0,0,1.171.461,1.578,1.578,0,0,0,1.189-.474Z" transform="translate(-231.4 -459.942)" fill="#252530"/>
    <path id="Path_32628" data-name="Path 32628" d="M359.434,630.454a.08.08,0,0,0,.08.039h5.012a.237.237,0,0,1,.237.237v2.317a.237.237,0,0,1-.237.237H355.3a.237.237,0,0,1-.237-.237v-2.183a.389.389,0,0,1,.118-.293q1.182-1.1,3.128-3.166l1.179-1.238q1.786-1.851,1.789-2.7a1.21,1.21,0,0,0-.422-.945,1.6,1.6,0,0,0-1.091-.373,1.559,1.559,0,0,0-1.081.373,1.266,1.266,0,0,0-.414.983v.474a.229.229,0,0,1-.234.234h-2.832a.232.232,0,0,1-.237-.234V623a3.441,3.441,0,0,1,.729-1.933,4.161,4.161,0,0,1,1.709-1.269,6.111,6.111,0,0,1,2.361-.44,5.661,5.661,0,0,1,2.546.541,4,4,0,0,1,1.671,1.465,3.743,3.743,0,0,1,.188,3.676,8.255,8.255,0,0,1-1.179,1.75,17.209,17.209,0,0,1-1.241,1.357c-.468.458-1.094,1.076-1.907,1.848l-.391.373A.064.064,0,0,0,359.434,630.454Z" transform="translate(-263.591 -459.916)" fill="#252530"/>
    <path id="Path_32629" data-name="Path 32629" d="M402.824,630.468a.077.077,0,0,0,.077.039h5.015a.237.237,0,0,1,.237.237v2.317a.237.237,0,0,1-.237.237h-9.221a.237.237,0,0,1-.237-.237v-2.183a.388.388,0,0,1,.118-.293q1.176-1.1,3.125-3.166l1.182-1.238q1.786-1.851,1.789-2.7a1.21,1.21,0,0,0-.422-.945,1.6,1.6,0,0,0-1.092-.373,1.545,1.545,0,0,0-1.081.373,1.266,1.266,0,0,0-.414.983V624a.229.229,0,0,1-.07.167.235.235,0,0,1-.167.067h-2.832a.232.232,0,0,1-.234-.234v-.983a3.438,3.438,0,0,1,.726-1.928,4.172,4.172,0,0,1,1.712-1.269,6.108,6.108,0,0,1,2.361-.44,5.663,5.663,0,0,1,2.546.541,4,4,0,0,1,1.671,1.465,3.743,3.743,0,0,1,.188,3.676,8.179,8.179,0,0,1-1.182,1.751,17.2,17.2,0,0,1-1.238,1.357c-.466.458-1.094,1.076-1.908,1.848l-.394.373A.067.067,0,0,0,402.824,630.468Z" transform="translate(-295.811 -459.931)" fill="#252530"/>
    <path id="Path_32630" data-name="Path 32630" d="M59.882,430.674h1.267a.178.178,0,0,1,.2.2v7.885a.178.178,0,0,1-.2.2H59.882a.18.18,0,0,1-.2-.2v-3.2a.062.062,0,0,0-.07-.069H57.017c-.049,0-.072.023-.072.07v3.2a.178.178,0,0,1-.2.2H55.475a.178.178,0,0,1-.2-.2v-7.885a.178.178,0,0,1,.2-.2h1.272a.178.178,0,0,1,.2.2v3.115c0,.046.023.07.072.07h2.59a.062.062,0,0,0,.07-.07v-3.115a.178.178,0,0,1,.2-.2Z" transform="translate(-41.043 -319.805)" fill="#fff"/>
    <path id="Path_32631" data-name="Path 32631" d="M83.674,430.969a1.05,1.05,0,0,1,0-1.434,1.125,1.125,0,0,1,1.475,0,1.076,1.076,0,0,1,0,1.444,1.125,1.125,0,0,1-1.475,0Zm-.1,6.742v-5.687a.18.18,0,0,1,.2-.2h1.267a.178.178,0,0,1,.2.2v5.684a.178.178,0,0,1-.2.2H83.783a.18.18,0,0,1-.2-.2Z" transform="translate(-61.924 -318.757)" fill="#fff"/>
    <path id="Path_32632" data-name="Path 32632" d="M99.119,438.947h1.267a.178.178,0,0,1,.2.2v5.342A2.6,2.6,0,0,1,99.7,446.7a3.714,3.714,0,0,1-2.286.664,7.8,7.8,0,0,1-.888-.059c-.118,0-.178-.08-.178-.214l.046-1.1a.178.178,0,0,1,.067-.147.17.17,0,0,1,.16-.031,5.734,5.734,0,0,0,.721.059,1.8,1.8,0,0,0,1.166-.332,1.287,1.287,0,0,0,.409-1.066c0-.023,0-.036-.023-.041s-.036,0-.059.031a1.7,1.7,0,0,1-1.3.474,2.791,2.791,0,0,1-1.416-.373,2.06,2.06,0,0,1-.916-1.2,4.634,4.634,0,0,1-.178-1.408,4.466,4.466,0,0,1,.211-1.506,2.371,2.371,0,0,1,.842-1.158,2.236,2.236,0,0,1,1.375-.44,1.8,1.8,0,0,1,1.385.533c.023.026.044.033.059.026s.023-.028.023-.059v-.206a.178.178,0,0,1,.2-.2Zm-.2,3a5.313,5.313,0,0,0-.023-.569,1.934,1.934,0,0,0-.082-.378,1.071,1.071,0,0,0-.355-.515.963.963,0,0,0-.615-.2.943.943,0,0,0-.6.2,1.13,1.13,0,0,0-.368.515,3.048,3.048,0,0,0-.023,1.908,1.03,1.03,0,0,0,1.007.71.96.96,0,0,0,.971-.7,3.861,3.861,0,0,0,.1-.971Z" transform="translate(-70.56 -325.877)" fill="#fff"/>
    <path id="Path_32633" data-name="Path 32633" d="M125.994,433.363a2.129,2.129,0,0,1,.579,1.575v3.823a.178.178,0,0,1-.2.2H125.1a.178.178,0,0,1-.2-.2v-3.48a1.127,1.127,0,0,0-.257-.772.88.88,0,0,0-.7-.3.914.914,0,0,0-.711.3,1.086,1.086,0,0,0-.273.772v3.48a.178.178,0,0,1-.2.2h-1.269a.178.178,0,0,1-.2-.2v-7.885a.178.178,0,0,1,.2-.2h1.267a.178.178,0,0,1,.2.2v2.533c0,.031,0,.052.023.059s.031,0,.049-.023a1.658,1.658,0,0,1,1.431-.664A2.077,2.077,0,0,1,125.994,433.363Z" transform="translate(-90.068 -319.806)" fill="#fff"/>
    <path id="Path_32634" data-name="Path 32634" d="M150.226,443.173a.2.2,0,0,1,.154-.082.18.18,0,0,1,.129.059l.674.651a.2.2,0,0,1,.072.142.229.229,0,0,1-.046.144,2.732,2.732,0,0,1-1,.772,3.169,3.169,0,0,1-1.331.278,2.855,2.855,0,0,1-1.8-.556,2.711,2.711,0,0,1-.965-1.527,4.156,4.156,0,0,1-.142-1.1,4.533,4.533,0,0,1,.129-1.161,2.531,2.531,0,0,1,.955-1.408,2.762,2.762,0,0,1,1.7-.533,2.474,2.474,0,0,1,1.841.687,3.414,3.414,0,0,1,.883,1.928q.046.394.069.865a.178.178,0,0,1-.2.2H147.7a.064.064,0,0,0-.07.072,1.621,1.621,0,0,0,.082.368.962.962,0,0,0,.466.561,1.7,1.7,0,0,0,.847.2A1.545,1.545,0,0,0,150.226,443.173Zm-2.137-2.706a.922.922,0,0,0-.35.515c-.041.152-.064.257-.072.3a.056.056,0,0,0,.059.072h2.013c.041,0,.059-.015.059-.046a.881.881,0,0,0-.046-.273,1.068,1.068,0,0,0-.368-.546,1.189,1.189,0,0,0-1.287-.018Z" transform="translate(-108.391 -325.876)" fill="#fff"/>
    <path id="Path_32635" data-name="Path 32635" d="M172.108,444.9a2.06,2.06,0,0,1-.914-.626,1.447,1.447,0,0,1-.319-.914v-.059a.178.178,0,0,1,.2-.2h1.2c.134,0,.2.023.2.072v.082a.515.515,0,0,0,.283.443,1.308,1.308,0,0,0,.723.185,1.22,1.22,0,0,0,.651-.154.458.458,0,0,0,.257-.4.345.345,0,0,0-.214-.322,3.828,3.828,0,0,0-.7-.224,6.976,6.976,0,0,1-.873-.281,3.7,3.7,0,0,1-1.22-.638,1.339,1.339,0,0,1-.451-1.089,1.65,1.65,0,0,1,.687-1.393,2.933,2.933,0,0,1,1.8-.515,3.4,3.4,0,0,1,1.333.242,2.058,2.058,0,0,1,.888.682,1.663,1.663,0,0,1,.312.994.118.118,0,0,1-.051.1.235.235,0,0,1-.149.041h-1.161q-.2,0-.2-.07v-.072a.515.515,0,0,0-.257-.438,1.218,1.218,0,0,0-.7-.178,1.314,1.314,0,0,0-.646.142.435.435,0,0,0-.257.391.383.383,0,0,0,.242.355,4.156,4.156,0,0,0,.8.257,5.311,5.311,0,0,1,.662.178,3.816,3.816,0,0,1,1.339.638,1.372,1.372,0,0,1,.476,1.143,1.578,1.578,0,0,1-.7,1.367,3.19,3.19,0,0,1-1.869.492A3.839,3.839,0,0,1,172.108,444.9Z" transform="translate(-126.886 -325.891)" fill="#fff"/>
    <path id="Path_32636" data-name="Path 32636" d="M197.039,435.915h-1.066a.062.062,0,0,0-.072.072v2.451a.867.867,0,0,0,.16.574.657.657,0,0,0,.515.183h.335a.178.178,0,0,1,.2.2v1.03a.2.2,0,0,1-.2.214c-.3.016-.515.023-.651.023a2.615,2.615,0,0,1-1.467-.332,1.414,1.414,0,0,1-.5-1.231v-3.112c0-.049-.023-.072-.07-.072h-.608a.178.178,0,0,1-.2-.2v-.94a.178.178,0,0,1,.2-.2h.6a.062.062,0,0,0,.07-.069v-1.339a.18.18,0,0,1,.2-.2H195.7a.178.178,0,0,1,.2.2v1.351c0,.046.023.07.072.07h1.066a.178.178,0,0,1,.2.2v.937a.178.178,0,0,1-.2.19Z" transform="translate(-143.623 -321.507)" fill="#fff"/>
    <path id="Path_32637" data-name="Path 32637" d="M222.192,438.516a2.47,2.47,0,0,1-1.076-.865,2.244,2.244,0,0,1-.381-1.3v-.2a.178.178,0,0,1,.2-.2h1.243c.134,0,.2.049.2.152v.167a.971.971,0,0,0,.432.8,1.817,1.817,0,0,0,1.13.327,1.372,1.372,0,0,0,.929-.257.842.842,0,0,0,.3-.656.656.656,0,0,0-.188-.479,1.7,1.7,0,0,0-.515-.345c-.214-.1-.556-.234-1.03-.407a9.583,9.583,0,0,1-1.352-.559,2.755,2.755,0,0,1-.922-.772,1.913,1.913,0,0,1-.381-1.212,2.139,2.139,0,0,1,.368-1.243,2.345,2.345,0,0,1,1.03-.819,3.765,3.765,0,0,1,1.5-.283,3.861,3.861,0,0,1,1.609.319,2.637,2.637,0,0,1,1.109.893,2.317,2.317,0,0,1,.4,1.333v.118a.178.178,0,0,1-.2.2h-1.241c-.136,0-.2-.039-.2-.118v-.118a1.081,1.081,0,0,0-.407-.847,1.677,1.677,0,0,0-1.12-.35,1.424,1.424,0,0,0-.878.237.773.773,0,0,0-.306.651.731.731,0,0,0,.178.5,1.619,1.619,0,0,0,.538.366q.363.167,1.12.427c.551.2.991.384,1.313.538a2.523,2.523,0,0,1,.873.705,1.876,1.876,0,0,1,.384,1.22,2.178,2.178,0,0,1-.373,1.267,2.379,2.379,0,0,1-1.053.839,4.477,4.477,0,0,1-3.228,0Z" transform="translate(-163.91 -319.572)" fill="#fff"/>
    <path id="Path_32638" data-name="Path 32638" d="M251.261,439.083a2.252,2.252,0,0,1,.94.728,1.691,1.691,0,0,1,.337,1.03v3.954a.178.178,0,0,1-.2.2h-1.267a.178.178,0,0,1-.2-.2v-.281q0-.046-.023-.054a.062.062,0,0,0-.059.031,2.077,2.077,0,0,1-1.624.6,2.268,2.268,0,0,1-1.467-.448,1.612,1.612,0,0,1-.556-1.328,1.7,1.7,0,0,1,.638-1.413,2.85,2.85,0,0,1,1.825-.515H250.8c.049,0,.072-.023.072-.069v-.257a.788.788,0,0,0-.242-.61,1.03,1.03,0,0,0-.705-.219,1.287,1.287,0,0,0-.587.118.633.633,0,0,0-.314.332.224.224,0,0,1-.237.154l-1.313-.167a.294.294,0,0,1-.149-.054.106.106,0,0,1-.041-.111,1.576,1.576,0,0,1,.409-.878,2.318,2.318,0,0,1,.924-.61,3.574,3.574,0,0,1,1.272-.219A3.385,3.385,0,0,1,251.261,439.083Zm-.747,4.495a.844.844,0,0,0,.355-.7v-.422c0-.046-.023-.069-.072-.069h-.839a1.544,1.544,0,0,0-.842.2.638.638,0,0,0-.309.569.6.6,0,0,0,.232.5.947.947,0,0,0,.61.183A1.387,1.387,0,0,0,250.515,443.577Z" transform="translate(-183.517 -325.84)" fill="#fff"/>
    <path id="Path_32639" data-name="Path 32639" d="M274.457,435.937h-1.066c-.046,0-.069.023-.069.072v2.451a.867.867,0,0,0,.16.574.651.651,0,0,0,.515.183h.332a.178.178,0,0,1,.2.2v1.03a.2.2,0,0,1-.2.214c-.3.016-.515.023-.651.023a2.61,2.61,0,0,1-1.467-.332,1.414,1.414,0,0,1-.5-1.23v-3.112c0-.049-.023-.072-.07-.072h-.6a.178.178,0,0,1-.2-.2v-.94a.178.178,0,0,1,.2-.2h.613a.062.062,0,0,0,.07-.07v-1.339a.178.178,0,0,1,.188-.193h1.21a.178.178,0,0,1,.2.2v1.344a.062.062,0,0,0,.07.07h1.066a.178.178,0,0,1,.2.2v.937a.178.178,0,0,1-.2.19Z" transform="translate(-201.113 -321.529)" fill="#fff"/>
    <path id="Path_32640" data-name="Path 32640" d="M289.524,430.969a1.05,1.05,0,0,1,0-1.434,1.125,1.125,0,0,1,1.475,0,1.076,1.076,0,0,1,0,1.444,1.03,1.03,0,0,1-.741.273A1.01,1.01,0,0,1,289.524,430.969Zm-.088,6.742v-5.687a.178.178,0,0,1,.2-.2h1.267a.178.178,0,0,1,.2.2v5.684a.178.178,0,0,1-.2.2H289.64a.18.18,0,0,1-.2-.2Z" transform="translate(-214.783 -318.757)" fill="#fff"/>
    <path id="Path_32641" data-name="Path 32641" d="M302.055,444.927a2.058,2.058,0,0,1-.911-.625,1.433,1.433,0,0,1-.319-.914v-.059a.178.178,0,0,1,.2-.2h1.2c.134,0,.2.023.2.072v.082a.515.515,0,0,0,.283.443,1.3,1.3,0,0,0,.723.185,1.22,1.22,0,0,0,.651-.154.463.463,0,0,0,.257-.4.345.345,0,0,0-.214-.322,3.806,3.806,0,0,0-.7-.224,7.034,7.034,0,0,1-.862-.273,3.7,3.7,0,0,1-1.22-.638,1.339,1.339,0,0,1-.451-1.089,1.65,1.65,0,0,1,.687-1.393,2.932,2.932,0,0,1,1.8-.515,3.382,3.382,0,0,1,1.331.242,2.044,2.044,0,0,1,.891.682,1.663,1.663,0,0,1,.311.994.118.118,0,0,1-.051.1.235.235,0,0,1-.149.041h-1.161q-.2,0-.2-.07v-.072a.515.515,0,0,0-.257-.438,1.218,1.218,0,0,0-.7-.178,1.3,1.3,0,0,0-.646.142.435.435,0,0,0-.257.391.378.378,0,0,0,.242.355,4.157,4.157,0,0,0,.8.257,5.313,5.313,0,0,1,.662.178,3.839,3.839,0,0,1,1.339.638,1.372,1.372,0,0,1,.481,1.135,1.578,1.578,0,0,1-.7,1.367,3.194,3.194,0,0,1-1.874.487A3.861,3.861,0,0,1,302.055,444.927Z" transform="translate(-223.383 -325.913)" fill="#fff"/>
    <path id="Path_32642" data-name="Path 32642" d="M327.376,433.054v1.007a.178.178,0,0,1-.2.2H326.1a.064.064,0,0,0-.072.072v4.415a.178.178,0,0,1-.2.2h-1.267a.178.178,0,0,1-.2-.2v-4.423a.062.062,0,0,0-.072-.072h-.628a.177.177,0,0,1-.2-.2v-1a.178.178,0,0,1,.2-.2h.628a.064.064,0,0,0,.072-.072v-.257a2.406,2.406,0,0,1,.224-1.143,1.271,1.271,0,0,1,.728-.579,4.119,4.119,0,0,1,1.393-.147h.391a.178.178,0,0,1,.2.2v.839a.178.178,0,0,1-.2.2h-.332a.84.84,0,0,0-.574.17.824.824,0,0,0-.162.587v.118a.064.064,0,0,0,.072.072h1.079a.178.178,0,0,1,.2.209Z" transform="translate(-240.188 -319.785)" fill="#fff"/>
    <path id="Path_32643" data-name="Path 32643" d="M345.1,439.083a2.278,2.278,0,0,1,.942.728,1.707,1.707,0,0,1,.337,1.03V444.8a.178.178,0,0,1-.2.2h-1.269a.178.178,0,0,1-.2-.2v-.281q0-.046-.023-.054a.064.064,0,0,0-.059.031,2.078,2.078,0,0,1-1.622.6,2.281,2.281,0,0,1-1.47-.448,1.612,1.612,0,0,1-.556-1.328,1.691,1.691,0,0,1,.641-1.413,2.832,2.832,0,0,1,1.823-.515h1.2a.062.062,0,0,0,.07-.069v-.257a.772.772,0,0,0-.242-.61,1.03,1.03,0,0,0-.705-.219,1.256,1.256,0,0,0-.584.118.623.623,0,0,0-.314.332.224.224,0,0,1-.237.154l-1.315-.167a.275.275,0,0,1-.147-.054.108.108,0,0,1-.044-.111,1.609,1.609,0,0,1,.409-.878,2.343,2.343,0,0,1,.924-.61,3.6,3.6,0,0,1,1.272-.219,3.368,3.368,0,0,1,1.375.283Zm-.746,4.495a.844.844,0,0,0,.355-.7v-.422a.062.062,0,0,0-.07-.07H343.8a1.544,1.544,0,0,0-.842.2.641.641,0,0,0-.306.569.605.605,0,0,0,.232.5.934.934,0,0,0,.607.183,1.388,1.388,0,0,0,.852-.263Z" transform="translate(-253.2 -325.841)" fill="#fff"/>
    <path id="Path_32644" data-name="Path 32644" d="M367.017,444.66a2.574,2.574,0,0,1-.989-1.3,4.353,4.353,0,0,1-.2-1.4,4.21,4.21,0,0,1,.2-1.375,2.451,2.451,0,0,1,.983-1.267,2.909,2.909,0,0,1,1.645-.463,2.965,2.965,0,0,1,1.666.474,2.288,2.288,0,0,1,.952,1.2,1.431,1.431,0,0,1,.1.368v.023c0,.1-.059.165-.178.188l-1.243.191-.059.013a.154.154,0,0,1-.167-.144l-.036-.165a.9.9,0,0,0-.366-.515,1.14,1.14,0,0,0-.674-.2,1.045,1.045,0,0,0-.641.19.994.994,0,0,0-.366.515,2.888,2.888,0,0,0-.131.97,3.143,3.143,0,0,0,.118.97,1.073,1.073,0,0,0,.373.559,1.03,1.03,0,0,0,.646.2,1.1,1.1,0,0,0,.644-.2,1.011,1.011,0,0,0,.386-.528v-.059a.258.258,0,0,1,.085-.113.185.185,0,0,1,.152-.052l1.243.188a.211.211,0,0,1,.136.085.185.185,0,0,1,.031.142,1.135,1.135,0,0,1-.059.273,2.216,2.216,0,0,1-.965,1.243,3.059,3.059,0,0,1-1.653.448A2.832,2.832,0,0,1,367.017,444.66Z" transform="translate(-271.653 -325.883)" fill="#fff"/>
    <path id="Path_32645" data-name="Path 32645" d="M393.46,435.937h-1.066a.062.062,0,0,0-.072.072v2.451a.868.868,0,0,0,.16.574.651.651,0,0,0,.515.183h.332a.178.178,0,0,1,.2.2v1.03a.2.2,0,0,1-.2.214c-.3.015-.515.023-.651.023a2.609,2.609,0,0,1-1.467-.332,1.414,1.414,0,0,1-.5-1.23v-3.112c0-.049-.023-.072-.07-.072h-.6a.178.178,0,0,1-.2-.2v-.94a.178.178,0,0,1,.2-.2h.613a.062.062,0,0,0,.07-.07v-1.339a.178.178,0,0,1,.188-.193h1.207a.178.178,0,0,1,.2.2v1.344c0,.046.023.069.072.069h1.066a.177.177,0,0,1,.2.2v.937a.178.178,0,0,1-.193.191Z" transform="translate(-289.479 -321.529)" fill="#fff"/>
    <path id="Path_32646" data-name="Path 32646" d="M408.524,430.969a1.05,1.05,0,0,1,0-1.434,1.125,1.125,0,0,1,1.475,0,1.076,1.076,0,0,1,0,1.444,1.125,1.125,0,0,1-1.475,0Zm-.088,6.742v-5.687a.178.178,0,0,1,.2-.2H409.9a.178.178,0,0,1,.2.2v5.684a.178.178,0,0,1-.2.2h-1.267a.178.178,0,0,1-.2-.2Z" transform="translate(-303.149 -318.757)" fill="#fff"/>
    <path id="Path_32647" data-name="Path 32647" d="M421.128,444.605a2.616,2.616,0,0,1-.973-1.421,4.212,4.212,0,0,1-.157-1.21,3.989,3.989,0,0,1,.178-1.256,2.541,2.541,0,0,1,.976-1.372,2.891,2.891,0,0,1,1.712-.5,2.768,2.768,0,0,1,1.663.5,2.554,2.554,0,0,1,.965,1.362,4.007,4.007,0,0,1,.178,1.243,4.734,4.734,0,0,1-.152,1.194,2.651,2.651,0,0,1-2.664,1.977A2.832,2.832,0,0,1,421.128,444.605Zm2.368-1.148a1.324,1.324,0,0,0,.389-.651,2.945,2.945,0,0,0,.1-.829,3.158,3.158,0,0,0-.1-.842,1.251,1.251,0,0,0-.389-.628,1.03,1.03,0,0,0-.677-.224,1,1,0,0,0-.662.224,1.254,1.254,0,0,0-.391.628,3.16,3.16,0,0,0-.1.842,3.112,3.112,0,0,0,.1.829,1.316,1.316,0,0,0,.4.651,1.03,1.03,0,0,0,.682.237A.966.966,0,0,0,423.5,443.457Z" transform="translate(-311.878 -325.874)" fill="#fff"/>
    <path id="Path_32648" data-name="Path 32648" d="M450.907,439.425a2.132,2.132,0,0,1,.582,1.575v3.823a.18.18,0,0,1-.2.2h-1.267a.178.178,0,0,1-.2-.2v-3.48a1.127,1.127,0,0,0-.257-.772.885.885,0,0,0-.7-.3.922.922,0,0,0-.711.3,1.1,1.1,0,0,0-.27.772v3.48a.18.18,0,0,1-.2.2h-1.261a.178.178,0,0,1-.2-.2v-5.687a.178.178,0,0,1,.2-.2h1.267a.18.18,0,0,1,.2.2v.332c0,.031,0,.052.023.059s.031,0,.046-.023a1.663,1.663,0,0,1,1.434-.664A2.059,2.059,0,0,1,450.907,439.425Z" transform="translate(-331.345 -325.869)" fill="#fff"/>
    <path id="Path_32649" data-name="Path 32649" d="M485.589,430.944a2.25,2.25,0,0,1,.916.906,2.734,2.734,0,0,1,.327,1.344,2.516,2.516,0,0,1-.34,1.315,2.3,2.3,0,0,1-.945.88,3.016,3.016,0,0,1-1.406.314h-1.668a.064.064,0,0,0-.072.072v2.948a.178.178,0,0,1-.2.2h-1.266a.178.178,0,0,1-.2-.2v-7.9a.177.177,0,0,1,.2-.2h3.28A2.852,2.852,0,0,1,485.589,430.944Zm-.747,3.123a1.084,1.084,0,0,0,.332-.824,1.117,1.117,0,0,0-.332-.842,1.223,1.223,0,0,0-.878-.319h-1.491a.062.062,0,0,0-.072.072v2.155a.064.064,0,0,0,.072.072h1.491A1.231,1.231,0,0,0,484.842,434.067Z" transform="translate(-356.978 -319.769)" fill="#fff"/>
    <path id="Path_32650" data-name="Path 32650" d="M511.664,439.043a.209.209,0,0,1,.106.257l-.224,1.243a.131.131,0,0,1-.067.129.305.305,0,0,1-.17,0,1.467,1.467,0,0,0-.345-.046,2.576,2.576,0,0,0-.273.023,1.155,1.155,0,0,0-.721.314.966.966,0,0,0-.3.741v3.171a.178.178,0,0,1-.2.2H508.2a.178.178,0,0,1-.2-.2v-5.694a.178.178,0,0,1,.2-.2h1.269a.178.178,0,0,1,.2.2v.368c0,.031,0,.051.023.059s.036,0,.059-.023a1.478,1.478,0,0,1,1.287-.687A1.254,1.254,0,0,1,511.664,439.043Z" transform="translate(-377.228 -325.914)" fill="#fff"/>
    <path id="Path_32651" data-name="Path 32651" d="M525.573,444.612a2.6,2.6,0,0,1-.971-1.421,4.216,4.216,0,0,1-.165-1.207,3.989,3.989,0,0,1,.178-1.256,2.54,2.54,0,0,1,.976-1.372,2.892,2.892,0,0,1,1.712-.5,2.772,2.772,0,0,1,1.655.5,2.574,2.574,0,0,1,.965,1.362,4.009,4.009,0,0,1,.178,1.243,4.636,4.636,0,0,1-.155,1.194,2.715,2.715,0,0,1-.976,1.452,2.749,2.749,0,0,1-1.689.515A2.831,2.831,0,0,1,525.573,444.612Zm2.368-1.148a1.325,1.325,0,0,0,.391-.651,3.043,3.043,0,0,0,.1-.829,3.27,3.27,0,0,0-.1-.842,1.253,1.253,0,0,0-.391-.628,1.112,1.112,0,0,0-1.339,0,1.251,1.251,0,0,0-.389.628,3.158,3.158,0,0,0-.087.839,3.11,3.11,0,0,0,.1.829,1.288,1.288,0,0,0,.4.651,1.03,1.03,0,0,0,.68.237A.963.963,0,0,0,527.941,443.464Z" transform="translate(-389.433 -325.882)" fill="#fff"/>
    <path id="Path_32652" data-name="Path 32652" d="M553.807,430.675h1.267a.178.178,0,0,1,.2.2v7.885a.178.178,0,0,1-.2.2h-1.267a.178.178,0,0,1-.2-.2v-.319c0-.031-.01-.049-.031-.054a.057.057,0,0,0-.054.031,1.591,1.591,0,0,1-1.349.638,2.269,2.269,0,0,1-1.426-.479,2.45,2.45,0,0,1-.86-1.261,4.309,4.309,0,0,1-.2-1.421,4.169,4.169,0,0,1,.224-1.467,2.469,2.469,0,0,1,.86-1.207,2.261,2.261,0,0,1,1.4-.451,1.64,1.64,0,0,1,1.349.579c.015.024.034.032.054.023s.031-.026.031-.059v-2.438a.178.178,0,0,1,.2-.2Zm-.214,5.244a2.46,2.46,0,0,0-.257-1.218.9.9,0,0,0-.793-.463.919.919,0,0,0-.829.451,2.417,2.417,0,0,0-.283,1.243,2.444,2.444,0,0,0,.257,1.161.929.929,0,0,0,.865.515.886.886,0,0,0,.806-.515A2.5,2.5,0,0,0,553.593,435.919Z" transform="translate(-408.18 -319.806)" fill="#fff"/>
    <path id="Path_32653" data-name="Path 32653" d="M579.883,439.216h1.266a.178.178,0,0,1,.2.2V445.1a.178.178,0,0,1-.2.2h-1.266a.178.178,0,0,1-.2-.2v-.319q0-.046-.031-.054a.054.054,0,0,0-.052.031,1.7,1.7,0,0,1-1.457.628,2.078,2.078,0,0,1-1.48-.546,2,2,0,0,1-.582-1.527v-3.9a.178.178,0,0,1,.2-.2h1.254a.178.178,0,0,1,.2.2V442.9a1.143,1.143,0,0,0,.257.772.886.886,0,0,0,.705.3.94.94,0,0,0,.664-.245,1.055,1.055,0,0,0,.319-.633v-3.673a.178.178,0,0,1,.2-.2Z" transform="translate(-427.779 -326.147)" fill="#fff"/>
    <path id="Path_32654" data-name="Path 32654" d="M601.937,444.66a2.574,2.574,0,0,1-.989-1.3,4.351,4.351,0,0,1-.2-1.4,4.206,4.206,0,0,1,.2-1.375,2.451,2.451,0,0,1,.983-1.267,2.909,2.909,0,0,1,1.645-.463,2.965,2.965,0,0,1,1.666.474,2.278,2.278,0,0,1,.953,1.2,1.336,1.336,0,0,1,.1.368v.023c0,.1-.059.165-.178.188l-1.243.191-.059.013a.154.154,0,0,1-.167-.144l-.034-.165a.9.9,0,0,0-.368-.515,1.14,1.14,0,0,0-.674-.2,1.05,1.05,0,0,0-.641.19.993.993,0,0,0-.365.515,2.882,2.882,0,0,0-.131.97,3.215,3.215,0,0,0,.118.97,1.072,1.072,0,0,0,.373.559,1.045,1.045,0,0,0,.646.2,1.115,1.115,0,0,0,.646-.2,1.01,1.01,0,0,0,.384-.528v-.059a.257.257,0,0,1,.082-.113.188.188,0,0,1,.154-.052l1.243.188a.224.224,0,0,1,.136.085.2.2,0,0,1,.028.142,1.132,1.132,0,0,1-.059.273,2.207,2.207,0,0,1-.965,1.243,3.045,3.045,0,0,1-1.653.448,2.831,2.831,0,0,1-1.627-.463Z" transform="translate(-446.098 -325.883)" fill="#fff"/>
    <path id="Path_32655" data-name="Path 32655" d="M628.38,435.931h-1.066a.062.062,0,0,0-.072.072v2.451a.868.868,0,0,0,.16.574.657.657,0,0,0,.515.183h.332a.178.178,0,0,1,.2.2v1.03a.2.2,0,0,1-.2.214c-.3.015-.515.023-.651.023a2.615,2.615,0,0,1-1.467-.332,1.409,1.409,0,0,1-.5-1.23V436a.064.064,0,0,0-.072-.072h-.6a.178.178,0,0,1-.2-.2v-.94a.178.178,0,0,1,.2-.2h.6a.064.064,0,0,0,.072-.069v-1.339a.178.178,0,0,1,.214-.193h1.207a.178.178,0,0,1,.2.2v1.344c0,.046.023.07.072.07h1.066a.178.178,0,0,1,.2.2v.937a.177.177,0,0,1-.214.19Z" transform="translate(-463.925 -321.523)" fill="#fff"/>
    <path id="Path_32656" data-name="Path 32656" d="M644.018,444.927a2.041,2.041,0,0,1-.911-.626,1.433,1.433,0,0,1-.322-.914v-.059a.178.178,0,0,1,.2-.2h1.194c.134,0,.2.023.2.072v.082a.515.515,0,0,0,.286.443,1.287,1.287,0,0,0,.721.185,1.213,1.213,0,0,0,.651-.154.458.458,0,0,0,.257-.4.344.344,0,0,0-.214-.322,3.836,3.836,0,0,0-.7-.224,7.119,7.119,0,0,1-.865-.273,3.759,3.759,0,0,1-1.22-.638,1.339,1.339,0,0,1-.45-1.089,1.65,1.65,0,0,1,.687-1.393,2.932,2.932,0,0,1,1.8-.515,3.406,3.406,0,0,1,1.333.242,2.021,2.021,0,0,1,.888.682,1.666,1.666,0,0,1,.314.994.121.121,0,0,1-.054.1.231.231,0,0,1-.147.041h-1.161q-.2,0-.2-.07v-.072a.514.514,0,0,0-.257-.438,1.217,1.217,0,0,0-.7-.178,1.312,1.312,0,0,0-.646.142.435.435,0,0,0-.258.391.381.381,0,0,0,.245.355,4.055,4.055,0,0,0,.8.257,5.48,5.48,0,0,1,.664.178,3.862,3.862,0,0,1,1.339.638,1.377,1.377,0,0,1,.484,1.138,1.576,1.576,0,0,1-.7,1.367,3.2,3.2,0,0,1-1.874.484A3.839,3.839,0,0,1,644.018,444.927Z" transform="translate(-477.313 -325.913)" fill="#fff"/>
  </g>
</svg>
