<svg xmlns="http://www.w3.org/2000/svg" xmlns:xlink="http://www.w3.org/1999/xlink" width="200" height="200" viewBox="0 0 1080 1080">
  <defs>
    <clipPath id="clip-path">
      <rect id="Rectangle_8620" data-name="Rectangle 8620" width="181.916" height="25.615" fill="#e13019"/>
    </clipPath>
    <clipPath id="clip-integrations_6-text-arrow">
      <rect width="1080" height="1080"/>
    </clipPath>
  </defs>
  <g id="integrations_6-text-arrow" clip-path="url(#clip-integrations_6-text-arrow)">
    <g id="Group_22540" data-name="Group 22540">
      <g id="Group_22184" data-name="Group 22184" transform="translate(-30.834 393.868)">
        <g id="Group_22147" data-name="Group 22147" transform="translate(0 210.861) rotate(-7)">
          <path id="Path_48029" data-name="Path 48029" d="M52.98,26.08c-2.135.665-4.305,1.12-6.475,1.575.49-1.19,1.435-3.325,2.1-4.725.7-1.4,1.68-3.325,2.31-4.515.315,1.05.595,2.17.945,3.325C52.42,23.665,52.805,25.31,52.98,26.08Zm9.17-1.015a1.294,1.294,0,0,0-1.365-1.33,2.862,2.862,0,0,0-.945.175l-4.165,1.3c-.63-2.59-1.435-6.02-1.855-7.49a28.345,28.345,0,0,1-.77-4.025c-.14-.77-.385-1.715-1.365-1.715-1.015,0-1.4.665-1.715,1.365L43.25,28.25c-1.225.28-2.24.7-2.24,1.96a1.474,1.474,0,0,0,.875,1.4A15.875,15.875,0,0,0,40.8,35.635a1.231,1.231,0,0,0,1.365,1.19,1.517,1.517,0,0,0,.665-.14c.84-.385.84-1.365.945-2.135A19.93,19.93,0,0,1,45,31.435c1.225-.455,2.345-.91,3.465-1.3,1.82-.595,4.1-1.295,5.11-1.575l2.2,9.38a1.92,1.92,0,0,0,1.855,1.715,1.618,1.618,0,0,0,1.54-1.435,2.448,2.448,0,0,0-.84-1.54l-2.1-9,3.71-1.085a3.49,3.49,0,0,0,.56.07A1.589,1.589,0,0,0,62.15,25.065Zm9.1,6.44c-1.12.665-5.075,3.4-7.21,3.4a1.258,1.258,0,0,1-1.33-1.365c0-2.275,3.185-6.615,5.7-6.615C70.41,26.92,71.04,30.175,71.25,31.5Zm5.705-16.8a2.275,2.275,0,0,0-2.1-2.2c-.665,0-1.225.455-1.225,1.61,0,.56.175,1.015.175,1.47,0,1.19-.735,8.155-1.12,11.305a5.194,5.194,0,0,0-4.2-2.66c-3.185,0-8.645,4.8-8.645,9.17,0,2.345,1.4,4.13,3.885,4.13,2.87,0,6.545-2.03,8.015-2.94.175,1.085.77,2,1.89,2,.91,0,1.085-1.96,1.085-3.64,1.225-.42,2.065-1.225,2.065-1.995,0-.525-.42-1.05-1.5-1.365.28-4.97,1.33-13.51,1.54-14.07A2.17,2.17,0,0,0,76.955,14.7Zm11.2,16.8c-1.12.665-5.075,3.4-7.21,3.4a1.258,1.258,0,0,1-1.33-1.365c0-2.275,3.185-6.615,5.705-6.615C87.315,26.92,87.945,30.175,88.155,31.5ZM93.86,14.7a2.275,2.275,0,0,0-2.1-2.2c-.665,0-1.225.455-1.225,1.61,0,.56.175,1.015.175,1.47,0,1.19-.735,8.155-1.12,11.305a5.194,5.194,0,0,0-4.2-2.66c-3.185,0-8.645,4.8-8.645,9.17,0,2.345,1.4,4.13,3.885,4.13,2.87,0,6.545-2.03,8.015-2.94.175,1.085.77,2,1.89,2,.91,0,1.085-1.96,1.085-3.64,1.225-.42,2.065-1.225,2.065-1.995,0-.525-.42-1.05-1.5-1.365.28-4.97,1.33-13.51,1.54-14.07A2.17,2.17,0,0,0,93.86,14.7Zm29.05,7.56c0-.63-.7-1.26-1.96-1.4a10.839,10.839,0,0,0-1.47-.07,21.353,21.353,0,0,0-3.535.315,37.952,37.952,0,0,0,.7-5.7c0-1.715-.35-3.15-1.575-3.15-1.12,0-1.295.875-1.295,1.785,0,.455.035.91.035,1.26a61.613,61.613,0,0,1-.77,6.335,24.552,24.552,0,0,0-5.81,2.31,1.464,1.464,0,0,0-.63,1.19,1.733,1.733,0,0,0,1.68,1.54,1.353,1.353,0,0,0,.735-.28,9.109,9.109,0,0,1,3.57-1.82c-.1,1.015-.245,1.82-.455,3.78a56.779,56.779,0,0,0-.385,7.035,2.149,2.149,0,0,0,1.995,2.38A1.213,1.213,0,0,0,115,36.44a2.378,2.378,0,0,0-.105-.665,11.741,11.741,0,0,1-.14-2.17,85.868,85.868,0,0,1,.77-9.66,21.359,21.359,0,0,1,4.795-.665c.28,0,.77.1,1.225.1C122.42,23.385,122.91,22.86,122.91,22.265Zm5.04,6.195a7.138,7.138,0,0,1-.91,3.22c-.6,1.19-2.485,2.695-3.71,2.695-1.33,0-1.75-1.96-1.75-2.835,0-2,2.45-6.16,4.62-6.16C127.53,25.38,127.95,27.48,127.95,28.46Zm2.66.28c0-3.15-2.03-6.265-5.11-6.265h-.175c-2.065.14-4.06,1.96-5.95,6.195a7.317,7.317,0,0,0-.6,2.905c0,2.485,1.47,5.565,4.1,5.565C125.99,37.14,130.61,33.71,130.61,28.74Zm33.145-15.085a1.783,1.783,0,0,0-1.61-1.5,2.109,2.109,0,0,0-1.575,1.085c-2.24,2.975-6.055,6.09-9.03,8.4A48.081,48.081,0,0,0,149.2,16.07a3.975,3.975,0,0,0-3.115-1.855,1.214,1.214,0,0,0-1.365,1.295c0,.945.525,1.05,1.12,1.4,1.54.875,2.8,5.425,3.29,7.28.28,1.05.175,1.19,1.155,1.785.14,2.94.14,5.915.49,8.855.035.385.175,1.085.175,1.575,0,.28-.07.49-.07.665a1.877,1.877,0,0,0,1.82,1.925,1.582,1.582,0,0,0,1.61-1.47,4.377,4.377,0,0,0-.315-1.3,12.25,12.25,0,0,1-.525-4.235c0-2.03.14-4.305.14-6.23a17.386,17.386,0,0,0-.07-1.96c5.635-4.935,8.365-7.7,8.855-8.645C162.95,14.775,163.755,14.39,163.755,13.655Zm2.625,14.8a7.138,7.138,0,0,1-.91,3.22c-.6,1.19-2.485,2.695-3.71,2.695-1.33,0-1.75-1.96-1.75-2.835,0-2,2.45-6.16,4.62-6.16C165.96,25.38,166.38,27.48,166.38,28.46Zm2.66.28c0-3.15-2.03-6.265-5.11-6.265h-.175c-2.065.14-4.06,1.96-5.95,6.195a7.317,7.317,0,0,0-.6,2.905c0,2.485,1.47,5.565,4.1,5.565C164.42,37.14,169.04,33.71,169.04,28.74Zm11.34-3.85a1.825,1.825,0,0,0-1.75-1.855c-.7,0-1.365.525-1.4,1.715-.035.84-.35,7.28-1.785,8.785a.668.668,0,0,1-.42.245c-1.12,0-1.47-5.215-1.47-8.61,0-.56.035-1.085.035-1.5a1.726,1.726,0,0,0-1.68-1.785c-.665,0-1.295.49-1.295,1.575v.42c0,3.255.1,13.02,4.48,13.02a3.484,3.484,0,0,0,1.26-.245C178.63,35.81,180.38,26.36,180.38,24.89ZM196.725,23.6c0-1.4-1.365-1.715-2.45-1.715a4.394,4.394,0,0,0-2.24.63c-1.855,1.05-4.9,4.55-6.09,6.055,0-.77-.035-1.4-.035-2.555,0-1.645-.105-3.99-1.96-3.99-.8,0-1.61.525-1.61,1.225a1.258,1.258,0,0,0,.07.385,15.462,15.462,0,0,1,.77,5.18,34.952,34.952,0,0,1-.6,5.95,7.837,7.837,0,0,0-.1,1.19,1.644,1.644,0,0,0,1.785,1.68,1.372,1.372,0,0,0,1.155-.56c.6-.735.14-3.255,1.26-4.935,2.31-3.57,4.725-6.3,6.685-7.42a1.329,1.329,0,0,1,.63-.21c.455,0,.805.28,1.295.28A1.362,1.362,0,0,0,196.725,23.6Zm38.22,5.425a1.646,1.646,0,0,0-1.575-1.61,5.776,5.776,0,0,0-2,.63c-3.36,1.4-10.745,6.02-15.715,6.02-2.415,0-4.375-1.4-4.375-3.85,0-5,6.9-13.02,12.845-14.28,1.015-.21,2.205-.525,2.205-1.61a1.483,1.483,0,0,0-1.61-1.645,5.762,5.762,0,0,0-2,.455c-5.39,2.17-14.245,10.465-14.245,17.08,0,3.92,2.73,6.405,6.65,6.405,6.475,0,12.46-4.025,17.395-5.88C232.53,30.735,234.945,30.35,234.945,29.02Zm9.31-4.13a1.825,1.825,0,0,0-1.75-1.855c-.7,0-1.365.525-1.4,1.715-.035.84-.35,7.28-1.785,8.785a.668.668,0,0,1-.42.245c-1.12,0-1.47-5.215-1.47-8.61,0-.56.035-1.085.035-1.5a1.726,1.726,0,0,0-1.68-1.785c-.665,0-1.295.49-1.295,1.575v.42c0,3.255.1,13.02,4.48,13.02a3.484,3.484,0,0,0,1.26-.245C242.505,35.81,244.255,26.36,244.255,24.89ZM260.6,23.6c0-1.4-1.365-1.715-2.45-1.715a4.394,4.394,0,0,0-2.24.63c-1.855,1.05-4.9,4.55-6.09,6.055,0-.77-.035-1.4-.035-2.555,0-1.645-.105-3.99-1.96-3.99-.8,0-1.61.525-1.61,1.225a1.258,1.258,0,0,0,.07.385,15.462,15.462,0,0,1,.77,5.18,34.952,34.952,0,0,1-.6,5.95,7.837,7.837,0,0,0-.1,1.19,1.644,1.644,0,0,0,1.785,1.68,1.372,1.372,0,0,0,1.155-.56c.6-.735.14-3.255,1.26-4.935,2.31-3.57,4.725-6.3,6.685-7.42a1.329,1.329,0,0,1,.63-.21c.455,0,.8.28,1.295.28A1.362,1.362,0,0,0,260.6,23.6Zm14.42,0c0-1.4-1.365-1.715-2.45-1.715a4.394,4.394,0,0,0-2.24.63c-1.855,1.05-4.9,4.55-6.09,6.055,0-.77-.035-1.4-.035-2.555,0-1.645-.1-3.99-1.96-3.99-.8,0-1.61.525-1.61,1.225a1.258,1.258,0,0,0,.07.385,15.462,15.462,0,0,1,.77,5.18,34.952,34.952,0,0,1-.6,5.95,7.836,7.836,0,0,0-.105,1.19,1.644,1.644,0,0,0,1.785,1.68,1.372,1.372,0,0,0,1.155-.56c.6-.735.14-3.255,1.26-4.935,2.31-3.57,4.725-6.3,6.685-7.42a1.329,1.329,0,0,1,.63-.21c.455,0,.8.28,1.295.28A1.362,1.362,0,0,0,275.02,23.6Zm7.105,1.54a9.114,9.114,0,0,1-2.275,1.435,17.08,17.08,0,0,1-3.185.84,9.307,9.307,0,0,1,2.485-1.715,7.028,7.028,0,0,1,2.9-.735c.14,0,.14.035.14.07S282.16,25.1,282.125,25.135Zm7.07,5.075a1.614,1.614,0,0,0-1.47-1.5c-.735,0-1.19.805-1.54,1.435-.42.49-5.215,4.34-7.56,4.34-1.925,0-3.115-2.38-3.115-4.06v-.455a17.244,17.244,0,0,0,5.74-1.365c2.835-1.19,4.97-3.99,4.97-5.04,0-.14-.14-.245-.35-.385a7.081,7.081,0,0,0-3.5-.805c-4.585,0-9.8,3.4-9.8,8.05,0,3.115,2.45,6.755,5.6,6.755,2.9,0,6.475-2.59,8.47-4.095a16.454,16.454,0,0,1,1.54-1.19A2.212,2.212,0,0,0,289.2,30.21Zm11.865,7.245a4.192,4.192,0,0,0-.63-1.82,49.308,49.308,0,0,1-.07-4.935c0-5.32-.525-8.96-2.38-8.96-1.575,0-3.535,3.71-4.9,6.02,0-1.435.35-3.045.35-4.13a1.609,1.609,0,0,0-.245-1.015,2.36,2.36,0,0,0-1.575-.7c-.56,0-1.05.28-1.19,1.19-.525,3.78-.28,7-.7,11.165-.035.28-.035.945-.035,1.26,0,1.085.21,2.1,1.295,2.1a2.6,2.6,0,0,0,1.085-.28c.875-.35,2.66-8.645,5.215-11.9a6.388,6.388,0,0,1,.14,1.995c0,1.085-.035,2.24-.035,3.36.035,2.2.35,3.885.35,5.355a1.982,1.982,0,0,0-.1.63,2.1,2.1,0,0,0,2.065,1.96A1.268,1.268,0,0,0,301.06,37.455Zm16.1-15.19c0-.63-.7-1.26-1.96-1.4a10.839,10.839,0,0,0-1.47-.07,21.353,21.353,0,0,0-3.535.315,37.955,37.955,0,0,0,.7-5.7c0-1.715-.35-3.15-1.575-3.15-1.12,0-1.3.875-1.3,1.785,0,.455.035.91.035,1.26a61.618,61.618,0,0,1-.77,6.335,24.551,24.551,0,0,0-5.81,2.31,1.464,1.464,0,0,0-.63,1.19,1.733,1.733,0,0,0,1.68,1.54,1.353,1.353,0,0,0,.735-.28,9.108,9.108,0,0,1,3.57-1.82c-.1,1.015-.245,1.82-.455,3.78A56.777,56.777,0,0,0,306,35.39a2.149,2.149,0,0,0,1.995,2.38,1.213,1.213,0,0,0,1.26-1.33,2.378,2.378,0,0,0-.105-.665,11.743,11.743,0,0,1-.14-2.17,85.868,85.868,0,0,1,.77-9.66,21.359,21.359,0,0,1,4.8-.665c.28,0,.77.1,1.225.1C316.67,23.385,317.16,22.86,317.16,22.265Z" transform="translate(0 43.283) rotate(-7)" fill="#48484a"/>
          <path id="Path_48030" data-name="Path 48030" d="M94.844,14.635a1.983,1.983,0,0,0-1.435-1.855,3.516,3.516,0,0,0-.875-.07,134.668,134.668,0,0,0-14.35,1.12,2,2,0,0,0-1.19-.385,1.406,1.406,0,0,0-1.47,1.05,22.056,22.056,0,0,1-6.23,1.015H68.8a1.752,1.752,0,0,0-1.89,1.61,1.708,1.708,0,0,0,1.54,1.68,64.422,64.422,0,0,0,6.86-1.19c.035.7.035,1.33.035,1.925,0,.91-.035,1.925-.14,3.15-.07.7-.14,3.745-.14,6.965,0,3.745.07,7.595.385,7.805a2.149,2.149,0,0,0,1.085.385c1.12,0,1.82-1.33,1.82-2.31a1.2,1.2,0,0,0-.14-.63,9.161,9.161,0,0,1-.245-3.01V28.46c0-3.675.525-10.115.665-11.62,4.1-1.435,8.4-1.4,12.635-1.61a.675.675,0,0,0-.105.35.866.866,0,0,0,.84.735C92.814,16.315,94.844,15.16,94.844,14.635Zm-1.82,10.5a9.115,9.115,0,0,1-2.275,1.435,17.08,17.08,0,0,1-3.185.84,9.307,9.307,0,0,1,2.485-1.715,7.027,7.027,0,0,1,2.9-.735c.14,0,.14.035.14.07S93.059,25.1,93.024,25.135Zm7.07,5.075a1.614,1.614,0,0,0-1.47-1.5c-.735,0-1.19.805-1.54,1.435-.42.49-5.215,4.34-7.56,4.34-1.925,0-3.115-2.38-3.115-4.06v-.455a17.244,17.244,0,0,0,5.74-1.365c2.835-1.19,4.97-3.99,4.97-5.04,0-.14-.14-.245-.35-.385a7.081,7.081,0,0,0-3.5-.805c-4.585,0-9.8,3.4-9.8,8.05,0,3.115,2.45,6.755,5.6,6.755,2.9,0,6.475-2.59,8.47-4.095a16.454,16.454,0,0,1,1.54-1.19A2.212,2.212,0,0,0,100.094,30.21Zm18.41.315a1.271,1.271,0,0,0-1.19-1.3,1.191,1.191,0,0,0-.49.07c-.28.105-3.92,2.345-5.915,3.29-2.975,1.435-4.97,1.995-6.3,1.995-1.47,0-2.03-.735-2.03-1.785,0-1.89,3.045-6.79,4.83-6.79.245,0,.595.105.945.105.945,0,2.065-1.435,2.065-2.24,0-.63-.49-1.155-1.645-1.155-3.85,0-9.1,6.51-9.1,10.4,0,2.73,2.45,3.955,4.69,3.955,5.425,0,13.09-5.495,14.035-6.265C118.434,30.77,118.5,30.735,118.5,30.525Zm12.215.91c0-2.345-.14-8.715-3.43-8.715-2.59,0-5.775,3.22-7.35,5,.14-2.415.385-4.8.6-7.175.175-2.03.7-4.375.7-5.425a1.525,1.525,0,0,0-1.61-1.75c-.735,0-1.3.77-1.47,2.555-.14,1.4-.21,3.535-.525,6.335-.42,4.06-.49,7.91-.665,11.97a2.963,2.963,0,0,1-.35,1.61,2.438,2.438,0,0,0-.21,1.05,1.557,1.557,0,0,0,1.54,1.645c.875,0,1.785-.7,1.785-2.205,0-.14-.035-.28-.035-.98A9.813,9.813,0,0,1,120.5,31.4c.875-1.89,4.445-5.775,6.23-5.775a.969.969,0,0,1,.455.1c.56.315.735,2.2.735,4.13,0,2.38-.245,4.025-.245,5.11s.28,2.17,1.68,2.17c.875,0,1.295-.42,1.33-1.155,0-.455-.07-.91-.07-1.715C130.614,33.4,130.719,32.415,130.719,31.435Zm34.51-1.82c0-6.755-16.73-5.88-16.73-8.89,0-2.415,7.07-5.425,10.36-5.425.455,0,.735.385.98.6a1.609,1.609,0,0,0,1.12.455,1.494,1.494,0,0,0,1.505-1.33.675.675,0,0,0-.1-.35c-1.05-1.75-1.54-2.345-3.955-2.345-3.15,0-13.055,3.325-13.055,8.925,0,5.635,16.94,3.64,16.94,8.785,0,1.89-6.37,5.635-8.995,6.02a2.186,2.186,0,0,0-1.925,1.96c0,1.225,1.155,1.61,2.135,1.61a2,2,0,0,0,2.1-1.33C155.779,37.63,165.229,34.865,165.229,29.615Zm16.17-7.35c0-.63-.7-1.26-1.96-1.4a10.839,10.839,0,0,0-1.47-.07,21.353,21.353,0,0,0-3.535.315,37.953,37.953,0,0,0,.7-5.7c0-1.715-.35-3.15-1.575-3.15-1.12,0-1.3.875-1.3,1.785,0,.455.035.91.035,1.26a61.613,61.613,0,0,1-.77,6.335,24.552,24.552,0,0,0-5.81,2.31,1.464,1.464,0,0,0-.63,1.19,1.733,1.733,0,0,0,1.68,1.54,1.353,1.353,0,0,0,.735-.28,9.109,9.109,0,0,1,3.57-1.82c-.105,1.015-.245,1.82-.455,3.78a56.777,56.777,0,0,0-.385,7.035,2.149,2.149,0,0,0,2,2.38,1.213,1.213,0,0,0,1.26-1.33,2.379,2.379,0,0,0-.1-.665,11.74,11.74,0,0,1-.14-2.17,85.868,85.868,0,0,1,.77-9.66,21.359,21.359,0,0,1,4.8-.665c.28,0,.77.1,1.225.1C180.909,23.385,181.4,22.86,181.4,22.265Zm3.85,11.305a7.4,7.4,0,0,1-3.115,1.505c-.385,0-.63-.175-.63-.665,0-1.155,1.19-2.835,2.345-2.905C184.374,31.5,185,32.9,185.249,33.57Zm4.34-4.375c0-3.29-1.54-7.28-5.18-7.28-2.065,0-4.445,1.12-4.445,2.695A1.392,1.392,0,0,0,181.4,25.9a.72.72,0,0,0,.8-.595,2.584,2.584,0,0,1,1.925-.805c2.1,0,2.7,3.36,2.7,4.76a10.125,10.125,0,0,1-.14,1.575,3.232,3.232,0,0,0-2.8-2.065c-2.38,0-4.9,3.08-4.9,5.7a2.934,2.934,0,0,0,2.975,3.08,8.959,8.959,0,0,0,4.06-1.33,1.473,1.473,0,0,0,1.295.84.881.881,0,0,0,.7-.315A20.653,20.653,0,0,0,189.589,29.195Zm19.95,1.33a1.271,1.271,0,0,0-1.19-1.3,1.191,1.191,0,0,0-.49.07c-.28.105-3.92,2.345-5.915,3.29-2.975,1.435-4.97,1.995-6.3,1.995-1.47,0-2.03-.735-2.03-1.785,0-1.89,3.045-6.79,4.83-6.79.245,0,.6.105.945.105.945,0,2.065-1.435,2.065-2.24,0-.63-.49-1.155-1.645-1.155-3.85,0-9.1,6.51-9.1,10.4,0,2.73,2.45,3.955,4.69,3.955,5.425,0,13.09-5.495,14.035-6.265C209.469,30.77,209.539,30.735,209.539,30.525Zm19.355,3.605a1.67,1.67,0,0,0-1.645-1.505,1.394,1.394,0,0,0-1.225.735,3.819,3.819,0,0,1-2.9.98,10.269,10.269,0,0,1-4.165-1.015A26.947,26.947,0,0,1,211.5,28.46a58.781,58.781,0,0,1,8.4-2.73,33.246,33.246,0,0,0,3.99-.98,1.529,1.529,0,0,0,.665-1.26c0-.84-.56-1.12-1.225-1.12-1.645,0-9.8,2.45-12.18,3.185a38.861,38.861,0,0,1,1.82-7.91c.42-1.015.42-1.19.42-1.365a1.683,1.683,0,0,0-1.61-1.75,1.78,1.78,0,0,0-.7.14c-1.365.56-3.535,12.46-3.535,19.6,0,3.08.385,5.32,1.435,5.32,1.365,0,1.785-.6,1.785-1.365a7.25,7.25,0,0,0-.245-1.435,9.836,9.836,0,0,1-.21-2.275,24.1,24.1,0,0,1,.245-3.255c3.115,2.59,7.8,5.7,12.32,5.7a8.309,8.309,0,0,0,2.9-.49c.63-.21,1.05-.455,1.365-.56C228.439,35.425,228.894,34.76,228.894,34.13Z" transform="translate(20.34 84.912) rotate(-7)" fill="#48484a"/>
          <g id="Group_21949" data-name="Group 21949" transform="translate(88.179 107.081)">
            <g id="Group_21948" data-name="Group 21948" transform="translate(0 0)" clip-path="url(#clip-path)">
              <path id="Path_31252" data-name="Path 31252" d="M.343,25.177c11.539,1.107,23.111-.077,34.646-1.424,15.963-1.863,31.924-4.037,47.883-6.352,29.522-4.28,59.049-9.378,88.587-11.786A54.678,54.678,0,0,0,181.708,3.53c.382-.107.18-2.329-.129-2.4-10.979-2.657-22.045.037-33.026,1.42C132.877,4.521,117.2,6.809,101.532,9.082c-30.23,4.387-60.46,8.771-90.7,12.629C7.3,22.163,3.752,22.641.21,22.956c-.379.034-.188,2.19.133,2.22" transform="translate(0 -0.001)" fill="#e13019"/>
            </g>
          </g>
        </g>
        <g id="Group_22148" data-name="Group 22148" transform="translate(199.796 202.389) rotate(173)">
          <path id="Path_31253" data-name="Path 31253" d="M0,0,25,27.7,48.157,0" transform="matrix(0.588, 0.809, -0.809, 0.588, 22.41, 148.668)" fill="none" stroke="#e13019" stroke-linecap="round" stroke-linejoin="round" stroke-width="6"/>
          <path id="Path_31254" data-name="Path 31254" d="M0,182.389c69.225-41.745,78.789-71.757,70.637-100.634S27.245,66.322,25.619,85.039,46.17,112.525,61.7,111.676,125.05,70.729,91.336,0" transform="translate(16.983 0)" fill="none" stroke="#e13019" stroke-linecap="round" stroke-width="6"/>
        </g>
      </g>
    </g>
  </g>
</svg>
