<svg width="570" height="493" viewBox="0 0 570 493" fill="none" xmlns="http://www.w3.org/2000/svg">
<g filter="url(#filter0_d_38_2467)">
<path d="M394 92C394 89.2386 396.239 87 399 87H546C548.761 87 551 89.2386 551 92V112C551 114.761 548.761 117 546 117H399C396.239 117 394 114.761 394 112V92Z" fill="#0065F2"/>
</g>
<path d="M425.199 108V97.0909H429.194C429.968 97.0909 430.609 97.2188 431.117 97.4745C431.625 97.7266 432.004 98.0693 432.257 98.5025C432.509 98.9322 432.635 99.4169 432.635 99.9567C432.635 100.411 432.551 100.795 432.384 101.107C432.218 101.416 431.994 101.665 431.713 101.853C431.436 102.038 431.131 102.173 430.797 102.258V102.364C431.159 102.382 431.513 102.499 431.857 102.716C432.205 102.929 432.493 103.233 432.72 103.627C432.947 104.021 433.061 104.5 433.061 105.065C433.061 105.623 432.93 106.123 432.667 106.567C432.408 107.007 432.006 107.357 431.463 107.617C430.92 107.872 430.225 108 429.38 108H425.199ZM426.845 106.588H429.22C430.009 106.588 430.573 106.436 430.914 106.13C431.255 105.825 431.426 105.443 431.426 104.985C431.426 104.641 431.339 104.325 431.165 104.037C430.991 103.749 430.742 103.52 430.419 103.35C430.099 103.179 429.719 103.094 429.279 103.094H426.845V106.588ZM426.845 101.81H429.05C429.419 101.81 429.751 101.739 430.046 101.597C430.344 101.455 430.58 101.256 430.754 101.001C430.932 100.742 431.021 100.436 431.021 100.085C431.021 99.6336 430.863 99.2554 430.547 98.95C430.231 98.6446 429.746 98.4919 429.093 98.4919H426.845V101.81Z" fill="white"/>
<path d="M434.885 108V99.8182H436.425V101.118H436.51C436.659 100.678 436.922 100.331 437.298 100.079C437.678 99.8235 438.108 99.6957 438.587 99.6957C438.687 99.6957 438.804 99.6993 438.939 99.7064C439.077 99.7135 439.186 99.7223 439.264 99.733V101.256C439.2 101.239 439.086 101.219 438.923 101.198C438.76 101.173 438.596 101.161 438.433 101.161C438.057 101.161 437.721 101.24 437.426 101.4C437.135 101.556 436.904 101.775 436.734 102.055C436.563 102.332 436.478 102.648 436.478 103.004V108H434.885Z" fill="white"/>
<path d="M443.796 108.165C443.029 108.165 442.359 107.989 441.787 107.638C441.216 107.286 440.772 106.794 440.456 106.162C440.14 105.53 439.982 104.792 439.982 103.946C439.982 103.098 440.14 102.356 440.456 101.72C440.772 101.084 441.216 100.591 441.787 100.239C442.359 99.8875 443.029 99.7117 443.796 99.7117C444.563 99.7117 445.232 99.8875 445.804 100.239C446.375 100.591 446.819 101.084 447.135 101.72C447.451 102.356 447.61 103.098 447.61 103.946C447.61 104.792 447.451 105.53 447.135 106.162C446.819 106.794 446.375 107.286 445.804 107.638C445.232 107.989 444.563 108.165 443.796 108.165ZM443.801 106.828C444.298 106.828 444.71 106.697 445.037 106.434C445.363 106.171 445.605 105.821 445.761 105.385C445.921 104.948 446.001 104.467 446.001 103.941C446.001 103.419 445.921 102.94 445.761 102.503C445.605 102.063 445.363 101.709 445.037 101.443C444.71 101.177 444.298 101.043 443.801 101.043C443.3 101.043 442.885 101.177 442.554 101.443C442.228 101.709 441.985 102.063 441.825 102.503C441.668 102.94 441.59 103.419 441.59 103.941C441.59 104.467 441.668 104.948 441.825 105.385C441.985 105.821 442.228 106.171 442.554 106.434C442.885 106.697 443.3 106.828 443.801 106.828Z" fill="white"/>
<path d="M450.912 108L448.504 99.8182H450.15L451.754 105.827H451.834L453.442 99.8182H455.088L456.686 105.8H456.766L458.359 99.8182H460.005L457.602 108H455.978L454.316 102.093H454.193L452.531 108H450.912Z" fill="white"/>
<path d="M467.647 101.816L466.204 102.071C466.143 101.887 466.047 101.711 465.916 101.544C465.788 101.377 465.614 101.24 465.394 101.134C465.174 101.027 464.899 100.974 464.568 100.974C464.117 100.974 463.741 101.075 463.439 101.278C463.137 101.477 462.986 101.734 462.986 102.05C462.986 102.324 463.088 102.544 463.29 102.711C463.492 102.878 463.819 103.014 464.27 103.121L465.57 103.419C466.323 103.593 466.884 103.861 467.253 104.223C467.622 104.586 467.807 105.056 467.807 105.635C467.807 106.125 467.665 106.562 467.381 106.945C467.1 107.325 466.708 107.624 466.204 107.84C465.703 108.057 465.122 108.165 464.462 108.165C463.546 108.165 462.798 107.97 462.219 107.579C461.64 107.185 461.285 106.626 461.154 105.901L462.693 105.667C462.789 106.068 462.986 106.372 463.285 106.578C463.583 106.78 463.972 106.881 464.451 106.881C464.973 106.881 465.39 106.773 465.703 106.556C466.015 106.336 466.172 106.068 466.172 105.752C466.172 105.496 466.076 105.282 465.884 105.108C465.696 104.934 465.406 104.802 465.016 104.713L463.631 104.41C462.867 104.236 462.303 103.959 461.937 103.579C461.575 103.199 461.394 102.718 461.394 102.135C461.394 101.652 461.529 101.23 461.799 100.868C462.068 100.505 462.441 100.223 462.917 100.021C463.393 99.8147 463.938 99.7117 464.552 99.7117C465.437 99.7117 466.133 99.9034 466.64 100.287C467.148 100.667 467.484 101.177 467.647 101.816Z" fill="white"/>
<path d="M473.084 108.165C472.278 108.165 471.584 107.993 471.002 107.648C470.423 107.3 469.975 106.812 469.659 106.184C469.347 105.552 469.191 104.811 469.191 103.962C469.191 103.124 469.347 102.386 469.659 101.746C469.975 101.107 470.416 100.608 470.98 100.25C471.549 99.891 472.213 99.7117 472.973 99.7117C473.434 99.7117 473.882 99.788 474.315 99.9407C474.748 100.093 475.137 100.333 475.481 100.66C475.826 100.987 476.098 101.411 476.296 101.933C476.495 102.451 476.595 103.082 476.595 103.824V104.389H470.091V103.195H475.034C475.034 102.776 474.949 102.405 474.778 102.082C474.608 101.755 474.368 101.498 474.059 101.31C473.754 101.121 473.395 101.027 472.983 101.027C472.536 101.027 472.145 101.137 471.811 101.358C471.481 101.574 471.225 101.858 471.044 102.21C470.867 102.558 470.778 102.936 470.778 103.344V104.277C470.778 104.824 470.874 105.289 471.066 105.672C471.261 106.056 471.533 106.349 471.881 106.551C472.229 106.75 472.635 106.849 473.1 106.849C473.402 106.849 473.678 106.807 473.926 106.722C474.175 106.633 474.39 106.501 474.571 106.327C474.752 106.153 474.89 105.939 474.986 105.683L476.494 105.955C476.373 106.398 476.156 106.787 475.844 107.121C475.535 107.451 475.146 107.709 474.677 107.893C474.212 108.075 473.681 108.165 473.084 108.165Z" fill="white"/>
<path d="M482.459 108V97.0909H486.348C487.197 97.0909 487.9 97.2454 488.457 97.5544C489.015 97.8633 489.432 98.2859 489.709 98.8221C489.986 99.3548 490.125 99.9549 490.125 100.623C490.125 101.294 489.984 101.897 489.704 102.434C489.427 102.966 489.008 103.389 488.447 103.701C487.889 104.01 487.188 104.165 486.343 104.165H483.669V102.769H486.193C486.73 102.769 487.165 102.677 487.499 102.492C487.832 102.304 488.077 102.048 488.234 101.725C488.39 101.402 488.468 101.034 488.468 100.623C488.468 100.211 488.39 99.8448 488.234 99.5252C488.077 99.2056 487.831 98.9553 487.493 98.7742C487.159 98.5931 486.719 98.5025 486.172 98.5025H484.105V108H482.459Z" fill="white"/>
<path d="M491.926 108V99.8182H493.466V101.118H493.551C493.7 100.678 493.963 100.331 494.339 100.079C494.719 99.8235 495.149 99.6957 495.628 99.6957C495.728 99.6957 495.845 99.6993 495.98 99.7064C496.118 99.7135 496.227 99.7223 496.305 99.733V101.256C496.241 101.239 496.127 101.219 495.964 101.198C495.801 101.173 495.637 101.161 495.474 101.161C495.098 101.161 494.762 101.24 494.467 101.4C494.176 101.556 493.945 101.775 493.775 102.055C493.604 102.332 493.519 102.648 493.519 103.004V108H491.926Z" fill="white"/>
<path d="M500.837 108.165C500.07 108.165 499.4 107.989 498.828 107.638C498.257 107.286 497.813 106.794 497.497 106.162C497.181 105.53 497.023 104.792 497.023 103.946C497.023 103.098 497.181 102.356 497.497 101.72C497.813 101.084 498.257 100.591 498.828 100.239C499.4 99.8875 500.07 99.7117 500.837 99.7117C501.604 99.7117 502.273 99.8875 502.845 100.239C503.417 100.591 503.86 101.084 504.176 101.72C504.492 102.356 504.651 103.098 504.651 103.946C504.651 104.792 504.492 105.53 504.176 106.162C503.86 106.794 503.417 107.286 502.845 107.638C502.273 107.989 501.604 108.165 500.837 108.165ZM500.842 106.828C501.339 106.828 501.751 106.697 502.078 106.434C502.404 106.171 502.646 105.821 502.802 105.385C502.962 104.948 503.042 104.467 503.042 103.941C503.042 103.419 502.962 102.94 502.802 102.503C502.646 102.063 502.404 101.709 502.078 101.443C501.751 101.177 501.339 101.043 500.842 101.043C500.341 101.043 499.926 101.177 499.595 101.443C499.269 101.709 499.026 102.063 498.866 102.503C498.709 102.94 498.631 103.419 498.631 103.941C498.631 104.467 498.709 104.948 498.866 105.385C499.026 105.821 499.269 106.171 499.595 106.434C499.926 106.697 500.341 106.828 500.842 106.828Z" fill="white"/>
<path d="M506.428 108V99.8182H507.957V101.15H508.058C508.229 100.699 508.507 100.347 508.895 100.095C509.282 99.8395 509.745 99.7117 510.285 99.7117C510.832 99.7117 511.29 99.8395 511.659 100.095C512.032 100.351 512.307 100.702 512.485 101.15H512.57C512.765 100.713 513.076 100.365 513.502 100.106C513.928 99.8431 514.436 99.7117 515.026 99.7117C515.768 99.7117 516.373 99.9443 516.842 100.409C517.314 100.875 517.55 101.576 517.55 102.514V108H515.958V102.663C515.958 102.109 515.807 101.707 515.505 101.459C515.203 101.21 514.843 101.086 514.424 101.086C513.905 101.086 513.502 101.246 513.215 101.565C512.927 101.881 512.783 102.288 512.783 102.785V108H511.196V102.561C511.196 102.118 511.057 101.761 510.78 101.491C510.503 101.221 510.143 101.086 509.699 101.086C509.397 101.086 509.118 101.166 508.863 101.326C508.61 101.482 508.406 101.7 508.25 101.981C508.097 102.261 508.021 102.586 508.021 102.956V108H506.428Z" fill="white"/>
<path d="M519.685 111.068V99.8182H521.241V101.145H521.374C521.466 100.974 521.599 100.777 521.773 100.553C521.947 100.33 522.189 100.134 522.498 99.9674C522.807 99.7969 523.215 99.7117 523.723 99.7117C524.383 99.7117 524.973 99.8786 525.491 100.212C526.01 100.546 526.416 101.027 526.711 101.656C527.009 102.284 527.159 103.041 527.159 103.925C527.159 104.809 527.011 105.568 526.716 106.2C526.422 106.828 526.017 107.313 525.502 107.654C524.987 107.991 524.399 108.16 523.739 108.16C523.242 108.16 522.835 108.076 522.519 107.909C522.206 107.743 521.961 107.547 521.784 107.324C521.606 107.1 521.47 106.901 521.374 106.727H521.278V111.068H519.685ZM521.246 103.909C521.246 104.484 521.329 104.989 521.496 105.422C521.663 105.855 521.905 106.194 522.221 106.439C522.537 106.681 522.924 106.802 523.382 106.802C523.858 106.802 524.255 106.675 524.575 106.423C524.895 106.168 525.136 105.821 525.299 105.385C525.466 104.948 525.55 104.456 525.55 103.909C525.55 103.369 525.468 102.885 525.305 102.455C525.145 102.025 524.904 101.686 524.58 101.438C524.261 101.189 523.861 101.065 523.382 101.065C522.92 101.065 522.53 101.184 522.21 101.422C521.894 101.659 521.654 101.992 521.491 102.418C521.328 102.844 521.246 103.341 521.246 103.909Z" fill="white"/>
<path d="M532.762 99.8182V101.097H528.293V99.8182H532.762ZM529.492 97.858H531.084V105.598C531.084 105.907 531.13 106.139 531.223 106.295C531.315 106.448 531.434 106.553 531.58 106.61C531.729 106.663 531.89 106.69 532.064 106.69C532.192 106.69 532.304 106.681 532.4 106.663C532.496 106.645 532.57 106.631 532.624 106.62L532.911 107.936C532.819 107.972 532.688 108.007 532.517 108.043C532.347 108.082 532.134 108.103 531.878 108.107C531.459 108.114 531.068 108.039 530.706 107.883C530.344 107.727 530.051 107.485 529.827 107.158C529.603 106.832 529.492 106.422 529.492 105.928V97.858Z" fill="white"/>
<path d="M540.523 101.816L539.08 102.071C539.019 101.887 538.923 101.711 538.792 101.544C538.664 101.377 538.49 101.24 538.27 101.134C538.05 101.027 537.775 100.974 537.444 100.974C536.993 100.974 536.617 101.075 536.315 101.278C536.013 101.477 535.862 101.734 535.862 102.05C535.862 102.324 535.964 102.544 536.166 102.711C536.368 102.878 536.695 103.014 537.146 103.121L538.446 103.419C539.199 103.593 539.76 103.861 540.129 104.223C540.498 104.586 540.683 105.056 540.683 105.635C540.683 106.125 540.541 106.562 540.257 106.945C539.976 107.325 539.584 107.624 539.08 107.84C538.579 108.057 537.998 108.165 537.338 108.165C536.422 108.165 535.674 107.97 535.095 107.579C534.516 107.185 534.161 106.626 534.03 105.901L535.569 105.667C535.665 106.068 535.862 106.372 536.161 106.578C536.459 106.78 536.848 106.881 537.327 106.881C537.849 106.881 538.266 106.773 538.579 106.556C538.891 106.336 539.048 106.068 539.048 105.752C539.048 105.496 538.952 105.282 538.76 105.108C538.572 104.934 538.282 104.802 537.892 104.713L536.507 104.41C535.743 104.236 535.179 103.959 534.813 103.579C534.451 103.199 534.27 102.718 534.27 102.135C534.27 101.652 534.405 101.23 534.674 100.868C534.944 100.505 535.317 100.223 535.793 100.021C536.269 99.8147 536.814 99.7117 537.428 99.7117C538.313 99.7117 539.009 99.9034 539.516 100.287C540.024 100.667 540.36 101.177 540.523 101.816Z" fill="white"/>
<path fill-rule="evenodd" clip-rule="evenodd" d="M405.909 94.909C406.331 94.4871 406.903 94.25 407.5 94.25H412.75C412.949 94.25 413.14 94.329 413.28 94.4697L418.53 99.7197C418.671 99.8603 418.75 100.051 418.75 100.25V108.5C418.75 109.097 418.513 109.669 418.091 110.091C417.669 110.513 417.097 110.75 416.5 110.75H407.5C406.903 110.75 406.331 110.513 405.909 110.091C405.487 109.669 405.25 109.097 405.25 108.5V96.5C405.25 95.9033 405.487 95.331 405.909 94.909ZM407.5 95.75C407.301 95.75 407.11 95.829 406.97 95.9697C406.829 96.1103 406.75 96.3011 406.75 96.5V108.5C406.75 108.699 406.829 108.89 406.97 109.03C407.11 109.171 407.301 109.25 407.5 109.25H416.5C416.699 109.25 416.89 109.171 417.03 109.03C417.171 108.89 417.25 108.699 417.25 108.5V100.561L412.439 95.75H407.5Z" fill="white"/>
<path fill-rule="evenodd" clip-rule="evenodd" d="M412.75 94.25C413.164 94.25 413.5 94.5858 413.5 95V99.5H418C418.414 99.5 418.75 99.8358 418.75 100.25C418.75 100.664 418.414 101 418 101H412.75C412.336 101 412 100.664 412 100.25V95C412 94.5858 412.336 94.25 412.75 94.25Z" fill="white"/>
<g filter="url(#filter1_d_38_2467)">
<path d="M493.712 113.983L524.984 130.502L511.023 136.553L501.559 148.468L493.712 113.983Z" fill="black"/>
<path d="M494.179 113.099C493.834 112.916 493.414 112.952 493.104 113.189C492.794 113.427 492.651 113.824 492.737 114.205L500.584 148.689C500.669 149.064 500.962 149.357 501.337 149.443C501.712 149.528 502.103 149.391 502.342 149.09L511.651 137.371L525.381 131.419C525.734 131.266 525.968 130.924 525.983 130.54C525.998 130.156 525.791 129.797 525.451 129.617L494.179 113.099Z" stroke="white" stroke-width="2" stroke-linejoin="round"/>
</g>
<defs>
<filter id="filter0_d_38_2467" x="387" y="80" width="177" height="50" filterUnits="userSpaceOnUse" color-interpolation-filters="sRGB">
<feFlood flood-opacity="0" result="BackgroundImageFix"/>
<feColorMatrix in="SourceAlpha" type="matrix" values="0 0 0 0 0 0 0 0 0 0 0 0 0 0 0 0 0 0 127 0" result="hardAlpha"/>
<feOffset dx="3" dy="3"/>
<feGaussianBlur stdDeviation="5"/>
<feComposite in2="hardAlpha" operator="out"/>
<feColorMatrix type="matrix" values="0 0 0 0 0 0 0 0 0 0.396078 0 0 0 0 0.94902 0 0 0 0.1 0"/>
<feBlend mode="normal" in2="BackgroundImageFix" result="effect1_dropShadow_38_2467"/>
<feBlend mode="normal" in="SourceGraphic" in2="effect1_dropShadow_38_2467" result="shape"/>
</filter>
<filter id="filter1_d_38_2467" x="476.712" y="96.9829" width="65.2715" height="68.4847" filterUnits="userSpaceOnUse" color-interpolation-filters="sRGB">
<feFlood flood-opacity="0" result="BackgroundImageFix"/>
<feColorMatrix in="SourceAlpha" type="matrix" values="0 0 0 0 0 0 0 0 0 0 0 0 0 0 0 0 0 0 127 0" result="hardAlpha"/>
<feOffset/>
<feGaussianBlur stdDeviation="7.5"/>
<feComposite in2="hardAlpha" operator="out"/>
<feColorMatrix type="matrix" values="0 0 0 0 0 0 0 0 0 0 0 0 0 0 0 0 0 0 0.15 0"/>
<feBlend mode="normal" in2="BackgroundImageFix" result="effect1_dropShadow_38_2467"/>
<feBlend mode="normal" in="SourceGraphic" in2="effect1_dropShadow_38_2467" result="shape"/>
</filter>
</defs>
</svg>
