<svg width="570" height="493" viewBox="0 0 570 493" fill="none" xmlns="http://www.w3.org/2000/svg">
<g clip-path="url(#clip0_38_2104)">
<mask id="mask0_38_2104" style="mask-type:alpha" maskUnits="userSpaceOnUse" x="0" y="0" width="570" height="493">
<rect width="570" height="493" fill="#D9D9D9"/>
</mask>
<g mask="url(#mask0_38_2104)">
<path d="M416.065 427.736C469.737 403.737 506.538 355.192 521.005 305.149C535.481 255.092 530.058 203.585 517.668 155.038C503.729 100.435 472.512 41.3472 409.125 30.5632C349.595 20.4309 290.364 57.1148 233.864 82.8267C171.769 111.079 101.174 129.287 53.0678 174.196C-0.956272 224.641 -13.1012 302.12 17.2741 360.467C47.6467 418.803 115.789 457.295 190.263 466.385C264.709 475.462 345.312 459.371 416.065 427.736Z" fill="#E6F0FE"/>
<circle cx="42.7324" cy="490.698" r="2.69758" transform="rotate(90 42.7324 490.698)" fill="#0065F2" fill-opacity="0.65"/>
<circle cx="70.6977" cy="490.698" r="2.69758" transform="rotate(90 70.6977 490.698)" fill="#0065F2" fill-opacity="0.65"/>
<circle cx="14.2153" cy="490.698" r="2.69758" transform="rotate(90 14.2153 490.698)" fill="#0065F2" fill-opacity="0.65"/>
<circle cx="155.732" cy="490.698" r="2.69758" transform="rotate(90 155.732 490.698)" fill="#0065F2" fill-opacity="0.65"/>
<circle cx="98.6977" cy="490.698" r="2.69758" transform="rotate(90 98.6977 490.698)" fill="#0065F2" fill-opacity="0.65"/>
<circle cx="127.215" cy="490.698" r="2.69758" transform="rotate(90 127.215 490.698)" fill="#0065F2" fill-opacity="0.65"/>
<circle cx="42.7324" cy="287.698" r="2.69758" transform="rotate(90 42.7324 287.698)" fill="#0065F2" fill-opacity="0.65"/>
<circle cx="70.6977" cy="287.698" r="2.69758" transform="rotate(90 70.6977 287.698)" fill="#0065F2" fill-opacity="0.65"/>
<circle cx="14.2153" cy="287.698" r="2.69758" transform="rotate(90 14.2153 287.698)" fill="#0065F2" fill-opacity="0.65"/>
<circle cx="155.732" cy="287.698" r="2.69758" transform="rotate(90 155.732 287.698)" fill="#0065F2" fill-opacity="0.65"/>
<circle cx="98.6977" cy="287.698" r="2.69758" transform="rotate(90 98.6977 287.698)" fill="#0065F2" fill-opacity="0.65"/>
<circle cx="127.215" cy="287.698" r="2.69758" transform="rotate(90 127.215 287.698)" fill="#0065F2" fill-opacity="0.65"/>
<circle cx="42.7324" cy="432.698" r="2.69758" transform="rotate(90 42.7324 432.698)" fill="#0065F2" fill-opacity="0.65"/>
<circle cx="70.6977" cy="432.698" r="2.69758" transform="rotate(90 70.6977 432.698)" fill="#0065F2" fill-opacity="0.65"/>
<circle cx="14.2153" cy="432.698" r="2.69758" transform="rotate(90 14.2153 432.698)" fill="#0065F2" fill-opacity="0.65"/>
<circle cx="155.732" cy="432.698" r="2.69758" transform="rotate(90 155.732 432.698)" fill="#0065F2" fill-opacity="0.65"/>
<circle cx="98.6977" cy="432.698" r="2.69758" transform="rotate(90 98.6977 432.698)" fill="#0065F2" fill-opacity="0.65"/>
<circle cx="127.215" cy="432.698" r="2.69758" transform="rotate(90 127.215 432.698)" fill="#0065F2" fill-opacity="0.65"/>
<circle cx="42.7324" cy="345.698" r="2.69758" transform="rotate(90 42.7324 345.698)" fill="#0065F2" fill-opacity="0.65"/>
<circle cx="70.6977" cy="345.698" r="2.69758" transform="rotate(90 70.6977 345.698)" fill="#0065F2" fill-opacity="0.65"/>
<circle cx="14.2153" cy="345.698" r="2.69758" transform="rotate(90 14.2153 345.698)" fill="#0065F2" fill-opacity="0.65"/>
<circle cx="155.732" cy="345.698" r="2.69758" transform="rotate(90 155.732 345.698)" fill="#0065F2" fill-opacity="0.65"/>
<circle cx="98.6977" cy="345.698" r="2.69758" transform="rotate(90 98.6977 345.698)" fill="#0065F2" fill-opacity="0.65"/>
<circle cx="127.215" cy="345.698" r="2.69758" transform="rotate(90 127.215 345.698)" fill="#0065F2" fill-opacity="0.65"/>
<circle cx="42.7324" cy="403.698" r="2.69758" transform="rotate(90 42.7324 403.698)" fill="#0065F2" fill-opacity="0.65"/>
<circle cx="70.6977" cy="403.698" r="2.69758" transform="rotate(90 70.6977 403.698)" fill="#0065F2" fill-opacity="0.65"/>
<circle cx="14.2153" cy="403.698" r="2.69758" transform="rotate(90 14.2153 403.698)" fill="#0065F2" fill-opacity="0.65"/>
<circle cx="155.732" cy="403.698" r="2.69758" transform="rotate(90 155.732 403.698)" fill="#0065F2" fill-opacity="0.65"/>
<circle cx="98.6977" cy="403.698" r="2.69758" transform="rotate(90 98.6977 403.698)" fill="#0065F2" fill-opacity="0.65"/>
<circle cx="127.215" cy="403.698" r="2.69758" transform="rotate(90 127.215 403.698)" fill="#0065F2" fill-opacity="0.65"/>
<circle cx="42.7324" cy="316.698" r="2.69758" transform="rotate(90 42.7324 316.698)" fill="#0065F2" fill-opacity="0.65"/>
<circle cx="70.6977" cy="316.698" r="2.69758" transform="rotate(90 70.6977 316.698)" fill="#0065F2" fill-opacity="0.65"/>
<circle cx="14.2153" cy="316.698" r="2.69758" transform="rotate(90 14.2153 316.698)" fill="#0065F2" fill-opacity="0.65"/>
<circle cx="155.732" cy="316.698" r="2.69758" transform="rotate(90 155.732 316.698)" fill="#0065F2" fill-opacity="0.65"/>
<circle cx="98.6977" cy="316.698" r="2.69758" transform="rotate(90 98.6977 316.698)" fill="#0065F2" fill-opacity="0.65"/>
<circle cx="127.215" cy="316.698" r="2.69758" transform="rotate(90 127.215 316.698)" fill="#0065F2" fill-opacity="0.65"/>
<circle cx="42.7324" cy="461.698" r="2.69758" transform="rotate(90 42.7324 461.698)" fill="#0065F2" fill-opacity="0.65"/>
<circle cx="70.6977" cy="461.698" r="2.69758" transform="rotate(90 70.6977 461.698)" fill="#0065F2" fill-opacity="0.65"/>
<circle cx="14.2153" cy="461.698" r="2.69758" transform="rotate(90 14.2153 461.698)" fill="#0065F2" fill-opacity="0.65"/>
<circle cx="155.732" cy="461.698" r="2.69758" transform="rotate(90 155.732 461.698)" fill="#0065F2" fill-opacity="0.65"/>
<circle cx="98.6977" cy="461.698" r="2.69758" transform="rotate(90 98.6977 461.698)" fill="#0065F2" fill-opacity="0.65"/>
<circle cx="127.215" cy="461.698" r="2.69758" transform="rotate(90 127.215 461.698)" fill="#0065F2" fill-opacity="0.65"/>
<circle cx="42.7324" cy="374.698" r="2.69758" transform="rotate(90 42.7324 374.698)" fill="#0065F2" fill-opacity="0.65"/>
<circle cx="70.6977" cy="374.698" r="2.69758" transform="rotate(90 70.6977 374.698)" fill="#0065F2" fill-opacity="0.65"/>
<circle cx="14.2153" cy="374.698" r="2.69758" transform="rotate(90 14.2153 374.698)" fill="#0065F2" fill-opacity="0.65"/>
<circle cx="155.732" cy="374.698" r="2.69758" transform="rotate(90 155.732 374.698)" fill="#0065F2" fill-opacity="0.65"/>
<circle cx="98.6977" cy="374.698" r="2.69758" transform="rotate(90 98.6977 374.698)" fill="#0065F2" fill-opacity="0.65"/>
<circle cx="127.215" cy="374.698" r="2.69758" transform="rotate(90 127.215 374.698)" fill="#0065F2" fill-opacity="0.65"/>
</g>
<mask id="mask1_38_2104" style="mask-type:alpha" maskUnits="userSpaceOnUse" x="0" y="0" width="570" height="493">
<path d="M0 0H570V493H0V0Z" fill="#D9D9D9"/>
</mask>
<g mask="url(#mask1_38_2104)">
<g filter="url(#filter0_d_38_2104)">
<path d="M34 23.322C34 12.0985 43.0984 3 54.322 3H121.259V385H54.32C43.0976 385 34 375.902 34 364.68V23.322Z" fill="white"/>
<path d="M71.6365 38.6233C72.1123 40.4368 73.2274 42.0776 75.0496 42.0776C76.8719 42.0776 78.0028 40.4157 78.4671 38.5952C78.7346 38.427 78.9484 38.1895 79.0841 37.9095C79.2198 37.6294 79.2721 37.3181 79.235 37.0106C79.2308 36.8596 79.1791 36.7135 79.0868 36.5919C78.9945 36.4704 78.866 36.3792 78.7187 36.3307C78.7826 35.8273 78.7359 35.3165 78.5817 34.8319C78.4276 34.3473 78.1694 33.9 77.8242 33.5193C77.4791 33.1387 77.0548 32.8335 76.5794 32.6237C76.1039 32.414 75.5881 32.3045 75.0659 32.3025C74.5437 32.3005 74.027 32.406 73.5499 32.6121C73.0728 32.8182 72.646 33.1202 72.2978 33.4982C71.9496 33.8761 71.6878 34.3215 71.5297 34.8049C71.3716 35.2883 71.3207 35.7988 71.3805 36.3026C71.2117 36.3352 71.0591 36.4224 70.9478 36.5499C70.8364 36.6775 70.7728 36.8379 70.7673 37.005C70.7219 37.329 70.7811 37.6586 70.9368 37.9485C71.0925 38.2384 71.337 38.4741 71.6365 38.6233Z" fill="#0065F2"/>
<path d="M81.9855 44.2756C80.6047 43.6414 79.1743 43.1148 77.7076 42.7009C77.6859 42.6911 77.6613 42.6868 77.6396 42.6784L77.5904 42.6658C77.5109 43.5086 76.2628 48.8186 76.2628 48.8186C76.2628 48.8186 75.5396 44.6507 75.5266 44.6423C75.5136 44.6338 75.9605 43.6519 75.9605 43.6519L75.2533 43.0015H74.7587L74.05 43.6519L74.4839 44.6423L73.7477 48.8186C73.7477 48.8186 72.5011 43.5058 72.4186 42.6658C72.4044 42.6704 72.39 42.6742 72.3753 42.677C72.3478 42.6869 72.3261 42.6911 72.3001 42.7009C70.834 43.1155 69.4041 43.6421 68.0235 44.2756C67.1462 45.16 66.658 46.3416 66.6626 47.5698C67.4897 48.5048 68.4729 49.2978 69.571 49.9157C69.571 49.4128 69.571 49.004 69.571 48.8355C69.6113 48.3752 69.7565 47.9294 69.9962 47.5304V50.1405C71.529 50.9194 73.226 51.3447 74.9554 51.3832C76.6848 51.4217 78.4001 51.0724 79.968 50.3624V47.529C80.2067 47.9098 80.3319 48.3475 80.3296 48.7933C80.3296 48.9942 80.3296 49.5476 80.3296 50.198C81.4667 49.6341 82.4978 48.888 83.3797 47.9912C83.3797 47.9547 83.3797 47.9252 83.3797 47.9069C83.41 47.2417 83.3021 46.5775 83.0626 45.9536C82.8231 45.3298 82.4568 44.7591 81.9855 44.2756Z" fill="#0065F2"/>
<path d="M94.249 64.6683L86.4119 52.7405C89.5951 49.9706 91.5905 46.14 92.0026 42.0082C92.4147 37.8764 91.2134 33.745 88.6369 30.4331C86.0603 27.1211 82.2966 24.8705 78.0918 24.1273C73.8871 23.3842 69.5484 24.2027 65.9358 26.4207C62.3233 28.6387 59.7006 32.0943 58.5878 36.1022C57.475 40.1102 57.9533 44.378 59.9279 48.0596C61.9025 51.7411 65.2291 54.5676 69.2484 55.9787C73.2677 57.3897 77.6861 57.2824 81.6277 55.6779L89.449 67.5972C89.8488 68.2154 90.4852 68.6541 91.218 68.8166C91.9509 68.9792 92.7202 68.8523 93.3567 68.4639C93.9932 68.0755 94.4448 67.4574 94.6122 66.7456C94.7795 66.0338 94.6489 65.2865 94.249 64.6683ZM81.5612 50.4241C79.1857 51.8791 76.3643 52.4891 73.5777 52.1502C70.7911 51.8113 68.2116 50.5445 66.2788 48.5655C64.346 46.5865 63.1793 44.0179 62.9776 41.2971C62.7758 38.5763 63.5515 35.8718 65.1725 33.6442C66.7934 31.4167 69.1593 29.8039 71.8672 29.0806C74.575 28.3574 77.4573 28.5684 80.0229 29.6778C82.5886 30.7871 84.6789 32.7262 85.9377 35.1646C87.1966 37.603 87.5461 40.3899 86.9267 43.0506C86.5773 44.5626 85.9234 45.9926 85.0025 47.2581C84.0816 48.5236 82.9121 49.5996 81.5612 50.4241Z" fill="#0065F2"/>
<path d="M53.8223 256.694C53.8223 253.979 56.0231 251.778 58.738 251.778H97.0843C99.7992 251.778 102 253.979 102 256.694C102 259.409 99.7992 261.609 97.0843 261.609H58.738C56.0231 261.609 53.8223 259.409 53.8223 256.694Z" fill="#E6F0FE"/>
<path d="M97.3796 222.873C97.3796 233.516 88.7073 242.143 78.0095 242.143C67.3117 242.143 58.6394 233.516 58.6394 222.873C58.6394 212.231 67.3117 203.603 78.0095 203.603C88.7073 203.603 97.3796 212.231 97.3796 222.873Z" fill="#E6F0FE"/>
<path d="M53.8223 350.091C53.8223 347.376 56.0231 345.175 58.738 345.175H97.0843C99.7992 345.175 102 347.376 102 350.091C102 352.805 99.7992 355.006 97.0843 355.006H58.738C56.0231 355.006 53.8223 352.805 53.8223 350.091Z" fill="#E6F0FE"/>
<path d="M97.3796 316.27C97.3796 326.913 88.7073 335.54 78.0095 335.54C67.3117 335.54 58.6394 326.913 58.6394 316.27C58.6394 305.627 67.3117 297 78.0095 297C88.7073 297 97.3796 305.627 97.3796 316.27Z" fill="#E6F0FE"/>
<path d="M97.3794 129.873C97.3794 140.516 88.7071 149.143 78.0093 149.143C67.3115 149.143 58.6392 140.516 58.6392 129.873C58.6392 119.231 67.3115 110.603 78.0093 110.603C88.7071 110.603 97.3794 119.231 97.3794 129.873Z" fill="#E6F0FE"/>
<path d="M120 3H362.678C373.902 3 383 12.0984 383 23.322V364.68C383 375.902 373.902 385 362.68 385H120V3Z" fill="url(#paint0_linear_38_2104)" fill-opacity="0.9"/>
</g>
<path d="M63.189 166L60.7686 157.273H62.1535L63.8538 164.031H63.9347L65.7032 157.273H67.0754L68.8438 164.036H68.9248L70.6208 157.273H72.01L69.5853 166H68.26L66.4234 159.463H66.3552L64.5186 166H63.189Z" fill="#0065F2"/>
<path d="M72.6982 166V159.455H73.9298V160.494H73.998C74.1173 160.142 74.3275 159.865 74.6286 159.663C74.9326 159.459 75.2764 159.357 75.6599 159.357C75.7394 159.357 75.8332 159.359 75.9411 159.365C76.0519 159.371 76.1386 159.378 76.2011 159.386V160.605C76.1499 160.591 76.059 160.575 75.9284 160.558C75.7977 160.538 75.667 160.528 75.5363 160.528C75.2352 160.528 74.9667 160.592 74.7309 160.72C74.498 160.845 74.3133 161.02 74.1769 161.244C74.0406 161.466 73.9724 161.719 73.9724 162.003V166H72.6982Z" fill="#0065F2"/>
<path d="M77.3037 166V159.455H78.5779V166H77.3037ZM77.9472 158.445C77.7256 158.445 77.5352 158.371 77.3762 158.223C77.2199 158.072 77.1418 157.894 77.1418 157.686C77.1418 157.476 77.2199 157.297 77.3762 157.149C77.5352 156.999 77.7256 156.923 77.9472 156.923C78.1688 156.923 78.3577 156.999 78.5139 157.149C78.673 157.297 78.7526 157.476 78.7526 157.686C78.7526 157.894 78.673 158.072 78.5139 158.223C78.3577 158.371 78.1688 158.445 77.9472 158.445Z" fill="#0065F2"/>
<path d="M83.3474 159.455V160.477H79.7721V159.455H83.3474ZM80.7309 157.886H82.0051V164.078C82.0051 164.325 82.042 164.511 82.1159 164.636C82.1897 164.759 82.2849 164.842 82.4014 164.888C82.5207 164.93 82.6499 164.952 82.7892 164.952C82.8914 164.952 82.9809 164.945 83.0576 164.93C83.1343 164.916 83.194 164.905 83.2366 164.896L83.4667 165.949C83.3928 165.977 83.2877 166.006 83.1514 166.034C83.015 166.065 82.8445 166.082 82.64 166.085C82.3048 166.091 81.9923 166.031 81.7025 165.906C81.4127 165.781 81.1784 165.588 80.9994 165.327C80.8204 165.065 80.7309 164.737 80.7309 164.342V157.886Z" fill="#0065F2"/>
<path d="M87.5075 166.132C86.8627 166.132 86.3073 165.994 85.8414 165.719C85.3783 165.44 85.0203 165.05 84.7675 164.547C84.5175 164.041 84.3925 163.449 84.3925 162.77C84.3925 162.099 84.5175 161.509 84.7675 160.997C85.0203 160.486 85.3726 160.087 85.8243 159.8C86.2789 159.513 86.8101 159.369 87.4181 159.369C87.7874 159.369 88.1453 159.43 88.4919 159.553C88.8385 159.675 89.1496 159.867 89.4252 160.128C89.7007 160.389 89.9181 160.729 90.0771 161.146C90.2362 161.561 90.3158 162.065 90.3158 162.659V163.111H85.1127V162.156H89.0672C89.0672 161.821 88.999 161.524 88.8627 161.266C88.7263 161.004 88.5345 160.798 88.2874 160.648C88.0431 160.497 87.7561 160.422 87.4266 160.422C87.0686 160.422 86.7561 160.51 86.4891 160.686C86.2249 160.859 86.0203 161.087 85.8754 161.368C85.7334 161.646 85.6624 161.949 85.6624 162.276V163.021C85.6624 163.459 85.7391 163.831 85.8925 164.138C86.0487 164.445 86.2661 164.679 86.5445 164.841C86.8229 165 87.1482 165.08 87.5203 165.08C87.7618 165.08 87.982 165.045 88.1808 164.977C88.3797 164.906 88.5516 164.801 88.6965 164.662C88.8414 164.523 88.9522 164.351 89.0289 164.146L90.2348 164.364C90.1382 164.719 89.9649 165.03 89.7149 165.297C89.4678 165.561 89.1567 165.767 88.7817 165.915C88.4095 166.06 87.9848 166.132 87.5075 166.132Z" fill="#0065F2"/>
<path d="M91.7295 166V159.455H92.961V160.494H93.0292C93.1485 160.142 93.3588 159.865 93.6599 159.663C93.9639 159.459 94.3076 159.357 94.6911 159.357C94.7707 159.357 94.8644 159.359 94.9724 159.365C95.0832 159.371 95.1698 159.378 95.2323 159.386V160.605C95.1812 160.591 95.0903 160.575 94.9596 160.558C94.8289 160.538 94.6982 160.528 94.5676 160.528C94.2664 160.528 93.998 160.592 93.7622 160.72C93.5292 160.845 93.3446 161.02 93.2082 161.244C93.0718 161.466 93.0036 161.719 93.0036 162.003V166H91.7295Z" fill="#0065F2"/>
<path fill-rule="evenodd" clip-rule="evenodd" d="M69.8787 119.879C70.4413 119.316 71.2044 119 72 119H80C80.2652 119 80.5196 119.105 80.7071 119.293L86.7071 125.293C86.8946 125.48 87 125.735 87 126V138C87 138.796 86.6839 139.559 86.1213 140.121C85.5587 140.684 84.7957 141 84 141H72C71.2043 141 70.4413 140.684 69.8787 140.121C69.3161 139.559 69 138.796 69 138V122C69 121.204 69.3161 120.441 69.8787 119.879ZM72 121C71.7348 121 71.4804 121.105 71.2929 121.293C71.1054 121.48 71 121.735 71 122V138C71 138.265 71.1054 138.52 71.2929 138.707C71.4804 138.895 71.7348 139 72 139H84C84.2652 139 84.5196 138.895 84.7071 138.707C84.8946 138.52 85 138.265 85 138V126.414L79.5858 121H72Z" fill="#0065F2"/>
<path fill-rule="evenodd" clip-rule="evenodd" d="M80 119C80.5523 119 81 119.448 81 120V125H86C86.5523 125 87 125.448 87 126C87 126.552 86.5523 127 86 127H80C79.4477 127 79 126.552 79 126V120C79 119.448 79.4477 119 80 119Z" fill="#0065F2"/>
<path fill-rule="evenodd" clip-rule="evenodd" d="M73 131C73 130.448 73.4477 130 74 130H82C82.5523 130 83 130.448 83 131C83 131.552 82.5523 132 82 132H74C73.4477 132 73 131.552 73 131Z" fill="#0065F2"/>
<path fill-rule="evenodd" clip-rule="evenodd" d="M73 135C73 134.448 73.4477 134 74 134H82C82.5523 134 83 134.448 83 135C83 135.552 82.5523 136 82 136H74C73.4477 136 73 135.552 73 135Z" fill="#0065F2"/>
<path fill-rule="evenodd" clip-rule="evenodd" d="M73 127C73 126.448 73.4477 126 74 126H76C76.5523 126 77 126.448 77 127C77 127.552 76.5523 128 76 128H74C73.4477 128 73 127.552 73 127Z" fill="#0065F2"/>
</g>
</g>
<defs>
<filter id="filter0_d_38_2104" x="19" y="-12" width="389" height="422" filterUnits="userSpaceOnUse" color-interpolation-filters="sRGB">
<feFlood flood-opacity="0" result="BackgroundImageFix"/>
<feColorMatrix in="SourceAlpha" type="matrix" values="0 0 0 0 0 0 0 0 0 0 0 0 0 0 0 0 0 0 127 0" result="hardAlpha"/>
<feOffset dx="5" dy="5"/>
<feGaussianBlur stdDeviation="10"/>
<feComposite in2="hardAlpha" operator="out"/>
<feColorMatrix type="matrix" values="0 0 0 0 0 0 0 0 0 0.396078 0 0 0 0 0.94902 0 0 0 0.1 0"/>
<feBlend mode="normal" in2="BackgroundImageFix" result="effect1_dropShadow_38_2104"/>
<feBlend mode="normal" in="SourceGraphic" in2="effect1_dropShadow_38_2104" result="shape"/>
</filter>
<linearGradient id="paint0_linear_38_2104" x1="301.876" y1="286.072" x2="478.176" y2="22.1355" gradientUnits="userSpaceOnUse">
<stop stop-color="#F7F8FA"/>
<stop offset="1" stop-color="#F7F8FA" stop-opacity="0.57"/>
</linearGradient>
<clipPath id="clip0_38_2104">
<rect width="570" height="493" fill="white"/>
</clipPath>
</defs>
</svg>
