<svg width="570" height="493" viewBox="0 0 570 493" fill="none" xmlns="http://www.w3.org/2000/svg">
<g clip-path="url(#clip0_38_2346)">
<mask id="mask0_38_2346" style="mask-type:alpha" maskUnits="userSpaceOnUse" x="0" y="0" width="570" height="493">
<path d="M0 0H570V493H0V0Z" fill="#D9D9D9"/>
</mask>
<g mask="url(#mask0_38_2346)">
<g filter="url(#filter0_d_38_2346)">
<path d="M147 30.3057C147 26.8232 149.823 24 153.306 24H455.694C459.177 24 462 26.8232 462 30.3057V198.694C462 202.177 459.177 205 455.694 205H153.306C149.823 205 147 202.177 147 198.694V30.3057Z" fill="white"/>
</g>
<g filter="url(#filter1_d_38_2346)">
<path fill-rule="evenodd" clip-rule="evenodd" d="M455.694 25H153.306C150.375 25 148 27.3755 148 30.3057V198.694C148 201.625 150.375 204 153.306 204H455.694C458.625 204 461 201.625 461 198.694V30.3057C461 27.3755 458.625 25 455.694 25ZM153.306 24C149.823 24 147 26.8232 147 30.3057V198.694C147 202.177 149.823 205 153.306 205H455.694C459.177 205 462 202.177 462 198.694V30.3057C462 26.8232 459.177 24 455.694 24H153.306Z" fill="#F2F2F2"/>
</g>
<path d="M157 38.3057C157 34.8232 159.823 32 163.306 32H445.694C449.177 32 452 34.8232 452 38.3057V57.6943C452 61.1768 449.177 64 445.694 64H163.306C159.823 64 157 61.1768 157 57.6943V38.3057Z" fill="white"/>
<path fill-rule="evenodd" clip-rule="evenodd" d="M445.694 33H163.306C160.375 33 158 35.3755 158 38.3057V57.6943C158 60.6245 160.375 63 163.306 63H445.694C448.625 63 451 60.6245 451 57.6943V38.3057C451 35.3755 448.625 33 445.694 33ZM163.306 32C159.823 32 157 34.8232 157 38.3057V57.6943C157 61.1768 159.823 64 163.306 64H445.694C449.177 64 452 61.1768 452 57.6943V38.3057C452 34.8232 449.177 32 445.694 32H163.306Z" fill="#F2F2F2"/>
<path fill-rule="evenodd" clip-rule="evenodd" d="M430.556 40C426.935 40 424 42.935 424 46.5556C424 50.1762 426.935 53.1112 430.556 53.1112C434.176 53.1112 437.111 50.1762 437.111 46.5556C437.111 42.935 434.176 40 430.556 40ZM422 46.5556C422 41.8305 425.83 38 430.556 38C435.281 38 439.111 41.8305 439.111 46.5556C439.111 51.2807 435.281 55.1112 430.556 55.1112C425.83 55.1112 422 51.2807 422 46.5556Z" fill="#697586"/>
<path fill-rule="evenodd" clip-rule="evenodd" d="M435.184 51.1845C435.575 50.794 436.208 50.794 436.599 51.1845L440.707 55.2929C441.098 55.6834 441.098 56.3165 440.707 56.7071C440.317 57.0976 439.683 57.0976 439.293 56.7071L435.184 52.5987C434.794 52.2082 434.794 51.575 435.184 51.1845Z" fill="#697586"/>
<path d="M174.148 45.9567C174.092 45.4524 173.857 45.0618 173.445 44.7848C173.033 44.5043 172.515 44.364 171.89 44.364C171.443 44.364 171.055 44.435 170.729 44.5771C170.402 44.7156 170.148 44.9073 169.967 45.1524C169.789 45.3938 169.701 45.669 169.701 45.978C169.701 46.2372 169.761 46.4609 169.882 46.6492C170.006 46.8374 170.168 46.9954 170.367 47.1232C170.569 47.2475 170.786 47.3523 171.016 47.4375C171.247 47.5192 171.469 47.5867 171.682 47.6399L172.748 47.9169C173.096 48.0021 173.452 48.1176 173.818 48.2632C174.184 48.4087 174.523 48.6005 174.836 48.8384C175.148 49.0764 175.4 49.3711 175.592 49.7227C175.787 50.0742 175.885 50.495 175.885 50.9851C175.885 51.603 175.725 52.1516 175.406 52.631C175.09 53.1105 174.63 53.4886 174.026 53.7656C173.426 54.0426 172.7 54.1811 171.847 54.1811C171.031 54.1811 170.324 54.0515 169.727 53.7923C169.131 53.533 168.664 53.1655 168.326 52.6896C167.989 52.2102 167.803 51.6421 167.767 50.9851H169.418C169.45 51.3793 169.578 51.7078 169.802 51.9705C170.029 52.2298 170.319 52.4233 170.67 52.5511C171.025 52.6754 171.414 52.7376 171.837 52.7376C172.302 52.7376 172.716 52.6648 173.078 52.5192C173.444 52.37 173.731 52.1641 173.941 51.9013C174.15 51.635 174.255 51.3242 174.255 50.9691C174.255 50.646 174.163 50.3814 173.978 50.1754C173.797 49.9695 173.55 49.799 173.238 49.6641C172.929 49.5291 172.579 49.4102 172.188 49.3072L170.899 48.9556C170.026 48.7177 169.333 48.3679 168.822 47.9063C168.314 47.4446 168.06 46.8338 168.06 46.0739C168.06 45.4453 168.231 44.8967 168.571 44.4279C168.912 43.9592 169.374 43.5952 169.956 43.3359C170.539 43.0732 171.196 42.9418 171.927 42.9418C172.666 42.9418 173.318 43.0714 173.882 43.3306C174.45 43.5899 174.898 43.9467 175.224 44.4013C175.551 44.8523 175.722 45.3707 175.736 45.9567H174.148Z" fill="#CDD5DF"/>
<path d="M181.25 54.1651C180.444 54.1651 179.75 53.9929 179.168 53.6484C178.589 53.3004 178.141 52.8122 177.825 52.1836C177.513 51.5515 177.356 50.8111 177.356 49.9624C177.356 49.1243 177.513 48.3857 177.825 47.7465C178.141 47.1073 178.582 46.6083 179.146 46.2497C179.714 45.891 180.379 45.7117 181.138 45.7117C181.6 45.7117 182.048 45.788 182.481 45.9407C182.914 46.0934 183.303 46.3331 183.647 46.6598C183.992 46.9865 184.263 47.4109 184.462 47.9329C184.661 48.4514 184.761 49.0817 184.761 49.8239V50.3885H178.257V49.1953H183.2C183.2 48.7763 183.115 48.4052 182.944 48.082C182.774 47.7553 182.534 47.4979 182.225 47.3097C181.92 47.1215 181.561 47.0274 181.149 47.0274C180.702 47.0274 180.311 47.1374 179.977 47.3576C179.647 47.5742 179.391 47.8583 179.21 48.2099C179.033 48.5579 178.944 48.9361 178.944 49.3445V50.2766C178.944 50.8235 179.04 51.2887 179.231 51.6722C179.427 52.0558 179.698 52.3487 180.046 52.5511C180.394 52.75 180.801 52.8494 181.266 52.8494C181.568 52.8494 181.843 52.8068 182.092 52.7216C182.341 52.6328 182.555 52.5014 182.736 52.3274C182.918 52.1534 183.056 51.9386 183.152 51.6829L184.659 51.9546C184.539 52.3984 184.322 52.7873 184.01 53.1211C183.701 53.4514 183.312 53.7088 182.843 53.8935C182.378 54.0746 181.847 54.1651 181.25 54.1651Z" fill="#CDD5DF"/>
<path d="M188.909 54.1811C188.39 54.1811 187.922 54.0852 187.503 53.8935C187.083 53.6982 186.751 53.4158 186.506 53.0465C186.265 52.6772 186.144 52.2244 186.144 51.6882C186.144 51.2266 186.233 50.8466 186.411 50.5483C186.588 50.25 186.828 50.0139 187.13 49.8399C187.432 49.6658 187.769 49.5345 188.142 49.4457C188.515 49.3569 188.895 49.2894 189.282 49.2433C189.772 49.1864 190.169 49.1403 190.475 49.1048C190.78 49.0657 191.002 49.0036 191.141 48.9183C191.279 48.8331 191.348 48.6946 191.348 48.5029V48.4656C191.348 48.0004 191.217 47.6399 190.954 47.3842C190.695 47.1286 190.308 47.0007 189.793 47.0007C189.257 47.0007 188.834 47.1197 188.525 47.3576C188.22 47.592 188.009 47.853 187.891 48.1406L186.395 47.7997C186.572 47.3026 186.831 46.9013 187.172 46.5959C187.517 46.2869 187.913 46.0632 188.36 45.9247C188.808 45.7827 189.278 45.7117 189.772 45.7117C190.098 45.7117 190.445 45.7507 190.81 45.8288C191.18 45.9034 191.524 46.0419 191.844 46.2443C192.167 46.4467 192.432 46.7362 192.637 47.1126C192.843 47.4855 192.946 47.9702 192.946 48.5668V54H191.391V52.8814H191.327C191.224 53.0874 191.07 53.2898 190.864 53.4886C190.658 53.6875 190.393 53.8526 190.07 53.984C189.747 54.1154 189.36 54.1811 188.909 54.1811ZM189.255 52.9027C189.695 52.9027 190.072 52.8157 190.384 52.6417C190.7 52.4677 190.94 52.2404 191.103 51.9599C191.27 51.6758 191.354 51.3722 191.354 51.049V49.9943C191.297 50.0511 191.187 50.1044 191.023 50.1541C190.864 50.2003 190.681 50.2411 190.475 50.2766C190.269 50.3086 190.068 50.3388 189.873 50.3672C189.678 50.3921 189.514 50.4134 189.383 50.4311C189.074 50.4702 188.792 50.5359 188.536 50.6282C188.284 50.7205 188.081 50.8537 187.929 51.0277C187.78 51.1982 187.705 51.4254 187.705 51.7095C187.705 52.1037 187.851 52.402 188.142 52.6044C188.433 52.8033 188.804 52.9027 189.255 52.9027Z" fill="#CDD5DF"/>
<path d="M195.068 54V45.8182H196.607V47.1179H196.692C196.842 46.6776 197.104 46.3313 197.481 46.0792C197.861 45.8235 198.29 45.6957 198.77 45.6957C198.869 45.6957 198.986 45.6992 199.121 45.7063C199.26 45.7134 199.368 45.7223 199.446 45.733V47.2564C199.382 47.2386 199.269 47.2191 199.105 47.1978C198.942 47.173 198.779 47.1605 198.615 47.1605C198.239 47.1605 197.903 47.2404 197.609 47.4002C197.317 47.5565 197.087 47.7749 196.916 48.0554C196.746 48.3324 196.66 48.6484 196.66 49.0036V54H195.068Z" fill="#CDD5DF"/>
<path d="M203.978 54.1651C203.186 54.1651 202.504 53.9858 201.933 53.6271C201.364 53.2649 200.928 52.766 200.622 52.1303C200.317 51.4947 200.164 50.7667 200.164 49.9464C200.164 49.1154 200.32 48.3821 200.633 47.7465C200.945 47.1073 201.386 46.6083 201.954 46.2497C202.522 45.891 203.191 45.7117 203.962 45.7117C204.583 45.7117 205.137 45.8271 205.624 46.0579C206.11 46.2852 206.503 46.6048 206.801 47.0167C207.103 47.4286 207.282 47.9098 207.339 48.4602H205.789C205.704 48.0767 205.509 47.7465 205.203 47.4695C204.901 47.1925 204.496 47.054 203.989 47.054C203.545 47.054 203.156 47.1712 202.822 47.4056C202.492 47.6364 202.234 47.9666 202.05 48.3963C201.865 48.8225 201.773 49.3267 201.773 49.9091C201.773 50.5057 201.863 51.0206 202.044 51.4538C202.226 51.8871 202.481 52.2227 202.811 52.4606C203.145 52.6985 203.538 52.8175 203.989 52.8175C204.291 52.8175 204.564 52.7624 204.809 52.6524C205.058 52.5387 205.265 52.3771 205.432 52.1676C205.603 51.9581 205.722 51.706 205.789 51.4112H207.339C207.282 51.9404 207.11 52.4127 206.822 52.8281C206.535 53.2436 206.15 53.5703 205.667 53.8083C205.187 54.0462 204.624 54.1651 203.978 54.1651Z" fill="#CDD5DF"/>
<path d="M210.635 49.1421V54H209.042V43.0909H210.614V47.1499H210.715C210.907 46.7095 211.2 46.3597 211.594 46.1005C211.988 45.8413 212.503 45.7117 213.139 45.7117C213.7 45.7117 214.19 45.8271 214.609 46.0579C215.031 46.2887 215.358 46.6332 215.589 47.0913C215.823 47.5458 215.94 48.114 215.94 48.7958V54H214.348V48.9876C214.348 48.3874 214.193 47.9222 213.884 47.592C213.575 47.2582 213.146 47.0913 212.595 47.0913C212.219 47.0913 211.882 47.1712 211.583 47.331C211.288 47.4908 211.056 47.7252 210.885 48.0341C210.719 48.3395 210.635 48.7088 210.635 49.1421Z" fill="#CDD5DF"/>
<path d="M174.259 79.6386H172.597C172.533 79.2834 172.414 78.9709 172.24 78.7011C172.066 78.4312 171.853 78.2021 171.601 78.0139C171.349 77.8257 171.067 77.6836 170.754 77.5878C170.445 77.4919 170.117 77.4439 169.769 77.4439C169.14 77.4439 168.577 77.602 168.08 77.918C167.587 78.2341 167.196 78.6975 166.908 79.3083C166.624 79.9191 166.482 80.6648 166.482 81.5455C166.482 82.4333 166.624 83.1826 166.908 83.7934C167.196 84.4042 167.588 84.8658 168.086 85.1783C168.583 85.4908 169.142 85.6471 169.764 85.6471C170.108 85.6471 170.435 85.6009 170.744 85.5086C171.056 85.4127 171.338 85.2724 171.591 85.0878C171.843 84.9031 172.056 84.6776 172.23 84.4113C172.407 84.1414 172.53 83.8324 172.597 83.4844L174.259 83.4898C174.17 84.026 173.998 84.5196 173.743 84.9706C173.49 85.418 173.166 85.8051 172.768 86.1318C172.374 86.455 171.923 86.7053 171.415 86.8829C170.907 87.0604 170.353 87.1492 169.753 87.1492C168.808 87.1492 167.967 86.9255 167.228 86.478C166.489 86.027 165.907 85.3825 165.481 84.5444C165.058 83.7064 164.847 82.7067 164.847 81.5455C164.847 80.3807 165.06 79.3811 165.486 78.5466C165.912 77.7085 166.495 77.0658 167.233 76.6183C167.972 76.1673 168.812 75.9418 169.753 75.9418C170.332 75.9418 170.871 76.0253 171.372 76.1922C171.876 76.3555 172.329 76.597 172.731 76.9166C173.132 77.2327 173.464 77.6197 173.727 78.0778C173.989 78.5324 174.167 79.0526 174.259 79.6386Z" fill="#70707B"/>
<path d="M179.547 87.1652C178.78 87.1652 178.111 86.9894 177.539 86.6378C176.967 86.2863 176.524 85.7944 176.208 85.1623C175.891 84.5302 175.733 83.7916 175.733 82.9464C175.733 82.0977 175.891 81.3555 176.208 80.7199C176.524 80.0842 176.967 79.5906 177.539 79.239C178.111 78.8875 178.78 78.7117 179.547 78.7117C180.314 78.7117 180.984 78.8875 181.556 79.239C182.127 79.5906 182.571 80.0842 182.887 80.7199C183.203 81.3555 183.361 82.0977 183.361 82.9464C183.361 83.7916 183.203 84.5302 182.887 85.1623C182.571 85.7944 182.127 86.2863 181.556 86.6378C180.984 86.9894 180.314 87.1652 179.547 87.1652ZM179.553 85.8282C180.05 85.8282 180.462 85.6968 180.788 85.434C181.115 85.1712 181.357 84.8214 181.513 84.3846C181.673 83.9479 181.753 83.4667 181.753 82.9411C181.753 82.4191 181.673 81.9397 181.513 81.5029C181.357 81.0626 181.115 80.7092 180.788 80.4429C180.462 80.1765 180.05 80.0434 179.553 80.0434C179.052 80.0434 178.636 80.1765 178.306 80.4429C177.98 80.7092 177.736 81.0626 177.576 81.5029C177.42 81.9397 177.342 82.4191 177.342 82.9411C177.342 83.4667 177.42 83.9479 177.576 84.3846C177.736 84.8214 177.98 85.1712 178.306 85.434C178.636 85.6968 179.052 85.8282 179.553 85.8282Z" fill="#70707B"/>
<path d="M186.732 76.091V87.0001H185.139V76.091H186.732Z" fill="#70707B"/>
<path d="M191.937 87.1599C191.277 87.1599 190.687 86.9912 190.169 86.6538C189.654 86.3129 189.249 85.8282 188.954 85.1996C188.663 84.5675 188.518 83.8094 188.518 82.9251C188.518 82.0409 188.665 81.2845 188.96 80.656C189.258 80.0274 189.666 79.5462 190.185 79.2124C190.703 78.8786 191.291 78.7117 191.948 78.7117C192.456 78.7117 192.864 78.7969 193.173 78.9674C193.486 79.1343 193.727 79.3296 193.898 79.5533C194.072 79.777 194.206 79.9741 194.302 80.1446H194.398V76.091H195.991V87.0001H194.436V85.727H194.302C194.206 85.901 194.068 86.0998 193.887 86.3236C193.709 86.5473 193.464 86.7426 193.152 86.9095C192.839 87.0764 192.434 87.1599 191.937 87.1599ZM192.289 85.8015C192.747 85.8015 193.134 85.6808 193.45 85.4393C193.77 85.1943 194.011 84.8552 194.174 84.4219C194.341 83.9887 194.425 83.4844 194.425 82.9091C194.425 82.341 194.343 81.8438 194.18 81.4177C194.016 80.9915 193.777 80.6595 193.461 80.4216C193.145 80.1837 192.754 80.0647 192.289 80.0647C191.809 80.0647 191.41 80.189 191.09 80.4376C190.771 80.6861 190.529 81.0253 190.366 81.455C190.206 81.8846 190.126 82.3694 190.126 82.9091C190.126 83.456 190.208 83.9479 190.371 84.3846C190.535 84.8214 190.776 85.1677 191.096 85.4234C191.419 85.6755 191.817 85.8015 192.289 85.8015Z" fill="#70707B"/>
<path d="M211.422 79.6386H209.76C209.697 79.2834 209.578 78.9709 209.404 78.7011C209.23 78.4312 209.016 78.2021 208.764 78.0139C208.512 77.8257 208.23 77.6836 207.917 77.5878C207.608 77.4919 207.28 77.4439 206.932 77.4439C206.303 77.4439 205.741 77.602 205.243 77.918C204.75 78.2341 204.359 78.6975 204.072 79.3083C203.787 79.9191 203.645 80.6648 203.645 81.5455C203.645 82.4333 203.787 83.1826 204.072 83.7934C204.359 84.4042 204.752 84.8658 205.249 85.1783C205.746 85.4908 206.305 85.6471 206.927 85.6471C207.271 85.6471 207.598 85.6009 207.907 85.5086C208.219 85.4127 208.502 85.2724 208.754 85.0878C209.006 84.9031 209.219 84.6776 209.393 84.4113C209.57 84.1414 209.693 83.8324 209.76 83.4844L211.422 83.4898C211.334 84.026 211.161 84.5196 210.906 84.9706C210.654 85.418 210.329 85.8051 209.931 86.1318C209.537 86.455 209.086 86.7053 208.578 86.8829C208.07 87.0604 207.516 87.1492 206.916 87.1492C205.971 87.1492 205.13 86.9255 204.391 86.478C203.652 86.027 203.07 85.3825 202.644 84.5444C202.221 83.7064 202.01 82.7067 202.01 81.5455C202.01 80.3807 202.223 79.3811 202.649 78.5466C203.075 77.7085 203.658 77.0658 204.396 76.6183C205.135 76.1673 205.975 75.9418 206.916 75.9418C207.495 75.9418 208.035 76.0253 208.535 76.1922C209.04 76.3555 209.492 76.597 209.894 76.9166C210.295 77.2327 210.627 77.6197 210.89 78.0778C211.152 78.5324 211.33 79.0526 211.422 79.6386Z" fill="#70707B"/>
<path d="M215.645 87.1812C215.127 87.1812 214.658 87.0853 214.239 86.8935C213.82 86.6982 213.488 86.4159 213.243 86.0466C213.001 85.6773 212.881 85.2245 212.881 84.6883C212.881 84.2266 212.969 83.8466 213.147 83.5484C213.324 83.2501 213.564 83.0139 213.866 82.8399C214.168 82.6659 214.505 82.5345 214.878 82.4457C215.251 82.3569 215.631 82.2895 216.018 82.2433C216.508 82.1865 216.906 82.1403 217.211 82.1048C217.517 82.0658 217.739 82.0036 217.877 81.9184C218.015 81.8332 218.085 81.6947 218.085 81.5029V81.4656C218.085 81.0004 217.953 80.64 217.691 80.3843C217.431 80.1286 217.044 80.0008 216.529 80.0008C215.993 80.0008 215.571 80.1197 215.262 80.3577C214.956 80.592 214.745 80.853 214.628 81.1407L213.131 80.7998C213.308 80.3026 213.568 79.9013 213.909 79.5959C214.253 79.287 214.649 79.0633 215.096 78.9248C215.544 78.7827 216.014 78.7117 216.508 78.7117C216.835 78.7117 217.181 78.7508 217.547 78.8289C217.916 78.9035 218.261 79.042 218.58 79.2444C218.903 79.4468 219.168 79.7362 219.374 80.1126C219.58 80.4855 219.683 80.9702 219.683 81.5668V87.0001H218.127V85.8814H218.063C217.96 86.0874 217.806 86.2898 217.6 86.4887C217.394 86.6876 217.129 86.8527 216.806 86.9841C216.483 87.1155 216.096 87.1812 215.645 87.1812ZM215.991 85.9028C216.432 85.9028 216.808 85.8158 217.121 85.6417C217.437 85.4677 217.676 85.2405 217.84 84.9599C218.007 84.6758 218.09 84.3722 218.09 84.0491V82.9944C218.033 83.0512 217.923 83.1045 217.76 83.1542C217.6 83.2003 217.417 83.2412 217.211 83.2767C217.005 83.3086 216.805 83.3388 216.609 83.3672C216.414 83.3921 216.251 83.4134 216.119 83.4312C215.81 83.4702 215.528 83.5359 215.272 83.6283C215.02 83.7206 214.818 83.8537 214.665 84.0278C214.516 84.1982 214.441 84.4255 214.441 84.7096C214.441 85.1037 214.587 85.402 214.878 85.6045C215.169 85.8033 215.54 85.9028 215.991 85.9028Z" fill="#70707B"/>
<path d="M223.397 76.091V87.0001H221.804V76.091H223.397Z" fill="#70707B"/>
<path d="M227.132 76.091V87.0001H225.539V76.091H227.132Z" fill="#70707B"/>
<path d="M239.322 78.9567C239.265 78.4525 239.031 78.0618 238.619 77.7849C238.207 77.5043 237.689 77.364 237.064 77.364C236.616 77.364 236.229 77.4351 235.903 77.5771C235.576 77.7156 235.322 77.9074 235.141 78.1524C234.963 78.3939 234.875 78.6691 234.875 78.978C234.875 79.2373 234.935 79.461 235.056 79.6492C235.18 79.8374 235.341 79.9954 235.54 80.1233C235.743 80.2476 235.959 80.3523 236.19 80.4376C236.421 80.5192 236.643 80.5867 236.856 80.64L237.921 80.917C238.269 81.0022 238.626 81.1176 238.992 81.2632C239.358 81.4088 239.697 81.6006 240.009 81.8385C240.322 82.0764 240.574 82.3711 240.766 82.7227C240.961 83.0743 241.059 83.4951 241.059 83.9851C241.059 84.603 240.899 85.1517 240.579 85.6311C240.263 86.1105 239.803 86.4887 239.2 86.7657C238.6 87.0427 237.873 87.1812 237.021 87.1812C236.204 87.1812 235.498 87.0515 234.901 86.7923C234.305 86.5331 233.838 86.1655 233.5 85.6897C233.163 85.2103 232.976 84.6421 232.941 83.9851H234.592C234.624 84.3793 234.752 84.7078 234.976 84.9706C235.203 85.2298 235.492 85.4234 235.844 85.5512C236.199 85.6755 236.588 85.7376 237.011 85.7376C237.476 85.7376 237.889 85.6648 238.252 85.5192C238.617 85.3701 238.905 85.1641 239.115 84.9013C239.324 84.635 239.429 84.3243 239.429 83.9692C239.429 83.646 239.337 83.3814 239.152 83.1755C238.971 82.9695 238.724 82.7991 238.411 82.6641C238.102 82.5292 237.753 82.4102 237.362 82.3072L236.073 81.9557C235.199 81.7177 234.507 81.368 233.996 80.9063C233.488 80.4447 233.234 79.8339 233.234 79.0739C233.234 78.4454 233.404 77.8967 233.745 77.428C234.086 76.9592 234.548 76.5952 235.13 76.336C235.713 76.0732 236.37 75.9418 237.101 75.9418C237.84 75.9418 238.491 76.0714 239.056 76.3307C239.624 76.5899 240.072 76.9468 240.398 77.4013C240.725 77.8523 240.895 78.3708 240.91 78.9567H239.322Z" fill="#70707B"/>
<path d="M246.344 87.1652C245.552 87.1652 244.871 86.9859 244.299 86.6272C243.731 86.265 243.294 85.766 242.988 85.1304C242.683 84.4947 242.53 83.7667 242.53 82.9464C242.53 82.1155 242.687 81.3822 242.999 80.7465C243.312 80.1073 243.752 79.6084 244.32 79.2497C244.888 78.891 245.558 78.7117 246.328 78.7117C246.95 78.7117 247.504 78.8271 247.99 79.0579C248.477 79.2852 248.869 79.6048 249.167 80.0167C249.469 80.4287 249.649 80.9099 249.705 81.4603H248.155C248.07 81.0768 247.875 80.7465 247.569 80.4695C247.268 80.1925 246.863 80.054 246.355 80.054C245.911 80.054 245.522 80.1712 245.188 80.4056C244.858 80.6364 244.601 80.9667 244.416 81.3964C244.231 81.8225 244.139 82.3268 244.139 82.9091C244.139 83.5057 244.23 84.0207 244.411 84.4539C244.592 84.8871 244.847 85.2227 245.178 85.4606C245.511 85.6986 245.904 85.8175 246.355 85.8175C246.657 85.8175 246.93 85.7625 247.175 85.6524C247.424 85.5388 247.632 85.3772 247.798 85.1677C247.969 84.9582 248.088 84.706 248.155 84.4113H249.705C249.649 84.9404 249.476 85.4127 249.189 85.8282C248.901 86.2437 248.516 86.5704 248.033 86.8083C247.553 87.0462 246.991 87.1652 246.344 87.1652Z" fill="#70707B"/>
<path d="M251.409 87.0001V78.8182H252.948V80.118H253.033C253.182 79.6776 253.445 79.3314 253.822 79.0792C254.202 78.8236 254.631 78.6957 255.111 78.6957C255.21 78.6957 255.327 78.6993 255.462 78.7064C255.601 78.7135 255.709 78.7224 255.787 78.733V80.2564C255.723 80.2387 255.61 80.2192 255.446 80.1979C255.283 80.173 255.12 80.1606 254.956 80.1606C254.58 80.1606 254.244 80.2405 253.949 80.4003C253.658 80.5565 253.427 80.7749 253.257 81.0555C253.087 81.3324 253.001 81.6485 253.001 82.0036V87.0001H251.409Z" fill="#70707B"/>
<path d="M257.165 87.0001V78.8182H258.758V87.0001H257.165ZM257.97 77.5558C257.693 77.5558 257.455 77.4635 257.256 77.2788C257.061 77.0906 256.963 76.8669 256.963 76.6077C256.963 76.3449 257.061 76.1211 257.256 75.9365C257.455 75.7483 257.693 75.6542 257.97 75.6542C258.247 75.6542 258.483 75.7483 258.678 75.9365C258.877 76.1211 258.977 76.3449 258.977 76.6077C258.977 76.8669 258.877 77.0906 258.678 77.2788C258.483 77.4635 258.247 77.5558 257.97 77.5558Z" fill="#70707B"/>
<path d="M260.901 90.0682V78.8182H262.456V80.1446H262.589C262.682 79.9741 262.815 79.777 262.989 79.5533C263.163 79.3296 263.404 79.1343 263.713 78.9674C264.022 78.7969 264.431 78.7117 264.938 78.7117C265.599 78.7117 266.188 78.8786 266.707 79.2124C267.225 79.5462 267.632 80.0274 267.927 80.656C268.225 81.2845 268.374 82.0409 268.374 82.9251C268.374 83.8094 268.227 84.5675 267.932 85.1996C267.637 85.8282 267.232 86.3129 266.718 86.6538C266.203 86.9912 265.615 87.1599 264.954 87.1599C264.457 87.1599 264.051 87.0764 263.735 86.9095C263.422 86.7426 263.177 86.5473 263 86.3236C262.822 86.0998 262.685 85.901 262.589 85.727H262.493V90.0682H260.901ZM262.462 82.9091C262.462 83.4844 262.545 83.9887 262.712 84.4219C262.879 84.8552 263.12 85.1943 263.436 85.4393C263.752 85.6808 264.139 85.8015 264.598 85.8015C265.073 85.8015 265.471 85.6755 265.791 85.4234C266.11 85.1677 266.352 84.8214 266.515 84.3846C266.682 83.9479 266.765 83.456 266.765 82.9091C266.765 82.3694 266.684 81.8846 266.52 81.455C266.361 81.0253 266.119 80.6861 265.796 80.4376C265.476 80.189 265.077 80.0647 264.598 80.0647C264.136 80.0647 263.745 80.1837 263.426 80.4216C263.11 80.6595 262.87 80.9915 262.707 81.4177C262.543 81.8438 262.462 82.341 262.462 82.9091Z" fill="#70707B"/>
<path d="M273.978 78.8182V80.0966H269.509V78.8182H273.978ZM270.707 76.858H272.3V84.5977C272.3 84.9067 272.346 85.1393 272.438 85.2955C272.531 85.4482 272.65 85.553 272.795 85.6098C272.944 85.6631 273.106 85.6897 273.28 85.6897C273.408 85.6897 273.52 85.6808 273.616 85.6631C273.712 85.6453 273.786 85.6311 273.839 85.6204L274.127 86.9361C274.035 86.9716 273.903 87.0072 273.733 87.0427C273.562 87.0817 273.349 87.103 273.094 87.1066C272.675 87.1137 272.284 87.0391 271.922 86.8829C271.56 86.7266 271.267 86.4851 271.043 86.1584C270.819 85.8317 270.707 85.4216 270.707 84.928V76.858Z" fill="#70707B"/>
<path d="M276.789 87.1013C276.498 87.1013 276.247 86.9983 276.038 86.7923C275.828 86.5828 275.724 86.3307 275.724 86.0359C275.724 85.7447 275.828 85.4961 276.038 85.2902C276.247 85.0807 276.498 84.9759 276.789 84.9759C277.08 84.9759 277.331 85.0807 277.54 85.2902C277.75 85.4961 277.854 85.7447 277.854 86.0359C277.854 86.2312 277.805 86.4106 277.705 86.5739C277.609 86.7337 277.481 86.8616 277.322 86.9574C277.162 87.0533 276.984 87.1013 276.789 87.1013Z" fill="#70707B"/>
<path d="M281.037 87.1013C280.746 87.1013 280.496 86.9983 280.286 86.7923C280.076 86.5828 279.972 86.3307 279.972 86.0359C279.972 85.7447 280.076 85.4961 280.286 85.2902C280.496 85.0807 280.746 84.9759 281.037 84.9759C281.328 84.9759 281.579 85.0807 281.788 85.2902C281.998 85.4961 282.102 85.7447 282.102 86.0359C282.102 86.2312 282.053 86.4106 281.953 86.5739C281.857 86.7337 281.73 86.8616 281.57 86.9574C281.41 87.0533 281.232 87.1013 281.037 87.1013Z" fill="#70707B"/>
<path d="M285.285 87.1013C284.994 87.1013 284.744 86.9983 284.534 86.7923C284.325 86.5828 284.22 86.3307 284.22 86.0359C284.22 85.7447 284.325 85.4961 284.534 85.2902C284.744 85.0807 284.994 84.9759 285.285 84.9759C285.576 84.9759 285.827 85.0807 286.036 85.2902C286.246 85.4961 286.35 85.7447 286.35 86.0359C286.35 86.2312 286.301 86.4106 286.201 86.5739C286.105 86.7337 285.978 86.8616 285.818 86.9574C285.658 87.0533 285.48 87.1013 285.285 87.1013Z" fill="#70707B"/>
<path d="M171.148 103.957C171.092 103.452 170.857 103.062 170.445 102.785C170.033 102.504 169.515 102.364 168.89 102.364C168.443 102.364 168.055 102.435 167.729 102.577C167.402 102.716 167.148 102.907 166.967 103.152C166.789 103.394 166.701 103.669 166.701 103.978C166.701 104.237 166.761 104.461 166.882 104.649C167.006 104.837 167.168 104.995 167.367 105.123C167.569 105.248 167.786 105.352 168.016 105.438C168.247 105.519 168.469 105.587 168.682 105.64L169.748 105.917C170.096 106.002 170.452 106.118 170.818 106.263C171.184 106.409 171.523 106.601 171.836 106.838C172.148 107.076 172.4 107.371 172.592 107.723C172.787 108.074 172.885 108.495 172.885 108.985C172.885 109.603 172.725 110.152 172.406 110.631C172.09 111.111 171.63 111.489 171.026 111.766C170.426 112.043 169.7 112.181 168.847 112.181C168.031 112.181 167.324 112.052 166.727 111.792C166.131 111.533 165.664 111.166 165.326 110.69C164.989 110.21 164.803 109.642 164.767 108.985H166.418C166.45 109.379 166.578 109.708 166.802 109.971C167.029 110.23 167.319 110.423 167.67 110.551C168.025 110.675 168.414 110.738 168.837 110.738C169.302 110.738 169.716 110.665 170.078 110.519C170.444 110.37 170.731 110.164 170.941 109.901C171.15 109.635 171.255 109.324 171.255 108.969C171.255 108.646 171.163 108.381 170.978 108.175C170.797 107.97 170.55 107.799 170.238 107.664C169.929 107.529 169.579 107.41 169.188 107.307L167.899 106.956C167.026 106.718 166.333 106.368 165.822 105.906C165.314 105.445 165.06 104.834 165.06 104.074C165.06 103.445 165.231 102.897 165.571 102.428C165.912 101.959 166.374 101.595 166.956 101.336C167.539 101.073 168.196 100.942 168.927 100.942C169.666 100.942 170.318 101.071 170.882 101.331C171.45 101.59 171.898 101.947 172.224 102.401C172.551 102.852 172.722 103.371 172.736 103.957H171.148Z" fill="#70707B"/>
<path d="M177.105 112.181C176.587 112.181 176.118 112.085 175.699 111.894C175.28 111.698 174.948 111.416 174.703 111.047C174.461 110.677 174.341 110.224 174.341 109.688C174.341 109.227 174.429 108.847 174.607 108.548C174.784 108.25 175.024 108.014 175.326 107.84C175.628 107.666 175.965 107.535 176.338 107.446C176.711 107.357 177.091 107.289 177.478 107.243C177.968 107.186 178.366 107.14 178.671 107.105C178.977 107.066 179.198 107.004 179.337 106.918C179.475 106.833 179.545 106.695 179.545 106.503V106.466C179.545 106 179.413 105.64 179.151 105.384C178.891 105.129 178.504 105.001 177.989 105.001C177.453 105.001 177.03 105.12 176.722 105.358C176.416 105.592 176.205 105.853 176.088 106.141L174.591 105.8C174.768 105.303 175.028 104.901 175.369 104.596C175.713 104.287 176.109 104.063 176.556 103.925C177.004 103.783 177.474 103.712 177.968 103.712C178.295 103.712 178.641 103.751 179.007 103.829C179.376 103.903 179.72 104.042 180.04 104.244C180.363 104.447 180.628 104.736 180.834 105.113C181.04 105.485 181.143 105.97 181.143 106.567V112H179.587V110.881H179.523C179.42 111.087 179.266 111.29 179.06 111.489C178.854 111.688 178.589 111.853 178.266 111.984C177.943 112.115 177.556 112.181 177.105 112.181ZM177.451 110.903C177.892 110.903 178.268 110.816 178.581 110.642C178.897 110.468 179.136 110.24 179.3 109.96C179.467 109.676 179.55 109.372 179.55 109.049V107.994C179.493 108.051 179.383 108.104 179.22 108.154C179.06 108.2 178.877 108.241 178.671 108.277C178.465 108.309 178.265 108.339 178.069 108.367C177.874 108.392 177.711 108.413 177.579 108.431C177.27 108.47 176.988 108.536 176.732 108.628C176.48 108.721 176.278 108.854 176.125 109.028C175.976 109.198 175.901 109.425 175.901 109.71C175.901 110.104 176.047 110.402 176.338 110.604C176.629 110.803 177 110.903 177.451 110.903Z" fill="#70707B"/>
<path d="M184.857 101.091V112H183.264V101.091H184.857Z" fill="#70707B"/>
<path d="M190.526 112.165C189.72 112.165 189.025 111.993 188.443 111.648C187.864 111.3 187.417 110.812 187.101 110.184C186.788 109.552 186.632 108.811 186.632 107.962C186.632 107.124 186.788 106.386 187.101 105.747C187.417 105.107 187.857 104.608 188.422 104.25C188.99 103.891 189.654 103.712 190.414 103.712C190.875 103.712 191.323 103.788 191.756 103.941C192.189 104.093 192.578 104.333 192.923 104.66C193.267 104.987 193.539 105.411 193.738 105.933C193.937 106.451 194.036 107.082 194.036 107.824V108.389H187.532V107.195H192.475C192.475 106.776 192.39 106.405 192.22 106.082C192.049 105.755 191.809 105.498 191.5 105.31C191.195 105.122 190.836 105.027 190.424 105.027C189.977 105.027 189.586 105.137 189.253 105.358C188.922 105.574 188.667 105.858 188.486 106.21C188.308 106.558 188.219 106.936 188.219 107.345V108.277C188.219 108.824 188.315 109.289 188.507 109.672C188.702 110.056 188.974 110.349 189.322 110.551C189.67 110.75 190.076 110.849 190.542 110.849C190.844 110.849 191.119 110.807 191.367 110.722C191.616 110.633 191.831 110.501 192.012 110.327C192.193 110.153 192.331 109.939 192.427 109.683L193.935 109.955C193.814 110.398 193.597 110.787 193.285 111.121C192.976 111.451 192.587 111.709 192.118 111.894C191.653 112.075 191.122 112.165 190.526 112.165Z" fill="#70707B"/>
<path d="M201.934 105.816L200.491 106.071C200.43 105.887 200.334 105.711 200.203 105.544C200.075 105.377 199.901 105.24 199.681 105.134C199.461 105.027 199.186 104.974 198.855 104.974C198.404 104.974 198.028 105.075 197.726 105.278C197.424 105.477 197.273 105.734 197.273 106.05C197.273 106.324 197.375 106.544 197.577 106.711C197.779 106.878 198.106 107.014 198.557 107.121L199.857 107.419C200.61 107.593 201.171 107.861 201.54 108.223C201.909 108.586 202.094 109.056 202.094 109.635C202.094 110.125 201.952 110.562 201.668 110.945C201.387 111.325 200.995 111.624 200.491 111.84C199.99 112.057 199.409 112.165 198.749 112.165C197.833 112.165 197.085 111.97 196.506 111.579C195.927 111.185 195.572 110.626 195.441 109.901L196.98 109.667C197.076 110.068 197.273 110.372 197.572 110.578C197.87 110.78 198.259 110.881 198.738 110.881C199.26 110.881 199.677 110.773 199.99 110.557C200.302 110.336 200.459 110.068 200.459 109.752C200.459 109.497 200.363 109.282 200.171 109.108C199.983 108.934 199.693 108.802 199.303 108.713L197.918 108.41C197.154 108.236 196.59 107.959 196.224 107.579C195.862 107.199 195.681 106.718 195.681 106.135C195.681 105.652 195.816 105.23 196.085 104.868C196.355 104.505 196.728 104.223 197.204 104.021C197.68 103.815 198.225 103.712 198.839 103.712C199.724 103.712 200.42 103.903 200.927 104.287C201.435 104.667 201.771 105.177 201.934 105.816Z" fill="#70707B"/>
<path d="M207.943 112V101.091H214.782V102.508H209.589V105.832H214.425V107.243H209.589V110.583H214.846V112H207.943Z" fill="#70707B"/>
<path d="M216.853 112V103.818H218.382V105.15H218.483C218.653 104.699 218.932 104.347 219.319 104.095C219.706 103.84 220.17 103.712 220.709 103.712C221.256 103.712 221.714 103.84 222.084 104.095C222.457 104.351 222.732 104.702 222.909 105.15H222.995C223.19 104.713 223.501 104.365 223.927 104.106C224.353 103.843 224.861 103.712 225.45 103.712C226.192 103.712 226.798 103.944 227.267 104.41C227.739 104.875 227.975 105.576 227.975 106.514V112H226.382V106.663C226.382 106.109 226.231 105.707 225.93 105.459C225.628 105.21 225.267 105.086 224.848 105.086C224.33 105.086 223.927 105.246 223.639 105.565C223.352 105.881 223.208 106.288 223.208 106.785V112H221.62V106.561C221.62 106.118 221.482 105.761 221.205 105.491C220.928 105.221 220.567 105.086 220.124 105.086C219.822 105.086 219.543 105.166 219.287 105.326C219.035 105.482 218.831 105.7 218.675 105.981C218.522 106.261 218.446 106.586 218.446 106.956V112H216.853Z" fill="#70707B"/>
<path d="M232.491 112.181C231.972 112.181 231.504 112.085 231.085 111.894C230.666 111.698 230.333 111.416 230.088 111.047C229.847 110.677 229.726 110.224 229.726 109.688C229.726 109.227 229.815 108.847 229.993 108.548C230.17 108.25 230.41 108.014 230.712 107.84C231.014 107.666 231.351 107.535 231.724 107.446C232.097 107.357 232.477 107.289 232.864 107.243C233.354 107.186 233.751 107.14 234.057 107.105C234.362 107.066 234.584 107.004 234.723 106.918C234.861 106.833 234.93 106.695 234.93 106.503V106.466C234.93 106 234.799 105.64 234.536 105.384C234.277 105.129 233.89 105.001 233.375 105.001C232.839 105.001 232.416 105.12 232.107 105.358C231.802 105.592 231.591 105.853 231.473 106.141L229.977 105.8C230.154 105.303 230.413 104.901 230.754 104.596C231.099 104.287 231.495 104.063 231.942 103.925C232.39 103.783 232.86 103.712 233.354 103.712C233.68 103.712 234.027 103.751 234.392 103.829C234.762 103.903 235.106 104.042 235.426 104.244C235.749 104.447 236.014 104.736 236.22 105.113C236.425 105.485 236.528 105.97 236.528 106.567V112H234.973V110.881H234.909C234.806 111.087 234.652 111.29 234.446 111.489C234.24 111.688 233.975 111.853 233.652 111.984C233.329 112.115 232.942 112.181 232.491 112.181ZM232.837 110.903C233.277 110.903 233.654 110.816 233.966 110.642C234.282 110.468 234.522 110.24 234.685 109.96C234.852 109.676 234.936 109.372 234.936 109.049V107.994C234.879 108.051 234.769 108.104 234.606 108.154C234.446 108.2 234.263 108.241 234.057 108.277C233.851 108.309 233.65 108.339 233.455 108.367C233.26 108.392 233.096 108.413 232.965 108.431C232.656 108.47 232.374 108.536 232.118 108.628C231.866 108.721 231.663 108.854 231.511 109.028C231.362 109.198 231.287 109.425 231.287 109.71C231.287 110.104 231.433 110.402 231.724 110.604C232.015 110.803 232.386 110.903 232.837 110.903Z" fill="#70707B"/>
<path d="M238.65 112V103.818H240.243V112H238.65ZM239.454 102.556C239.177 102.556 238.939 102.463 238.74 102.279C238.545 102.091 238.447 101.867 238.447 101.608C238.447 101.345 238.545 101.121 238.74 100.936C238.939 100.748 239.177 100.654 239.454 100.654C239.731 100.654 239.967 100.748 240.163 100.936C240.361 101.121 240.461 101.345 240.461 101.608C240.461 101.867 240.361 102.091 240.163 102.279C239.967 102.463 239.731 102.556 239.454 102.556Z" fill="#70707B"/>
<path d="M243.978 101.091V112H242.385V101.091H243.978Z" fill="#70707B"/>
<path d="M247.17 112.101C246.879 112.101 246.628 111.998 246.419 111.792C246.209 111.583 246.105 111.331 246.105 111.036C246.105 110.745 246.209 110.496 246.419 110.29C246.628 110.081 246.879 109.976 247.17 109.976C247.461 109.976 247.711 110.081 247.921 110.29C248.13 110.496 248.235 110.745 248.235 111.036C248.235 111.231 248.186 111.411 248.086 111.574C247.99 111.734 247.862 111.862 247.703 111.957C247.543 112.053 247.365 112.101 247.17 112.101Z" fill="#70707B"/>
<path d="M251.418 112.101C251.127 112.101 250.876 111.998 250.667 111.792C250.457 111.583 250.353 111.331 250.353 111.036C250.353 110.745 250.457 110.496 250.667 110.29C250.876 110.081 251.127 109.976 251.418 109.976C251.709 109.976 251.959 110.081 252.169 110.29C252.379 110.496 252.483 110.745 252.483 111.036C252.483 111.231 252.434 111.411 252.334 111.574C252.238 111.734 252.11 111.862 251.951 111.957C251.791 112.053 251.613 112.101 251.418 112.101Z" fill="#70707B"/>
<path d="M255.666 112.101C255.375 112.101 255.124 111.998 254.915 111.792C254.705 111.583 254.601 111.331 254.601 111.036C254.601 110.745 254.705 110.496 254.915 110.29C255.124 110.081 255.375 109.976 255.666 109.976C255.957 109.976 256.208 110.081 256.417 110.29C256.627 110.496 256.731 110.745 256.731 111.036C256.731 111.231 256.682 111.411 256.582 111.574C256.486 111.734 256.358 111.862 256.199 111.957C256.039 112.053 255.861 112.101 255.666 112.101Z" fill="#70707B"/>
<path d="M165.199 137V126.091H166.845V135.583H171.788V137H165.199Z" fill="#70707B"/>
<path d="M173.538 137V128.818H175.13V137H173.538ZM174.342 127.556C174.065 127.556 173.827 127.463 173.628 127.279C173.433 127.091 173.335 126.867 173.335 126.608C173.335 126.345 173.433 126.121 173.628 125.936C173.827 125.748 174.065 125.654 174.342 125.654C174.619 125.654 174.855 125.748 175.05 125.936C175.249 126.121 175.349 126.345 175.349 126.608C175.349 126.867 175.249 127.091 175.05 127.279C174.855 127.463 174.619 127.556 174.342 127.556Z" fill="#70707B"/>
<path d="M178.866 132.142V137H177.273V128.818H178.802V130.15H178.903C179.091 129.717 179.386 129.369 179.787 129.106C180.192 128.843 180.701 128.712 181.316 128.712C181.873 128.712 182.362 128.829 182.781 129.063C183.2 129.294 183.525 129.639 183.755 130.097C183.986 130.555 184.102 131.121 184.102 131.796V137H182.509V131.988C182.509 131.395 182.355 130.931 182.046 130.597C181.737 130.26 181.312 130.091 180.773 130.091C180.403 130.091 180.075 130.171 179.787 130.331C179.503 130.491 179.277 130.725 179.111 131.034C178.947 131.34 178.866 131.709 178.866 132.142Z" fill="#70707B"/>
<path d="M187.703 134.225L187.692 132.281H187.969L191.229 128.818H193.136L189.418 132.76H189.167L187.703 134.225ZM186.238 137V126.091H187.83V137H186.238ZM191.405 137L188.475 133.112L189.572 131.998L193.36 137H191.405Z" fill="#70707B"/>
<path d="M197.777 137.165C196.971 137.165 196.276 136.993 195.694 136.648C195.115 136.3 194.668 135.812 194.352 135.184C194.039 134.552 193.883 133.811 193.883 132.962C193.883 132.124 194.039 131.386 194.352 130.747C194.668 130.107 195.108 129.608 195.673 129.25C196.241 128.891 196.905 128.712 197.665 128.712C198.126 128.712 198.574 128.788 199.007 128.941C199.44 129.093 199.829 129.333 200.174 129.66C200.518 129.987 200.79 130.411 200.989 130.933C201.188 131.451 201.287 132.082 201.287 132.824V133.389H194.783V132.195H199.726C199.726 131.776 199.641 131.405 199.471 131.082C199.3 130.755 199.06 130.498 198.751 130.31C198.446 130.122 198.087 130.027 197.675 130.027C197.228 130.027 196.837 130.137 196.504 130.358C196.173 130.574 195.918 130.858 195.737 131.21C195.559 131.558 195.47 131.936 195.47 132.345V133.277C195.47 133.824 195.566 134.289 195.758 134.672C195.953 135.056 196.225 135.349 196.573 135.551C196.921 135.75 197.327 135.849 197.793 135.849C198.095 135.849 198.37 135.807 198.618 135.722C198.867 135.633 199.082 135.501 199.263 135.327C199.444 135.153 199.582 134.939 199.678 134.683L201.186 134.955C201.065 135.398 200.848 135.787 200.536 136.121C200.227 136.451 199.838 136.709 199.369 136.894C198.904 137.075 198.373 137.165 197.777 137.165Z" fill="#70707B"/>
<path d="M206.117 137.16C205.456 137.16 204.867 136.991 204.348 136.654C203.834 136.313 203.429 135.828 203.134 135.2C202.843 134.568 202.697 133.809 202.697 132.925C202.697 132.041 202.845 131.285 203.139 130.656C203.438 130.027 203.846 129.546 204.364 129.212C204.883 128.879 205.471 128.712 206.128 128.712C206.635 128.712 207.044 128.797 207.353 128.967C207.665 129.134 207.907 129.33 208.077 129.553C208.251 129.777 208.386 129.974 208.482 130.145H208.578V126.091H210.171V137H208.615V135.727H208.482C208.386 135.901 208.248 136.1 208.067 136.324C207.889 136.547 207.644 136.743 207.331 136.91C207.019 137.076 206.614 137.16 206.117 137.16ZM206.469 135.802C206.927 135.802 207.314 135.681 207.63 135.439C207.949 135.194 208.191 134.855 208.354 134.422C208.521 133.989 208.605 133.484 208.605 132.909C208.605 132.341 208.523 131.844 208.36 131.418C208.196 130.992 207.956 130.66 207.64 130.422C207.324 130.184 206.934 130.065 206.469 130.065C205.989 130.065 205.59 130.189 205.27 130.438C204.95 130.686 204.709 131.025 204.546 131.455C204.386 131.885 204.306 132.369 204.306 132.909C204.306 133.456 204.388 133.948 204.551 134.385C204.714 134.821 204.956 135.168 205.275 135.423C205.599 135.675 205.996 135.802 206.469 135.802Z" fill="#70707B"/>
<path d="M214.218 126.091V137H212.572V126.091H214.218Z" fill="#70707B"/>
<path d="M218.079 132.142V137H216.487V128.818H218.015V130.15H218.117C218.305 129.717 218.6 129.369 219.001 129.106C219.406 128.843 219.915 128.712 220.53 128.712C221.087 128.712 221.576 128.829 221.995 129.063C222.414 129.294 222.739 129.639 222.969 130.097C223.2 130.555 223.316 131.121 223.316 131.796V137H221.723V131.988C221.723 131.395 221.568 130.931 221.259 130.597C220.951 130.26 220.526 130.091 219.986 130.091C219.617 130.091 219.289 130.171 219.001 130.331C218.717 130.491 218.491 130.725 218.324 131.034C218.161 131.34 218.079 131.709 218.079 132.142Z" fill="#70707B"/>
<path d="M238.61 129.639H236.948C236.884 129.283 236.765 128.971 236.591 128.701C236.417 128.431 236.204 128.202 235.952 128.014C235.7 127.826 235.417 127.684 235.105 127.588C234.796 127.492 234.467 127.444 234.119 127.444C233.491 127.444 232.928 127.602 232.431 127.918C231.937 128.234 231.547 128.698 231.259 129.308C230.975 129.919 230.833 130.665 230.833 131.546C230.833 132.433 230.975 133.183 231.259 133.793C231.547 134.404 231.939 134.866 232.436 135.178C232.933 135.491 233.493 135.647 234.114 135.647C234.459 135.647 234.785 135.601 235.094 135.509C235.407 135.413 235.689 135.272 235.941 135.088C236.193 134.903 236.406 134.678 236.58 134.411C236.758 134.141 236.88 133.832 236.948 133.484L238.61 133.49C238.521 134.026 238.349 134.52 238.093 134.971C237.841 135.418 237.516 135.805 237.118 136.132C236.724 136.455 236.273 136.705 235.765 136.883C235.258 137.06 234.704 137.149 234.103 137.149C233.159 137.149 232.317 136.925 231.579 136.478C230.84 136.027 230.258 135.383 229.831 134.544C229.409 133.706 229.198 132.707 229.198 131.546C229.198 130.381 229.411 129.381 229.837 128.547C230.263 127.709 230.845 127.066 231.584 126.618C232.323 126.167 233.162 125.942 234.103 125.942C234.682 125.942 235.222 126.025 235.723 126.192C236.227 126.356 236.68 126.597 237.081 126.917C237.482 127.233 237.814 127.62 238.077 128.078C238.34 128.532 238.518 129.053 238.61 129.639Z" fill="#70707B"/>
<path d="M243.898 137.165C243.131 137.165 242.462 136.989 241.89 136.638C241.318 136.286 240.874 135.794 240.558 135.162C240.242 134.53 240.084 133.792 240.084 132.946C240.084 132.098 240.242 131.356 240.558 130.72C240.874 130.084 241.318 129.591 241.89 129.239C242.462 128.887 243.131 128.712 243.898 128.712C244.665 128.712 245.334 128.887 245.906 129.239C246.478 129.591 246.922 130.084 247.238 130.72C247.554 131.356 247.712 132.098 247.712 132.946C247.712 133.792 247.554 134.53 247.238 135.162C246.922 135.794 246.478 136.286 245.906 136.638C245.334 136.989 244.665 137.165 243.898 137.165ZM243.903 135.828C244.4 135.828 244.812 135.697 245.139 135.434C245.466 135.171 245.707 134.821 245.864 134.385C246.023 133.948 246.103 133.467 246.103 132.941C246.103 132.419 246.023 131.94 245.864 131.503C245.707 131.063 245.466 130.709 245.139 130.443C244.812 130.177 244.4 130.043 243.903 130.043C243.403 130.043 242.987 130.177 242.657 130.443C242.33 130.709 242.087 131.063 241.927 131.503C241.771 131.94 241.693 132.419 241.693 132.941C241.693 133.467 241.771 133.948 241.927 134.385C242.087 134.821 242.33 135.171 242.657 135.434C242.987 135.697 243.403 135.828 243.903 135.828Z" fill="#70707B"/>
<path d="M251.082 132.142V137H249.49V128.818H251.018V130.15H251.12C251.308 129.717 251.603 129.369 252.004 129.106C252.409 128.843 252.918 128.712 253.533 128.712C254.09 128.712 254.578 128.829 254.997 129.063C255.417 129.294 255.741 129.639 255.972 130.097C256.203 130.555 256.318 131.121 256.318 131.796V137H254.726V131.988C254.726 131.395 254.571 130.931 254.262 130.597C253.953 130.26 253.529 130.091 252.989 130.091C252.62 130.091 252.292 130.171 252.004 130.331C251.72 130.491 251.494 130.725 251.327 131.034C251.164 131.34 251.082 131.709 251.082 132.142Z" fill="#70707B"/>
<path d="M260.047 132.142V137H258.455V128.818H259.983V130.15H260.084C260.273 129.717 260.567 129.369 260.969 129.106C261.374 128.843 261.883 128.712 262.497 128.712C263.055 128.712 263.543 128.829 263.962 129.063C264.381 129.294 264.706 129.639 264.937 130.097C265.168 130.555 265.283 131.121 265.283 131.796V137H263.691V131.988C263.691 131.395 263.536 130.931 263.227 130.597C262.918 130.26 262.494 130.091 261.954 130.091C261.585 130.091 261.256 130.171 260.969 130.331C260.685 130.491 260.459 130.725 260.292 131.034C260.129 131.34 260.047 131.709 260.047 132.142Z" fill="#70707B"/>
<path d="M270.946 137.165C270.14 137.165 269.445 136.993 268.863 136.648C268.284 136.3 267.837 135.812 267.521 135.184C267.208 134.552 267.052 133.811 267.052 132.962C267.052 132.124 267.208 131.386 267.521 130.747C267.837 130.107 268.277 129.608 268.842 129.25C269.41 128.891 270.074 128.712 270.834 128.712C271.295 128.712 271.743 128.788 272.176 128.941C272.609 129.093 272.998 129.333 273.343 129.66C273.687 129.987 273.959 130.411 274.158 130.933C274.356 131.451 274.456 132.082 274.456 132.824V133.389H267.952V132.195H272.895C272.895 131.776 272.81 131.405 272.64 131.082C272.469 130.755 272.229 130.498 271.92 130.31C271.615 130.122 271.256 130.027 270.844 130.027C270.397 130.027 270.006 130.137 269.673 130.358C269.342 130.574 269.087 130.858 268.905 131.21C268.728 131.558 268.639 131.936 268.639 132.345V133.277C268.639 133.824 268.735 134.289 268.927 134.672C269.122 135.056 269.394 135.349 269.742 135.551C270.09 135.75 270.496 135.849 270.962 135.849C271.263 135.849 271.539 135.807 271.787 135.722C272.036 135.633 272.251 135.501 272.432 135.327C272.613 135.153 272.751 134.939 272.847 134.683L274.355 134.955C274.234 135.398 274.017 135.787 273.705 136.121C273.396 136.451 273.007 136.709 272.538 136.894C272.073 137.075 271.542 137.165 270.946 137.165Z" fill="#70707B"/>
<path d="M279.669 137.165C278.878 137.165 278.196 136.986 277.624 136.627C277.056 136.265 276.619 135.766 276.314 135.13C276.008 134.495 275.856 133.767 275.856 132.946C275.856 132.115 276.012 131.382 276.324 130.747C276.637 130.107 277.077 129.608 277.645 129.25C278.213 128.891 278.883 128.712 279.653 128.712C280.275 128.712 280.829 128.827 281.315 129.058C281.802 129.285 282.194 129.605 282.493 130.017C282.794 130.429 282.974 130.91 283.031 131.46H281.481C281.395 131.077 281.2 130.747 280.895 130.47C280.593 130.193 280.188 130.054 279.68 130.054C279.236 130.054 278.847 130.171 278.514 130.406C278.183 130.636 277.926 130.967 277.741 131.396C277.557 131.822 277.464 132.327 277.464 132.909C277.464 133.506 277.555 134.021 277.736 134.454C277.917 134.887 278.173 135.223 278.503 135.461C278.837 135.699 279.229 135.818 279.68 135.818C279.982 135.818 280.255 135.762 280.5 135.652C280.749 135.539 280.957 135.377 281.124 135.168C281.294 134.958 281.413 134.706 281.481 134.411H283.031C282.974 134.94 282.802 135.413 282.514 135.828C282.226 136.244 281.841 136.57 281.358 136.808C280.879 137.046 280.316 137.165 279.669 137.165Z" fill="#70707B"/>
<path d="M288.553 128.818V130.097H284.084V128.818H288.553ZM285.282 126.858H286.875V134.598C286.875 134.907 286.921 135.139 287.014 135.296C287.106 135.448 287.225 135.553 287.371 135.61C287.52 135.663 287.681 135.69 287.855 135.69C287.983 135.69 288.095 135.681 288.191 135.663C288.287 135.645 288.361 135.631 288.415 135.62L288.702 136.936C288.61 136.972 288.478 137.007 288.308 137.043C288.138 137.082 287.924 137.103 287.669 137.107C287.25 137.114 286.859 137.039 286.497 136.883C286.135 136.727 285.842 136.485 285.618 136.158C285.394 135.832 285.282 135.422 285.282 134.928V126.858Z" fill="#70707B"/>
<path d="M290.315 137V128.818H291.908V137H290.315ZM291.119 127.556C290.842 127.556 290.604 127.463 290.405 127.279C290.21 127.091 290.112 126.867 290.112 126.608C290.112 126.345 290.21 126.121 290.405 125.936C290.604 125.748 290.842 125.654 291.119 125.654C291.396 125.654 291.632 125.748 291.828 125.936C292.026 126.121 292.126 126.345 292.126 126.608C292.126 126.867 292.026 127.091 291.828 127.279C291.632 127.463 291.396 127.556 291.119 127.556Z" fill="#70707B"/>
<path d="M297.497 137.165C296.73 137.165 296.06 136.989 295.488 136.638C294.917 136.286 294.473 135.794 294.157 135.162C293.841 134.53 293.683 133.792 293.683 132.946C293.683 132.098 293.841 131.356 294.157 130.72C294.473 130.084 294.917 129.591 295.488 129.239C296.06 128.887 296.73 128.712 297.497 128.712C298.264 128.712 298.933 128.887 299.505 129.239C300.076 129.591 300.52 130.084 300.836 130.72C301.152 131.356 301.311 132.098 301.311 132.946C301.311 133.792 301.152 134.53 300.836 135.162C300.52 135.794 300.076 136.286 299.505 136.638C298.933 136.989 298.264 137.165 297.497 137.165ZM297.502 135.828C297.999 135.828 298.411 135.697 298.738 135.434C299.064 135.171 299.306 134.821 299.462 134.385C299.622 133.948 299.702 133.467 299.702 132.941C299.702 132.419 299.622 131.94 299.462 131.503C299.306 131.063 299.064 130.709 298.738 130.443C298.411 130.177 297.999 130.043 297.502 130.043C297.001 130.043 296.586 130.177 296.255 130.443C295.929 130.709 295.686 131.063 295.526 131.503C295.369 131.94 295.291 132.419 295.291 132.941C295.291 133.467 295.369 133.948 295.526 134.385C295.686 134.821 295.929 135.171 296.255 135.434C296.586 135.697 297.001 135.828 297.502 135.828Z" fill="#70707B"/>
<path d="M304.681 132.142V137H303.088V128.818H304.617V130.15H304.718C304.906 129.717 305.201 129.369 305.602 129.106C306.007 128.843 306.517 128.712 307.131 128.712C307.689 128.712 308.177 128.829 308.596 129.063C309.015 129.294 309.34 129.639 309.571 130.097C309.802 130.555 309.917 131.121 309.917 131.796V137H308.324V131.988C308.324 131.395 308.17 130.931 307.861 130.597C307.552 130.26 307.128 130.091 306.588 130.091C306.219 130.091 305.89 130.171 305.602 130.331C305.318 130.491 305.093 130.725 304.926 131.034C304.763 131.34 304.681 131.709 304.681 132.142Z" fill="#70707B"/>
<path d="M316.151 137V126.091H320.039C320.884 126.091 321.586 126.237 322.143 126.528C322.704 126.819 323.123 127.222 323.4 127.737C323.677 128.248 323.816 128.84 323.816 129.511C323.816 130.178 323.676 130.766 323.395 131.274C323.118 131.778 322.699 132.171 322.138 132.451C321.58 132.732 320.879 132.872 320.034 132.872H317.088V131.455H319.885C320.417 131.455 320.851 131.379 321.184 131.226C321.522 131.073 321.769 130.851 321.925 130.56C322.081 130.269 322.159 129.919 322.159 129.511C322.159 129.099 322.079 128.742 321.92 128.44C321.763 128.138 321.516 127.907 321.179 127.748C320.845 127.584 320.407 127.503 319.863 127.503H317.797V137H316.151ZM321.536 132.078L324.231 137H322.356L319.714 132.078H321.536Z" fill="#70707B"/>
<path d="M329.115 137.165C328.308 137.165 327.614 136.993 327.032 136.648C326.453 136.3 326.006 135.812 325.689 135.184C325.377 134.552 325.221 133.811 325.221 132.962C325.221 132.124 325.377 131.386 325.689 130.747C326.006 130.107 326.446 129.608 327.011 129.25C327.579 128.891 328.243 128.712 329.003 128.712C329.464 128.712 329.912 128.788 330.345 128.941C330.778 129.093 331.167 129.333 331.512 129.66C331.856 129.987 332.128 130.411 332.327 130.933C332.525 131.451 332.625 132.082 332.625 132.824V133.389H326.121V132.195H331.064C331.064 131.776 330.979 131.405 330.808 131.082C330.638 130.755 330.398 130.498 330.089 130.31C329.784 130.122 329.425 130.027 329.013 130.027C328.566 130.027 328.175 130.137 327.841 130.358C327.511 130.574 327.256 130.858 327.074 131.21C326.897 131.558 326.808 131.936 326.808 132.345V133.277C326.808 133.824 326.904 134.289 327.096 134.672C327.291 135.056 327.563 135.349 327.911 135.551C328.259 135.75 328.665 135.849 329.131 135.849C329.432 135.849 329.708 135.807 329.956 135.722C330.205 135.633 330.42 135.501 330.601 135.327C330.782 135.153 330.92 134.939 331.016 134.683L332.524 134.955C332.403 135.398 332.186 135.787 331.874 136.121C331.565 136.451 331.176 136.709 330.707 136.894C330.242 137.075 329.711 137.165 329.115 137.165Z" fill="#70707B"/>
<path d="M339.916 140.068V135.727H339.82C339.724 135.901 339.586 136.1 339.404 136.324C339.227 136.547 338.982 136.743 338.669 136.91C338.357 137.076 337.952 137.16 337.455 137.16C336.794 137.16 336.205 136.991 335.686 136.654C335.171 136.313 334.767 135.828 334.472 135.2C334.181 134.568 334.035 133.809 334.035 132.925C334.035 132.041 334.182 131.285 334.477 130.656C334.776 130.027 335.184 129.546 335.702 129.212C336.221 128.879 336.809 128.712 337.466 128.712C337.973 128.712 338.382 128.797 338.691 128.967C339.003 129.134 339.245 129.33 339.415 129.553C339.589 129.777 339.724 129.974 339.82 130.145H339.953V128.818H341.508V140.068H339.916ZM337.806 135.802C338.265 135.802 338.652 135.681 338.968 135.439C339.287 135.194 339.529 134.855 339.692 134.422C339.859 133.989 339.942 133.484 339.942 132.909C339.942 132.341 339.861 131.844 339.697 131.418C339.534 130.992 339.294 130.66 338.978 130.422C338.662 130.184 338.272 130.065 337.806 130.065C337.327 130.065 336.928 130.189 336.608 130.438C336.288 130.686 336.047 131.025 335.883 131.455C335.724 131.885 335.644 132.369 335.644 132.909C335.644 133.456 335.725 133.948 335.889 134.385C336.052 134.821 336.294 135.168 336.613 135.423C336.936 135.675 337.334 135.802 337.806 135.802Z" fill="#70707B"/>
<path d="M348.833 133.607V128.818H350.431V137H348.865V135.583H348.779C348.591 136.02 348.289 136.384 347.874 136.675C347.462 136.963 346.949 137.107 346.334 137.107C345.809 137.107 345.344 136.991 344.939 136.76C344.538 136.526 344.222 136.18 343.991 135.722C343.763 135.264 343.65 134.697 343.65 134.022V128.818H345.242V133.831C345.242 134.388 345.397 134.832 345.706 135.162C346.015 135.493 346.416 135.658 346.91 135.658C347.208 135.658 347.505 135.583 347.799 135.434C348.098 135.285 348.344 135.059 348.54 134.758C348.739 134.456 348.836 134.072 348.833 133.607Z" fill="#70707B"/>
<path d="M356.097 137.165C355.291 137.165 354.597 136.993 354.014 136.648C353.435 136.3 352.988 135.812 352.672 135.184C352.359 134.552 352.203 133.811 352.203 132.962C352.203 132.124 352.359 131.386 352.672 130.747C352.988 130.107 353.428 129.608 353.993 129.25C354.561 128.891 355.225 128.712 355.985 128.712C356.447 128.712 356.894 128.788 357.327 128.941C357.761 129.093 358.15 129.333 358.494 129.66C358.838 129.987 359.11 130.411 359.309 130.933C359.508 131.451 359.607 132.082 359.607 132.824V133.389H353.103V132.195H358.047C358.047 131.776 357.961 131.405 357.791 131.082C357.62 130.755 357.381 130.498 357.072 130.31C356.766 130.122 356.408 130.027 355.996 130.027C355.548 130.027 355.158 130.137 354.824 130.358C354.494 130.574 354.238 130.858 354.057 131.21C353.879 131.558 353.791 131.936 353.791 132.345V133.277C353.791 133.824 353.886 134.289 354.078 134.672C354.273 135.056 354.545 135.349 354.893 135.551C355.241 135.75 355.648 135.849 356.113 135.849C356.415 135.849 356.69 135.807 356.939 135.722C357.187 135.633 357.402 135.501 357.583 135.327C357.764 135.153 357.903 134.939 357.999 134.683L359.506 134.955C359.385 135.398 359.169 135.787 358.856 136.121C358.547 136.451 358.158 136.709 357.69 136.894C357.224 137.075 356.694 137.165 356.097 137.165Z" fill="#70707B"/>
<path d="M367.505 130.816L366.062 131.071C366.002 130.887 365.906 130.711 365.774 130.544C365.646 130.377 365.472 130.24 365.252 130.134C365.032 130.027 364.757 129.974 364.427 129.974C363.976 129.974 363.599 130.075 363.297 130.278C362.996 130.477 362.845 130.734 362.845 131.05C362.845 131.324 362.946 131.544 363.148 131.711C363.351 131.878 363.677 132.014 364.128 132.121L365.428 132.419C366.181 132.593 366.742 132.861 367.111 133.223C367.481 133.586 367.665 134.056 367.665 134.635C367.665 135.125 367.523 135.562 367.239 135.945C366.959 136.325 366.566 136.624 366.062 136.84C365.561 137.057 364.981 137.165 364.32 137.165C363.404 137.165 362.656 136.97 362.078 136.579C361.499 136.185 361.144 135.626 361.012 134.901L362.552 134.667C362.648 135.068 362.845 135.372 363.143 135.578C363.441 135.78 363.83 135.881 364.309 135.881C364.831 135.881 365.249 135.773 365.561 135.557C365.874 135.336 366.03 135.068 366.03 134.752C366.03 134.497 365.934 134.282 365.742 134.108C365.554 133.934 365.265 133.802 364.874 133.713L363.489 133.41C362.726 133.236 362.161 132.959 361.795 132.579C361.433 132.199 361.252 131.718 361.252 131.135C361.252 130.652 361.387 130.23 361.657 129.868C361.927 129.505 362.299 129.223 362.775 129.021C363.251 128.815 363.796 128.712 364.411 128.712C365.295 128.712 365.991 128.903 366.499 129.287C367.007 129.667 367.342 130.177 367.505 130.816Z" fill="#70707B"/>
<path d="M373.236 128.818V130.097H368.767V128.818H373.236ZM369.965 126.858H371.558V134.598C371.558 134.907 371.604 135.139 371.696 135.296C371.789 135.448 371.908 135.553 372.053 135.61C372.202 135.663 372.364 135.69 372.538 135.69C372.666 135.69 372.778 135.681 372.873 135.663C372.969 135.645 373.044 135.631 373.097 135.62L373.385 136.936C373.292 136.972 373.161 137.007 372.991 137.043C372.82 137.082 372.607 137.103 372.351 137.107C371.932 137.114 371.542 137.039 371.18 136.883C370.817 136.727 370.524 136.485 370.301 136.158C370.077 135.832 369.965 135.422 369.965 134.928V126.858Z" fill="#70707B"/>
<path d="M376.047 137.101C375.756 137.101 375.505 136.998 375.296 136.792C375.086 136.583 374.981 136.331 374.981 136.036C374.981 135.745 375.086 135.496 375.296 135.29C375.505 135.081 375.756 134.976 376.047 134.976C376.338 134.976 376.588 135.081 376.798 135.29C377.007 135.496 377.112 135.745 377.112 136.036C377.112 136.231 377.062 136.411 376.963 136.574C376.867 136.734 376.739 136.862 376.579 136.957C376.42 137.053 376.242 137.101 376.047 137.101Z" fill="#70707B"/>
<path d="M380.295 137.101C380.004 137.101 379.753 136.998 379.544 136.792C379.334 136.583 379.23 136.331 379.23 136.036C379.23 135.745 379.334 135.496 379.544 135.29C379.753 135.081 380.004 134.976 380.295 134.976C380.586 134.976 380.836 135.081 381.046 135.29C381.255 135.496 381.36 135.745 381.36 136.036C381.36 136.231 381.311 136.411 381.211 136.574C381.115 136.734 380.987 136.862 380.828 136.957C380.668 137.053 380.49 137.101 380.295 137.101Z" fill="#70707B"/>
<path d="M384.543 137.101C384.252 137.101 384.001 136.998 383.792 136.792C383.582 136.583 383.478 136.331 383.478 136.036C383.478 135.745 383.582 135.496 383.792 135.29C384.001 135.081 384.252 134.976 384.543 134.976C384.834 134.976 385.084 135.081 385.294 135.29C385.504 135.496 385.608 135.745 385.608 136.036C385.608 136.231 385.559 136.411 385.459 136.574C385.363 136.734 385.235 136.862 385.076 136.957C384.916 137.053 384.738 137.101 384.543 137.101Z" fill="#70707B"/>
<path d="M165.199 162V151.091H166.845V160.583H171.788V162H165.199Z" fill="#70707B"/>
<path d="M173.538 162V153.818H175.13V162H173.538ZM174.342 152.556C174.065 152.556 173.827 152.463 173.628 152.279C173.433 152.091 173.335 151.867 173.335 151.608C173.335 151.345 173.433 151.121 173.628 150.936C173.827 150.748 174.065 150.654 174.342 150.654C174.619 150.654 174.855 150.748 175.05 150.936C175.249 151.121 175.349 151.345 175.349 151.608C175.349 151.867 175.249 152.091 175.05 152.279C174.855 152.463 174.619 152.556 174.342 152.556Z" fill="#70707B"/>
<path d="M178.866 157.142V162H177.273V153.818H178.802V155.15H178.903C179.091 154.717 179.386 154.369 179.787 154.106C180.192 153.843 180.701 153.712 181.316 153.712C181.873 153.712 182.362 153.829 182.781 154.063C183.2 154.294 183.525 154.639 183.755 155.097C183.986 155.555 184.102 156.121 184.102 156.796V162H182.509V156.988C182.509 156.395 182.355 155.931 182.046 155.597C181.737 155.26 181.312 155.091 180.773 155.091C180.403 155.091 180.075 155.171 179.787 155.331C179.503 155.491 179.277 155.725 179.111 156.034C178.947 156.34 178.866 156.709 178.866 157.142Z" fill="#70707B"/>
<path d="M187.703 159.225L187.692 157.281H187.969L191.229 153.818H193.136L189.418 157.76H189.167L187.703 159.225ZM186.238 162V151.091H187.83V162H186.238ZM191.405 162L188.475 158.112L189.572 156.998L193.36 162H191.405Z" fill="#70707B"/>
<path d="M197.777 162.165C196.971 162.165 196.276 161.993 195.694 161.648C195.115 161.3 194.668 160.812 194.352 160.184C194.039 159.552 193.883 158.811 193.883 157.962C193.883 157.124 194.039 156.386 194.352 155.746C194.668 155.107 195.108 154.608 195.673 154.25C196.241 153.891 196.905 153.712 197.665 153.712C198.126 153.712 198.574 153.788 199.007 153.941C199.44 154.093 199.829 154.333 200.174 154.66C200.518 154.987 200.79 155.411 200.989 155.933C201.188 156.451 201.287 157.082 201.287 157.824V158.389H194.783V157.195H199.726C199.726 156.776 199.641 156.405 199.471 156.082C199.3 155.755 199.06 155.498 198.751 155.31C198.446 155.122 198.087 155.027 197.675 155.027C197.228 155.027 196.837 155.137 196.504 155.358C196.173 155.574 195.918 155.858 195.737 156.21C195.559 156.558 195.47 156.936 195.47 157.345V158.277C195.47 158.824 195.566 159.289 195.758 159.672C195.953 160.056 196.225 160.349 196.573 160.551C196.921 160.75 197.327 160.849 197.793 160.849C198.095 160.849 198.37 160.807 198.618 160.722C198.867 160.633 199.082 160.501 199.263 160.327C199.444 160.153 199.582 159.939 199.678 159.683L201.186 159.955C201.065 160.398 200.848 160.787 200.536 161.121C200.227 161.451 199.838 161.709 199.369 161.894C198.904 162.075 198.373 162.165 197.777 162.165Z" fill="#70707B"/>
<path d="M206.117 162.16C205.456 162.16 204.867 161.991 204.348 161.654C203.834 161.313 203.429 160.828 203.134 160.2C202.843 159.568 202.697 158.809 202.697 157.925C202.697 157.041 202.845 156.284 203.139 155.656C203.438 155.027 203.846 154.546 204.364 154.212C204.883 153.879 205.471 153.712 206.128 153.712C206.635 153.712 207.044 153.797 207.353 153.967C207.665 154.134 207.907 154.33 208.077 154.553C208.251 154.777 208.386 154.974 208.482 155.145H208.578V151.091H210.171V162H208.615V160.727H208.482C208.386 160.901 208.248 161.1 208.067 161.324C207.889 161.547 207.644 161.743 207.331 161.91C207.019 162.076 206.614 162.16 206.117 162.16ZM206.469 160.802C206.927 160.802 207.314 160.681 207.63 160.439C207.949 160.194 208.191 159.855 208.354 159.422C208.521 158.989 208.605 158.484 208.605 157.909C208.605 157.341 208.523 156.844 208.36 156.418C208.196 155.992 207.956 155.659 207.64 155.422C207.324 155.184 206.934 155.065 206.469 155.065C205.989 155.065 205.59 155.189 205.27 155.438C204.95 155.686 204.709 156.025 204.546 156.455C204.386 156.885 204.306 157.369 204.306 157.909C204.306 158.456 204.388 158.948 204.551 159.385C204.714 159.821 204.956 160.168 205.275 160.423C205.599 160.675 205.996 160.802 206.469 160.802Z" fill="#70707B"/>
<path d="M214.218 151.091V162H212.572V151.091H214.218Z" fill="#70707B"/>
<path d="M218.079 157.142V162H216.487V153.818H218.015V155.15H218.117C218.305 154.717 218.6 154.369 219.001 154.106C219.406 153.843 219.915 153.712 220.53 153.712C221.087 153.712 221.576 153.829 221.995 154.063C222.414 154.294 222.739 154.639 222.969 155.097C223.2 155.555 223.316 156.121 223.316 156.796V162H221.723V156.988C221.723 156.395 221.568 155.931 221.259 155.597C220.951 155.26 220.526 155.091 219.986 155.091C219.617 155.091 219.289 155.171 219.001 155.331C218.717 155.491 218.491 155.725 218.324 156.034C218.161 156.34 218.079 156.709 218.079 157.142Z" fill="#70707B"/>
<path d="M229.549 151.091H231.547L235.02 159.571H235.148L238.621 151.091H240.618V162H239.052V154.106H238.951L235.733 161.984H234.434L231.216 154.101H231.115V162H229.549V151.091Z" fill="#70707B"/>
<path d="M246.409 162.165C245.603 162.165 244.909 161.993 244.327 161.648C243.748 161.3 243.3 160.812 242.984 160.184C242.672 159.552 242.516 158.811 242.516 157.962C242.516 157.124 242.672 156.386 242.984 155.746C243.3 155.107 243.741 154.608 244.305 154.25C244.874 153.891 245.538 153.712 246.298 153.712C246.759 153.712 247.207 153.788 247.64 153.941C248.073 154.093 248.462 154.333 248.807 154.66C249.151 154.987 249.423 155.411 249.621 155.933C249.82 156.451 249.92 157.082 249.92 157.824V158.389H243.416V157.195H248.359C248.359 156.776 248.274 156.405 248.103 156.082C247.933 155.755 247.693 155.498 247.384 155.31C247.079 155.122 246.72 155.027 246.308 155.027C245.861 155.027 245.47 155.137 245.136 155.358C244.806 155.574 244.55 155.858 244.369 156.21C244.192 156.558 244.103 156.936 244.103 157.345V158.277C244.103 158.824 244.199 159.289 244.391 159.672C244.586 160.056 244.858 160.349 245.206 160.551C245.554 160.75 245.96 160.849 246.425 160.849C246.727 160.849 247.003 160.807 247.251 160.722C247.5 160.633 247.715 160.501 247.896 160.327C248.077 160.153 248.215 159.939 248.311 159.683L249.819 159.955C249.698 160.398 249.481 160.787 249.169 161.121C248.86 161.451 248.471 161.709 248.002 161.894C247.537 162.075 247.006 162.165 246.409 162.165Z" fill="#70707B"/>
<path d="M257.818 155.816L256.374 156.071C256.314 155.887 256.218 155.711 256.087 155.544C255.959 155.377 255.785 155.24 255.565 155.134C255.345 155.027 255.069 154.974 254.739 154.974C254.288 154.974 253.912 155.075 253.61 155.278C253.308 155.477 253.157 155.734 253.157 156.05C253.157 156.324 253.258 156.544 253.461 156.711C253.663 156.878 253.99 157.014 254.441 157.121L255.741 157.419C256.493 157.593 257.054 157.861 257.424 158.223C257.793 158.586 257.978 159.056 257.978 159.635C257.978 160.125 257.836 160.562 257.552 160.945C257.271 161.325 256.879 161.624 256.374 161.84C255.874 162.057 255.293 162.165 254.633 162.165C253.716 162.165 252.969 161.97 252.39 161.579C251.811 161.185 251.456 160.626 251.325 159.901L252.864 159.667C252.96 160.068 253.157 160.372 253.455 160.578C253.754 160.78 254.143 160.881 254.622 160.881C255.144 160.881 255.561 160.773 255.874 160.557C256.186 160.336 256.342 160.068 256.342 159.752C256.342 159.496 256.247 159.282 256.055 159.108C255.867 158.934 255.577 158.802 255.187 158.713L253.802 158.41C253.038 158.236 252.474 157.959 252.108 157.579C251.746 157.199 251.564 156.718 251.564 156.135C251.564 155.652 251.699 155.23 251.969 154.868C252.239 154.505 252.612 154.223 253.088 154.021C253.564 153.815 254.109 153.712 254.723 153.712C255.607 153.712 256.303 153.903 256.811 154.287C257.319 154.667 257.655 155.177 257.818 155.816Z" fill="#70707B"/>
<path d="M265.86 155.816L264.416 156.071C264.356 155.887 264.26 155.711 264.129 155.544C264.001 155.377 263.827 155.24 263.607 155.134C263.387 155.027 263.111 154.974 262.781 154.974C262.33 154.974 261.954 155.075 261.652 155.278C261.35 155.477 261.199 155.734 261.199 156.05C261.199 156.324 261.3 156.544 261.503 156.711C261.705 156.878 262.032 157.014 262.483 157.121L263.783 157.419C264.535 157.593 265.096 157.861 265.466 158.223C265.835 158.586 266.02 159.056 266.02 159.635C266.02 160.125 265.878 160.562 265.594 160.945C265.313 161.325 264.921 161.624 264.416 161.84C263.916 162.057 263.335 162.165 262.675 162.165C261.758 162.165 261.011 161.97 260.432 161.579C259.853 161.185 259.498 160.626 259.367 159.901L260.906 159.667C261.002 160.068 261.199 160.372 261.497 160.578C261.796 160.78 262.185 160.881 262.664 160.881C263.186 160.881 263.603 160.773 263.916 160.557C264.228 160.336 264.384 160.068 264.384 159.752C264.384 159.496 264.289 159.282 264.097 159.108C263.909 158.934 263.619 158.802 263.229 158.713L261.844 158.41C261.08 158.236 260.515 157.959 260.15 157.579C259.788 157.199 259.606 156.718 259.606 156.135C259.606 155.652 259.741 155.23 260.011 154.868C260.281 154.505 260.654 154.223 261.13 154.021C261.606 153.815 262.151 153.712 262.765 153.712C263.649 153.712 264.345 153.903 264.853 154.287C265.361 154.667 265.697 155.177 265.86 155.816Z" fill="#70707B"/>
<path d="M270.152 162.181C269.633 162.181 269.165 162.085 268.746 161.894C268.327 161.698 267.995 161.416 267.75 161.047C267.508 160.677 267.387 160.224 267.387 159.688C267.387 159.227 267.476 158.847 267.654 158.548C267.831 158.25 268.071 158.014 268.373 157.84C268.675 157.666 269.012 157.535 269.385 157.446C269.758 157.357 270.138 157.289 270.525 157.243C271.015 157.186 271.413 157.14 271.718 157.105C272.023 157.066 272.245 157.004 272.384 156.918C272.522 156.833 272.592 156.695 272.592 156.503V156.466C272.592 156 272.46 155.64 272.197 155.384C271.938 155.129 271.551 155.001 271.036 155.001C270.5 155.001 270.077 155.12 269.768 155.358C269.463 155.592 269.252 155.853 269.135 156.141L267.638 155.8C267.815 155.303 268.075 154.901 268.415 154.596C268.76 154.287 269.156 154.063 269.603 153.925C270.051 153.783 270.521 153.712 271.015 153.712C271.342 153.712 271.688 153.751 272.054 153.829C272.423 153.903 272.767 154.042 273.087 154.244C273.41 154.447 273.675 154.736 273.881 155.113C274.087 155.485 274.19 155.97 274.19 156.567V162H272.634V160.881H272.57C272.467 161.087 272.313 161.29 272.107 161.489C271.901 161.688 271.636 161.853 271.313 161.984C270.99 162.115 270.603 162.181 270.152 162.181ZM270.498 160.903C270.939 160.903 271.315 160.816 271.627 160.642C271.943 160.468 272.183 160.24 272.347 159.96C272.513 159.676 272.597 159.372 272.597 159.049V157.994C272.54 158.051 272.43 158.104 272.267 158.154C272.107 158.2 271.924 158.241 271.718 158.277C271.512 158.309 271.311 158.339 271.116 158.367C270.921 158.392 270.757 158.413 270.626 158.431C270.317 158.47 270.035 158.536 269.779 158.628C269.527 158.721 269.325 158.854 269.172 159.028C269.023 159.198 268.948 159.425 268.948 159.71C268.948 160.104 269.094 160.402 269.385 160.604C269.676 160.803 270.047 160.903 270.498 160.903Z" fill="#70707B"/>
<path d="M279.741 165.239C279.091 165.239 278.532 165.153 278.063 164.983C277.598 164.813 277.218 164.587 276.924 164.307C276.629 164.026 276.409 163.719 276.263 163.385L277.632 162.82C277.728 162.977 277.856 163.142 278.015 163.316C278.179 163.493 278.399 163.644 278.676 163.769C278.957 163.893 279.317 163.955 279.757 163.955C280.361 163.955 280.86 163.808 281.254 163.513C281.648 163.222 281.845 162.756 281.845 162.117V160.509H281.744C281.648 160.683 281.51 160.876 281.329 161.089C281.151 161.302 280.906 161.487 280.594 161.643C280.281 161.799 279.875 161.878 279.374 161.878C278.727 161.878 278.145 161.727 277.627 161.425C277.112 161.119 276.703 160.67 276.402 160.077C276.103 159.481 275.954 158.747 275.954 157.877C275.954 157.007 276.101 156.261 276.396 155.64C276.694 155.019 277.103 154.543 277.621 154.212C278.14 153.879 278.727 153.712 279.384 153.712C279.892 153.712 280.302 153.797 280.615 153.967C280.927 154.134 281.171 154.33 281.345 154.553C281.522 154.777 281.659 154.974 281.755 155.145H281.872V153.818H283.433V162.181C283.433 162.884 283.269 163.461 282.943 163.912C282.616 164.363 282.174 164.697 281.616 164.914C281.062 165.13 280.437 165.239 279.741 165.239ZM279.725 160.557C280.183 160.557 280.571 160.45 280.887 160.237C281.206 160.02 281.448 159.711 281.611 159.31C281.778 158.905 281.861 158.421 281.861 157.856C281.861 157.305 281.78 156.821 281.616 156.402C281.453 155.983 281.213 155.656 280.897 155.422C280.581 155.184 280.191 155.065 279.725 155.065C279.246 155.065 278.846 155.189 278.527 155.438C278.207 155.683 277.966 156.016 277.802 156.439C277.643 156.862 277.563 157.334 277.563 157.856C277.563 158.392 277.644 158.863 277.808 159.267C277.971 159.672 278.213 159.988 278.532 160.216C278.855 160.443 279.253 160.557 279.725 160.557Z" fill="#70707B"/>
<path d="M289.095 162.165C288.289 162.165 287.595 161.993 287.012 161.648C286.433 161.3 285.986 160.812 285.67 160.184C285.357 159.552 285.201 158.811 285.201 157.962C285.201 157.124 285.357 156.386 285.67 155.746C285.986 155.107 286.426 154.608 286.991 154.25C287.559 153.891 288.223 153.712 288.983 153.712C289.445 153.712 289.892 153.788 290.326 153.941C290.759 154.093 291.148 154.333 291.492 154.66C291.837 154.987 292.108 155.411 292.307 155.933C292.506 156.451 292.605 157.082 292.605 157.824V158.389H286.101V157.195H291.045C291.045 156.776 290.959 156.405 290.789 156.082C290.618 155.755 290.379 155.498 290.07 155.31C289.764 155.122 289.406 155.027 288.994 155.027C288.546 155.027 288.156 155.137 287.822 155.358C287.492 155.574 287.236 155.858 287.055 156.21C286.877 156.558 286.789 156.936 286.789 157.345V158.277C286.789 158.824 286.884 159.289 287.076 159.672C287.272 160.056 287.543 160.349 287.891 160.551C288.239 160.75 288.646 160.849 289.111 160.849C289.413 160.849 289.688 160.807 289.937 160.722C290.185 160.633 290.4 160.501 290.581 160.327C290.762 160.153 290.901 159.939 290.997 159.683L292.504 159.955C292.383 160.398 292.167 160.787 291.854 161.121C291.545 161.451 291.156 161.709 290.688 161.894C290.223 162.075 289.692 162.165 289.095 162.165Z" fill="#70707B"/>
<path d="M295.422 162.101C295.131 162.101 294.88 161.998 294.671 161.792C294.461 161.583 294.356 161.331 294.356 161.036C294.356 160.745 294.461 160.496 294.671 160.29C294.88 160.081 295.131 159.976 295.422 159.976C295.713 159.976 295.963 160.081 296.173 160.29C296.382 160.496 296.487 160.745 296.487 161.036C296.487 161.231 296.437 161.411 296.338 161.574C296.242 161.734 296.114 161.862 295.954 161.957C295.795 162.053 295.617 162.101 295.422 162.101Z" fill="#70707B"/>
<path d="M299.67 162.101C299.379 162.101 299.128 161.998 298.919 161.792C298.709 161.583 298.605 161.331 298.605 161.036C298.605 160.745 298.709 160.496 298.919 160.29C299.128 160.081 299.379 159.976 299.67 159.976C299.961 159.976 300.211 160.081 300.421 160.29C300.63 160.496 300.735 160.745 300.735 161.036C300.735 161.231 300.686 161.411 300.586 161.574C300.49 161.734 300.362 161.862 300.203 161.957C300.043 162.053 299.865 162.101 299.67 162.101Z" fill="#70707B"/>
<path d="M303.918 162.101C303.627 162.101 303.376 161.998 303.167 161.792C302.957 161.583 302.853 161.331 302.853 161.036C302.853 160.745 302.957 160.496 303.167 160.29C303.376 160.081 303.627 159.976 303.918 159.976C304.209 159.976 304.459 160.081 304.669 160.29C304.879 160.496 304.983 160.745 304.983 161.036C304.983 161.231 304.934 161.411 304.834 161.574C304.738 161.734 304.61 161.862 304.451 161.957C304.291 162.053 304.113 162.101 303.918 162.101Z" fill="#70707B"/>
<path d="M171.148 178.957C171.092 178.452 170.857 178.062 170.445 177.785C170.033 177.504 169.515 177.364 168.89 177.364C168.443 177.364 168.055 177.435 167.729 177.577C167.402 177.716 167.148 177.907 166.967 178.152C166.789 178.394 166.701 178.669 166.701 178.978C166.701 179.237 166.761 179.461 166.882 179.649C167.006 179.837 167.168 179.995 167.367 180.123C167.569 180.248 167.786 180.352 168.016 180.438C168.247 180.519 168.469 180.587 168.682 180.64L169.748 180.917C170.096 181.002 170.452 181.118 170.818 181.263C171.184 181.409 171.523 181.601 171.836 181.838C172.148 182.076 172.4 182.371 172.592 182.723C172.787 183.074 172.885 183.495 172.885 183.985C172.885 184.603 172.725 185.152 172.406 185.631C172.09 186.11 171.63 186.489 171.026 186.766C170.426 187.043 169.7 187.181 168.847 187.181C168.031 187.181 167.324 187.052 166.727 186.792C166.131 186.533 165.664 186.166 165.326 185.69C164.989 185.21 164.803 184.642 164.767 183.985H166.418C166.45 184.379 166.578 184.708 166.802 184.971C167.029 185.23 167.319 185.423 167.67 185.551C168.025 185.675 168.414 185.738 168.837 185.738C169.302 185.738 169.716 185.665 170.078 185.519C170.444 185.37 170.731 185.164 170.941 184.901C171.15 184.635 171.255 184.324 171.255 183.969C171.255 183.646 171.163 183.381 170.978 183.175C170.797 182.97 170.55 182.799 170.238 182.664C169.929 182.529 169.579 182.41 169.188 182.307L167.899 181.956C167.026 181.718 166.333 181.368 165.822 180.906C165.314 180.445 165.06 179.834 165.06 179.074C165.06 178.445 165.231 177.897 165.571 177.428C165.912 176.959 166.374 176.595 166.956 176.336C167.539 176.073 168.196 175.942 168.927 175.942C169.666 175.942 170.318 176.071 170.882 176.331C171.45 176.59 171.898 176.947 172.224 177.401C172.551 177.852 172.722 178.371 172.736 178.957H171.148Z" fill="#70707B"/>
<path d="M178.17 187.165C177.403 187.165 176.734 186.989 176.162 186.638C175.591 186.286 175.147 185.794 174.831 185.162C174.515 184.53 174.356 183.792 174.356 182.946C174.356 182.098 174.515 181.356 174.831 180.72C175.147 180.084 175.591 179.591 176.162 179.239C176.734 178.887 177.403 178.712 178.17 178.712C178.937 178.712 179.607 178.887 180.179 179.239C180.75 179.591 181.194 180.084 181.51 180.72C181.826 181.356 181.984 182.098 181.984 182.946C181.984 183.792 181.826 184.53 181.51 185.162C181.194 185.794 180.75 186.286 180.179 186.638C179.607 186.989 178.937 187.165 178.17 187.165ZM178.176 185.828C178.673 185.828 179.085 185.697 179.412 185.434C179.738 185.171 179.98 184.821 180.136 184.385C180.296 183.948 180.376 183.467 180.376 182.941C180.376 182.419 180.296 181.94 180.136 181.503C179.98 181.063 179.738 180.709 179.412 180.443C179.085 180.177 178.673 180.043 178.176 180.043C177.675 180.043 177.26 180.177 176.929 180.443C176.603 180.709 176.359 181.063 176.2 181.503C176.043 181.94 175.965 182.419 175.965 182.941C175.965 183.467 176.043 183.948 176.2 184.385C176.359 184.821 176.603 185.171 176.929 185.434C177.26 185.697 177.675 185.828 178.176 185.828Z" fill="#70707B"/>
<path d="M187.208 187.165C186.417 187.165 185.735 186.986 185.163 186.627C184.595 186.265 184.158 185.766 183.853 185.13C183.547 184.495 183.395 183.767 183.395 182.946C183.395 182.115 183.551 181.382 183.863 180.746C184.176 180.107 184.616 179.608 185.184 179.25C185.753 178.891 186.422 178.712 187.193 178.712C187.814 178.712 188.368 178.827 188.854 179.058C189.341 179.285 189.733 179.605 190.032 180.017C190.333 180.429 190.513 180.91 190.57 181.46H189.02C188.934 181.077 188.739 180.746 188.434 180.47C188.132 180.193 187.727 180.054 187.219 180.054C186.775 180.054 186.386 180.171 186.053 180.406C185.722 180.636 185.465 180.967 185.28 181.396C185.096 181.823 185.003 182.327 185.003 182.909C185.003 183.506 185.094 184.021 185.275 184.454C185.456 184.887 185.712 185.223 186.042 185.461C186.376 185.699 186.768 185.818 187.219 185.818C187.521 185.818 187.794 185.762 188.039 185.652C188.288 185.539 188.496 185.377 188.663 185.168C188.833 184.958 188.952 184.706 189.02 184.411H190.57C190.513 184.94 190.341 185.413 190.053 185.828C189.765 186.244 189.38 186.57 188.897 186.808C188.418 187.046 187.855 187.165 187.208 187.165Z" fill="#70707B"/>
<path d="M192.273 187V178.818H193.866V187H192.273ZM193.077 177.556C192.8 177.556 192.562 177.463 192.363 177.279C192.168 177.091 192.07 176.867 192.07 176.608C192.07 176.345 192.168 176.121 192.363 175.936C192.562 175.748 192.8 175.654 193.077 175.654C193.354 175.654 193.59 175.748 193.786 175.936C193.985 176.121 194.084 176.345 194.084 176.608C194.084 176.867 193.985 177.091 193.786 177.279C193.59 177.463 193.354 177.556 193.077 177.556Z" fill="#70707B"/>
<path d="M198.389 187.181C197.871 187.181 197.402 187.085 196.983 186.894C196.564 186.698 196.232 186.416 195.987 186.047C195.745 185.677 195.625 185.224 195.625 184.688C195.625 184.227 195.713 183.847 195.891 183.548C196.069 183.25 196.308 183.014 196.61 182.84C196.912 182.666 197.249 182.535 197.622 182.446C197.995 182.357 198.375 182.289 198.762 182.243C199.252 182.186 199.65 182.14 199.955 182.105C200.261 182.066 200.483 182.004 200.621 181.918C200.76 181.833 200.829 181.695 200.829 181.503V181.466C200.829 181 200.697 180.64 200.435 180.384C200.175 180.129 199.788 180.001 199.273 180.001C198.737 180.001 198.315 180.12 198.006 180.358C197.7 180.592 197.489 180.853 197.372 181.141L195.875 180.8C196.053 180.303 196.312 179.901 196.653 179.596C196.997 179.287 197.393 179.063 197.841 178.925C198.288 178.783 198.759 178.712 199.252 178.712C199.579 178.712 199.925 178.751 200.291 178.829C200.66 178.903 201.005 179.042 201.324 179.244C201.647 179.447 201.912 179.736 202.118 180.113C202.324 180.485 202.427 180.97 202.427 181.567V187H200.871V185.881H200.808C200.705 186.087 200.55 186.29 200.344 186.489C200.138 186.688 199.874 186.853 199.55 186.984C199.227 187.115 198.84 187.181 198.389 187.181ZM198.735 185.903C199.176 185.903 199.552 185.816 199.865 185.642C200.181 185.468 200.421 185.24 200.584 184.96C200.751 184.676 200.834 184.372 200.834 184.049V182.994C200.777 183.051 200.667 183.104 200.504 183.154C200.344 183.2 200.161 183.241 199.955 183.277C199.749 183.309 199.549 183.339 199.353 183.367C199.158 183.392 198.995 183.413 198.863 183.431C198.554 183.47 198.272 183.536 198.016 183.628C197.764 183.721 197.562 183.854 197.409 184.028C197.26 184.198 197.185 184.425 197.185 184.71C197.185 185.104 197.331 185.402 197.622 185.604C197.913 185.803 198.284 185.903 198.735 185.903Z" fill="#70707B"/>
<path d="M206.141 176.091V187H204.548V176.091H206.141Z" fill="#70707B"/>
<path d="M212.381 176.091H214.379L217.852 184.571H217.98L221.453 176.091H223.45V187H221.884V179.106H221.783L218.565 186.984H217.266L214.048 179.101H213.947V187H212.381V176.091Z" fill="#70707B"/>
<path d="M229.242 187.165C228.435 187.165 227.741 186.993 227.159 186.648C226.58 186.3 226.133 185.812 225.816 185.184C225.504 184.552 225.348 183.811 225.348 182.962C225.348 182.124 225.504 181.386 225.816 180.746C226.133 180.107 226.573 179.608 227.137 179.25C227.706 178.891 228.37 178.712 229.13 178.712C229.591 178.712 230.039 178.788 230.472 178.941C230.905 179.093 231.294 179.333 231.639 179.66C231.983 179.987 232.255 180.411 232.454 180.933C232.652 181.451 232.752 182.082 232.752 182.824V183.389H226.248V182.195H231.191C231.191 181.776 231.106 181.405 230.935 181.082C230.765 180.755 230.525 180.498 230.216 180.31C229.911 180.122 229.552 180.027 229.14 180.027C228.693 180.027 228.302 180.137 227.968 180.358C227.638 180.574 227.383 180.858 227.201 181.21C227.024 181.558 226.935 181.936 226.935 182.345V183.277C226.935 183.824 227.031 184.289 227.223 184.672C227.418 185.056 227.69 185.349 228.038 185.551C228.386 185.75 228.792 185.849 229.257 185.849C229.559 185.849 229.835 185.807 230.083 185.722C230.332 185.633 230.547 185.501 230.728 185.327C230.909 185.153 231.047 184.939 231.143 184.683L232.651 184.955C232.53 185.398 232.313 185.787 232.001 186.121C231.692 186.451 231.303 186.709 230.834 186.894C230.369 187.075 229.838 187.165 229.242 187.165Z" fill="#70707B"/>
<path d="M237.582 187.16C236.921 187.16 236.332 186.991 235.813 186.654C235.298 186.313 234.894 185.828 234.599 185.2C234.308 184.568 234.162 183.809 234.162 182.925C234.162 182.041 234.309 181.284 234.604 180.656C234.902 180.027 235.311 179.546 235.829 179.212C236.348 178.879 236.936 178.712 237.592 178.712C238.1 178.712 238.509 178.797 238.818 178.967C239.13 179.134 239.372 179.33 239.542 179.553C239.716 179.777 239.851 179.974 239.947 180.145H240.043V176.091H241.635V187H240.08V185.727H239.947C239.851 185.901 239.712 186.1 239.531 186.324C239.354 186.547 239.109 186.743 238.796 186.91C238.484 187.076 238.079 187.16 237.582 187.16ZM237.933 185.802C238.391 185.802 238.779 185.681 239.095 185.439C239.414 185.194 239.656 184.855 239.819 184.422C239.986 183.989 240.069 183.484 240.069 182.909C240.069 182.341 239.988 181.844 239.824 181.418C239.661 180.992 239.421 180.659 239.105 180.422C238.789 180.184 238.399 180.065 237.933 180.065C237.454 180.065 237.054 180.189 236.735 180.438C236.415 180.686 236.174 181.025 236.01 181.455C235.851 181.885 235.771 182.369 235.771 182.909C235.771 183.456 235.852 183.948 236.016 184.385C236.179 184.821 236.421 185.168 236.74 185.423C237.063 185.675 237.461 185.802 237.933 185.802Z" fill="#70707B"/>
<path d="M243.909 187V178.818H245.501V187H243.909ZM244.713 177.556C244.436 177.556 244.198 177.463 243.999 177.279C243.804 177.091 243.706 176.867 243.706 176.608C243.706 176.345 243.804 176.121 243.999 175.936C244.198 175.748 244.436 175.654 244.713 175.654C244.99 175.654 245.226 175.748 245.421 175.936C245.62 176.121 245.72 176.345 245.72 176.608C245.72 176.867 245.62 177.091 245.421 177.279C245.226 177.463 244.99 177.556 244.713 177.556Z" fill="#70707B"/>
<path d="M250.025 187.181C249.507 187.181 249.038 187.085 248.619 186.894C248.2 186.698 247.868 186.416 247.623 186.047C247.381 185.677 247.26 185.224 247.26 184.688C247.26 184.227 247.349 183.847 247.527 183.548C247.704 183.25 247.944 183.014 248.246 182.84C248.548 182.666 248.885 182.535 249.258 182.446C249.631 182.357 250.011 182.289 250.398 182.243C250.888 182.186 251.286 182.14 251.591 182.105C251.896 182.066 252.118 182.004 252.257 181.918C252.395 181.833 252.465 181.695 252.465 181.503V181.466C252.465 181 252.333 180.64 252.07 180.384C251.811 180.129 251.424 180.001 250.909 180.001C250.373 180.001 249.95 180.12 249.641 180.358C249.336 180.592 249.125 180.853 249.008 181.141L247.511 180.8C247.688 180.303 247.948 179.901 248.288 179.596C248.633 179.287 249.029 179.063 249.476 178.925C249.924 178.783 250.394 178.712 250.888 178.712C251.215 178.712 251.561 178.751 251.927 178.829C252.296 178.903 252.64 179.042 252.96 179.244C253.283 179.447 253.548 179.736 253.754 180.113C253.96 180.485 254.063 180.97 254.063 181.567V187H252.507V185.881H252.443C252.34 186.087 252.186 186.29 251.98 186.489C251.774 186.688 251.509 186.853 251.186 186.984C250.863 187.115 250.476 187.181 250.025 187.181ZM250.371 185.903C250.812 185.903 251.188 185.816 251.5 185.642C251.817 185.468 252.056 185.24 252.22 184.96C252.386 184.676 252.47 184.372 252.47 184.049V182.994C252.413 183.051 252.303 183.104 252.14 183.154C251.98 183.2 251.797 183.241 251.591 183.277C251.385 183.309 251.184 183.339 250.989 183.367C250.794 183.392 250.63 183.413 250.499 183.431C250.19 183.47 249.908 183.536 249.652 183.628C249.4 183.721 249.198 183.854 249.045 184.028C248.896 184.198 248.821 184.425 248.821 184.71C248.821 185.104 248.967 185.402 249.258 185.604C249.549 185.803 249.92 185.903 250.371 185.903Z" fill="#70707B"/>
<path d="M260.282 187V176.091H264.17C265.019 176.091 265.722 176.245 266.279 176.554C266.837 176.863 267.254 177.286 267.531 177.822C267.808 178.355 267.947 178.955 267.947 179.623C267.947 180.294 267.806 180.897 267.526 181.434C267.249 181.966 266.83 182.389 266.269 182.701C265.711 183.01 265.01 183.165 264.165 183.165H261.491V181.769H264.016C264.552 181.769 264.987 181.677 265.321 181.492C265.654 181.304 265.899 181.048 266.056 180.725C266.212 180.402 266.29 180.035 266.29 179.623C266.29 179.211 266.212 178.845 266.056 178.525C265.899 178.206 265.653 177.955 265.315 177.774C264.981 177.593 264.541 177.503 263.994 177.503H261.928V187H260.282Z" fill="#70707B"/>
<path d="M273.092 187.165C272.325 187.165 271.656 186.989 271.084 186.638C270.512 186.286 270.068 185.794 269.752 185.162C269.436 184.53 269.278 183.792 269.278 182.946C269.278 182.098 269.436 181.356 269.752 180.72C270.068 180.084 270.512 179.591 271.084 179.239C271.656 178.887 272.325 178.712 273.092 178.712C273.859 178.712 274.529 178.887 275.1 179.239C275.672 179.591 276.116 180.084 276.432 180.72C276.748 181.356 276.906 182.098 276.906 182.946C276.906 183.792 276.748 184.53 276.432 185.162C276.116 185.794 275.672 186.286 275.1 186.638C274.529 186.989 273.859 187.165 273.092 187.165ZM273.098 185.828C273.595 185.828 274.007 185.697 274.333 185.434C274.66 185.171 274.902 184.821 275.058 184.385C275.218 183.948 275.298 183.467 275.298 182.941C275.298 182.419 275.218 181.94 275.058 181.503C274.902 181.063 274.66 180.709 274.333 180.443C274.007 180.177 273.595 180.043 273.098 180.043C272.597 180.043 272.181 180.177 271.851 180.443C271.524 180.709 271.281 181.063 271.121 181.503C270.965 181.94 270.887 182.419 270.887 182.941C270.887 183.467 270.965 183.948 271.121 184.385C271.281 184.821 271.524 185.171 271.851 185.434C272.181 185.697 272.597 185.828 273.098 185.828Z" fill="#70707B"/>
<path d="M284.815 180.816L283.371 181.071C283.311 180.887 283.215 180.711 283.084 180.544C282.956 180.377 282.782 180.24 282.562 180.134C282.342 180.027 282.066 179.974 281.736 179.974C281.285 179.974 280.909 180.075 280.607 180.278C280.305 180.477 280.154 180.734 280.154 181.05C280.154 181.324 280.255 181.544 280.458 181.711C280.66 181.878 280.987 182.014 281.438 182.121L282.738 182.419C283.49 182.593 284.052 182.861 284.421 183.223C284.79 183.586 284.975 184.056 284.975 184.635C284.975 185.125 284.833 185.562 284.549 185.945C284.268 186.325 283.876 186.624 283.371 186.84C282.871 187.057 282.29 187.165 281.63 187.165C280.713 187.165 279.966 186.97 279.387 186.579C278.808 186.185 278.453 185.626 278.322 184.901L279.861 184.667C279.957 185.068 280.154 185.372 280.452 185.578C280.751 185.78 281.14 185.881 281.619 185.881C282.141 185.881 282.558 185.773 282.871 185.557C283.183 185.336 283.34 185.068 283.34 184.752C283.34 184.496 283.244 184.282 283.052 184.108C282.864 183.934 282.574 183.802 282.184 183.713L280.799 183.41C280.035 183.236 279.471 182.959 279.105 182.579C278.743 182.199 278.561 181.718 278.561 181.135C278.561 180.652 278.696 180.23 278.966 179.868C279.236 179.505 279.609 179.223 280.085 179.021C280.561 178.815 281.106 178.712 281.72 178.712C282.604 178.712 283.3 178.903 283.808 179.287C284.316 179.667 284.652 180.177 284.815 180.816Z" fill="#70707B"/>
<path d="M290.545 178.818V180.097H286.076V178.818H290.545ZM287.275 176.858H288.867V184.598C288.867 184.907 288.913 185.139 289.006 185.296C289.098 185.448 289.217 185.553 289.363 185.61C289.512 185.663 289.673 185.69 289.847 185.69C289.975 185.69 290.087 185.681 290.183 185.663C290.279 185.645 290.353 185.631 290.407 185.62L290.694 186.936C290.602 186.972 290.471 187.007 290.3 187.043C290.13 187.082 289.917 187.103 289.661 187.107C289.242 187.114 288.851 187.039 288.489 186.883C288.127 186.727 287.834 186.485 287.61 186.158C287.386 185.832 287.275 185.422 287.275 184.928V176.858Z" fill="#70707B"/>
<path d="M293.356 187.101C293.065 187.101 292.815 186.998 292.605 186.792C292.396 186.583 292.291 186.331 292.291 186.036C292.291 185.745 292.396 185.496 292.605 185.29C292.815 185.081 293.065 184.976 293.356 184.976C293.648 184.976 293.898 185.081 294.107 185.29C294.317 185.496 294.422 185.745 294.422 186.036C294.422 186.231 294.372 186.411 294.273 186.574C294.177 186.734 294.049 186.862 293.889 186.957C293.729 187.053 293.552 187.101 293.356 187.101Z" fill="#70707B"/>
<path d="M297.604 187.101C297.313 187.101 297.063 186.998 296.853 186.792C296.644 186.583 296.539 186.331 296.539 186.036C296.539 185.745 296.644 185.496 296.853 185.29C297.063 185.081 297.313 184.976 297.604 184.976C297.896 184.976 298.146 185.081 298.356 185.29C298.565 185.496 298.67 185.745 298.67 186.036C298.67 186.231 298.62 186.411 298.521 186.574C298.425 186.734 298.297 186.862 298.137 186.957C297.977 187.053 297.8 187.101 297.604 187.101Z" fill="#70707B"/>
<path d="M301.852 187.101C301.561 187.101 301.311 186.998 301.101 186.792C300.892 186.583 300.787 186.331 300.787 186.036C300.787 185.745 300.892 185.496 301.101 185.29C301.311 185.081 301.561 184.976 301.852 184.976C302.144 184.976 302.394 185.081 302.604 185.29C302.813 185.496 302.918 185.745 302.918 186.036C302.918 186.231 302.868 186.411 302.769 186.574C302.673 186.734 302.545 186.862 302.385 186.957C302.225 187.053 302.048 187.101 301.852 187.101Z" fill="#70707B"/>
</g>
</g>
<defs>
<filter id="filter0_d_38_2346" x="122" y="-1" width="375" height="241" filterUnits="userSpaceOnUse" color-interpolation-filters="sRGB">
<feFlood flood-opacity="0" result="BackgroundImageFix"/>
<feColorMatrix in="SourceAlpha" type="matrix" values="0 0 0 0 0 0 0 0 0 0 0 0 0 0 0 0 0 0 127 0" result="hardAlpha"/>
<feOffset dx="5" dy="5"/>
<feGaussianBlur stdDeviation="15"/>
<feComposite in2="hardAlpha" operator="out"/>
<feColorMatrix type="matrix" values="0 0 0 0 0 0 0 0 0 0.396078 0 0 0 0 0.94902 0 0 0 0.1 0"/>
<feBlend mode="normal" in2="BackgroundImageFix" result="effect1_dropShadow_38_2346"/>
<feBlend mode="normal" in="SourceGraphic" in2="effect1_dropShadow_38_2346" result="shape"/>
</filter>
<filter id="filter1_d_38_2346" x="122" y="-1" width="375" height="241" filterUnits="userSpaceOnUse" color-interpolation-filters="sRGB">
<feFlood flood-opacity="0" result="BackgroundImageFix"/>
<feColorMatrix in="SourceAlpha" type="matrix" values="0 0 0 0 0 0 0 0 0 0 0 0 0 0 0 0 0 0 127 0" result="hardAlpha"/>
<feOffset dx="5" dy="5"/>
<feGaussianBlur stdDeviation="15"/>
<feComposite in2="hardAlpha" operator="out"/>
<feColorMatrix type="matrix" values="0 0 0 0 0 0 0 0 0 0.396078 0 0 0 0 0.94902 0 0 0 0.1 0"/>
<feBlend mode="normal" in2="BackgroundImageFix" result="effect1_dropShadow_38_2346"/>
<feBlend mode="normal" in="SourceGraphic" in2="effect1_dropShadow_38_2346" result="shape"/>
</filter>
<clipPath id="clip0_38_2346">
<rect width="570" height="493" fill="white"/>
</clipPath>
</defs>
</svg>
