<?xml version="1.0" encoding="utf-8"?>
<!-- Generator: Adobe Illustrator 26.1.0, SVG Export Plug-In . SVG Version: 6.00 Build 0)  -->
<svg version="1.1" id="Layer_1" xmlns="http://www.w3.org/2000/svg" xmlns:xlink="http://www.w3.org/1999/xlink" x="0px" y="0px"
	 viewBox="0 0 500 150" style="enable-background:new 0 0 500 150;" xml:space="preserve">
<style type="text/css">
	.st0{fill:#484848;}
	.st1{fill:#4F458E;}
	.st2{fill:#504592;}
	.st3{fill:#474747;}
	.st4{fill:#5C4FA0;}
	.st5{fill:#494949;}
	.st6{fill:#7963C5;}
	.st7{fill:#7560C0;}
	.st8{fill:#6354AC;}
	.st9{fill:#6052A6;}
	.st10{fill:#715DBA;}
	.st11{fill:#534998;}
	.st12{fill:#7661C1;}
	.st13{fill:#4B4B4B;}
	.st14{fill:#4C4C4C;}
	.st15{fill:#4A4A4A;}
	.st16{fill:#5F52A6;}
</style>
<g id="DMjT3H_00000140697533846037677760000001429453576135979688_">
	<g>
		<path class="st0" d="M165.2,51.2c12.9,0,22.8,9.7,22.8,22.3c0,12.6-9.9,22.3-22.8,22.4c-12.8,0.1-22.7-9.7-22.7-22.4
			C142.5,60.8,152.3,51.1,165.2,51.2z M153.3,73.4c0,6.9,5,12.4,11.7,12.5c6.7,0.1,12.1-5.5,12.1-12.4c0-6.8-5.3-12.4-11.8-12.5
			C158.8,61,153.4,66.6,153.3,73.4z"/>
		<path class="st1" d="M115.5,107.8c-0.8,4.9-1,10-2.4,14.7c-2.2,7.3-8.4,10.3-15.4,11.7c-10.6,2.2-21,0.9-31.2-1.8
			c-7.4-1.9-14.6-4.8-21.9-7.3c0.8-0.5,1.6-1.3,2.6-1.5c4.1-1.1,8.3-2.1,12.5-3.1c13.8-3.2,27.5-6.5,41.3-9.7
			C105.8,109.8,110.7,108.9,115.5,107.8z"/>
		<path class="st2" d="M115.5,107.8c-4.9,1-9.7,1.9-14.5,3.1c-13.8,3.2-27.6,6.4-41.3,9.7c-4.2,1-8.3,2-12.5,3.1
			c-0.9,0.3-1.7,1-2.6,1.5c-0.5-0.2-0.9-0.4-1.4-0.6c0.7-0.5,1.3-1.1,2-1.4c10.3-4.4,20-9.9,29-16.7c2.1-1.6,3.8-3.6,5.7-5.4
			c2.3-2,4.7-4.1,7-6.1c1-0.6,1.9-1.4,3-1.8c2.3-0.8,4.6-1.6,6.9-2.1c6.6-1.6,13.2-3.1,19.8-4.6C116.3,93.6,115.9,100.7,115.5,107.8
			z"/>
		<path class="st3" d="M202.5,93.9c-1,0.5-1.5,1.1-2,1.1c-2.9,0.1-5.7,0-8.8,0c0-14.9,0-29.7,0-44.7c3.2,0,6.5,0,10,0
			c0,5,0,10.1,0,15.3c10.8-3.1,16.6-1.7,21,4.8c3.9,5.8,3.6,14-0.8,19.5C217.2,95.9,210.7,97.1,202.5,93.9z M208.1,72.2
			c-4.3,0-6.4,2-6.4,6.2c0,1.6-0.1,3.2,0,4.8c0.1,0.8,0.4,1.6,1,2.2c2.3,2.3,6.4,2.6,9.2,0.9c2.6-1.7,3.9-5.2,3.1-8.4
			C214.1,74.2,211.6,72.2,208.1,72.2z"/>
		<path class="st4" d="M79.9,101.2c-1.9,1.8-3.7,3.8-5.7,5.4c-9,6.7-18.6,12.3-29,16.7c-0.7,0.3-1.3,1-2,1.4
			c-9.9-4.2-19.3-9.1-27.1-16.6c-2.3-2.2-4.4-4.5-6.6-6.8c5.8-1.5,11.6-3.2,17.4-4.6c2-0.5,4.1-0.4,6.1-0.6c0.1,0,0.2,0.1,0.2,0.3
			c-0.2,1.4,0.4,1.9,1.7,1.7c4,2.1,7.9,4.8,12.1,6.1C58.2,107.6,69.3,106.5,79.9,101.2z"/>
		<path class="st5" d="M274.1,85.4c-1.9,7.8-10.1,11.8-19.4,9.8c-8.3-1.8-13.4-9.8-11.8-18.6c1.6-9.2,9.6-13.9,17.9-12.8
			c10,1.3,15,8.3,13.6,18.8c-7,0-14.1,0-21.2,0c0.1,4.4,6.6,6.2,9.3,4.1c1.8-1.4,3.5-1.3,5.4-1.4C269.8,85.3,271.9,85.4,274.1,85.4z
			 M252.7,76.5c4.1,0,8.1,0,12,0c-0.6-3.2-2.2-4.6-5.1-4.9C256,71.4,254,72.8,252.7,76.5z"/>
		<path class="st3" d="M399.8,95c-3.3,0-6.5,0-9.9,0c0-10.2,0-20.3,0-30.4c6.1-0.9,9.7-0.5,10.5,1.3c3.6-2.3,7.4-3.3,11.6-2.1
			c5.6,1.5,9.2,5.8,9.4,11.5c0.2,6.4,0,12.9,0,19.5c-3.3,0-6.6,0-10.2,0c0-4.9,0-10,0-15c0-1.2-0.2-2.5-0.6-3.7
			c-0.8-2.6-3.2-3.8-5.8-3.3c-3,0.6-4.8,2.5-4.8,5.2c0,5.4,0,10.9,0,16.3C400,94.5,399.9,94.6,399.8,95z"/>
		<path class="st0" d="M386.9,79.9c-0.1,9.5-7.3,16.2-17,16c-9.6-0.2-16.3-7.1-16.2-16.6c0.1-9.1,7.4-15.9,16.8-15.7
			C380.1,63.8,387,70.6,386.9,79.9z M377.1,79.8c0-4.3-2.8-7.2-6.8-7.2c-3.9,0-6.8,2.9-6.8,7c-0.1,4.2,2.8,7.3,6.7,7.4
			C374.2,87,377.1,84.1,377.1,79.8z"/>
		<path class="st0" d="M315.3,54.1c3.5,0,6.7,0,10.2,0c0,3.3,0,6.6,0,10.2c3.6,0,6.8,0,10.2,0c0,3,0,5.8,0,8.8c-3.3,0-6.6,0-10,0
			c0,3.4-0.2,6.7,0.1,9.8c0.1,2.3,1.8,3.4,4,3.5c1.9,0,3.8-0.3,6-0.5c0.2,1.6,0.4,3.2,0.7,4.7c0.7,4,0.7,4.1-3.2,4.7
			c-1.3,0.2-2.7,0.4-4,0.5c-8.4,0.4-13.7-4.6-13.8-13c0-3.1,0-6.3,0-9.7c-2,0-3.9,0-5.9,0c0-3.1,0-5.8,0-8.8c2,0,3.8,0,5.9,0
			C315.3,60.9,315.3,57.5,315.3,54.1z"/>
		<path class="st0" d="M299.4,82.4c3.2,0,6.3,0,9.3,0c-0.2,7.6-6.9,13.2-15.6,13.2c-9.5,0-16.4-6.4-16.6-15.3
			c-0.2-9.5,6.1-16.3,16-16.7c9.1-0.3,15.7,5.4,16.2,13.2c-2.9,0-5.9,0-8.8,0c-0.3,0-0.8-0.5-1-0.9c-2.2-3.3-4.8-4.3-8.2-3.1
			c-2.8,1-4.7,4-4.5,7.3c0.2,3.5,2.3,6.1,5.5,6.8C295.2,87.5,297.7,86.1,299.4,82.4z"/>
		<path class="st6" d="M5.5,38c2.6-6.2,7.7-9.7,13.3-12.7c8.6-4.5,18-6.5,27.5-7.5c10.9-1.1,21.8-1.1,32.7,1.1
			c-0.9,0.6-1.7,1.5-2.6,1.7c-6,1.5-12,2.8-18,4.3c-0.7,0.2-1.3,1-1.9,1.6c-6.4,0.8-12.6,2.3-18.3,5.5c-0.7-0.2-1.5-0.7-2.2-0.6
			c-4.3,0.9-8.5,1.9-12.8,2.9C17.3,35.5,11.4,36.8,5.5,38z"/>
		<path class="st7" d="M5.5,38c5.9-1.3,11.9-2.5,17.8-3.8c4.3-0.9,8.5-2,12.8-2.9c0.7-0.1,1.4,0.4,2.2,0.6c-4.3,3.1-8,6.8-9.2,12.2
			c-0.9,3.9-1.2,7.8-1.7,11.7c-4.5,0.8-8.9,1.7-13.4,2.6C9.8,59.2,5.7,60.1,1.6,61c1.1-7.2,2.1-14.4,3.2-21.7
			C4.8,38.8,5.2,38.4,5.5,38z"/>
		<path class="st8" d="M103.9,27.8c8.1,4.7,11.9,11.8,12.1,21c-0.8,1.5-1.6,3-2.5,4.6c-0.4,0.1-1.1,0.1-1.2,0.3
			c-1.2,3.2-4.2,3.3-6.8,4c-4.4,1.1-8.9,1.9-13.3,2.9c-0.9-5.9-1.7-11.9-2.6-17.8c0.4-0.1,0.9-0.2,1.1-0.5
			C95.2,37.4,99.5,32.6,103.9,27.8z"/>
		<path class="st9" d="M32.9,96.1c-2,0.2-4.1,0.1-6.1,0.6c-5.8,1.4-11.6,3.1-17.4,4.6c-1.8-3.5-4.1-6.8-5.3-10.5
			c-1.3-4-1.4-8.3-2-12.5c4.4-0.4,8.8-0.8,13.2-1.3c4-0.5,7.9-1.1,11.9-1.7c0.1,0.9,0.2,1.9,0.2,2.8C28,84.4,28.4,90.9,32.9,96.1z"
			/>
		<path class="st10" d="M27.2,75.2c-4,0.6-7.9,1.2-11.9,1.7c-4.4,0.5-8.8,0.9-13.2,1.3C1.9,72.5,1.7,66.7,1.6,61
			c4.1-0.9,8.2-1.7,12.4-2.5c4.5-0.9,8.9-1.7,13.4-2.6C27.3,62.3,27.2,68.8,27.2,75.2z"/>
		<path class="st11" d="M113.5,53.3c0.8-1.5,1.6-3,2.5-4.6c0.3,12.2,0.6,24.5,0.9,36.7c0,0.3-0.2,0.6-0.2,1
			c-6.6,1.5-13.2,3-19.8,4.6c-2.3,0.6-4.7,1.3-6.9,2.1c-1.1,0.4-2,1.2-3,1.8c0.7-1.2,1.5-2.3,2.2-3.5c0.7-0.5,1.7-0.9,2.2-1.5
			c3.4-4.3,6.9-8.5,10-13C106.4,69.6,110.5,61.7,113.5,53.3z"/>
		<path class="st12" d="M103.9,27.8c-4.4,4.8-8.7,9.6-13.1,14.4c-0.3,0.3-0.8,0.3-1.1,0.5c-3-6.6-8.1-10.8-14.8-13.4
			c-5.9-2.3-12.1-2.8-18.3-2.8c0.6-0.5,1.2-1.4,1.9-1.6c6-1.5,12-2.8,18-4.3c1-0.2,1.8-1.1,2.6-1.7C87.8,20.4,96.4,22.7,103.9,27.8z
			"/>
		<path class="st0" d="M229,64.5c3.4,0,6.6,0,9.9,0c0,14.2,0,28.4,0,42.7c-3.2,0-6.5,0-9.9,0C229,93,229,78.9,229,64.5z"/>
		<path class="st13" d="M482.5,65.1c8.8,0,15.6,6.7,15.5,15.4c0,8.8-6.7,15.4-15.5,15.4c-8.8,0-15.5-6.6-15.5-15.4
			C467,71.7,473.6,65.1,482.5,65.1z M471.4,80.4c0,6.3,5,11.6,11.1,11.6c6.1,0,11.1-5.2,11.2-11.5c0-6.2-4.9-11.3-11-11.4
			C476.5,69,471.4,74.1,471.4,80.4z"/>
		<path class="st5" d="M350.3,64.6c0,10.1,0,20.2,0,30.4c-3.4,0-6.6,0-10,0c0-10.1,0-20.1,0-30.4C343.5,64.6,346.8,64.6,350.3,64.6z
			"/>
		<path class="st14" d="M462.1,75.5c-2.3,0.3-4,0.6-5.5-2.2c-1.7-3.5-5.4-4.5-9.2-4c-4.3,0.5-7.4,2.8-8.8,7c-1.5,4.6-1,9,2.5,12.5
			c3.2,3.3,7.3,3.9,11.5,2.2c1.5-0.6,3.3-1.7,3.8-3.1c1.2-2.9,3.1-2.8,5.5-2.5c0.1,5.2-5.6,10-12.3,10.3c-8.5,0.4-15.5-5.4-16-13.3
			c-0.6-9.4,4.8-16.5,13.3-17.3C454.6,64.4,461.2,68.8,462.1,75.5z"/>
		<path class="st15" d="M233.8,59.6c-3.4-0.1-6-2.7-5.9-6c0.1-3.2,2.7-5.6,6-5.6c3.4,0,6.1,2.6,6,5.9
			C239.9,57.2,237.2,59.7,233.8,59.6z"/>
		<path class="st0" d="M351.1,53.9c0,3.3-2.6,5.8-6.1,5.7c-3.4,0-5.8-2.4-5.9-5.7c0-3.4,2.5-5.9,5.9-5.9
			C348.5,48,351.1,50.5,351.1,53.9z"/>
		<path class="st14" d="M430.9,92c-0.3,2.6-1.1,3.7-2.9,3.7c-1.9,0-3.1-0.9-3.1-2.8c0-1.9,1.2-3.1,3-2.8
			C429.1,90.3,430.1,91.4,430.9,92z"/>
		<path class="st9" d="M33.1,96.4c0.6,0.6,1.1,1.1,1.7,1.7C33.5,98.3,32.9,97.8,33.1,96.4z"/>
		<path class="st16" d="M89.1,91.5c3-8.9,3-18.1,3-27.3c0-1.3,0-2.5,0-3.8c4.4-1,8.9-1.8,13.3-2.9c2.6-0.6,5.6-0.8,6.8-4
			c0.1-0.2,0.8-0.2,1.2-0.3c-3,8.4-7.2,16.3-12.3,23.7c-3.1,4.5-6.6,8.7-10,13C90.8,90.7,89.9,91,89.1,91.5z"/>
	</g>
</g>
</svg>
