<?xml version="1.0" encoding="utf-8"?>
<!-- Generator: Adobe Illustrator 26.1.0, SVG Export Plug-In . SVG Version: 6.00 Build 0)  -->
<svg version="1.1" id="Layer_1" xmlns="http://www.w3.org/2000/svg" xmlns:xlink="http://www.w3.org/1999/xlink" x="0px" y="0px"
	 viewBox="0 0 500 150" style="enable-background:new 0 0 500 150;" xml:space="preserve">
<g>
	<path d="M2.8,48.9c7.1,0,14.2,0,21.6,0c0,4.6,0,8.9,0,13.9c2-1.9,3.5-3.4,5.1-4.9c7.3-6.8,15.6-10.9,25.9-10.4
		c9.7,0.5,17.4,4.9,19.8,15c0.1,0.3,0.2,0.5,0.2,0.6c3.7-3.2,7.2-6.7,11.1-9.6c7.7-5.6,16.4-7.2,25.6-5.4
		c8.8,1.7,14.4,8.1,15.4,17.5c0.2,2.3,0.4,4.7,0.4,7c0,19,0,38,0,57c0,0.9,0,1.8,0,2.8c-7.3,0-14.3,0-21.7,0c0-0.9,0-1.8,0-2.7
		c0-17.5,0-35,0-52.5c0-2.5-0.3-5.1-0.9-7.6c-1-4.3-4.3-6-8.5-4.5c-4.8,1.7-8.6,4.9-12.2,8.4c-2.9,2.8-6.4,5.4-7.9,8.9
		c-1.4,3.2-0.5,7.4-0.5,11.2c0,12.1,0,24.3,0,36.4c0,0.7,0,1.5,0,2.4c-7.3,0-14.4,0-21.7,0c0-1,0-1.8,0-2.7c0-17.4,0-34.8,0-52.3
		c0-2.5-0.3-5-0.8-7.4c-1.1-4.8-4.6-6.7-9-4.7c-3.2,1.4-6.2,3.5-8.9,5.8c-3.7,3.1-7,6.7-10.3,10.2c-0.7,0.7-1,2-1,3
		c-0.1,15.1,0,30.2,0,45.2c0,0.9,0,1.8,0,2.9c-7.4,0-14.5,0-21.7,0C2.8,104.8,2.8,76.9,2.8,48.9z"/>
	<path d="M446.6,134.9c-4.2-1.4-8.7-2.2-12.6-4.2c-14-7-21.3-18.8-23.2-34c-1.6-12.9,1.2-24.8,9.7-34.9c10.8-12.9,25-17.5,41.3-14
		c16.7,3.6,27.3,14.4,31.4,30.7c4.1,16.1,1.2,31.2-10.3,43.8c-6,6.6-13.7,10.5-22.5,12.1c-0.5,0.1-1,0.3-1.5,0.5
		C454.8,134.9,450.7,134.9,446.6,134.9z M472.5,92.2c0-9.2-2.6-16.9-7.4-22.3c-6.8-7.7-16.6-8.1-23.9-0.9c-11,10.8-11,33.1,0.1,43.9
		c6.7,6.5,15.4,6.8,22.3,0.5C470,107.4,472.1,99.5,472.5,92.2z"/>
	<path d="M361.7,134.9c-2.6-0.6-5.3-1.1-7.9-1.9c-12.1-3.9-20.2-12-23.8-24.1c-4.5-15.1-3-29.7,5.4-43.2
		c10.3-16.7,31.9-23.6,49.1-15.8c11.8,5.4,17.9,15.2,19.7,27.7c0.8,5.4,0.6,10.9,0.8,16.6c-18.7,0-37,0-55.2,0
		c-1.8,6.2,1.9,15.2,7.9,19.3c6.7,4.7,14.1,5.4,21.6,3c6-1.9,11.8-4.9,17.9-7.5c2.3,4.8,4.9,10.2,7.6,15.7
		c-8.5,4.8-17.3,8.5-26.9,9.8c-0.7,0.1-1.5,0.3-2.2,0.5C371.1,134.9,366.4,134.9,361.7,134.9z M383,80.6c0.5-6.9-2-13.4-6.4-15.7
		c-5.9-3-11.9-2.8-17.5,0.7c-5.4,3.4-7.6,8.8-8.5,15C361.6,80.6,372.2,80.6,383,80.6z"/>
	<path d="M315.2,132.5c-7.3,0-14.3,0-21.5,0c0-1-0.1-1.9-0.1-2.9c0-17,0-34.1,0-51.1c0-2.8-0.2-5.6-0.8-8.3c-1-4.9-4.3-6.6-9-4.8
		c-5.4,2-9.5,5.8-13.5,9.8c-6.9,6.9-6.8,6.9-6.8,16.6c0,12.6,0,25.2,0,37.8c0,0.9,0,1.8,0,2.9c-7.2,0-14.3,0-21.6,0c0-1,0-2,0-2.9
		c0-17.1,0-34.2,0-51.4c0-2.6-0.3-5.3-0.8-7.9c-0.9-4.8-4.4-6.7-9-5.1c-4.7,1.6-8.3,5-11.8,8.3c-2.9,2.8-6.6,5.5-8.1,9
		c-1.4,3.1-0.4,7.2-0.4,10.9c0,12.1,0,24.1,0,36.2c0,0.9,0,1.8,0,2.8c-7.2,0-14.2,0-21.4,0c0-27.7,0-55.4,0-83.3c7,0,14.1,0,21.5,0
		c0,4.4,0,8.7,0,13.2c3.2-2.8,6-5.6,9.1-8c7.8-6.2,16.7-8.2,26.4-6.3c7.7,1.5,12.8,6,15,13.7c0.1,0.5,0.3,1,0.5,1.7
		c1.6-1.7,3-3.2,4.5-4.7c7.7-7.5,16.6-11.9,27.6-11.3c11.9,0.7,19.2,7.6,20,19.5c0.1,1.8,0.2,3.6,0.2,5.4c0,19.1,0,38.2,0,57.2
		C315.2,130.5,315.2,131.5,315.2,132.5z"/>
	<path d="M169.2,132.5c-7.1,0-14,0-21.1,0c0-27.8,0-55.5,0-83.4c7,0,14,0,21.1,0C169.2,76.9,169.2,104.6,169.2,132.5z"/>
	<path d="M170.8,18.8c0,4.4-1.1,8-3.9,11.1c-4.6,5.1-11.7,5.1-16.4,0.1c-5.6-6-5.4-16.5,0.4-22.2c4.9-4.7,11.8-4.4,16.2,0.8
		C169.7,11.6,170.8,15.1,170.8,18.8z"/>
</g>
</svg>
