<?xml version="1.0" encoding="utf-8"?>
<!-- Generator: Adobe Illustrator 26.1.0, SVG Export Plug-In . SVG Version: 6.00 Build 0)  -->
<svg version="1.1" id="Layer_1" xmlns="http://www.w3.org/2000/svg" xmlns:xlink="http://www.w3.org/1999/xlink" x="0px" y="0px"
	 viewBox="0 0 500 150" style="enable-background:new 0 0 500 150;" xml:space="preserve">
<style type="text/css">
	.st0{fill:#1DA0DD;}
	.st1{fill:#F4BC1D;}
	.st2{fill:#E74B1E;}
	.st3{fill:#86BC44;}
	.st4{fill:#FFFEFD;}
	.st5{fill:#B2DEF3;}
	.st6{fill:#D0D0D0;}
	.st7{fill:#9ED6F0;}
	.st8{fill:#CBE2AE;}
	.st9{fill:#F4AE9A;}
	.st10{fill:#606060;}
	.st11{fill:#616060;}
</style>
<g>
	<path class="st0" d="M80.7,22.7c0.6,0.1,1.2,0.2,1.8,0.3c3.6,0.5,7,1.7,9.9,4c1.6,1.3,2.9,2.8,3.7,4.8c1.3,3.1,0.8,6.1-1,8.9
		c-0.8,1.2-1.6,2.3-2.5,3.5C85,54.8,77.5,65.3,69.9,75.9C59.1,91,48.3,106.1,37.5,121.2c-1.7,2.4-4,4-6.7,5.2c-3.4,1.5-7,2-10.7,1.8
		c-3.8-0.2-7.3-1.2-10.5-3.3c-1.6-1-2.9-2.2-4-3.8c-0.9-1.3-1.5-2.8-1.7-4.4c0-0.7,0-1.4,0-2c0.2-1.8,0.9-3.3,1.9-4.8
		c9-12.5,17.9-25,26.9-37.6C42.8,58.3,52.9,44.2,63,30c1.3-1.8,2.8-3.2,4.7-4.3c2.8-1.6,5.8-2.5,9-2.8c0.5,0,1-0.1,1.5-0.1
		C78.9,22.7,79.8,22.7,80.7,22.7z"/>
	<path class="st1" d="M195.7,22.7c0.7,0.1,1.3,0.2,2,0.3c3.9,0.6,7.6,2,10.5,4.8c1.9,1.8,3.1,3.9,3.5,6.4c0.3,2.3-0.3,4.4-1.6,6.3
		c-1,1.5-2.1,2.9-3.1,4.4c-6.1,8.6-12.3,17.2-18.4,25.8c-7.3,10.2-14.6,20.4-21.9,30.6c-4.6,6.4-9.2,12.8-13.8,19.3
		c-2.1,3-4.9,5-8.4,6.2c-3.4,1.2-6.9,1.6-10.4,1.2c-3.1-0.3-6.1-1.2-8.8-2.7c-1.7-1-3.2-2.2-4.4-3.8c-2.7-3.6-2.8-7.8-0.2-11.5
		c1.4-2,2.8-4,4.3-6c5-7,10.1-14.1,15.1-21.1c6.4-9,12.9-18,19.3-27c5.6-7.8,11.2-15.6,16.8-23.4c0.7-1,1.4-2,2.1-2.9
		c1.6-2.2,3.7-3.7,6.2-4.9c2.4-1.1,4.9-1.7,7.5-1.9c0.1,0,0.3-0.1,0.4-0.1C193.4,22.7,194.6,22.7,195.7,22.7z"/>
	<path class="st2" d="M270.6,36.3c0,0.1-0.1,0.1-0.1,0.2c-0.1,1.7-0.9,3.2-1.8,4.5c-2.3,3.3-4.7,6.5-7,9.8
		c-15.2,21.2-30.3,42.4-45.5,63.6c-1.5,2.1-3,4.1-4.4,6.2c-2,2.9-4.7,4.9-8,6.1c-3.5,1.3-7.1,1.7-10.8,1.4c-2.9-0.3-5.7-1.1-8.3-2.4
		c-1.9-1-3.5-2.3-4.8-4c-1.6-2.1-2.4-4.4-2.1-7c0.2-1.7,0.8-3.3,1.9-4.7c2.2-3.1,4.5-6.3,6.7-9.4c9.3-13,18.6-26,27.9-38.9
		c7.6-10.6,15.2-21.3,22.9-31.9c1.5-2.1,3.6-3.7,5.9-4.8c2.4-1.1,4.9-1.8,7.5-2.1c0.5,0,1-0.1,1.5-0.1c0.7,0,1.3,0,2,0
		c0.5,0,1,0.1,1.5,0.1c1.6,0.1,3.2,0.5,4.8,1c2.4,0.8,4.6,1.9,6.5,3.5c2,1.8,3.5,3.9,3.8,6.6l0.1,0.1
		C270.6,34.8,270.6,35.5,270.6,36.3z"/>
	<path class="st3" d="M138.2,22.7c0.6,0.1,1.3,0.2,1.9,0.3c3.6,0.5,6.9,1.7,9.7,4c1.2,1,2.3,2.1,3,3.4c1.9,3.4,1.8,6.8-0.3,10.1
		c-1.2,1.8-2.5,3.5-3.7,5.2c-6.4,9-12.9,18-19.3,27c-7.7,10.8-15.4,21.5-23.1,32.3c-3.7,5.2-7.4,10.3-11.1,15.5
		c-2.1,3-4.8,5-8.2,6.2c-6.1,2.1-12.2,2-18.1-0.8c-2.5-1.1-4.6-2.8-6.2-5.1c-1-1.6-1.6-3.3-1.6-5.1c0-2.1,0.7-4,1.9-5.7
		c1.3-1.9,2.6-3.7,4-5.5c4.9-6.9,9.8-13.7,14.8-20.6c6.7-9.3,13.3-18.6,20-27.9c6.1-8.5,12.2-17,18.3-25.6c2.2-3.1,5-5.1,8.5-6.4
		c1.8-0.6,3.6-1,5.5-1.2c0.5,0,1-0.1,1.5-0.1C136.4,22.7,137.3,22.7,138.2,22.7z"/>
	<path class="st4" d="M270.6,34C270.6,34,270.5,34,270.6,34c-0.4-2.8-1.9-4.9-3.9-6.7c-1.9-1.7-4.1-2.8-6.5-3.5
		c-1.5-0.5-3.1-0.8-4.8-1v-0.1c5.1,0,10.1,0,15.2,0C270.6,26.5,270.6,30.2,270.6,34z"/>
	<path class="st5" d="M60.1,96.7c0.1,0,0.2,0,0.3,0c0,1,0,1.9,0,2.9c-0.1,0-0.2,0-0.3,0C60.1,98.7,60.1,97.7,60.1,96.7z"/>
	<path class="st6" d="M435.4,130v0.1c-1,0-2,0-3.1,0V130C433.4,130,434.4,130,435.4,130z"/>
	<path class="st6" d="M477.1,130.1V130c1,0,2,0,2.9,0v0.1C479,130.1,478,130.1,477.1,130.1z"/>
	<path class="st6" d="M322.5,130.1V130c0.6,0,1.2,0,1.9,0v0.1C323.8,130.1,323.1,130.1,322.5,130.1z"/>
	<path class="st7" d="M76.6,22.8v-0.1c0.5,0,1,0,1.5,0C77.5,22.7,77.1,22.7,76.6,22.8z"/>
	<path class="st8" d="M135.6,22.7c-0.5,0-1,0.1-1.5,0.1v-0.1C134.6,22.7,135.1,22.7,135.6,22.7z"/>
	<path class="st9" d="M251.9,22.7c-0.5,0-1,0.1-1.5,0.1v-0.1C250.9,22.7,251.4,22.7,251.9,22.7z"/>
	<path class="st9" d="M255.4,22.7v0.1c-0.5,0-1-0.1-1.5-0.1C254.4,22.7,254.9,22.7,255.4,22.7z"/>
	<path class="st10" d="M435.4,130c-1,0-2,0-3.1,0c-1.7-0.1-3.4-0.4-5-1.1c-6.6-2.5-10.4-7.2-11.6-14.1c-0.6-3.9-0.2-7.6,1.4-11.2
		c2.6-5.7,7.1-9,13.2-10.1c3.7-0.7,7.4-0.4,10.9,1.1c5.7,2.5,9.2,6.9,10.5,12.9c0.9,4.2,0.5,8.4-1.4,12.3c-2.7,5.5-7.2,8.7-13.2,9.8
		C436.7,129.8,436,129.9,435.4,130z M433.7,97.8c-0.3,0-0.8,0-1.4,0.1c-0.2,0-0.5,0.1-0.7,0.1c-4.7,0.8-8.1,3.4-10,7.8
		c-1,2.3-1.3,4.8-1,7.4c0.4,3.5,1.8,6.5,4.4,8.8c3.2,2.8,6.9,3.7,11,3.1c5.2-0.8,8.7-3.8,10.4-8.7c0.8-2.3,0.9-4.7,0.6-7.2
		c-0.4-2.8-1.5-5.3-3.5-7.4C441,99,437.7,97.8,433.7,97.8z"/>
	<path class="st10" d="M480,130c-1,0-2,0-2.9,0c-1.7-0.2-3.3-0.4-4.9-1c-6.5-2.4-10.4-7.1-11.7-13.9c-0.7-4-0.3-7.9,1.4-11.6
		c2.6-5.6,7-8.9,13.1-10c3.7-0.7,7.3-0.4,10.8,1.1c5.9,2.5,9.4,6.9,10.7,13.1c0.8,4,0.5,7.9-1.2,11.7c-2.6,5.8-7.2,9.2-13.4,10.3
		C481.3,129.8,480.6,129.9,480,130z M478.6,125.2c0.2,0,0.4,0,0.7,0c5.5-0.3,9.4-3,11.6-8c1-2.4,1.3-4.9,1-7.5
		c-0.4-3.1-1.6-5.9-3.8-8.1c-2.7-2.7-5.9-3.9-9.7-3.8c-5.2,0.1-9.1,2.4-11.6,7c-1.7,3.1-2,6.5-1.2,10
		C466.9,121.1,472.1,125.3,478.6,125.2z"/>
	<path class="st11" d="M324.4,130c-0.6,0-1.2,0-1.9,0c-1.4-0.2-2.7-0.3-4.1-0.7c-6.5-1.9-10.6-6.2-12.2-12.7
		c-1.1-4.6-0.8-9.2,1.2-13.5c2.5-5.4,6.7-8.6,12.5-9.5c3.2-0.5,6.4-0.3,9.4,0.9c4.7,1.9,7.7,5.4,9.2,10.2c0.6,2,0.9,4,0.9,6.1
		c0,1.7-0.8,2.6-2.5,2.6c-8.5,0-17.1,0-25.6,0c-0.3,0-0.5,0-0.8,0c-0.1,0.8,0.1,1.6,0.3,2.3c1.5,5.3,4.9,8.6,10.4,9.6
		c0.9,0.2,1.8,0.2,2.7,0.2c1.1,0.1,1.9,0.7,2.1,1.7c0.3,1.2-0.3,2.3-1.5,2.7C324.6,129.9,324.5,129.9,324.4,130z M334.8,109
		c-0.1-1.1-0.3-2.2-0.7-3.2c-1-3.1-2.9-5.4-5.8-6.9c-2.1-1-4.4-1.3-6.7-1c-2.1,0.2-4,0.8-5.6,2c-2.8,2-4.3,4.7-5,8
		c-0.1,0.4-0.1,0.7-0.2,1.1C318.8,109,326.8,109,334.8,109z"/>
	<path class="st10" d="M268,117.8c0,3,0,6.1,0,9.1c0,1.3-0.9,2.4-2.2,2.5c-1.3,0.1-2.5-0.6-2.8-1.9c-0.1-0.3-0.1-0.5-0.1-0.8
		c0-5.6,0-11.3,0-16.9c0-8.1,5.6-14.9,13.5-16.5c9.1-1.8,17.7,4.1,19.6,12.8c0.3,1.2,0.4,2.4,0.4,3.6c0,5.6,0,11.2,0,16.9
		c0,0.3,0,0.7-0.1,1c-0.3,1.2-1.3,1.9-2.5,1.8c-1.1,0-2.1-0.9-2.3-2.1c0-0.2,0-0.4,0-0.7c0-4.1,0-8.1,0-12.2c0-1.9,0.1-3.8,0-5.7
		c-0.3-5.1-4-9.5-8.9-10.6c-6.8-1.6-13.4,2.8-14.4,9.7c-0.1,0.7-0.1,1.3-0.1,2C268,112.6,268,115.2,268,117.8L268,117.8z"/>
	<path class="st10" d="M355,111.3c-1.5-1.9-3-3.7-4.4-5.6c-2.1-2.7-4.3-5.4-6.4-8.1c-0.5-0.6-0.7-1.2-0.6-1.9c0.1-1.7,1.6-2.7,3.3-2
		c0.5,0.2,0.9,0.6,1.2,1c2.2,2.9,4.5,5.8,6.7,8.6c1.1,1.4,2.2,2.8,3.3,4.2c0.1,0.1,0.2,0.2,0.3,0.4c0.2-0.2,0.3-0.4,0.4-0.5
		c3.3-4.1,6.5-8.2,9.8-12.3c0.3-0.3,0.5-0.7,0.9-0.9c0.9-0.8,2.2-0.8,3.1-0.1c0.8,0.7,1.1,1.9,0.6,3c-0.2,0.4-0.4,0.7-0.7,1
		c-3.4,4.2-6.7,8.4-10.1,12.6c-0.2,0.2-0.4,0.4-0.6,0.7c0.8,1,1.5,1.9,2.2,2.9c2.9,3.8,5.9,7.5,8.8,11.3c0.2,0.3,0.5,0.6,0.6,1
		c0.7,1.6-0.4,3.3-2.2,3.2c-0.8,0-1.5-0.4-2.1-1.1c-3.5-4.4-6.9-8.9-10.4-13.3c-0.1-0.2-0.3-0.4-0.5-0.6c-0.2,0.2-0.3,0.4-0.4,0.5
		c-3.5,4.5-7.1,8.9-10.6,13.4c-0.6,0.7-1.2,1.1-2.1,1c-2.1-0.1-2.6-2.3-1.8-3.7c0.1-0.2,0.3-0.4,0.4-0.6c3.6-4.5,7.2-9,10.8-13.5
		C354.7,111.6,354.8,111.6,355,111.3z"/>
	<path class="st10" d="M394.6,122.2c0.1-0.3,0.2-0.5,0.3-0.7c4-8.8,8.1-17.7,12.1-26.6c0.7-1.5,2.9-2.1,4.2-0.6
		c0.5,0.6,0.6,1.3,0.4,2c-0.1,0.3-0.2,0.5-0.3,0.7c-4.7,10.2-9.5,20.4-14.2,30.6c-0.4,0.9-1,1.7-2.1,1.9c-1,0.2-1.8-0.1-2.5-0.9
		c-0.2-0.3-0.4-0.6-0.5-0.9c-4.8-10.1-9.6-20.3-14.4-30.4c-0.2-0.5-0.5-1-0.4-1.6c0.1-1.1,1-2,2.1-2.2c1-0.2,2,0.3,2.5,1.4
		c3.5,7.6,7,15.2,10.6,22.9c0.6,1.2,1.1,2.5,1.7,3.7C394.4,121.7,394.5,122,394.6,122.2z"/>
</g>
</svg>
