<svg width="165" height="124" viewBox="0 0 165 124" fill="none" xmlns="http://www.w3.org/2000/svg">
<mask id="mask0_112_10107" style="mask-type:alpha" maskUnits="userSpaceOnUse" x="0" y="0" width="165" height="124">
<rect width="165" height="123.75" fill="#D9D9D9"/>
</mask>
<g mask="url(#mask0_112_10107)">
<path d="M259.547 -119.646H-31.1681V171.069H259.547V-119.646Z" fill="url(#paint0_linear_112_10107)"/>
<path opacity="0.544" d="M40.9867 -22.5234C91.3019 -22.5234 159.471 34.2887 147.826 82.1247C136.181 129.961 91.3019 161.895 40.9867 161.895C-9.32853 161.895 -50.1234 120.611 -50.1234 69.6856C-50.1234 18.7598 -9.33318 -22.5234 40.9867 -22.5234Z" fill="#DBEEFF"/>
<path d="M-53.8894 28.2585C-58.2631 36.8422 -60.5963 46.2342 -60.8243 56.1736C-61.0369 65.4461 -59.4265 75.0834 -56.0378 84.8177C-51.3015 98.4227 -43.2337 111.75 -32.7064 123.358C-27.5859 129.005 -21.9926 134.12 -16.0818 138.561C-10.1021 143.054 -3.885 146.792 2.39689 149.669C7.69065 152.094 13.6582 154.022 20.1338 155.399C26.3583 156.722 33.0738 157.542 40.0935 157.837C53.6378 158.405 68.1956 157.004 82.1931 153.785C96.1662 150.571 109.144 145.648 119.724 139.546C125.187 136.395 129.982 132.949 133.977 129.302C138.116 125.524 141.405 121.519 143.754 117.398C144.728 115.689 145.667 113.949 146.544 112.228C151.12 103.247 154.342 94.164 156.121 85.2309C157.087 80.3798 157.635 75.5114 157.75 70.7607C157.872 65.7484 157.514 60.7424 156.687 55.8818C155.817 50.7651 154.403 45.6771 152.487 40.7592C150.473 35.5921 147.851 30.476 144.692 25.553C141.379 20.3911 137.389 15.3032 132.831 10.4307C128.063 5.33381 122.545 0.335163 116.431 -4.42643C110.228 -9.25744 103.293 -13.3154 95.8194 -16.4875C88.7026 -19.508 81.016 -21.7614 72.9732 -23.185C65.2737 -24.5478 57.1974 -25.1607 48.9688 -25.0066C41.0245 -24.8578 32.9275 -23.9952 24.9027 -22.4428C8.31009 -19.2331 -7.61972 -13.1594 -21.1645 -4.87839C-27.9373 -0.737675 -34.0031 3.89069 -39.1935 8.87815C-44.5143 13.991 -48.8799 19.4499 -52.169 25.1032C-52.7792 26.152 -53.3419 27.1841 -53.8894 28.2585ZM-54.9255 27.7306C-54.3747 26.6495 -53.7941 25.584 -53.1741 24.5184C-26.6535 -21.0654 63.9684 -46.7596 117.146 -5.34387C167.698 34.0269 164.949 78.6672 147.58 112.755C146.678 114.526 145.74 116.262 144.764 117.974C125.006 152.637 45.9779 170.911 1.91262 150.726C-41.1226 131.013 -77.9383 72.8944 -54.9255 27.7306Z" fill="white"/>
<path d="M110.476 143.596C115.634 140.738 120.463 137.401 124.831 133.68C129.094 130.047 132.972 126 136.357 121.653C139.686 117.377 142.574 112.763 144.942 107.939C147.292 103.153 149.152 98.1123 150.471 92.958C151.798 87.7787 152.59 82.4344 152.828 77.0736C153.068 71.6573 152.744 66.1693 151.864 60.7619C150.967 55.2526 149.483 49.7634 147.453 44.4466C145.37 38.9907 142.683 33.6428 139.467 28.5512C136.146 23.294 132.264 18.3137 127.928 13.7487C123.7 9.29802 118.991 5.18772 113.93 1.53202C108.959 -2.05863 103.6 -5.24728 98.0002 -7.94535C92.4528 -10.6183 86.6219 -12.8332 80.6693 -14.5284C74.7168 -16.2236 68.594 -17.413 62.4711 -18.0636C56.2907 -18.7204 50.056 -18.8336 43.9401 -18.4003C37.7135 -17.9591 31.5461 -16.9465 25.6093 -15.3904C19.52 -13.7944 13.5977 -11.6064 8.00684 -8.88717C6.07507 -7.9476 4.15065 -6.94743 2.28704 -5.91446C-8.05028 -0.184629 -17.2196 6.89826 -24.9661 15.1374C-32.6023 23.2592 -38.6868 32.3209 -43.0506 42.071C-47.4585 51.9195 -50.0074 62.2452 -50.6266 72.7613C-51.2666 83.6311 -49.8276 94.5211 -46.3496 105.129C-43.7428 113.079 -38.6283 120.478 -31.148 127.119C-27.6192 130.252 -23.5457 133.223 -19.0408 135.95C-14.6724 138.594 -9.84522 141.041 -4.69333 143.223C12.3485 150.441 32.8381 154.734 53.0009 155.31C63.0583 155.597 72.682 154.96 81.6048 153.416C90.8566 151.816 99.0898 149.281 106.076 145.883C107.563 145.16 109.044 144.39 110.476 143.596ZM111.04 144.614C109.587 145.42 108.106 146.19 106.585 146.93C60.5191 169.335 -32.414 151.365 -47.455 105.491C-61.8535 61.5775 -40.5357 16.4915 1.72306 -6.93196C3.60913 -7.97738 5.52986 -8.97608 7.498 -9.93334C53.5635 -32.3385 113.088 -15.3865 140.45 27.93C166.909 69.8162 153.601 121.023 111.04 144.614Z" fill="#0065F2"/>
<g style="mix-blend-mode:multiply">
<path d="M68.0932 113.494C85.7423 113.494 100.05 111.229 100.05 108.435C100.05 105.64 85.7423 103.375 68.0932 103.375C50.444 103.375 36.1366 105.64 36.1366 108.435C36.1366 111.229 50.444 113.494 68.0932 113.494Z" fill="#DBEEFF"/>
</g>
<path d="M39.1717 93.3227C39.1211 93.1726 39.0722 93.0209 39.0211 92.8691C38.935 92.8749 38.8466 92.8802 38.7583 92.8843C38.7001 92.8843 38.6455 92.8901 38.5838 92.8901C38.5222 92.8901 38.4676 92.8901 38.4094 92.8941C38.321 92.8941 38.235 92.8976 38.1408 92.8976C38.0361 92.8976 37.9315 92.8976 37.8239 92.8976L37.5983 92.8918C37.4398 92.8864 37.2787 92.8788 37.1151 92.8691C37.0053 92.8633 36.8925 92.8558 36.7797 92.8465C36.5593 92.8313 36.3343 92.8087 36.1058 92.7819C35.8558 92.7534 35.6011 92.7191 35.3435 92.6796C35.1208 92.6453 34.8982 92.6075 34.6726 92.5633C34.3051 92.493 33.9318 92.4133 33.5562 92.3203C33.1992 92.233 32.8393 92.1342 32.48 92.0243C32.2329 91.9505 31.9864 91.8708 31.7416 91.7853C30.9998 91.531 30.2746 91.231 29.5699 90.887C28.6159 90.4246 27.7088 89.8709 26.8616 89.2335C24.9615 87.7903 23.63 79.698 23.8207 72.3598C23.8231 71.5765 24.0129 70.8052 24.3743 70.1102C24.7358 69.4153 25.2583 68.817 25.8982 68.3653C25.9544 68.3239 26.0108 68.2839 26.0674 68.2456C26.1802 68.1659 26.2953 68.0921 26.4163 68.0194C26.5692 67.9264 26.725 67.8374 26.889 67.7554C27.1035 67.6432 27.3262 67.5409 27.5518 67.4461C27.6861 67.388 27.8198 67.338 27.9588 67.2885C28.5973 67.0574 29.2523 66.8747 29.9182 66.742C30.0473 66.7152 30.1781 66.6908 30.3072 66.6682C31.7656 66.4219 33.2437 66.3113 34.7226 66.3379L35.0017 66.3437H35.0737C35.1703 66.3472 35.2645 66.3495 35.3557 66.353C35.3959 66.353 35.436 66.353 35.4767 66.3565C35.5348 66.3565 35.5866 66.3606 35.6377 66.3641C35.6325 65.0332 35.6459 63.7709 35.6674 62.5993C35.6889 61.6272 35.7186 60.7178 35.7505 59.8823C35.4633 59.8788 35.1522 59.8765 34.8202 59.8765C34.7476 59.8765 34.6755 59.8765 34.6028 59.8765C34.2778 59.8765 33.9371 59.8823 33.5801 59.8898C27.0808 60.0317 15.6237 61.3108 15.4133 68.5659C15.1156 78.6979 17.8989 90.3568 20.8566 92.3464C22.1234 93.1846 23.4836 93.872 24.9098 94.3948C26.3223 94.9206 27.7722 95.34 29.2472 95.6495C29.4513 95.6931 29.6577 95.735 29.8618 95.7745C31.3639 96.0679 32.881 96.2783 34.4063 96.4048C34.6266 96.424 34.8464 96.4409 35.0639 96.4577C36.607 96.5676 38.0873 96.5961 39.4281 96.5618C39.6025 96.5583 39.7688 96.5525 39.938 96.5467C40.1072 96.5409 40.2706 96.5356 40.4316 96.5258C39.97 95.5059 39.5513 94.4326 39.1699 93.3192" fill="#F5D363"/>
<g style="mix-blend-mode:screen" opacity="0.48">
<path d="M36.1237 60.6191C32.7862 60.6465 29.4577 60.9678 26.1766 61.5791C21.5908 62.5396 17.9203 63.7664 16.9621 66.9096C14.5235 74.9241 19.4948 89.4383 19.6878 89.2278C20.1803 88.6941 18.2063 83.6042 17.9342 78.2254C17.6435 72.4652 19.111 66.3753 21.6414 65.2014C26.4336 62.9745 35.8865 63.0007 35.8865 63.0007L36.1237 60.6191Z" fill="#FFFF00"/>
</g>
<g style="mix-blend-mode:multiply" opacity="0.1">
<path d="M40.4316 96.5284C40.2706 96.5377 40.1072 96.5435 39.9374 96.5493C39.7676 96.5551 39.5996 96.5609 39.4275 96.5644C38.0855 96.5987 36.6064 96.5702 35.0633 96.4598C34.8458 96.4429 34.626 96.4255 34.4057 96.4068C32.8805 96.2802 31.3633 96.0698 29.8612 95.7766C29.6571 95.7364 29.4507 95.6952 29.2466 95.651C27.7715 95.3416 26.3216 94.9222 24.9092 94.3963C27.3756 94.8195 31.4793 95.7463 33.8016 95.8498C34.854 95.8952 36.1372 96.2656 37.7687 93.4846C35.8499 93.5776 32.6521 93.2869 27.5692 91.713C21.0712 89.6966 19.9949 71.9443 22.2172 68.7656C24.6353 65.3102 26.8826 65.2573 30.4386 64.1299C32.3149 63.5339 33.5783 59.8884 33.5783 59.8884C33.9353 59.8808 34.276 59.875 34.601 59.875C34.6737 59.875 34.7458 59.875 34.8185 59.875C35.1487 59.875 35.4581 59.875 35.7488 59.8808C35.7162 60.7163 35.6872 61.6251 35.6656 62.5973C35.6441 63.7688 35.6308 65.0311 35.636 66.362C35.5848 66.3585 35.5313 66.3562 35.4749 66.3545C35.4342 66.3545 35.3941 66.3504 35.354 66.3504C35.2627 66.3469 35.1685 66.3446 35.072 66.3411H34.9999L34.7208 66.3353C33.242 66.3088 31.7639 66.4194 30.3054 66.6655C30.1764 66.6882 30.045 66.7132 29.9165 66.7394C29.2505 66.8722 28.5955 67.0551 27.957 67.2865C27.8204 67.3359 27.6861 67.3888 27.55 67.4441C27.3244 67.5388 27.1018 67.6417 26.8872 67.7534C26.7232 67.8348 26.568 67.9243 26.4145 68.0173C26.2982 68.0894 26.1819 68.1633 26.0656 68.2435C26.0075 68.2813 25.9494 68.3232 25.8964 68.3633C25.2566 68.815 24.7341 69.4133 24.3727 70.1082C24.0112 70.8031 23.8214 71.5745 23.819 72.3577C23.6283 79.6936 24.9598 87.7889 26.8599 89.2314C27.7071 89.8688 28.6141 90.4226 29.5682 90.885C30.2728 91.2288 30.9981 91.5286 31.7398 91.7827C31.984 91.8682 32.2311 91.9479 32.4782 92.0223C32.8376 92.1322 33.1975 92.231 33.5545 92.3182C33.9301 92.4113 34.3033 92.4926 34.6714 92.5613C34.897 92.6049 35.1197 92.6427 35.3424 92.6776C35.5999 92.7177 35.8552 92.7514 36.1046 92.7799C36.3331 92.8066 36.5581 92.8293 36.7785 92.8444C36.8913 92.8537 37.0041 92.8613 37.114 92.8671C37.2776 92.8764 37.4386 92.884 37.5971 92.8898L37.8227 92.8956C38.0832 92.9014 38.3379 92.8997 38.585 92.8898C38.6431 92.8898 38.7013 92.8857 38.7594 92.884C38.8478 92.8805 38.9339 92.8747 39.0228 92.8688C39.074 93.0206 39.1222 93.1729 39.1734 93.3224C39.5542 94.437 39.9735 95.5097 40.4351 96.5289" fill="#63115E"/>
</g>
<path d="M99.8741 54.5988L99.8206 53.822C98.6264 50.8945 84.6848 48.231 67.9001 48.231C51.0898 48.231 37.375 50.6288 36.1796 53.5563L36.0965 53.9662C36.0965 53.9662 36.0215 54.7523 36.0296 54.8168C36.0215 54.929 36.0139 55.0616 36.0058 55.204C35.936 56.1704 35.8313 57.7937 35.7505 59.8782C35.6784 61.7219 35.6272 63.9255 35.6377 66.3594C35.6429 68.3072 35.6889 70.4032 35.7959 72.5754C35.8203 73.1127 35.8494 73.654 35.8871 74.2034C35.8871 74.304 35.8953 74.4046 35.9005 74.5052C36.2895 80.6579 37.1797 87.267 39.0222 92.8691C39.4263 94.1147 39.8976 95.3375 40.4339 96.5321C41.5678 99.2444 43.2925 101.67 45.4825 103.631C45.8837 103.968 46.3051 104.281 46.7442 104.567C47.0768 104.785 47.4367 104.992 47.8047 105.194C48.0222 105.31 48.2396 105.426 48.4646 105.539C49.4979 106.053 50.5631 106.5 51.6538 106.876C62.4225 110.639 80.1642 110.533 88.0019 105.468C88.7338 104.992 89.4156 104.444 90.0369 103.831C90.5132 103.372 90.9598 102.884 91.3742 102.369C91.9163 101.695 92.4156 100.988 92.869 100.252C92.9068 100.184 92.9522 100.119 92.99 100.051C93.1644 99.7736 93.3278 99.4927 93.4865 99.2003C97.0565 92.7947 98.7235 83.568 99.4753 75.1634C99.4991 74.9413 99.5206 74.7227 99.5369 74.5011C99.5741 74.0226 99.6171 73.5441 99.6497 73.0697C100.097 66.9248 100.173 60.7585 99.8753 54.6046" fill="#F5D363"/>
<path d="M98.8421 54.4688C98.8421 55.5561 97.0769 56.6201 94.0307 57.5387C93.7982 57.6073 93.5464 57.6806 93.29 57.7492C87.7036 59.2819 78.4345 60.354 67.8908 60.354C56.2953 60.354 46.1401 59.0563 40.7683 57.2724C40.6089 57.2184 40.4566 57.1649 40.3031 57.1108H40.2961C38.0047 56.2968 36.7104 55.3921 36.7104 54.4665C36.7104 51.4163 50.6113 48.9429 67.7722 48.9429C84.9331 48.9429 98.8403 51.4157 98.8403 54.4665" fill="#A76E3D"/>
<path d="M94.033 57.5378C93.7923 57.6069 93.5446 57.6814 93.2894 57.7506C90.621 58.4445 87.9097 58.9611 85.1732 59.2972C79.4409 60.0244 73.6673 60.3779 67.889 60.3554C62.9956 60.365 58.105 60.12 53.237 59.6216C48.0291 59.0687 43.6934 58.2448 40.77 57.2778C40.6118 57.2197 40.4618 57.1662 40.3048 57.1127C41.6723 54.8451 50.1641 53.0096 61.1962 52.5194C63.0899 52.4345 65.0586 52.3921 67.0803 52.3921C69.9293 52.3921 72.6788 52.477 75.2563 52.6421C85.8296 53.3119 93.5714 55.2359 94.0365 57.5378" fill="#442510"/>
<g style="mix-blend-mode:multiply" opacity="0.1">
<path d="M90.0358 103.823C89.4144 104.436 88.7326 104.985 88.0008 105.46C80.1631 110.526 62.4178 110.632 51.6515 106.869C50.5619 106.493 49.4976 106.047 48.4652 105.534C48.2396 105.423 48.0222 105.306 47.8042 105.189C47.4361 104.987 47.075 104.782 46.7448 104.562C46.3049 104.276 45.8831 103.964 45.4819 103.626C36.8849 91.6719 38.4106 65.5313 38.824 59.9502C39.4932 60.8485 43.0172 61.9433 44.5051 62.5387C46.2413 63.2364 49.2996 63.6336 56.2959 63.8673C56.6715 63.8778 46.1959 65.5947 46.4518 75.7895C46.5645 80.2084 49.6153 94.9674 62.9545 101.824C70.2805 105.593 82.2673 104.588 90.0381 103.823" fill="#63115E"/>
</g>
<g style="mix-blend-mode:screen" opacity="0.43">
<path d="M95.6674 60.9847C95.6674 60.9847 83.7051 63.7511 77.2559 64.3116C73.4564 64.6537 69.6416 64.794 65.8273 64.732C65.8273 64.732 70.3043 67.3676 71.3683 69.2671C72.7783 71.7888 71.6736 75.3913 70.9753 78.2107C74.7191 75.171 74.0283 72.629 76.9431 68.3845C77.1256 68.1188 95.6651 60.9829 95.6651 60.9829" fill="#FFFF00"/>
</g>
<g opacity="0.44">
<path d="M68.3809 5.04443C68.3809 5.04443 64.458 6.47998 65.1504 10.7866C65.8429 15.0933 68.6117 13.945 68.8425 16.8161C68.9676 18.5552 68.4774 20.2829 67.4576 21.6972C67.4576 21.6972 71.6113 19.1127 71.1496 17.1039C70.688 15.095 67.6884 13.9455 67.4576 11.0744C67.3913 9.02473 67.7044 6.98042 68.3809 5.04443" fill="#D7D7D7"/>
</g>
<g opacity="0.44">
<path d="M85.1738 58.4941C79.5014 59.7664 73.7029 60.3906 67.8896 60.3547C62.9766 60.3698 58.0723 59.9378 53.2376 59.0639C52.5402 58.5736 51.9636 57.9309 51.5514 57.1847C48.7862 52.0141 66.3558 49.5174 61.1927 46.5719C60.9234 46.4203 60.6447 46.2859 60.3583 46.1695C33.5381 35.1549 64.1307 36.2678 63.5899 32.4623C62.5306 25.0101 59.224 28.0208 60.652 19.7552C61.0125 17.662 63.7103 14.9491 64.3417 17.2492C64.665 18.4272 62.0119 21.9524 62.5974 24.6334C63.2736 27.7847 72.9225 31.8431 72.2166 36.1532C71.841 38.4255 63.8301 38.9395 63.4469 39.5837C61.8009 42.3327 72.1788 43.6537 75.2499 46.7835C76.6855 48.2516 76.5349 50.1122 72.8079 52.7141C76.0639 52.078 83.5766 52.8543 85.1697 58.4924" fill="#D7D7D7"/>
</g>
</g>
<defs>
<linearGradient id="paint0_linear_112_10107" x1="-72.1589" y1="-173.138" x2="33.6614" y2="304.798" gradientUnits="userSpaceOnUse">
<stop stop-color="#DBEEFF"/>
<stop offset="0.419" stop-color="#F4FAFF"/>
<stop offset="1" stop-color="#DBEEFF"/>
</linearGradient>
</defs>
</svg>
