<svg xmlns="http://www.w3.org/2000/svg" xmlns:xlink="http://www.w3.org/1999/xlink" width="500" height="500" viewBox="0 0 500 500">
  <defs>
    <clipPath id="clip-_500X500_nav_apply-award2">
      <rect width="500" height="500"/>
    </clipPath>
  </defs>
  <g id="_500X500_nav_apply-award2" data-name="500X500_nav_apply-award2" clip-path="url(#clip-_500X500_nav_apply-award2)">
    <path id="Path_13502" data-name="Path 13502" d="M150,277.727V216.921l40.839.015c5.017-.015,7.4-3.937,8.361-6.24,2.029-4.971,1.33-11.219-1.649-14.206L115,114a14.781,14.781,0,0,0-20.864,0L11.973,196.49c-3.192,3.2-4.173,9.341-2.212,14.062,1.718,4.112,5.3,6.385,10.064,6.385l42.474-.015V394.538" transform="translate(55.693 -98.739)" fill="none" stroke="#005cee" stroke-linecap="round" stroke-width="14"/>
    <path id="Path_13503" data-name="Path 13503" d="M191.219,460.321V255.367l48.7.02c5.984,0,8.825-4.682,9.978-7.442,2.422-5.923,1.6-13.372-1.97-16.941L149.47,132.626a17.619,17.619,0,0,0-24.868,0L26.594,231.005c-3.8,3.825-4.972,11.152-2.638,16.772,2.058,4.911,6.328,7.61,12,7.617l50.667-.007V460.321" transform="translate(184.278 3.561)" fill="none" stroke="#005cee" stroke-linecap="round" stroke-width="14"/>
    <path id="Path_13504" data-name="Path 13504" d="M9.768,274.076c0,21.616,18.837,39.124,42.059,39.124,23.262,0,42.1-17.507,42.1-39.124S71.459,243.015,51.752,233C32.039,223,9.586,213.539,9.586,191.936c0-21.637,18.816-39.144,42.072-39.144S93.737,170.3,93.737,191.936" transform="translate(66.324 148.963)" fill="none" stroke="#005cee" stroke-linecap="round" stroke-miterlimit="10" stroke-width="14"/>
    <line id="Line_942" data-name="Line 942" y1="27.756" transform="translate(117.98 273.813)" fill="none" stroke="#005cee" stroke-linecap="round" stroke-miterlimit="10" stroke-width="14"/>
    <line id="Line_943" data-name="Line 943" y1="27.756" transform="translate(117.98 462.368)" fill="none" stroke="#005cee" stroke-linecap="round" stroke-miterlimit="10" stroke-width="14"/>
  </g>
</svg>
