<svg width="165" height="124" viewBox="0 0 165 124" fill="none" xmlns="http://www.w3.org/2000/svg">
<mask id="mask0_112_10113" style="mask-type:alpha" maskUnits="userSpaceOnUse" x="0" y="0" width="165" height="124">
<rect width="165" height="123.75" fill="#D9D9D9"/>
</mask>
<g mask="url(#mask0_112_10113)">
<path d="M224.4 -64.5615H-1.12708V160.966H224.4V-64.5615Z" fill="url(#paint0_linear_112_10113)"/>
<path opacity="0.999" d="M16.606 166.717C-3.55074 145.864 -3.01295 72.5616 18.6079 51.6624C40.2288 30.7632 87.6557 20.5288 132.455 57.6326C177.254 94.7365 192.988 115.108 152.662 159.86C112.337 204.612 36.7616 187.569 16.606 166.717Z" fill="#E3F2FF"/>
<g opacity="0.999">
<path d="M30.9588 178.797C31.8566 179.426 32.7741 180.027 33.6858 180.585C38.3132 183.413 43.2553 185.852 48.3749 187.834C53.6641 189.882 59.136 191.439 64.6387 192.461C70.3808 193.528 76.1817 194.016 81.8804 193.912C87.8656 193.803 93.7975 193.038 99.5113 191.64C110.192 189.025 120.204 184.194 129.267 177.282C134.115 173.585 138.742 169.244 143.019 164.381C147.503 159.282 151.709 153.489 155.52 147.16C158.681 141.911 161.19 136.674 162.978 131.596C164.681 126.758 165.775 121.932 166.23 117.251C166.663 112.803 166.53 108.363 165.836 104.054C165.178 99.9691 163.997 95.8871 162.326 91.9216C160.747 88.1764 158.687 84.4302 156.203 80.7871C153.872 77.3699 151.103 73.9471 147.972 70.614C145.064 67.5187 141.76 64.4115 138.151 61.3785C134.846 58.6011 131.185 55.8012 127.269 53.0566C123.166 50.1812 118.621 47.2534 113.758 44.3544C109.662 41.9126 105.29 39.4542 100.39 36.8386C91.4837 32.0835 81.8342 29.5775 71.7098 29.3902C67.039 29.3038 62.2384 29.7162 57.4416 30.6159C52.8694 31.4735 48.2397 32.7846 43.6813 34.5129C39.3189 36.1668 34.9817 38.2171 30.7902 40.607C26.7516 42.9097 22.83 45.5374 19.1343 48.4169C15.5375 51.2195 12.1547 54.26 9.07985 57.4541C6.04877 60.6027 3.32734 63.8893 0.991109 67.2227C-1.18558 70.3285 -2.92536 74.0784 -4.17991 78.3683C-5.39232 82.5143 -6.15356 87.1669 -6.44245 92.197C-7.00474 101.986 -5.76918 113.031 -2.86935 124.136C0.0557629 135.339 4.56897 146.182 10.1823 155.493C13.1079 160.346 16.3174 164.761 19.7219 168.614C23.2744 172.635 27.055 176.061 30.9588 178.797ZM30.3726 179.633C-2.24254 156.775 -18.2203 92.8544 0.154646 66.6365C19.0438 39.6849 62.7987 15.6111 100.871 35.9375C109.56 40.5762 118.947 45.9768 127.855 52.2202C157.983 73.3349 182.646 104.096 156.395 147.687C122.382 204.168 67.6257 202.525 33.1531 181.456C32.2147 180.883 31.2853 180.273 30.3726 179.633Z" fill="#0065F2"/>
</g>
<g opacity="0.999">
<path d="M150.576 86.1163C149.967 84.8675 149.317 83.6322 148.643 82.4447C145.967 77.7281 142.828 73.1993 139.311 68.9839C135.679 64.6289 131.648 60.6149 127.331 57.0535C122.826 53.3371 117.99 50.0982 112.956 47.4266C107.669 44.6207 102.11 42.4138 96.4353 40.8673C85.8268 37.9763 74.7297 37.3478 63.4524 38.9994C57.421 39.8827 51.2706 41.4358 45.1723 43.6157C38.7793 45.9009 32.2925 48.9291 25.892 52.6161C20.5875 55.6718 15.8767 59.0932 11.8903 62.7853C8.11446 66.2824 4.88913 70.1146 2.30389 74.1754C-0.138216 78.0114 -2.07387 82.1531 -3.44932 86.4855C-4.74496 90.5665 -5.57752 94.9234 -5.92386 99.4352C-6.24849 103.664 -6.15433 108.137 -5.64399 112.728C-5.16933 116.999 -4.32301 121.479 -3.12848 126.043C-1.02586 134.077 2.21106 142.606 6.49235 151.393C10.3748 159.362 15.1275 167.577 20.6182 175.809C25.2464 182.748 32.2495 188.132 41.4331 191.811C45.6416 193.497 50.3243 194.824 55.3513 195.755C60.1146 196.638 65.2304 197.175 70.5567 197.35C80.4994 197.677 91.2243 196.738 101.572 194.635C111.438 192.629 120.563 189.664 127.96 186.06C131.358 184.405 134.603 182.14 137.605 179.329C140.51 176.608 143.207 173.359 145.621 169.671C147.977 166.071 150.07 162.046 151.84 157.707C153.587 153.425 155.019 148.842 156.097 144.084C157.175 139.327 157.895 134.406 158.239 129.458C158.587 124.443 158.548 119.405 158.122 114.484C157.685 109.437 156.84 104.504 155.611 99.82C154.337 94.9712 152.643 90.3606 150.576 86.1163ZM151.494 85.669C168.648 120.879 156.966 173.064 128.408 186.978C98.8235 201.392 39.846 206.478 19.7685 176.376C15.2332 169.576 10.1166 161.164 5.57418 151.841C-9.99236 119.89 -18.839 77.2048 25.3822 51.7311C82.5075 18.824 129.597 46.8041 149.532 81.9407C150.223 83.1588 150.878 84.4045 151.494 85.669Z" fill="white"/>
</g>
<g style="mix-blend-mode:multiply" opacity="0.8">
<path d="M201.346 2.9627C199.707 2.74894 198.057 2.62622 196.404 2.59509C194.794 2.57479 193.182 2.60456 191.572 2.63073C188.314 2.6835 185.056 2.81115 181.8 2.97172C175.36 3.28957 168.926 3.76077 162.499 4.38533C149.533 5.61184 136.636 7.48743 123.857 10.005C120.31 10.7118 116.764 11.4484 113.23 12.2693C109.636 13.102 106.01 13.917 102.468 15.1119C101.983 15.276 102.07 16.4154 102.589 16.3297C105.764 15.8245 108.916 15.0559 112.077 14.4096C115.302 13.7492 118.527 13.0735 121.755 12.4551C128.178 11.226 134.61 10.1011 141.06 9.14486C153.87 7.24772 166.719 5.96086 179.606 5.28428C183.192 5.09664 186.778 4.95095 190.364 4.84721C192.196 4.79308 194.026 4.73264 195.856 4.68753C196.735 4.66724 197.615 4.61762 198.492 4.58063C199.451 4.53869 200.393 4.36368 201.348 4.24595C201.953 4.17333 201.954 3.03532 201.348 2.9609" fill="#DBEEFF"/>
<path d="M178.726 11.2745C175.514 9.90467 171.951 10.0066 168.609 10.123C165.206 10.2651 161.813 10.5901 158.445 11.0964C151.718 12.0539 145.036 13.5248 138.32 14.6209C136.463 14.9231 134.605 15.2073 132.743 15.4531C130.799 15.7102 128.828 15.7846 126.901 16.2325C126.436 16.3412 126.147 17.0895 126.211 17.6759C126.208 17.9473 126.302 18.2109 126.475 18.4197C126.649 18.6284 126.891 18.7686 127.158 18.8153C128.869 18.9889 130.608 18.725 132.315 18.5446C133.963 18.3678 135.608 18.153 137.25 17.9001C140.612 17.3841 143.966 16.767 147.319 16.1536C153.927 14.9429 160.552 13.7251 167.219 13.3268C169.073 13.2154 170.928 13.15 172.785 13.1423C174.718 13.2099 176.653 13.1167 178.57 12.8636C179.202 12.7549 179.406 11.5677 178.727 11.2781" fill="#DBEEFF"/>
</g>
<g filter="url(#filter0_d_112_10113)">
<path d="M17.9966 29.1284H135.775V93.9916C135.775 94.1782 135.701 94.3571 135.569 94.489C135.437 94.6209 135.258 94.695 135.072 94.695H18.6999C18.5134 94.695 18.3345 94.6209 18.2026 94.489C18.0707 94.3571 17.9966 94.1782 17.9966 93.9916V29.1284Z" fill="url(#paint1_linear_112_10113)"/>
</g>
<path d="M18.7 17.6353H135.072C135.259 17.6353 135.437 17.7094 135.569 17.8413C135.701 17.9732 135.775 18.1521 135.775 18.3386V23.7335H17.9967V18.3386C17.9967 18.1521 18.0708 17.9732 18.2027 17.8413C18.3346 17.7094 18.5135 17.6353 18.7 17.6353V17.6353Z" fill="#E8EAED"/>
<g filter="url(#filter1_d_112_10113)">
<path d="M17.9966 23.7349H135.775V29.8331H17.9966V23.7349Z" fill="white"/>
</g>
<path d="M28.8637 25.0879H114.813C115 25.0879 115.179 25.162 115.311 25.2939C115.443 25.4258 115.517 25.6047 115.517 25.7912V27.7727C115.517 27.9592 115.443 28.1381 115.311 28.27C115.179 28.4019 115 28.476 114.813 28.476H28.8637C28.6772 28.476 28.4983 28.4019 28.3664 28.27C28.2345 28.1381 28.1604 27.9592 28.1604 27.7727V25.7912C28.1604 25.6047 28.2345 25.4258 28.3664 25.2939C28.4983 25.162 28.6772 25.0879 28.8637 25.0879V25.0879Z" fill="#F0F4FA"/>
<path d="M28.8637 18.9902H56.255C56.4416 18.9902 56.6205 19.0643 56.7524 19.1962C56.8843 19.3281 56.9584 19.507 56.9584 19.6936V24.0724H28.1604V19.6936C28.1604 19.507 28.2345 19.3281 28.3664 19.1962C28.4983 19.0643 28.6772 18.9902 28.8637 18.9902V18.9902Z" fill="white"/>
<path d="M19.1823 21.3618C19.1823 21.1846 19.2348 21.0113 19.3333 20.864C19.4317 20.7166 19.5717 20.6018 19.7354 20.5339C19.8991 20.4661 20.0793 20.4484 20.2531 20.483C20.4269 20.5175 20.5866 20.6029 20.7119 20.7282C20.8372 20.8535 20.9225 21.0132 20.9571 21.187C20.9917 21.3608 20.9739 21.5409 20.9061 21.7047C20.8383 21.8684 20.7235 22.0083 20.5761 22.1068C20.4287 22.2053 20.2555 22.2578 20.0783 22.2578C19.8406 22.2578 19.6127 22.1634 19.4447 21.9954C19.2767 21.8273 19.1823 21.5994 19.1823 21.3618V21.3618Z" fill="#E13019"/>
<path d="M21.8929 21.3618C21.8929 21.1846 21.9455 21.0113 22.044 20.864C22.1424 20.7166 22.2824 20.6018 22.4461 20.5339C22.6098 20.4661 22.79 20.4484 22.9638 20.483C23.1376 20.5175 23.2973 20.6029 23.4226 20.7282C23.5479 20.8535 23.6332 21.0132 23.6678 21.187C23.7024 21.3608 23.6846 21.5409 23.6168 21.7047C23.549 21.8684 23.4341 22.0083 23.2868 22.1068C23.1394 22.2053 22.9662 22.2578 22.789 22.2578C22.5513 22.2578 22.3234 22.1634 22.1554 21.9954C21.9873 21.8273 21.8929 21.5994 21.8929 21.3618V21.3618Z" fill="#FFE414"/>
<path d="M24.5576 21.3618C24.5576 21.1846 24.6102 21.0113 24.7086 20.864C24.8071 20.7166 24.947 20.6018 25.1108 20.5339C25.2745 20.4661 25.4546 20.4484 25.6285 20.483C25.8023 20.5175 25.9619 20.6029 26.0872 20.7282C26.2126 20.8535 26.2979 21.0132 26.3325 21.187C26.367 21.3608 26.3493 21.5409 26.2815 21.7047C26.2137 21.8684 26.0988 22.0083 25.9515 22.1068C25.8041 22.2053 25.6309 22.2578 25.4537 22.2578C25.216 22.2578 24.9881 22.1634 24.8201 21.9954C24.652 21.8273 24.5576 21.5994 24.5576 21.3618V21.3618Z" fill="#1DB954"/>
<path d="M25.2805 25.9136L26.3491 26.8048L25.8208 27.2232L25.281 27.6507" stroke="#E8EAED" stroke-width="1.5" stroke-linecap="round" stroke-linejoin="round"/>
<path d="M21.0834 27.6514L20.0148 26.7601L21.0834 25.9143" stroke="#E8EAED" stroke-width="1.5" stroke-linecap="round" stroke-linejoin="round"/>
<path d="M131.253 24.7495C131.354 24.7495 131.452 24.7793 131.535 24.8352C131.619 24.891 131.684 24.9704 131.723 25.0633C131.761 25.1561 131.771 25.2583 131.752 25.3569C131.732 25.4555 131.683 25.5461 131.612 25.6172C131.541 25.6883 131.451 25.7367 131.352 25.7563C131.254 25.7759 131.151 25.7658 131.059 25.7274C130.966 25.6889 130.886 25.6237 130.83 25.5402C130.775 25.4566 130.745 25.3583 130.745 25.2578C130.745 25.123 130.798 24.9937 130.894 24.8984C130.989 24.8031 131.118 24.7495 131.253 24.7495V24.7495Z" fill="#E8EAED"/>
<path d="M131.253 26.2744C131.354 26.2744 131.452 26.3042 131.535 26.3601C131.619 26.4159 131.684 26.4953 131.723 26.5882C131.761 26.681 131.771 26.7832 131.752 26.8818C131.732 26.9804 131.683 27.071 131.612 27.1421C131.541 27.2132 131.451 27.2616 131.352 27.2812C131.254 27.3008 131.151 27.2907 131.059 27.2523C130.966 27.2138 130.886 27.1486 130.83 27.0651C130.775 26.9815 130.745 26.8832 130.745 26.7827C130.745 26.6479 130.798 26.5186 130.894 26.4233C130.989 26.328 131.118 26.2744 131.253 26.2744V26.2744Z" fill="#E8EAED"/>
<path d="M131.253 27.7988C131.354 27.7988 131.452 27.8286 131.535 27.8845C131.619 27.9403 131.684 28.0197 131.723 28.1126C131.761 28.2055 131.771 28.3077 131.752 28.4062C131.732 28.5048 131.683 28.5954 131.612 28.6665C131.541 28.7376 131.451 28.786 131.352 28.8056C131.254 28.8252 131.151 28.8151 131.059 28.7767C130.966 28.7382 130.886 28.6731 130.83 28.5895C130.775 28.5059 130.745 28.4076 130.745 28.3071C130.745 28.1723 130.798 28.043 130.894 27.9477C130.989 27.8524 131.118 27.7988 131.253 27.7988V27.7988Z" fill="#E8EAED"/>
<path d="M122.938 24.0718C123.394 24.0718 123.84 24.2071 124.219 24.4605C124.598 24.7139 124.894 25.0742 125.069 25.4957C125.243 25.9171 125.289 26.3809 125.2 26.8283C125.111 27.2757 124.891 27.6867 124.569 28.0093C124.246 28.3319 123.835 28.5516 123.388 28.6406C122.94 28.7296 122.476 28.6839 122.055 28.5093C121.633 28.3347 121.273 28.0391 121.02 27.6598C120.766 27.2805 120.631 26.8345 120.631 26.3783C120.631 25.7666 120.874 25.1799 121.307 24.7474C121.739 24.3148 122.326 24.0718 122.938 24.0718V24.0718Z" fill="#0065F2"/>
<path d="M122.644 25.9857C122.673 26.1014 122.74 26.207 122.856 26.207C122.972 26.207 123.039 26.1014 123.068 25.9761C123.087 25.9667 123.102 25.9511 123.11 25.9318C123.119 25.9126 123.121 25.8908 123.115 25.8704C123.116 25.8606 123.113 25.8509 123.108 25.8424C123.103 25.834 123.096 25.8271 123.087 25.8226C123.09 25.7575 123.068 25.6937 123.025 25.6449C122.982 25.5962 122.921 25.5666 122.856 25.5625C122.791 25.572 122.732 25.6045 122.69 25.6541C122.647 25.7036 122.624 25.7669 122.625 25.8322C122.613 25.8335 122.603 25.8392 122.596 25.8482C122.589 25.8571 122.585 25.8685 122.586 25.88C122.584 25.9014 122.588 25.9231 122.598 25.9421C122.609 25.961 122.625 25.9763 122.644 25.9857V25.9857Z" fill="white"/>
<path d="M123.298 26.3513C123.211 26.3103 123.121 26.275 123.029 26.2456H123.019C123.019 26.3035 122.933 26.6401 122.933 26.6401L122.885 26.3704L122.914 26.303L122.866 26.2643H122.837L122.798 26.3121L122.827 26.3795L122.779 26.6492C122.779 26.6492 122.702 26.3025 122.693 26.2547H122.683C122.59 26.2798 122.499 26.3153 122.413 26.3604C122.386 26.3882 122.364 26.4213 122.349 26.4577C122.334 26.494 122.327 26.5329 122.327 26.5722C122.379 26.6335 122.441 26.6856 122.51 26.7261V26.6587C122.511 26.6277 122.521 26.5975 122.539 26.5722V26.7453C122.639 26.8019 122.751 26.8317 122.866 26.8318C122.97 26.8336 123.072 26.8105 123.165 26.7644V26.5803C123.181 26.606 123.188 26.6366 123.184 26.6668V26.7625C123.253 26.7232 123.318 26.675 123.375 26.619V26.6095C123.381 26.5635 123.377 26.5168 123.364 26.4724C123.35 26.428 123.328 26.3868 123.298 26.3513V26.3513Z" fill="white"/>
<path d="M124.069 27.6802L123.578 26.9095C123.78 26.7304 123.908 26.482 123.935 26.2133C123.963 25.9446 123.889 25.6754 123.728 25.4588C123.566 25.2422 123.329 25.0941 123.064 25.0438C122.799 24.9935 122.524 25.0446 122.295 25.1871C122.065 25.3296 121.898 25.5531 121.825 25.8133C121.753 26.0734 121.78 26.3513 121.903 26.592C122.026 26.8326 122.234 27.0185 122.487 27.1127C122.74 27.2069 123.02 27.2026 123.27 27.1007L123.76 27.8729C123.787 27.9129 123.827 27.9413 123.874 27.9521C123.92 27.9629 123.969 27.9552 124.01 27.9308C124.031 27.9185 124.049 27.9021 124.063 27.8827C124.077 27.8633 124.087 27.8413 124.093 27.8179C124.098 27.7945 124.099 27.7703 124.095 27.7466C124.091 27.723 124.082 27.7004 124.069 27.6802V27.6802ZM123.27 26.756C123.185 26.8132 123.089 26.8527 122.988 26.8721C122.887 26.8916 122.783 26.8906 122.683 26.8692C122.582 26.8478 122.487 26.8065 122.403 26.7477C122.319 26.6889 122.247 26.6138 122.192 26.5268C122.138 26.4399 122.101 26.3428 122.084 26.2414C122.068 26.1401 122.072 26.0364 122.096 25.9366C122.12 25.8368 122.165 25.7428 122.226 25.6604C122.287 25.5779 122.364 25.5085 122.453 25.4564C122.538 25.4022 122.633 25.3654 122.732 25.3481C122.832 25.3308 122.934 25.3333 123.032 25.3555C123.13 25.3777 123.224 25.4192 123.306 25.4775C123.388 25.5359 123.458 25.61 123.512 25.6955C123.617 25.8683 123.655 26.0741 123.617 26.2731C123.562 26.4699 123.439 26.6408 123.27 26.756Z" fill="white"/>
<path opacity="0.521" d="M21.7375 41.1318H104.129C104.308 41.1318 104.479 41.2028 104.606 41.3292C104.732 41.4555 104.803 41.6269 104.803 41.8055V55.9796C104.803 56.068 104.786 56.1556 104.752 56.2374C104.718 56.3191 104.668 56.3934 104.606 56.4559C104.543 56.5185 104.469 56.5681 104.387 56.602C104.305 56.6358 104.218 56.6533 104.129 56.6533H21.7375C21.6491 56.6533 21.5615 56.6358 21.4797 56.602C21.398 56.5681 21.3237 56.5185 21.2612 56.4559C21.1986 56.3934 21.149 56.3191 21.1151 56.2374C21.0813 56.1556 21.0638 56.068 21.0638 55.9796V41.8055C21.0638 41.6269 21.1348 41.4555 21.2612 41.3292C21.3875 41.2028 21.5589 41.1318 21.7375 41.1318V41.1318Z" fill="#B2D8F5"/>
<path opacity="0.521" d="M21.7375 86.6802H104.129C104.308 86.6802 104.479 86.7512 104.606 86.8775C104.732 87.0038 104.803 87.1752 104.803 87.3539V94.6929H21.0638V87.3539C21.0638 87.1752 21.1348 87.0038 21.2612 86.8775C21.3875 86.7512 21.5589 86.6802 21.7375 86.6802V86.6802Z" fill="#B2D8F5"/>
<path opacity="0.521" d="M22.2769 64.6431H51.6759C51.9976 64.6431 52.3061 64.7709 52.5336 64.9984C52.7611 65.2258 52.8889 65.5344 52.8889 65.8561V67.0338C52.8889 67.3555 52.7611 67.664 52.5336 67.8915C52.3061 68.119 51.9976 68.2468 51.6759 68.2468H22.2769C21.9552 68.2468 21.6466 68.119 21.4191 67.8915C21.1916 67.664 21.0638 67.3555 21.0638 67.0338V65.8561C21.0638 65.5344 21.1916 65.2258 21.4191 64.9984C21.6466 64.7709 21.9552 64.6431 22.2769 64.6431V64.6431Z" fill="#B2D8F5"/>
<path opacity="0.594" d="M23.0256 78.2241H30.6859C31.2221 78.2241 31.7363 78.4371 32.1154 78.8162C32.4945 79.1953 32.7075 79.7095 32.7075 80.2457V80.3337C32.7075 80.5992 32.6552 80.862 32.5536 81.1073C32.452 81.3526 32.3031 81.5754 32.1154 81.7632C31.9277 81.9509 31.7048 82.0998 31.4595 82.2014C31.2143 82.303 30.9514 82.3553 30.6859 82.3553H23.0256C22.7601 82.3553 22.4972 82.303 22.2519 82.2013C22.0066 82.0997 21.7837 81.9508 21.596 81.763C21.4082 81.5752 21.2593 81.3523 21.1578 81.107C21.0562 80.8617 21.004 80.5987 21.004 80.3332V80.2457C21.004 79.7095 21.217 79.1953 21.5961 78.8162C21.9753 78.4371 22.4895 78.2241 23.0256 78.2241V78.2241Z" fill="#9BC7E9"/>
<g opacity="0.594">
<path d="M39.2688 79.1804C38.6815 79.1804 38.2037 79.6582 38.2037 80.2455V80.3333C38.2037 80.9206 38.6815 81.3984 39.2688 81.3984H46.9293C47.5166 81.3984 47.9944 80.9206 47.9944 80.3333V80.2455C47.9944 79.6582 47.5166 79.1804 46.9293 79.1804H39.2688ZM39.2688 78.2241H46.9293C48.0457 78.2241 48.9507 79.1291 48.9507 80.2455V80.3333C48.9507 81.4497 48.0457 82.3547 46.9293 82.3547H39.2688C38.1524 82.3547 37.2474 81.4497 37.2474 80.3333V80.2455C37.2474 79.1291 38.1524 78.2241 39.2688 78.2241Z" fill="#C3DDF2"/>
</g>
<g opacity="0.594">
<path d="M55.7436 79.1804C55.1564 79.1804 54.6786 79.6582 54.6786 80.2455V80.3333C54.6786 80.9206 55.1564 81.3984 55.7436 81.3984H63.4042C63.9914 81.3984 64.4692 80.9206 64.4692 80.3333V80.2455C64.4692 79.6582 63.9914 79.1804 63.4042 79.1804H55.7436ZM55.7436 78.2241H63.4042C64.5205 78.2241 65.4255 79.1291 65.4255 80.2455V80.3333C65.4255 81.4497 64.5205 82.3547 63.4042 82.3547H55.7436C54.6273 82.3547 53.7223 81.4497 53.7223 80.3333V80.2455C53.7223 79.1291 54.6273 78.2241 55.7436 78.2241Z" fill="#C3DDF2"/>
</g>
<g opacity="0.594">
<path d="M72.2189 79.1804C71.6316 79.1804 71.1538 79.6582 71.1538 80.2455V80.3333C71.1538 80.9206 71.6316 81.3984 72.2189 81.3984H79.8794C80.4667 81.3984 80.9445 80.9206 80.9445 80.3333V80.2455C80.9445 79.6582 80.4667 79.1804 79.8794 79.1804H72.2189ZM72.2189 78.2241H79.8794C80.9957 78.2241 81.9007 79.1291 81.9007 80.2455V80.3333C81.9007 81.4497 80.9957 82.3547 79.8794 82.3547H72.2189C71.1025 82.3547 70.1975 81.4497 70.1975 80.3333V80.2455C70.1975 79.1291 71.1025 78.2241 72.2189 78.2241Z" fill="#C3DDF2"/>
</g>
<path opacity="0.521" d="M22.0646 72.249H46.0831C46.3485 72.249 46.603 72.3545 46.7907 72.5421C46.9784 72.7298 47.0838 72.9844 47.0838 73.2498C47.0838 73.5152 46.9784 73.7697 46.7907 73.9574C46.603 74.1451 46.3485 74.2505 46.0831 74.2505H22.0646C21.7992 74.2505 21.5446 74.1451 21.357 73.9574C21.1693 73.7697 21.0638 73.5152 21.0638 73.2498C21.0638 72.9844 21.1693 72.7298 21.357 72.5421C21.5446 72.3545 21.7992 72.249 22.0646 72.249V72.249Z" fill="#B2D8F5"/>
<path opacity="0.521" d="M22.0646 69.2471H47.2842C47.5496 69.2471 47.8041 69.3525 47.9918 69.5402C48.1795 69.7279 48.2849 69.9824 48.2849 70.2478C48.2849 70.5132 48.1795 70.7678 47.9918 70.9555C47.8041 71.1431 47.5496 71.2486 47.2842 71.2486H22.0646C21.7992 71.2486 21.5446 71.1431 21.357 70.9555C21.1693 70.7678 21.0638 70.5132 21.0638 70.2478C21.0638 69.9824 21.1693 69.7279 21.357 69.5402C21.5446 69.3525 21.7992 69.2471 22.0646 69.2471V69.2471Z" fill="#B2D8F5"/>
<path d="M32.7668 43.1797C35.1727 43.2136 37.4667 44.2016 39.1443 45.9264C40.8219 47.6513 41.7458 49.9718 41.7129 52.3777C41.7459 54.7837 40.8221 57.1043 39.1445 58.8293C37.4668 60.5542 35.1728 61.5423 32.7668 61.5762C30.3608 61.5423 28.0668 60.5542 26.3892 58.8293C24.7116 57.1043 23.7877 54.7837 23.8208 52.3777C23.7879 49.9718 24.7118 47.6513 26.3894 45.9264C28.067 44.2016 30.3609 43.2136 32.7668 43.1797V43.1797Z" fill="#DBEEFF"/>
<g opacity="0.389">
<path d="M40.6203 57.392C40.6042 57.0593 40.4917 56.7385 40.2964 56.4687C40.1011 56.1989 39.8316 55.9917 39.5206 55.8725L35.8838 54.4753C35.6792 54.2363 35.476 53.9881 35.29 53.7433V53.7385L35.2761 53.7237L35.2565 53.6974V53.7041L34.9668 53.3904V52.2907L34.9314 52.2993C35.0357 52.1429 35.1187 51.9733 35.1781 51.7949C35.2369 51.5912 35.2862 51.376 35.3263 51.1733C35.3689 51.1771 35.4117 51.1758 35.454 51.1695C35.6562 51.1422 35.8365 50.6808 35.8365 50.6808C35.9549 50.3542 36.0368 50.0156 36.0808 49.671C36.0808 49.671 36.1406 48.9724 35.9187 48.9031C35.9082 46.2805 35.6199 46.073 35.6199 46.073C35.6199 46.073 34.5053 44.2407 32.7668 44.2407C31.0283 44.2407 29.9152 46.0696 29.9152 46.0696C29.9152 46.0696 29.6283 46.2771 29.6164 48.8997C29.3945 48.9691 29.4543 49.6676 29.4543 49.6676C29.4982 50.0122 29.5802 50.3509 29.6986 50.6775C29.6986 50.6775 29.8765 51.1393 30.0811 51.1661C30.1234 51.1724 30.1662 51.1737 30.2088 51.1699C30.2489 51.3717 30.2982 51.5874 30.3565 51.7915C30.4157 51.9694 30.4983 52.1386 30.6023 52.2945L30.5736 52.2878V53.3876L30.2867 53.7051V53.6993L30.269 53.7227L30.2551 53.738V53.7423C30.0701 53.9862 29.8679 54.2329 29.6637 54.4706L26.0121 55.8715C25.7013 55.991 25.4319 56.1984 25.2369 56.4684C25.0418 56.7384 24.9296 57.0593 24.9138 57.392L24.713 61.5762H40.8211L40.6203 57.392Z" fill="#77ADD6"/>
</g>
<path d="M17.9746 30.2031H135.999V38.3841H17.9746V30.2031Z" fill="#DFF0FF"/>
<path opacity="0.692" d="M31.7819 32.6401H51.2934C51.7142 32.6474 52.1154 32.8197 52.4104 33.1199C52.7055 33.42 52.8708 33.8241 52.8708 34.245C52.8708 34.6659 52.7055 35.07 52.4104 35.3702C52.1154 35.6704 51.7142 35.8426 51.2934 35.8499H31.7819C31.361 35.8426 30.9599 35.6704 30.6648 35.3702C30.3698 35.07 30.2045 34.6659 30.2045 34.245C30.2045 33.8241 30.3698 33.42 30.6648 33.1199C30.9599 32.8197 31.361 32.6474 31.7819 32.6401Z" fill="white"/>
<path opacity="0.641" d="M21.7375 31.2925H25.8362C26.0148 31.2925 26.1862 31.3635 26.3125 31.4898C26.4389 31.6161 26.5099 31.7875 26.5099 31.9662V36.0648C26.5099 36.2435 26.4389 36.4148 26.3125 36.5412C26.1862 36.6675 26.0148 36.7385 25.8362 36.7385H21.7375C21.5589 36.7385 21.3875 36.6675 21.2612 36.5412C21.1348 36.4148 21.0638 36.2435 21.0638 36.0648V31.9662C21.0638 31.7875 21.1348 31.6161 21.2612 31.4898C21.3875 31.3635 21.5589 31.2925 21.7375 31.2925V31.2925Z" fill="#0041C3"/>
<path d="M154.999 70.0635V99.0231C154.999 99.0584 154.999 99.0933 154.996 99.1302C154.996 99.1469 154.996 99.1636 154.993 99.1804C154.989 99.1971 154.993 99.2124 154.989 99.2282C154.989 99.2349 154.989 99.2416 154.989 99.2483C154.989 99.255 154.986 99.2703 154.984 99.2803C154.984 99.3056 154.977 99.3305 154.974 99.3559C154.971 99.3812 154.965 99.4037 154.96 99.4281C154.958 99.44 154.956 99.4518 154.952 99.4634C154.952 99.4726 154.95 99.4817 154.947 99.4902C154.945 99.5022 154.942 99.514 154.938 99.5256C154.933 99.5476 154.926 99.5691 154.921 99.5892C154.921 99.5934 154.92 99.5974 154.918 99.6012C154.906 99.638 154.896 99.6748 154.883 99.7102C154.883 99.711 154.883 99.7119 154.883 99.7128C154.883 99.7137 154.883 99.7146 154.883 99.7154C154.876 99.7341 154.869 99.7522 154.862 99.769C154.856 99.7857 154.849 99.801 154.844 99.8168C154.842 99.8211 154.84 99.8255 154.839 99.8302C154.818 99.8756 154.798 99.9225 154.775 99.966C154.768 99.9794 154.76 99.9961 154.752 100.011C154.743 100.027 154.735 100.04 154.726 100.055C154.718 100.07 154.711 100.084 154.701 100.097C154.684 100.126 154.665 100.154 154.647 100.181C154.635 100.199 154.624 100.214 154.614 100.231C154.585 100.268 154.558 100.304 154.528 100.34C154.507 100.367 154.485 100.392 154.463 100.415C154.441 100.441 154.417 100.463 154.394 100.488C154.384 100.5 154.372 100.51 154.36 100.521C154.351 100.532 154.34 100.541 154.328 100.55C154.316 100.562 154.303 100.573 154.29 100.585C154.286 100.589 154.281 100.592 154.278 100.595C154.246 100.624 154.212 100.651 154.179 100.676C154.175 100.678 154.172 100.681 154.169 100.684C154.142 100.703 154.115 100.723 154.086 100.741C154.076 100.748 154.068 100.754 154.06 100.76C154.052 100.765 154.03 100.78 154.014 100.788C154.003 100.797 153.99 100.804 153.977 100.81C153.964 100.819 153.951 100.827 153.937 100.834C153.843 100.888 153.744 100.933 153.642 100.97C153.635 100.97 153.63 100.975 153.623 100.976L153.601 100.983C153.578 100.992 153.553 101 153.529 101.006C153.487 101.02 153.445 101.03 153.403 101.04L153.338 101.055C153.324 101.058 153.31 101.06 153.296 101.062L153.243 101.072C153.24 101.072 153.238 101.072 153.237 101.072L153.195 101.077C153.188 101.077 153.181 101.077 153.175 101.077L153.138 101.082C153.131 101.082 153.124 101.082 153.116 101.082L153.039 101.087C153.002 101.087 152.965 101.09 152.928 101.09H101.763C101.727 101.09 101.69 101.09 101.653 101.087L101.576 101.082C101.547 101.08 101.518 101.077 101.49 101.072C101.474 101.071 101.458 101.068 101.442 101.065C101.402 101.06 101.362 101.052 101.323 101.043C101.312 101.041 101.301 101.038 101.29 101.035C101.248 101.025 101.206 101.015 101.164 101.001C101.139 100.993 101.116 100.986 101.092 100.978C100.979 100.939 100.871 100.891 100.766 100.834L100.69 100.789C100.662 100.772 100.634 100.753 100.607 100.735C100.441 100.623 100.293 100.488 100.165 100.334C100.135 100.299 100.107 100.262 100.08 100.223C99.9871 100.095 99.9099 99.9568 99.8499 99.8106C99.8365 99.7771 99.8231 99.7403 99.8098 99.7049C99.7964 99.6695 99.7863 99.6327 99.7744 99.5959C99.7624 99.5591 99.7543 99.5222 99.7457 99.4849C99.7371 99.4476 99.7304 99.4161 99.7237 99.3807C99.7237 99.3759 99.7237 99.3692 99.7203 99.364C99.7151 99.3305 99.7103 99.2951 99.707 99.2617C99.7059 99.2589 99.7059 99.2558 99.707 99.2531C99.7036 99.2263 99.7017 99.2009 99.7003 99.1742C99.6917 99.1292 99.6917 99.0771 99.6917 99.0236V70.0635C99.6912 69.7577 99.7587 69.4556 99.8893 69.1791C100.02 68.9026 100.21 68.6585 100.447 68.4646C100.451 68.4609 100.455 68.4575 100.46 68.4546L100.567 68.3723C100.916 68.1233 101.334 67.9896 101.762 67.9898H152.927C152.976 67.9894 153.026 67.9917 153.075 67.9965C153.084 67.9948 153.093 67.9948 153.101 67.9965C153.149 67.9998 153.197 68.0051 153.243 68.0118L153.275 68.0166C153.315 68.0233 153.355 68.0319 153.394 68.0419C153.404 68.0433 153.414 68.0456 153.424 68.0486C153.472 68.0606 153.519 68.0739 153.567 68.0888C153.615 68.1036 153.656 68.1189 153.698 68.1366C153.758 68.1606 153.817 68.188 153.874 68.2188C153.907 68.2338 153.939 68.2506 153.97 68.269C154.023 68.2991 154.075 68.3328 154.124 68.3699C154.124 68.3699 154.124 68.3699 154.124 68.3699L154.232 68.4522C154.237 68.4551 154.241 68.4585 154.245 68.4622C154.274 68.4842 154.299 68.5076 154.324 68.531C154.349 68.5545 154.363 68.5664 154.381 68.5846C154.439 68.6402 154.492 68.6997 154.542 68.7625C154.566 68.7908 154.588 68.8194 154.608 68.8481C154.695 68.9679 154.769 69.0973 154.828 69.2339C154.844 69.2707 154.86 69.3094 154.875 69.3482C154.875 69.3482 154.875 69.3515 154.875 69.3534C154.898 69.4161 154.918 69.48 154.934 69.5447C154.943 69.5767 154.949 69.6069 154.956 69.6403C154.963 69.6738 154.966 69.6881 154.97 69.714C154.973 69.7398 154.978 69.7642 154.982 69.7895C154.987 69.8194 154.99 69.8496 154.992 69.8799C154.995 69.9054 154.997 69.9311 154.997 69.9569C154.997 69.9922 155 70.029 155 70.0644" fill="#DFE5EA"/>
<path d="M154.874 69.3552H99.8158C99.9426 69.0072 100.16 68.6996 100.446 68.4644C100.451 68.4606 100.456 68.4573 100.462 68.4544L100.569 68.3722L126.076 49.0084C126.441 48.7308 126.887 48.5806 127.345 48.5806C127.804 48.5806 128.25 48.7308 128.615 49.0084L154.122 68.3731L154.229 68.4553C154.234 68.4583 154.238 68.4617 154.243 68.4654C154.271 68.4874 154.296 68.5108 154.322 68.5342C154.347 68.5577 154.36 68.5696 154.378 68.5878C154.436 68.6435 154.49 68.7029 154.54 68.7657C154.563 68.794 154.585 68.8226 154.605 68.8512C154.693 68.9711 154.767 69.1005 154.825 69.2371C154.842 69.2739 154.857 69.3127 154.873 69.3514C154.873 69.3514 154.873 69.3547 154.873 69.3566" fill="#1357B5"/>
<path d="M151.028 99.589H102.981V55.9902C102.981 55.0065 103.371 54.0631 104.067 53.3676C104.763 52.672 105.706 52.2812 106.69 52.2812H147.32C148.304 52.2813 149.247 52.672 149.943 53.3676C150.638 54.0631 151.029 55.0065 151.029 55.9902L151.028 99.589Z" fill="white"/>
<path d="M144.656 62.7492H109.351C109.113 62.7485 108.884 62.6536 108.716 62.485C108.547 62.3165 108.452 62.0881 108.452 61.8498V61.4673C108.452 61.229 108.547 61.0007 108.716 60.8323C108.884 60.6639 109.113 60.569 109.351 60.5684H144.656C144.895 60.569 145.123 60.664 145.292 60.8325C145.46 61.001 145.555 61.2294 145.556 61.4677V61.8503C145.555 62.0886 145.46 62.317 145.292 62.4855C145.123 62.6541 144.895 62.749 144.656 62.7496" fill="#E4ECF9"/>
<path d="M144.656 67.4083H109.351C109.113 67.4077 108.884 67.3127 108.716 67.1442C108.547 66.9757 108.452 66.7473 108.452 66.5089V66.1264C108.452 65.8881 108.547 65.6598 108.716 65.4913C108.884 65.3228 109.113 65.2278 109.351 65.2271H144.656C144.895 65.2277 145.123 65.3226 145.292 65.4912C145.46 65.6597 145.555 65.8881 145.556 66.1264V66.5089C145.555 66.7473 145.46 66.9757 145.292 67.1442C145.123 67.3127 144.895 67.4077 144.656 67.4083" fill="#E4ECF9"/>
<path d="M144.656 72.0675H109.351C109.113 72.0669 108.884 71.9719 108.716 71.8034C108.547 71.6349 108.452 71.4065 108.452 71.1681V70.7856C108.452 70.5473 108.547 70.3189 108.716 70.1503C108.884 69.9818 109.113 69.8869 109.351 69.8862H144.656C144.895 69.8869 145.123 69.9818 145.292 70.1503C145.46 70.3189 145.555 70.5473 145.556 70.7856V71.1681C145.555 71.4065 145.46 71.6349 145.292 71.8034C145.123 71.9719 144.895 72.0669 144.656 72.0675" fill="#E4ECF9"/>
<path d="M144.656 76.7267H109.351C109.113 76.7259 108.884 76.6309 108.716 76.4624C108.547 76.2939 108.452 76.0656 108.452 75.8273V75.4448C108.452 75.2065 108.547 74.9781 108.716 74.8095C108.884 74.641 109.113 74.546 109.351 74.5454H144.656C144.895 74.546 145.123 74.641 145.292 74.8095C145.46 74.9781 145.555 75.2065 145.556 75.4448V75.8273C145.555 76.0657 145.46 76.2941 145.292 76.4626C145.123 76.6311 144.895 76.7261 144.656 76.7267" fill="#E4ECF9"/>
<path d="M144.656 81.3863H109.351C109.113 81.3857 108.884 81.2908 108.716 81.1222C108.547 80.9537 108.452 80.7253 108.452 80.487V80.1045C108.452 79.8661 108.547 79.6377 108.716 79.4692C108.884 79.3007 109.113 79.2057 109.351 79.2051H144.656C144.895 79.2057 145.123 79.3007 145.292 79.4692C145.46 79.6377 145.555 79.8661 145.556 80.1045V80.487C145.555 80.7253 145.46 80.9537 145.292 81.1222C145.123 81.2908 144.895 81.3857 144.656 81.3863" fill="#E4ECF9"/>
<path d="M127.346 85.319C127.262 85.4101 127.165 85.489 127.06 85.5538L101.876 101.093H101.763C101.56 101.094 101.357 101.064 101.163 101.004L101.084 100.979C100.756 100.866 100.462 100.671 100.23 100.414C100.208 100.39 100.186 100.365 100.165 100.338C100.101 100.262 100.043 100.18 99.9919 100.095C99.9733 100.066 99.9585 100.038 99.9417 100.009C99.925 99.9808 99.9097 99.9492 99.8963 99.9186C99.7617 99.6394 99.6917 99.3335 99.6917 99.0235V70.0635C99.6912 69.7577 99.7587 69.4556 99.8893 69.1791C100.02 68.9026 100.21 68.6585 100.447 68.4646C100.451 68.4608 100.455 68.4575 100.46 68.4545L100.567 68.3723C100.916 68.1233 101.334 67.9895 101.762 67.9897H102.235L104.447 69.3539L124.83 81.929L125.595 82.4019L127.059 83.3046C127.164 83.3694 127.261 83.4484 127.345 83.5394V83.5394C127.565 83.7829 127.686 84.099 127.686 84.4268C127.686 84.7546 127.565 85.0708 127.345 85.3143" fill="#0065F2"/>
<path d="M154.999 70.0631V99.0226C154.999 99.058 154.999 99.0929 154.996 99.1297C154.996 99.1465 154.996 99.1632 154.992 99.1799C154.989 99.1967 154.992 99.212 154.989 99.2278C154.989 99.2344 154.989 99.2411 154.989 99.2478C154.989 99.2545 154.986 99.2698 154.984 99.2799C154.984 99.3052 154.978 99.3301 154.974 99.3554C154.971 99.3808 154.966 99.4032 154.961 99.4276C154.961 99.431 154.961 99.4362 154.961 99.4391C154.959 99.4471 154.957 99.4549 154.954 99.4625C154.954 99.4717 154.953 99.4807 154.949 99.4893C154.947 99.5013 154.944 99.5131 154.941 99.5247C154.935 99.5467 154.931 99.5668 154.924 99.5883C154.924 99.5925 154.923 99.5965 154.921 99.6002C154.911 99.637 154.899 99.6739 154.885 99.7092C154.886 99.7101 154.886 99.711 154.886 99.7119C154.886 99.7128 154.886 99.7137 154.885 99.7145C154.879 99.7331 154.873 99.7499 154.865 99.7681C154.857 99.7862 154.853 99.7982 154.847 99.8159C154.845 99.8202 154.843 99.8247 154.842 99.8293C154.822 99.8747 154.802 99.9215 154.778 99.965C154.771 99.9784 154.763 99.9952 154.755 100.01C154.747 100.026 154.738 100.039 154.729 100.054C154.721 100.069 154.714 100.083 154.704 100.096C154.687 100.125 154.669 100.153 154.651 100.18C154.639 100.198 154.627 100.213 154.617 100.23C154.588 100.269 154.56 100.304 154.531 100.339C154.509 100.366 154.488 100.391 154.466 100.414C154.444 100.44 154.421 100.462 154.397 100.487C154.387 100.499 154.375 100.509 154.364 100.52C154.354 100.531 154.343 100.54 154.332 100.549C154.32 100.561 154.306 100.572 154.293 100.584L154.281 100.594C154.249 100.623 154.215 100.65 154.182 100.675C154.178 100.677 154.175 100.68 154.172 100.683C154.145 100.702 154.118 100.722 154.09 100.74C154.08 100.747 154.071 100.754 154.063 100.759C154.055 100.764 154.033 100.779 154.017 100.787C154.006 100.796 153.993 100.803 153.981 100.809C153.967 100.818 153.954 100.826 153.94 100.833C153.846 100.887 153.748 100.932 153.645 100.969C153.639 100.969 153.632 100.974 153.627 100.975L153.605 100.982C153.581 100.991 153.557 100.999 153.533 101.005C153.491 101.019 153.449 101.029 153.407 101.039L153.341 101.054C153.328 101.057 153.313 101.06 153.299 101.061L153.247 101.071H153.242C153.227 101.071 153.212 101.076 153.198 101.078C153.185 101.08 153.185 101.078 153.178 101.078L153.142 101.082C153.135 101.082 153.128 101.082 153.12 101.082L153.043 101.087C153.006 101.087 152.969 101.091 152.932 101.091H152.817L127.634 85.551C127.529 85.4865 127.434 85.4075 127.351 85.3162C127.13 85.0732 127.008 84.7568 127.008 84.4288C127.008 84.1008 127.13 83.7844 127.351 83.5414V83.5414C127.434 83.4501 127.529 83.3711 127.634 83.3066L129.095 82.4039L129.86 81.931L150.245 69.3559L152.457 67.9917H152.927C152.977 67.9914 153.026 67.9937 153.075 67.9984C153.084 67.9968 153.093 67.9968 153.102 67.9984C153.15 68.0018 153.197 68.007 153.243 68.0137L153.275 68.0185C153.315 68.0252 153.355 68.0338 153.394 68.0439C153.404 68.0453 153.414 68.0475 153.424 68.0505C153.472 68.0625 153.52 68.0759 153.568 68.0907C153.615 68.1055 153.656 68.1208 153.699 68.1385C153.759 68.1626 153.817 68.19 153.875 68.2208C153.907 68.2358 153.939 68.2525 153.97 68.271C154.024 68.301 154.075 68.3347 154.125 68.3718C154.125 68.3718 154.125 68.3718 154.125 68.3718L154.232 68.4541C154.236 68.4571 154.241 68.4604 154.245 68.4642C154.274 68.4861 154.299 68.5096 154.324 68.533C154.349 68.5564 154.363 68.5684 154.381 68.5865C154.438 68.6422 154.492 68.7016 154.542 68.7644C154.566 68.7928 154.587 68.8213 154.607 68.85C154.695 68.9698 154.769 69.0993 154.827 69.2358C154.844 69.2727 154.859 69.3114 154.875 69.3501C154.875 69.3501 154.875 69.3535 154.875 69.3554C154.898 69.4181 154.918 69.4819 154.934 69.5467C154.943 69.5787 154.949 69.6088 154.956 69.6423C154.963 69.6758 154.966 69.6901 154.969 69.7159C154.973 69.7417 154.978 69.7661 154.981 69.7915C154.986 69.8214 154.99 69.8515 154.991 69.8818C154.995 69.9074 154.996 69.9331 154.996 69.9588C154.996 69.9942 155 70.031 155 70.0664" fill="#0065F2"/>
<g opacity="0.29">
<path d="M154.999 98.6307V98.9319C155.011 99.4934 154.799 100.036 154.411 100.442C154.022 100.847 153.489 101.082 152.927 101.095H101.763C101.202 101.082 100.668 100.847 100.28 100.442C99.8915 100.036 99.6798 99.4934 99.6915 98.9319V98.6307L126.007 81.3167C126.404 81.0538 126.869 80.9136 127.345 80.9136C127.82 80.9136 128.285 81.0538 128.682 81.3167L154.999 98.6307Z" fill="#474747"/>
</g>
<path d="M154.999 98.7352V99.0221C154.999 99.5716 154.781 100.099 154.392 100.487C154.004 100.876 153.477 101.094 152.927 101.094H101.763C101.214 101.094 100.688 100.876 100.299 100.487C99.9106 100.099 99.6922 99.5728 99.6917 99.0236V98.7367L126.008 82.1495C126.408 81.8971 126.871 81.7632 127.345 81.7632C127.818 81.7632 128.282 81.8971 128.682 82.1495L154.999 98.7352Z" fill="#1357B5"/>
<path d="M124.749 58.09H109.352C109.114 58.0893 108.886 57.9944 108.717 57.8259C108.549 57.6573 108.454 57.4289 108.453 57.1906V56.8081C108.454 56.5697 108.549 56.3413 108.717 56.1728C108.886 56.0043 109.114 55.9093 109.352 55.9087H124.749C124.987 55.9093 125.215 56.0043 125.384 56.1728C125.552 56.3413 125.647 56.5697 125.648 56.8081V57.1906C125.647 57.4289 125.552 57.6573 125.384 57.8259C125.215 57.9944 124.987 58.0893 124.749 58.09" fill="#0065F2"/>
<path d="M113.17 39.2061H94.8819C93.5616 39.2061 92.4912 40.2764 92.4912 41.5968V57.4003C92.4912 58.7206 93.5616 59.791 94.8819 59.791H113.17C114.49 59.791 115.561 58.7206 115.561 57.4003V41.5968C115.561 40.2764 114.49 39.2061 113.17 39.2061Z" fill="#FFD800"/>
<path d="M104.977 64.6291C104.888 64.7511 104.772 64.8504 104.637 64.9188C104.503 64.9873 104.354 65.0229 104.204 65.0229C104.053 65.0229 103.904 64.9873 103.77 64.9188C103.635 64.8504 103.519 64.7511 103.43 64.6291L99.6294 59.403C99.5257 59.2604 99.4635 59.0918 99.4496 58.916C99.4357 58.7402 99.4707 58.564 99.5507 58.4069C99.6307 58.2497 99.7526 58.1177 99.903 58.0255C100.053 57.9333 100.226 57.8845 100.403 57.8844H108.004C108.18 57.8844 108.353 57.9332 108.504 58.0253C108.654 58.1175 108.776 58.2495 108.856 58.4066C108.936 58.5638 108.971 58.7401 108.957 58.9159C108.944 59.0918 108.881 59.2603 108.778 59.403L104.977 64.6291Z" fill="#FFD800"/>
<path d="M106.086 55.6006C106.017 56.0189 105.802 56.3993 105.479 56.6738C105.156 56.9483 104.746 57.099 104.322 57.099C103.898 57.099 103.488 56.9483 103.165 56.6738C102.842 56.3993 102.627 56.0189 102.559 55.6006H106.086Z" fill="white"/>
<path d="M109.809 52.3565C109.809 52.3565 107.466 51.1425 107.466 47.7281C107.466 47.7281 107.561 45.3718 105.558 44.7158C105.157 44.5971 104.74 44.535 104.321 44.5312C103.903 44.535 103.486 44.5971 103.084 44.7158C101.082 45.3704 101.177 47.7281 101.177 47.7281C101.177 51.1425 98.8342 52.3565 98.8342 52.3565C98.8357 53.5547 98.8295 54.4804 98.8295 54.4804H109.815C109.815 54.4804 109.809 53.5547 109.809 52.3565Z" fill="white"/>
<path d="M105.522 42.7304C105.522 42.9679 105.452 43.2001 105.32 43.3976C105.188 43.5951 105 43.7489 104.781 43.8397C104.561 43.9306 104.32 43.9543 104.087 43.9078C103.854 43.8614 103.64 43.7469 103.472 43.5789C103.304 43.4108 103.189 43.1968 103.143 42.9638C103.097 42.7307 103.121 42.4893 103.212 42.2698C103.303 42.0504 103.457 41.8629 103.654 41.731C103.852 41.5991 104.084 41.5287 104.322 41.5288C104.48 41.5288 104.636 41.5599 104.782 41.6203C104.927 41.6807 105.06 41.7692 105.171 41.8808C105.283 41.9924 105.371 42.1248 105.432 42.2706C105.492 42.4164 105.523 42.5726 105.523 42.7304H105.522Z" fill="white"/>
<path d="M139.666 74.8372C139.589 74.8373 139.515 74.8108 139.456 74.7621C138.987 74.3797 138.546 73.9642 138.135 73.519C138.104 73.4872 138.08 73.4495 138.063 73.4081C138.047 73.3666 138.039 73.3224 138.04 73.2779C138.042 73.2333 138.052 73.1895 138.07 73.149C138.089 73.1085 138.115 73.0721 138.148 73.042C138.181 73.0119 138.219 72.9887 138.261 72.9738C138.303 72.9588 138.348 72.9525 138.392 72.9552C138.436 72.9579 138.48 72.9694 138.52 72.9892C138.56 73.009 138.595 73.0367 138.624 73.0705C139.013 73.4931 139.431 73.8874 139.876 74.2505C139.929 74.2939 139.967 74.3526 139.985 74.4185C140.004 74.4845 140.001 74.5545 139.978 74.619C139.955 74.6834 139.913 74.7392 139.857 74.7786C139.801 74.818 139.734 74.8392 139.666 74.8391M137.284 72.2395C137.23 72.2396 137.176 72.2263 137.128 72.2007C137.08 72.1752 137.039 72.1383 137.009 72.0932C136.669 71.5894 136.37 71.0593 136.114 70.5081C136.08 70.4287 136.079 70.3392 136.109 70.2586C136.14 70.1779 136.202 70.1125 136.28 70.0762C136.358 70.0399 136.448 70.0356 136.529 70.0642C136.611 70.0928 136.678 70.1521 136.716 70.2294C136.957 70.7486 137.239 71.248 137.559 71.7226C137.592 71.7725 137.612 71.8306 137.615 71.8907C137.618 71.9508 137.605 72.0107 137.577 72.0638C137.548 72.117 137.506 72.1615 137.455 72.1925C137.403 72.2235 137.344 72.2399 137.284 72.2399M142.444 69.5576C142.052 69.5581 141.659 69.5322 141.27 69.4801C141.226 69.4751 141.183 69.4614 141.145 69.4398C141.106 69.4182 141.072 69.3891 141.045 69.3542C141.018 69.3193 140.998 69.2794 140.987 69.2367C140.975 69.194 140.972 69.1495 140.978 69.1057C140.984 69.0619 140.999 69.0197 141.021 68.9817C141.044 68.9436 141.074 68.9104 141.109 68.8841C141.145 68.8577 141.185 68.8387 141.228 68.8281C141.271 68.8176 141.315 68.8157 141.359 68.8227C141.922 68.8961 142.491 68.9121 143.057 68.8705C143.101 68.8662 143.145 68.8709 143.188 68.8841C143.23 68.8972 143.269 68.9187 143.303 68.9473C143.337 68.9758 143.364 69.0109 143.384 69.0503C143.405 69.0897 143.417 69.1328 143.42 69.1769C143.423 69.221 143.417 69.2653 143.403 69.3072C143.389 69.3491 143.366 69.3878 143.337 69.4209C143.308 69.454 143.272 69.4809 143.232 69.5C143.192 69.5191 143.149 69.5301 143.105 69.5322C142.885 69.5475 142.663 69.5557 142.446 69.5557M144.824 69.2377C144.744 69.2376 144.666 69.2085 144.606 69.1556C144.546 69.1028 144.506 69.0298 144.496 68.9503C144.485 68.8707 144.503 68.79 144.548 68.723C144.592 68.656 144.659 68.6073 144.736 68.586C145.281 68.4393 145.805 68.2274 146.299 67.9548C146.337 67.9316 146.379 67.9162 146.423 67.9097C146.468 67.9032 146.513 67.9057 146.556 67.9169C146.599 67.9282 146.639 67.9481 146.675 67.9754C146.71 68.0027 146.739 68.0368 146.761 68.0758C146.783 68.1147 146.797 68.1577 146.802 68.202C146.807 68.2464 146.802 68.2913 146.789 68.334C146.777 68.3767 146.755 68.4164 146.727 68.4507C146.698 68.4849 146.663 68.5131 146.623 68.5334C146.083 68.8321 145.509 69.0644 144.913 69.2253C144.884 69.2332 144.854 69.2373 144.824 69.2372M135.812 69.0374C135.739 69.0373 135.668 69.0131 135.61 68.9686C135.552 68.9241 135.511 68.8617 135.492 68.7911C135.333 68.201 135.23 67.5971 135.185 66.9876C135.181 66.901 135.21 66.8163 135.268 66.7514C135.325 66.6866 135.406 66.6468 135.492 66.6406C135.579 66.6343 135.664 66.6621 135.73 66.718C135.797 66.7739 135.838 66.8535 135.847 66.9398C135.889 67.5074 135.985 68.0698 136.133 68.6195C136.147 68.6686 136.148 68.7202 136.138 68.7701C136.128 68.82 136.107 68.8669 136.076 68.9073C136.045 68.9476 136.005 68.9803 135.959 69.0028C135.914 69.0252 135.864 69.0369 135.813 69.0369M139.613 69.023C139.569 69.0231 139.525 69.0143 139.484 68.9972C138.917 68.7553 138.381 68.4475 137.886 68.0801C137.85 68.0547 137.819 68.0224 137.795 67.9849C137.772 67.9475 137.756 67.9058 137.749 67.8622C137.742 67.8186 137.744 67.774 137.754 67.731C137.764 67.688 137.783 67.6475 137.809 67.6119C137.835 67.5763 137.868 67.5463 137.906 67.5237C137.944 67.501 137.986 67.4861 138.03 67.4799C138.074 67.4738 138.118 67.4764 138.161 67.4876C138.204 67.4989 138.244 67.5186 138.279 67.5456C138.732 67.8822 139.222 68.1643 139.741 68.3861C139.811 68.416 139.869 68.4692 139.905 68.5368C139.941 68.6045 139.952 68.6823 139.937 68.7573C139.922 68.8323 139.881 68.8997 139.822 68.9482C139.763 68.9967 139.689 69.0233 139.612 69.0235M147.836 67.4801C147.773 67.48 147.71 67.4617 147.657 67.4272C147.603 67.3927 147.561 67.3436 147.534 67.2856C147.508 67.2276 147.499 67.1633 147.508 67.1003C147.517 67.0372 147.545 66.9782 147.586 66.9302C147.896 66.5789 148.134 66.1702 148.286 65.7272C148.31 65.6587 148.331 65.5893 148.35 65.5192C148.361 65.4771 148.38 65.4377 148.407 65.4032C148.434 65.3687 148.467 65.3398 148.505 65.3181C148.543 65.2964 148.584 65.2824 148.627 65.2768C148.671 65.2712 148.715 65.2742 148.757 65.2856C148.799 65.297 148.838 65.3166 148.873 65.3432C148.907 65.3698 148.936 65.403 148.958 65.4408C148.979 65.4786 148.993 65.5203 148.999 65.5636C149.005 65.6068 149.002 65.6507 148.99 65.6928C148.968 65.775 148.942 65.8582 148.915 65.94C148.735 66.4648 148.454 66.9493 148.087 67.3658C148.056 67.4015 148.017 67.4302 147.974 67.4498C147.931 67.4694 147.884 67.4796 147.837 67.4796M136.767 66.966C136.721 66.9662 136.676 66.9569 136.634 66.9388C136.592 66.9207 136.555 66.8942 136.524 66.8609C136.128 66.4349 135.765 65.9805 135.435 65.5015C135.37 65.4718 135.316 65.4219 135.282 65.359C135.247 65.2962 135.234 65.2239 135.244 65.1529C135.329 64.5424 135.485 63.9439 135.71 63.3699C135.744 63.2898 135.807 63.226 135.887 63.1922C135.967 63.1584 136.057 63.1573 136.138 63.1892C136.219 63.221 136.284 63.2833 136.32 63.3626C136.355 63.4419 136.358 63.5319 136.328 63.6133C136.146 64.0774 136.013 64.5593 135.931 65.0511L135.941 65.0645C136.263 65.539 136.62 65.9883 137.01 66.4085C137.054 66.4558 137.083 66.5149 137.094 66.5786C137.105 66.6422 137.097 66.7077 137.071 66.7669C137.046 66.8262 137.003 66.8766 136.949 66.9121C136.895 66.9475 136.832 66.9664 136.767 66.9665M148.765 64.1837C148.685 64.1836 148.608 64.1544 148.547 64.1017C148.487 64.049 148.448 63.9762 148.437 63.8969C148.356 63.3454 148.191 62.8094 147.95 62.307C147.916 62.2281 147.914 62.139 147.944 62.0585C147.975 61.9781 148.035 61.9126 148.113 61.8758C148.19 61.8391 148.279 61.8339 148.361 61.8615C148.442 61.889 148.51 61.9471 148.549 62.0235C148.819 62.586 149.003 63.1862 149.093 63.8036C149.1 63.8506 149.096 63.8985 149.082 63.944C149.069 63.9896 149.046 64.0316 149.015 64.0675C148.983 64.1033 148.945 64.132 148.902 64.1516C148.858 64.1713 148.812 64.1814 148.764 64.1814M134.772 64.0566C134.711 64.0566 134.65 64.0395 134.598 64.0072C134.545 63.9748 134.503 63.9285 134.475 63.8734C134.205 63.3335 133.969 62.7773 133.768 62.2081C133.752 62.1667 133.745 62.1226 133.746 62.0783C133.748 62.034 133.758 61.9905 133.777 61.9502C133.795 61.91 133.822 61.8739 133.854 61.844C133.887 61.8142 133.925 61.7912 133.967 61.7764C134.009 61.7616 134.053 61.7553 134.097 61.758C134.142 61.7606 134.185 61.772 134.225 61.7916C134.264 61.8112 134.3 61.8386 134.329 61.8721C134.358 61.9056 134.38 61.9445 134.394 61.9867C134.586 62.5299 134.811 63.0607 135.069 63.576C135.093 63.6265 135.105 63.6825 135.102 63.7387C135.099 63.7948 135.082 63.8494 135.053 63.8972C135.023 63.945 134.982 63.9845 134.933 64.0119C134.884 64.0394 134.828 64.0539 134.772 64.0542M136.857 62.2669C136.797 62.2666 136.738 62.2498 136.687 62.2185C136.635 62.1872 136.593 62.1424 136.565 62.0891C136.537 62.0357 136.524 61.9757 136.528 61.9155C136.531 61.8554 136.551 61.7973 136.585 61.7476C136.934 61.2453 137.329 60.7772 137.766 60.3495C137.83 60.2909 137.913 60.2593 138 60.2615C138.086 60.2636 138.168 60.2993 138.229 60.361C138.289 60.4226 138.323 60.5054 138.323 60.5918C138.324 60.6781 138.29 60.7612 138.231 60.8234C137.824 61.2216 137.455 61.6576 137.131 62.1253C137.1 62.1696 137.06 62.2058 137.012 62.2308C136.965 62.2558 136.912 62.2688 136.858 62.2688M147.296 61.0127C147.247 61.0128 147.199 61.0022 147.155 60.9816C147.111 60.961 147.072 60.931 147.041 60.8937C146.681 60.4614 146.267 60.0771 145.81 59.7499C145.771 59.7263 145.737 59.6949 145.711 59.6577C145.684 59.6205 145.666 59.5783 145.657 59.5337C145.648 59.4891 145.648 59.4431 145.657 59.3985C145.666 59.3539 145.685 59.3117 145.711 59.2745C145.737 59.2373 145.771 59.2059 145.81 59.1824C145.849 59.1588 145.892 59.1434 145.937 59.1374C145.983 59.1313 146.028 59.1346 146.072 59.147C146.116 59.1594 146.157 59.1808 146.192 59.2096C146.696 59.5695 147.151 59.9925 147.548 60.4681C147.588 60.5164 147.614 60.5751 147.622 60.6374C147.63 60.6998 147.621 60.7632 147.594 60.8202C147.568 60.8773 147.526 60.9257 147.473 60.9598C147.42 60.9939 147.359 61.0122 147.296 61.0127M133.594 60.7287C133.519 60.7286 133.445 60.7028 133.386 60.6555C133.328 60.6082 133.287 60.5423 133.27 60.4686C133.14 59.8787 133.047 59.2811 132.993 58.6794C132.987 58.593 133.015 58.5079 133.072 58.4422C133.128 58.3765 133.208 58.3354 133.294 58.3276C133.38 58.3199 133.466 58.3461 133.533 58.4008C133.6 58.4554 133.643 58.5341 133.653 58.6201C133.705 59.1936 133.794 59.7633 133.918 60.3256C133.929 60.3741 133.929 60.4244 133.917 60.4727C133.906 60.5211 133.884 60.5663 133.853 60.605C133.822 60.6437 133.782 60.6749 133.737 60.6964C133.693 60.7179 133.644 60.7291 133.594 60.7292M139.376 59.8126C139.304 59.8126 139.234 59.7895 139.177 59.7466C139.12 59.7037 139.078 59.6434 139.057 59.5747C139.037 59.506 139.039 59.4325 139.064 59.3654C139.089 59.2982 139.135 59.2409 139.195 59.202C139.713 58.8635 140.27 58.5904 140.855 58.3891C140.938 58.362 141.029 58.3687 141.107 58.4079C141.185 58.4471 141.245 58.5156 141.273 58.5984C141.301 58.6813 141.295 58.7718 141.256 58.8504C141.218 58.9289 141.15 58.9891 141.067 59.0179C140.535 59.2011 140.027 59.4496 139.556 59.7576C139.502 59.7923 139.44 59.8107 139.376 59.8107M144.435 59.0026C144.399 59.0026 144.363 58.9966 144.329 58.9849C144.261 58.9623 144.193 58.9409 144.125 58.9208C143.685 58.7937 143.229 58.7294 142.771 58.7296H142.701C142.613 58.7309 142.528 58.6971 142.465 58.6358C142.402 58.5744 142.365 58.4905 142.364 58.4025C142.363 58.3145 142.397 58.2296 142.458 58.1665C142.519 58.1034 142.603 58.0672 142.691 58.0659H142.771C143.291 58.0661 143.809 58.1397 144.309 58.2844C144.387 58.3071 144.464 58.3313 144.541 58.3571C144.615 58.3824 144.678 58.4333 144.719 58.5007C144.759 58.568 144.774 58.6475 144.762 58.7251C144.749 58.8026 144.709 58.873 144.649 58.924C144.589 58.9749 144.514 59.0029 144.435 59.0031M133.284 57.2139H133.268C133.224 57.2119 133.182 57.2014 133.142 57.1828C133.102 57.1643 133.067 57.1381 133.038 57.1058C133.008 57.0735 132.985 57.0357 132.971 56.9946C132.956 56.9535 132.949 56.9099 132.951 56.8663C132.98 56.2602 133.053 55.6572 133.172 55.0622C133.18 55.0184 133.196 54.9765 133.22 54.9391C133.244 54.9016 133.275 54.8693 133.312 54.8442C133.348 54.819 133.39 54.8014 133.433 54.7925C133.477 54.7836 133.521 54.7835 133.565 54.7923C133.609 54.8011 133.65 54.8185 133.687 54.8436C133.723 54.8687 133.755 54.9009 133.779 54.9383C133.803 54.9757 133.819 55.0175 133.827 55.0613C133.834 55.1051 133.833 55.15 133.823 55.1933C133.71 55.7554 133.641 56.3252 133.614 56.8978C133.61 56.9829 133.573 57.0632 133.512 57.122C133.45 57.1808 133.368 57.2137 133.283 57.2139M133.988 53.7627C133.934 53.7626 133.881 53.7495 133.834 53.7245C133.786 53.6995 133.745 53.6632 133.715 53.6189C133.684 53.5746 133.665 53.5235 133.659 53.4701C133.652 53.4167 133.659 53.3625 133.678 53.3122C133.861 52.8343 134.079 52.3708 134.331 51.9256C134.38 51.8396 134.43 51.7548 134.481 51.6713C134.527 51.5961 134.601 51.5423 134.686 51.5216C134.772 51.5009 134.862 51.515 134.937 51.5608C135.012 51.6067 135.066 51.6805 135.087 51.766C135.108 51.8516 135.093 51.9418 135.048 52.017C135 52.0947 134.954 52.1736 134.909 52.2536C134.673 52.6698 134.469 53.1031 134.298 53.5499C134.274 53.6126 134.231 53.6666 134.176 53.7046C134.121 53.7427 134.055 53.7631 133.988 53.7631M135.815 50.7551C135.751 50.7552 135.688 50.7366 135.635 50.7018C135.581 50.667 135.538 50.6174 135.512 50.559C135.486 50.5006 135.477 50.4358 135.487 50.3726C135.497 50.3093 135.525 50.2502 135.567 50.2024C135.974 49.7487 136.418 49.3307 136.896 48.953C136.965 48.9016 137.051 48.8792 137.137 48.8904C137.222 48.9017 137.3 48.9457 137.353 49.0132C137.407 49.0808 137.432 49.1665 137.424 49.2523C137.415 49.338 137.374 49.4171 137.308 49.4728C136.861 49.8268 136.445 50.2186 136.065 50.6437C136.034 50.6787 135.995 50.7066 135.953 50.7258C135.91 50.7449 135.864 50.7547 135.817 50.7547M138.571 48.5552C138.497 48.5558 138.426 48.5319 138.367 48.4872C138.308 48.4425 138.266 48.3795 138.247 48.3083C138.229 48.237 138.234 48.1615 138.263 48.0937C138.292 48.0259 138.342 47.9695 138.407 47.9336C138.933 47.6352 139.478 47.3714 140.038 47.1437C140.119 47.1125 140.209 47.1143 140.289 47.1488C140.369 47.1833 140.432 47.2477 140.464 47.3281C140.497 47.4086 140.497 47.4987 140.464 47.5791C140.431 47.6595 140.368 47.7238 140.289 47.7582C139.755 47.975 139.236 48.2262 138.736 48.5103C138.686 48.5388 138.629 48.5538 138.572 48.5538M141.835 47.2121C141.756 47.2106 141.68 47.1809 141.621 47.1284C141.562 47.076 141.524 47.0041 141.513 46.9259C141.502 46.8476 141.52 46.768 141.562 46.7015C141.605 46.6349 141.67 46.5857 141.745 46.5628C142.325 46.4001 142.913 46.2673 143.506 46.165C143.593 46.15 143.682 46.1701 143.754 46.2209C143.826 46.2716 143.875 46.3489 143.89 46.4356C143.905 46.5224 143.885 46.6115 143.834 46.6834C143.783 46.7553 143.706 46.8041 143.619 46.8191C143.048 46.9174 142.483 47.0451 141.925 47.2016C141.896 47.2098 141.866 47.214 141.835 47.214" fill="#2EBD62"/>
<path d="M153.409 40.4111H144.028C143.235 40.4111 142.593 41.0533 142.593 41.8456V49.9075C142.593 50.6997 143.235 51.3419 144.028 51.3419H153.409C154.202 51.3419 154.844 50.6997 154.844 49.9075V41.8456C154.844 41.0533 154.202 40.4111 153.409 40.4111Z" fill="#EF4D35"/>
<path d="M149.198 53.9444C149.154 54.0053 149.096 54.0549 149.029 54.0891C148.961 54.1233 148.887 54.1411 148.812 54.1411C148.736 54.1411 148.662 54.1233 148.595 54.0891C148.528 54.0549 148.469 54.0053 148.425 53.9444L146.349 51.0894C146.297 51.018 146.266 50.9337 146.259 50.8458C146.252 50.7579 146.269 50.6698 146.309 50.5912C146.349 50.5126 146.41 50.4466 146.485 50.4005C146.561 50.3545 146.647 50.3301 146.735 50.3301H150.889C150.977 50.3301 151.064 50.3545 151.139 50.4005C151.214 50.4466 151.275 50.5126 151.315 50.5912C151.355 50.6698 151.373 50.7579 151.366 50.8458C151.359 50.9337 151.328 51.018 151.276 51.0894L149.198 53.9444Z" fill="#EF4D35"/>
<path d="M152.154 44.8132C152.151 44.5716 152.101 44.3329 152.006 44.1109C151.911 43.8888 151.773 43.6876 151.6 43.5189C151.427 43.3502 151.222 43.2172 150.998 43.1275C150.774 43.0378 150.534 42.9932 150.292 42.9962C150.117 43.232 149.889 43.4234 149.626 43.5553C149.363 43.6872 149.074 43.7559 148.78 43.7559C148.486 43.7559 148.196 43.6872 147.933 43.5553C147.671 43.4234 147.443 43.232 147.267 42.9962C147.025 42.9932 146.786 43.0378 146.561 43.1275C146.337 43.2172 146.133 43.3502 145.96 43.5189C145.787 43.6876 145.649 43.8888 145.553 44.1108C145.458 44.3329 145.408 44.5716 145.405 44.8132C145.404 44.952 145.421 45.0903 145.453 45.2253C145.712 46.7917 147.497 48.4442 148.777 48.8979C150.057 48.4442 151.843 46.7941 152.101 45.2258C152.135 45.0909 152.153 44.9523 152.154 44.8132Z" fill="white"/>
</g>
<defs>
<filter id="filter0_d_112_10113" x="2.99658" y="14.1284" width="157.779" height="105.566" filterUnits="userSpaceOnUse" color-interpolation-filters="sRGB">
<feFlood flood-opacity="0" result="BackgroundImageFix"/>
<feColorMatrix in="SourceAlpha" type="matrix" values="0 0 0 0 0 0 0 0 0 0 0 0 0 0 0 0 0 0 127 0" result="hardAlpha"/>
<feOffset dx="5" dy="5"/>
<feGaussianBlur stdDeviation="10"/>
<feColorMatrix type="matrix" values="0 0 0 0 0 0 0 0 0 0.258824 0 0 0 0 0.501961 0 0 0 0.149 0"/>
<feBlend mode="normal" in2="BackgroundImageFix" result="effect1_dropShadow_112_10113"/>
<feBlend mode="normal" in="SourceGraphic" in2="effect1_dropShadow_112_10113" result="shape"/>
</filter>
<filter id="filter1_d_112_10113" x="15.9966" y="23.7349" width="121.779" height="11.0981" filterUnits="userSpaceOnUse" color-interpolation-filters="sRGB">
<feFlood flood-opacity="0" result="BackgroundImageFix"/>
<feColorMatrix in="SourceAlpha" type="matrix" values="0 0 0 0 0 0 0 0 0 0 0 0 0 0 0 0 0 0 127 0" result="hardAlpha"/>
<feOffset dy="3"/>
<feGaussianBlur stdDeviation="1"/>
<feColorMatrix type="matrix" values="0 0 0 0 0 0 0 0 0 0 0 0 0 0 0 0 0 0 0.012 0"/>
<feBlend mode="normal" in2="BackgroundImageFix" result="effect1_dropShadow_112_10113"/>
<feBlend mode="normal" in="SourceGraphic" in2="effect1_dropShadow_112_10113" result="shape"/>
</filter>
<linearGradient id="paint0_linear_112_10113" x1="-32.9264" y1="-106.059" x2="49.1655" y2="264.708" gradientUnits="userSpaceOnUse">
<stop stop-color="#DBEEFF"/>
<stop offset="0.419" stop-color="#F4FAFF"/>
<stop offset="1" stop-color="#DBEEFF"/>
</linearGradient>
<linearGradient id="paint1_linear_112_10113" x1="97.6149" y1="91.3511" x2="54.0605" y2="-0.725829" gradientUnits="userSpaceOnUse">
<stop stop-color="#F4FAFF"/>
<stop offset="1" stop-color="white"/>
</linearGradient>
</defs>
</svg>
